<?xml version="1.0" standalone="no"?>
<!DOCTYPE svg PUBLIC "-//W3C//DTD SVG 1.1//EN" "http://www.w3.org/Graphics/SVG/1.1/DTD/svg11.dtd" >
<svg xmlns="http://www.w3.org/2000/svg" xmlns:xlink="http://www.w3.org/1999/xlink" version="1.1">
<metadata>
Created by FontForge 20160405 at Wed Jun 20 00:08:04 2018
 By www-data
Copyright \(c\) 2012 TypeSETit, LLC \(typesetit@att.net\),\015with Reserved Font Name "Great Vibes". Vietnamese by Viet Linh
</metadata>
<defs>
<font id="VLGreatVibes" horiz-adv-x="335" >
  <font-face 
    font-family="VL Great Vibes"
    font-weight="400"
    font-stretch="normal"
    units-per-em="1000"
    panose-1="2 0 5 7 8 0 0 2 0 2"
    ascent="800"
    descent="-200"
    x-height="344"
    cap-height="833"
    bbox="-400 -400.278 1628.8 973.714"
    underline-thickness="14"
    underline-position="-92"
    unicode-range="U+0020-FB04"
  />
<missing-glyph horiz-adv-x="1000" 
 />
    <glyph glyph-name=".notdef" horiz-adv-x="1000" 
 />
    <glyph glyph-name="NULL" horiz-adv-x="0" 
 />
    <glyph glyph-name="CR" horiz-adv-x="333" 
 />
    <glyph glyph-name="space" unicode=" " horiz-adv-x="259" 
 />
    <glyph glyph-name="exclam" unicode="!" horiz-adv-x="350" 
d="M502 620l31 -1l5 -2l2 -6c-6 -16 -62 -102 -169 -259l-166 -245l-10 1l1 7l254 484c7 14 25 21 52 21zM119 15c0 36 26 53 49 53s35 -18 35 -29s1 -25 -18 -41c-32 -28 -66 -1 -66 17z" />
    <glyph glyph-name="quotedbl" unicode="&#x22;" horiz-adv-x="318" 
d="M308 657c16 0 24 -10 24 -29c0 -21 -6 -54 -17 -99s-17 -68 -18 -70h-10l-8 166c-1 19 10 32 29 32zM200 657c15 0 23 -11 23 -34s-11 -77 -34 -164h-10l-9 165c-1 17 13 33 30 33z" />
    <glyph glyph-name="numbersign" unicode="#" horiz-adv-x="746" 
d="M571 465h148l-28 -48h-149l-83 -141h161l-29 -47h-161l-139 -229h-53l137 229h-138l-139 -229h-53l138 229h-158l30 47h156l84 141h-170l29 48h170l138 231h55l-140 -231h140l139 231h54zM404 276l84 141h-139l-85 -141h140z" />
    <glyph glyph-name="dollar" unicode="$" horiz-adv-x="449" 
d="M452 492c-5 32 -26 52 -63 60l-117 -212c45 -59 67 -108 67 -148s-14 -75 -42 -106c-56 -61 -137 -88 -214 -88l-28 -53l-34 -6l35 61c-65 12 -106 30 -123 53c1 5 7 13 18 24h9c27 -29 63 -47 108 -56l149 272c-80 99 -72 166 -23 215c45 45 105 67 180 67l28 52l32 6
l-33 -61c51 -8 74 -44 74 -83c3 -62 -62 -85 -87 -55c-16 17 -16 46 1 62c25 25 59 7 63 -4zM256 362l108 194l-14 1c-32 0 -62 -11 -89 -32s-41 -48 -41 -79c0 -14 2 -26 7 -35c9 -19 28 -46 29 -49zM276 174c0 29 -14 61 -41 98l-141 -254c46 0 88 15 125 44
c38 30 57 67 57 112z" />
    <glyph glyph-name="percent" unicode="%" horiz-adv-x="621" 
d="M271 732c50 0 75 -24 75 -72c0 -57 -25 -121 -76 -190c-11 -16 -22 -29 -32 -38c9 -17 23 -25 42 -25c31 0 76 23 133 69c17 13 50 48 100 103c51 55 77 84 80 86c7 4 24 5 27 -4l-615 -745h-37l-1 5c95 100 199 219 311 356c33 41 86 107 159 196
c-65 -55 -118 -83 -159 -83c-23 0 -43 8 -59 25c-29 -23 -58 -34 -85 -34c-49 0 -73 31 -73 92c0 29 7 59 22 91c20 46 48 85 84 118c37 33 71 50 104 50zM488 321c51 0 76 -25 76 -76s-21 -106 -62 -166c-50 -72 -100 -108 -151 -108c-49 0 -73 31 -73 92c0 28 7 58 22 90
c20 47 48 86 84 119c37 33 71 49 104 49zM153 403c16 0 34 9 55 26c-11 17 -16 34 -15 49c0 29 11 43 34 43c31 0 32 -33 28 -41c12 17 24 40 37 70c37 87 37 139 2 148c-4 1 -8 2 -12 2c-36 0 -90 -50 -130 -134c-47 -97 -47 -163 1 -163zM369 -8c21 0 56 23 71 40
c8 9 19 22 34 41s29 47 42 86c14 39 21 67 21 86c0 29 -12 44 -37 44c-37 0 -91 -49 -131 -133c-47 -99 -47 -164 0 -164z" />
    <glyph glyph-name="ampersand" unicode="&#x26;" horiz-adv-x="606" 
d="M335 398l67 2c28 0 47 -6 56 -18c9 -11 9 -22 2 -30c-8 -10 -23 -15 -45 -15c-38 0 -72 15 -101 44c-75 -11 -131 -51 -170 -119c-25 -44 -37 -87 -37 -129c0 -23 4 -46 11 -69c22 -64 70 -96 143 -96c65 0 122 22 170 66s72 88 72 131c0 41 -43 71 -83 75
c-19 3 -36 4 -50 4c-27 0 -74 -2 -117 -31c-25 -17 -38 -40 -38 -69s22 -55 67 -78c13 -8 9 -26 0 -21c-42 23 -72 48 -89 77c-24 37 -20 62 -13 78c16 47 83 83 182 83h177c35 0 77 12 128 35c25 11 43 25 54 40c11 16 10 36 2 49c-12 20 2 22 8 13c19 -32 18 -61 1 -85
c-17 -25 -45 -46 -85 -61s-81 -23 -124 -23h-5c25 -21 38 -47 38 -79c0 -45 -26 -91 -78 -138c-49 -47 -132 -79 -217 -79c-103 0 -176 30 -219 90s-36 117 -19 165c23 63 70 112 141 147c41 20 86 33 137 38c-19 26 -28 59 -28 98c1 39 18 76 52 111c68 69 163 99 247 99
c69 0 125 -27 125 -88c0 -19 -6 -37 -18 -52c-24 -29 -58 -26 -77 -9c-29 31 -6 80 32 80c16 0 33 -9 36 -18c1 4 1 8 1 12c0 15 -6 26 -18 34c-25 19 -78 21 -146 -7c-68 -27 -132 -79 -167 -155c-19 -43 -17 -75 -5 -102zM448 367c0 12 -25 18 -74 18c-10 0 -20 0 -31 -1
c16 -20 37 -30 64 -30s41 4 41 13z" />
    <glyph glyph-name="quotesingle" unicode="'" horiz-adv-x="158" 
d="M77 390c0 4 3 7 8 9c40 15 72 44 77 87c-20 -13 -43 -14 -55 1s-10 24 -7 37c3 15 24 35 48 35c25 0 40 -26 40 -55c0 -59 -48 -99 -100 -116c-4 -1 -11 -2 -11 2z" />
    <glyph glyph-name="parenleft" unicode="(" horiz-adv-x="350" 
d="M496 755c12 3 23 4 23 -4c-1 -7 -8 -12 -23 -17c-43 -11 -85 -29 -124 -54c-79 -49 -131 -105 -176 -173c-75 -111 -113 -224 -113 -338c0 -86 21 -147 63 -182c20 -17 44 -25 72 -25c12 0 37 6 38 -6c1 -11 -17 -16 -52 -16s-70 15 -104 46c-33 30 -56 74 -68 133
c-9 47 -12 112 9 205c20 75 78 167 155 248c39 41 85 79 138 112s107 57 162 71z" />
    <glyph glyph-name="parenright" unicode=")" horiz-adv-x="518" 
d="M37 -51c-12 -3 -23 -4 -23 4c0 7 8 13 24 17c107 28 205 100 266 181c97 129 146 257 146 384c0 86 -21 146 -63 181c-21 17 -45 26 -73 26c-11 0 -34 -6 -37 6c-1 11 17 16 52 16s70 -15 103 -46c34 -30 57 -74 69 -133c9 -47 12 -112 -9 -205
c-13 -51 -41 -105 -82 -163s-96 -113 -163 -164s-137 -85 -210 -104z" />
    <glyph glyph-name="asterisk" unicode="*" horiz-adv-x="431" 
d="M16 369c0 13 7 20 21 20h145c-19 43 -38 84 -57 125c-6 13 -5 20 4 22c2 1 4 1 5 1c9 0 18 -7 25 -22l59 -115l116 117c10 10 17 11 20 2c3 -5 7 -17 -13 -38l-85 -92h136c11 0 16 -3 16 -10c0 -10 -8 -17 -25 -21l-10 -1l-132 -5c19 -38 36 -73 53 -105
c3 -5 2 -12 -2 -21c-12 -21 -25 -20 -36 -3l-50 112l-109 -119c-13 -13 -56 6 -29 32l100 101l-132 -5c-12 0 -20 16 -20 25z" />
    <glyph glyph-name="plus" unicode="+" horiz-adv-x="458" 
d="M159 242l139 -3l10 43l23 96c5 18 13 27 23 27c7 0 9 -6 6 -18s-12 -61 -29 -148c13 -1 34 -1 64 -1h66c15 0 18 -9 18 -14c0 -9 -7 -13 -21 -13c-31 0 -76 -2 -133 -6l-9 -49c-9 -49 -13 -79 -14 -88c-1 -7 -9 -13 -24 -16c-4 -1 -8 -1 -11 -1c-9 0 -14 4 -14 12
c0 4 12 51 35 140l-76 -5l-65 -4c-7 -1 -11 6 -11 19c2 17 10 27 23 29z" />
    <glyph glyph-name="comma" unicode="," horiz-adv-x="153" 
d="M115 20c0 -60 -52 -105 -104 -122c-7 -7 -18 3 -2 11c40 13 71 44 76 87c-27 -21 -69 -7 -62 31c3 23 25 41 50 41s42 -20 42 -48z" />
    <glyph glyph-name="hyphen" unicode="-" horiz-adv-x="406" 
d="M147 221c0 14 6 21 17 21c43 0 117 -1 220 -4c11 -1 18 -5 21 -13c-1 -8 -7 -13 -17 -14c-52 0 -103 -3 -152 -9c-49 -5 -73 -8 -73 -8c-8 0 -16 16 -16 27z" />
    <glyph glyph-name="period" unicode="." horiz-adv-x="208" 
d="M102 15c0 36 26 53 49 53s35 -18 35 -29s1 -25 -18 -41c-32 -28 -66 -1 -66 17z" />
    <glyph glyph-name="slash" unicode="/" horiz-adv-x="548" 
d="M232 159c-114 -133 -183 -200 -208 -200c-11 0 -13 10 8 29c21 17 64 64 124 136c31 36 60 71 88 105c29 35 64 79 107 133l109 137c31 38 71 89 121 153l117 148c8 11 19 16 34 16s23 -5 23 -14c0 -5 -2 -9 -7 -14c-35 -40 -107 -129 -217 -266s-210 -258 -299 -363z
" />
    <glyph glyph-name="zero" unicode="0" horiz-adv-x="502" 
d="M505 468c0 -40 -10 -87 -29 -142c-39 -108 -98 -214 -186 -285c-43 -35 -85 -52 -124 -52c-77 0 -114 57 -114 130c0 51 18 113 54 185s83 136 140 191c58 56 113 84 166 84c62 0 93 -37 93 -111zM413 560c-31 0 -65 -20 -102 -59s-69 -84 -98 -137
c-29 -52 -53 -105 -72 -158s-29 -93 -29 -122c0 -50 20 -75 61 -75c42 0 87 32 134 95c48 63 87 132 116 207s44 136 44 181s-18 68 -54 68z" />
    <glyph glyph-name="one" unicode="1" horiz-adv-x="378" 
d="M70 -2l-9 2l-1 6l141 252l129 230c-54 -49 -108 -90 -163 -123h-4l-4 8l2 6c89 67 146 115 172 143s45 43 56 44l31 3c1 0 2 0 6 -1v-5l-304 -558c-3 -2 -21 -4 -52 -7z" />
    <glyph glyph-name="two" unicode="2" horiz-adv-x="488" 
d="M183 136l-42 -35c76 -38 122 -57 138 -57s32 6 49 17c33 23 58 55 63 56l7 -6v-4c-65 -79 -118 -119 -158 -119c-14 0 -34 6 -61 17c-52 23 -91 41 -95 42l-70 -55l-13 8c1 3 16 22 47 55c31 34 48 52 51 53c10 1 17 1 22 -1c208 185 312 317 312 394c0 29 -17 44 -50 44
s-65 -16 -96 -49c-30 -32 -52 -67 -67 -106l-4 -4h-12l-2 6c17 49 45 91 83 128s80 56 127 56c27 0 48 -7 65 -22s26 -36 26 -64s-21 -66 -62 -114c-83 -96 -163 -161 -194 -188c-15 -13 -37 -30 -64 -52z" />
    <glyph glyph-name="three" unicode="3" horiz-adv-x="458" 
d="M486 516c0 -73 -74 -136 -222 -189c36 0 67 -7 94 -22c27 -14 41 -39 41 -75c0 -35 -17 -73 -51 -112c-33 -39 -73 -71 -119 -94c-92 -47 -175 -43 -219 -11v5l7 6l5 2c21 -10 45 -15 70 -15c52 0 105 25 158 76c54 51 81 103 81 156c0 19 -7 34 -20 45
c-27 23 -52 22 -120 3l-7 3l-1 9l4 5c102 42 170 87 205 134c17 23 25 46 25 69s-13 35 -39 35c-39 0 -85 -30 -138 -89h-5l-7 6v5c60 73 121 110 182 110c44 0 76 -19 76 -62z" />
    <glyph glyph-name="four" unicode="4" horiz-adv-x="464" 
d="M438 353l18 1l6 -3l1 -6c0 -2 -10 -23 -30 -62s-32 -63 -37 -71h24l6 -4l-5 -11l-7 -5l-29 -1c-59 -119 -90 -179 -93 -182s-13 -6 -31 -10s-29 -6 -34 -6l-5 1v4c0 8 33 71 100 190l-243 -6v8c6 12 31 40 75 85c86 86 159 170 220 251c27 33 44 36 52 37c9 3 36 6 51 9
l7 -3l1 -7c0 -13 -44 -61 -133 -144c-48 -45 -107 -98 -148 -135l-87 -78l217 4l65 126c3 7 8 12 15 13c11 3 19 5 24 5z" />
    <glyph glyph-name="five" unicode="5" horiz-adv-x="445" 
d="M273 554c35 12 56 10 83 6c14 -2 37 -3 70 -3s58 7 77 21l4 -2c-11 -30 -31 -51 -60 -64s-57 -19 -86 -19l-102 3l-110 -191c45 30 89 45 134 45c59 0 100 -30 100 -87c0 -44 -18 -88 -55 -132c-36 -43 -79 -78 -130 -105c-50 -26 -95 -39 -134 -39s-65 4 -76 12v7l6 7
l4 2c16 -6 37 -9 62 -9c56 0 113 28 170 85s86 113 86 169c0 41 -25 64 -61 64c-17 0 -33 -3 -47 -8s-31 -14 -50 -26c-19 -11 -32 -19 -39 -22l-6 2v6c5 13 31 62 78 145c48 83 75 128 82 133z" />
    <glyph glyph-name="six" unicode="6" horiz-adv-x="421" 
d="M96 74c0 -36 20 -62 55 -62c29 0 59 15 89 46c31 31 55 66 72 105c36 80 38 143 -7 143c-21 0 -42 -10 -63 -30c-33 -31 -60 -74 -82 -129l-4 -5l-10 -1l-2 6c11 45 34 87 69 128c36 41 75 62 116 62c45 0 71 -32 71 -79c0 -37 -13 -76 -39 -119
c-26 -42 -59 -78 -100 -107c-40 -29 -78 -43 -113 -43c-71 0 -111 38 -111 114c0 38 13 82 39 131c26 50 60 97 102 142c77 82 158 152 242 211l6 1l7 -11c-1 -1 -2 -5 -10 -13c-3 -4 -14 -13 -31 -27c-17 -13 -27 -22 -32 -26c-47 -43 -89 -89 -126 -138s-69 -100 -97 -155
c-27 -54 -41 -102 -41 -144z" />
    <glyph glyph-name="seven" unicode="7" horiz-adv-x="488" 
d="M499 495l-159 4c-40 0 -70 -18 -82 -35c-15 -23 -28 -36 -37 -37l-3 2v6c28 55 53 91 75 106c22 16 62 24 119 24c58 0 105 -2 142 -7c9 7 15 10 20 10l4 -6l-2 -7c-21 -23 -76 -82 -166 -177c-93 -97 -183 -202 -272 -315c-30 -38 -47 -58 -51 -60c-4 -1 -27 -4 -70 -8
l-6 3l-1 4c5 20 135 153 390 399c43 41 76 73 99 94z" />
    <glyph glyph-name="eight" unicode="8" horiz-adv-x="420" 
d="M406 378c-29 -32 -61 -63 -96 -94c13 -28 19 -66 19 -114c0 -47 -21 -89 -64 -126c-42 -37 -88 -55 -137 -55c-63 0 -114 38 -114 90c0 53 27 101 78 149c43 41 85 76 126 106c-11 26 -17 53 -17 80c0 43 17 81 51 114c35 33 74 49 117 49c53 0 92 -28 92 -73
c0 -44 -19 -85 -55 -126zM425 501c0 35 -20 56 -55 56c-28 0 -52 -11 -73 -34s-31 -48 -31 -77c0 -28 12 -75 37 -141c32 27 60 58 85 93s37 70 37 103zM223 315c-109 -81 -163 -158 -163 -232c0 -45 25 -73 70 -73c37 0 68 15 95 45c27 31 40 65 40 102s-14 90 -42 158z
" />
    <glyph glyph-name="nine" unicode="9" horiz-adv-x="435" 
d="M306 182c-77 -83 -156 -151 -237 -204h-6l-5 9l4 6c161 113 263 254 306 422c7 25 10 49 10 72c0 46 -18 69 -55 69c-90 4 -197 -150 -192 -234c0 -37 17 -56 50 -56c53 0 98 46 137 139l4 3l11 -1l1 -5c-18 -47 -44 -91 -79 -132c-34 -41 -71 -62 -110 -62
c-44 0 -71 33 -71 78c0 58 30 121 91 189s119 102 175 102c64 0 98 -52 98 -129c0 -39 -12 -82 -37 -131c-24 -48 -56 -93 -95 -135z" />
    <glyph glyph-name="colon" unicode=":" horiz-adv-x="256" 
d="M172 251c3 23 25 41 48 41s35 -18 35 -29s1 -25 -18 -41c-30 -25 -71 -7 -65 29zM145 39c0 -36 -26 -53 -49 -53s-35 18 -35 29s-1 25 18 41c32 28 66 1 66 -17z" />
    <glyph glyph-name="semicolon" unicode=";" horiz-adv-x="255" 
d="M172 251c3 23 25 41 48 41s35 -18 35 -29s1 -25 -18 -41c-30 -25 -71 -7 -65 29zM151 14c0 -60 -48 -99 -100 -116c-7 -7 -19 3 -3 11c40 13 72 44 77 87c-29 -20 -70 -7 -63 31c4 23 25 41 49 41c25 0 40 -25 40 -54z" />
    <glyph glyph-name="less" unicode="&#x3c;" horiz-adv-x="329" 
d="M332 304l1 -7c-11 -18 -49 -50 -115 -95l-47 -32l-1 -136l-5 -10l-7 -3c-3 0 -6 1 -8 3c-9 24 -17 53 -24 87c-7 35 -11 57 -14 68c3 1 22 14 59 37c95 61 147 91 154 91z" />
    <glyph glyph-name="equal" unicode="=" horiz-adv-x="458" 
d="M409 322c0 -7 -6 -11 -17 -11c-69 0 -119 -2 -148 -7c-41 -7 -66 -10 -75 -10c-15 0 -22 10 -22 29c0 13 6 19 17 19h147c65 0 98 -7 98 -20zM409 222c0 -7 -6 -11 -17 -11c-69 0 -119 -2 -148 -7c-41 -7 -66 -10 -75 -10c-15 0 -22 10 -22 29c0 13 6 19 17 19h147
c65 0 98 -7 98 -20z" />
    <glyph glyph-name="greater" unicode="&#x3e;" horiz-adv-x="329" 
d="M236 214l12 -64l-205 -128l-7 -1c-3 0 -5 1 -8 2l-1 4c0 7 8 16 23 28l39 31c35 27 71 52 90 65l10 7l1 136l5 9l8 4l9 -4c10 -27 18 -56 24 -89z" />
    <glyph glyph-name="question" unicode="?" horiz-adv-x="382" 
d="M326 400l56 69c24 31 36 58 36 83c0 20 -11 35 -34 46c-20 8 -35 7 -58 4c-35 0 -106 -50 -101 -79v-5c3 13 15 25 35 36c23 11 37 9 46 4c11 -6 17 -17 17 -34c0 -33 -37 -59 -66 -59c-23 0 -38 9 -45 28c-7 13 -7 31 2 58c9 21 31 41 64 60c43 25 83 38 118 38
c41 0 70 -15 87 -45c5 -9 7 -18 7 -29c0 -37 -22 -81 -66 -131c-15 -17 -42 -44 -79 -81c-37 -36 -67 -69 -89 -98s-41 -64 -56 -105c-5 -12 -22 -6 -19 7c5 23 17 50 34 80s32 53 44 69c12 17 34 45 67 84zM119 15c0 36 26 53 49 53s35 -18 35 -29s1 -25 -18 -41
c-32 -28 -66 -1 -66 17z" />
    <glyph glyph-name="at" unicode="@" horiz-adv-x="956" 
d="M337 116c0 -28 11 -42 33 -42c25 0 53 18 85 55c34 41 65 88 93 142c29 54 48 87 59 98c11 12 24 18 41 18c11 0 43 -9 58 -6c-15 -15 -37 -49 -65 -102c-73 -140 -72 -213 -4 -213c42 0 85 18 128 53c44 35 78 80 102 135s36 108 36 159c0 63 -16 113 -47 149
c-63 73 -142 96 -241 96c-89 0 -172 -25 -251 -74c-78 -49 -138 -112 -179 -188s-62 -152 -62 -227s18 -135 55 -178c73 -87 169 -117 280 -117c108 0 211 33 309 99c6 6 11 6 16 -1s3 -12 -5 -15c-105 -70 -214 -105 -327 -105c-139 0 -242 41 -311 124
c-43 53 -65 119 -65 200c0 117 55 248 156 344c51 48 111 86 178 115s135 44 204 44c81 0 152 -18 215 -55c32 -18 58 -43 78 -74c25 -37 37 -83 37 -137c0 -53 -16 -108 -47 -165s-73 -107 -127 -150c-18 -14 -43 -26 -76 -37s-61 -16 -86 -16h-7c-26 0 -48 11 -67 33
c-21 25 -20 69 -5 122c-59 -96 -125 -162 -174 -162c-12 0 -23 3 -33 10c-27 17 -40 48 -40 95c0 81 35 163 106 248c39 47 88 78 147 92c16 4 31 6 46 6c39 0 72 -13 99 -40c16 -19 7 -40 -13 -36c-9 30 -29 45 -60 45c-16 0 -32 -5 -48 -14c-55 -29 -119 -99 -172 -186
c-33 -54 -49 -101 -49 -142z" />
    <glyph glyph-name="A" unicode="A" horiz-adv-x="712" 
d="M664 445c15 0 23 -10 23 -29c0 -21 -8 -40 -25 -58c-29 -33 -56 -74 -81 -123c-37 -75 -56 -142 -56 -202c0 -47 20 -67 41 -67c32 0 69 26 112 78c38 49 67 96 87 142c11 21 26 17 17 -4c-27 -61 -58 -114 -93 -160c-50 -74 -167 -121 -206 -54c-38 59 -15 179 18 224
c-67 -81 -139 -145 -215 -194c-40 -25 -84 -39 -133 -44c-9 -1 -32 -5 -63 11c-48 20 -72 69 -72 146c0 78 25 162 76 253c27 48 56 90 88 127c-45 21 -78 44 -100 69c-16 18 -24 40 -24 65s5 41 15 48c7 9 13 10 18 5c8 -12 -5 -31 -5 -47c0 -36 39 -84 114 -119
c157 174 319 261 488 261c105 0 172 -52 172 -127c0 -41 -23 -80 -68 -118c-23 -20 -55 -37 -97 -52c-64 -23 -140 -34 -229 -34c-88 0 -161 9 -219 28c-67 -95 -114 -175 -139 -238s-38 -111 -38 -146c0 -7 0 -14 1 -20c8 -55 36 -83 84 -83c54 0 117 29 188 88
c51 43 100 93 149 152s85 110 108 155c24 45 45 67 64 67zM819 658c0 29 -12 51 -36 66c-23 15 -56 23 -97 23s-83 -7 -124 -20s-79 -33 -115 -59c-71 -52 -120 -102 -184 -178c50 -16 111 -24 184 -24c137 0 236 22 299 66c49 34 73 76 73 126z" />
    <glyph glyph-name="B" unicode="B" horiz-adv-x="1041" 
d="M1038 192c0 -38 -14 -73 -41 -106c-39 -47 -90 -80 -155 -101c-48 -15 -95 -23 -140 -23c-17 0 -33 1 -49 3c-105 13 -193 36 -266 69c-66 -49 -136 -73 -209 -73c-87 0 -140 24 -161 72c-9 23 -15 54 16 89c24 27 57 40 100 40c28 0 53 -4 76 -12s51 -21 84 -39
s58 -31 74 -39c29 29 60 68 91 119s59 101 82 150c24 49 54 104 91 164s74 111 112 153l57 65c-105 19 -231 22 -383 -11c-104 -22 -184 -67 -240 -134c-34 -41 -51 -79 -51 -116c0 -49 24 -80 71 -95c45 -11 85 -14 136 29c16 15 27 30 34 44c15 28 8 42 21 42
c7 -1 10 -5 11 -14v-1c-7 -49 -33 -86 -78 -111c-27 -15 -55 -22 -82 -22l-52 9c-71 25 -106 71 -106 138c0 46 20 91 61 136c65 73 161 119 288 137c123 17 257 20 394 -9c19 16 35 27 49 32c28 11 28 8 29 7c4 0 5 -2 2 -7c-2 -4 -9 -10 -22 -18c-12 -8 -19 -15 -22 -22
c91 -23 156 -57 196 -100c43 -48 39 -98 10 -149c-19 -33 -51 -59 -94 -76s-87 -26 -131 -28c43 -13 82 -32 119 -56c52 -34 78 -79 78 -136zM688 -10c75 0 138 21 190 64c57 45 85 94 85 147c0 55 -29 96 -87 124c-21 10 -48 20 -79 29c-61 20 -102 32 -107 44
c0 13 10 19 29 20c13 0 32 -1 58 -3s48 -3 67 -3c37 1 98 30 135 71c30 33 45 65 45 94c0 63 -59 108 -176 135c-35 -49 -99 -152 -190 -309s-162 -262 -211 -315l-38 -36c75 -31 156 -51 243 -60c13 -1 25 -2 36 -2zM345 53c-78 37 -127 60 -148 67s-41 11 -62 11
c-20 0 -36 -7 -48 -22c-24 -28 -21 -51 -10 -72c15 -30 45 -45 92 -45c63 0 122 20 176 61z" />
    <glyph glyph-name="C" unicode="C" horiz-adv-x="710" 
d="M379 -101c-52 0 -102 10 -150 31c-95 40 -153 125 -165 218c-5 40 -7 82 5 161c6 39 19 82 39 128c21 46 45 87 73 122c-23 89 -21 164 -4 229c3 11 10 15 13 15c20 -2 -16 -72 15 -210c53 69 116 119 188 150c55 24 113 36 174 36c17 0 35 -1 54 -3
c103 -11 172 -51 208 -118c29 -56 29 -116 1 -180c-29 -64 -80 -111 -151 -142c-46 -20 -96 -30 -151 -30c-23 0 -47 2 -71 5c-119 17 -202 74 -248 170c-16 -23 -33 -61 -50 -114s-26 -94 -29 -123c-5 -57 -5 -91 0 -132c5 -37 19 -70 42 -100c23 -29 54 -50 93 -61
c39 -12 73 -18 102 -18c93 0 172 19 237 58c39 23 70 50 92 79c23 30 47 71 72 123c8 17 21 10 12 -10c-25 -51 -49 -92 -71 -122c-21 -30 -51 -58 -88 -84c-75 -52 -155 -78 -242 -78zM229 513c47 -121 146 -181 296 -181c85 0 152 24 203 71s77 101 77 161
s-26 107 -78 140c-39 25 -86 37 -143 37s-114 -16 -171 -49c-72 -42 -133 -102 -184 -179z" />
    <glyph glyph-name="D" unicode="D" horiz-adv-x="1014" 
d="M375 36c-62 -50 -131 -75 -206 -75c-86 0 -139 24 -159 72c-9 23 -15 53 16 88c24 27 57 41 100 41c29 0 57 -5 86 -16c29 -10 81 -35 155 -74c33 32 67 75 100 128s62 105 86 154c25 50 54 104 89 163s70 107 105 146c-75 45 -154 67 -238 67c-35 0 -70 -4 -106 -11
c-103 -22 -182 -67 -236 -135c-33 -41 -50 -81 -50 -118c0 -51 24 -84 73 -99c48 -11 83 -15 134 27c29 29 45 57 47 82c1 12 23 8 20 -9c-7 -49 -32 -86 -77 -111c-27 -15 -55 -22 -82 -22l-52 9c-51 17 -84 50 -100 97c-7 18 -10 36 -10 54c0 37 14 73 41 109
c59 79 163 129 312 151c29 4 58 6 87 6c93 0 181 -22 265 -66c52 60 98 92 125 92c22 0 13 -14 6 -14c-11 0 -26 -12 -44 -36s-33 -46 -44 -67c71 -47 126 -108 163 -182c30 -59 45 -124 45 -194c0 -87 -21 -156 -62 -207c-34 -42 -75 -72 -124 -89
c-58 -21 -115 -31 -172 -31c-115 0 -212 23 -293 70zM399 54c67 -40 146 -60 237 -60c105 0 189 30 252 90c50 49 75 116 75 202c0 61 -12 119 -36 173c-30 69 -74 126 -133 172c-19 -30 -57 -91 -112 -182s-101 -164 -139 -221s-68 -97 -90 -121c-22 -23 -40 -41 -54 -53z
M341 52c-78 37 -127 60 -148 67s-41 11 -61 11c-19 0 -35 -7 -47 -22c-23 -29 -20 -52 -9 -73c14 -29 43 -43 86 -43c64 0 124 20 179 60z" />
    <glyph glyph-name="E" unicode="E" horiz-adv-x="815" 
d="M492 375l-107 1c-88 0 -157 -21 -206 -64c-58 -49 -87 -107 -87 -172c0 -61 25 -115 98 -148c37 -17 87 -25 150 -25s130 13 200 40s129 59 177 96c55 43 82 80 82 112c0 15 -8 25 -24 28c-16 4 -24 8 -25 13c-1 6 4 9 15 8s21 -3 28 -7c30 -16 45 -37 45 -62
c0 -37 -26 -76 -78 -117c-51 -41 -116 -73 -195 -97s-152 -36 -221 -36s-124 7 -167 20c-75 23 -124 66 -147 129c-14 46 -19 87 35 175c52 87 209 152 303 151c-67 24 -120 70 -120 119v6c5 54 35 102 91 145s115 73 176 89c61 17 114 25 159 25c14 0 28 -1 41 -2
c55 -7 95 -21 119 -42s36 -42 36 -63c0 -30 -17 -59 -52 -87c-34 -27 -75 -46 -124 -57c-24 -5 -41 -6 -40 2c3 8 14 13 34 15c20 3 39 11 58 24c37 27 59 63 64 106v6c0 17 -8 32 -24 46c-20 19 -54 28 -101 28c-95 0 -202 -28 -287 -97c-51 -41 -76 -86 -76 -135
c-5 -62 66 -96 136 -108c51 -11 77 -25 77 -42c0 -15 -14 -23 -43 -23z" />
    <glyph glyph-name="F" unicode="F" horiz-adv-x="1048" 
d="M1003 610c-135 67 -243 100 -325 100s-151 -23 -206 -70c-53 -45 -79 -93 -79 -144c0 -27 10 -46 29 -58c26 -15 51 -22 74 -22c9 0 17 1 26 3c31 7 57 20 78 37s32 31 32 42c0 21 19 31 19 18c0 -4 -1 -9 -3 -14c-14 -47 -47 -80 -98 -97c-44 -15 -92 -18 -137 10
c-43 24 -64 61 -64 110c0 59 27 113 82 162s121 73 200 73c39 0 78 -6 117 -17c99 -27 188 -65 268 -116c21 23 42 34 64 34c25 0 37 -8 38 -25c1 -7 -2 -11 -7 -10c-3 1 -7 3 -11 8c-5 2 -10 3 -15 3c-15 0 -30 -7 -45 -22c49 -25 107 -46 174 -63c52 -12 81 -9 97 -8
c29 3 48 14 57 33c9 20 18 24 19 15v-8c0 -27 -14 -48 -42 -62c-35 -17 -63 -14 -99 -9c-18 3 -41 10 -70 19c-57 19 -88 34 -123 51l-28 14c-35 -39 -72 -107 -111 -203l-22 -55c118 -16 212 1 214 -13c1 -15 -49 -22 -149 -22c-32 0 -58 1 -77 4
c-41 -113 -83 -197 -124 -252c-35 -45 -89 -101 -148 -132c-66 -36 -140 -54 -221 -54s-150 18 -207 54c-86 53 -129 130 -129 231c0 34 6 70 17 109c8 25 23 48 44 67c22 19 40 31 55 35c29 9 30 7 -14 -24c-43 -31 -69 -70 -77 -116c-7 -33 -10 -78 10 -130
c27 -71 84 -123 170 -156c123 -47 279 -24 398 89c77 73 140 167 190 282l-64 1c-78 0 -129 -18 -154 -54c-12 -15 -21 -3 -16 9c15 32 35 55 62 69s53 21 79 21c27 0 62 -3 107 -9c21 51 47 103 78 158c32 55 54 89 67 104z" />
    <glyph glyph-name="G" unicode="G" horiz-adv-x="699" 
d="M159 462c-32 -69 -48 -131 -48 -186c0 -113 39 -182 116 -207c45 -12 93 -12 141 0c48 13 91 32 129 57s62 50 72 73c27 62 55 93 86 93c15 0 26 -9 31 -26c3 -7 3 -14 2 -22c-13 -104 -56 -198 -136 -330c80 -1 153 -9 219 -26c14 -3 21 -8 21 -14c0 -7 -10 -9 -29 -4
c-46 12 -112 18 -199 18h-26c-41 -59 -95 -110 -163 -155c-67 -45 -133 -76 -197 -93c-71 -19 -119 -17 -152 -5c-49 18 -73 42 -73 71c0 9 2 18 7 28c18 40 65 77 142 111c116 52 240 66 400 69c49 83 83 165 101 246l4 17c-32 -31 -68 -58 -109 -82
c-40 -23 -75 -40 -105 -49c-96 -31 -153 -27 -200 -10c-43 15 -77 44 -104 88c-57 93 -60 227 8 375c-88 91 -87 198 -4 290c16 17 26 11 13 -8c-30 -40 -45 -80 -45 -121c0 -47 17 -90 52 -131c4 9 11 22 22 39c52 85 123 151 212 196c70 36 138 54 203 54
c18 0 36 -1 54 -4c86 -13 144 -49 174 -106c24 -45 26 -98 -7 -158c-37 -65 -103 -110 -196 -136c-49 -14 -100 -21 -151 -21c-108 0 -196 23 -265 69zM573 787c-57 0 -118 -19 -182 -58c-94 -56 -167 -136 -219 -241c31 -24 67 -41 108 -51s74 -15 99 -15
c141 0 247 38 319 113c36 39 54 77 54 116c0 61 -34 103 -103 124c-25 8 -51 12 -76 12zM4 -301c0 -19 16 -31 48 -38c11 -3 22 -4 35 -4c47 0 107 17 180 51c92 42 165 102 219 179c-70 -2 -131 -7 -184 -16c-76 -11 -148 -39 -217 -83c-54 -35 -81 -64 -81 -89z" />
    <glyph glyph-name="H" unicode="H" horiz-adv-x="1381" 
d="M1537 760c0 -2 -4 -5 -13 -10c-9 -4 -24 -21 -45 -52s-47 -78 -79 -141s-60 -130 -84 -201c41 0 66 2 77 6c23 8 28 1 11 -11c-22 -15 -54 -24 -97 -27c-1 -1 -6 -17 -16 -48c-33 -103 -50 -176 -50 -217c2 -69 40 -73 70 -51c38 28 80 88 125 181c11 23 26 17 15 -7
c-25 -53 -45 -91 -62 -116c-16 -25 -34 -47 -55 -68c-27 -26 -55 -39 -82 -39c-31 0 -52 13 -64 38c-16 38 -8 55 -5 107c2 18 7 40 14 66l18 60c5 14 11 33 20 56l14 38c-29 0 -142 4 -339 13c-41 -121 -105 -230 -192 -326c-43 -47 -92 -87 -149 -119
c-76 -42 -156 -63 -240 -63c-71 0 -164 16 -241 75c-77 57 -115 161 -84 281c8 31 26 59 53 86c28 27 51 40 69 41c21 0 12 -10 2 -14c-20 -9 -41 -28 -62 -57c-28 -39 -42 -84 -42 -135c0 -80 39 -140 116 -179c47 -23 101 -35 164 -35c27 0 53 3 77 8
c226 51 385 197 477 439c-17 0 -34 -4 -51 -12c-32 -15 -39 -13 -40 -5c0 11 8 22 24 32c16 11 30 17 42 18h39c43 107 91 215 146 324l-74 -7l-78 -7c-20 -2 -45 -5 -74 -10s-54 -10 -73 -17c-39 -12 -92 -36 -124 -65c-38 -36 -65 -80 -81 -132c-7 -21 -10 -44 -10 -68
s9 -47 26 -70s40 -34 69 -34c57 0 97 33 121 98c40 89 -6 94 14 104c5 1 9 -2 12 -8c16 -35 19 -74 -8 -121c-23 -41 -53 -69 -92 -83c-37 -13 -75 -14 -112 2c-35 15 -61 41 -78 78c-21 44 -19 80 -7 131c13 52 52 111 108 143c56 33 107 54 183 65l100 12c29 3 63 5 103 7
s70 4 89 6c7 13 18 28 33 46c31 37 52 37 64 37c25 0 37 -11 37 -32s-14 -38 -41 -52s-53 -21 -77 -21c-18 -35 -44 -97 -77 -186l-52 -140c50 0 114 -3 193 -9c79 -5 128 -8 146 -8c13 39 36 94 68 166c33 72 61 126 86 163s48 60 69 67c44 16 56 13 56 9zM1116 772
c-8 0 -25 -16 -50 -49c43 7 65 18 64 35c-1 7 -4 12 -11 13c-1 1 -2 1 -3 1z" />
    <glyph glyph-name="I" unicode="I" horiz-adv-x="912" 
d="M1120 735l-42 -9c-45 -84 -86 -191 -123 -322c-13 -45 -32 -96 -58 -152c-26 -55 -57 -106 -93 -153c-133 -170 -302 -255 -509 -255c-96 0 -172 21 -229 62c-39 29 -64 66 -77 112c-9 33 -14 85 13 156c14 36 36 68 67 95c31 28 55 43 73 44c7 0 11 -1 12 -3
c2 -3 -2 -6 -11 -11c-21 -9 -44 -28 -69 -59c-39 -47 -59 -99 -59 -158c0 -45 14 -83 43 -115c36 -40 87 -67 153 -82c29 -7 52 -10 67 -10c31 0 59 -2 112 11c55 14 108 37 159 68c101 63 169 134 230 222c52 75 91 149 118 222c47 123 97 231 150 323
c-106 -22 -190 -46 -253 -73c-64 -28 -114 -59 -149 -94c-44 -45 -72 -95 -85 -151c-4 -16 -6 -31 -6 -44c0 -56 37 -94 72 -94c36 0 80 15 111 52c21 27 32 60 32 97c0 19 -3 30 -8 35c-1 2 -1 5 2 9c7 10 13 10 19 0c17 -33 19 -72 -6 -119c-23 -43 -55 -72 -98 -88
c-21 -8 -44 -12 -69 -12c-24 0 -50 11 -78 33s-42 53 -42 92c0 12 1 25 4 39c38 171 228 286 570 344c6 13 17 28 32 47c32 37 53 39 68 39c22 0 33 -9 34 -28c0 -20 -8 -35 -24 -46c-15 -9 -32 -17 -53 -24zM1095 751c45 9 67 22 65 38c-1 8 -6 12 -14 12
c-7 0 -24 -17 -51 -50z" />
    <glyph glyph-name="J" unicode="J" horiz-adv-x="966" 
d="M1190 706l-43 -8c-51 -89 -101 -208 -148 -358c-18 -57 -43 -122 -76 -196c-33 -73 -69 -141 -109 -204c-54 -84 -126 -153 -216 -207c-89 -55 -171 -87 -245 -97c-68 -9 -158 -15 -250 16c-72 24 -121 63 -148 118c-24 51 -27 117 9 209c13 31 35 59 67 86s57 40 75 41
c8 1 12 -1 12 -4c-1 -3 -5 -6 -13 -10c-21 -9 -45 -28 -71 -57c-52 -59 -64 -125 -64 -157c0 -49 13 -88 39 -118c36 -40 92 -75 153 -87c91 -17 138 -16 179 -5c91 20 179 71 244 127c33 27 65 61 97 102c33 41 60 78 82 111s45 73 70 120c40 76 81 163 123 262
c53 117 106 219 160 304c-93 -15 -187 -49 -283 -100c-49 -26 -90 -59 -125 -99c-45 -51 -67 -105 -67 -163c0 -63 37 -99 70 -99s77 13 109 49c25 29 38 63 38 101c0 16 -2 27 -7 32c-8 5 -9 10 -2 15c7 4 15 2 23 -7c13 -29 17 -68 -12 -119c-25 -42 -59 -71 -102 -86
c-20 -7 -39 -10 -57 -10c-30 0 -57 10 -81 29c-31 25 -46 59 -46 102c0 54 19 106 58 155c59 76 138 121 238 160c81 31 168 53 263 66c8 13 20 29 36 47c32 36 53 37 66 37c23 0 35 -10 35 -30c-1 -36 -30 -52 -81 -68zM1221 772c-8 3 -39 -30 -56 -49c46 8 69 20 68 37
c-1 8 -5 12 -12 12z" />
    <glyph glyph-name="K" unicode="K" horiz-adv-x="1144" 
d="M899 152c-4 23 -7 41 -8 56c-3 29 -5 68 6 72h3c20 0 57 14 111 41s115 64 184 110c69 47 141 106 216 178c75 73 137 146 186 220c9 13 16 19 22 19s17 -8 3 -32c-76 -126 -183 -245 -321 -356s-253 -178 -346 -201c-3 -4 -3 -15 0 -44c1 -15 8 -43 19 -85
c12 -41 26 -80 41 -115c45 -104 105 -156 179 -156c43 0 83 9 122 27s68 44 85 78c8 19 28 21 13 -8c-18 -37 -50 -69 -95 -97c-89 -57 -188 -60 -272 9c-73 60 -123 155 -148 284zM1150 734c-21 -19 -55 -31 -101 -36c-38 -69 -82 -179 -131 -331
c-18 -55 -42 -114 -73 -177c-30 -62 -62 -116 -97 -163c-69 -93 -187 -172 -331 -193c-47 -7 -103 -9 -170 6c-122 28 -201 88 -236 180c-21 56 -20 110 -5 169c8 29 25 55 50 78c26 23 47 36 64 38c9 1 13 -1 13 -6c0 -3 -2 -6 -6 -8c-16 -7 -35 -25 -58 -52
c-29 -36 -44 -81 -44 -134c0 -55 17 -99 50 -133c41 -43 89 -69 144 -80c76 -15 122 -14 159 -3c55 13 106 33 153 60c96 53 154 110 213 194c30 43 53 80 70 112s48 97 91 195s81 180 114 246l-86 -8c-87 -7 -155 -18 -204 -32c-91 -25 -156 -74 -195 -146
c-19 -35 -28 -68 -28 -101c0 -17 3 -34 8 -51c15 -45 44 -67 87 -67c55 0 93 28 115 85c33 85 3 117 17 117c5 -1 10 -6 14 -13c12 -28 15 -66 -10 -115c-20 -42 -48 -70 -84 -83c-22 -8 -43 -12 -62 -12c-33 0 -63 12 -90 36c-36 32 -54 74 -54 125c0 73 34 134 102 183
c63 47 153 76 272 89c36 4 77 7 123 10c47 3 76 6 89 7c7 13 18 28 33 46c31 37 51 37 71 37c28 -4 49 -40 13 -69zM1138 764c0 7 -3 11 -9 11c-15 0 -25 -8 -62 -52c19 3 34 7 44 12c18 9 27 18 27 29z" />
    <glyph glyph-name="L" unicode="L" horiz-adv-x="712" 
d="M959 760c0 -58 -19 -119 -57 -182c-37 -63 -89 -119 -156 -166c-66 -47 -134 -76 -205 -88c-41 -82 -70 -139 -88 -172l-21 -34c132 -33 241 -82 328 -149c44 -34 74 -76 89 -125c24 -75 8 -121 -23 -136c-26 -9 -36 -19 -15 28c21 42 21 137 -54 204
c-25 22 -61 43 -106 62c-45 20 -84 34 -117 42c-33 9 -77 18 -132 29c-57 -79 -116 -134 -177 -163c-73 -36 -129 -33 -173 -10c-38 19 -57 47 -57 85s25 71 75 100c57 33 133 50 230 50c35 0 66 -3 94 -8c30 47 65 111 105 193h-11c-84 0 -160 30 -203 78
c-28 31 -42 67 -42 106c0 21 5 43 15 67c21 48 96 104 205 129c17 4 30 5 33 -2s-14 -12 -31 -15c-29 -3 -55 -13 -80 -29c-43 -27 -72 -69 -89 -126c-9 -37 -14 -77 31 -137c15 -18 36 -31 62 -38c53 -15 91 -12 124 -8l85 214c59 151 129 243 210 278c21 9 42 13 62 13
c41 0 85 -30 88 -67c1 -8 1 -16 1 -23zM917 759c0 25 -12 38 -35 38c-34 0 -75 -30 -124 -89c-38 -47 -75 -105 -110 -172s-66 -128 -93 -185c93 21 176 71 250 152c75 81 112 167 112 256zM363 79c-65 15 -135 16 -208 -4c-77 -20 -122 -48 -135 -85c-3 -7 -4 -13 -4 -19
c0 -35 46 -59 91 -59c31 0 65 9 102 26c55 27 107 74 154 141z" />
    <glyph glyph-name="M" unicode="M" horiz-adv-x="1329" 
d="M431 358c0 46 -22 69 -65 69c-12 0 -33 -6 -40 5c-5 7 3 12 26 15c8 1 16 2 24 2c39 0 65 -17 79 -50c12 -28 18 -70 -19 -135c-33 -59 -84 -104 -154 -133c-47 -20 -97 -21 -150 4c-49 23 -84 62 -103 117c-15 43 -20 104 16 203c41 97 109 179 204 247
c101 73 196 110 284 110c75 0 125 -30 150 -90c11 -26 17 -57 17 -94c0 -12 -1 -24 -2 -37c-7 -58 -24 -124 -52 -199c-9 -25 -8 -32 -4 -32c3 -1 9 6 17 21c49 90 104 171 163 242c19 23 43 42 70 57c90 48 157 20 157 -71c0 -67 -26 -180 -79 -337
c-11 -31 -17 -51 -20 -60c54 85 122 178 203 279c82 102 155 162 218 181c11 3 21 5 30 5c25 0 42 -13 49 -38c3 -9 4 -19 4 -30c0 -34 -13 -78 -40 -131c-55 -109 -92 -196 -112 -261c-27 -85 -41 -144 -41 -175s3 -57 9 -78c12 -41 44 -62 95 -62c5 0 29 3 30 -4
c5 -13 -31 -13 -37 -12c-105 11 -158 65 -158 162c0 35 7 75 21 120c15 45 27 80 37 104c16 39 50 114 101 227c36 84 36 129 -1 129c-26 0 -66 -27 -121 -80c-28 -28 -58 -62 -91 -103c-33 -40 -81 -111 -145 -212s-105 -172 -122 -213c-15 -36 -36 -54 -61 -54
c-18 0 -29 6 -32 19c-2 5 -2 10 0 13l19 33c11 19 22 40 33 61c23 43 57 123 84 199c32 94 54 191 65 290c1 11 2 25 2 42c0 35 -22 56 -42 56c-33 0 -69 -25 -108 -74c-53 -66 -100 -131 -139 -195c-39 -63 -70 -117 -91 -160s-45 -96 -73 -157c-27 -61 -42 -93 -44 -97
c-3 -8 -10 -21 -14 -32c-9 -19 -27 -29 -56 -29c-17 0 -26 5 -27 16c0 2 0 4 1 7c44 68 93 171 146 309c68 175 102 302 102 382c0 95 -39 143 -118 143c-51 0 -115 -24 -192 -73s-140 -111 -191 -187c-20 -30 -35 -59 -45 -87c-17 -51 -26 -92 -26 -122
c0 -86 29 -143 86 -170c20 -10 40 -15 61 -15c72 0 131 39 177 117c23 39 35 74 35 103z" />
    <glyph glyph-name="N" unicode="N" horiz-adv-x="1039" 
d="M424 363c0 43 -22 64 -67 64c-17 0 -40 -3 -28 9c6 8 26 12 59 12c34 0 56 -15 67 -44c5 -11 7 -23 7 -36c0 -29 -11 -61 -32 -98c-36 -60 -86 -103 -149 -128c-33 -13 -69 -20 -109 -20c-79 0 -151 56 -171 155c-2 13 -3 26 -3 41c0 40 11 86 32 139s57 104 107 153
c95 93 195 151 300 173c59 12 102 10 133 6c41 -6 74 -26 97 -59c19 -26 28 -59 28 -99c0 -72 -23 -123 -28 -139l-15 -35l-13 -31c-2 -5 -7 -17 -16 -36c-28 -61 -41 -91 -40 -92l31 50c41 63 85 123 132 180c88 107 167 176 237 208c39 19 74 28 103 28
c59 0 103 -26 103 -95s-45 -162 -130 -317c-84 -155 -151 -281 -151 -380c0 -17 2 -33 7 -47c9 -31 27 -46 54 -46c29 0 65 22 81 22c8 0 12 -4 12 -13c0 -17 -34 -34 -50 -34c-107 0 -160 46 -160 139c0 34 6 68 17 103c12 35 54 127 125 277s110 245 116 284
c1 6 2 12 2 17c0 28 -16 42 -49 42c-22 0 -47 -7 -75 -22c-105 -50 -204 -146 -299 -287c-56 -83 -120 -202 -191 -355l-41 -88c-9 -19 -28 -29 -56 -29c-17 0 -26 5 -27 16c-1 2 -1 4 0 7c32 47 77 135 134 262c58 128 98 239 119 334c13 63 13 111 0 146
c-14 35 -38 56 -71 61c-10 1 -24 2 -42 2c-36 0 -112 -17 -201 -73c-101 -63 -174 -144 -219 -245c-25 -55 -37 -105 -37 -151c0 -23 3 -45 9 -66c22 -55 61 -84 116 -87c69 0 129 29 180 86c41 46 62 91 62 136z" />
    <glyph glyph-name="O" unicode="O" horiz-adv-x="726" 
d="M538 24c-74 -57 -149 -85 -225 -85c-80 0 -138 30 -175 89c-52 87 -49 198 -10 303c-47 31 -72 73 -77 126c-1 10 -2 20 -2 30c0 80 34 147 103 201c73 57 160 86 260 86s183 -28 248 -84c66 -55 99 -135 99 -238v-20c67 44 110 86 130 126c12 20 31 4 15 -11
c-39 -62 -89 -112 -149 -150c-3 -31 -11 -69 -26 -113c-14 -44 -38 -90 -72 -137s-74 -88 -119 -123zM700 453c0 113 -36 196 -108 250c-48 36 -104 54 -168 54c-19 0 -38 -2 -57 -5c-81 -12 -148 -46 -199 -101c-43 -48 -65 -102 -65 -163c0 -53 14 -91 43 -116
c26 55 64 111 115 168c55 62 114 100 175 114c20 4 52 9 93 -16c14 -8 8 -19 -12 -13c-7 3 -18 4 -34 4c-31 0 -96 -31 -156 -99c-59 -67 -103 -131 -130 -192c42 -19 92 -29 151 -29c26 0 54 2 83 5c95 13 184 41 267 86c1 18 2 36 2 53zM692 365
c-111 -59 -229 -89 -352 -89c-60 0 -113 9 -158 27c-21 -54 -31 -101 -31 -140c0 -92 28 -152 83 -179c60 -28 120 -27 176 -2c59 27 111 68 158 125s82 119 106 187c9 27 15 50 18 71z" />
    <glyph glyph-name="P" unicode="P" horiz-adv-x="890" 
d="M965 705c71 -42 106 -93 106 -152c0 -47 -26 -97 -78 -150c-60 -63 -148 -110 -228 -130c-69 -17 -132 -25 -188 -25c-12 0 -24 0 -36 1c-49 -71 -99 -132 -150 -182c-75 -71 -158 -106 -249 -106c-87 0 -140 24 -160 71c-9 23 -15 53 16 88c24 27 58 41 101 41
c28 0 57 -5 88 -15c11 -4 15 -8 12 -13c-5 -5 -37 12 -81 12c-21 0 -40 -8 -57 -25c-16 -16 -24 -33 -24 -52c0 -7 1 -15 4 -22c11 -36 41 -54 91 -54c75 0 148 35 220 104c51 50 109 140 173 270c25 49 55 103 92 162c37 60 74 111 112 154l18 18c14 16 26 29 35 38
c-96 13 -212 15 -309 -4c-49 -9 -91 -19 -127 -32c-72 -24 -152 -62 -203 -122c-33 -38 -50 -78 -50 -119c0 -25 9 -49 27 -71c19 -23 44 -35 74 -35c31 0 60 12 88 35c29 23 49 52 61 86c2 15 14 14 14 -1c-1 -43 -18 -78 -51 -103s-69 -37 -109 -37
c-91 0 -154 59 -154 143c0 39 10 73 31 104c41 63 98 97 173 128c63 25 130 43 199 53c140 21 260 21 363 0c24 19 45 31 63 38c36 13 34 10 35 9c4 0 5 -2 2 -7c-4 -8 -36 -26 -60 -50c43 -11 81 -27 116 -48zM555 270h14c49 0 101 8 158 25s108 42 152 75
c85 65 128 131 128 200c0 78 -59 131 -177 159c-37 -52 -86 -131 -145 -237s-103 -180 -130 -222z" />
    <glyph glyph-name="Q" unicode="Q" horiz-adv-x="752" 
d="M491 628c-30 0 -64 -13 -101 -38c-99 -68 -180 -184 -220 -324c-12 -41 -18 -76 -18 -106c0 -77 21 -134 64 -170c27 -22 56 -33 88 -33c67 0 133 25 199 75c43 33 80 69 111 110c69 91 103 188 103 291c0 71 -18 133 -55 188c-46 69 -111 112 -196 129
c-52 12 -103 11 -150 4c-77 -10 -131 -43 -164 -99c-21 -35 -32 -75 -32 -119c0 -26 4 -54 11 -83c5 -23 -11 -31 -24 -6c-33 67 -37 137 11 209c43 65 108 105 194 120c43 7 79 10 106 10c85 0 151 -13 198 -40c75 -42 122 -100 140 -174c43 -141 -13 -342 -142 -480
c-93 -103 -195 -155 -304 -155c-93 0 -161 54 -190 127c-32 81 -28 162 -11 230c25 106 94 218 174 286c49 46 105 71 167 76c4 1 8 1 11 1c23 0 46 -6 68 -19c18 -14 3 -17 -38 -10zM428 -314c-51 29 -100 67 -145 114l-55 54c-39 37 -78 55 -117 55c-14 0 -28 -4 -43 -13
c-14 -9 -22 -19 -23 -30s-3 -17 -8 -16c-5 0 -8 7 -8 20s8 27 25 44s36 25 57 25c57 0 120 -27 187 -81c29 -24 60 -48 92 -73c65 -51 164 -103 275 -124c19 -4 37 -6 53 -6c41 0 68 13 83 38c13 23 17 53 -12 96c-31 45 -78 73 -142 84c-11 1 -16 5 -16 12c0 6 4 8 13 7
c78 -13 135 -42 170 -89c33 -47 29 -81 13 -109c-25 -42 -81 -63 -170 -63c-88 0 -164 18 -229 55z" />
    <glyph glyph-name="R" unicode="R" horiz-adv-x="1024" 
d="M637 365c-21 -43 -38 -75 -50 -98c-12 -22 -30 -50 -53 -85s-48 -66 -73 -94c-79 -85 -168 -127 -267 -127c-90 0 -146 24 -168 73c-11 23 -16 53 15 88c25 27 59 41 102 41c29 0 60 -6 93 -17c17 -7 15 -20 -16 -8c-15 6 -34 9 -56 9c-21 0 -40 -8 -56 -25
c-15 -17 -23 -34 -23 -52c0 -8 2 -17 5 -26c13 -35 45 -52 94 -52c55 0 103 16 145 49c48 37 83 70 127 135c35 50 64 96 88 139c25 43 51 90 79 141l63 112c43 73 82 128 117 167c-37 3 -75 5 -112 5c-85 0 -170 -9 -255 -27c-84 -17 -151 -46 -200 -87
c-62 -51 -93 -106 -93 -164c0 -56 43 -107 111 -107c41 0 76 15 103 44s42 53 43 70c1 9 3 13 6 13c5 0 8 -5 7 -15c-5 -32 -18 -59 -39 -81c-37 -39 -82 -58 -134 -58c-39 0 -74 13 -103 40s-43 62 -43 107c0 66 32 125 96 177c65 53 149 87 254 102c149 21 274 20 381 5
c17 19 29 28 36 28c8 0 8 -14 1 -33c49 -8 82 -14 99 -19c100 -29 150 -75 150 -136c0 -39 -24 -78 -73 -117c-61 -47 -143 -79 -246 -96c-29 -5 -60 -8 -92 -9c21 -118 58 -217 111 -298c36 -55 63 -78 98 -78c24 0 49 13 76 40s59 75 94 146c5 10 11 15 16 15s6 -5 1 -15
c-39 -87 -73 -146 -103 -179s-65 -49 -104 -49s-76 19 -112 56c-36 38 -66 92 -90 162s-41 133 -50 188zM1039 614c0 5 -1 11 -2 16c-7 37 -37 64 -89 80c-16 5 -49 11 -98 19c-12 -21 -41 -69 -88 -145s-81 -136 -104 -181c15 3 36 5 64 7l62 6c76 9 141 39 194 89
c41 37 61 74 61 109z" />
    <glyph glyph-name="S" unicode="S" horiz-adv-x="901" 
d="M901 679c0 23 -11 45 -32 66c-31 29 -73 44 -127 44c-47 0 -100 -10 -157 -31c-30 -11 -56 -25 -78 -44c-34 -29 -51 -59 -51 -88c0 -39 25 -75 75 -106c19 -11 56 -30 112 -56c57 -25 98 -46 124 -62c79 -48 104 -106 104 -153c0 -33 -11 -67 -33 -102
c-39 -62 -95 -115 -170 -160c-86 -52 -190 -78 -311 -78c-117 0 -209 30 -278 89c-53 45 -80 104 -80 175c0 45 16 95 49 150s74 93 122 116c20 8 37 8 10 -15c-29 -23 -52 -48 -69 -75c-37 -59 -56 -122 -56 -191c0 -45 13 -85 38 -119c45 -61 124 -95 236 -103
c13 -1 31 -2 56 -2s59 5 102 14s85 23 125 44c86 45 142 104 167 176c8 21 12 42 12 62c0 45 -20 85 -61 120c-22 17 -67 40 -135 69c-67 29 -113 52 -136 67c-51 35 -77 76 -77 123c0 41 23 82 69 121c66 56 159 84 280 84c113 0 188 -34 204 -102c1 -7 2 -13 2 -20
c0 -26 -12 -49 -36 -70c-17 -13 -39 -24 -67 -32c-12 -3 -19 -2 -20 4c-1 9 7 14 25 16c32 4 52 20 59 48c2 7 3 14 3 21z" />
    <glyph glyph-name="T" unicode="T" horiz-adv-x="918" 
d="M1317 586c41 0 62 10 62 30s21 23 21 -10c0 -16 -9 -28 -28 -37c-37 -17 -66 -14 -85 -11c-98 13 -182 34 -252 64c-47 -75 -90 -174 -127 -298c-14 -45 -34 -93 -60 -145c-51 -104 -108 -168 -185 -211c-76 -41 -166 -62 -269 -62c-84 0 -163 21 -236 62
c-72 41 -114 103 -126 188c-1 11 -2 28 -2 50c0 23 6 55 19 96s38 73 74 94c15 9 26 13 33 13c12 0 17 -6 16 -17c-11 -15 -57 -31 -82 -79c-17 -29 -26 -62 -26 -99c0 -84 29 -149 86 -194c61 -51 141 -78 217 -78h5c138 3 251 53 340 150c56 61 133 198 230 411
c33 73 55 116 64 129c-118 37 -224 56 -318 56s-170 -28 -229 -85c-47 -45 -71 -93 -71 -142c0 -54 24 -88 71 -103c33 -9 57 -9 92 0c55 15 106 93 99 113v2c11 9 20 5 20 -8c-7 -52 -33 -91 -79 -117c-56 -33 -105 -28 -142 -15c-55 19 -89 56 -104 111c-5 17 -7 34 -7 51
c0 40 12 79 37 117c44 68 113 109 207 123c43 7 77 6 128 2c26 -2 60 -9 102 -20c43 -11 86 -25 130 -40l80 -26c33 40 57 60 73 61c3 1 8 2 13 2c6 0 11 -5 14 -14s1 -15 -7 -18c-3 -1 -8 0 -13 1c-4 3 -12 -2 -25 -13c-12 -11 -21 -20 -27 -27c125 -40 226 -57 267 -57z
" />
    <glyph glyph-name="U" unicode="U" horiz-adv-x="942" 
d="M987 482c13 -7 20 -16 20 -29c0 -15 -8 -38 -25 -67c-55 -99 -92 -200 -109 -303c-5 -28 -7 -53 -7 -76c0 -46 12 -69 37 -69h11c12 0 18 -3 18 -8c0 -8 -7 -13 -22 -15h-12c-71 12 -75 110 -72 145c0 38 4 78 13 119c-47 -78 -94 -136 -140 -173
c-43 -35 -84 -52 -123 -52c-28 0 -50 9 -65 27c-40 48 -40 116 1 233c21 59 48 127 82 202c35 75 57 134 67 175c11 41 16 78 16 111c0 49 -13 81 -39 96c-31 17 -67 25 -106 25c-71 0 -146 -23 -227 -70c-119 -70 -200 -158 -242 -265c-35 -89 -32 -163 -7 -223
c28 -68 77 -102 146 -102c81 0 146 41 195 124c27 44 40 83 40 117c0 50 -23 75 -68 75c-11 0 -24 -2 -41 -6c-16 -3 -23 -3 -22 1c2 5 12 12 30 20s36 12 54 12c27 0 48 -12 62 -35c19 -33 20 -78 -3 -139c-25 -67 -69 -119 -130 -156c-91 -56 -176 -54 -240 -5
c-55 42 -82 106 -82 191c0 86 33 170 98 252c53 66 123 123 212 172c77 43 151 64 222 64c37 0 72 -7 104 -20c65 -28 97 -82 97 -161c0 -59 -19 -133 -57 -221c-22 -52 -43 -100 -64 -143c-40 -85 -70 -181 -70 -241c0 -56 19 -84 56 -84c40 0 87 33 141 100l27 37
c27 39 61 100 103 184l65 128c20 35 39 53 56 53z" />
    <glyph glyph-name="V" unicode="V" horiz-adv-x="975" 
d="M549 -96c-6 0 -12 1 -18 2c-32 6 -48 34 -48 85c0 82 41 222 124 419c32 75 56 147 71 218c12 55 10 85 7 104c-3 29 -14 50 -33 61c-33 18 -71 27 -112 27c-87 0 -188 -49 -273 -110c-129 -87 -223 -257 -218 -368c0 -15 1 -30 4 -44c21 -92 84 -137 164 -137
c56 0 108 25 157 74s74 102 74 157c-3 94 -61 92 -93 79c-25 -7 -27 5 4 18c31 15 66 16 94 -4c26 -20 39 -50 39 -91s-16 -82 -47 -123s-69 -74 -114 -99s-90 -37 -135 -37c-44 0 -85 16 -123 48c-38 33 -63 76 -76 131c-3 16 -5 33 -5 51c0 84 43 190 120 274
c79 85 170 140 271 177c101 39 192 36 265 8c65 -28 97 -87 97 -178c0 -67 -24 -149 -72 -248c-30 -61 -57 -127 -80 -198c-35 -105 -52 -177 -52 -218c0 -31 10 -46 31 -46c41 0 114 54 217 161c73 75 130 158 171 248c27 57 40 110 40 158c0 51 -11 68 -14 73
c-3 7 -13 12 -16 12c-9 3 -19 5 -29 6c-20 4 -24 24 -7 27l19 -2c31 -9 57 -30 80 -65c25 -39 25 -92 0 -165c-31 -81 -78 -162 -142 -241s-127 -139 -190 -181c-62 -42 -113 -63 -152 -63z" />
    <glyph glyph-name="W" unicode="W" horiz-adv-x="1344" 
d="M870 47c0 -63 26 -95 77 -95c48 0 107 28 178 85c77 61 130 126 159 194c99 232 36 359 -73 359c-9 0 -18 -1 -27 -2c-32 -8 -47 -8 -47 0c0 6 6 12 18 17c13 5 22 8 28 8h30c76 0 147 -61 166 -177c2 -14 3 -28 3 -43c0 -49 -12 -105 -35 -168
c-33 -83 -89 -153 -169 -211c-79 -58 -152 -87 -219 -87c-69 0 -112 32 -128 96c-9 33 -14 88 14 180c-36 -60 -83 -125 -140 -195c-31 -37 -63 -68 -96 -93c-35 -26 -64 -39 -88 -39c-47 0 -71 29 -71 86c0 67 44 205 131 412c55 132 82 231 82 297c0 43 -13 72 -39 88
c-25 17 -56 25 -91 25c-15 0 -31 -2 -48 -5c-118 -24 -223 -88 -314 -191c-45 -52 -77 -102 -94 -150c-17 -47 -27 -83 -30 -106c-2 -23 -3 -42 -3 -57c0 -29 10 -72 38 -105c26 -30 62 -45 109 -45c77 0 139 40 184 121c23 41 35 79 35 112c0 55 -24 82 -73 82
c-8 0 -18 -1 -30 -3s-18 -1 -17 4s10 10 27 15s35 8 52 8c35 0 60 -13 76 -40c20 -33 21 -78 -4 -138c-34 -78 -95 -135 -183 -172c-23 -10 -45 -15 -65 -15c-65 0 -117 23 -156 70c-27 32 -45 73 -52 124c-1 10 -2 20 -2 31c0 85 46 192 121 277s164 140 261 179
c101 39 188 36 259 9c64 -28 96 -82 96 -161c0 -65 -22 -149 -67 -250c-31 -69 -60 -142 -88 -221c-40 -112 -60 -185 -60 -219c0 -24 8 -36 25 -36c9 0 19 4 31 12c36 21 75 62 118 121s87 128 133 207s79 131 98 158s36 40 50 40c3 0 7 -1 10 -2c17 -9 15 -42 7 -63
c-3 -11 -20 -53 -51 -128c-31 -74 -48 -123 -51 -147c-3 -23 -5 -41 -5 -53z" />
    <glyph glyph-name="X" unicode="X" horiz-adv-x="807" 
d="M1082 817c15 0 23 -4 23 -13c0 -15 -34 -52 -130 -121c-48 -34 -115 -81 -202 -140c-86 -59 -157 -109 -212 -148c-1 -39 -1 -75 -1 -108c0 -115 5 -193 16 -234c15 -56 41 -84 77 -84c50 0 102 41 156 123c19 29 37 62 52 97c9 20 28 18 17 -5
c-60 -126 -126 -209 -198 -250c-78 -44 -154 -25 -177 83c-4 18 -6 61 -6 128s1 138 2 212c-259 -187 -441 -363 -545 -526c-21 -34 -41 -51 -61 -51c-9 0 -14 4 -14 11c0 5 2 12 7 20l12 20c135 187 335 375 600 564v110c0 56 -3 107 -10 153c-8 53 -38 79 -89 79
c-63 0 -130 -28 -202 -84c-37 -28 -61 -54 -72 -79c-2 -2 -6 -2 -11 0c-15 4 -16 15 -5 32c6 9 25 27 58 54s75 55 128 84s99 44 138 44c41 0 71 -17 88 -50c19 -34 29 -70 32 -108c5 -53 7 -95 7 -125v-55v-17c39 27 96 67 172 118s134 92 174 121s74 58 103 87
c26 26 47 47 62 55c5 2 9 3 11 3z" />
    <glyph glyph-name="Y" unicode="Y" horiz-adv-x="959" 
d="M983 483c24 0 25 -32 -2 -145c-13 -57 -35 -133 -68 -230c-32 -97 -65 -175 -99 -236c10 1 28 1 53 2l63 2c33 1 87 9 116 22c35 17 56 41 62 74c-3 17 4 18 7 11c9 -17 12 -34 -9 -69c-11 -18 -32 -33 -63 -46s-113 -21 -244 -22c-64 -96 -168 -172 -277 -213
s-182 -35 -234 -18c-50 17 -75 42 -75 76c0 44 40 83 121 116c103 43 247 64 432 64c65 160 111 289 137 387c-61 -131 -128 -221 -203 -272c-119 -81 -236 -30 -230 72c0 73 49 189 148 350c31 50 55 101 74 152c21 57 32 105 32 146c0 81 -60 113 -135 113
c-15 0 -30 -2 -47 -5c-120 -23 -228 -85 -325 -187c-49 -51 -84 -104 -107 -158c-23 -58 -35 -108 -35 -149c0 -17 2 -33 7 -48c13 -49 40 -82 79 -100c20 -9 41 -13 62 -13c74 0 137 41 189 124c29 47 44 89 44 124c0 46 -21 69 -62 69c-16 0 -46 -9 -47 -1
c-1 5 7 10 23 14s31 6 46 6c35 0 58 -15 70 -44c5 -13 8 -26 8 -41c0 -29 -10 -63 -31 -102c-41 -74 -100 -127 -179 -160c-24 -10 -46 -15 -66 -15c-65 0 -115 23 -152 70c-64 79 -60 186 -11 287c76 156 222 265 367 321c105 41 194 38 262 11c71 -32 97 -90 97 -150
c0 -75 -28 -159 -83 -251c-86 -147 -138 -261 -156 -342c-7 -36 -9 -107 55 -107c27 0 57 12 89 35c38 27 76 70 114 131c63 101 111 205 143 311c4 21 31 34 40 34zM267 -319c0 -5 1 -11 4 -16c14 -23 46 -34 96 -34c51 0 99 8 144 25c92 33 185 99 241 190
c-175 0 -309 -27 -402 -81c-55 -32 -83 -60 -83 -84z" />
    <glyph glyph-name="Z" unicode="Z" horiz-adv-x="677" 
d="M799 706l68 -21c63 50 114 75 151 75c11 0 20 -2 29 -6c39 -16 39 -54 -1 -93c-24 -20 -79 -20 -162 0c-33 -30 -91 -101 -176 -213c-55 -73 -91 -119 -109 -139c-17 -20 -33 -37 -47 -52c-28 -28 -45 -47 -76 -75l-36 -33c-8 -7 -20 -18 -36 -31
c-15 -13 -26 -21 -31 -26l-31 -25l-25 -21c183 -79 310 -126 381 -140c52 -9 107 -9 163 0c29 4 54 14 75 31c22 17 35 36 38 58s9 33 16 33c12 0 10 -25 7 -45c-1 -10 -4 -22 -11 -35c-13 -27 -39 -65 -106 -88c-35 -12 -74 -18 -118 -18s-105 16 -183 47s-145 63 -202 95
l-85 48c-67 -48 -125 -72 -173 -72c-9 0 -18 1 -27 3c-40 9 -65 31 -76 66c-3 10 -5 20 -5 29c0 40 34 82 94 82c15 0 31 -2 49 -7c35 -9 82 -33 143 -72c173 203 286 336 338 399c67 79 138 149 213 210c-99 27 -193 41 -280 41c-47 0 -93 -4 -138 -13
c-31 -8 -58 -21 -82 -40c-57 -47 -58 -96 2 -137c15 -11 19 -17 11 -20s-16 -2 -23 1c-11 3 -24 11 -37 26c-20 23 -30 49 -30 76c0 31 12 61 35 89c15 18 38 34 70 47c42 17 91 26 147 26c38 0 75 -5 112 -14l84 -21c19 -5 46 -14 80 -25zM899 676c107 -28 144 -21 148 34
c0 11 -7 31 -30 31c-27 0 -67 -22 -118 -65zM62 73c-4 -7 -6 -16 -6 -26c0 -20 25 -55 88 -55c48 0 105 25 134 50c-13 11 -23 18 -30 23c-96 53 -163 51 -186 8z" />
    <glyph glyph-name="bracketleft" unicode="[" horiz-adv-x="585" 
d="M164 24l72 4c28 0 42 -8 42 -23s-40 -22 -120 -22s-120 15 -120 45c0 77 34 179 102 308s134 231 199 306c16 19 29 33 39 42c25 23 56 34 94 34h20c61 0 91 -12 91 -36c0 -12 -5 -18 -15 -18h-10l-74 4c-25 0 -41 -2 -47 -5c-32 -16 -76 -65 -131 -147
s-103 -168 -146 -258c-42 -89 -63 -153 -63 -190c0 -29 22 -44 67 -44z" />
    <glyph glyph-name="backslash" unicode="\" horiz-adv-x="867" 
d="M69 761c-11 0 -37 -13 -42 -14l-7 7c8 24 32 36 72 36c89 0 203 -92 341 -277c21 -27 53 -72 98 -134c45 -61 79 -109 104 -143c67 -91 138 -176 215 -255c5 -7 8 -12 9 -15l-7 -6c-59 18 -161 120 -304 306c-59 77 -118 153 -177 228s-116 139 -171 190
c-54 51 -98 77 -131 77z" />
    <glyph glyph-name="bracketright" unicode="]" horiz-adv-x="556" 
d="M453 669l-111 -4l-3 2c9 33 57 49 146 49c38 1 59 -4 63 -46c0 -95 -28 -209 -85 -340s-119 -232 -188 -301c-28 -28 -82 -43 -117 -44c-17 -1 -43 -2 -78 -2s-56 2 -63 5c5 26 33 39 82 39l18 -1c40 0 99 11 134 51c51 57 104 147 157 269c54 123 81 219 81 289
c0 10 -1 20 -3 30c-7 3 -18 4 -33 4z" />
    <glyph glyph-name="asciicircum" unicode="^" horiz-adv-x="370" 
d="M398 399l5 -8c0 -6 -6 -9 -17 -9s-32 11 -63 34s-52 43 -63 58c-79 -57 -125 -86 -136 -88l-6 7c1 9 26 31 74 67c49 36 79 55 90 56l6 -3c27 -38 64 -76 110 -114z" />
    <glyph glyph-name="underscore" unicode="_" horiz-adv-x="806" 
d="M219 -67l-194 -6c-11 0 -17 17 -17 29c0 13 6 19 17 19h740c15 0 27 -13 28 -28l-7 -7c-157 0 -346 -2 -567 -7z" />
    <glyph glyph-name="grave" unicode="`" horiz-adv-x="211" 
d="M193 408c0 -6 -3 -9 -10 -9c-4 0 -27 11 -69 33l-68 36c-25 12 -37 26 -37 42s6 24 19 24c9 0 38 -20 89 -60s76 -62 76 -66z" />
    <glyph glyph-name="a" unicode="a" horiz-adv-x="350" 
d="M279 24c13 0 28 12 47 35c27 34 54 78 81 133c3 6 6 9 9 10c5 2 8 0 8 -6c0 -3 -1 -7 -3 -12c-61 -124 -113 -186 -155 -186c-19 0 -35 9 -47 28c-12 20 -12 53 1 101c-53 -86 -99 -129 -138 -129c-11 0 -20 3 -29 10c-20 14 -30 38 -30 72c0 65 28 132 85 199
c32 37 71 62 118 73c13 3 25 5 36 5c31 0 57 -11 78 -32c13 -15 6 -32 -11 -29c-7 24 -23 36 -48 36c-29 0 -64 -23 -106 -68c-24 -27 -46 -58 -67 -94c-52 -87 -47 -143 -14 -143c40 0 92 61 157 184c25 49 38 64 65 64c5 0 34 -7 45 -4c-12 -12 -29 -39 -51 -82
c-22 -42 -35 -74 -40 -95c-8 -41 -11 -70 9 -70z" />
    <glyph glyph-name="b" unicode="b" horiz-adv-x="345" 
d="M309 272c0 38 -16 57 -47 57h-8c-40 -1 -16 30 14 20c35 -5 58 -22 71 -49c9 -17 13 -33 13 -49c0 -57 -21 -114 -63 -169c-42 -56 -96 -84 -163 -84c-49 0 -83 30 -83 77c0 28 16 75 48 142c-55 -103 -90 -163 -106 -178c-7 -6 -10 -4 -10 6c0 2 1 4 2 7
c23 31 70 114 139 250c70 136 119 225 147 267c23 33 45 49 66 49h1h5c1 0 6 -1 17 -3s20 -2 25 -1c-22 -23 -57 -70 -104 -140c-117 -174 -176 -304 -176 -390c0 -35 11 -55 34 -60c2 -1 4 -1 7 -1c21 0 46 18 77 55s57 80 77 127c11 25 17 47 17 67z" />
    <glyph glyph-name="c" unicode="c" horiz-adv-x="260" 
d="M241 230c47 56 43 100 11 100c-31 0 -67 -29 -107 -86c-13 -18 -25 -42 -37 -71s-18 -56 -18 -80c0 -47 19 -79 59 -79c41 0 75 19 106 60c16 21 28 39 36 53s19 35 33 63c9 19 17 11 17 4c0 -3 -5 -14 -14 -33c-17 -37 -32 -68 -65 -109c-30 -37 -71 -56 -123 -56
c-75 0 -105 43 -105 91c0 29 7 61 21 96c15 35 31 65 50 90c39 53 83 79 134 79c49 0 70 -27 70 -58c0 -23 -9 -42 -28 -58c-19 -17 -31 -15 -40 -6z" />
    <glyph glyph-name="d" unicode="d" horiz-adv-x="367" 
d="M268 58c0 -21 9 -32 26 -32c31 0 73 52 125 157c2 18 29 33 19 3c-53 -124 -107 -186 -162 -186c-18 0 -32 8 -43 24c-21 32 -18 64 -11 91c-39 -64 -72 -100 -100 -109c-16 -7 -31 -6 -46 -2c-33 9 -49 35 -49 78c0 29 7 62 22 97c15 36 37 70 64 103s60 55 99 66
c28 9 66 13 113 -11c45 85 84 164 116 237c19 44 37 52 52 52h14c4 0 33 -5 45 -4c-15 -14 -56 -82 -122 -204c-84 -156 -135 -260 -152 -312c-7 -19 -10 -35 -10 -48zM317 321c-17 17 -46 25 -102 -22c-45 -37 -82 -83 -111 -138c-19 -36 -29 -66 -29 -89
c0 -21 8 -42 27 -42c45 0 107 90 215 291z" />
    <glyph glyph-name="e" unicode="e" horiz-adv-x="246" 
d="M101 154c-9 -23 -14 -48 -14 -76c0 -37 17 -61 48 -61c61 0 116 57 165 171c5 11 10 15 17 14c3 -1 4 -2 4 -5s-8 -20 -23 -53c-15 -32 -30 -58 -45 -78c-34 -47 -76 -70 -126 -70c-53 0 -96 37 -96 97c0 87 70 213 165 253c31 13 59 14 83 -2c11 -9 17 -20 17 -31
c0 -40 -24 -78 -72 -115c-15 -11 -35 -22 -62 -31s-47 -13 -61 -13zM269 314c0 13 -5 20 -16 20c-19 0 -47 -23 -85 -69c-23 -28 -43 -59 -60 -94c23 0 74 17 106 44c37 31 55 64 55 99z" />
    <glyph glyph-name="f" unicode="f" horiz-adv-x="198" 
d="M-61 -348c-37 0 -55 18 -55 55c0 53 34 160 103 322c-8 13 -12 24 -12 33c0 28 6 47 19 56c19 16 32 12 36 11c76 171 144 314 205 427c24 48 46 70 85 70c5 0 33 -6 44 -5c-31 -29 -75 -94 -132 -194s-110 -207 -161 -321c15 -19 26 -44 32 -75l3 -13h3
c18 0 37 10 57 31s36 43 49 65c25 45 42 84 46 87c7 5 16 -2 10 -13c-55 -126 -110 -189 -163 -189c1 -21 7 -65 -17 -161c-12 -48 -32 -91 -61 -129c-28 -38 -58 -57 -91 -57zM-62 -293c0 -19 5 -29 16 -29c13 0 30 15 52 45c23 29 42 70 57 122c16 51 24 98 24 140v10h-9
c-19 0 -36 5 -49 16c-61 -153 -91 -255 -91 -304zM79 14h6c-2 29 -10 52 -24 69l-22 -50c7 -13 20 -19 40 -19z" />
    <glyph glyph-name="g" unicode="g" horiz-adv-x="392" 
d="M-12 -316c-63 0 -94 26 -94 77c0 43 29 81 87 115c49 29 112 56 189 81c35 11 61 20 77 27c17 51 26 106 26 166c0 12 -1 21 -2 27c-19 -38 -44 -77 -77 -117c-39 -48 -77 -67 -115 -56c-35 15 -52 43 -52 86c0 57 29 120 86 189c31 37 68 61 110 71c11 3 23 5 34 5
c30 0 59 -10 88 -30c21 -17 18 -28 10 -40c-8 -11 -18 3 -21 11c-9 25 -23 37 -42 37c-35 0 -75 -25 -119 -74c-25 -28 -46 -58 -64 -90c-44 -80 -40 -121 -13 -136c5 -2 9 -3 14 -3c15 0 34 10 57 31s45 48 64 80c20 33 33 58 38 76c16 54 50 36 64 47
c11 -60 15 -140 -13 -243c91 67 94 107 117 147l12 27c4 8 17 12 17 1c0 -3 -1 -7 -3 -12c-29 -61 -54 -105 -74 -132c-19 -27 -46 -48 -80 -64c-16 -45 -39 -90 -70 -135c-30 -45 -68 -84 -114 -118s-92 -51 -137 -51zM-85 -258c0 -25 16 -38 49 -38c39 0 94 28 126 52
c27 22 57 55 90 98c25 35 44 68 57 101l-35 -12c-104 -36 -177 -68 -220 -96c-31 -21 -52 -47 -62 -79c-3 -10 -5 -19 -5 -26z" />
    <glyph glyph-name="h" unicode="h" horiz-adv-x="332" 
d="M235 45c0 -19 7 -28 20 -28c31 0 76 59 133 176c9 19 18 10 18 3c0 -3 -4 -13 -12 -29c-15 -31 -27 -54 -56 -101c-31 -47 -63 -70 -98 -70c-23 0 -41 9 -54 28c-6 9 -9 20 -9 35s3 34 10 55s25 56 55 104c7 12 11 21 11 28s-6 11 -17 11s-33 -15 -65 -45
c-48 -44 -95 -110 -140 -198c-5 -10 -17 -15 -37 -15c-18 -1 -29 -3 -34 -6c127 263 218 447 275 551c25 47 41 63 68 63c7 0 34 -5 45 -4c-20 -21 -56 -78 -108 -172c-51 -93 -101 -188 -148 -285c31 39 59 70 84 92s56 43 92 62c36 20 62 30 79 30c4 0 8 -1 11 -2
c-82 -144 -123 -238 -123 -283z" />
    <glyph glyph-name="i" unicode="i" horiz-adv-x="174" 
d="M128 418c4 23 25 41 48 41s39 -18 35 -41s-25 -41 -48 -41s-38 18 -35 41zM96 22c13 0 26 6 40 19c25 25 56 75 94 151c5 10 9 13 14 9c3 -3 5 -5 -6 -29c-5 -11 -10 -22 -15 -31c-4 -9 -12 -25 -25 -46c-12 -21 -23 -37 -33 -48c-27 -31 -53 -47 -78 -47
c-24 0 -41 7 -52 22c-21 29 -20 65 -3 108l64 163c3 8 6 21 -10 42l55 1c31 0 34 -11 21 -35l-80 -187c-11 -25 -17 -46 -17 -63c0 -19 10 -29 31 -29z" />
    <glyph glyph-name="j" unicode="j" horiz-adv-x="177" 
d="M51 178l53 115c4 8 7 21 -10 42l55 1c31 0 34 -11 21 -35l-80 -187c-17 -39 -37 -83 -62 -132l57 23c12 5 26 15 43 29s32 30 44 48c13 19 34 56 63 111c5 9 9 13 12 11c4 -2 6 -5 6 -8s-6 -16 -17 -39c-21 -44 -41 -81 -77 -121s-75 -59 -148 -86
c-51 -93 -103 -162 -156 -206c-40 -33 -97 -60 -156 -60c-93 2 -110 60 -78 122c17 34 49 61 94 82c34 16 79 31 135 45c56 13 92 22 108 27l30 52l72 150c-11 0 -14 5 -9 16zM-360 -217c-22 -45 -8 -79 37 -79c39 0 80 20 125 60c63 56 108 111 137 164
c-111 -29 -180 -50 -207 -62c-43 -19 -74 -46 -92 -83zM195 389c-19 -16 -45 -16 -57 -1c-13 21 -16 33 8 59c19 16 45 16 57 1c15 -19 16 -33 -8 -59z" />
    <glyph glyph-name="k" unicode="k" horiz-adv-x="363" 
d="M315 270c0 18 -9 27 -27 27c-27 0 -58 -15 -93 -46c-35 -30 -64 -62 -87 -95c-10 -19 -18 -44 -25 -73c-12 -59 -11 -76 -3 -83h-63c-10 0 -13 9 -8 26c5 18 12 37 21 58s19 44 32 71l29 62c-55 -103 -90 -163 -106 -178c-7 -6 -10 -4 -10 6c0 2 1 4 2 7
c23 31 70 114 139 250c70 136 119 225 147 267c23 33 45 49 66 49h1h5c1 0 6 -1 17 -3s20 -2 25 -1c-25 -19 -59 -62 -102 -129c-87 -133 -137 -238 -154 -290c61 75 115 122 163 140c23 7 41 11 54 11c29 0 44 -12 44 -37c0 -8 -2 -17 -5 -27c-9 -25 -29 -48 -58 -69
c-29 -20 -60 -32 -95 -35c-16 -37 -14 -69 -7 -94c8 -32 23 -52 45 -59c5 -1 9 -2 14 -2c19 0 41 12 66 35c21 23 48 68 81 137c9 17 15 5 15 0s-21 -60 -57 -116c-38 -57 -80 -86 -126 -86c-28 0 -50 8 -65 24c-22 23 -33 52 -33 89c0 19 5 38 15 57s22 30 35 31h6
c23 0 46 9 68 27c23 18 34 34 34 49z" />
    <glyph glyph-name="l" unicode="l" horiz-adv-x="212" 
d="M126 19c48 0 91 72 142 172c5 9 10 13 15 11c3 -3 4 -6 2 -11l-13 -28l-14 -30c-5 -11 -24 -47 -36 -62c-11 -13 -33 -40 -50 -51c-47 -29 -91 -26 -114 -9c-33 32 -22 53 -23 88c2 21 6 42 12 62c7 20 10 31 11 34c15 55 37 116 65 181c57 131 96 191 119 215
s45 36 67 36c15 0 26 -11 31 -33c1 -4 1 -9 1 -15c0 -23 -8 -51 -24 -86c-57 -127 -126 -227 -205 -300c-1 -5 -15 -44 -23 -73c-9 -36 -10 -101 37 -101zM311 586c-7 0 -19 -13 -38 -40c-19 -26 -44 -73 -76 -142c-31 -68 -57 -128 -77 -179c34 35 68 78 101 131
s58 97 73 134c32 75 26 96 17 96z" />
    <glyph glyph-name="m" unicode="m" horiz-adv-x="507" 
d="M530 328c-81 -145 -122 -238 -122 -280c0 -19 6 -28 19 -28c16 0 34 12 55 36c31 38 59 84 82 137c8 19 18 10 18 3c0 -3 -3 -12 -10 -25l-16 -32c-4 -8 -13 -23 -27 -46c-13 -23 -25 -39 -35 -50c-25 -29 -93 -79 -136 -19c-6 9 -9 20 -9 35s3 34 10 55s25 56 55 104
c15 24 17 39 -6 39c-11 0 -30 -13 -59 -40s-59 -63 -91 -108c-31 -45 -50 -82 -56 -109c-23 0 -33 25 -33 38c0 27 18 79 55 156c36 77 14 68 3 62c-12 -6 -30 -21 -55 -44c-47 -43 -93 -108 -138 -195c-3 -7 -8 -12 -13 -14c-5 -1 -14 -2 -29 -3s-24 -2 -29 -5
c12 23 33 67 63 131c54 115 90 181 108 198c8 8 19 12 33 12c5 0 34 -7 45 -4c-25 -13 -65 -76 -121 -188c31 39 54 64 67 76l31 27l15 14c8 7 25 23 32 28c4 3 9 8 16 13c13 11 18 11 30 19c7 4 11 6 14 6c7 0 20 6 24 1c13 -5 20 -14 20 -25c0 -10 -11 -36 -34 -77
s-37 -69 -44 -82c29 37 57 67 84 90c27 24 58 46 94 66c37 20 63 30 80 30c4 0 7 -1 10 -2z" />
    <glyph glyph-name="n" unicode="n" 
d="M359 328c-82 -144 -123 -238 -123 -282c0 -17 6 -26 19 -26c34 0 80 58 137 173c14 25 24 0 14 -9c-35 -71 -65 -121 -90 -148c-48 -53 -103 -49 -128 -12c-7 9 -10 20 -10 35s3 34 10 55s25 56 55 104c7 12 11 21 11 28s-6 11 -17 11s-33 -15 -65 -45
c-48 -44 -94 -110 -139 -198c-4 -7 -9 -11 -14 -13c-5 -1 -14 -2 -29 -3s-24 -2 -29 -5c11 21 32 65 63 131c56 117 93 183 110 200c8 8 19 12 33 12c5 0 34 -7 45 -4c-25 -13 -65 -76 -121 -188c31 39 60 69 85 92c26 23 57 45 93 64c36 20 62 30 79 30c4 0 8 -1 11 -2z
" />
    <glyph glyph-name="o" unicode="o" 
d="M239 350c49 0 73 -31 73 -92c0 -28 -7 -58 -22 -90c-19 -43 -47 -83 -84 -118c9 -17 24 -25 47 -25c18 0 35 9 51 27c40 41 54 74 62 89c4 7 9 18 15 31c13 28 12 30 19 30c7 1 10 -2 10 -7c0 -2 -1 -4 -2 -7l-6 -14l-9 -20c-4 -8 -16 -34 -24 -46
c-7 -12 -21 -36 -32 -48c-9 -12 -26 -29 -39 -37c-17 -10 -32 -15 -47 -15c-27 0 -49 9 -64 26c-31 -23 -59 -34 -85 -34c-49 0 -73 31 -73 92c0 28 7 58 22 90c20 47 48 86 84 119c37 33 71 49 104 49zM250 319c-36 0 -91 -51 -130 -134c-47 -96 -47 -164 0 -164
c17 0 35 9 56 27c-11 15 -16 32 -16 49c1 29 13 43 35 43c32 0 31 -30 28 -41c11 17 24 40 39 71c17 34 25 67 25 100s-12 49 -37 49z" />
    <glyph glyph-name="p" unicode="p" horiz-adv-x="336" 
d="M357 272c0 -29 -8 -62 -23 -97s-37 -69 -64 -102s-59 -55 -98 -67c-29 -8 -68 -12 -113 12l-95 -237c-20 -43 -37 -52 -53 -52h-14c-4 0 -31 6 -42 5c15 14 52 81 112 200c59 119 93 199 101 240c-7 -11 -14 -16 -21 -17c-8 0 1 12 20 56c24 57 23 114 4 122
c40 7 63 10 70 9c13 0 15 -13 15 -26c0 -41 -9 -86 -28 -136l20 32c24 39 41 64 52 75l36 35c19 19 38 28 56 28c5 0 10 -1 15 -2c33 -9 50 -35 50 -78zM309 282c0 21 -8 43 -27 43c-23 0 -51 -22 -82 -65s-75 -119 -133 -227c17 -17 45 -25 101 22c45 37 82 84 112 139
c19 36 29 65 29 88z" />
    <glyph glyph-name="q" unicode="q" horiz-adv-x="342" 
d="M102 -257c-9 13 -13 25 -13 36s11 42 33 92s48 105 78 166c31 61 50 102 59 121c-10 -18 -33 -52 -70 -102c-31 -37 -62 -55 -91 -55c-7 0 -13 1 -20 3c-34 15 -51 43 -51 86c0 57 29 120 86 189c31 37 68 61 110 71c11 3 23 5 34 5c30 0 59 -10 87 -30
c23 -17 18 -29 13 -36c-5 -8 -11 -9 -18 -2c-2 2 -4 5 -5 9c-19 51 -57 46 -102 14c-44 -31 -81 -72 -111 -124c-30 -51 -45 -90 -45 -115c0 -19 7 -32 20 -38c3 -1 7 -2 11 -2c33 0 82 55 148 164c19 30 31 48 38 53c7 6 14 9 20 9h12c4 0 30 -5 41 -4
c-36 -55 -83 -151 -141 -286s-89 -220 -94 -254c-5 9 -26 27 -29 30z" />
    <glyph glyph-name="r" unicode="r" horiz-adv-x="260" 
d="M192 401c0 -30 -19 -58 -57 -85c27 -1 70 -3 138 4c1 -2 2 -7 2 -16c0 -17 -21 -58 -34 -83c-15 -31 -38 -74 -54 -119c-17 -51 -14 -76 8 -76c28 0 69 56 124 167c9 17 16 9 16 2c0 -3 -4 -13 -13 -31c-17 -35 -32 -70 -75 -119c-25 -31 -50 -46 -73 -46
c-26 0 -44 16 -54 47c-4 12 -7 35 8 75c8 20 20 44 37 73s26 45 28 50s3 10 3 15c0 21 -27 32 -80 33l-12 -32c-42 -110 -82 -184 -121 -221c-7 -6 -10 -4 -10 6c0 2 1 4 2 7c37 49 70 108 97 175s46 131 57 192c4 21 13 31 28 31s25 -9 32 -28c2 -6 3 -13 3 -21z" />
    <glyph glyph-name="s" unicode="s" horiz-adv-x="256" 
d="M143 19c9 -1 15 -2 18 -2c27 0 53 16 79 47c14 17 39 61 75 131c1 3 4 5 7 5c6 1 9 -2 9 -7c-3 -8 -11 -26 -26 -58c-16 -30 -29 -57 -52 -81l-21 -22c-11 -11 -25 -19 -40 -24c-25 -8 -49 -9 -72 -2c-15 -7 -29 -10 -41 -10c-47 0 -76 19 -86 56c-11 22 3 83 36 85
c34 65 63 123 87 175c27 57 58 85 93 85c19 0 42 -10 37 -21c-2 -5 -7 -6 -14 -3c-15 7 -25 6 -33 2c-23 -11 -34 -34 -34 -69c0 -37 13 -57 26 -85c15 -35 23 -63 23 -85c0 -44 -32 -90 -71 -117zM109 26c29 23 44 59 44 110c0 21 -2 49 -7 85c-9 72 -7 90 -6 99
c-51 -101 -82 -163 -94 -185c14 0 21 -10 21 -30c0 -39 14 -66 42 -79zM34 53c0 -4 0 -8 1 -13c5 -18 18 -27 37 -27c8 0 15 1 20 4c-25 15 -38 40 -40 75c-12 -12 -18 -25 -18 -39z" />
    <glyph glyph-name="t" unicode="t" horiz-adv-x="200" 
d="M32 80c0 55 27 148 80 278h-52c-11 0 -8 22 2 22h60c48 105 89 179 124 203c35 25 47 20 54 17c15 -7 23 -23 23 -46s-8 -50 -23 -83s-30 -63 -45 -91h48c11 0 8 -22 -2 -22h-58c-37 -62 -81 -117 -133 -165l-23 -102c-6 -21 -5 -61 26 -64c11 0 24 4 38 12
c32 24 67 74 106 151c8 19 21 14 13 -6c-22 -46 -39 -79 -52 -98c-36 -58 -74 -87 -115 -87s-71 34 -71 81zM183 380h50c44 79 66 133 66 164c0 13 -2 20 -7 20c-7 0 -19 -11 -34 -32s-40 -72 -75 -152zM220 358h-47l-54 -133c36 37 70 82 101 133z" />
    <glyph glyph-name="u" unicode="u" horiz-adv-x="357" 
d="M22 58c0 29 12 63 37 104c-11 0 -14 5 -9 16l18 35c23 43 41 80 56 110c7 14 20 21 39 21h61c-24 -17 -48 -51 -73 -101c-24 -49 -43 -88 -56 -117c-39 -83 -14 -104 8 -104c13 0 30 13 53 40c35 41 85 128 149 261c7 14 20 21 39 21h54c-15 -11 -26 -23 -35 -35
c-8 -12 -19 -33 -34 -64c-40 -80 -62 -133 -67 -159c-2 -9 -3 -18 -3 -26c0 -21 7 -33 22 -34c36 0 80 56 133 167c4 9 8 13 12 11c8 -4 9 -7 -3 -31l-18 -35c-5 -11 -14 -27 -26 -47c-11 -19 -22 -35 -32 -46c-52 -59 -109 -55 -128 -11c-8 20 -9 50 4 95
c-49 -85 -94 -128 -135 -128c-36 0 -57 15 -63 45c-2 3 -3 7 -3 12z" />
    <glyph glyph-name="v" unicode="v" horiz-adv-x="262" 
d="M323 349l-5 -18c-34 -106 -65 -183 -94 -232c-42 -71 -86 -106 -132 -106c-37 0 -56 18 -56 54c0 27 10 70 30 127c-13 -21 -22 -8 -18 3l18 34c13 26 19 52 19 78s-5 41 -16 46c40 7 63 10 70 9c13 0 15 -13 15 -26c0 -41 -11 -89 -32 -144s-31 -93 -31 -112
c0 -37 15 -37 27 -37c35 0 81 57 125 166c-19 43 -16 75 -8 100c12 38 31 62 57 71c5 2 10 3 15 3c11 0 16 -5 16 -16z" />
    <glyph glyph-name="w" unicode="w" horiz-adv-x="476" 
d="M503 349l-5 -17c-29 -97 -56 -169 -80 -214c-43 -80 -91 -120 -142 -120c-24 0 -40 6 -49 18c-17 25 -16 45 -16 60c0 18 3 38 9 59c-49 -90 -94 -135 -133 -135c-29 0 -57 18 -62 46c-2 3 -3 7 -3 12c0 29 12 63 37 104c-11 0 -14 5 -9 16l18 35l56 110
c7 14 20 21 39 21h61c-24 -17 -48 -51 -73 -101l-56 -116c-37 -83 -12 -106 8 -106c26 3 63 52 88 95l27 45c16 29 37 74 48 95c19 39 30 61 32 67c6 14 19 21 38 21h61l-11 -8c-13 -9 -23 -18 -29 -29c-30 -50 -51 -90 -63 -121c-27 -68 -40 -112 -40 -131
c0 -24 9 -36 27 -37h5c48 0 95 58 142 174c-19 40 -16 73 -8 100c11 39 29 62 54 71c5 2 9 3 13 3c11 0 16 -6 16 -17z" />
    <glyph glyph-name="x" unicode="x" horiz-adv-x="333" 
d="M172 205c7 35 10 61 9 78c0 33 -30 39 -65 -17c-5 -7 -15 -27 -32 -59c-17 -31 -27 -51 -32 -59c-8 -15 -16 -3 -7 16c39 81 67 131 86 148c19 15 36 23 51 23h5c31 -3 46 -27 46 -70c0 -16 -2 -35 -6 -56c18 34 39 65 62 94c24 29 43 46 57 50c7 1 45 6 40 -27
c-1 -30 -53 -52 -65 -18c-21 -19 -41 -45 -62 -78s-36 -65 -46 -96c-4 -28 -4 -53 0 -74c5 -21 14 -32 27 -35c10 -3 40 -14 81 45c21 31 37 58 48 79c11 22 18 34 19 36l3 7c5 10 9 14 12 11c7 -5 6 -10 3 -15c-1 -3 -6 -15 -17 -37l-22 -43c-4 -7 -12 -20 -24 -38
c-11 -17 -22 -30 -31 -38c-27 -21 -53 -32 -78 -32c-49 0 -75 47 -75 91c0 13 0 22 1 27c-53 -102 -104 -153 -154 -153c-14 0 -26 5 -36 15c-3 4 -5 15 7 19c8 1 25 -23 61 -3c21 10 45 36 72 78c27 43 48 86 62 131z" />
    <glyph glyph-name="y" unicode="y" horiz-adv-x="399" 
d="M-81 -316c-92 2 -110 60 -77 122c17 34 49 61 94 82c34 16 79 31 135 45c56 13 92 22 108 27c24 42 53 117 86 225c-39 -68 -71 -116 -97 -143s-52 -41 -79 -41c-36 0 -57 15 -63 45c-5 9 0 33 0 41c1 8 12 31 15 39c7 15 14 27 19 36c-11 0 -14 5 -9 16l18 35
c23 43 41 80 56 110c7 14 20 21 39 21h61l-10 -8c-12 -8 -21 -17 -27 -28c-24 -41 -54 -100 -90 -177c-42 -93 -16 -106 6 -109c13 0 30 13 53 40c47 55 100 142 157 261c7 14 20 21 39 21h54c-35 -24 -50 -57 -74 -120l-44 -125c-17 -52 -31 -91 -40 -117
c63 19 111 52 144 99c15 21 36 57 63 110c5 9 9 13 12 11c4 -2 6 -5 6 -8s-6 -16 -17 -39c-21 -44 -41 -80 -77 -120s-75 -58 -148 -85c-51 -93 -103 -162 -155 -206c-49 -40 -101 -60 -158 -60zM-139 -217c-23 -46 -8 -79 38 -79c39 0 80 20 124 60c44 39 83 82 116 127
l22 37c-110 -29 -179 -49 -208 -62c-43 -19 -73 -46 -92 -83z" />
    <glyph glyph-name="z" unicode="z" horiz-adv-x="341" 
d="M-105 -310c-57 0 -88 43 -88 79s25 71 58 96c32 24 56 38 112 59l64 23l72 22l65 20c12 39 18 68 18 88c0 35 -10 52 -29 52c-3 0 -5 0 -8 -1c-32 -17 -51 -23 -57 -18c-7 5 -6 15 5 18c45 14 83 43 112 88c9 13 13 26 13 37c0 23 -23 49 -44 49c-33 0 -61 -19 -83 -57
c-19 -31 -36 -65 -53 -100c-8 -19 -23 -10 -12 11c35 69 55 107 59 114c30 55 71 82 123 82c23 0 41 -9 53 -26c7 -9 10 -23 10 -42c0 -36 -38 -97 -98 -133h2c43 0 66 -22 67 -65c0 -25 -4 -50 -11 -73c51 10 102 70 154 179c3 6 6 9 10 10c5 2 7 0 7 -6
c0 -7 -9 -27 -26 -58s-34 -57 -49 -78c-28 -40 -62 -64 -102 -72c-52 -143 -157 -250 -298 -291c-17 -5 -32 -7 -46 -7zM-152 -211c-4 -13 -6 -26 -6 -39c0 -27 26 -38 43 -38c95 0 238 122 284 252c-14 -5 -36 -11 -66 -20l-71 -21c-47 -15 -84 -30 -111 -46
c-36 -21 -60 -50 -73 -88z" />
    <glyph glyph-name="braceleft" unicode="{" horiz-adv-x="369" 
d="M417 726h4c22 3 6 -22 -5 -23c-49 0 -83 -9 -102 -26s-33 -45 -43 -85l-29 -126c-10 -43 -24 -76 -42 -98c-25 -31 -70 -53 -133 -64c53 -10 88 -28 103 -54c20 -34 5 -99 -2 -142l-21 -90c-8 -41 -10 -81 7 -101c15 -17 45 -26 90 -26c7 1 9 -3 7 -10
c-2 -8 -5 -12 -10 -12h-5c-65 0 -109 12 -131 35c-11 13 -17 32 -17 59s2 49 5 68l17 74l14 62c3 12 4 27 4 45c0 33 -16 56 -48 70c-15 6 -36 9 -65 9c-9 0 -11 6 6 27c57 6 95 18 115 35c21 16 37 50 47 101l8 44c9 47 14 67 27 107c12 39 30 68 53 86c31 23 80 35 146 35
z" />
    <glyph glyph-name="bar" unicode="|" horiz-adv-x="485" 
d="M264 749v-980h-43v980h43z" />
    <glyph glyph-name="braceright" unicode="}" horiz-adv-x="485" 
d="M484 299c0 -4 -5 -11 -16 -22c-49 0 -89 -12 -119 -35c-33 -25 -58 -80 -77 -166c-7 -31 -19 -64 -35 -97c-15 -34 -35 -59 -59 -76c-33 -23 -82 -34 -147 -34h-5c-5 1 -7 2 -7 5c0 11 5 17 15 17c49 0 84 9 106 27c29 23 53 73 72 151c7 29 18 60 32 92s30 57 49 74
c29 25 72 44 130 55c-50 9 -82 27 -96 54c-9 17 -8 48 -4 72s13 63 21 86l26 85c11 36 11 70 0 85c-12 18 -42 27 -90 27c-11 0 -13 6 6 23h5c69 0 112 -12 129 -35c22 -34 18 -77 -16 -179c-22 -55 -33 -100 -33 -133c0 -17 3 -29 10 -38c13 -17 45 -28 96 -33
c5 0 7 -2 7 -5z" />
    <glyph glyph-name="asciitilde" unicode="~" horiz-adv-x="485" 
d="M360 414c-15 0 -36 6 -64 18c-63 28 -91 32 -115 -12c-1 -5 -7 -5 -18 -2c-3 1 -5 3 -5 4c28 50 59 75 92 75c15 0 37 -6 65 -18c28 -11 46 -17 53 -18h16c21 0 37 12 48 35c1 2 3 3 6 3c9 0 14 -2 15 -5c-26 -53 -57 -80 -93 -80z" />
    <glyph glyph-name="nbspace" unicode="&#xa0;" horiz-adv-x="259" 
 />
    <glyph glyph-name="exclamdown" unicode="&#xa1;" horiz-adv-x="401" 
d="M-6 -298l-31 1l-5 2l-2 6c6 16 62 102 168 259l167 245l10 -1l-1 -7l-254 -484c-7 -14 -25 -21 -52 -21zM377 307c0 -36 -26 -53 -49 -53s-35 18 -35 29s-1 25 18 41c32 28 66 1 66 -17z" />
    <glyph glyph-name="cent" unicode="&#xa2;" horiz-adv-x="316" 
d="M149 548c-39 -53 -58 -104 -58 -155c0 -50 18 -75 55 -75c34 0 71 25 111 74c11 15 19 -5 12 -13c-36 -50 -79 -76 -128 -78l-17 -39c-42 -99 -63 -166 -63 -203c0 -22 7 -34 21 -37c9 -2 12 -6 9 -11c-5 -11 -13 -8 -18 -7c-25 9 -38 30 -38 63c0 36 20 98 59 187
c11 25 18 40 20 47c-31 3 -53 15 -66 38c-25 51 -20 78 11 170c13 30 27 55 44 74c35 40 87 74 130 74h3h6l69 169c5 13 11 19 16 19c9 0 13 -14 8 -27c-1 -4 -5 -14 -12 -30l-56 -136c32 -9 52 -39 52 -74s-24 -63 -53 -63c-28 0 -48 20 -48 47s20 46 44 46
c17 0 34 -10 37 -18c2 11 0 20 -5 28c-7 10 -17 15 -30 15c-25 0 -75 -32 -115 -85z" />
    <glyph glyph-name="sterling" unicode="&#xa3;" horiz-adv-x="573" 
d="M321 246l-18 -6l-7 -3c-7 0 -6 18 -2 21c19 9 41 14 66 14s45 -1 60 -3c121 212 230 318 326 318c39 0 72 -18 72 -63c0 -23 -13 -51 -39 -84s-53 -60 -81 -80c-11 -11 -25 -2 -11 7c78 65 117 120 117 165c0 22 -13 33 -38 33c-32 0 -65 -13 -98 -40s-60 -55 -81 -86
c-41 -60 -59 -111 -91 -180c29 -4 56 -4 76 0c10 3 16 5 19 5c5 0 5 -20 1 -21c-28 -11 -54 -9 -107 -4c-55 -105 -123 -181 -206 -228c21 -15 53 -31 96 -49c43 -19 75 -30 96 -35s43 -8 66 -8c24 0 49 7 74 21c25 13 38 34 38 63c0 7 8 7 8 -2v-2c-3 -32 -18 -55 -44 -68
c-26 -14 -55 -21 -87 -21c-31 0 -61 3 -90 10c-28 6 -66 17 -114 34s-80 30 -96 39c-57 -27 -109 -26 -162 -1c-27 13 -40 29 -40 50s8 36 24 46c32 21 71 21 112 2c21 -9 37 -17 46 -24l50 -37c26 21 47 45 64 72s29 44 34 52l30 53c15 27 24 41 25 43c-29 3 -57 4 -88 -3z
M32 52c0 -19 9 -34 28 -47c45 -31 104 -30 151 -3c-52 35 -88 56 -107 65s-32 13 -41 13c-17 0 -31 -11 -31 -28z" />
    <glyph glyph-name="currency" unicode="&#xa4;" horiz-adv-x="671" 
d="M169 260c0 42 15 78 45 108l-104 162l154 -124c60 32 129 32 172 0l218 130l-183 -171c9 -15 13 -31 13 -50c0 -36 -15 -71 -45 -104l106 -164l-156 127c-57 -32 -124 -32 -172 -1l-216 -131l180 170c-8 15 -12 31 -12 48zM258 362c-21 -20 -32 -45 -32 -75
c0 -29 9 -54 28 -73c37 -37 97 -38 141 2c22 21 33 45 33 74s-10 54 -30 73c-39 39 -97 39 -140 -1z" />
    <glyph glyph-name="yen" unicode="&#xa5;" horiz-adv-x="722" 
d="M110 363c0 -5 -2 -7 -7 -7c-1 0 -3 1 -5 3c-17 23 -26 50 -26 80s9 58 27 85s41 40 69 40c39 0 74 -17 104 -52c54 -64 83 -142 88 -235l20 31c2 13 27 34 39 63l21 33c16 25 27 45 66 93c19 25 36 44 51 59c31 31 73 59 106 59c35 0 65 -32 65 -63s-15 -25 -15 -16l2 12
c0 28 -25 54 -53 54c-49 0 -122 -86 -220 -259c-4 -7 -7 -11 -8 -14h104c7 3 -3 -21 -16 -22h-100l-53 -94h101c10 3 -4 -21 -15 -22h-100c-57 -86 -107 -146 -149 -180c-46 -37 -92 -55 -137 -55c-25 0 -24 13 -5 13c44 0 91 29 140 88c35 42 68 87 100 134h-227
c-10 -3 4 21 15 22h227l5 8c0 23 -2 52 -7 86h-141c-9 -4 2 20 15 22h123c-7 43 -22 88 -44 135c-23 51 -60 87 -105 87c-22 0 -41 -12 -57 -37c-32 -48 -33 -88 2 -151z" />
    <glyph glyph-name="brokenbar" unicode="&#xa6;" horiz-adv-x="485" 
d="M376 749h52l-94 -427l-48 5zM264 220l47 -4l-91 -447h-52z" />
    <glyph glyph-name="section" unicode="&#xa7;" horiz-adv-x="944" 
d="M613 -41c32 -49 31 -97 3 -145c-29 -48 -77 -84 -142 -107c-55 -19 -114 -29 -176 -29c-124 0 -196 34 -212 102c-1 7 -2 13 -2 20c0 26 12 49 36 70c17 13 39 24 67 32c12 3 19 2 20 -4c1 -9 -7 -14 -25 -16c-32 -4 -52 -20 -59 -48c-2 -7 -3 -14 -3 -21
c0 -23 11 -45 32 -66c31 -29 73 -44 127 -44c47 0 100 10 157 31c30 11 56 25 78 44c34 29 51 59 51 88c0 39 -25 75 -75 106c-19 11 -56 30 -113 55c-56 26 -97 47 -123 63c-79 48 -104 106 -104 153c0 33 11 67 33 102c39 62 95 115 170 160c17 10 35 19 54 27
c-33 49 -32 98 -3 145c29 49 77 85 142 108c55 19 114 29 176 29c124 0 196 -34 212 -102c1 -7 2 -13 2 -20c0 -26 -12 -49 -36 -70c-17 -13 -39 -24 -67 -32c-12 -3 -19 -2 -20 4c-1 9 7 14 25 16c32 4 52 20 59 48c2 7 3 14 3 21c0 23 -11 45 -32 66
c-31 29 -73 44 -127 44c-47 0 -100 -10 -157 -31c-30 -11 -56 -25 -78 -44c-34 -29 -51 -59 -51 -88c0 -39 25 -75 75 -106c19 -11 56 -30 112 -56c57 -25 98 -46 124 -62c79 -48 104 -106 104 -153c0 -33 -11 -67 -33 -102c-39 -62 -95 -115 -170 -160
c-21 -13 -39 -22 -54 -28zM230 262c0 -45 20 -85 61 -120c22 -17 67 -41 134 -70c68 -29 110 -48 127 -59s30 -21 40 -30l19 9c86 45 142 104 167 176c8 21 12 42 12 62c0 45 -20 85 -61 120c-22 17 -67 41 -135 70c-89 38 -145 68 -166 89l-19 -9
c-86 -45 -142 -104 -167 -176c-8 -21 -12 -42 -12 -62z" />
    <glyph glyph-name="dieresis" unicode="&#xa8;" horiz-adv-x="278" 
d="M199 497c44 0 45 -66 1 -66c-43 -4 -43 69 -1 66zM70 497c44 0 45 -66 1 -66c-43 -4 -43 69 -1 66z" />
    <glyph glyph-name="copyright" unicode="&#xa9;" horiz-adv-x="717" 
d="M68 231c0 -61 23 -116 68 -163s105 -70 180 -70c85 0 160 28 224 84c74 65 111 142 111 231c0 62 -23 117 -69 164c-45 47 -106 71 -182 71c-83 0 -157 -28 -221 -85c-74 -65 -111 -143 -111 -232zM696 314c0 -93 -41 -173 -124 -240c-74 -60 -157 -90 -249 -90
s-165 25 -219 74c-53 50 -80 109 -80 176c0 92 41 171 123 238c75 61 159 91 250 91c92 0 165 -25 218 -76c54 -50 81 -108 81 -173zM399 326c20 22 30 44 30 65c0 15 -7 22 -20 22c-28 0 -58 -24 -91 -72s-49 -93 -49 -135c0 -39 16 -67 51 -67c39 0 74 24 106 72
c13 17 24 7 15 -8c-33 -53 -76 -79 -130 -79c-64 0 -90 38 -90 79c0 49 28 116 61 160c34 46 72 69 115 69s60 -23 60 -52c0 -19 -8 -35 -23 -50c-16 -13 -27 -12 -35 -4z" />
    <glyph glyph-name="ordfeminine" unicode="&#xaa;" horiz-adv-x="374" 
d="M149 486c-27 -43 -50 -65 -69 -65c-15 0 -30 17 -30 42c0 31 14 64 43 99c22 26 48 39 77 39c15 0 28 -5 39 -16c7 -7 3 -17 -5 -14c-4 12 -10 18 -19 18c-28 0 -58 -26 -90 -77c-29 -49 -26 -76 -9 -76c19 0 46 31 79 92c16 31 24 33 31 32c7 0 19 -3 24 -2
c-6 -5 -15 -19 -26 -40c-31 -60 -25 -83 -16 -83h1c14 0 35 28 64 84c8 15 11 -3 7 -4c-31 -62 -57 -93 -78 -93c-31 0 -32 33 -23 64z" />
    <glyph glyph-name="guillemotleft" unicode="&#xab;" horiz-adv-x="451" 
d="M476 304l1 -7c-11 -17 -40 -42 -87 -75l-74 -52l-1 -136l-5 -10l-7 -3l-8 3c-7 13 -15 41 -24 83l-14 72c3 1 22 14 59 37c97 61 148 91 154 91zM332 304l1 -7c-11 -18 -49 -50 -115 -95l-47 -32l-1 -136l-5 -10l-7 -3c-3 0 -6 1 -8 3c-9 24 -17 53 -24 87
c-7 35 -11 57 -14 68c3 1 22 14 59 37c95 61 147 91 154 91z" />
    <glyph glyph-name="logicalnot" unicode="&#xac;" horiz-adv-x="808" 
d="M591 14c-11 0 -20 11 -19 22l41 193h-522c-13 0 -20 4 -20 13c0 12 19 35 30 35h568l-51 -241c-2 -15 -11 -22 -27 -22z" />
    <glyph glyph-name="uni00AD" unicode="&#xad;" horiz-adv-x="406" 
d="M147 221c0 14 6 21 17 21c43 0 117 -1 220 -4c11 -1 18 -5 21 -13c-1 -8 -7 -13 -17 -14c-52 0 -103 -3 -152 -9c-49 -5 -73 -8 -73 -8c-8 0 -16 16 -16 27z" />
    <glyph glyph-name="registered" unicode="&#xae;" horiz-adv-x="717" 
d="M696 314c0 -93 -41 -173 -124 -240c-74 -60 -157 -90 -249 -90s-165 25 -219 74c-53 50 -80 109 -80 176c0 92 41 171 123 238c75 61 159 91 250 91c92 0 165 -25 218 -76c54 -50 81 -108 81 -173zM68 231c0 -61 23 -116 68 -163s105 -70 180 -70c85 0 160 28 224 84
c74 65 111 142 111 231c0 62 -23 117 -69 164c-45 47 -106 71 -182 71c-83 0 -157 -28 -221 -85c-74 -65 -111 -143 -111 -232zM308 172c-28 -31 -66 -47 -114 -47s-72 15 -72 46c0 14 8 25 24 33c17 8 40 8 67 -1c13 -10 -3 -3 -33 0c-30 -4 -41 -40 -21 -54
c23 -21 81 -10 121 35c65 80 99 164 120 194c18 31 34 54 49 70c-31 3 -82 6 -153 -9c-69 -15 -112 -52 -121 -91c-5 -10 -2 -57 45 -58c17 0 31 6 43 18c24 24 19 34 20 34c5 0 4 -24 -13 -39c-46 -48 -120 -17 -116 37c0 27 13 52 40 74s59 36 97 41c76 11 124 10 167 3
c7 7 12 11 14 11c3 0 3 -4 1 -13c5 -1 32 -5 41 -8c45 -13 68 -34 68 -61c0 -25 -19 -46 -56 -64c-35 -16 -75 -24 -120 -24c8 -49 23 -90 46 -124c14 -21 27 -32 39 -32c25 0 49 26 72 77c7 11 11 7 8 0c-20 -41 -35 -67 -46 -78s-25 -16 -44 -16c-29 0 -52 15 -69 45
c-13 23 -23 56 -28 99c-1 11 -2 16 -2 17c-26 -52 -51 -90 -74 -115zM534 364c17 25 17 47 1 59c-15 12 -24 15 -59 20c-33 -55 -57 -98 -72 -131l48 5c35 5 63 20 82 47z" />
    <glyph glyph-name="overscore" unicode="&#xaf;" horiz-adv-x="485" 
d="M196 441h213l-12 -30h-214z" />
    <glyph glyph-name="degree" unicode="&#xb0;" horiz-adv-x="323" 
d="M163 752c35 0 64 -29 64 -65c0 -35 -29 -63 -66 -63c-36 0 -62 28 -62 63c0 36 29 65 64 65zM164 639c21 0 44 24 44 48c0 25 -19 46 -46 46c-25 0 -46 -19 -46 -50s27 -44 48 -44z" />
    <glyph glyph-name="plusminus" unicode="&#xb1;" horiz-adv-x="458" 
d="M165 291l139 -3l17 71l17 72c5 15 12 23 22 23c7 0 9 -7 5 -22c-3 -15 -13 -63 -28 -145h130c15 0 18 -9 18 -14c0 -9 -7 -13 -21 -13c-1 0 -45 -2 -133 -6l-9 -48c-9 -50 -13 -80 -14 -89c-1 -7 -9 -13 -24 -16c-4 -1 -8 -1 -11 -1c-9 0 -14 4 -14 12c0 3 12 50 36 140
l-76 -5c-34 -1 -56 -3 -66 -4c-7 -1 -10 6 -11 19c2 17 10 27 23 29zM149 70l260 -8c11 0 18 -4 21 -13v-4c0 -6 -6 -9 -17 -10c-102 0 -190 -4 -264 -13h-1c-8 0 -16 16 -16 27c0 14 6 21 17 21z" />
    <glyph glyph-name="twosuperior" unicode="&#xb2;" horiz-adv-x="317" 
d="M58 277l-44 -34c-18 -6 -22 -4 -14 12l48 39c31 25 50 41 59 50c106 94 159 166 159 216c0 27 -16 35 -35 30c-44 -12 -65 -41 -89 -92c-8 -19 -25 -8 -21 4c23 64 77 120 141 120c82 -3 98 -80 -19 -182c-36 -33 -79 -71 -128 -112l-9 -8c7 -7 18 -14 32 -21
c29 -12 45 -14 77 5c16 9 28 19 36 28c16 20 24 13 11 -10c-39 -51 -74 -76 -103 -76c-37 0 -70 10 -101 31z" />
    <glyph glyph-name="threesuperior" unicode="&#xb3;" horiz-adv-x="298" 
d="M316 579c0 -44 -40 -82 -119 -115c43 -7 65 -27 65 -61c0 -39 -21 -76 -62 -110c-41 -33 -85 -50 -132 -50c-31 0 -52 12 -61 37c-4 9 -7 20 10 13c7 -19 27 -34 47 -34c37 0 70 17 99 50c30 34 45 68 45 101c0 21 -14 37 -26 37s-23 -4 -36 -9c-23 -7 -34 -7 -35 0
c-1 3 1 6 6 8c30 6 60 21 91 46s46 52 46 83c0 9 -14 16 -26 16c-25 0 -51 -16 -79 -48c-7 -8 -16 -9 -13 7c40 49 81 74 123 74c33 0 57 -14 57 -45z" />
    <glyph glyph-name="acute" unicode="&#xb4;" horiz-adv-x="267" 
d="M61 413c-1 0 -6 2 -6 6c0 3 1 5 2 7s11 10 28 23c18 13 37 27 58 41c41 29 55 43 72 43c34 0 39 -18 32 -31c-3 -8 -33 -25 -90 -51c-57 -25 -89 -38 -96 -38z" />
    <glyph glyph-name="mu" unicode="&#xb5;" horiz-adv-x="324" 
d="M268 -8c-52 0 -62 55 -42 111c-17 -27 -36 -52 -59 -75c-45 -45 -95 -43 -115 -6l-129 -282c-3 -4 -31 -5 -48 3c-3 3 -4 4 -4 5l193 379l24 48l26 53c17 35 35 66 54 94h2c5 -3 10 -5 16 -5c15 0 31 7 48 21l2 -2c-12 -13 -27 -37 -46 -71c-18 -33 -34 -62 -49 -85
c-39 -71 -59 -120 -59 -148c0 -18 8 -27 25 -27c38 0 90 58 155 175c35 61 60 111 77 148h2c16 -9 45 -14 56 13l3 -1l-78 -151c-46 -85 -69 -141 -69 -167c0 -13 6 -20 17 -20c17 0 35 11 56 34c30 34 56 76 79 127h6l2 -2c-51 -113 -99 -169 -145 -169z" />
    <glyph glyph-name="paragraph" unicode="&#xb6;" horiz-adv-x="403" 
d="M199 400c-19 24 -19 59 0 110c9 26 26 51 49 75c47 49 97 69 184 69h172l-18 -50h-20l-221 -604h-67l221 604h-49l-221 -604h-67l133 363c-46 0 -78 12 -96 37z" />
    <glyph glyph-name="middot" unicode="&#xb7;" horiz-adv-x="261" 
d="M124 220c0 36 26 53 49 53s35 -18 35 -29s1 -25 -18 -41c-32 -28 -66 -1 -66 17z" />
    <glyph glyph-name="cedilla" unicode="&#xb8;" horiz-adv-x="379" 
d="M274 -191c-17 -11 -40 -17 -68 -17c-27 0 -57 4 -88 12c-31 7 -46 19 -46 34c0 9 6 11 21 -4c16 -17 46 -25 91 -25s76 12 91 36c19 28 22 63 -9 83c-15 10 -32 15 -49 15s-33 -4 -49 -12s-26 -12 -29 -12c-12 0 -21 15 -11 25c3 3 16 14 39 31s35 26 38 26s5 -3 7 -8
c-1 -1 -5 -4 -14 -9c-20 -14 -30 -23 -30 -26c27 4 69 9 120 -16c25 -13 38 -32 38 -58c0 -27 -17 -52 -52 -75z" />
    <glyph glyph-name="onesuperior" unicode="&#xb9;" horiz-adv-x="246" 
d="M211 594c24 28 41 23 49 23s6 -7 5 -16c-21 -39 -51 -97 -90 -174c-38 -77 -67 -134 -88 -171c-5 -8 -18 -12 -38 -12c-11 0 -17 2 -17 6l149 277c-7 -5 -19 -13 -38 -24c-18 -11 -31 -19 -39 -25c-24 -13 -24 -6 -11 9l16 12c19 14 53 46 102 95z" />
    <glyph glyph-name="ordmasculine" unicode="&#xba;" horiz-adv-x="273" 
d="M95 427h-2c-24 0 -35 20 -35 45c0 13 4 30 12 50c17 41 60 80 92 80h2c44 -1 57 -76 -18 -150c15 -23 44 -9 52 2c9 11 16 18 23 31l19 40c4 8 8 -2 6 -5c-17 -41 -33 -66 -46 -75c-27 -19 -48 -19 -63 -1c-15 -11 -29 -17 -42 -17zM155 476c41 65 37 110 14 110
c-17 0 -45 -24 -68 -72c-23 -47 -23 -76 1 -76c9 0 19 4 29 12c-5 9 -8 17 -8 25c1 14 7 21 17 21c11 0 16 -5 16 -14c0 -1 -1 -5 -1 -6z" />
    <glyph glyph-name="guillemotright" unicode="&#xbb;" horiz-adv-x="451" 
d="M286 124l48 34l-1 66c0 45 2 72 6 79l8 4l8 -4c5 -5 12 -31 22 -79c11 -48 16 -73 16 -74l-205 -128l-8 -1l-7 2v9c9 15 46 45 113 92zM236 214l12 -64l-205 -128l-7 -1c-3 0 -5 1 -8 2l-1 4c0 7 8 16 23 28l39 31c35 27 71 52 90 65l10 7l1 136l5 9l8 4l9 -4
c10 -27 18 -56 24 -89z" />
    <glyph glyph-name="onequarter" unicode="&#xbc;" horiz-adv-x="622" 
d="M528 340c9 15 31 23 65 23c9 0 15 -2 19 -6c-1 -9 -63 -67 -188 -174c-17 -14 -32 -28 -43 -43l121 3c8 17 21 42 38 75c9 10 22 16 38 17c16 2 23 0 22 -7c0 -2 -1 -4 -2 -6c0 -5 -13 -30 -38 -77h5c30 -5 17 -13 15 -15s-8 -5 -19 -10h-15l-58 -113
c-3 -3 -10 -6 -21 -8c-20 -4 -30 -4 -42 0c0 1 10 20 29 56c19 37 30 57 33 62l-147 -3l4 19c15 19 34 39 57 61l41 43c43 49 72 84 86 103zM545 606c7 8 16 12 29 12s19 -3 19 -9c0 -3 -2 -7 -6 -12l-49 -60l-76 -95l-85 -106c-68 -85 -121 -148 -177 -213
c-75 -86 -121 -129 -136 -129c-4 0 -11 2 1 15c53 61 139 165 258 313c119 149 193 243 222 284zM211 594c24 28 41 23 49 23s6 -7 5 -16c-21 -39 -51 -97 -90 -174c-38 -77 -67 -134 -88 -171c-5 -8 -18 -12 -38 -12c-11 0 -17 2 -17 6l149 277c-7 -5 -19 -13 -38 -24
c-18 -11 -31 -19 -39 -25c-24 -13 -24 -6 -11 9l16 12c19 14 53 46 102 95z" />
    <glyph glyph-name="onehalf" unicode="&#xbd;" horiz-adv-x="622" 
d="M515 606c13 16 29 12 36 11c12 -3 15 -8 9 -16l-52 -64l-76 -95l-85 -106c-68 -85 -121 -148 -177 -213c-83 -95 -130 -138 -140 -128c-1 1 -1 2 -1 4s14 19 43 52s102 123 221 271c119 149 193 243 222 284zM265 601c-21 -39 -51 -97 -90 -174
c-38 -77 -67 -134 -88 -171c-9 -13 -55 -16 -55 -6l149 277c-7 -5 -19 -13 -38 -24c-18 -11 -31 -19 -39 -25c-24 -13 -24 -6 -11 9l16 12c19 14 53 46 102 95c24 28 41 23 48 23s10 1 6 -16zM348 27l-44 -34c-18 -6 -22 -4 -14 12l48 39c31 25 50 41 59 50
c106 94 159 166 159 216c0 27 -16 35 -36 30c-43 -12 -64 -41 -88 -92c-8 -19 -25 -8 -21 4c23 64 77 120 141 120c81 -3 100 -80 -20 -182c-35 -33 -78 -71 -127 -112l-9 -8c7 -7 18 -14 32 -21c29 -12 45 -14 77 5c16 9 28 19 36 28c16 20 24 13 11 -10
c-39 -51 -74 -76 -103 -76c-37 0 -70 10 -101 31z" />
    <glyph glyph-name="threequarters" unicode="&#xbe;" horiz-adv-x="622" 
d="M528 340c9 15 31 23 65 23c9 0 15 -2 19 -6c-1 -9 -63 -67 -188 -174c-17 -14 -32 -28 -43 -43l121 3c8 17 21 42 38 75c9 10 22 16 38 17c16 2 23 0 22 -7c0 -2 -1 -4 -2 -6c0 -5 -13 -30 -38 -77h5c30 -5 17 -13 15 -15s-8 -5 -19 -10h-15l-58 -113
c-3 -3 -10 -6 -21 -8c-20 -4 -30 -4 -42 0c0 1 10 20 29 56c19 37 30 57 33 62l-147 -3l4 19c15 19 34 39 57 61l41 43c43 49 72 84 86 103zM316 579c0 -44 -40 -82 -119 -115c43 -7 65 -27 65 -61c0 -39 -21 -76 -62 -110c-41 -33 -85 -50 -132 -50c-31 0 -52 12 -61 37
c-4 9 -7 20 10 13c7 -19 27 -34 47 -34c37 0 70 17 99 50c30 34 45 68 45 101c0 21 -14 37 -26 37s-23 -4 -36 -9c-23 -7 -34 -7 -35 0c-1 3 1 6 6 8c30 6 60 21 91 46s46 52 46 83c0 9 -14 16 -26 16c-25 0 -51 -16 -79 -48c-7 -8 -16 -9 -13 7c40 49 81 74 123 74
c33 0 57 -14 57 -45zM65 9c53 61 139 165 258 313c119 149 193 243 222 284c7 8 16 12 29 12s19 -3 19 -9c0 -3 -2 -7 -6 -12l-49 -60l-76 -95l-85 -106c-34 -43 -65 -81 -93 -114c-85 -101 -180 -205 -204 -220c-23 -15 -26 -6 -15 7z" />
    <glyph glyph-name="questiondown" unicode="&#xbf;" horiz-adv-x="396" 
d="M170 -78l-56 -69c-24 -31 -36 -58 -36 -83c0 -20 11 -35 34 -46c20 -8 35 -7 58 -4c35 0 106 50 101 79v5c-3 -13 -15 -25 -35 -36c-23 -11 -37 -9 -46 -4c-11 6 -17 17 -17 34c0 33 37 59 66 59c23 0 38 -9 45 -28c7 -13 7 -31 -2 -58c-9 -21 -31 -41 -64 -60
c-43 -25 -83 -38 -118 -38c-41 0 -70 15 -87 45c-5 9 -7 18 -7 29c0 37 22 81 66 131c15 17 42 44 79 81c37 36 67 69 89 98s41 64 56 105c5 12 22 6 19 -7c-5 -23 -17 -50 -34 -80s-32 -53 -44 -70c-12 -16 -34 -44 -67 -83zM377 307c0 -36 -26 -53 -49 -53s-35 18 -35 29
s-1 25 18 41c32 28 66 1 66 -17z" />
    <glyph glyph-name="Agrave" unicode="&#xc0;" horiz-adv-x="712" 
d="M632 405c15 0 22 -9 22 -26c0 -19 -8 -37 -23 -54c-47 -52 -81 -130 -100 -235c-16 -67 -1 -127 35 -124c32 0 69 26 112 78c38 49 67 96 87 142c11 21 26 17 17 -4c-27 -61 -58 -114 -93 -160c-50 -74 -167 -121 -206 -54c-38 59 -15 179 18 224
c-67 -81 -139 -145 -215 -194c-40 -25 -84 -39 -133 -44c-9 -1 -32 -5 -63 11c-46 19 -69 65 -69 137c0 64 22 141 67 230c26 51 55 94 88 129c-43 20 -74 41 -94 64c-15 16 -23 36 -23 59s5 38 14 45c7 9 13 10 18 3c5 -11 -6 -28 -6 -43c0 -16 8 -33 25 -50
c22 -24 50 -43 83 -58c127 137 289 226 462 226c50 0 89 -11 118 -33c29 -21 44 -51 44 -88s-24 -74 -71 -111c-63 -48 -163 -72 -301 -72c-77 0 -147 10 -210 31c-16 -15 -38 -44 -66 -88s-52 -90 -71 -137s-28 -88 -28 -123c0 -7 0 -14 1 -20c8 -55 36 -83 84 -83
c54 0 117 29 188 88c100 84 178 177 234 280c20 36 38 54 55 54zM778 601c0 52 -48 82 -120 82c-161 0 -287 -88 -408 -231c56 -17 120 -26 193 -26c119 0 208 20 267 60c45 31 68 69 68 115zM750 734c0 -6 -3 -9 -9 -9c-5 0 -26 10 -65 30l-64 34c-23 11 -35 24 -35 41
c0 11 8 20 20 20c7 0 34 -19 81 -56c48 -37 72 -57 72 -60z" />
    <glyph glyph-name="Aacute" unicode="&#xc1;" horiz-adv-x="712" 
d="M795 832c37 27 60 9 63 -2c0 -4 -1 -9 -4 -14s-29 -20 -80 -43c-50 -23 -77 -34 -81 -34h-5c-5 3 -6 7 -3 12c3 4 21 18 54 41c34 23 53 37 56 40zM632 405c15 0 22 -9 22 -26c0 -19 -8 -37 -23 -54c-47 -52 -81 -130 -100 -235c-16 -67 -1 -127 35 -124
c32 0 69 26 112 78c38 49 67 96 87 142c11 21 26 17 17 -4c-27 -61 -58 -114 -93 -160c-50 -74 -167 -121 -206 -54c-38 59 -15 179 18 224c-67 -81 -139 -145 -215 -194c-40 -25 -84 -39 -133 -44c-9 -1 -32 -5 -63 11c-46 19 -69 65 -69 137c0 64 22 141 67 230
c26 51 55 94 88 129c-43 20 -74 41 -94 64c-15 16 -23 36 -23 59s5 38 14 45c7 9 13 10 18 3c5 -11 -6 -28 -6 -43c0 -16 8 -33 25 -50c22 -24 50 -43 83 -58c127 137 289 226 462 226c50 0 89 -11 118 -33c29 -21 44 -51 44 -88s-24 -74 -71 -111
c-63 -48 -163 -72 -301 -72c-77 0 -147 10 -210 31c-16 -15 -38 -44 -66 -88s-52 -90 -71 -137s-28 -88 -28 -123c0 -7 0 -14 1 -20c8 -55 36 -83 84 -83c54 0 117 29 188 88c100 84 178 177 234 280c20 36 38 54 55 54zM778 601c0 52 -48 82 -120 82
c-161 0 -287 -88 -408 -231c56 -17 120 -26 193 -26c119 0 208 20 267 60c45 31 68 69 68 115z" />
    <glyph glyph-name="Acircumflex" unicode="&#xc2;" horiz-adv-x="712" 
d="M749 851l36 -106c2 -4 0 -6 -6 -6c-7 0 -11 2 -14 6l-46 71l-132 -71c-7 -6 -15 -8 -24 -5c-3 1 -4 3 -1 5l149 106c25 4 37 4 38 0zM632 405c15 0 22 -9 22 -26c0 -19 -8 -37 -23 -54c-47 -52 -81 -130 -100 -235c-16 -67 -1 -127 35 -124c32 0 69 26 112 78
c38 49 67 96 87 142c11 21 26 17 17 -4c-27 -61 -58 -114 -93 -160c-50 -74 -167 -121 -206 -54c-38 59 -15 179 18 224c-67 -81 -139 -145 -215 -194c-40 -25 -84 -39 -133 -44c-9 -1 -32 -5 -63 11c-46 19 -69 65 -69 137c0 64 22 141 67 230c26 51 55 94 88 129
c-43 20 -74 41 -94 64c-15 16 -23 36 -23 59s5 38 14 45c7 9 13 10 18 3c5 -11 -6 -28 -6 -43c0 -16 8 -33 25 -50c22 -24 50 -43 83 -58c127 137 289 226 462 226c50 0 89 -11 118 -33c29 -21 44 -51 44 -88s-24 -74 -71 -111c-63 -48 -163 -72 -301 -72
c-77 0 -147 10 -210 31c-16 -15 -38 -44 -66 -88s-52 -90 -71 -137s-28 -88 -28 -123c0 -7 0 -14 1 -20c8 -55 36 -83 84 -83c54 0 117 29 188 88c100 84 178 177 234 280c20 36 38 54 55 54zM778 601c0 52 -48 82 -120 82c-161 0 -287 -88 -408 -231
c56 -17 120 -26 193 -26c119 0 208 20 267 60c45 31 68 69 68 115z" />
    <glyph glyph-name="Atilde" unicode="&#xc3;" horiz-adv-x="712" 
d="M769 748c-15 0 -36 6 -64 18c-63 28 -91 32 -115 -12c-1 -5 -7 -5 -18 -2c-3 1 -5 3 -5 4c28 50 59 75 92 75c15 0 37 -6 65 -18c28 -11 46 -17 53 -18h16c21 0 37 12 48 35c1 2 3 3 6 3c9 0 14 -2 15 -5c-26 -53 -57 -80 -93 -80zM632 405c15 0 22 -9 22 -26
c0 -19 -8 -37 -23 -54c-47 -52 -81 -130 -100 -235c-16 -67 -1 -127 35 -124c32 0 69 26 112 78c38 49 67 96 87 142c11 21 26 17 17 -4c-27 -61 -58 -114 -93 -160c-50 -74 -167 -121 -206 -54c-38 59 -15 179 18 224c-67 -81 -139 -145 -215 -194
c-40 -25 -84 -39 -133 -44c-9 -1 -32 -5 -63 11c-46 19 -69 65 -69 137c0 64 22 141 67 230c26 51 55 94 88 129c-43 20 -74 41 -94 64c-15 16 -23 36 -23 59s5 38 14 45c7 9 13 10 18 3c5 -11 -6 -28 -6 -43c0 -16 8 -33 25 -50c22 -24 50 -43 83 -58
c127 137 289 226 462 226c50 0 89 -11 118 -33c29 -21 44 -51 44 -88s-24 -74 -71 -111c-63 -48 -163 -72 -301 -72c-77 0 -147 10 -210 31c-16 -15 -38 -44 -66 -88s-52 -90 -71 -137s-28 -88 -28 -123c0 -7 0 -14 1 -20c8 -55 36 -83 84 -83c54 0 117 29 188 88
c100 84 178 177 234 280c20 36 38 54 55 54zM778 601c0 52 -48 82 -120 82c-161 0 -287 -88 -408 -231c56 -17 120 -26 193 -26c119 0 208 20 267 60c45 31 68 69 68 115z" />
    <glyph glyph-name="Adieresis" unicode="&#xc4;" horiz-adv-x="712" 
d="M803 850c44 0 45 -66 1 -66c-43 -4 -43 69 -1 66zM674 850c44 0 45 -66 1 -66c-43 -4 -43 69 -1 66zM632 405c15 0 22 -9 22 -26c0 -19 -8 -37 -23 -54c-47 -52 -81 -130 -100 -235c-16 -67 -1 -127 35 -124c32 0 69 26 112 78c38 49 67 96 87 142c11 21 26 17 17 -4
c-27 -61 -58 -114 -93 -160c-50 -74 -167 -121 -206 -54c-38 59 -15 179 18 224c-67 -81 -139 -145 -215 -194c-40 -25 -84 -39 -133 -44c-9 -1 -32 -5 -63 11c-46 19 -69 65 -69 137c0 64 22 141 67 230c26 51 55 94 88 129c-43 20 -74 41 -94 64c-15 16 -23 36 -23 59
s5 38 14 45c7 9 13 10 18 3c5 -11 -6 -28 -6 -43c0 -16 8 -33 25 -50c22 -24 50 -43 83 -58c127 137 289 226 462 226c50 0 89 -11 118 -33c29 -21 44 -51 44 -88s-24 -74 -71 -111c-63 -48 -163 -72 -301 -72c-77 0 -147 10 -210 31c-16 -15 -38 -44 -66 -88
s-52 -90 -71 -137s-28 -88 -28 -123c0 -7 0 -14 1 -20c8 -55 36 -83 84 -83c54 0 117 29 188 88c100 84 178 177 234 280c20 36 38 54 55 54zM778 601c0 52 -48 82 -120 82c-161 0 -287 -88 -408 -231c56 -17 120 -26 193 -26c119 0 208 20 267 60c45 31 68 69 68 115z" />
    <glyph glyph-name="Aring" unicode="&#xc5;" horiz-adv-x="712" 
d="M817 797c6 49 -61 45 -62 -2c-1 -21 11 -37 28 -37s31 18 34 39zM831 759c-50 -39 -116 -8 -111 28c0 17 7 32 22 43c35 25 74 24 95 5s23 -53 -6 -76zM632 405c15 0 22 -9 22 -26c0 -19 -8 -37 -23 -54c-47 -52 -81 -130 -100 -235c-16 -67 -1 -127 35 -124
c32 0 69 26 112 78c38 49 67 96 87 142c11 21 26 17 17 -4c-27 -61 -58 -114 -93 -160c-50 -74 -167 -121 -206 -54c-38 59 -15 179 18 224c-67 -81 -139 -145 -215 -194c-40 -25 -84 -39 -133 -44c-9 -1 -32 -5 -63 11c-46 19 -69 65 -69 137c0 64 22 141 67 230
c26 51 55 94 88 129c-43 20 -74 41 -94 64c-15 16 -23 36 -23 59s5 38 14 45c7 9 13 10 18 3c5 -11 -6 -28 -6 -43c0 -16 8 -33 25 -50c22 -24 50 -43 83 -58c127 137 289 226 462 226c50 0 89 -11 118 -33c29 -21 44 -51 44 -88s-24 -74 -71 -111
c-63 -48 -163 -72 -301 -72c-77 0 -147 10 -210 31c-16 -15 -38 -44 -66 -88s-52 -90 -71 -137s-28 -88 -28 -123c0 -7 0 -14 1 -20c8 -55 36 -83 84 -83c54 0 117 29 188 88c100 84 178 177 234 280c20 36 38 54 55 54zM778 601c0 52 -48 82 -120 82
c-161 0 -287 -88 -408 -231c56 -17 120 -26 193 -26c119 0 208 20 267 60c45 31 68 69 68 115z" />
    <glyph glyph-name="AE" unicode="&#xc6;" horiz-adv-x="1373" 
d="M966 346l-114 1c-94 0 -165 -23 -214 -69c-52 -47 -78 -103 -78 -166c0 -82 39 -140 118 -175c41 -18 95 -27 162 -27c68 0 140 14 216 43s138 63 185 102c51 44 77 83 77 116c0 18 -10 29 -29 34s-30 10 -31 15c-1 9 19 10 39 -1c37 -18 55 -42 55 -72
c0 -38 -25 -78 -75 -121c-50 -42 -116 -76 -198 -101c-82 -26 -167 -39 -254 -39c-127 0 -223 32 -288 97c-37 37 -55 84 -55 142c0 21 4 41 13 61c-23 -28 -50 -56 -79 -84s-53 -49 -72 -64c-19 -14 -39 -28 -62 -42c-39 -25 -83 -39 -130 -43c-8 -1 -31 -5 -62 12
c-48 20 -72 69 -72 146c0 78 25 162 76 253c27 48 56 90 88 127c-45 21 -78 44 -100 69c-16 18 -24 40 -24 65s5 41 15 48c7 9 13 10 18 5c8 -12 -5 -31 -5 -47c0 -36 39 -84 114 -119c157 174 319 261 488 261c63 0 111 -17 142 -50c50 29 102 50 156 62
c54 13 94 19 120 19c89 0 154 -16 194 -48c27 -23 40 -47 40 -72c0 -31 -16 -60 -49 -89c-33 -28 -75 -48 -126 -59c-25 -5 -43 -6 -43 3c0 8 12 13 37 16s49 15 70 36c21 22 36 46 44 71c5 16 10 42 -15 73c-22 29 -67 43 -134 43c-81 0 -191 -27 -272 -91
c5 -14 8 -28 8 -41c0 -51 -30 -95 -89 -133c29 -119 245 -79 238 -149c-3 -12 -17 -18 -43 -18zM704 480c-70 -25 -149 -38 -238 -38c-88 0 -161 9 -219 28c-67 -95 -114 -175 -139 -238s-38 -111 -38 -146c0 -7 0 -14 1 -20c8 -55 36 -83 84 -83c54 0 117 29 188 88
c51 43 100 93 149 152s85 110 108 155c24 45 45 67 64 67c15 0 23 -10 23 -29c0 -21 -8 -40 -25 -58l-5 -8c37 19 97 40 172 44c-59 19 -100 48 -125 86zM803 706c-21 27 -57 41 -106 41s-94 -7 -135 -20s-79 -33 -115 -59c-71 -52 -120 -102 -184 -178
c50 -16 111 -24 184 -24c64 0 158 2 246 37c-3 11 -4 19 -4 25c1 67 39 127 114 178zM819 657c-31 -35 -48 -69 -50 -103l-1 -4c34 31 51 66 51 107z" />
    <glyph glyph-name="Ccedilla" unicode="&#xc7;" horiz-adv-x="710" 
d="M438 -285c-17 -11 -40 -17 -68 -17c-27 0 -57 4 -88 12c-31 7 -46 19 -46 34c0 9 6 11 21 -4c16 -17 46 -25 91 -25s76 12 91 36c19 28 22 63 -9 83s-66 19 -98 3s-31 -14 -39 -7c-4 3 -6 6 -6 10c0 3 2 7 5 11c4 4 25 20 63 49c-44 3 -88 14 -132 33
c-87 36 -147 122 -159 215c-5 40 -7 82 5 161c6 39 19 82 39 128c21 46 45 87 73 122c-23 89 -21 164 -4 229c3 11 10 15 13 15c20 -2 -16 -72 15 -210c53 69 116 119 188 150c55 24 113 36 174 36c17 0 35 -1 54 -3c103 -11 172 -51 208 -118c29 -56 29 -116 1 -180
c-29 -64 -80 -111 -151 -142c-46 -20 -96 -30 -151 -30c-23 0 -47 2 -71 5c-119 17 -202 74 -248 170c-16 -23 -33 -61 -50 -114s-26 -94 -29 -123c-5 -57 -5 -91 0 -132c5 -37 19 -70 42 -100c23 -29 54 -50 93 -61c39 -12 73 -18 102 -18c93 0 172 19 237 58
c39 23 70 50 92 79c23 30 47 71 72 123c8 17 21 10 12 -10c-25 -51 -49 -92 -71 -122c-21 -30 -51 -59 -90 -86c-75 -51 -153 -76 -235 -76h-9c-1 -1 -6 -5 -14 -10c-19 -13 -29 -21 -29 -25c27 4 69 9 120 -16c25 -13 38 -32 38 -58c0 -27 -17 -52 -52 -75zM229 513
c47 -121 146 -181 296 -181c85 0 152 24 203 71s77 101 77 161s-26 107 -78 140c-39 25 -86 37 -143 37s-114 -16 -171 -49c-72 -42 -133 -102 -184 -179z" />
    <glyph glyph-name="Egrave" unicode="&#xc8;" horiz-adv-x="902" 
d="M808 746c0 -5 -3 -7 -9 -7c-3 0 -22 9 -58 28c-35 19 -54 29 -57 30c-21 9 -32 21 -32 35s5 21 16 21c8 0 33 -17 76 -51s64 -53 64 -56zM491 313l-107 1c-88 0 -157 -21 -206 -64c-58 -49 -87 -107 -87 -172c0 -61 25 -115 98 -148c37 -17 87 -25 150 -25s130 13 200 40
s129 59 177 96c55 43 82 80 82 112c0 15 -8 25 -24 28c-16 4 -24 8 -25 13c-1 6 4 9 15 8s21 -3 28 -7c30 -16 45 -37 45 -62c0 -37 -26 -76 -78 -117c-51 -41 -116 -73 -195 -97s-152 -36 -221 -36s-124 7 -167 20c-75 23 -125 66 -148 129c-12 46 -18 87 36 175
c52 87 209 152 303 151c-68 24 -119 64 -119 109v6c5 51 35 97 90 138s113 70 173 85c61 16 113 24 156 24c74 0 128 -15 163 -44c22 -19 33 -38 33 -59c0 -28 -17 -55 -51 -81s-75 -44 -123 -55c-24 -5 -40 -6 -40 2c0 7 11 12 32 14c43 5 82 33 103 69c25 44 27 76 -4 104
c-21 18 -55 27 -102 27c-92 0 -197 -27 -281 -92c-51 -39 -76 -82 -76 -129c-5 -60 65 -90 137 -100c51 -9 76 -23 76 -40c0 -15 -14 -23 -43 -23z" />
    <glyph glyph-name="Eacute" unicode="&#xc9;" horiz-adv-x="902" 
d="M723 739c-9 5 -9 9 22 30l49 35c35 25 46 36 61 36c28 0 33 -13 25 -29c-2 -5 -27 -18 -75 -40c-47 -21 -73 -32 -77 -32h-5zM491 310l-107 1c-88 0 -157 -21 -206 -64c-58 -49 -87 -107 -87 -172c0 -61 25 -115 98 -148c37 -17 87 -25 150 -25s130 13 200 40
s129 59 177 96c55 43 82 80 82 112c0 15 -8 25 -24 28c-16 4 -24 8 -25 13c-1 6 4 9 15 8s21 -3 28 -7c30 -16 45 -37 45 -62c0 -37 -26 -76 -78 -117c-51 -41 -116 -73 -195 -97s-152 -36 -221 -36s-124 7 -167 20c-75 23 -125 66 -148 129c-12 46 -18 87 36 175
c52 87 209 152 303 151c-65 24 -120 70 -120 119v6c5 54 34 102 89 143s113 69 172 84s111 22 154 22c76 0 132 -15 167 -46c22 -19 33 -40 33 -61c0 -30 -17 -59 -52 -87c-34 -27 -75 -46 -124 -57c-24 -5 -41 -6 -40 2c3 8 14 13 34 15c20 3 39 11 58 25
c37 27 59 61 64 104v7c0 17 -8 32 -24 46c-21 19 -62 28 -125 28c-62 0 -126 -16 -193 -49c-80 -39 -126 -90 -137 -151c-3 -15 -8 -43 15 -75c24 -32 73 -45 120 -54c51 -11 76 -26 76 -43c0 -15 -14 -23 -43 -23z" />
    <glyph glyph-name="Ecircumflex" unicode="&#xca;" horiz-adv-x="902" 
d="M491 313l-107 1c-88 0 -157 -21 -206 -64c-58 -49 -87 -107 -87 -172c0 -61 25 -115 98 -148c37 -17 87 -25 150 -25s130 13 200 40s129 59 177 96c55 43 82 80 82 112c0 15 -8 25 -24 28c-16 4 -24 8 -25 13c-1 6 4 9 15 8s21 -3 28 -7c30 -16 45 -37 45 -62
c0 -37 -26 -76 -78 -117c-51 -41 -116 -73 -195 -97s-152 -36 -221 -36s-124 7 -167 20c-75 23 -125 66 -148 129c-12 46 -18 87 36 175c52 87 209 152 303 151c-68 24 -119 64 -119 109v6c5 51 35 97 90 138s113 70 173 85c61 16 113 24 156 24c74 0 128 -15 163 -44
c22 -19 33 -38 33 -59c0 -28 -17 -55 -51 -81s-75 -44 -123 -55c-24 -5 -40 -6 -40 2c0 7 11 12 32 14c43 5 82 33 103 69c25 44 27 76 -4 104c-21 18 -55 27 -102 27c-92 0 -197 -27 -281 -92c-51 -39 -76 -82 -76 -129c-5 -60 65 -90 137 -100c51 -9 76 -23 76 -40
c0 -15 -14 -23 -43 -23zM781 744l-45 68c-79 -41 -121 -63 -128 -68c-6 -4 -12 -6 -19 -6c-13 0 -11 5 -8 6l147 101c24 4 38 4 38 0l35 -101c8 -2 -7 -11 -20 0z" />
    <glyph glyph-name="Edieresis" unicode="&#xcb;" horiz-adv-x="902" 
d="M794 850c44 0 45 -66 1 -66c-43 -4 -43 69 -1 66zM665 850c44 0 45 -66 1 -66c-43 -4 -43 69 -1 66zM491 315l-107 1c-88 0 -157 -21 -206 -64c-58 -49 -87 -107 -87 -172c0 -61 25 -115 98 -148c37 -17 87 -25 150 -25s130 13 200 40s129 59 177 96c55 43 82 80 82 112
c0 15 -8 25 -24 28c-16 4 -24 8 -25 13c-1 6 4 9 15 8s21 -3 28 -7c30 -16 45 -37 45 -62c0 -37 -26 -76 -78 -117c-51 -41 -116 -73 -195 -97s-152 -36 -221 -36s-124 7 -167 20c-75 23 -125 66 -148 129c-12 46 -18 87 36 175c52 87 209 152 303 151
c-68 24 -119 64 -119 109v6c5 51 35 97 90 138s113 70 173 85c61 16 113 24 156 24c74 0 128 -15 163 -44c22 -19 33 -38 33 -59c0 -28 -17 -55 -51 -81s-75 -44 -123 -55c-24 -5 -40 -6 -40 2c0 7 11 12 32 14c43 5 82 33 103 69c25 44 27 76 -4 104c-21 18 -55 27 -102 27
c-92 0 -197 -27 -281 -92c-51 -39 -76 -82 -76 -129c-5 -60 65 -90 137 -100c51 -9 76 -23 76 -40c0 -15 -14 -23 -43 -23z" />
    <glyph glyph-name="Igrave" unicode="&#xcc;" horiz-adv-x="906" 
d="M1168 704c23 0 34 -10 34 -31c0 -26 -14 -44 -43 -55c-23 -9 -49 -16 -76 -21c-45 -84 -86 -191 -123 -322c-13 -45 -32 -96 -58 -152c-26 -55 -57 -106 -93 -153c-133 -170 -302 -255 -509 -255c-96 0 -172 21 -229 63c-39 28 -64 65 -77 112c-9 32 -14 84 13 155
c14 36 36 68 67 95c31 28 55 43 73 44c7 0 11 -1 12 -2c2 -3 -2 -7 -11 -12c-21 -9 -44 -28 -69 -58c-39 -47 -59 -100 -59 -159c0 -45 14 -83 43 -115c36 -40 87 -67 154 -82c29 -7 51 -10 66 -10c31 0 59 -2 112 11c55 14 108 37 159 68c101 63 169 134 230 223
c52 75 91 148 118 221c47 123 97 231 150 323c-106 -22 -190 -47 -253 -74c-64 -27 -113 -59 -148 -94c-45 -44 -73 -94 -86 -150c-4 -16 -6 -31 -6 -44c0 -56 37 -94 72 -94c36 0 81 15 110 52c22 27 33 60 33 97c0 19 -3 30 -8 35c-1 2 -1 5 2 9c7 10 13 10 19 0
c17 -33 19 -72 -6 -119c-23 -43 -55 -72 -98 -88c-21 -8 -44 -12 -69 -12c-24 0 -50 11 -78 33s-42 53 -42 92c0 12 1 25 4 39c38 171 228 286 570 344c6 13 17 28 32 47c32 37 53 39 68 39zM1100 622c45 9 67 22 65 38c-1 8 -6 12 -14 12c-7 0 -24 -17 -51 -50zM1227 747
c0 -5 -3 -8 -9 -8c-3 0 -22 9 -58 28c-35 19 -54 29 -57 30c-21 11 -31 23 -31 36s5 19 16 19c7 0 32 -17 75 -50s64 -52 64 -55z" />
    <glyph glyph-name="Iacute" unicode="&#xcd;" horiz-adv-x="906" 
d="M1120 637l-42 -9c-45 -84 -86 -191 -123 -322c-13 -45 -32 -96 -58 -152c-26 -55 -57 -106 -93 -153c-133 -170 -302 -255 -509 -255c-96 0 -172 21 -229 62c-39 29 -64 66 -77 112c-9 33 -14 85 13 156c14 36 36 68 67 95c31 28 55 43 73 44c7 0 11 -1 12 -3
c2 -3 -2 -6 -11 -11c-21 -9 -44 -28 -69 -59c-39 -47 -59 -99 -59 -158c0 -45 14 -83 43 -115c36 -40 87 -67 153 -82c29 -7 52 -10 67 -10c31 0 59 -2 112 11c55 14 108 37 159 68c101 63 169 134 230 222c52 75 91 149 118 222c47 123 97 231 150 323
c-106 -22 -190 -46 -253 -73c-64 -28 -114 -59 -149 -94c-44 -45 -72 -95 -85 -151c-4 -16 -6 -31 -6 -44c0 -56 37 -94 72 -94c36 0 80 15 111 52c21 27 32 60 32 97c0 19 -3 30 -8 35c-1 2 -1 5 2 9c7 10 13 10 19 0c17 -33 19 -72 -6 -119c-23 -43 -55 -72 -98 -88
c-21 -8 -44 -12 -69 -12c-24 0 -50 11 -78 33s-42 53 -42 92c0 12 1 25 4 39c38 171 228 286 570 344c6 13 17 28 32 47c32 37 53 39 68 39c22 0 33 -9 34 -28c0 -20 -8 -35 -24 -46c-15 -9 -32 -17 -53 -24zM1095 653c45 9 67 22 65 38c-1 8 -6 12 -14 12
c-7 0 -24 -17 -51 -50zM1039 739c-1 0 -6 2 -6 6c0 3 1 5 2 7s11 10 28 23c18 13 37 27 58 41c41 29 55 43 72 43c34 0 39 -18 32 -31c-3 -8 -33 -25 -90 -51c-57 -25 -89 -38 -96 -38z" />
    <glyph glyph-name="Icircumflex" unicode="&#xce;" horiz-adv-x="906" 
d="M1120 637l-42 -9c-45 -84 -86 -191 -123 -322c-13 -45 -32 -96 -58 -152c-26 -55 -57 -106 -93 -153c-133 -170 -302 -255 -509 -255c-96 0 -172 21 -229 62c-39 29 -64 66 -77 112c-9 33 -14 85 13 156c14 36 36 68 67 95c31 28 55 43 73 44c7 0 11 -1 12 -3
c2 -3 -2 -6 -11 -11c-21 -9 -44 -28 -69 -59c-39 -47 -59 -99 -59 -158c0 -45 14 -83 43 -115c36 -40 87 -67 153 -82c29 -7 52 -10 67 -10c31 0 59 -2 112 11c55 14 108 37 159 68c101 63 169 134 230 222c52 75 91 149 118 222c47 123 97 231 150 323
c-106 -22 -190 -46 -253 -73c-64 -28 -114 -59 -149 -94c-44 -45 -72 -95 -85 -151c-4 -16 -6 -31 -6 -44c0 -56 37 -94 72 -94c36 0 80 15 111 52c21 27 32 60 32 97c0 19 -3 30 -8 35c-1 2 -1 5 2 9c7 10 13 10 19 0c17 -33 19 -72 -6 -119c-23 -43 -55 -72 -98 -88
c-21 -8 -44 -12 -69 -12c-24 0 -50 11 -78 33s-42 53 -42 92c0 12 1 25 4 39c38 171 228 286 570 344c6 13 17 28 32 47c32 37 53 39 68 39c22 0 33 -9 34 -28c0 -20 -8 -35 -24 -46c-15 -9 -32 -17 -53 -24zM1095 653c45 9 67 22 65 38c-1 8 -6 12 -14 12
c-7 0 -24 -17 -51 -50zM1173 812l-132 -71c-19 -13 -35 -2 -25 0l149 106c24 4 38 4 38 0l36 -106c1 -1 1 -2 1 -4c0 -3 -17 -4 -21 4z" />
    <glyph glyph-name="Idieresis" unicode="&#xcf;" horiz-adv-x="906" 
d="M1120 637l-42 -9c-45 -84 -86 -191 -123 -322c-13 -45 -32 -96 -58 -152c-26 -55 -57 -106 -93 -153c-133 -170 -302 -255 -509 -255c-96 0 -172 21 -229 62c-39 29 -64 66 -77 112c-9 33 -14 85 13 156c14 36 36 68 67 95c31 28 55 43 73 44c7 0 11 -1 12 -3
c2 -3 -2 -6 -11 -11c-21 -9 -44 -28 -69 -59c-39 -47 -59 -99 -59 -158c0 -45 14 -83 43 -115c36 -40 87 -67 153 -82c29 -7 52 -10 67 -10c31 0 59 -2 112 11c55 14 108 37 159 68c101 63 169 134 230 222c52 75 91 149 118 222c47 123 97 231 150 323
c-106 -22 -190 -46 -253 -73c-64 -28 -114 -59 -149 -94c-44 -45 -72 -95 -85 -151c-4 -16 -6 -31 -6 -44c0 -56 37 -94 72 -94c36 0 80 15 111 52c21 27 32 60 32 97c0 19 -3 30 -8 35c-1 2 -1 5 2 9c7 10 13 10 19 0c17 -33 19 -72 -6 -119c-23 -43 -55 -72 -98 -88
c-21 -8 -44 -12 -69 -12c-24 0 -50 11 -78 33s-42 53 -42 92c0 12 1 25 4 39c38 171 228 286 570 344c6 13 17 28 32 47c32 37 53 39 68 39c22 0 33 -9 34 -28c0 -20 -8 -35 -24 -46c-15 -9 -32 -17 -53 -24zM1095 653c45 9 67 22 65 38c-1 8 -6 12 -14 12
c-7 0 -24 -17 -51 -50zM1234 844c44 0 45 -66 1 -66c-43 -4 -43 69 -1 66zM1105 844c44 0 45 -66 1 -66c-43 -4 -43 69 -1 66z" />
    <glyph glyph-name="Eth" unicode="&#xd0;" horiz-adv-x="1027" 
d="M694 -38c-16 0 -32 1 -48 3c-103 13 -193 36 -271 71c-62 -50 -131 -75 -206 -75c-86 0 -139 24 -159 72c-9 23 -15 53 16 88c24 27 57 41 100 41c29 0 57 -5 86 -16c29 -10 81 -35 155 -74c45 43 93 113 146 208l-82 -9c-15 -2 -28 48 0 48c38 0 72 0 103 -1
c21 42 46 89 75 141s49 85 59 99c27 40 53 75 79 105c-75 45 -154 67 -238 67c-35 0 -70 -4 -106 -11c-103 -22 -182 -67 -236 -135c-33 -41 -50 -81 -50 -118c0 -51 24 -84 73 -99c48 -11 83 -15 134 27c29 29 45 57 47 82c1 12 23 8 20 -9c-7 -49 -32 -86 -77 -111
c-27 -15 -55 -22 -82 -22l-52 9c-51 17 -84 50 -100 97c-7 18 -10 36 -10 54c0 37 14 73 41 109c59 79 163 129 312 151c29 4 58 6 87 6c93 0 181 -22 265 -66l25 29c9 8 24 19 43 32c29 20 49 30 62 30c21 -1 -15 -22 -40 -48l-47 -68c71 -47 126 -108 163 -182
c30 -59 45 -124 45 -194c0 -87 -23 -157 -68 -211c-37 -45 -84 -78 -139 -98c-41 -15 -82 -22 -125 -22zM691 464l-90 -148l50 -1c11 -1 18 -5 21 -13c-1 -8 -7 -13 -17 -14c-19 0 -43 -1 -74 -2c-71 -112 -132 -189 -182 -232c73 -33 155 -53 246 -62c11 -1 23 -2 34 -2
c69 0 129 21 180 64c59 50 93 111 101 183c2 17 3 33 3 49c0 61 -12 119 -36 173c-30 69 -74 126 -133 172c-24 -37 -58 -92 -103 -167zM341 52c-78 37 -127 60 -148 67s-41 11 -61 11c-19 0 -35 -7 -47 -22c-23 -29 -20 -52 -9 -73c14 -29 43 -43 86 -43
c64 0 124 20 179 60z" />
    <glyph glyph-name="Ntilde" unicode="&#xd1;" horiz-adv-x="1039" 
d="M427 335c0 43 -22 64 -67 64c-17 0 -40 -3 -28 9c6 8 26 12 59 12c34 0 56 -15 67 -44c5 -11 7 -23 7 -36c0 -29 -11 -61 -32 -98c-36 -60 -86 -103 -149 -128c-33 -13 -69 -20 -109 -20c-79 0 -151 56 -171 155c-2 13 -3 26 -3 41c0 40 11 86 32 139s57 104 107 153
c95 93 195 151 300 173c59 12 102 10 133 6c41 -6 74 -26 97 -59c19 -26 28 -59 28 -99c0 -72 -23 -123 -28 -139l-15 -35l-13 -31c-2 -5 -7 -17 -16 -36c-28 -61 -41 -91 -40 -92l31 50c41 63 85 123 132 180c88 107 167 176 237 208c39 19 74 28 103 28
c59 0 103 -26 103 -95s-45 -162 -130 -317c-84 -155 -151 -281 -151 -380c0 -17 2 -33 7 -47c9 -31 27 -46 54 -46c29 0 65 22 81 22c8 0 12 -4 12 -13c0 -17 -34 -34 -50 -34c-107 0 -160 46 -160 139c0 34 6 68 17 103c12 35 54 127 125 277s110 245 116 284
c1 6 2 12 2 17c0 28 -16 42 -49 42c-22 0 -47 -7 -75 -22c-105 -50 -204 -146 -299 -287c-56 -83 -120 -202 -191 -355l-41 -88c-9 -19 -28 -29 -56 -29c-17 0 -26 5 -27 16c-1 2 -1 4 0 7c32 47 77 135 134 262c58 128 98 239 119 334c13 63 13 111 0 146
c-14 35 -38 56 -71 61c-10 1 -24 2 -42 2c-36 0 -112 -17 -201 -73c-101 -63 -174 -144 -219 -245c-25 -55 -37 -105 -37 -151c0 -23 3 -45 9 -66c22 -55 61 -84 116 -87c69 0 129 29 180 86c41 46 62 91 62 136zM1152 847c3 4 17 4 17 -1c0 -45 -26 -67 -77 -67
c-13 0 -31 5 -54 15c-49 23 -75 26 -94 -10c-1 -4 -7 -4 -16 -1l-3 3c23 41 49 62 77 62c11 0 29 -5 52 -14c52 -21 79 -26 98 13z" />
    <glyph glyph-name="Ograve" unicode="&#xd2;" horiz-adv-x="784" 
d="M711 748c0 -6 -3 -9 -9 -9c-4 0 -25 10 -62 29l-61 33c-22 11 -33 24 -33 38s6 21 17 21c8 0 35 -18 80 -54c45 -35 68 -55 68 -58zM524 5c-73 -57 -148 -85 -224 -85c-80 0 -138 30 -174 89c-53 87 -50 198 -11 303c-47 31 -72 73 -77 126c-1 10 -2 20 -2 30
c0 80 34 147 103 201c73 57 160 86 260 86s183 -28 248 -84c66 -55 99 -135 99 -238v-20c67 44 110 86 130 126c12 20 31 4 15 -11c-39 -62 -89 -112 -149 -150c-3 -31 -11 -69 -26 -113c-28 -88 -100 -189 -192 -260zM687 434c0 113 -36 196 -108 250
c-48 36 -104 54 -168 54c-19 0 -38 -2 -57 -5c-81 -12 -148 -46 -199 -101c-43 -48 -65 -102 -65 -163c0 -53 14 -91 43 -116c26 55 64 111 115 168c55 62 114 100 176 114c19 4 51 9 92 -16c14 -8 8 -19 -12 -13c-7 3 -18 4 -34 4c-31 0 -96 -31 -156 -99
c-59 -67 -103 -131 -130 -192c42 -19 92 -29 151 -29c26 0 54 2 83 6c95 12 184 40 267 85c1 18 2 36 2 53zM679 346c-111 -59 -229 -89 -352 -89c-60 0 -113 9 -158 27c-21 -54 -31 -101 -31 -140c0 -92 28 -152 83 -179c60 -28 120 -28 177 -1c58 26 110 67 157 124
s82 119 106 187c9 27 15 50 18 71z" />
    <glyph glyph-name="Oacute" unicode="&#xd3;" horiz-adv-x="784" 
d="M524 5c-73 -57 -148 -85 -224 -85c-80 0 -138 30 -174 89c-53 87 -50 198 -11 303c-47 31 -72 73 -77 126c-1 10 -2 20 -2 30c0 80 34 147 103 201c73 57 160 86 260 86s183 -28 248 -84c66 -55 99 -135 99 -238v-20c67 44 110 86 130 126c12 20 31 4 15 -11
c-39 -62 -89 -112 -149 -150c-3 -31 -11 -69 -26 -113c-28 -88 -100 -189 -192 -260zM687 434c0 113 -36 196 -108 250c-48 36 -104 54 -168 54c-19 0 -38 -2 -57 -5c-81 -12 -148 -46 -199 -101c-43 -48 -65 -102 -65 -163c0 -53 14 -91 43 -116c26 55 64 111 115 168
c55 62 114 100 176 114c19 4 51 9 92 -16c14 -8 8 -19 -12 -13c-7 3 -18 4 -34 4c-31 0 -96 -31 -156 -99c-59 -67 -103 -131 -130 -192c42 -19 92 -29 151 -29c26 0 54 2 83 6c95 12 184 40 267 85c1 18 2 36 2 53zM679 346c-111 -59 -229 -89 -352 -89
c-60 0 -113 9 -158 27c-21 -54 -31 -101 -31 -140c0 -92 28 -152 83 -179c60 -28 120 -28 177 -1c58 26 110 67 157 124s82 119 106 187c9 27 15 50 18 71zM610 739c-1 0 -6 2 -6 6c0 3 1 5 2 7s11 10 28 23c18 13 37 27 58 41c41 29 55 43 72 43c34 0 39 -18 32 -31
c-3 -8 -33 -25 -90 -51c-57 -25 -89 -38 -96 -38z" />
    <glyph glyph-name="Ocircumflex" unicode="&#xd4;" horiz-adv-x="784" 
d="M673 840l30 -88c1 -3 0 -4 -4 -4c-6 0 -10 1 -13 4l-38 59l-109 -59c-5 -5 -12 -6 -19 -4c-1 1 -2 3 -1 4l123 88c20 3 31 3 31 0zM524 5c-73 -57 -148 -85 -224 -85c-80 0 -138 30 -174 89c-53 87 -50 198 -11 303c-47 31 -72 73 -77 126c-1 10 -2 20 -2 30
c0 80 34 147 103 201c73 57 160 86 260 86s183 -28 248 -84c66 -55 99 -135 99 -238v-20c67 44 110 86 130 126c12 20 31 4 15 -11c-39 -62 -89 -112 -149 -150c-3 -31 -11 -69 -26 -113c-28 -88 -100 -189 -192 -260zM687 434c0 113 -36 196 -108 250
c-48 36 -104 54 -168 54c-19 0 -38 -2 -57 -5c-81 -12 -148 -46 -199 -101c-43 -48 -65 -102 -65 -163c0 -53 14 -91 43 -116c26 55 64 111 115 168c55 62 114 100 176 114c19 4 51 9 92 -16c14 -8 8 -19 -12 -13c-7 3 -18 4 -34 4c-31 0 -96 -31 -156 -99
c-59 -67 -103 -131 -130 -192c42 -19 92 -29 151 -29c26 0 54 2 83 6c95 12 184 40 267 85c1 18 2 36 2 53zM679 346c-111 -59 -229 -89 -352 -89c-60 0 -113 9 -158 27c-21 -54 -31 -101 -31 -140c0 -92 28 -152 83 -179c60 -28 120 -28 177 -1c58 26 110 67 157 124
s82 119 106 187c9 27 15 50 18 71z" />
    <glyph glyph-name="Otilde" unicode="&#xd5;" horiz-adv-x="784" 
d="M524 5c-73 -57 -148 -85 -224 -85c-80 0 -138 30 -174 89c-53 87 -50 198 -11 303c-47 31 -72 73 -77 126c-1 10 -2 20 -2 30c0 80 34 147 103 201c73 57 160 86 260 86s183 -28 248 -84c66 -55 99 -135 99 -238v-20c67 44 110 86 130 126c12 20 31 4 15 -11
c-39 -62 -89 -112 -149 -150c-3 -31 -11 -69 -26 -113c-28 -88 -100 -189 -192 -260zM687 434c0 113 -36 196 -108 250c-48 36 -104 54 -168 54c-19 0 -38 -2 -57 -5c-81 -12 -148 -46 -199 -101c-43 -48 -65 -102 -65 -163c0 -53 14 -91 43 -116c26 55 64 111 115 168
c55 62 114 100 176 114c19 4 51 9 92 -16c14 -8 8 -19 -12 -13c-7 3 -18 4 -34 4c-31 0 -96 -31 -156 -99c-59 -67 -103 -131 -130 -192c42 -19 92 -29 151 -29c26 0 54 2 83 6c95 12 184 40 267 85c1 18 2 36 2 53zM679 346c-111 -59 -229 -89 -352 -89
c-60 0 -113 9 -158 27c-21 -54 -31 -101 -31 -140c0 -92 28 -152 83 -179c60 -28 120 -28 177 -1c58 26 110 67 157 124s82 119 106 187c9 27 15 50 18 71zM525 753c0 -4 -9 -3 -13 -3c-4 1 -6 3 -6 5c23 41 48 61 75 61c4 0 13 4 57 -15c44 -17 51 -14 55 -14
c17 0 30 10 39 29c1 4 7 4 15 0l2 -2c-20 -44 -45 -66 -76 -66c-13 0 -31 5 -54 15c-49 23 -74 26 -94 -10z" />
    <glyph glyph-name="Odieresis" unicode="&#xd6;" horiz-adv-x="784" 
d="M672 850c44 0 45 -66 1 -66c-43 -4 -43 69 -1 66zM543 850c44 0 45 -66 1 -66c-43 -4 -43 69 -1 66zM524 5c-73 -57 -148 -85 -224 -85c-80 0 -138 30 -174 89c-53 87 -50 198 -11 303c-47 31 -72 73 -77 126c-1 10 -2 20 -2 30c0 80 34 147 103 201c73 57 160 86 260 86
s183 -28 248 -84c66 -55 99 -135 99 -238v-20c67 44 110 86 130 126c12 20 31 4 15 -11c-39 -62 -89 -112 -149 -150c-3 -31 -11 -69 -26 -113c-28 -88 -100 -189 -192 -260zM687 434c0 113 -36 196 -108 250c-48 36 -104 54 -168 54c-19 0 -38 -2 -57 -5
c-81 -12 -148 -46 -199 -101c-43 -48 -65 -102 -65 -163c0 -53 14 -91 43 -116c26 55 64 111 115 168c55 62 114 100 176 114c19 4 51 9 92 -16c14 -8 8 -19 -12 -13c-7 3 -18 4 -34 4c-31 0 -96 -31 -156 -99c-59 -67 -103 -131 -130 -192c42 -19 92 -29 151 -29
c26 0 54 2 83 6c95 12 184 40 267 85c1 18 2 36 2 53zM679 346c-111 -59 -229 -89 -352 -89c-60 0 -113 9 -158 27c-21 -54 -31 -101 -31 -140c0 -92 28 -152 83 -179c60 -28 120 -28 177 -1c58 26 110 67 157 124s82 119 106 187c9 27 15 50 18 71z" />
    <glyph glyph-name="multiply" unicode="&#xd7;" horiz-adv-x="304" 
d="M260 285l-74 -80l43 -84c-1 -4 -15 -19 -19 -20l-42 85l-74 -80c-3 1 -11 17 -11 21l74 80l-43 84c1 4 15 19 19 20l42 -85l74 80c4 0 11 -16 11 -21z" />
    <glyph glyph-name="Oslash" unicode="&#xd8;" horiz-adv-x="771" 
d="M611 726l48 85l34 -16l-51 -90c78 -58 117 -143 117 -254v-19c67 44 110 86 130 126c12 20 31 4 15 -11c-39 -62 -89 -112 -149 -150c-5 -63 -30 -155 -98 -250c-68 -93 -162 -169 -267 -198c-49 -13 -102 -14 -159 3l-12 5l-42 -75l-32 14l43 78c-43 31 -71 79 -84 144
c-3 20 -5 41 -5 62c0 47 10 98 29 151c-47 31 -72 73 -77 126c-1 10 -2 20 -2 29c0 81 42 166 125 218c76 47 154 71 233 71s147 -16 204 -49zM377 309l219 390c-50 39 -110 58 -179 58c-71 0 -140 -23 -207 -69c-75 -51 -107 -132 -107 -201c0 -52 14 -90 43 -115
c26 55 64 111 115 168c55 62 114 100 175 114c20 4 52 9 93 -16c14 -8 8 -19 -12 -13c-7 3 -18 4 -34 4c-31 0 -96 -31 -156 -99c-59 -67 -103 -131 -130 -192c40 -20 91 -30 152 -30c9 0 19 0 28 1zM401 279l-167 -295c60 -28 119 -28 176 -1c59 27 111 68 158 125
s82 119 106 186c9 27 15 50 18 71c-92 -49 -189 -77 -291 -86zM700 450c0 95 -25 170 -76 223l-204 -360c97 11 190 40 278 87c1 17 2 34 2 50zM152 152c0 -67 18 -117 53 -149l153 273h-18c-61 0 -113 9 -158 27c-20 -49 -30 -99 -30 -151z" />
    <glyph glyph-name="Ugrave" unicode="&#xd9;" horiz-adv-x="942" 
d="M987 482c13 -7 20 -16 20 -29c0 -15 -8 -38 -25 -67c-55 -99 -92 -200 -109 -303c-5 -28 -7 -53 -7 -76c0 -46 12 -69 37 -69h11c12 0 18 -3 18 -8c0 -8 -7 -13 -22 -15h-12c-71 12 -75 110 -72 145c0 38 4 78 13 119c-47 -78 -94 -136 -140 -173
c-43 -35 -84 -52 -123 -52c-28 0 -50 9 -65 27c-40 48 -40 116 1 233c21 59 48 127 82 202c35 75 57 134 67 175c11 41 16 78 16 111c0 49 -13 81 -39 96c-31 17 -67 25 -106 25c-71 0 -146 -23 -227 -70c-119 -70 -200 -158 -242 -265c-35 -89 -32 -163 -7 -223
c28 -68 77 -102 146 -102c81 0 146 41 195 124c27 44 40 83 40 117c0 50 -23 75 -68 75c-11 0 -24 -2 -41 -6c-16 -3 -23 -3 -22 1c2 5 12 12 30 20s36 12 54 12c27 0 48 -12 62 -35c19 -33 20 -78 -3 -139c-25 -67 -69 -119 -130 -156c-91 -56 -176 -54 -240 -5
c-55 42 -82 106 -82 191c0 86 33 170 98 252c53 66 123 123 212 172c77 43 151 64 222 64c37 0 72 -7 104 -20c65 -28 97 -82 97 -161c0 -59 -19 -133 -57 -221c-22 -52 -43 -100 -64 -143c-40 -85 -70 -181 -70 -241c0 -56 19 -84 56 -84c40 0 87 33 141 100l27 37
c27 39 61 100 103 184l65 128c20 35 39 53 56 53zM989 702c0 -6 -3 -9 -10 -9c-4 0 -27 11 -69 33l-68 36c-25 12 -37 26 -37 42s6 24 19 24c9 0 38 -20 89 -60s76 -62 76 -66z" />
    <glyph glyph-name="Uacute" unicode="&#xda;" horiz-adv-x="942" 
d="M539 64c0 -56 19 -84 56 -84c40 0 87 33 141 100l27 37c27 39 61 100 103 184l65 128c20 35 39 53 56 53c19 -9 24 -25 16 -48c-7 -19 -16 -39 -28 -60c-51 -91 -85 -188 -102 -291c-5 -28 -7 -53 -7 -76c0 -46 12 -69 37 -69h11c12 0 18 -3 18 -8c0 -8 -7 -13 -22 -15
h-12c-71 12 -75 110 -72 145c0 38 4 78 13 119c-47 -78 -94 -136 -140 -173c-43 -35 -84 -52 -123 -52c-28 0 -50 9 -65 27c-40 48 -40 116 1 233c21 59 48 127 82 202c35 75 57 134 67 175c11 41 16 78 16 111c0 49 -13 81 -39 96c-31 17 -67 25 -106 25
c-71 0 -146 -23 -227 -70c-119 -70 -200 -158 -242 -265c-35 -89 -32 -163 -7 -223c28 -68 77 -102 146 -102c81 0 146 41 195 124c27 44 40 83 40 117c0 50 -23 75 -68 75c-11 0 -24 -2 -41 -6c-16 -3 -23 -3 -22 1c2 5 12 12 30 20s36 12 54 12c27 0 48 -12 62 -35
c19 -33 20 -78 -3 -139c-25 -67 -69 -119 -130 -156c-91 -56 -176 -54 -240 -5c-55 42 -82 106 -82 191c0 86 33 170 98 252c53 66 123 123 212 172c77 43 151 64 222 64c37 0 72 -7 104 -20c65 -28 97 -82 97 -161c0 -59 -19 -133 -57 -221c-22 -52 -43 -100 -64 -143
c-40 -85 -70 -181 -70 -241zM833 693c-1 0 -6 2 -6 6c0 3 1 5 2 7s11 10 28 23c18 13 37 27 58 41c41 29 55 43 72 43c34 0 39 -18 32 -31c-3 -8 -33 -25 -90 -51c-57 -25 -89 -38 -96 -38z" />
    <glyph glyph-name="Ucircumflex" unicode="&#xdb;" horiz-adv-x="942" 
d="M539 64c0 -56 19 -84 56 -84c40 0 87 33 141 100l27 37c27 39 61 100 103 184l65 128c20 35 39 53 56 53c19 -9 24 -25 16 -48c-7 -19 -16 -39 -28 -60c-51 -91 -85 -188 -102 -291c-5 -28 -7 -53 -7 -76c0 -46 12 -69 37 -69h11c12 0 18 -3 18 -8c0 -8 -7 -13 -22 -15
h-12c-71 12 -75 110 -72 145c0 38 4 78 13 119c-47 -78 -94 -136 -140 -173c-43 -35 -84 -52 -123 -52c-28 0 -50 9 -65 27c-40 48 -40 116 1 233c21 59 48 127 82 202c35 75 57 134 67 175c11 41 16 78 16 111c0 49 -13 81 -39 96c-31 17 -67 25 -106 25
c-71 0 -146 -23 -227 -70c-119 -70 -200 -158 -242 -265c-35 -89 -32 -163 -7 -223c28 -68 77 -102 146 -102c81 0 146 41 195 124c27 44 40 83 40 117c0 50 -23 75 -68 75c-11 0 -24 -2 -41 -6c-16 -3 -23 -3 -22 1c2 5 12 12 30 20s36 12 54 12c27 0 48 -12 62 -35
c19 -33 20 -78 -3 -139c-25 -67 -69 -119 -130 -156c-91 -56 -176 -54 -240 -5c-55 42 -82 106 -82 191c0 86 33 170 98 252c53 66 123 123 212 172c77 43 151 64 222 64c37 0 72 -7 104 -20c65 -28 97 -82 97 -161c0 -59 -19 -133 -57 -221c-22 -52 -43 -100 -64 -143
c-40 -85 -70 -181 -70 -241zM966 812l-132 -71c-19 -13 -35 -2 -25 0l149 106c25 4 37 4 38 0l36 -106c1 -1 1 -2 1 -4c0 -3 -17 -4 -21 4z" />
    <glyph glyph-name="Udieresis" unicode="&#xdc;" horiz-adv-x="942" 
d="M987 482c13 -7 20 -16 20 -29c0 -15 -8 -38 -25 -67c-55 -99 -92 -200 -109 -303c-5 -28 -7 -53 -7 -76c0 -46 12 -69 37 -69h11c12 0 18 -3 18 -8c0 -8 -7 -13 -22 -15h-12c-71 12 -75 110 -72 145c0 38 4 78 13 119c-47 -78 -94 -136 -140 -173
c-43 -35 -84 -52 -123 -52c-28 0 -50 9 -65 27c-40 48 -40 116 1 233c21 59 48 127 82 202c35 75 57 134 67 175c11 41 16 78 16 111c0 49 -13 81 -39 96c-31 17 -67 25 -106 25c-71 0 -146 -23 -227 -70c-119 -70 -200 -158 -242 -265c-35 -89 -32 -163 -7 -223
c28 -68 77 -102 146 -102c81 0 146 41 195 124c27 44 40 83 40 117c0 50 -23 75 -68 75c-11 0 -24 -2 -41 -6c-16 -3 -23 -3 -22 1c2 5 12 12 30 20s36 12 54 12c27 0 48 -12 62 -35c19 -33 20 -78 -3 -139c-25 -67 -69 -119 -130 -156c-91 -56 -176 -54 -240 -5
c-55 42 -82 106 -82 191c0 86 33 170 98 252c53 66 123 123 212 172c77 43 151 64 222 64c37 0 72 -7 104 -20c65 -28 97 -82 97 -161c0 -59 -19 -133 -57 -221c-22 -52 -43 -100 -64 -143c-40 -85 -70 -181 -70 -241c0 -56 19 -84 56 -84c40 0 87 33 141 100l27 37
c27 39 61 100 103 184l65 128c20 35 39 53 56 53zM962 752c44 0 45 -66 1 -66c-43 -4 -43 69 -1 66zM833 752c44 0 45 -66 1 -66c-43 -4 -43 69 -1 66z" />
    <glyph glyph-name="Yacute" unicode="&#xdd;" horiz-adv-x="1006" 
d="M983 483c24 0 25 -32 -2 -145c-13 -57 -35 -133 -68 -230c-32 -97 -65 -175 -99 -236c10 1 28 1 53 2l63 2c33 1 87 9 116 22c35 17 56 41 62 74c-3 17 4 18 7 11c9 -17 12 -34 -9 -69c-11 -18 -32 -33 -63 -46s-113 -21 -244 -22c-64 -96 -168 -172 -277 -213
s-182 -35 -234 -18c-50 17 -75 42 -75 76c0 44 40 83 121 116c103 43 247 64 432 64c65 160 111 289 137 387c-61 -131 -128 -221 -203 -272c-119 -81 -236 -30 -230 72c0 73 49 189 148 350c31 50 55 101 74 152c21 57 32 105 32 146c0 81 -60 113 -135 113
c-15 0 -30 -2 -47 -5c-120 -23 -228 -85 -325 -187c-49 -51 -84 -104 -107 -158c-23 -58 -35 -108 -35 -149c0 -17 2 -33 7 -48c13 -49 40 -82 79 -100c20 -9 41 -13 62 -13c74 0 137 41 189 124c29 47 44 89 44 124c0 46 -21 69 -62 69c-16 0 -46 -9 -47 -1
c-1 5 7 10 23 14s31 6 46 6c35 0 58 -15 70 -44c5 -13 8 -26 8 -41c0 -29 -10 -63 -31 -102c-41 -74 -100 -127 -179 -160c-24 -10 -46 -15 -66 -15c-65 0 -115 23 -152 70c-64 79 -60 186 -11 287c76 156 222 265 367 321c105 41 194 38 262 11c71 -32 97 -90 97 -150
c0 -75 -28 -159 -83 -251c-86 -147 -138 -261 -156 -342c-7 -36 -9 -107 55 -107c27 0 57 12 89 35c38 27 76 70 114 131c63 101 111 205 143 311c4 21 31 34 40 34zM267 -319c0 -5 1 -11 4 -16c14 -23 46 -34 96 -34c51 0 99 8 144 25c92 33 185 99 241 190
c-175 0 -309 -27 -402 -81c-55 -32 -83 -60 -83 -84zM872 643c-1 0 -6 2 -6 6c0 3 1 5 2 7s11 10 28 23c18 13 37 27 58 41c41 29 55 43 72 43c34 0 39 -18 32 -31c-3 -8 -33 -25 -90 -51c-57 -25 -89 -38 -96 -38z" />
    <glyph glyph-name="Thorn" unicode="&#xde;" horiz-adv-x="336" 
d="M568 497c11 -20 17 -37 17 -51c0 -37 -15 -75 -46 -113c-59 -72 -173 -126 -320 -126c-7 0 -15 0 -22 1l-75 -153c-21 -43 -39 -52 -54 -52h-15c-4 0 -31 6 -42 5c12 11 42 59 90 143c48 85 83 150 105 196c49 104 89 207 119 310s45 167 44 193c5 -8 35 -10 40 -15
c28 -25 24 -48 12 -85l-54 -136c88 -15 168 -58 201 -117zM531 442c0 51 -22 90 -66 117c-24 13 -59 25 -105 36l-50 -136c-37 -95 -61 -151 -72 -166l-32 -65c105 3 181 26 244 79c64 53 81 106 81 135z" />
    <glyph glyph-name="germandbls" unicode="&#xdf;" horiz-adv-x="437" 
d="M323 19c9 -1 15 -2 18 -2c27 0 53 16 79 47c14 17 39 61 75 131c1 3 4 5 7 5c6 1 9 -2 9 -7c-3 -8 -11 -26 -26 -58c-16 -30 -29 -57 -52 -81l-21 -22c-11 -11 -25 -19 -40 -24c-25 -8 -49 -9 -72 -2c-15 -7 -29 -10 -41 -10c-47 0 -76 19 -86 56c-4 17 -7 44 9 67
c25 33 65 20 65 -13v-7c0 -33 17 -61 42 -73c29 23 44 58 44 107c0 17 -6 45 -17 85c-14 49 -21 80 -21 91c0 23 9 50 28 69s58 52 86 85s40 83 40 110c0 48 -19 78 -56 91c-11 4 -22 6 -33 6c-22 0 -45 -11 -70 -32c-24 -21 -43 -53 -58 -94s-37 -107 -67 -198
s-54 -163 -73 -216s-42 -109 -69 -168s-55 -106 -86 -142s-68 -69 -110 -98c-47 -32 -93 -48 -137 -48c-57 0 -87 22 -90 66v5c0 36 30 71 63 71c32 0 48 -24 48 -37c-1 -61 -60 -74 -84 -49c7 -19 27 -29 58 -29c7 0 15 1 22 3c120 31 211 141 300 365c23 57 41 106 56 146
c31 83 79 202 142 355c27 52 55 88 86 109c35 23 76 22 129 3s72 -57 72 -110c0 -58 -30 -108 -91 -150c-46 -30 -110 -72 -73 -133c44 -70 66 -122 66 -156c0 -40 -32 -87 -71 -114zM214 53c0 -4 0 -8 1 -13c5 -18 18 -27 37 -27c8 0 15 1 20 4c-25 15 -38 40 -40 75
c-12 -12 -18 -25 -18 -39z" />
    <glyph glyph-name="agrave" unicode="&#xe0;" horiz-adv-x="350" 
d="M279 24c13 0 28 12 47 35c27 34 54 78 81 133c3 6 6 9 9 10c5 2 8 0 8 -6c0 -3 -1 -7 -3 -12c-61 -124 -113 -186 -155 -186c-19 0 -35 9 -47 28c-12 20 -12 53 1 101c-53 -86 -99 -129 -138 -129c-11 0 -20 3 -29 10c-20 14 -30 38 -30 72c0 65 28 132 85 199
c32 37 71 62 118 73c13 3 25 5 36 5c31 0 57 -11 78 -32c13 -15 6 -32 -11 -29c-7 24 -23 36 -48 36c-29 0 -64 -23 -106 -68c-24 -27 -46 -58 -67 -94c-52 -87 -47 -143 -14 -143c40 0 92 61 157 184c25 49 38 64 65 64c5 0 34 -7 45 -4c-12 -12 -29 -39 -51 -82
c-22 -42 -35 -74 -40 -95c-8 -41 -11 -70 9 -70zM322 385c0 -6 -3 -9 -10 -9c-4 0 -27 11 -69 33l-68 36c-25 12 -37 26 -37 42s6 24 19 24c9 0 38 -20 89 -60s76 -62 76 -66z" />
    <glyph glyph-name="aacute" unicode="&#xe1;" horiz-adv-x="350" 
d="M279 24c13 0 28 12 47 35c27 34 54 78 81 133c3 6 6 9 9 10c5 2 8 0 8 -6c0 -3 -1 -7 -3 -12c-61 -124 -113 -186 -155 -186c-19 0 -35 9 -47 28c-12 20 -12 53 1 101c-53 -86 -99 -129 -138 -129c-11 0 -20 3 -29 10c-20 14 -30 38 -30 72c0 65 28 132 85 199
c32 37 71 62 118 73c13 3 25 5 36 5c31 0 57 -11 78 -32c13 -15 6 -32 -11 -29c-7 24 -23 36 -48 36c-29 0 -64 -23 -106 -68c-24 -27 -46 -58 -67 -94c-52 -87 -47 -143 -14 -143c40 0 92 61 157 184c25 49 38 64 65 64c5 0 34 -7 45 -4c-12 -12 -29 -39 -51 -82
c-22 -42 -35 -74 -40 -95c-8 -41 -11 -70 9 -70zM226 376c-1 0 -6 2 -6 6c0 3 1 5 2 7s11 10 28 23c18 13 37 27 58 41c41 29 55 43 72 43c34 0 39 -18 32 -31c-3 -8 -33 -25 -90 -51c-57 -25 -89 -38 -96 -38z" />
    <glyph glyph-name="acircumflex" unicode="&#xe2;" horiz-adv-x="350" 
d="M279 24c13 0 28 12 47 35c27 34 54 78 81 133c3 6 6 9 9 10c5 2 8 0 8 -6c0 -3 -1 -7 -3 -12c-61 -124 -113 -186 -155 -186c-19 0 -35 9 -47 28c-12 20 -12 53 1 101c-53 -86 -99 -129 -138 -129c-11 0 -20 3 -29 10c-20 14 -30 38 -30 72c0 65 28 132 85 199
c32 37 71 62 118 73c13 3 25 5 36 5c31 0 57 -11 78 -32c13 -15 6 -32 -11 -29c-7 24 -23 36 -48 36c-29 0 -64 -23 -106 -68c-24 -27 -46 -58 -67 -94c-52 -87 -47 -143 -14 -143c40 0 92 61 157 184c25 49 38 64 65 64c5 0 34 -7 45 -4c-12 -12 -29 -39 -51 -82
c-22 -42 -35 -74 -40 -95c-8 -41 -11 -70 9 -70zM329 453l-132 -71c-19 -13 -35 -2 -25 0l149 106c24 3 38 3 38 0l36 -106c8 -2 -7 -13 -20 0z" />
    <glyph glyph-name="atilde" unicode="&#xe3;" horiz-adv-x="350" 
d="M279 24c13 0 28 12 47 35c27 34 54 78 81 133c8 19 22 12 14 -8c-61 -124 -113 -186 -155 -186c-19 0 -35 9 -47 28c-12 20 -12 53 1 101c-53 -86 -99 -129 -138 -129c-11 0 -20 3 -29 10c-20 14 -30 38 -30 72c0 65 28 132 85 199c32 37 71 62 118 73c13 3 25 5 36 5
c31 0 57 -11 78 -32c13 -15 6 -32 -11 -29c-7 24 -23 36 -48 36c-29 0 -64 -23 -106 -68c-24 -27 -46 -58 -67 -94c-52 -87 -47 -143 -14 -143c40 0 92 61 157 184c25 49 38 64 65 64c5 0 34 -7 45 -4c-12 -12 -29 -39 -51 -82c-22 -42 -35 -74 -40 -95
c-8 -41 -11 -70 9 -70zM360 384c-15 0 -36 6 -64 18c-63 28 -91 32 -115 -12c-1 -5 -7 -5 -18 -2c-3 1 -5 3 -5 4c28 50 59 75 92 75c15 0 37 -6 65 -18c28 -11 46 -17 53 -18h16c21 0 37 12 48 35c1 2 3 3 6 3c9 0 14 -2 15 -5c-26 -53 -57 -80 -93 -80z" />
    <glyph glyph-name="adieresis" unicode="&#xe4;" horiz-adv-x="350" 
d="M279 24c13 0 28 12 47 35c27 34 54 78 81 133c3 6 6 9 9 10c5 2 8 0 8 -6c0 -3 -1 -7 -3 -12c-61 -124 -113 -186 -155 -186c-19 0 -35 9 -47 28c-12 20 -12 53 1 101c-53 -86 -99 -129 -138 -129c-11 0 -20 3 -29 10c-20 14 -30 38 -30 72c0 65 28 132 85 199
c32 37 71 62 118 73c13 3 25 5 36 5c31 0 57 -11 78 -32c13 -15 6 -32 -11 -29c-7 24 -23 36 -48 36c-29 0 -64 -23 -106 -68c-24 -27 -46 -58 -67 -94c-52 -87 -47 -143 -14 -143c40 0 92 61 157 184c25 49 38 64 65 64c5 0 34 -7 45 -4c-12 -12 -29 -39 -51 -82
c-22 -42 -35 -74 -40 -95c-8 -41 -11 -70 9 -70zM376 492c44 0 45 -66 1 -66c-43 -4 -43 69 -1 66zM247 492c44 0 45 -66 1 -66c-43 -4 -43 69 -1 66z" />
    <glyph glyph-name="aring" unicode="&#xe5;" horiz-adv-x="350" 
d="M279 24c13 0 28 12 47 35c27 34 54 78 81 133c3 6 6 9 9 10c5 2 8 0 8 -6c0 -3 -1 -7 -3 -12c-61 -124 -113 -186 -155 -186c-19 0 -35 9 -47 28c-12 20 -12 53 1 101c-53 -86 -99 -129 -138 -129c-11 0 -20 3 -29 10c-20 14 -30 38 -30 72c0 65 28 132 85 199
c32 37 71 62 118 73c13 3 25 5 36 5c31 0 57 -11 78 -32c13 -15 6 -32 -11 -29c-7 24 -23 36 -48 36c-29 0 -64 -23 -106 -68c-24 -27 -46 -58 -67 -94c-52 -87 -47 -143 -14 -143c40 0 92 61 157 184c25 49 38 64 65 64c5 0 34 -7 45 -4c-12 -12 -29 -39 -51 -82
c-22 -42 -35 -74 -40 -95c-8 -41 -11 -70 9 -70zM342 493c6 49 -61 45 -62 -2c-1 -21 11 -37 28 -37s31 18 34 39zM356 455c-50 -39 -116 -8 -111 28c0 17 7 32 22 43c35 25 74 24 95 5s23 -53 -6 -76z" />
    <glyph glyph-name="ae" unicode="&#xe6;" horiz-adv-x="436" 
d="M293 154c-31 -63 -20 -135 33 -137c61 0 116 57 165 171c5 11 10 15 17 14c3 -1 4 -2 4 -5s-8 -20 -23 -53c-15 -32 -30 -58 -45 -78c-34 -47 -76 -70 -126 -70c-21 0 -41 6 -59 19c-27 19 -40 48 -40 88c0 8 0 16 1 24c-53 -86 -99 -129 -138 -129c-11 0 -20 3 -29 10
c-20 14 -30 38 -30 72c0 65 28 132 85 199c32 37 71 62 118 73c13 3 25 5 36 5c31 0 57 -11 78 -32l3 -4c33 24 62 36 87 36c15 0 28 -4 40 -13c11 -9 17 -20 17 -32c0 -39 -24 -77 -72 -114c-15 -11 -35 -22 -62 -31c-26 -9 -46 -13 -60 -13zM325 306c-8 17 -22 26 -43 26
c-30 0 -66 -23 -107 -68c-24 -27 -46 -58 -67 -94c-52 -87 -47 -143 -14 -143c40 0 92 61 157 184c19 37 44 68 74 95zM460 314c0 13 -5 20 -16 20c-19 0 -47 -23 -85 -69c-11 -13 -23 -31 -37 -52l-21 -42c24 1 72 17 104 44c37 31 55 64 55 99z" />
    <glyph glyph-name="ccedilla" unicode="&#xe7;" horiz-adv-x="260" 
d="M241 230c47 56 43 100 11 100c-31 0 -67 -29 -107 -86c-13 -18 -25 -42 -37 -71s-18 -56 -18 -80c0 -47 19 -79 59 -79c41 0 75 19 106 60c16 21 28 39 36 53s19 35 33 63c9 19 17 11 17 4c0 -3 -4 -13 -13 -32c-17 -36 -31 -64 -62 -104c-27 -37 -64 -57 -111 -61l2 -4
l-13 -9c-21 -14 -31 -23 -31 -26c25 4 69 9 120 -16c25 -13 38 -32 38 -58c0 -27 -17 -52 -52 -75c-17 -11 -39 -17 -67 -17s-58 4 -89 12c-31 7 -46 19 -46 34c0 9 6 11 21 -4c16 -17 46 -25 91 -25s76 12 91 36c19 28 22 63 -9 83s-67 19 -99 3s-30 -14 -38 -7
c-4 3 -6 6 -6 10c0 3 3 8 8 15c6 6 27 22 64 47h-1c-75 0 -105 43 -105 91c0 29 7 61 21 96c15 35 31 65 50 90c39 53 83 79 134 79c49 0 70 -27 70 -58c0 -23 -9 -42 -28 -58c-19 -17 -31 -15 -40 -6z" />
    <glyph glyph-name="egrave" unicode="&#xe8;" horiz-adv-x="246" 
d="M101 154c-9 -23 -14 -48 -14 -76c0 -37 17 -61 48 -61c61 0 116 57 165 171c5 11 10 15 17 14c3 -1 4 -2 4 -5s-8 -20 -23 -53c-15 -32 -30 -58 -45 -78c-34 -47 -76 -70 -126 -70c-53 0 -96 37 -96 97c0 87 70 213 165 253c31 13 59 14 83 -2c11 -9 17 -20 17 -31
c0 -40 -24 -78 -72 -115c-15 -11 -35 -22 -62 -31s-47 -13 -61 -13zM269 314c0 13 -5 20 -16 20c-19 0 -47 -23 -85 -69c-23 -28 -43 -59 -60 -94c23 0 74 17 106 44c37 31 55 64 55 99zM287 385c0 -6 -3 -9 -10 -9c-4 0 -27 11 -69 33l-68 36c-25 13 -37 27 -37 42
c0 16 6 24 19 24c9 0 38 -20 89 -60s76 -62 76 -66z" />
    <glyph glyph-name="eacute" unicode="&#xe9;" horiz-adv-x="246" 
d="M101 154c-9 -23 -14 -48 -14 -76c0 -37 17 -61 48 -61c61 0 116 57 165 171c5 11 10 15 17 14c4 -2 4 -7 1 -15c-28 -61 -50 -101 -65 -121c-34 -47 -76 -70 -126 -70c-53 0 -96 37 -96 97c0 87 70 213 165 253c31 13 59 14 83 -2c11 -9 17 -20 17 -31
c0 -40 -24 -78 -72 -115c-15 -11 -35 -22 -62 -31s-47 -13 -61 -13zM269 314c0 13 -5 20 -16 20c-19 0 -47 -23 -85 -69c-23 -28 -43 -59 -60 -94c23 0 74 17 106 44c37 31 55 64 55 99zM211 376c-1 0 -6 2 -6 6c0 3 1 5 2 7s11 10 28 23c18 13 37 27 58 41
c41 29 55 43 72 43c34 0 39 -18 32 -31c-3 -8 -33 -25 -90 -51c-57 -25 -89 -38 -96 -38z" />
    <glyph glyph-name="ecircumflex" unicode="&#xea;" horiz-adv-x="246" 
d="M101 154c-9 -23 -14 -48 -14 -76c0 -37 17 -61 48 -61c61 0 116 57 165 171c5 11 10 15 17 14c4 -2 4 -7 1 -15c-28 -61 -50 -101 -65 -121c-34 -47 -76 -70 -126 -70c-53 0 -96 37 -96 97c0 87 70 213 165 253c31 13 59 14 83 -2c11 -9 17 -20 17 -31
c0 -40 -24 -78 -72 -115c-15 -11 -35 -22 -62 -31s-47 -13 -61 -13zM269 314c0 13 -5 20 -16 20c-19 0 -47 -23 -85 -69c-23 -28 -43 -59 -60 -94c23 0 74 17 106 44c37 31 55 64 55 99zM299 453l-132 -71c-19 -13 -35 -2 -25 0l149 106c24 3 38 3 38 0l36 -106
c8 -2 -7 -13 -20 0z" />
    <glyph glyph-name="edieresis" unicode="&#xeb;" horiz-adv-x="246" 
d="M101 154c-9 -23 -14 -48 -14 -76c0 -37 17 -61 48 -61c61 0 116 57 165 171c5 11 10 15 17 14c4 -2 4 -7 1 -15c-28 -61 -50 -101 -65 -121c-34 -47 -76 -70 -126 -70c-53 0 -96 37 -96 97c0 87 70 213 165 253c31 13 59 14 83 -2c11 -9 17 -20 17 -31
c0 -40 -24 -78 -72 -115c-15 -11 -35 -22 -62 -31s-47 -13 -61 -13zM269 314c0 13 -5 20 -16 20c-19 0 -47 -23 -85 -69c-23 -28 -43 -59 -60 -94c23 0 74 17 106 44c37 31 55 64 55 99zM322 473c44 0 45 -66 1 -66c-43 -4 -43 69 -1 66zM193 473c44 0 45 -66 1 -66
c-43 -4 -43 69 -1 66z" />
    <glyph glyph-name="igrave" unicode="&#xec;" horiz-adv-x="168" 
d="M25 130l87 166c13 25 21 39 25 42c4 4 14 6 29 6h51l-10 -8c-12 -8 -21 -17 -27 -28c-51 -83 -86 -148 -104 -194c-12 -26 -18 -47 -18 -64c0 -19 11 -28 32 -28l39 19c27 26 58 76 94 151c5 10 10 13 14 9c4 -3 6 -5 -6 -30l-15 -30c-4 -8 -12 -23 -25 -45
c-12 -22 -23 -39 -33 -50c-19 -21 -49 -46 -86 -46c-60 0 -76 78 -47 130zM237 385c0 -6 -3 -9 -10 -9c-4 0 -27 11 -69 33l-68 36c-25 12 -37 26 -37 42s6 24 19 24c9 0 38 -20 89 -60s76 -62 76 -66z" />
    <glyph glyph-name="iacute" unicode="&#xed;" horiz-adv-x="168" 
d="M25 130l87 166c13 25 21 39 25 42c4 4 14 6 29 6h51l-10 -8c-12 -8 -21 -17 -27 -28c-51 -83 -86 -148 -104 -194c-12 -26 -18 -47 -18 -64c0 -19 11 -28 32 -28l39 19c27 26 58 76 94 151c11 20 24 11 9 -18l-16 -33c-4 -8 -12 -23 -25 -45c-12 -22 -23 -39 -33 -50
c-19 -21 -49 -46 -86 -46c-60 0 -76 78 -47 130zM160 376c-1 0 -6 2 -6 6c0 3 1 5 2 7s11 10 28 23c18 13 37 27 58 41c41 29 55 43 72 43c34 0 39 -18 32 -31c-3 -8 -33 -25 -90 -51c-57 -25 -89 -38 -96 -38z" />
    <glyph glyph-name="icircumflex" unicode="&#xee;" horiz-adv-x="168" 
d="M25 130l87 166c13 25 21 39 25 42c4 4 14 6 29 6h51l-10 -8c-12 -8 -21 -17 -27 -28c-51 -83 -86 -148 -104 -194c-12 -26 -18 -47 -18 -64c0 -19 11 -28 32 -28l39 19c27 26 58 76 94 151c11 20 24 11 9 -18l-16 -33c-4 -8 -12 -23 -25 -45c-12 -22 -23 -39 -33 -50
c-19 -21 -49 -46 -86 -46c-60 0 -76 78 -47 130zM246 453l-132 -71c-19 -13 -35 -2 -25 0l149 106c24 3 38 3 38 0l36 -106c8 -2 -7 -13 -20 0z" />
    <glyph glyph-name="idieresis" unicode="&#xef;" horiz-adv-x="168" 
d="M25 130l87 166c13 25 21 39 25 42c4 4 14 6 29 6h51l-10 -8c-12 -8 -21 -17 -27 -28c-51 -83 -86 -148 -104 -194c-12 -26 -18 -47 -18 -64c0 -19 11 -28 32 -28l39 19c27 26 58 76 94 151c11 20 24 11 9 -18l-16 -33c-4 -8 -12 -23 -25 -45c-12 -22 -23 -39 -33 -50
c-19 -21 -49 -46 -86 -46c-60 0 -76 78 -47 130zM268 462c44 0 45 -66 1 -66c-43 -4 -43 69 -1 66zM139 462c44 0 45 -66 1 -66c-43 -4 -43 69 -1 66z" />
    <glyph glyph-name="eth" unicode="&#xf0;" horiz-adv-x="388" 
d="M142 598l-36 -4c-7 0 -11 2 -11 7c0 14 22 21 65 21c44 0 81 -16 111 -47l78 42c11 6 19 5 25 -2c1 -11 21 -1 -83 -66c29 -43 44 -101 44 -173c0 -97 -24 -185 -71 -266c-28 -47 -61 -80 -98 -99c-21 -11 -43 -16 -66 -16c-44 0 -64 47 -64 94c0 67 28 127 84 179
c38 36 76 54 114 54c35 0 54 -22 54 -57v-15c7 33 11 64 11 94c0 68 -15 128 -45 179c-11 -7 -25 -18 -44 -32l-32 -23c-8 -6 -48 27 -22 43l76 42c-25 30 -55 45 -90 45zM248 160c17 31 26 64 26 99s-12 53 -35 53c-26 0 -53 -19 -81 -56c-52 -69 -78 -139 -78 -209
c0 -27 9 -40 28 -40c38 0 85 51 140 153z" />
    <glyph glyph-name="ntilde" unicode="&#xf1;" 
d="M359 328c-82 -144 -123 -238 -123 -282c0 -17 6 -26 19 -26c34 0 80 58 137 173c8 19 23 11 14 -9c-35 -71 -65 -121 -90 -148c-48 -53 -103 -49 -128 -12c-7 9 -10 20 -10 35s3 34 10 55s25 56 55 104c7 12 11 21 11 28s-6 11 -17 11s-33 -15 -65 -45
c-48 -44 -94 -110 -139 -198c-4 -7 -9 -11 -14 -13c-5 -1 -14 -2 -29 -3s-24 -2 -29 -5c11 21 32 65 63 131c56 117 93 183 110 200c8 8 19 12 33 12c5 0 34 -7 45 -4c-25 -13 -65 -76 -121 -188c31 39 60 69 85 92c26 23 57 45 93 64c36 20 62 30 79 30c4 0 8 -1 11 -2z
M344 409c-15 0 -36 6 -64 18c-63 28 -91 32 -115 -12c-1 -5 -7 -5 -18 -2c-3 1 -5 3 -5 4c28 50 59 75 92 75c15 0 37 -6 65 -18c28 -11 46 -17 53 -18h16c21 0 37 12 48 35c1 2 3 3 6 3c9 0 14 -2 15 -5c-26 -53 -57 -80 -93 -80z" />
    <glyph glyph-name="ograve" unicode="&#xf2;" 
d="M239 350c49 0 73 -31 73 -92c0 -28 -7 -58 -22 -90c-19 -43 -47 -83 -84 -118c9 -17 24 -25 47 -25c18 0 35 9 51 27c40 41 54 74 62 89c4 7 9 18 15 31c13 28 12 30 19 30c7 1 10 -2 10 -7c0 -2 -1 -4 -2 -7l-6 -14l-9 -20c-4 -8 -16 -34 -24 -46
c-7 -12 -21 -36 -32 -48c-9 -12 -26 -29 -39 -37c-17 -10 -32 -15 -47 -15c-27 0 -49 9 -64 26c-31 -23 -59 -34 -85 -34c-49 0 -73 31 -73 92c0 28 7 58 22 90c20 47 48 86 84 119c37 33 71 49 104 49zM250 319c-36 0 -91 -51 -130 -134c-47 -96 -47 -164 0 -164
c17 0 35 9 56 27c-11 15 -16 32 -16 49c1 29 13 43 35 43c32 0 31 -30 28 -41c11 17 24 40 39 71c17 34 25 67 25 100s-12 49 -37 49zM308 385c0 -6 -3 -9 -10 -9c-4 0 -27 11 -69 33l-68 36c-25 12 -37 26 -37 42s6 24 19 24c9 0 38 -20 89 -60s76 -62 76 -66z" />
    <glyph glyph-name="oacute" unicode="&#xf3;" 
d="M239 350c49 0 73 -31 73 -92c0 -28 -7 -58 -22 -90c-19 -43 -47 -83 -84 -118c9 -17 24 -25 47 -25c18 0 35 9 51 27c20 21 34 39 43 54c17 32 22 39 34 66c13 28 12 30 19 30c8 1 12 -5 8 -14l-6 -14l-9 -20c-4 -8 -16 -34 -24 -46c-7 -12 -21 -36 -32 -48
c-9 -12 -26 -29 -39 -37c-17 -10 -32 -15 -47 -15c-27 0 -49 9 -64 26c-31 -23 -59 -34 -85 -34c-49 0 -73 31 -73 92c0 28 7 58 22 90c20 47 48 86 84 119c37 33 71 49 104 49zM250 319c-36 0 -91 -51 -130 -134c-47 -96 -47 -164 0 -164c17 0 35 9 56 27
c-11 15 -16 32 -16 49c1 29 13 43 35 43c32 0 31 -30 28 -41c11 17 24 40 39 71c17 34 25 67 25 100s-12 49 -37 49zM207 376c-1 0 -6 2 -6 6c0 3 1 5 2 7s11 10 28 23c18 13 37 27 58 41c41 29 55 43 72 43c34 0 39 -18 32 -31c-3 -8 -33 -25 -90 -51
c-57 -25 -89 -38 -96 -38z" />
    <glyph glyph-name="ocircumflex" unicode="&#xf4;" 
d="M239 350c49 0 73 -31 73 -92c0 -28 -7 -58 -22 -90c-19 -43 -47 -83 -84 -118c9 -17 24 -25 47 -25c18 0 35 9 51 27c40 41 54 74 62 89c4 7 9 18 15 31c13 28 12 30 19 30c7 1 10 -2 10 -7c0 -2 -1 -4 -2 -7l-6 -14l-9 -20c-4 -8 -16 -34 -24 -46
c-7 -12 -21 -36 -32 -48c-9 -12 -26 -29 -39 -37c-17 -10 -32 -15 -47 -15c-27 0 -49 9 -64 26c-31 -23 -59 -34 -85 -34c-49 0 -73 31 -73 92c0 28 7 58 22 90c20 47 48 86 84 119c37 33 71 49 104 49zM250 319c-36 0 -91 -51 -130 -134c-47 -96 -47 -164 0 -164
c17 0 35 9 56 27c-11 15 -16 32 -16 49c1 29 13 43 35 43c32 0 31 -30 28 -41c11 17 24 40 39 71c17 34 25 67 25 100s-12 49 -37 49zM302 453l-132 -71c-19 -13 -35 -2 -25 0l149 106c25 3 37 3 38 0l36 -106c8 -2 -7 -13 -20 0z" />
    <glyph glyph-name="otilde" unicode="&#xf5;" 
d="M239 350c49 0 73 -31 73 -92c0 -28 -7 -58 -22 -90c-19 -43 -47 -83 -84 -118c9 -17 24 -25 47 -25c18 0 35 9 51 27c20 21 34 39 43 54c17 32 22 39 34 66c13 28 12 30 19 30c8 1 12 -5 8 -14l-6 -14l-9 -20c-4 -8 -16 -34 -24 -46c-7 -12 -21 -36 -32 -48
c-9 -12 -26 -29 -39 -37c-17 -10 -32 -15 -47 -15c-27 0 -49 9 -64 26c-31 -23 -59 -34 -85 -34c-49 0 -73 31 -73 92c0 28 7 58 22 90c20 47 48 86 84 119c37 33 71 49 104 49zM250 319c-36 0 -91 -51 -130 -134c-47 -96 -47 -164 0 -164c17 0 35 9 56 27
c-11 15 -16 32 -16 49c1 29 13 43 35 43c32 0 31 -30 28 -41c11 17 24 40 39 71c17 34 25 67 25 100s-12 49 -37 49zM333 384c-15 0 -36 6 -64 18c-63 28 -91 32 -115 -12c-1 -5 -7 -5 -18 -2c-3 1 -5 3 -5 4c28 50 59 75 92 75c15 0 37 -6 65 -18c28 -11 46 -17 53 -18h16
c21 0 37 12 48 35c1 2 3 3 6 3c9 0 14 -2 15 -5c-26 -53 -57 -80 -93 -80z" />
    <glyph glyph-name="odieresis" unicode="&#xf6;" 
d="M239 350c49 0 73 -31 73 -92c0 -28 -7 -58 -22 -90c-19 -43 -47 -83 -84 -118c9 -17 24 -25 47 -25c18 0 35 9 51 27c40 41 54 74 62 89c4 7 9 18 15 31c13 28 12 30 19 30c7 1 10 -2 10 -7c0 -2 -1 -4 -2 -7l-6 -14l-9 -20c-4 -8 -16 -34 -24 -46
c-7 -12 -21 -36 -32 -48c-9 -12 -26 -29 -39 -37c-17 -10 -32 -15 -47 -15c-27 0 -49 9 -64 26c-31 -23 -59 -34 -85 -34c-49 0 -73 31 -73 92c0 28 7 58 22 90c20 47 48 86 84 119c37 33 71 49 104 49zM250 319c-36 0 -91 -51 -130 -134c-47 -96 -47 -164 0 -164
c17 0 35 9 56 27c-11 15 -16 32 -16 49c1 29 13 43 35 43c32 0 31 -30 28 -41c11 17 24 40 39 71c17 34 25 67 25 100s-12 49 -37 49zM356 490c44 0 45 -66 1 -66c-43 -4 -43 69 -1 66zM227 490c44 0 45 -66 1 -66c-43 -4 -43 69 -1 66z" />
    <glyph glyph-name="divide" unicode="&#xf7;" horiz-adv-x="401" 
d="M213 251c3 23 25 41 48 41s38 -18 34 -41s-25 -41 -48 -41s-38 18 -34 41zM235 -2c-19 -16 -45 -16 -58 0s-9 42 10 58s45 16 58 0s10 -42 -10 -58zM411 167v-18l-2 -1h-344l-1 1v18l1 1h344z" />
    <glyph glyph-name="oslash" unicode="&#xf8;" 
d="M50 -46l28 49c-33 10 -49 39 -49 87c0 29 7 60 22 92c20 47 48 86 84 119c37 33 71 49 104 49c11 0 22 -2 31 -7l25 44l19 -9l-27 -46c46 -44 29 -178 -81 -282c9 -17 24 -25 47 -25c18 0 35 9 51 27c40 41 54 74 62 89c4 7 9 18 15 31c13 28 12 30 19 30
c7 1 10 -2 10 -7c0 -2 -1 -4 -2 -7l-6 -14l-9 -20c-4 -8 -16 -34 -24 -46c-7 -12 -21 -36 -32 -48c-9 -12 -26 -29 -39 -37c-17 -10 -32 -15 -47 -15c-27 0 -49 9 -64 26c-31 -23 -59 -34 -85 -34h-2h-1l-31 -54zM94 32l162 286h-6c-39 0 -92 -51 -135 -142
c-21 -45 -31 -78 -31 -99s3 -36 10 -45zM223 99c42 62 63 121 63 178c0 13 -4 23 -12 32l-99 -175c9 8 30 9 41 -3c12 -12 10 -21 7 -32zM160 97v11l-49 -86h7c17 0 36 9 58 26c-11 15 -16 32 -16 49z" />
    <glyph glyph-name="ugrave" unicode="&#xf9;" horiz-adv-x="357" 
d="M22 58c0 29 12 63 37 104c-11 0 -14 5 -9 16l18 35c23 43 41 80 56 110c7 14 20 21 39 21h61c-24 -17 -48 -51 -73 -101c-24 -49 -43 -88 -56 -117c-39 -83 -14 -104 8 -104c13 0 30 13 53 40c35 41 85 128 149 261c7 14 20 21 39 21h54c-15 -11 -26 -23 -35 -35
c-8 -12 -19 -33 -34 -64c-40 -80 -62 -133 -67 -159c-2 -9 -3 -18 -3 -26c0 -21 7 -33 22 -34c36 0 80 56 133 167c4 9 8 13 12 11c8 -4 9 -7 -3 -31l-18 -35c-5 -11 -14 -27 -26 -47c-11 -19 -22 -35 -32 -46c-52 -59 -109 -55 -128 -11c-8 20 -9 50 4 95
c-49 -85 -94 -128 -135 -128c-36 0 -57 15 -63 45c-2 3 -3 7 -3 12zM321 385c0 -6 -3 -9 -10 -9c-4 0 -27 11 -69 33l-68 36c-25 13 -37 27 -37 42c0 16 6 24 19 24c9 0 38 -20 89 -60s76 -62 76 -66z" />
    <glyph glyph-name="uacute" unicode="&#xfa;" horiz-adv-x="357" 
d="M22 58c0 29 12 63 37 104c-11 0 -14 5 -9 16l18 35c23 43 41 80 56 110c7 14 20 21 39 21h61c-24 -17 -48 -51 -73 -101c-24 -49 -43 -88 -56 -117c-39 -83 -14 -104 8 -104c13 0 30 13 53 40c35 41 85 128 149 261c7 14 20 21 39 21h54c-15 -11 -26 -23 -35 -35
c-8 -12 -19 -33 -34 -64c-40 -80 -62 -133 -67 -159c-2 -9 -3 -18 -3 -26c0 -21 7 -33 22 -34c36 0 80 56 133 167c8 19 25 13 10 -16c-7 -15 -13 -28 -19 -39c-5 -11 -14 -27 -26 -47c-11 -19 -22 -35 -32 -46c-52 -59 -109 -55 -128 -11c-8 20 -9 50 4 95
c-49 -85 -94 -128 -135 -128c-36 0 -57 15 -63 45c-2 3 -3 7 -3 12zM245 376c-1 0 -6 2 -6 6c0 3 1 5 2 7s11 10 28 23c18 13 37 27 58 41c41 29 55 43 72 43c34 0 39 -18 32 -31c-3 -8 -33 -25 -90 -51c-57 -25 -89 -38 -96 -38z" />
    <glyph glyph-name="ucircumflex" unicode="&#xfb;" horiz-adv-x="357" 
d="M22 58c0 29 12 63 37 104c-11 0 -14 5 -9 16l18 35c23 43 41 80 56 110c7 14 20 21 39 21h61c-24 -17 -48 -51 -73 -101c-24 -49 -43 -88 -56 -117c-39 -83 -14 -104 8 -104c13 0 30 13 53 40c35 41 85 128 149 261c7 14 20 21 39 21h54c-15 -11 -26 -23 -35 -35
c-8 -12 -19 -33 -34 -64c-40 -80 -62 -133 -67 -159c-2 -9 -3 -18 -3 -26c0 -21 7 -33 22 -34c36 0 80 56 133 167c4 9 8 13 12 11c8 -4 9 -7 -3 -31l-18 -35c-5 -11 -14 -27 -26 -47c-11 -19 -22 -35 -32 -46c-52 -59 -109 -55 -128 -11c-8 20 -9 50 4 95
c-49 -85 -94 -128 -135 -128c-36 0 -57 15 -63 45c-2 3 -3 7 -3 12zM326 453l-132 -71c-19 -13 -35 -2 -25 0l149 106c25 4 37 4 38 0l36 -106c8 -2 -7 -13 -20 0z" />
    <glyph glyph-name="udieresis" unicode="&#xfc;" horiz-adv-x="357" 
d="M22 58c0 29 12 63 37 104c-11 0 -14 5 -9 16l18 35c23 43 41 80 56 110c7 14 20 21 39 21h61c-24 -17 -48 -51 -73 -101c-24 -49 -43 -88 -56 -117c-39 -83 -14 -104 8 -104c13 0 30 13 53 40c35 41 85 128 149 261c7 14 20 21 39 21h54c-15 -11 -26 -23 -35 -35
c-8 -12 -19 -33 -34 -64c-40 -80 -62 -133 -67 -159c-2 -9 -3 -18 -3 -26c0 -21 7 -33 22 -34c36 0 80 56 133 167c4 9 8 13 12 11c8 -4 9 -7 -3 -31l-18 -35c-5 -11 -14 -27 -26 -47c-11 -19 -22 -35 -32 -46c-52 -59 -109 -55 -128 -11c-8 20 -9 50 4 95
c-49 -85 -94 -128 -135 -128c-36 0 -57 15 -63 45c-2 3 -3 7 -3 12zM235 510c44 0 45 -66 1 -66c-43 -4 -43 69 -1 66zM364 510c44 0 45 -66 1 -66c-43 -4 -43 69 -1 66z" />
    <glyph glyph-name="yacute" unicode="&#xfd;" horiz-adv-x="399" 
d="M-81 -316c-92 2 -110 60 -77 122c17 34 49 61 94 82c34 16 79 31 135 45c56 13 92 22 108 27c24 42 53 117 86 225c-39 -68 -71 -116 -97 -143s-52 -41 -79 -41c-36 0 -57 15 -63 45c-5 9 0 33 0 41c1 8 12 31 15 39c7 15 14 27 19 36c-11 0 -14 5 -9 16l18 35
c23 43 41 80 56 110c7 14 20 21 39 21h61l-10 -8c-12 -8 -21 -17 -27 -28c-24 -41 -54 -100 -90 -177c-42 -93 -16 -106 6 -109c13 0 30 13 53 40c47 55 100 142 157 261c7 14 20 21 39 21h54c-35 -24 -50 -57 -74 -120l-44 -125c-17 -52 -31 -91 -40 -117
c63 19 111 52 144 99c15 21 36 57 63 110c5 9 9 13 12 11c4 -2 6 -5 6 -8s-6 -16 -17 -39c-21 -44 -41 -80 -77 -120s-75 -58 -148 -85c-51 -93 -103 -162 -155 -206c-49 -40 -101 -60 -158 -60zM-139 -217c-23 -46 -8 -79 38 -79c39 0 80 20 124 60c44 39 83 82 116 127
l22 37c-110 -29 -179 -49 -208 -62c-43 -19 -73 -46 -92 -83zM244 376c-1 0 -6 2 -6 6c0 3 1 5 2 7s11 10 28 23c18 13 37 27 58 41c41 29 55 43 72 43c34 0 39 -18 32 -31c-3 -8 -33 -25 -90 -51c-57 -25 -89 -38 -96 -38z" />
    <glyph glyph-name="thorn" unicode="&#xfe;" horiz-adv-x="385" 
d="M330 280c0 21 -8 43 -27 43c-23 0 -51 -22 -82 -65s-75 -119 -133 -227c17 -17 45 -25 101 22c45 37 82 84 112 139c19 36 29 65 29 88zM315 350c5 0 9 -1 13 -2c33 -9 50 -35 50 -78c0 -29 -8 -62 -23 -97s-37 -69 -64 -102s-59 -55 -98 -67c-29 -8 -68 -12 -113 12
l-116 -238c-21 -43 -39 -52 -54 -52h-14c-5 0 -32 6 -43 5c12 11 42 59 90 144c48 84 83 149 105 195c49 104 91 215 126 334s53 191 52 217c5 -8 35 -10 40 -15c28 -25 24 -48 12 -85l-126 -339c42 69 75 114 99 135c24 22 45 33 64 33z" />
    <glyph glyph-name="ydieresis" unicode="&#xff;" horiz-adv-x="399" 
d="M-81 -316c-92 2 -110 60 -77 122c17 34 49 61 94 82c34 16 79 31 135 45c56 13 92 22 108 27c24 42 53 117 86 225c-39 -68 -71 -116 -97 -143s-52 -41 -79 -41c-36 0 -57 15 -63 45c-5 9 0 33 0 41c1 8 12 31 15 39c7 15 14 27 19 36c-11 0 -14 5 -9 16l18 35
c23 43 41 80 56 110c7 14 20 21 39 21h61l-10 -8c-12 -8 -21 -17 -27 -28c-24 -41 -54 -100 -90 -177c-42 -93 -16 -106 6 -109c13 0 30 13 53 40c47 55 100 142 157 261c7 14 20 21 39 21h54c-35 -24 -50 -57 -74 -120l-44 -125c-17 -52 -31 -91 -40 -117
c63 19 111 52 144 99c15 21 36 57 63 110c5 9 9 13 12 11c4 -2 6 -5 6 -8s-6 -16 -17 -39c-21 -44 -41 -80 -77 -120s-75 -58 -148 -85c-51 -93 -103 -162 -155 -206c-49 -40 -101 -60 -158 -60zM-139 -217c-23 -46 -8 -79 38 -79c39 0 80 20 124 60c44 39 83 82 116 127
l22 37c-110 -29 -179 -49 -208 -62c-43 -19 -73 -46 -92 -83zM346 497c44 0 45 -66 1 -66c-43 -4 -43 69 -1 66zM217 497c44 0 45 -66 1 -66c-43 -4 -43 69 -1 66z" />
    <glyph glyph-name="Amacron" unicode="&#x100;" horiz-adv-x="712" 
d="M664 445c15 0 23 -10 23 -29c0 -21 -8 -40 -25 -58c-29 -33 -56 -74 -81 -123c-37 -75 -56 -142 -56 -202c0 -47 20 -67 41 -67c32 0 69 26 112 78c38 49 67 96 87 142c11 21 26 17 17 -4c-27 -61 -58 -114 -93 -160c-50 -74 -167 -121 -206 -54c-38 59 -15 179 18 224
c-67 -81 -139 -145 -215 -194c-40 -25 -84 -39 -133 -44c-9 -1 -32 -5 -63 11c-48 20 -72 69 -72 146c0 78 25 162 76 253c27 48 56 90 88 127c-45 21 -78 44 -100 69c-16 18 -24 40 -24 65s5 41 15 48c7 9 13 10 18 5c8 -12 -5 -31 -5 -47c0 -36 39 -84 114 -119
c157 174 319 261 488 261c105 0 172 -52 172 -127c0 -41 -23 -80 -68 -118c-23 -20 -55 -37 -97 -52c-64 -23 -140 -34 -229 -34c-88 0 -161 9 -219 28c-67 -95 -114 -175 -139 -238s-38 -111 -38 -146c0 -7 0 -14 1 -20c8 -55 36 -83 84 -83c54 0 117 29 188 88
c51 43 100 93 149 152s85 110 108 155c24 45 45 67 64 67zM819 658c0 29 -12 51 -36 66c-23 15 -56 23 -97 23s-83 -7 -124 -20s-79 -33 -115 -59c-71 -52 -120 -102 -184 -178c50 -16 111 -24 184 -24c137 0 236 22 299 66c49 34 73 76 73 126zM651 850h213l-12 -30h-214z
" />
    <glyph glyph-name="amacron" unicode="&#x101;" horiz-adv-x="350" 
d="M279 24c13 0 28 12 47 35c27 34 54 78 81 133c8 19 22 12 14 -8c-61 -124 -113 -186 -155 -186c-19 0 -35 9 -47 28c-12 20 -12 53 1 101c-53 -86 -99 -129 -138 -129c-11 0 -20 3 -29 10c-20 14 -30 38 -30 72c0 65 28 132 85 199c32 37 71 62 118 73c13 3 25 5 36 5
c31 0 57 -11 78 -32c13 -15 6 -32 -11 -29c-7 24 -23 36 -48 36c-29 0 -64 -23 -106 -68c-24 -27 -46 -58 -67 -94c-52 -87 -47 -143 -14 -143c40 0 92 61 157 184c25 49 38 64 65 64c5 0 34 -7 45 -4c-12 -12 -29 -39 -51 -82c-22 -42 -35 -74 -40 -95
c-8 -41 -11 -70 9 -70zM217 462h213l-12 -30h-214z" />
    <glyph glyph-name="Abreve" unicode="&#x102;" horiz-adv-x="712" 
d="M843 827c0 -20 -18 -42 -54 -65c-49 -31 -106 -28 -142 -9c-23 11 -34 31 -34 59c0 17 6 25 17 25c8 0 11 -25 25 -39c17 -17 38 -25 61 -25s41 3 53 8c25 11 32 18 52 45c7 9 13 11 20 6c1 -1 2 -3 2 -5zM632 405c15 0 22 -9 22 -26c0 -19 -8 -37 -23 -54
c-47 -52 -81 -130 -100 -235c-16 -67 -1 -127 35 -124c32 0 69 26 112 78c38 49 67 96 87 142c11 21 26 17 17 -4c-27 -61 -58 -114 -93 -160c-50 -74 -167 -121 -206 -54c-38 59 -15 179 18 224c-67 -81 -139 -145 -215 -194c-40 -25 -84 -39 -133 -44c-9 -1 -32 -5 -63 11
c-46 19 -69 65 -69 137c0 64 22 141 67 230c26 51 55 94 88 129c-43 20 -74 41 -94 64c-15 16 -23 36 -23 59s5 38 14 45c7 9 13 10 18 3c5 -11 -6 -28 -6 -43c0 -16 8 -33 25 -50c22 -24 50 -43 83 -58c127 137 289 226 462 226c50 0 89 -11 118 -33c29 -21 44 -51 44 -88
s-24 -74 -71 -111c-63 -48 -163 -72 -301 -72c-77 0 -147 10 -210 31c-16 -15 -38 -44 -66 -88s-52 -90 -71 -137s-28 -88 -28 -123c0 -7 0 -14 1 -20c8 -55 36 -83 84 -83c54 0 117 29 188 88c100 84 178 177 234 280c20 36 38 54 55 54zM778 601c0 52 -48 82 -120 82
c-161 0 -287 -88 -408 -231c56 -17 120 -26 193 -26c119 0 208 20 267 60c45 31 68 69 68 115z" />
    <glyph glyph-name="abreve" unicode="&#x103;" horiz-adv-x="350" 
d="M279 24c13 0 28 12 47 35c27 34 54 78 81 133c8 19 22 12 14 -8c-61 -124 -113 -186 -155 -186c-19 0 -35 9 -47 28c-12 20 -12 53 1 101c-53 -86 -99 -129 -138 -129c-11 0 -20 3 -29 10c-20 14 -30 38 -30 72c0 65 28 132 85 199c32 37 71 62 118 73c13 3 25 5 36 5
c31 0 57 -11 78 -32c13 -15 6 -32 -11 -29c-7 24 -23 36 -48 36c-29 0 -64 -23 -106 -68c-24 -27 -46 -58 -67 -94c-52 -87 -47 -143 -14 -143c40 0 92 61 157 184c25 49 38 64 65 64c5 0 34 -7 45 -4c-12 -12 -29 -39 -51 -82c-22 -42 -35 -74 -40 -95
c-8 -41 -11 -70 9 -70zM444 464c0 -20 -18 -42 -55 -65c-48 -31 -105 -28 -142 -9c-22 11 -33 31 -33 59c0 17 6 25 17 25c8 0 11 -25 25 -39c17 -17 38 -25 61 -25s41 3 53 8c25 11 32 18 52 45c7 9 13 11 20 6c1 -1 2 -3 2 -5z" />
    <glyph glyph-name="Aogonek" unicode="&#x104;" horiz-adv-x="712" 
d="M664 445c15 0 23 -10 23 -29c0 -21 -8 -40 -25 -58c-29 -33 -56 -74 -81 -123c-37 -75 -56 -142 -56 -202c0 -47 20 -67 41 -67c32 0 69 26 112 78c38 49 67 96 87 142c11 21 26 17 17 -4c-27 -61 -58 -114 -93 -160c-9 -13 -22 -27 -39 -41v-7c-29 -23 -56 -51 -81 -83
c-49 -64 -48 -113 -9 -113c14 0 31 10 51 30c9 4 11 1 10 -4c-3 -12 -13 -24 -32 -37s-37 -19 -55 -19c-35 0 -53 14 -53 42c0 21 10 46 31 75s46 55 73 79c-15 -5 -29 -8 -43 -8c-52 0 -79 49 -79 106s15 119 38 150c-67 -81 -139 -145 -215 -194c-40 -25 -84 -39 -133 -44
c-9 -1 -32 -5 -63 11c-48 20 -72 69 -72 146c0 78 25 162 76 253c27 48 56 90 88 127c-45 21 -78 44 -100 69c-16 18 -24 40 -24 65s5 41 15 48c7 9 13 10 18 5c8 -12 -5 -31 -5 -47c0 -36 39 -84 114 -119c157 174 319 261 488 261c105 0 172 -52 172 -127
c0 -41 -23 -80 -68 -118c-23 -20 -55 -37 -97 -52c-64 -23 -140 -34 -229 -34c-88 0 -161 9 -219 28c-67 -95 -114 -175 -139 -238s-38 -111 -38 -146c0 -7 0 -14 1 -20c8 -55 36 -83 84 -83c54 0 117 29 188 88c51 43 100 93 149 152s85 110 108 155c24 45 45 67 64 67z
M819 658c0 29 -12 51 -36 66c-23 15 -56 23 -97 23s-83 -7 -124 -20s-79 -33 -115 -59c-71 -52 -120 -102 -184 -178c50 -16 111 -24 184 -24c137 0 236 22 299 66c49 34 73 76 73 126z" />
    <glyph glyph-name="aogonek" unicode="&#x105;" horiz-adv-x="350" 
d="M279 24c13 0 28 12 47 35c27 34 54 78 81 133c3 6 6 9 9 10c5 2 8 0 8 -6c0 -3 -1 -7 -3 -12c-43 -89 -82 -145 -115 -170c-28 -23 -53 -50 -75 -80c-44 -60 -44 -108 -5 -108c14 0 31 10 51 30c9 4 11 1 10 -4c-3 -12 -13 -24 -32 -37s-37 -19 -55 -19
c-35 0 -53 14 -53 42c0 22 11 48 34 79s49 58 78 82c-25 3 -41 21 -47 54c-3 11 -5 30 8 74c-53 -86 -99 -129 -138 -129c-11 0 -20 3 -29 10c-20 14 -30 38 -30 72c0 65 28 132 85 199c32 37 71 62 118 73c13 3 25 5 36 5c31 0 57 -11 78 -32c13 -15 6 -32 -11 -29
c-7 24 -23 36 -48 36c-29 0 -64 -23 -106 -68c-24 -27 -46 -58 -67 -94c-52 -87 -47 -143 -14 -143c40 0 92 61 157 184c25 49 38 64 65 64c5 0 34 -7 45 -4c-12 -12 -29 -39 -51 -82c-22 -42 -35 -74 -40 -95c-8 -41 -11 -70 9 -70z" />
    <glyph glyph-name="Cacute" unicode="&#x106;" horiz-adv-x="710" 
d="M527 371c-152 0 -256 45 -311 136c-16 -17 -50 -90 -71 -189c-12 -55 -18 -106 -18 -154c0 -47 11 -91 34 -132c23 -40 59 -68 108 -83c37 -11 69 -16 98 -16c93 0 172 19 237 58c39 23 70 50 92 79c23 30 47 71 72 123c8 17 21 10 12 -10c-25 -51 -49 -92 -71 -122
c-21 -30 -51 -58 -88 -84c-75 -52 -155 -78 -242 -78c-52 0 -102 10 -150 31c-95 40 -152 132 -161 232c-4 37 -6 83 7 167c7 43 20 86 41 131s46 81 73 108c-23 69 -21 128 -4 179c3 8 12 14 17 9c8 -6 -16 -49 10 -161c52 53 113 92 184 117c54 19 110 28 168 28
c18 0 36 -1 54 -3c105 -9 174 -42 207 -98c24 -41 27 -88 -8 -141c-35 -55 -94 -92 -175 -113c-36 -9 -74 -14 -115 -14zM235 532c47 -94 143 -141 290 -141c87 0 158 22 211 65c41 34 61 72 61 113c0 53 -29 92 -87 118c-36 15 -80 23 -133 23c-52 0 -110 -15 -173 -44
s-119 -73 -169 -134zM801 824c-3 -7 -27 -21 -74 -42c-46 -21 -71 -31 -74 -31c-7 0 -10 2 -10 6c0 3 -4 3 25 24c45 32 73 51 82 58s18 11 25 11c19 0 28 -6 28 -17c0 -3 -1 -6 -2 -9z" />
    <glyph glyph-name="cacute" unicode="&#x107;" horiz-adv-x="260" 
d="M241 230c47 56 43 100 11 100c-31 0 -67 -29 -107 -86c-13 -18 -25 -42 -37 -71s-18 -56 -18 -80c0 -47 19 -79 59 -79c41 0 75 19 106 60c16 21 28 39 36 53s19 35 33 63c9 19 23 13 14 -7c-16 -33 -29 -58 -38 -75s-21 -35 -38 -56c-30 -37 -71 -56 -123 -56
c-75 0 -105 43 -105 91c0 29 7 61 21 96c15 35 31 65 50 90c39 53 83 79 134 79c49 0 70 -27 70 -58c0 -23 -9 -42 -28 -58c-19 -17 -31 -15 -40 -6zM243 419c-1 0 -6 2 -6 6c0 3 1 5 2 7s11 10 28 23c18 13 37 27 58 41c41 29 55 43 72 43c34 0 39 -18 32 -31
c-3 -8 -33 -25 -90 -51c-57 -25 -89 -38 -96 -38z" />
    <glyph glyph-name="Ccircumflex" unicode="&#x108;" horiz-adv-x="710" 
d="M753 848l33 -96c1 -4 0 -6 -5 -6c-6 0 -10 2 -13 6l-42 64l-111 -53c-6 -6 -13 -8 -22 -5c-1 2 -2 4 -1 5l127 85c23 3 33 3 34 0zM527 371c-152 0 -256 45 -311 136c-16 -17 -50 -90 -71 -189c-12 -55 -18 -106 -18 -154c0 -47 11 -91 34 -132c23 -40 59 -68 108 -83
c37 -11 69 -16 98 -16c93 0 172 19 237 58c39 23 70 50 92 79c23 30 47 71 72 123c8 17 21 10 12 -10c-25 -51 -49 -92 -71 -122c-21 -30 -51 -58 -88 -84c-75 -52 -155 -78 -242 -78c-52 0 -102 10 -150 31c-95 40 -152 132 -161 232c-4 37 -6 83 7 167c7 43 20 86 41 131
s46 81 73 108c-23 69 -21 128 -4 179c3 7 7 11 13 11c18 -2 -16 -55 14 -163c52 53 113 92 184 117c54 19 110 28 168 28c18 0 36 -1 54 -3c105 -9 174 -42 207 -98c24 -41 27 -88 -8 -141c-35 -55 -94 -92 -175 -113c-36 -9 -74 -14 -115 -14zM235 532
c47 -94 143 -141 290 -141c87 0 158 22 211 65c41 34 61 72 61 113c0 53 -29 92 -87 118c-36 15 -80 23 -133 23c-52 0 -110 -15 -173 -44s-119 -73 -169 -134z" />
    <glyph glyph-name="ccircumflex" unicode="&#x109;" horiz-adv-x="260" 
d="M241 230c47 56 43 100 11 100c-31 0 -67 -29 -107 -86c-13 -18 -25 -42 -37 -71s-18 -56 -18 -80c0 -47 19 -79 59 -79c41 0 75 19 106 60c16 21 28 39 36 53s19 35 33 63c9 19 23 13 14 -7c-16 -33 -29 -58 -38 -75s-21 -35 -38 -56c-30 -37 -71 -56 -123 -56
c-75 0 -105 43 -105 91c0 29 7 61 21 96c15 35 31 65 50 90c39 53 83 79 134 79c49 0 70 -27 70 -58c0 -23 -9 -42 -28 -58c-19 -17 -31 -15 -40 -6zM285 475l-132 -71c-19 -13 -35 -2 -25 0l149 106c25 3 37 3 38 0l36 -106c8 -2 -7 -13 -20 0z" />
    <glyph glyph-name="Cdotaccent" unicode="&#x10a;" horiz-adv-x="710" 
d="M730 850c16 0 24 -10 24 -30c0 -10 -5 -20 -15 -31c-20 -20 -56 -22 -56 5c0 11 5 23 15 36c11 13 21 20 32 20zM527 371c-152 0 -256 45 -311 136c-16 -17 -50 -90 -71 -189c-12 -55 -18 -106 -18 -154c0 -47 11 -91 34 -132c23 -40 59 -68 108 -83
c37 -11 69 -16 98 -16c93 0 172 19 237 58c39 23 70 50 92 79c23 30 47 71 72 123c8 17 21 10 12 -10c-25 -51 -49 -92 -71 -122c-21 -30 -51 -58 -88 -84c-75 -52 -155 -78 -242 -78c-52 0 -102 10 -150 31c-95 40 -152 132 -161 232c-4 37 -6 83 7 167c7 43 20 86 41 131
s46 81 73 108c-23 69 -21 128 -4 179c3 7 7 11 13 11c18 -2 -16 -55 14 -163c52 53 113 92 184 117c54 19 110 28 168 28c18 0 36 -1 54 -3c105 -9 174 -42 207 -98c24 -41 27 -88 -8 -141c-35 -55 -94 -92 -175 -113c-36 -9 -74 -14 -115 -14zM235 532
c47 -94 143 -141 290 -141c87 0 158 22 211 65c41 34 61 72 61 113c0 53 -29 92 -87 118c-36 15 -80 23 -133 23c-52 0 -110 -15 -173 -44s-119 -73 -169 -134z" />
    <glyph glyph-name="cdotaccent" unicode="&#x10b;" horiz-adv-x="260" 
d="M241 230c47 56 43 100 11 100c-31 0 -67 -29 -107 -86c-13 -18 -25 -42 -37 -71s-18 -56 -18 -80c0 -47 19 -79 59 -79c41 0 75 19 106 60c16 21 28 39 36 53s19 35 33 63c9 19 17 11 17 4c0 -3 -5 -14 -14 -33c-17 -37 -32 -68 -65 -109c-30 -37 -71 -56 -123 -56
c-75 0 -105 43 -105 91c0 29 7 61 21 96c15 35 31 65 50 90c39 53 83 79 134 79c49 0 70 -27 70 -58c0 -23 -9 -42 -28 -58c-19 -17 -31 -15 -40 -6zM297 489c16 0 24 -10 24 -31c0 -9 -5 -19 -15 -30c-20 -20 -56 -22 -56 5c0 11 5 23 15 36c11 13 21 20 32 20z" />
    <glyph glyph-name="Ccaron" unicode="&#x10c;" horiz-adv-x="710" 
d="M671 772l132 71c19 13 35 1 25 0l-149 -106c-25 -4 -37 -4 -38 0l-36 106c-2 4 0 6 6 6c0 0 10 2 14 -6zM517 342c-152 0 -256 45 -311 136c-24 -21 -85 -180 -82 -319c0 -46 12 -89 36 -128s57 -65 100 -78s78 -20 107 -20c93 0 172 19 237 58c39 23 70 50 92 79
c23 30 47 71 72 123c8 17 21 10 12 -10c-25 -51 -49 -92 -71 -122c-21 -30 -51 -58 -88 -84c-75 -52 -155 -78 -242 -78c-52 0 -102 10 -150 31c-95 40 -153 127 -165 222c-5 41 -7 84 4 160c6 39 19 79 39 122c21 43 45 78 72 105c-23 69 -21 128 -4 179c3 7 7 11 13 11
c18 -2 -16 -55 14 -163c52 53 113 92 184 116c54 19 110 29 168 29c18 0 36 -1 54 -3c105 -9 174 -42 207 -98c24 -41 27 -88 -8 -141c-35 -55 -94 -92 -175 -113c-36 -9 -74 -14 -115 -14zM225 503c47 -94 143 -141 290 -141c87 0 158 22 211 65c41 34 61 72 61 113
c0 53 -29 92 -87 118c-36 15 -80 23 -133 23c-52 0 -110 -15 -173 -44s-119 -73 -169 -134z" />
    <glyph glyph-name="ccaron" unicode="&#x10d;" horiz-adv-x="260" 
d="M241 230c47 56 43 100 11 100c-31 0 -67 -29 -107 -86c-13 -18 -25 -42 -37 -71s-18 -56 -18 -80c0 -47 19 -79 59 -79c41 0 75 19 106 60c16 21 28 39 36 53s19 35 33 63c9 19 23 13 14 -7c-16 -33 -29 -58 -38 -75s-21 -35 -38 -56c-30 -37 -71 -56 -123 -56
c-75 0 -105 43 -105 91c0 29 7 61 21 96c15 35 31 65 50 90c39 53 83 79 134 79c49 0 70 -27 70 -58c0 -23 -9 -42 -28 -58c-19 -17 -31 -15 -40 -6zM297 487l132 71c19 13 35 1 25 0l-149 -106c-25 -3 -37 -3 -38 0l-36 106c-1 1 -1 2 -1 3c0 4 17 5 21 -3z" />
    <glyph glyph-name="Dcaron" unicode="&#x10e;" horiz-adv-x="1027" 
d="M665 -34c-113 0 -209 21 -290 64c-61 -47 -130 -70 -206 -70c-86 0 -139 22 -159 67c-9 20 -15 50 17 82c25 25 58 37 99 37c28 0 58 -5 91 -16s83 -33 150 -67c33 29 67 69 100 118s62 97 86 143c25 46 54 96 89 150s70 99 105 135c-75 41 -155 62 -239 62
c-34 0 -69 -3 -105 -10c-105 -21 -185 -63 -239 -128c-31 -37 -47 -73 -47 -106c0 -47 24 -78 73 -92c46 -9 83 -14 134 26c30 27 46 52 47 75c1 11 23 8 20 -8c-7 -45 -32 -79 -77 -102c-53 -28 -99 -24 -134 -13c-51 17 -85 47 -101 92c-6 16 -9 32 -9 48
c0 35 14 69 43 103c59 71 162 117 310 137c30 4 60 6 89 6c91 0 179 -20 263 -61c52 56 99 85 124 85c24 0 14 -13 7 -13c-11 0 -26 -11 -44 -33s-33 -43 -44 -62c71 -44 126 -100 163 -169c30 -55 45 -114 45 -179c0 -95 -29 -167 -88 -217c-50 -42 -109 -68 -176 -77
c-32 -5 -64 -7 -97 -7zM399 46c66 -37 144 -55 235 -55c106 0 191 28 254 83c50 45 75 107 75 187c0 57 -12 110 -36 159c-30 63 -74 116 -133 159c-19 -27 -56 -83 -111 -168c-55 -84 -102 -152 -139 -204c-55 -75 -104 -129 -145 -161zM341 44c-71 33 -119 53 -144 60
c-24 8 -46 12 -66 12c-19 0 -35 -7 -46 -21c-23 -27 -20 -47 -9 -67c15 -26 44 -39 87 -39c64 0 123 18 178 55zM871 778l132 66c20 13 34 1 25 0l-149 -98c-25 -3 -37 -3 -38 0l-36 98c-8 1 7 10 20 0z" />
    <glyph glyph-name="dcaron" unicode="&#x10f;" horiz-adv-x="655" 
d="M268 58c0 -21 9 -32 26 -32c31 0 73 52 125 157c2 18 29 33 19 3c-53 -124 -107 -186 -162 -186c-18 0 -32 8 -43 24c-21 32 -18 64 -11 91c-39 -64 -72 -100 -100 -109c-16 -7 -31 -6 -46 -2c-33 9 -49 35 -49 78c0 29 7 62 22 97c15 36 37 70 64 103s60 55 99 66
c28 9 66 13 113 -11c45 85 84 164 116 237c19 44 37 52 52 52h14c4 0 33 -5 45 -4c-15 -14 -56 -82 -122 -204c-84 -156 -135 -260 -152 -312c-7 -19 -10 -35 -10 -48zM317 321c-17 17 -46 25 -102 -22c-45 -37 -82 -83 -111 -138c-19 -36 -29 -66 -29 -89
c0 -21 8 -42 27 -42c45 0 107 90 215 291zM663 573c0 -59 -48 -99 -101 -116c-7 -7 -18 3 -2 11c40 13 71 44 76 87c-27 -21 -69 -7 -62 31c3 23 25 41 49 41c25 0 40 -25 40 -54z" />
    <glyph glyph-name="Dcroat" unicode="&#x110;" horiz-adv-x="1027" 
d="M375 36c-62 -50 -131 -75 -206 -75c-86 0 -139 24 -159 72c-9 23 -15 53 16 88c24 27 57 41 100 41c29 0 57 -5 86 -16c29 -10 81 -35 155 -74c45 43 93 113 146 208l-82 -9c-15 -2 -28 48 0 48c38 0 72 0 103 -1c21 42 46 89 75 141s49 85 59 99c27 40 53 75 79 105
c-75 45 -154 67 -238 67c-35 0 -70 -4 -106 -11c-103 -22 -182 -67 -236 -135c-33 -41 -50 -81 -50 -118c0 -51 24 -84 73 -99c48 -11 83 -15 134 27c29 29 45 57 47 82c1 12 23 8 20 -9c-7 -49 -32 -86 -77 -111c-27 -15 -55 -22 -82 -22l-52 9c-51 17 -84 50 -100 97
c-7 18 -10 36 -10 54c0 37 14 73 41 109c59 79 163 129 312 151c29 4 58 6 87 6c93 0 181 -22 265 -66c52 60 98 92 125 92c22 0 13 -14 6 -14c-11 0 -26 -12 -44 -36s-33 -46 -44 -67c71 -47 126 -108 163 -182c30 -59 45 -124 45 -194c0 -87 -21 -156 -62 -207
c-34 -42 -75 -72 -124 -89c-58 -21 -115 -31 -172 -31c-115 0 -212 23 -293 70zM399 54c67 -40 146 -60 237 -60c105 0 189 30 252 90c50 49 75 116 75 202c0 61 -12 119 -36 173c-30 69 -74 126 -133 172c-24 -37 -58 -92 -103 -167l-90 -148l50 -1c11 -1 18 -5 21 -13
c-1 -8 -7 -13 -17 -14c-19 0 -43 -1 -74 -2c-71 -112 -132 -189 -182 -232zM341 52c-78 37 -127 60 -148 67s-41 11 -61 11c-19 0 -35 -7 -47 -22c-23 -29 -20 -52 -9 -73c14 -29 43 -43 86 -43c64 0 124 20 179 60z" />
    <glyph glyph-name="dslash" unicode="&#x111;" horiz-adv-x="367" 
d="M268 58c0 -21 9 -32 26 -32c31 0 73 52 125 157c2 18 29 33 19 3c-53 -124 -107 -186 -162 -186c-18 0 -32 8 -43 24c-21 32 -18 64 -11 91c-39 -64 -72 -100 -100 -109c-16 -7 -31 -6 -46 -2c-33 9 -49 35 -49 78c0 29 7 62 22 97c15 36 37 70 64 103s60 55 99 66
c28 9 66 13 113 -11l65 128l-62 -7c-15 -2 -28 48 0 48c31 0 58 0 81 -1l32 69c19 44 37 52 52 52h14c4 0 33 -5 45 -4c-11 -11 -36 -50 -75 -118c28 -1 52 -2 71 -2c11 -1 18 -5 21 -13c-1 -8 -7 -13 -17 -14c-33 0 -64 -1 -93 -3c-127 -229 -191 -367 -191 -414zM317 321
c-17 17 -46 25 -102 -22c-45 -37 -82 -83 -111 -138c-19 -36 -29 -66 -29 -89c0 -21 8 -42 27 -42c45 0 107 90 215 291z" />
    <glyph glyph-name="Emacron" unicode="&#x112;" horiz-adv-x="876" 
d="M644 850h213l-12 -30h-214zM494 325l-107 1c-88 0 -157 -21 -206 -64c-58 -49 -87 -107 -87 -172c0 -61 25 -115 98 -148c37 -17 87 -25 150 -25s130 13 200 40s129 59 177 96c55 43 82 80 82 112c0 15 -8 25 -24 28c-16 4 -24 8 -25 13c-1 6 4 9 15 8s21 -3 28 -7
c30 -16 45 -37 45 -62c0 -37 -26 -76 -78 -117c-51 -41 -116 -73 -195 -97s-152 -36 -221 -36s-124 7 -167 20c-75 23 -124 66 -147 129c-14 46 -19 87 35 175c52 87 209 152 303 151c-65 24 -120 70 -120 119c0 41 17 80 52 115c62 63 152 105 270 125c33 5 60 8 83 8
c82 0 141 -15 176 -46c22 -19 33 -40 33 -61c0 -30 -17 -59 -52 -87c-34 -27 -75 -46 -124 -57c-24 -5 -41 -6 -40 2c3 8 14 13 34 15c20 3 39 11 58 25c37 27 59 61 64 104v7c0 17 -8 32 -24 46c-21 19 -55 28 -104 28c-96 0 -194 -21 -277 -85c-50 -38 -75 -81 -75 -130
c-5 -62 66 -96 136 -108c51 -11 77 -25 77 -42c0 -15 -14 -23 -43 -23z" />
    <glyph glyph-name="emacron" unicode="&#x113;" horiz-adv-x="246" 
d="M101 154c-9 -23 -14 -48 -14 -76c0 -37 17 -61 48 -61c61 0 116 57 165 171c5 11 10 15 17 14c4 -2 4 -7 1 -15c-28 -61 -50 -101 -65 -121c-34 -47 -76 -70 -126 -70c-53 0 -96 37 -96 97c0 87 70 213 165 253c31 13 59 14 83 -2c11 -9 17 -20 17 -31
c0 -40 -24 -78 -72 -115c-15 -11 -35 -22 -62 -31s-47 -13 -61 -13zM269 314c0 13 -5 20 -16 20c-19 0 -47 -23 -85 -69c-23 -28 -43 -59 -60 -94c23 0 74 17 106 44c37 31 55 64 55 99zM156 478h213l-12 -30h-214z" />
    <glyph glyph-name="Edotaccent" unicode="&#x116;" horiz-adv-x="876" 
d="M494 326l-107 1c-88 0 -157 -21 -206 -64c-58 -49 -87 -107 -87 -172c0 -61 25 -115 98 -148c37 -17 87 -25 150 -25s130 13 200 40s129 59 177 96c55 43 82 80 82 112c0 15 -8 25 -24 28c-16 4 -24 8 -25 13c-1 6 4 9 15 8s21 -3 28 -7c30 -16 45 -37 45 -62
c0 -37 -26 -76 -78 -117c-51 -41 -116 -73 -195 -97s-152 -36 -221 -36s-124 7 -167 20c-75 23 -124 66 -147 129c-14 46 -19 87 35 175c52 87 209 152 303 151c-65 24 -120 70 -120 119c0 41 17 80 52 115c62 63 152 105 270 125c33 5 60 8 83 8c82 0 141 -15 176 -46
c22 -19 33 -40 33 -61c0 -30 -17 -59 -52 -87c-34 -27 -75 -46 -124 -57c-24 -5 -41 -6 -40 2c3 8 14 13 34 15c20 3 39 11 58 24c37 27 59 63 64 106v6c0 17 -8 32 -24 46c-21 19 -55 28 -104 28c-96 0 -194 -21 -277 -84c-50 -39 -75 -82 -75 -131c-5 -62 66 -97 136 -107
c51 -11 77 -26 77 -43c0 -15 -14 -23 -43 -23zM764 850c16 0 24 -10 24 -30c0 -10 -5 -20 -15 -31c-20 -20 -56 -22 -56 5c0 11 5 23 15 36c11 13 21 20 32 20z" />
    <glyph glyph-name="edotaccent" unicode="&#x117;" horiz-adv-x="246" 
d="M101 154c-9 -23 -14 -48 -14 -76c0 -37 17 -61 48 -61c61 0 116 57 165 171c5 11 10 15 17 14c3 -1 4 -2 4 -5s-8 -20 -23 -53c-15 -32 -30 -58 -45 -78c-34 -47 -76 -70 -126 -70c-53 0 -96 37 -96 97c0 87 70 213 165 253c31 13 59 14 83 -2c11 -9 17 -20 17 -31
c0 -40 -24 -78 -72 -115c-15 -11 -35 -22 -62 -31s-47 -13 -61 -13zM269 314c0 13 -5 20 -16 20c-19 0 -47 -23 -85 -69c-23 -28 -43 -59 -60 -94c23 0 74 17 106 44c37 31 55 64 55 99zM294 512c16 0 24 -10 24 -30c0 -10 -5 -20 -15 -31c-20 -20 -56 -22 -56 5
c0 11 5 23 15 36c11 13 21 20 32 20z" />
    <glyph glyph-name="Eogonek" unicode="&#x118;" horiz-adv-x="876" 
d="M492 375l-107 1c-88 0 -157 -21 -206 -64c-58 -49 -87 -107 -87 -172c0 -61 25 -115 98 -148c37 -17 87 -25 150 -25s130 13 200 40s129 59 177 96c55 43 82 80 82 112c0 15 -8 25 -24 28c-16 4 -24 8 -25 13c-1 6 4 9 15 8s21 -3 28 -7c30 -16 45 -37 45 -62
c0 -37 -25 -76 -74 -115c-99 -77 -248 -126 -400 -134c-29 -23 -56 -51 -81 -82c-48 -64 -47 -113 -8 -113c14 0 31 10 51 30c9 4 11 1 10 -4c-3 -12 -13 -24 -32 -37s-37 -19 -56 -19c-35 0 -52 14 -52 42c0 26 16 58 47 95s63 66 94 87h-13c-55 0 -104 7 -147 20
c-75 23 -124 66 -147 129c-14 46 -19 87 35 175c52 87 209 152 303 151c-67 24 -120 70 -120 119v6c5 54 35 102 91 145s115 73 176 89c61 17 114 25 159 25c14 0 28 -1 41 -2c55 -7 95 -21 119 -42s36 -42 36 -63c0 -30 -17 -59 -52 -87c-34 -27 -75 -46 -124 -57
c-24 -5 -41 -6 -40 2c3 8 14 13 34 15c20 3 39 11 58 24c37 27 59 63 64 106v6c0 17 -8 32 -24 46c-20 19 -54 28 -101 28c-95 0 -202 -28 -287 -97c-51 -41 -76 -86 -76 -135c-5 -62 66 -96 136 -108c51 -11 77 -25 77 -42c0 -15 -14 -23 -43 -23z" />
    <glyph glyph-name="eogonek" unicode="&#x119;" horiz-adv-x="246" 
d="M101 154c-9 -23 -14 -48 -14 -76c0 -37 17 -61 48 -61c61 0 116 57 165 171c5 11 10 15 17 14c5 -1 5 -7 1 -14l-11 -24l-11 -25c-4 -9 -19 -37 -26 -49c-7 -11 -21 -32 -32 -43c-17 -17 -30 -28 -40 -33c-27 -23 -52 -49 -73 -78c-43 -59 -43 -107 -4 -107
c14 0 31 10 51 30c9 4 11 1 10 -4c-3 -12 -13 -24 -32 -37s-37 -19 -56 -19c-35 0 -52 14 -52 42c0 22 11 48 33 77s47 56 75 80c-9 -1 -17 -2 -23 -2c-53 0 -96 37 -96 97c0 87 70 213 165 253c31 13 59 14 83 -2c11 -9 17 -20 17 -31c0 -40 -24 -78 -72 -115
c-15 -11 -35 -22 -62 -31s-47 -13 -61 -13zM269 314c0 13 -5 20 -16 20c-19 0 -47 -23 -85 -69c-23 -28 -43 -59 -60 -94c23 0 74 17 106 44c37 31 55 64 55 99z" />
    <glyph glyph-name="Ecaron" unicode="&#x11a;" horiz-adv-x="876" 
d="M491 310l-107 1c-88 0 -157 -21 -206 -64c-58 -49 -87 -107 -87 -172c0 -61 25 -115 98 -148c37 -17 87 -25 150 -25s130 13 200 40s129 59 177 96c55 43 82 80 82 112c0 15 -8 25 -24 28c-16 4 -24 8 -25 13c-1 6 4 9 15 8s21 -3 28 -7c30 -16 45 -37 45 -62
c0 -37 -26 -76 -78 -117c-51 -41 -116 -73 -195 -97s-152 -36 -221 -36s-124 7 -167 20c-75 23 -125 66 -148 129c-12 46 -18 87 36 175c52 87 209 152 303 151c-65 24 -120 70 -120 119v6c5 54 34 102 89 143s113 69 172 84s111 22 154 22c76 0 132 -15 167 -46
c22 -19 33 -40 33 -61c0 -30 -17 -59 -52 -87c-34 -27 -75 -46 -124 -57c-24 -5 -41 -6 -40 2c3 8 14 13 34 15c20 3 39 11 58 25c37 27 59 61 64 104v7c0 17 -8 32 -24 46c-21 19 -62 28 -125 28c-62 0 -126 -16 -193 -49c-80 -39 -126 -90 -137 -151c-3 -15 -8 -43 15 -75
c24 -32 73 -45 120 -54c51 -11 76 -26 76 -43c0 -15 -14 -23 -43 -23zM721 785l120 55c17 10 30 1 23 0l-136 -82c-21 -3 -34 -3 -34 0l-33 82c-3 6 13 8 18 0z" />
    <glyph glyph-name="ecaron" unicode="&#x11b;" horiz-adv-x="246" 
d="M101 154c-9 -23 -14 -48 -14 -76c0 -37 17 -61 48 -61c61 0 116 57 165 171c5 11 10 15 17 14c4 -2 4 -7 1 -15c-28 -61 -50 -101 -65 -121c-34 -47 -76 -70 -126 -70c-53 0 -96 37 -96 97c0 87 70 213 165 253c31 13 59 14 83 -2c11 -9 17 -20 17 -31
c0 -40 -24 -78 -72 -115c-15 -11 -35 -22 -62 -31s-47 -13 -61 -13zM269 314c0 13 -5 20 -16 20c-19 0 -47 -23 -85 -69c-23 -28 -43 -59 -60 -94c23 0 74 17 106 44c37 31 55 64 55 99zM278 466l132 71c19 13 35 1 25 0l-149 -106c-24 -4 -38 -4 -38 0l-36 106
c-1 1 -1 2 -1 3c0 4 17 5 21 -3z" />
    <glyph glyph-name="Gcircumflex" unicode="&#x11c;" horiz-adv-x="726" 
d="M721 848l29 -85c1 -3 0 -4 -4 -5c-6 -1 -10 1 -12 5l-37 57c-63 -35 -98 -54 -105 -57c-5 -5 -12 -6 -19 -4c-1 1 -2 3 -1 4l119 85c20 3 30 3 30 0zM131 455c-77 87 -76 183 -3 270c7 9 13 11 16 8c2 -3 0 -8 -5 -15c-26 -37 -39 -74 -39 -112c0 -44 15 -85 46 -123
c3 8 10 20 19 36c45 78 110 137 195 176c65 30 127 45 186 45c19 0 37 -1 54 -4c78 -13 129 -45 153 -98c17 -37 24 -87 -19 -148c-41 -61 -110 -102 -205 -122c-37 -8 -76 -12 -116 -12c-79 0 -169 24 -226 65c-34 -75 -51 -143 -51 -206c0 -93 33 -151 99 -172
c45 -12 93 -12 141 0c48 13 91 32 129 57s62 50 72 73c27 62 55 93 86 93c15 0 26 -9 31 -26c3 -7 3 -14 2 -22c-13 -104 -56 -198 -136 -330c80 -1 153 -9 219 -26c14 -3 21 -8 21 -14c0 -7 -10 -9 -29 -4c-46 12 -112 18 -199 18h-26c-41 -59 -95 -110 -163 -155
c-67 -45 -133 -76 -197 -93c-71 -19 -119 -17 -152 -5c-49 18 -73 42 -73 71c0 9 2 18 7 28c18 40 65 77 142 111c116 52 240 66 400 69c49 83 83 165 101 246l4 17c-32 -31 -68 -58 -109 -82c-40 -23 -75 -40 -105 -49c-82 -27 -149 -30 -200 -10c-83 28 -123 116 -123 220
c0 72 18 147 53 225zM568 711c-52 0 -108 -16 -169 -49c-89 -48 -156 -120 -201 -217c29 -23 61 -39 97 -48c73 -19 114 -15 141 -12c105 11 185 46 240 104c34 35 51 70 51 105c0 63 -41 101 -123 114c-11 2 -23 3 -36 3zM12 -327c0 -19 16 -31 48 -38c11 -3 22 -4 35 -4
c47 0 107 17 180 51c92 42 165 102 219 179c-70 -2 -131 -7 -184 -16c-76 -11 -148 -39 -217 -83c-54 -35 -81 -64 -81 -89z" />
    <glyph glyph-name="gcircumflex" unicode="&#x11d;" horiz-adv-x="392" 
d="M-12 -316c-63 0 -94 26 -94 77c0 43 29 81 87 115c49 29 112 56 189 81c35 11 61 20 77 27c17 51 26 106 26 166c0 12 -1 21 -2 27c-19 -38 -44 -77 -77 -117c-39 -48 -77 -67 -115 -56c-35 15 -52 43 -52 86c0 57 29 120 86 189c31 37 68 61 110 71c11 3 23 5 34 5
c30 0 59 -10 88 -30c21 -17 18 -28 10 -40c-8 -11 -18 3 -21 11c-9 25 -23 37 -42 37c-35 0 -75 -25 -119 -74c-25 -28 -46 -58 -64 -90c-44 -80 -40 -121 -13 -136c5 -2 9 -3 14 -3c15 0 34 10 57 31s45 48 64 80c20 33 33 58 38 76c16 54 50 36 64 47
c11 -60 15 -140 -13 -243c91 67 94 107 117 147l12 27c4 8 17 12 17 1c0 -3 -1 -7 -3 -12c-29 -61 -54 -105 -74 -132c-19 -27 -46 -48 -80 -64c-16 -45 -39 -90 -70 -135c-30 -45 -68 -84 -114 -118s-92 -51 -137 -51zM-85 -258c0 -25 16 -38 49 -38c39 0 94 28 126 52
c27 22 57 55 90 98c25 35 44 68 57 101l-35 -12c-104 -36 -177 -68 -220 -96c-31 -21 -52 -47 -62 -79c-3 -10 -5 -19 -5 -26zM311 460l-132 -71c-19 -13 -35 -2 -25 0l149 106c25 4 37 4 38 0l36 -106c8 -2 -7 -13 -20 0z" />
    <glyph glyph-name="Gbreve" unicode="&#x11e;" horiz-adv-x="726" 
d="M665 771c-16 0 -31 4 -46 11c-17 9 -26 25 -26 48c0 13 4 20 13 20c3 0 6 -3 7 -8c4 -11 8 -18 13 -23c14 -13 32 -20 53 -20c44 0 57 11 80 42c11 13 19 4 18 -1c-22 -46 -59 -69 -112 -69zM131 455c-77 87 -76 183 -3 270c7 9 13 11 16 8c2 -3 0 -8 -5 -15
c-26 -37 -39 -74 -39 -112c0 -44 15 -85 46 -123c3 8 10 20 19 36c47 80 110 141 190 184c62 33 122 50 180 50c17 0 33 -1 49 -4c77 -13 129 -46 156 -100c20 -43 24 -93 -11 -152c-37 -63 -100 -105 -191 -127c-113 -30 -263 -13 -351 51c-34 -75 -51 -143 -51 -206
c0 -93 33 -151 99 -172c45 -12 93 -12 141 0c48 13 91 32 129 57s62 50 72 73c27 62 55 93 86 93c15 0 26 -9 31 -26c3 -7 3 -14 2 -22c-13 -104 -56 -198 -136 -330c80 -1 153 -9 219 -26c14 -3 21 -8 21 -14c0 -7 -10 -9 -29 -4c-46 12 -112 18 -199 18h-26
c-41 -59 -95 -110 -163 -155c-67 -45 -133 -76 -197 -93c-71 -19 -119 -17 -152 -5c-49 18 -73 42 -73 71c0 9 2 18 7 28c18 40 65 77 142 111c116 52 240 66 400 69c49 83 83 165 101 246l4 17c-32 -31 -68 -58 -109 -82c-40 -23 -75 -40 -105 -49
c-82 -27 -149 -30 -200 -10c-83 28 -123 116 -123 220c0 72 18 147 53 225zM558 723c-51 0 -106 -18 -165 -54c-85 -53 -150 -127 -195 -224c29 -23 61 -39 97 -48c37 -9 66 -14 88 -14c127 0 223 36 286 108c31 35 47 71 47 106c0 10 -1 20 -4 30c-13 51 -54 83 -124 94
c-10 1 -20 2 -30 2zM12 -327c0 -19 16 -31 48 -38c11 -3 22 -4 35 -4c47 0 107 17 180 51c92 42 165 102 219 179c-70 -2 -131 -7 -184 -16c-76 -11 -148 -39 -217 -83c-54 -35 -81 -64 -81 -89z" />
    <glyph glyph-name="gbreve" unicode="&#x11f;" horiz-adv-x="392" 
d="M-12 -316c-63 0 -94 26 -94 77c0 43 29 81 87 115c49 29 112 56 189 81c35 11 61 20 77 27c17 51 26 106 26 166c0 12 -1 21 -2 27c-19 -38 -44 -77 -77 -117c-39 -48 -77 -67 -115 -56c-35 15 -52 43 -52 86c0 57 29 120 86 189c31 37 68 61 110 71c11 3 23 5 34 5
c30 0 59 -10 88 -30c21 -17 18 -28 10 -40c-8 -11 -18 3 -21 11c-9 25 -23 37 -42 37c-35 0 -75 -25 -119 -74c-25 -28 -46 -58 -64 -90c-44 -80 -40 -121 -13 -136c5 -2 9 -3 14 -3c15 0 34 10 57 31s45 48 64 80c20 33 33 58 38 76c16 54 50 36 64 47
c11 -60 15 -140 -13 -243c91 67 94 107 117 147l12 27c4 8 17 12 17 1c0 -3 -1 -7 -3 -12c-29 -61 -54 -105 -74 -132c-19 -27 -46 -48 -80 -64c-16 -45 -39 -90 -70 -135c-30 -45 -68 -84 -114 -118s-92 -51 -137 -51zM-85 -258c0 -25 16 -38 49 -38c39 0 94 28 126 52
c27 22 57 55 90 98c25 35 44 68 57 101l-35 -12c-104 -36 -177 -68 -220 -96c-31 -21 -52 -47 -62 -79c-3 -10 -5 -19 -5 -26zM434 538c0 -20 -18 -42 -54 -65c-49 -31 -106 -28 -142 -9c-23 11 -34 31 -34 59c0 17 6 25 17 25c8 0 11 -25 25 -39c17 -17 38 -25 61 -25
s41 3 53 8c25 11 32 18 52 45c7 9 13 11 20 6c1 -1 2 -3 2 -5z" />
    <glyph glyph-name="Gdotaccent" unicode="&#x120;" horiz-adv-x="726" 
d="M131 455c-77 87 -76 183 -3 270c7 9 13 11 16 8c2 -3 0 -8 -5 -15c-26 -37 -39 -74 -39 -112c0 -44 15 -85 46 -123c3 8 10 20 19 36c47 80 110 141 190 184c62 33 122 50 180 50c17 0 33 -1 49 -4c77 -13 129 -46 156 -100c20 -43 24 -93 -11 -152
c-37 -63 -100 -105 -191 -127c-113 -30 -263 -13 -351 51c-34 -75 -51 -143 -51 -206c0 -93 33 -151 99 -172c45 -12 93 -12 141 0c48 13 91 32 129 57s62 50 72 73c27 62 55 93 86 93c15 0 26 -9 31 -26c3 -7 3 -14 2 -22c-13 -104 -56 -198 -136 -330
c80 -1 153 -9 219 -26c14 -3 21 -8 21 -14c0 -7 -10 -9 -29 -4c-46 12 -112 18 -199 18h-26c-41 -59 -95 -110 -163 -155c-67 -45 -133 -76 -197 -93c-71 -19 -119 -17 -152 -5c-49 18 -73 42 -73 71c0 9 2 18 7 28c18 40 65 77 142 111c116 52 240 66 400 69
c49 83 83 165 101 246l4 17c-32 -31 -68 -58 -109 -82c-40 -23 -75 -40 -105 -49c-82 -27 -149 -30 -200 -10c-83 28 -123 116 -123 220c0 72 18 147 53 225zM558 723c-51 0 -106 -18 -165 -54c-85 -53 -150 -127 -195 -224c29 -23 61 -39 97 -48c37 -9 66 -14 88 -14
c127 0 223 36 286 108c31 35 47 71 47 106c0 10 -1 20 -4 30c-13 51 -54 83 -124 94c-10 1 -20 2 -30 2zM12 -327c0 -19 16 -31 48 -38c11 -3 22 -4 35 -4c47 0 107 17 180 51c92 42 165 102 219 179c-70 -2 -131 -7 -184 -16c-76 -11 -148 -39 -217 -83
c-54 -35 -81 -64 -81 -89zM648 850c13 0 19 -8 19 -25c6 -25 -56 -55 -57 -20c0 17 21 45 38 45z" />
    <glyph glyph-name="gdotaccent" unicode="&#x121;" horiz-adv-x="392" 
d="M-12 -316c-63 0 -94 26 -94 77c0 43 29 81 87 115c49 29 112 56 189 81c35 11 61 20 77 27c17 51 26 106 26 166c0 12 -1 21 -2 27c-19 -38 -44 -77 -77 -117c-39 -48 -77 -67 -115 -56c-35 15 -52 43 -52 86c0 57 29 120 86 189c31 37 68 61 110 71c11 3 23 5 34 5
c30 0 59 -10 88 -30c21 -17 18 -28 10 -40c-8 -11 -18 3 -21 11c-9 25 -23 37 -42 37c-35 0 -75 -25 -119 -74c-25 -28 -46 -58 -64 -90c-44 -80 -40 -121 -13 -136c5 -2 9 -3 14 -3c15 0 34 10 57 31s45 48 64 80c20 33 33 58 38 76c16 54 50 36 64 47
c11 -60 15 -140 -13 -243c91 67 94 107 117 147l12 27c4 8 17 12 17 1c0 -3 -1 -7 -3 -12c-29 -61 -54 -105 -74 -132c-19 -27 -46 -48 -80 -64c-16 -45 -39 -90 -70 -135c-30 -45 -68 -84 -114 -118s-92 -51 -137 -51zM-85 -258c0 -25 16 -38 49 -38c39 0 94 28 126 52
c27 22 57 55 90 98c25 35 44 68 57 101l-35 -12c-104 -36 -177 -68 -220 -96c-31 -21 -52 -47 -62 -79c-3 -10 -5 -19 -5 -26zM331 524c16 0 24 -10 24 -30c0 -10 -5 -20 -15 -31c-20 -20 -56 -22 -56 5c0 11 5 23 15 36c11 13 21 20 32 20z" />
    <glyph glyph-name="Gcommaaccent" unicode="&#x122;" horiz-adv-x="559" 
d="M355 -272c21 0 32 -11 32 -33c0 -44 -38 -77 -75 -89c-3 -1 -6 -2 -7 1s1 6 6 7c33 10 51 31 55 62c-15 -9 -31 -10 -40 2c-16 18 3 50 29 50zM131 530c-77 87 -76 183 -3 270c7 9 13 11 16 8c2 -3 0 -8 -5 -15c-26 -37 -39 -74 -39 -112c0 -44 15 -85 46 -123
c3 8 10 20 19 36c47 80 110 141 190 184c62 33 122 50 180 50c17 0 33 -1 49 -4c77 -13 129 -46 156 -100c20 -43 24 -93 -11 -152c-37 -63 -100 -105 -191 -127c-113 -30 -263 -13 -351 51c-34 -75 -51 -143 -51 -206c0 -93 33 -151 99 -172c45 -13 93 -13 141 0
s91 32 129 57s62 50 72 73c27 62 55 93 86 93c15 0 26 -9 31 -26c3 -7 3 -14 2 -22c-13 -104 -56 -198 -136 -330c80 -1 153 -9 219 -26c14 -3 21 -8 21 -14c0 -7 -10 -9 -29 -4c-46 12 -112 18 -199 18h-26c-41 -59 -95 -110 -163 -155c-67 -45 -133 -77 -197 -94
c-71 -17 -119 -16 -152 -4c-49 18 -73 42 -73 71c0 9 2 18 7 28c18 40 65 77 142 111c116 52 240 66 400 69c49 83 83 165 101 246l4 17c-32 -31 -68 -58 -109 -82c-40 -23 -75 -40 -105 -50c-96 -29 -153 -26 -200 -9c-83 28 -123 116 -123 220c0 72 18 147 53 225z
M558 798c-51 0 -106 -18 -165 -54c-85 -53 -150 -127 -195 -224c29 -23 61 -39 97 -48c37 -9 66 -14 88 -14c127 0 223 36 286 108c31 35 47 71 47 106c0 10 -1 20 -4 30c-13 51 -54 83 -124 94c-10 1 -20 2 -30 2zM12 -252c0 -19 16 -31 48 -38c11 -3 22 -4 35 -4
c47 0 107 17 180 50c92 43 165 103 219 180c-70 -2 -131 -7 -184 -16c-76 -11 -148 -39 -217 -83c-54 -35 -81 -64 -81 -89z" />
    <glyph glyph-name="gcommaaccent" unicode="&#x123;" horiz-adv-x="392" 
d="M-12 -316c-63 0 -94 26 -94 77c0 43 29 81 87 115c49 29 112 56 189 81c35 11 61 20 77 27c17 51 26 106 26 166c0 12 -1 21 -2 27c-19 -38 -44 -77 -77 -117c-39 -48 -77 -67 -115 -56c-35 15 -52 43 -52 86c0 57 29 120 86 189c31 37 68 61 110 71c11 3 23 5 34 5
c30 0 59 -10 88 -30c21 -17 18 -28 10 -40c-8 -11 -18 3 -21 11c-9 25 -23 37 -42 37c-35 0 -75 -25 -119 -74c-25 -28 -46 -58 -64 -90c-44 -80 -40 -121 -13 -136c5 -2 9 -3 14 -3c15 0 34 10 57 31s45 48 64 80c20 33 33 58 38 76c16 54 50 36 64 47
c11 -60 15 -140 -13 -243c91 67 94 107 117 147l12 27c4 8 17 12 17 1c0 -3 -1 -7 -3 -12c-29 -61 -54 -105 -74 -132c-19 -27 -46 -48 -80 -64c-16 -45 -39 -90 -70 -135c-30 -45 -68 -84 -114 -118s-92 -51 -137 -51zM-85 -258c0 -25 16 -38 49 -38c39 0 94 28 126 52
c27 22 57 55 90 98c25 35 44 68 57 101l-35 -12c-104 -36 -177 -68 -220 -96c-31 -21 -52 -47 -62 -79c-3 -10 -5 -19 -5 -26zM263 474c0 53 47 94 94 110c4 1 9 2 9 -3c0 -3 -3 -6 -8 -7c-41 -14 -64 -40 -68 -78c27 18 60 6 56 -29c-3 -20 -22 -36 -45 -36s-38 19 -38 43z
" />
    <glyph glyph-name="Hcircumflex" unicode="&#x124;" horiz-adv-x="1381" 
d="M1537 760c0 -2 -4 -5 -13 -10c-9 -4 -24 -21 -45 -52s-47 -78 -79 -141s-60 -130 -84 -201c41 0 66 2 77 6c23 8 28 1 11 -11c-22 -15 -54 -24 -97 -27c-1 -1 -6 -17 -16 -48c-33 -103 -50 -176 -50 -217c2 -69 40 -73 70 -51c38 28 80 88 125 181c11 23 26 17 15 -7
c-25 -53 -45 -91 -62 -116c-16 -25 -34 -47 -55 -68c-27 -26 -55 -39 -82 -39c-31 0 -52 13 -64 38c-16 38 -8 55 -5 107c2 18 7 40 14 66l18 60c5 14 11 33 20 56l14 38c-29 0 -142 4 -339 13c-41 -121 -105 -230 -192 -326c-43 -47 -92 -87 -149 -119
c-76 -42 -156 -63 -240 -63c-71 0 -164 16 -241 75c-77 57 -115 161 -84 281c8 31 26 59 53 86c28 27 51 40 69 41c21 0 12 -10 2 -14c-20 -9 -41 -28 -62 -57c-28 -39 -42 -84 -42 -135c0 -80 39 -140 116 -179c47 -23 101 -35 164 -35c27 0 53 3 77 8
c226 51 385 197 477 439c-17 0 -34 -4 -51 -12c-32 -15 -39 -13 -40 -5c0 11 8 22 24 32c16 11 30 17 42 18h39c43 107 91 215 146 324l-74 -7l-78 -7c-20 -2 -45 -5 -74 -10s-54 -10 -73 -17c-39 -12 -92 -36 -124 -65c-38 -36 -65 -80 -81 -132c-7 -21 -10 -44 -10 -68
s9 -47 26 -70s40 -34 69 -34c57 0 97 33 121 98c40 89 -6 94 14 104c5 1 9 -2 12 -8c16 -35 19 -74 -8 -121c-23 -41 -53 -69 -92 -83c-37 -13 -75 -14 -112 2c-35 15 -61 41 -78 78c-21 44 -19 80 -7 131c13 52 52 111 108 143c56 33 107 54 183 65l100 12c29 3 63 5 103 7
s70 4 89 6c7 13 18 28 33 46c31 37 52 37 64 37c25 0 37 -11 37 -32s-14 -38 -41 -52s-53 -21 -77 -21c-18 -35 -44 -97 -77 -186l-52 -140c50 0 114 -3 193 -9c79 -5 128 -8 146 -8c13 39 36 94 68 166c33 72 61 126 86 163s48 60 69 67c44 16 56 13 56 9zM1376 848l27 -82
c1 -3 0 -5 -5 -5c-5 1 -8 2 -10 5l-36 55l-101 -55c-12 -11 -24 -3 -20 0l115 82c19 3 30 3 30 0zM1116 772c-8 0 -25 -16 -50 -49c43 7 65 18 64 35c-1 7 -4 12 -11 13c-1 1 -2 1 -3 1z" />
    <glyph glyph-name="hcircumflex" unicode="&#x125;" horiz-adv-x="332" 
d="M235 45c0 -19 7 -28 20 -28c31 0 76 59 133 176c9 19 23 10 14 -10c-45 -92 -82 -148 -112 -169c-32 -24 -77 -27 -104 10c-6 9 -9 20 -9 35s3 34 10 55s25 56 55 104c7 12 11 21 11 28s-6 11 -17 11s-33 -15 -65 -45c-48 -44 -95 -110 -140 -198c-5 -10 -17 -15 -37 -15
c-18 -1 -29 -3 -34 -6c127 263 218 447 275 551c25 47 41 63 68 63c7 0 34 -5 45 -4c-20 -21 -56 -78 -108 -172c-51 -93 -101 -188 -148 -285c31 39 59 70 84 92s56 43 92 62c36 20 62 30 79 30c4 0 8 -1 11 -2c-82 -144 -123 -238 -123 -283zM374 740l-132 -71
c-19 -13 -35 -2 -25 0l149 106c24 4 38 4 38 0l36 -106c1 -1 1 -2 1 -4c0 -3 -17 -4 -21 4z" />
    <glyph glyph-name="Hbar" unicode="&#x126;" horiz-adv-x="1381" 
d="M1129 803c25 0 37 -11 37 -32s-14 -38 -41 -52s-53 -21 -77 -21c-15 -30 -34 -73 -56 -130h356c52 109 95 170 128 181c25 9 41 14 47 14c7 0 11 -1 13 -2c5 -1 -9 -8 -13 -11c-8 -4 -23 -23 -46 -57c-23 -33 -47 -75 -72 -125h160l-9 -40h-170
c-27 -57 -50 -115 -70 -172c41 0 66 2 77 6c23 8 28 1 11 -11c-22 -15 -54 -24 -97 -27c-1 -1 -6 -17 -16 -48c-33 -103 -50 -176 -50 -217c2 -69 40 -73 70 -51c38 28 80 88 125 181c11 23 26 17 15 -7c-25 -53 -45 -91 -62 -116c-16 -25 -34 -47 -55 -68
c-27 -26 -55 -39 -82 -39c-31 0 -52 13 -64 38c-16 38 -8 55 -5 107c2 18 7 40 14 66l18 60c5 14 11 33 20 56l14 38c-29 0 -142 4 -339 13c-41 -121 -105 -230 -192 -326c-43 -47 -92 -87 -149 -119c-76 -42 -156 -63 -240 -63c-71 0 -164 16 -241 75
c-77 57 -115 161 -84 281c8 31 26 59 53 86c28 27 51 40 69 41c21 0 12 -10 2 -14c-20 -9 -41 -28 -62 -57c-28 -39 -42 -84 -42 -135c0 -80 39 -140 116 -179c47 -23 101 -35 164 -35c27 0 53 3 77 8c226 51 385 197 477 439c-17 0 -34 -4 -51 -12c-32 -15 -39 -13 -40 -5
c0 11 8 22 24 32c16 11 30 17 42 18h39c23 57 45 109 66 156h-198l10 40h207c28 61 48 103 61 128l-74 -7l-78 -7c-20 -2 -45 -5 -74 -10s-54 -10 -73 -17c-39 -12 -92 -36 -124 -65c-38 -36 -65 -80 -81 -132c-7 -21 -10 -44 -10 -68s9 -47 26 -70s40 -34 69 -34
c57 0 97 33 121 98c40 89 -6 94 14 104c5 1 9 -2 12 -8c16 -35 19 -74 -8 -121c-23 -41 -53 -69 -92 -83c-37 -13 -75 -14 -112 2c-35 15 -61 41 -78 78c-21 44 -19 80 -7 131c13 52 52 111 108 143c56 33 107 54 183 65l100 12c29 3 63 5 103 7s70 4 89 6c7 13 18 28 33 46
c31 37 52 37 64 37zM1258 355c13 39 37 97 71 173h-352l-58 -156c50 0 114 -3 193 -9c79 -5 128 -8 146 -8zM1116 772c-8 0 -25 -16 -50 -49c43 7 65 18 64 35c-1 7 -4 12 -11 13c-1 1 -2 1 -3 1z" />
    <glyph glyph-name="hbar" unicode="&#x127;" horiz-adv-x="332" 
d="M242 218c7 12 11 21 11 28s-6 11 -17 11s-33 -15 -65 -45c-48 -44 -95 -110 -140 -198c-5 -10 -17 -15 -37 -15c-18 -1 -29 -3 -34 -6c110 229 190 392 241 488h-77l13 20h74l24 43c25 47 41 63 68 63c7 0 34 -5 45 -4c-13 -13 -35 -47 -68 -102h67l-12 -20h-67
c-55 -97 -114 -208 -176 -335c31 39 59 70 84 92s56 43 92 62c36 20 62 30 79 30c4 0 8 -1 11 -2c-82 -144 -123 -238 -123 -283c0 -19 7 -28 20 -28c31 0 76 59 133 176c9 19 18 10 18 3c0 -3 -4 -13 -12 -29c-15 -31 -27 -54 -56 -101c-31 -47 -63 -70 -98 -70
c-23 0 -41 9 -54 28c-6 9 -9 20 -9 35s3 34 10 55s25 56 55 104z" />
    <glyph glyph-name="Itilde" unicode="&#x128;" horiz-adv-x="929" 
d="M1120 637l-42 -9c-45 -84 -86 -191 -123 -322c-13 -45 -32 -96 -58 -152c-26 -55 -57 -106 -93 -153c-133 -170 -302 -255 -509 -255c-96 0 -172 21 -229 62c-39 29 -64 66 -77 112c-9 33 -14 85 13 156c14 36 36 68 67 95c31 28 55 43 73 44c7 0 11 -1 12 -3
c2 -3 -2 -6 -11 -11c-21 -9 -44 -28 -69 -59c-39 -47 -59 -99 -59 -158c0 -45 14 -83 43 -115c36 -40 87 -67 153 -82c29 -7 52 -10 67 -10c31 0 59 -2 112 11c55 14 108 37 159 68c101 63 169 134 230 222c52 75 91 149 118 222c47 123 97 231 150 323
c-106 -22 -190 -46 -253 -73c-64 -28 -114 -59 -149 -94c-44 -45 -72 -95 -85 -151c-4 -16 -6 -31 -6 -44c0 -56 37 -94 72 -94c36 0 80 15 111 52c21 27 32 60 32 97c0 19 -3 30 -8 35c-1 2 -1 5 2 9c7 10 13 10 19 0c17 -33 19 -72 -6 -119c-23 -43 -55 -72 -98 -88
c-21 -8 -44 -12 -69 -12c-24 0 -50 11 -78 33s-42 53 -42 92c0 12 1 25 4 39c38 171 228 286 570 344c6 13 17 28 32 47c32 37 53 39 68 39c22 0 33 -9 34 -28c0 -20 -8 -35 -24 -46c-15 -9 -32 -17 -53 -24zM1095 653c45 9 67 22 65 38c-1 8 -6 12 -14 12
c-7 0 -24 -17 -51 -50zM1200 758c-13 0 -32 5 -55 15c-51 23 -77 26 -96 -10c-1 -4 -7 -4 -16 -1l-4 3c23 41 49 62 78 62c14 0 33 -5 56 -14c51 -21 77 -26 98 13c1 4 7 4 15 1l2 -2c-21 -45 -47 -67 -78 -67z" />
    <glyph glyph-name="itilde" unicode="&#x129;" horiz-adv-x="174" 
d="M25 130l87 166c13 25 21 39 25 42c4 4 14 6 29 6h51l-10 -8c-12 -8 -21 -17 -27 -28c-51 -83 -86 -148 -104 -194c-12 -26 -18 -47 -18 -64c0 -19 11 -28 32 -28l39 19c27 26 58 76 94 151c11 20 24 11 9 -18l-16 -33c-4 -8 -12 -23 -25 -45c-12 -22 -23 -39 -33 -50
c-19 -21 -49 -46 -86 -46c-60 0 -76 78 -47 130zM258 384c-13 0 -32 5 -55 15c-51 23 -77 26 -96 -10c-1 -4 -7 -4 -16 -1l-4 3c23 41 49 62 78 62c14 0 33 -5 56 -14c51 -21 77 -26 98 13c1 4 7 4 15 1l2 -2c-21 -45 -47 -67 -78 -67z" />
    <glyph glyph-name="Imacron" unicode="&#x12a;" horiz-adv-x="929" 
d="M1120 637l-42 -9c-45 -84 -86 -191 -123 -322c-13 -45 -32 -96 -58 -152c-26 -55 -57 -106 -93 -153c-133 -170 -302 -255 -509 -255c-96 0 -172 21 -229 62c-39 29 -64 66 -77 112c-9 33 -14 85 13 156c14 36 36 68 67 95c31 28 55 43 73 44c7 0 11 -1 12 -3
c2 -3 -2 -6 -11 -11c-21 -9 -44 -28 -69 -59c-39 -47 -59 -99 -59 -158c0 -45 14 -83 43 -115c36 -40 87 -67 153 -82c29 -7 52 -10 67 -10c31 0 59 -2 112 11c55 14 108 37 159 68c101 63 169 134 230 222c52 75 91 149 118 222c47 123 97 231 150 323
c-106 -22 -190 -46 -253 -73c-64 -28 -114 -59 -149 -94c-44 -45 -72 -95 -85 -151c-4 -16 -6 -31 -6 -44c0 -56 37 -94 72 -94c36 0 80 15 111 52c21 27 32 60 32 97c0 19 -3 30 -8 35c-1 2 -1 5 2 9c7 10 13 10 19 0c17 -33 19 -72 -6 -119c-23 -43 -55 -72 -98 -88
c-21 -8 -44 -12 -69 -12c-24 0 -50 11 -78 33s-42 53 -42 92c0 12 1 25 4 39c38 171 228 286 570 344c6 13 17 28 32 47c32 37 53 39 68 39c22 0 33 -9 34 -28c0 -20 -8 -35 -24 -46c-15 -9 -32 -17 -53 -24zM1095 653c45 9 67 22 65 38c-1 8 -6 12 -14 12
c-7 0 -24 -17 -51 -50zM1053 826h213l-12 -30h-214z" />
    <glyph glyph-name="imacron" unicode="&#x12b;" horiz-adv-x="174" 
d="M25 130l87 166c13 25 21 39 25 42c4 4 14 6 29 6h51l-10 -8c-12 -8 -21 -17 -27 -28c-51 -83 -86 -148 -104 -194c-12 -26 -18 -47 -18 -64c0 -19 11 -28 32 -28l39 19c27 26 58 76 94 151c11 20 24 11 9 -18l-16 -33c-4 -8 -12 -23 -25 -45c-12 -22 -23 -39 -33 -50
c-19 -21 -49 -46 -86 -46c-60 0 -76 78 -47 130zM120 447h197l-11 -27h-198z" />
    <glyph glyph-name="Iogonek" unicode="&#x12e;" horiz-adv-x="929" 
d="M1119 637l-42 -9c-32 -59 -64 -143 -97 -252c-42 -136 -107 -255 -195 -358c-45 -52 -97 -96 -157 -131c-84 -49 -181 -76 -292 -79c-81 -68 -133 -181 -69 -179c14 0 31 10 51 30c9 4 11 1 10 -4c-2 -11 -13 -23 -32 -36s-37 -19 -56 -19c-35 0 -52 14 -52 41
c0 23 12 51 37 83s53 60 83 84c-113 1 -198 32 -254 93c-33 36 -49 79 -49 130c0 35 8 73 23 114c12 31 33 60 64 87c31 28 55 43 73 44c7 0 11 -1 12 -2c2 -3 -2 -7 -11 -12c-21 -9 -44 -28 -69 -58c-39 -47 -59 -100 -59 -159c0 -45 14 -83 43 -115c36 -40 87 -67 153 -82
c29 -7 52 -10 67 -10c31 0 59 -2 112 11c55 14 108 37 159 68c101 63 169 134 230 223c52 75 91 148 118 221c28 75 50 127 66 157l31 55l17 29l12 21c-106 -22 -190 -46 -253 -73c-64 -28 -114 -59 -149 -94c-44 -45 -72 -95 -85 -151c-4 -16 -6 -31 -6 -44
c0 -56 37 -94 72 -94c36 0 80 15 111 52c21 27 32 60 32 97c0 19 -3 30 -8 35c-1 2 -1 5 2 9c7 10 13 10 19 0c17 -33 19 -72 -6 -119c-23 -43 -55 -72 -98 -88c-21 -8 -44 -12 -69 -12c-24 0 -50 11 -78 33s-42 53 -42 92c0 12 1 25 4 39c38 171 228 286 570 344
c6 13 17 28 32 47c32 37 53 39 68 39c22 0 33 -9 34 -28c0 -20 -8 -35 -24 -46c-15 -9 -32 -17 -53 -24zM1094 653c45 9 67 22 65 38c-1 8 -6 12 -14 12c-7 0 -24 -17 -51 -50z" />
    <glyph glyph-name="iogonek" unicode="&#x12f;" horiz-adv-x="174" 
d="M97 22c13 0 26 6 40 19c25 25 56 75 94 151c5 10 9 13 14 9c1 -1 2 -4 2 -7c0 -5 -14 -36 -21 -49c-3 -7 -11 -20 -22 -41c-11 -20 -21 -35 -29 -46c-16 -20 -45 -48 -69 -55c-28 -24 -53 -51 -76 -81c-45 -60 -45 -109 -6 -109c14 0 31 10 51 30c9 4 11 1 10 -4
c-3 -12 -13 -24 -32 -37s-37 -19 -56 -19c-35 0 -52 14 -52 42c0 25 15 56 44 91s58 63 88 84c-40 4 -57 38 -57 70c0 19 4 39 13 60l64 163c3 8 6 21 -10 42l55 1c31 0 34 -11 21 -35l-80 -187c-11 -25 -17 -46 -17 -63c0 -19 10 -29 31 -29zM195 389
c-19 -16 -45 -16 -57 -1c-13 21 -16 33 8 59c19 16 45 16 57 1c15 -19 16 -33 -8 -59z" />
    <glyph glyph-name="Idot" unicode="&#x130;" horiz-adv-x="929" 
d="M1120 638l-42 -9c-45 -84 -86 -191 -123 -322c-13 -45 -32 -96 -58 -152c-26 -55 -57 -106 -93 -153c-133 -170 -302 -255 -509 -255c-96 0 -172 21 -229 63c-39 28 -64 65 -77 112c-9 32 -14 84 13 155c14 36 36 68 67 95c31 28 55 43 73 44c7 0 11 -1 12 -2
c2 -3 -2 -7 -11 -12c-21 -9 -44 -28 -69 -58c-39 -47 -59 -100 -59 -159c0 -45 14 -83 43 -115c36 -40 87 -67 153 -82c29 -7 52 -10 67 -10c31 0 59 -2 112 11c55 14 108 37 159 68c101 63 169 134 230 223c52 75 91 148 118 221c47 123 97 231 150 323
c-106 -22 -190 -47 -253 -74c-64 -27 -114 -59 -149 -94c-44 -44 -72 -94 -85 -150c-4 -16 -6 -31 -6 -44c0 -56 37 -94 72 -94c36 0 80 15 111 52c21 27 32 60 32 97c0 19 -3 30 -8 35c-1 2 -1 5 2 9c7 10 13 10 19 0c17 -33 19 -72 -6 -119c-23 -43 -55 -72 -98 -88
c-21 -8 -44 -12 -69 -12c-24 0 -50 11 -78 33s-42 53 -42 92c0 12 1 25 4 39c38 171 228 286 570 344c6 13 17 28 32 47c32 37 53 39 68 39c22 0 33 -9 34 -28c0 -20 -8 -35 -24 -46c-15 -9 -32 -17 -53 -24zM1095 654c45 9 67 22 65 38c-1 8 -6 12 -14 12
c-7 0 -24 -17 -51 -50zM1110 850c16 0 24 -10 24 -30c0 -10 -5 -20 -15 -31c-20 -20 -56 -22 -56 5c0 11 5 23 15 36c11 13 21 20 32 20z" />
    <glyph glyph-name="dotlessi" unicode="&#x131;" horiz-adv-x="174" 
d="M25 130l87 166c13 25 21 39 25 42c4 4 14 6 29 6h51l-10 -8c-12 -8 -21 -17 -27 -28c-51 -83 -86 -148 -104 -194c-12 -26 -18 -47 -18 -64c0 -19 11 -28 32 -28l39 19c27 26 58 76 94 151c5 10 10 13 14 9c4 -3 6 -5 -6 -30l-15 -30c-4 -8 -12 -23 -25 -45
c-12 -22 -23 -39 -33 -50c-19 -21 -49 -46 -86 -46c-60 0 -76 78 -47 130z" />
    <glyph glyph-name="Jcircumflex" unicode="&#x134;" horiz-adv-x="998" 
d="M1186 641l-43 -8c-51 -89 -101 -208 -148 -358c-18 -57 -43 -122 -76 -196c-33 -73 -66 -136 -100 -189c-68 -107 -146 -171 -229 -211c-109 -53 -218 -79 -325 -79c-55 0 -106 8 -152 23c-72 24 -121 64 -148 119c-24 49 -27 116 9 208c13 31 35 59 67 86s57 40 75 41
c8 1 12 -1 12 -4c-1 -3 -5 -6 -13 -10c-21 -9 -45 -28 -71 -57c-52 -59 -64 -125 -64 -157c0 -49 13 -88 39 -117c36 -41 92 -76 153 -88c91 -17 138 -16 179 -5c126 28 239 100 338 217c71 83 137 192 200 328c15 33 29 62 40 88c66 148 127 267 184 357
c-93 -15 -187 -49 -283 -100c-49 -26 -90 -59 -125 -99c-45 -51 -67 -105 -67 -163c0 -63 37 -99 70 -99s77 13 109 50c25 29 38 62 38 100c0 16 -2 27 -7 32c-8 5 -9 10 -2 15c7 4 15 2 23 -7c13 -29 17 -68 -12 -119c-25 -42 -59 -71 -102 -86c-20 -7 -39 -10 -57 -10
c-30 0 -57 10 -81 29c-31 25 -46 59 -46 102c0 54 19 106 58 156c59 75 138 120 238 159c81 31 168 53 263 66c8 13 20 29 36 47c32 36 53 36 66 36c23 0 35 -10 35 -29c-1 -36 -30 -52 -81 -68zM1229 695c-1 10 -7 14 -16 11c-14 -5 -37 -33 -52 -48c46 8 69 20 68 37z
M1260 812l-132 -71c-19 -13 -35 -2 -25 0l149 106c25 4 37 4 38 0l36 -106c1 -1 1 -2 1 -4c0 -3 -17 -4 -21 4z" />
    <glyph glyph-name="jcircumflex" unicode="&#x135;" horiz-adv-x="177" 
d="M51 178l53 115c4 8 7 21 -10 42l55 1c31 0 34 -11 21 -35l-80 -187c-17 -39 -37 -83 -62 -132l57 23c12 5 26 15 43 29s32 30 44 48c13 19 34 56 63 111c9 19 23 11 14 -9c-19 -40 -35 -70 -46 -89s-26 -39 -44 -59c-36 -40 -75 -59 -148 -86
c-51 -93 -103 -162 -156 -206c-40 -33 -97 -60 -156 -60c-93 2 -110 60 -78 122c17 34 49 61 94 82c34 16 79 31 135 45c56 13 92 22 108 27l30 52l72 150c-11 0 -14 5 -9 16zM-360 -217c-22 -45 -8 -79 37 -79c39 0 80 20 125 60c63 56 108 111 137 164
c-111 -29 -180 -50 -207 -62c-43 -19 -74 -46 -92 -83zM190 460l-132 -71c-19 -13 -35 -2 -25 0l149 106c25 4 37 4 38 0l36 -106c8 -2 -7 -13 -20 0z" />
    <glyph glyph-name="Kcommaaccent" unicode="&#x136;" horiz-adv-x="1193" 
d="M899 152c-4 23 -7 41 -8 56c-3 29 -5 68 6 72h3c20 0 57 14 111 41s115 64 184 110c69 47 141 106 216 178c75 73 137 146 186 220c9 13 16 19 22 19s17 -8 3 -32c-76 -126 -183 -245 -321 -356s-253 -178 -346 -201c-3 -4 -3 -15 0 -44c1 -15 8 -43 19 -85
c12 -41 26 -80 41 -115c45 -104 105 -156 179 -156c43 0 83 9 122 27s68 44 85 78c8 19 28 21 13 -8c-18 -37 -50 -69 -95 -97c-89 -57 -188 -60 -272 9c-73 60 -123 155 -148 284zM1150 734c-21 -19 -55 -31 -101 -36c-38 -69 -82 -179 -131 -331
c-18 -55 -42 -114 -73 -177c-30 -62 -62 -116 -97 -163c-69 -93 -187 -172 -331 -193c-47 -7 -103 -9 -170 6c-122 28 -201 88 -236 180c-21 56 -20 110 -5 169c8 29 25 55 50 78c26 23 47 36 64 38c9 1 13 -1 13 -6c0 -3 -2 -6 -6 -8c-16 -7 -35 -25 -58 -52
c-29 -36 -44 -81 -44 -134c0 -55 17 -99 50 -133c41 -43 89 -69 144 -80c76 -15 122 -14 159 -3c55 13 106 33 153 60c96 53 154 110 213 194c30 43 53 80 70 112s48 97 91 195s81 180 114 246l-86 -8c-87 -7 -155 -18 -204 -32c-91 -25 -156 -74 -195 -146
c-19 -35 -28 -68 -28 -101c0 -17 3 -34 8 -51c15 -45 44 -67 87 -67c55 0 93 28 115 85c33 85 3 117 17 117c5 -1 10 -6 14 -13c12 -28 15 -66 -10 -115c-20 -42 -48 -70 -84 -83c-22 -8 -43 -12 -62 -12c-33 0 -63 12 -90 36c-36 32 -54 74 -54 125c0 73 34 134 102 183
c63 47 153 76 272 89c36 4 77 7 123 10c47 3 76 6 89 7c7 13 18 28 33 46c31 37 51 37 71 37c28 -4 49 -40 13 -69zM1138 764c0 7 -3 11 -9 11c-15 0 -25 -8 -62 -52c19 3 34 7 44 12c18 9 27 18 27 29zM823 -213c0 -53 -47 -94 -94 -110c-4 -1 -9 -2 -9 3c0 3 3 6 8 7
c41 14 64 40 68 78c-27 -18 -60 -6 -56 29c3 20 22 36 45 36s38 -19 38 -43z" />
    <glyph glyph-name="kcommaaccent" unicode="&#x137;" horiz-adv-x="345" 
d="M315 270c0 18 -9 27 -27 27c-27 0 -58 -15 -93 -46c-35 -30 -64 -62 -87 -95c-10 -19 -18 -44 -25 -73c-12 -59 -11 -76 -3 -83h-63c-10 0 -13 9 -8 26c5 18 12 37 21 58s19 44 32 71l29 62c-55 -103 -90 -163 -106 -178c-7 -6 -10 -4 -10 6c0 2 1 4 2 7
c23 31 70 114 139 250c70 136 119 225 147 267c23 33 45 49 66 49h1h5c1 0 6 -1 17 -3s20 -2 25 -1c-25 -19 -59 -62 -102 -129c-87 -133 -137 -238 -154 -290c61 75 115 122 163 140c23 7 41 11 54 11c29 0 44 -12 44 -37c0 -8 -2 -17 -5 -27c-9 -25 -29 -48 -58 -69
c-29 -20 -60 -32 -95 -35c-16 -37 -14 -69 -7 -94c8 -32 23 -52 45 -59c5 -1 9 -2 14 -2c19 0 41 12 66 35c21 23 48 68 81 137c9 17 15 5 15 0s-21 -60 -57 -116c-38 -57 -80 -86 -126 -86c-28 0 -50 8 -65 24c-22 23 -33 52 -33 89c0 19 5 38 15 57s22 30 35 31h6
c23 0 46 9 68 27c23 18 34 34 34 49zM132 -110c0 -53 -47 -94 -94 -110c-4 -1 -9 -2 -9 3c0 3 3 6 8 7c41 14 64 40 68 78c-27 -18 -60 -6 -56 29c3 20 22 36 45 36s38 -19 38 -43z" />
    <glyph glyph-name="kgreenlandic" unicode="&#x138;" horiz-adv-x="345" 
d="M115 189c84 105 158 158 223 158c19 0 31 -6 38 -18c4 -12 6 -27 -7 -43s-29 -12 -37 -11c-1 12 -11 19 -28 21c-29 4 -65 -10 -106 -41c-28 -79 -27 -139 -4 -186c15 -30 35 -45 61 -45c23 0 45 11 66 34s49 68 82 137c9 17 15 5 15 0s-21 -60 -58 -116
c-37 -57 -79 -86 -125 -86c-59 0 -102 38 -111 87c-8 49 -7 76 -2 97c-19 -25 -32 -44 -39 -57s-23 -48 -49 -106c-4 -9 -9 -13 -15 -14c-12 -1 -47 -2 -56 -7l146 313c25 51 42 66 70 66h3l24 -4l-9 -18c-14 -26 -41 -80 -82 -161z" />
    <glyph glyph-name="Lacute" unicode="&#x139;" horiz-adv-x="746" 
d="M916 617c0 -79 -42 -177 -119 -258c-77 -80 -187 -145 -292 -162c-19 -38 -41 -80 -66 -127c132 -33 241 -82 328 -149c44 -34 74 -76 89 -125c24 -75 8 -121 -23 -136c-26 -9 -36 -19 -15 28c21 42 21 137 -54 204c-25 22 -61 43 -106 63c-45 19 -84 33 -117 42
c-33 8 -77 17 -132 28c-57 -79 -116 -134 -177 -163c-73 -36 -129 -33 -173 -10c-38 19 -57 47 -57 85s25 71 75 100c57 33 133 50 230 50c35 0 66 -3 94 -8c13 17 33 55 62 114h-11c-84 0 -160 30 -203 77c-28 32 -42 68 -42 107c0 21 5 43 15 67c21 48 96 104 205 129
c17 4 30 5 33 -2s-14 -12 -31 -15c-29 -3 -55 -13 -79 -28c-43 -28 -73 -70 -90 -127c-9 -37 -14 -77 31 -137c15 -18 36 -31 62 -38c53 -15 91 -12 124 -8l84 207c61 152 131 245 210 278c20 9 40 13 59 13c40 0 81 -34 85 -74c1 -8 1 -16 1 -25zM874 621
c-1 23 -12 35 -35 35c-33 0 -74 -30 -123 -89c-37 -45 -74 -103 -111 -175c-30 -55 -59 -111 -86 -168c60 13 117 40 171 79c55 40 99 88 133 145s51 115 51 173zM370 31c-65 15 -135 16 -208 -4c-77 -20 -122 -48 -135 -85c-3 -7 -4 -13 -4 -19c0 -35 46 -59 91 -59
c31 0 65 9 102 26c55 27 107 74 154 141zM834 733c-1 0 -6 2 -6 6s-5 3 30 28c36 27 82 59 101 72s38 11 49 6c16 -7 13 -18 9 -26c-3 -7 -33 -24 -89 -49c-55 -25 -87 -37 -94 -37z" />
    <glyph glyph-name="lacute" unicode="&#x13a;" horiz-adv-x="212" 
d="M126 19c48 0 91 72 142 172c5 9 10 13 15 11c3 -3 4 -6 2 -11l-13 -28l-14 -30c-5 -11 -24 -47 -36 -62c-11 -13 -33 -40 -50 -51c-47 -29 -91 -26 -114 -9c-33 32 -22 53 -23 88c2 21 6 42 12 62c7 20 10 31 11 34c15 55 37 116 65 181c29 65 53 114 72 147
c20 33 36 56 47 68c23 24 43 34 62 35c19 2 31 -9 36 -32c1 -4 1 -9 1 -15c0 -23 -8 -51 -24 -86c-57 -127 -126 -227 -205 -300c-1 -5 -15 -44 -23 -73c-9 -36 -10 -101 37 -101zM311 586c-7 0 -19 -13 -38 -40c-19 -26 -44 -73 -76 -142c-31 -68 -57 -128 -77 -179
c34 35 68 78 101 131s58 97 73 134c32 75 26 96 17 96zM306 699c-1 0 -6 2 -6 6c0 3 1 5 2 7s11 10 28 23c18 13 37 27 58 41c41 29 55 43 72 43c34 0 39 -18 32 -31c-3 -8 -33 -25 -90 -51c-57 -25 -89 -38 -96 -38z" />
    <glyph glyph-name="Lcommaaccent" unicode="&#x13b;" horiz-adv-x="746" 
d="M959 750c0 -57 -19 -116 -57 -178c-37 -62 -89 -116 -156 -162c-66 -45 -134 -74 -205 -86c-41 -82 -70 -139 -88 -172l-21 -34c132 -33 241 -82 328 -149c44 -34 74 -76 89 -125c24 -75 8 -121 -23 -136c-26 -9 -36 -19 -15 28c21 42 21 137 -54 204
c-25 22 -61 43 -106 62c-45 20 -84 34 -117 42c-33 9 -77 18 -132 29c-57 -79 -116 -134 -177 -163c-73 -36 -129 -33 -173 -10c-38 19 -57 47 -57 85s25 71 75 100c57 33 133 50 230 50c35 0 66 -3 94 -8c30 47 65 111 105 193h-11c-84 0 -160 30 -203 78
c-28 31 -42 67 -42 106c0 21 5 43 15 67c21 48 96 104 205 129c17 4 30 5 33 -2s-14 -12 -31 -15c-29 -3 -55 -13 -80 -29c-43 -27 -72 -69 -89 -126c-9 -37 -14 -77 31 -137c15 -18 36 -31 62 -38c53 -15 91 -12 124 -8l85 206c63 157 134 252 215 286c19 9 39 13 59 13
c40 0 82 -34 86 -75c1 -9 1 -17 1 -25zM917 751c0 25 -12 38 -35 38c-34 0 -75 -30 -124 -89c-38 -47 -76 -108 -115 -183c-31 -54 -61 -109 -88 -166c93 21 177 70 251 149s111 162 111 251zM363 79c-65 15 -135 16 -208 -4c-77 -20 -122 -48 -135 -85c-3 -7 -4 -13 -4 -19
c0 -35 46 -59 91 -59c31 0 65 9 102 26c55 27 107 74 154 141zM408 -139c0 -53 -47 -94 -94 -110c-4 -1 -9 -2 -9 3c0 3 3 6 8 7c41 14 64 40 68 78c-27 -18 -60 -6 -56 29c3 20 22 36 45 36s38 -19 38 -43z" />
    <glyph glyph-name="lcommaaccent" unicode="&#x13c;" horiz-adv-x="212" 
d="M126 19c48 0 91 72 142 172c5 9 10 13 15 11c3 -3 4 -6 2 -11l-13 -28l-14 -30c-5 -11 -24 -47 -36 -62c-11 -13 -33 -40 -50 -51c-47 -29 -91 -26 -114 -9c-33 32 -22 53 -23 88c2 21 6 42 12 62c7 20 10 31 11 34c15 55 37 116 65 181c57 131 96 191 119 215
s45 36 67 36c15 0 26 -11 31 -33c1 -4 1 -9 1 -15c0 -23 -8 -51 -24 -86c-57 -127 -126 -227 -205 -300c-1 -5 -15 -44 -23 -73c-9 -36 -10 -101 37 -101zM311 586c-7 0 -19 -13 -38 -40c-19 -26 -44 -73 -76 -142c-31 -68 -57 -128 -77 -179c34 35 68 78 101 131
s58 97 73 134c32 75 26 96 17 96zM120 -95c0 -53 -47 -94 -94 -110c-4 -1 -9 -2 -9 3c0 3 3 6 8 7c41 14 64 40 68 78c-27 -18 -60 -6 -56 29c3 20 22 36 45 36s38 -19 38 -43z" />
    <glyph glyph-name="Lcaron" unicode="&#x13d;" horiz-adv-x="746" 
d="M889 850c19 0 29 -12 29 -36c0 -47 -34 -74 -73 -86c-8 -4 -10 5 -1 8c33 10 51 31 55 62c-13 -9 -31 -10 -40 1c-15 19 2 51 30 51zM865 612c0 -81 -34 -158 -103 -231s-157 -118 -264 -136l-16 -35c-8 -18 -25 -49 -50 -92c132 -33 241 -82 328 -149
c44 -34 74 -76 89 -125c24 -75 8 -121 -23 -136c-26 -9 -36 -19 -15 28c21 42 21 137 -54 204c-25 22 -61 43 -106 62c-45 20 -84 34 -117 42c-33 9 -77 18 -132 29c-57 -79 -116 -134 -177 -163c-73 -36 -129 -33 -173 -10c-38 19 -57 47 -57 85s25 71 75 100
c57 33 133 50 230 50c35 0 66 -3 94 -8c35 53 51 93 62 114h-11c-84 0 -160 30 -203 77c-28 32 -42 68 -42 107c0 21 5 43 15 67c21 48 96 104 205 129c17 4 30 5 33 -2s-14 -12 -31 -15c-29 -3 -55 -13 -79 -28c-43 -28 -73 -70 -90 -127c-9 -37 -14 -77 31 -137
c15 -18 36 -31 62 -38c53 -15 91 -12 124 -8l74 172c57 143 122 230 195 259c32 13 71 17 100 -11c31 -28 26 -57 26 -74zM827 616c0 24 -10 36 -31 36c-33 0 -72 -31 -119 -93c-31 -41 -62 -91 -93 -152c-21 -33 -45 -78 -72 -135c91 20 167 62 226 126
c59 65 89 137 89 218zM363 79c-65 15 -135 16 -208 -4c-77 -20 -122 -48 -135 -85c-3 -7 -4 -13 -4 -19c0 -35 46 -59 91 -59c31 0 65 9 102 26c55 27 107 74 154 141z" />
    <glyph glyph-name="lcaron" unicode="&#x13e;" horiz-adv-x="370" 
d="M126 19c48 0 91 72 142 172c5 9 10 13 15 11c3 -3 4 -6 2 -11l-13 -28l-14 -30c-5 -11 -24 -47 -36 -62c-11 -13 -33 -40 -50 -51c-47 -29 -91 -26 -114 -9c-33 32 -22 53 -23 88c2 21 6 42 12 62c7 20 10 31 11 34c15 55 37 116 65 181c57 131 96 191 119 215
s45 36 67 36c15 0 26 -11 31 -33c1 -4 1 -9 1 -15c0 -23 -8 -51 -24 -86c-57 -127 -126 -227 -205 -300c-1 -5 -15 -44 -23 -73c-9 -36 -10 -101 37 -101zM311 586c-7 0 -19 -13 -38 -40c-19 -26 -44 -73 -76 -142c-31 -68 -57 -128 -77 -179c34 35 68 78 101 131
s58 97 73 134c32 75 26 96 17 96zM486 558c0 -59 -48 -99 -101 -116c-7 -7 -18 3 -2 11c40 13 71 44 76 87c-27 -21 -69 -7 -62 31c3 23 25 41 49 41c25 0 40 -25 40 -54z" />
    <glyph glyph-name="Ldotaccent" unicode="&#x13f;" horiz-adv-x="888" 
d="M629 245c3 23 25 41 48 41s38 -18 34 -41s-25 -41 -48 -41s-38 18 -34 41zM959 760c0 -58 -19 -119 -57 -182c-37 -63 -89 -119 -156 -166c-66 -47 -134 -76 -205 -88c-41 -82 -70 -139 -88 -172l-21 -34c132 -33 241 -82 328 -149c44 -34 74 -76 89 -125
c24 -75 8 -121 -23 -136c-26 -9 -36 -19 -15 28c21 42 21 137 -54 204c-25 22 -61 43 -106 62c-45 20 -84 34 -117 42c-33 9 -77 18 -132 29c-57 -79 -116 -134 -177 -163c-73 -36 -129 -33 -173 -10c-38 19 -57 47 -57 85s25 71 75 100c57 33 133 50 230 50
c35 0 66 -3 94 -8c30 47 65 111 105 193h-11c-84 0 -160 30 -203 78c-28 31 -42 67 -42 106c0 21 5 43 15 67c21 48 96 104 205 129c17 4 30 5 33 -2s-14 -12 -31 -15c-29 -3 -55 -13 -80 -29c-43 -27 -72 -69 -89 -126c-9 -37 -14 -77 31 -137c15 -18 36 -31 62 -38
c53 -15 91 -12 124 -8l85 214c59 151 129 243 210 278c21 9 42 13 62 13c41 0 85 -30 88 -67c1 -8 1 -16 1 -23zM917 759c0 25 -12 38 -35 38c-34 0 -75 -30 -124 -89c-38 -47 -75 -105 -110 -172s-66 -128 -93 -185c93 21 176 71 250 152c75 81 112 167 112 256zM363 79
c-65 15 -135 16 -208 -4c-77 -20 -122 -48 -135 -85c-3 -7 -4 -13 -4 -19c0 -35 46 -59 91 -59c31 0 65 9 102 26c55 27 107 74 154 141z" />
    <glyph glyph-name="Lslash" unicode="&#x141;" horiz-adv-x="746" 
d="M305 252l159 -1c8 14 20 37 35 70h-11c-84 0 -160 30 -203 77c-28 32 -42 68 -42 107c0 21 5 43 15 67c21 48 96 104 205 129c17 4 30 5 33 -2s-14 -12 -31 -15c-29 -3 -55 -13 -80 -28c-43 -28 -72 -70 -89 -127c-9 -37 -14 -77 31 -137c15 -18 36 -31 62 -38
c53 -15 91 -12 124 -8l85 214c63 155 135 248 216 279c39 15 80 18 115 -10c35 -27 31 -56 31 -79c0 -54 -18 -112 -55 -174c-37 -61 -89 -116 -157 -163c-67 -47 -136 -76 -207 -88l-36 -75c40 0 88 -1 144 -2c11 -1 18 -5 21 -13c-1 -8 -7 -13 -17 -14
c-42 0 -97 -2 -166 -5l-34 -63l-21 -34c132 -33 241 -82 328 -149c44 -34 74 -75 89 -124c24 -76 8 -122 -23 -137c-26 -9 -36 -19 -15 28c21 42 21 137 -54 204c-25 22 -61 43 -106 62c-45 20 -84 34 -117 42c-33 9 -77 18 -132 29c-57 -79 -116 -134 -177 -163
c-73 -36 -129 -33 -173 -10c-38 19 -57 47 -57 85s25 71 75 100c57 33 133 50 230 50c35 0 66 -3 94 -8c16 25 33 54 50 86c-63 -3 -109 -7 -139 -10c-15 -2 -28 48 0 48zM917 760c0 25 -12 38 -35 38c-34 0 -75 -30 -124 -89c-38 -47 -75 -105 -110 -172s-66 -128 -93 -185
c93 21 176 71 250 152c75 81 112 167 112 256zM363 80c-65 15 -135 16 -208 -4c-77 -20 -122 -48 -135 -85c-3 -7 -4 -13 -4 -19c0 -35 46 -59 91 -59c31 0 65 9 102 26c55 27 107 74 154 141z" />
    <glyph glyph-name="lslash" unicode="&#x142;" horiz-adv-x="212" 
d="M126 19c48 0 91 72 142 172c5 9 10 13 15 11c3 -3 4 -6 2 -11l-13 -28l-14 -30c-5 -11 -24 -47 -36 -62c-11 -13 -33 -40 -50 -51c-47 -29 -87 -25 -108 -14c-17 9 -27 28 -31 59c-1 7 -2 17 3 45c4 21 10 45 18 72l-46 -21c-7 -4 -7 6 -7 18c0 7 5 13 14 16l48 19
c36 119 85 231 147 334c31 53 64 79 99 79c15 0 26 -11 31 -33c1 -4 1 -9 1 -15c0 -23 -8 -51 -24 -86c-43 -97 -91 -176 -146 -239l66 24c7 3 10 1 11 -4c-1 -6 -5 -11 -12 -15l-96 -39l-28 -27c-1 -5 -15 -44 -23 -73c-9 -36 -10 -101 37 -101zM302 508c21 51 18 78 9 78
c-7 0 -18 -11 -33 -33c-40 -57 -91 -162 -154 -316c4 1 8 2 11 4c67 73 122 162 167 267z" />
    <glyph glyph-name="Nacute" unicode="&#x143;" horiz-adv-x="1039" 
d="M1054 619c0 26 -15 39 -45 39c-20 0 -43 -7 -69 -20c-127 -62 -243 -190 -348 -384c-55 -101 -103 -199 -145 -294c-8 -17 -25 -26 -51 -26c-17 0 -25 5 -26 16c-1 1 -1 3 0 5c30 44 72 125 125 243c54 119 91 222 110 310c7 29 10 53 10 72c0 51 -14 87 -43 106
c-17 11 -38 17 -62 17c-58 0 -123 -23 -196 -69c-95 -59 -163 -136 -205 -231c-22 -50 -33 -96 -33 -137c0 -23 3 -44 10 -64c17 -51 53 -77 106 -77c65 0 121 27 169 82c37 42 56 83 56 123c0 37 -18 57 -53 60c-27 -1 -46 -2 -36 9c5 7 24 11 56 11s53 -14 63 -43
c3 -10 5 -21 5 -32c0 -28 -11 -60 -33 -95c-36 -59 -85 -98 -148 -119c-27 -9 -57 -14 -91 -14s-66 13 -97 38c-30 25 -50 61 -59 107c-2 11 -3 24 -3 37c0 75 37 180 129 271c87 86 181 140 280 161c53 12 94 10 122 5c39 -5 69 -24 91 -55c17 -24 25 -55 25 -92
c0 -39 -7 -78 -22 -118c-5 -11 -8 -20 -10 -26c-4 -12 -19 -46 -23 -55c-14 -30 -22 -48 -25 -53l-24 -57l13 20c37 63 83 127 139 194c81 99 154 163 220 193c107 48 188 31 191 -62c0 -64 -42 -151 -121 -295c-79 -143 -140 -261 -140 -353c0 -16 2 -31 7 -44
c9 -27 25 -41 49 -41c28 0 62 20 75 20c8 0 12 -4 12 -12c0 -16 -31 -32 -47 -32c-99 0 -149 42 -149 126c0 32 5 64 16 96c11 33 49 119 116 259s103 228 108 265c1 5 1 10 1 15zM1123 845c15 -7 12 -16 7 -27c-3 -5 -30 -20 -83 -44c-52 -24 -80 -36 -83 -36
c-7 0 -11 2 -11 7c0 1 1 3 2 5c3 4 41 32 80 59c54 43 66 44 88 36z" />
    <glyph glyph-name="nacute" unicode="&#x144;" 
d="M359 328c-82 -144 -123 -238 -123 -282c0 -17 6 -26 19 -26c34 0 80 58 137 173c8 19 23 11 14 -9c-35 -71 -65 -121 -90 -148c-48 -53 -103 -49 -128 -12c-7 9 -10 20 -10 35s3 34 10 55s25 56 55 104c7 12 11 21 11 28s-6 11 -17 11s-33 -15 -65 -45
c-48 -44 -94 -110 -139 -198c-4 -7 -9 -11 -14 -13c-5 -1 -14 -2 -29 -3s-24 -2 -29 -5c11 21 32 65 63 131c56 117 93 183 110 200c8 8 19 12 33 12c5 0 34 -7 45 -4c-25 -13 -65 -76 -121 -188c31 39 60 69 85 92c26 23 57 45 93 64c36 20 62 30 79 30c4 0 8 -1 11 -2z
M264 413c-1 0 -6 2 -6 6c0 3 1 5 2 7s11 10 28 23c18 13 37 27 58 41c41 29 55 43 72 43c34 0 39 -18 32 -31c-3 -8 -33 -25 -90 -51c-57 -25 -89 -38 -96 -38z" />
    <glyph glyph-name="Ncommaaccent" unicode="&#x145;" horiz-adv-x="1039" 
d="M424 363c0 43 -22 64 -67 64c-17 0 -40 -3 -28 9c6 8 26 12 59 12c34 0 56 -15 67 -44c5 -11 7 -23 7 -36c0 -29 -11 -61 -32 -98c-36 -60 -86 -103 -149 -128c-33 -13 -69 -20 -109 -20c-79 0 -151 56 -171 155c-2 13 -3 26 -3 41c0 40 11 86 32 139s57 104 107 153
c95 93 195 151 300 173c59 12 102 10 133 6c41 -6 74 -26 97 -59c19 -26 28 -59 28 -99c0 -72 -23 -123 -28 -139l-15 -35l-13 -31c-2 -5 -7 -17 -16 -36c-28 -61 -41 -91 -40 -92l31 50c41 63 85 123 132 180c88 107 167 176 237 208c39 19 74 28 103 28
c59 0 103 -26 103 -95s-45 -162 -130 -317c-84 -155 -151 -281 -151 -380c0 -17 2 -33 7 -47c9 -31 27 -46 54 -46c29 0 65 22 81 22c8 0 12 -4 12 -13c0 -17 -34 -34 -50 -34c-107 0 -160 46 -160 139c0 34 6 68 17 103c12 35 54 127 125 277s110 245 116 284
c1 6 2 12 2 17c0 28 -16 42 -49 42c-22 0 -47 -7 -75 -22c-105 -50 -204 -146 -299 -287c-56 -83 -120 -202 -191 -355l-41 -88c-9 -19 -28 -29 -56 -29c-17 0 -26 5 -27 16c-1 2 -1 4 0 7c32 47 77 135 134 262c58 128 98 239 119 334c13 63 13 111 0 146
c-14 35 -38 56 -71 61c-10 1 -24 2 -42 2c-36 0 -112 -17 -201 -73c-101 -63 -174 -144 -219 -245c-25 -55 -37 -105 -37 -151c0 -23 3 -45 9 -66c22 -55 61 -84 116 -87c69 0 129 29 180 86c41 46 62 91 62 136zM765 -139c0 -53 -47 -94 -94 -110c-4 -1 -9 -2 -9 3
c0 3 3 6 8 7c41 14 64 40 68 78c-27 -18 -60 -6 -56 29c3 20 22 36 45 36s38 -19 38 -43z" />
    <glyph glyph-name="ncommaaccent" unicode="&#x146;" 
d="M359 328c-82 -144 -123 -238 -123 -282c0 -17 6 -26 19 -26c34 0 80 58 137 173c14 25 24 0 14 -9c-35 -71 -65 -121 -90 -148c-48 -53 -103 -49 -128 -12c-7 9 -10 20 -10 35s3 34 10 55s25 56 55 104c7 12 11 21 11 28s-6 11 -17 11s-33 -15 -65 -45
c-48 -44 -94 -110 -139 -198c-4 -7 -9 -11 -14 -13c-5 -1 -14 -2 -29 -3s-24 -2 -29 -5c11 21 32 65 63 131c56 117 93 183 110 200c8 8 19 12 33 12c5 0 34 -7 45 -4c-25 -13 -65 -76 -121 -188c31 39 60 69 85 92c26 23 57 45 93 64c36 20 62 30 79 30c4 0 8 -1 11 -2z
M153 -98c0 -53 -47 -94 -94 -110c-4 -1 -9 -2 -9 3c0 3 3 6 8 7c41 14 64 40 68 78c-27 -18 -60 -6 -56 29c3 20 22 36 45 36s38 -19 38 -43z" />
    </font>
</defs>
</svg>
