<?xml version="1.0" standalone="no"?>
<!DOCTYPE svg PUBLIC "-//W3C//DTD SVG 1.1//EN" "http://www.w3.org/Graphics/SVG/1.1/DTD/svg11.dtd" >
<svg xmlns="http://www.w3.org/2000/svg" xmlns:xlink="http://www.w3.org/1999/xlink" version="1.1">
<metadata>
Created by FontForge 20160407 at Fri May 13 07:13:47 2016
 By Jimmy Wärting
Copyright (c) 2016 by Artimasa. All rights reserved.
</metadata>
<defs>
<font id="FSPlaylistScript" horiz-adv-x="436" >
  <font-face 
    font-family="FS Playlist Script"
    font-weight="400"
    font-stretch="normal"
    units-per-em="1000"
    panose-1="0 0 0 0 0 0 0 0 0 0"
    ascent="800"
    descent="-200"
    x-height="319"
    cap-height="730"
    bbox="-272.725 -469.447 1028 1084"
    underline-thickness="50"
    underline-position="-100"
    unicode-range="U+000D-20AC"
  />
<missing-glyph horiz-adv-x="280" 
 />
    <glyph glyph-name="t_t" unicode="tt" horiz-adv-x="547" 
d="M392 263q-23 -60 -41.5 -121t-37.5 -123q-8 -29 -17 -60.5t-9 -62.5q0 -8 1 -15.5t6 -12.5q14 3 25.5 14t20.5 21l-3 -2.5l-6 -5t-6 -4.5t-3 -1q0 2 3 6t6.5 8t7.5 7.5t5 5.5l27 33l50 65q28 38 55 75.5t54 75.5q12 16 23.5 31.5t22.5 31.5q2 2 5 6.5t6 6.5q14 5 15.5 -7
t-1.5 -21q-5 -14 -16 -27t-20 -25q-6 -9 -10.5 -18t-10.5 -19q-19 -32 -39.5 -62t-40.5 -60q-23 -32 -45 -64.5t-46 -63.5q-14 -20 -34 -45.5t-43 -35.5q-15 -6 -31.5 -0.5t-27.5 14.5q-11 8 -19 20t-13 25q0 2 -1.5 7t-3 11t-1.5 11.5t2 7.5v-10q0 -4 1 -8q0 6 -0.5 11.5
t0.5 11.5q-1 0 -0.5 8t0.5 9q0 5 0.5 9.5t1.5 9.5q2 14 5 27t6 27q7 29 13 57.5t12 57.5q-26 -42 -52 -82t-56 -78q-9 -11 -19.5 -23.5t-24.5 -18.5q-11 -5 -22.5 -3t-22.5 7.5t-20.5 13.5t-15.5 16q-11 15 -12.5 29t1.5 31q1 3 1.5 11.5t1 18t2 17.5t3.5 10v-3.5t-1 -4.5
l2 11q-1 0 -0.5 6t0.5 8q0 5 1 10.5t3 10.5q2 13 5.5 25.5t7.5 25.5q7 23 13.5 45.5t11.5 45.5t12.5 45.5t15.5 45.5q1 1 5 12.5t9 24t10 23t7 10.5q1 0 -1 -6.5t-1 -6.5l18 48q-2 -4 -4.5 -8.5t-2.5 -2.5q0 8 6 18t9 18l14 36q-10 -1 -19 -3.5t-20 -3.5q-20 -2 -39.5 -1
t-39.5 0q-5 0 -24 -1t-40 -0.5t-38 3t-17 8.5q0 3 7.5 5.5t17 4.5t18 4t10.5 2q35 8 73.5 10t73.5 3q9 1 20.5 -0.5t19.5 0.5q4 1 5 0.5t1.5 -0.5t1.5 1.5t4 6.5l5 13q12 31 27 60q15 32 29 64t31 64q7 12 15 21.5t15 18.5q8 11 13 25t13 26q7 11 14.5 23t16.5 22
q11 12 28.5 16t33.5 3q6 0 14.5 -1t16 -3.5t13.5 -7.5t6 -14q0 -8 -6.5 -13.5t-11.5 -10.5q6 4 6 3q0 -2 -6 -11.5t-13 -20t-14 -18.5t-8 -8l2 4t5 9t5.5 9t2.5 5q-33 -50 -61.5 -101.5t-54.5 -105.5q9 19 19 39t19 36.5t15.5 27.5t9.5 13q-2 -2 -9 -15.5t-17 -32.5
t-20.5 -42t-20.5 -43t-17 -34.5t-9 -18.5q27 0 54 0.5t54 1.5h13.5t7 2t4.5 6t6 13l21 47q6 11 12 22.5t14 22.5q4 5 8 8.5t7 10.5q7 16 14 30.5t17 29.5q8 12 15.5 25t21.5 20q17 9 42.5 10.5t42.5 -8.5q9 -6 11.5 -11.5t0 -11t-7.5 -11t-9 -11.5l4.5 4.5t2.5 0.5t-6 -12
t-13.5 -21t-14.5 -19.5t-8 -8.5l2 4t5 9t5.5 9.5t2.5 5.5q-26 -38 -47.5 -78.5t-41.5 -81.5q2 0 7 6l-2 -4v-2l96 4h9t8 1q1 0 0 2.5t2 1.5h6t4 -5q3 -10 -4.5 -17t-18.5 -11t-23 -5.5t-18 -1.5q-9 -1 -21.5 2t-21.5 1q-4 -1 -4 -2.5t-4 -3.5q-5 -2 -11.5 -1.5t-11.5 -1.5
t-9.5 -8.5t-8.5 -15t-7 -17t-6 -13.5q-7 -15 -13.5 -30t-12.5 -30q-13 -29 -25.5 -59t-23.5 -61zM306 286q-1 -2 -2 -3.5t-2 -3.5l-2 -4q0 13 8.5 29.5t12.5 28.5q5 14 9.5 27t9.5 27q10 28 21 54.5t22 52.5q-17 1 -33 0.5t-32 -4.5q-10 -2 -19.5 -2h-20.5q-5 0 -10 0.5
t-10 -0.5q-8 -2 -9.5 -3t-5.5 -11q-20 -42 -37.5 -84.5t-33.5 -86.5q-15 -42 -29.5 -84t-28.5 -84q-8 -22 -14.5 -43.5t-11.5 -44.5q-1 -5 -3.5 -14.5t-4.5 -19.5t-2.5 -19t1.5 -12q2 -9 8 -11q-2 2 -1.5 4.5t-1.5 3.5q10 -1 17 5t15 15q18 20 34 42.5t31 44.5
q31 44 59.5 88t58.5 89zM106 183q-8 -25 -14.5 -49.5t-11.5 -50.5q9 39 22.5 76.5t27.5 74.5q20 52 39.5 104.5t42.5 104.5q26 61 52.5 123.5t58.5 123.5q-35 -66 -65 -134.5t-61 -134.5q-26 -58 -49 -117.5t-42 -120.5zM353 255q-20 -57 -36 -114q9 29 19.5 57t22.5 57
q10 24 19 49.5t17 51.5q-11 -26 -22.5 -50.5t-19.5 -50.5zM491 497q-4 0 -10 -11t-12.5 -25.5t-12 -29.5t-8.5 -23q0 1 0.5 1t0.5 1l2 5v-1l2 5q9 20 18 39t20 39zM74 60l-5.5 -22t-5 -29t0 -27.5t10.5 -17.5q-6 4 -8 11.5t-2 15.5t1 16.5t2 14.5q1 4 1 8zM424 352
q-10 -23 -19 -45.5t-18 -45.5l24 58v2l1 1zM543 599q-1 0 -7 -11t-12 -24q6 14 10.5 25t8.5 10zM286 575l6 13zM278 558l8 17zM453 419l-1 -1zM524 563q-1 -1 -1 -3q0 2 1 3zM521 557q0 1 2 3q-2 -2 -2 -3zM452 418l-1 -3q0 2 1 3z" />
    <glyph glyph-name="l_l" unicode="ll" horiz-adv-x="677" 
d="M739 261q8 -6 6.5 -18.5t-7 -26t-12 -25.5t-9.5 -16q-10 -17 -17.5 -35.5t-16.5 -35.5q-26 -51 -54 -100t-58 -97q-15 -23 -30.5 -48t-32.5 -49t-36.5 -45.5t-42.5 -36.5q-12 -8 -23 -11t-25 -1q-21 3 -35.5 14t-24 26.5t-14.5 34.5t-7 37q-6 52 2.5 102.5t17.5 100.5
q-1 1 0 7t1 7q-32 -49 -68 -98t-81 -88q-22 -20 -47 -31t-54 0q-25 9 -38.5 29.5t-20 45.5t-7.5 52t1 49q3 54 15 105t26 103v5t0.5 9.5t1.5 10.5t3 8q-1 -2 -1 -7t-1 -10q2 6 3.5 12.5t3.5 12.5h-2q-2 15 5 34.5t12 33.5q11 38 27 79q11 32 23 64t23 64q10 33 24 64.5
t29 63.5q9 17 17.5 34.5t19.5 34.5q1 2 5.5 10t9.5 17t9.5 16.5t6.5 7.5l-4 -10l-4 -9q8 14 16.5 28.5t16.5 28.5l1 1v1q3 3 7 9l2 4q5 8 9.5 16t9.5 14q10 13 21.5 26.5t25.5 22.5q21 13 43.5 4.5t36.5 -27.5q15 -21 17.5 -45.5t-3 -49.5t-15 -49.5t-18.5 -45.5
q-12 -31 -26.5 -60t-30.5 -58q-8 -14 -16 -29t-19 -29q-6 -8 -11.5 -12.5t-9.5 -13.5q-26 -50 -55.5 -97t-60.5 -94q-15 -23 -32.5 -44.5t-24.5 -47.5q-5 -17 -9.5 -34t-9.5 -34l-8 -30q0 -1 -2 -6.5t-2 -1.5q-2 -6 -3 -12l-2 -12q2 6 3.5 11.5t3.5 5.5q1 0 -2 -15t-7 -38
t-7 -50t-2 -50.5t7 -39.5t20 -18q11 -1 22 5.5t21.5 16t19 20t14.5 17.5q26 30 49 63t45 67q11 17 23 35t22 36q8 17 13 36t11 37q11 36 23 71.5t22 72.5q10 36 24 71t29 70q8 17 15 33t15 33q1 2 5 10.5t8.5 18.5t9 17.5t6.5 7.5l-7 -20q9 18 17.5 36t18.5 36l-6 -10t-4 -4
l7.5 14t17 31t18.5 32.5t11 18.5q14 23 30 46.5t38 39.5q14 9 28.5 9t28 -7t23.5 -19t15 -26q10 -29 6.5 -61t-14.5 -63.5t-27 -61t-29 -54.5q-11 -20 -25.5 -35.5t-23.5 -34.5q-13 -26 -28 -50.5t-31 -48.5q-19 -27 -37 -54.5t-38 -53.5q-9 -12 -20 -23.5t-18 -24.5
q-6 -11 -9 -25.5t-7 -26.5q-10 -35 -19.5 -69t-17.5 -69q-5 -17 -8.5 -33t-7.5 -33l-6 -31q-2 -6 -3 -10t-2 -7.5t-1 -2.5q-2 -8 -3 -17t-2 -19q0 3 1 7.5t3 9.5l4 12q4 -8 1 -31t-4.5 -48t3 -44t24.5 -18q13 1 24.5 13.5t19.5 20.5q20 22 37 46.5t33 50.5q32 50 60.5 101
t56.5 103q2 4 8.5 17.5t15 31t18.5 36t19 33t17.5 22.5t13.5 5zM183 345l-2 -4q61 100 118 202.5t98 211.5q-15 -40 -33.5 -77.5t-38.5 -75.5l-42 -81q-8 -12 -18.5 -27t-16.5 -29q5 14 14.5 28t17.5 28l35 64q16 32 31.5 64t29.5 64q6 13 13.5 29.5t14 33.5t10 34.5
t0.5 31.5q-2 10 -5.5 13.5t-7.5 2.5t-8.5 -5t-8.5 -9q-21 -25 -35.5 -55.5t-27.5 -59.5q-15 -33 -28 -66.5t-25 -67.5q-11 -31 -21 -61.5t-21 -61.5q-6 -17 -12 -33t-11 -33l-9 -27l-6 -17q-7 -15 0 -5q-1 -4 -5 -10v-2zM527 385l1 1q0 -1 -1 -1l1 1l1 1q13 20 17 26.5
t2 4.5q26 43 50.5 86t47.5 88q17 33 37 71.5t29 78.5q-8 -35 -26 -68.5t-33 -63.5l-44 -82l-20 -36q-3 -5 -8.5 -11.5t-7.5 -11.5q4 12 12.5 24.5t15.5 23.5q8 14 15.5 28.5t15.5 28.5q15 29 29.5 58t27.5 59q2 6 9 22t11.5 33.5t4 32t-12.5 16.5q-7 1 -11.5 -4.5
t-8.5 -10.5q-20 -23 -33 -51t-25 -55q-24 -52 -44 -108q-21 -54 -38.5 -107.5t-34.5 -107.5zM428 191q-12 -46 -23 -91.5t-20 -90.5q17 86 44 169.5t50 168.5q-14 -38 -27.5 -76.5t-23.5 -79.5zM57 155q1 1 0.5 8t-2.5 7q-3 0 -6.5 -13t-5.5 -30q-5 -23 -8 -47t-5 -47l3 16
q0 -5 -0.5 -8.5t-0.5 -6.5q1 6 3 10.5t4 13.5q4 23 6 48t10 46h1v1zM215 621l-2 -5l1 2q16 29 34 57.5t33 58.5q-8 -14 -18.5 -25.5t-17.5 -24.5q-17 -32 -30 -63zM372 834q-10 -14 -17 -27.5t-14 -27.5q6 11 14 24.5t16.5 26t17 21t15.5 10.5q-1 0 -1.5 0.5t-1.5 0.5
q-9 0 -16.5 -10.5zM369 -95q0 3 0.5 6t0.5 5q-2 -8 -2 -16q0 2 0.5 3t0.5 2zM39 101q1 5 1.5 10.5t2.5 10.5zM324 49q-3 -5 -2 -8zM299 825l2 4l-8 -12zM531 391q1 2 1.5 2.5t1.5 2.5zM35 72q0 2 0.5 4.5t0.5 4.5q0 -2 -0.5 -4.5t-0.5 -4.5zM38 97v-5v5zM39 101
q0 -2 -0.5 -2.5t-0.5 -1.5zM37 84q0 -1 -0.5 -1.5t-0.5 -1.5q0 1 0.5 1.5t0.5 1.5zM530 390l1 1z" />
    <glyph glyph-name=".notdef" horiz-adv-x="280" 
 />
    <glyph glyph-name="NULL" horiz-adv-x="0" 
 />
    <glyph glyph-name="NULL" horiz-adv-x="0" 
 />
    <glyph glyph-name="nonmarkingreturn" unicode="&#xd;" horiz-adv-x="280" 
 />
    <glyph glyph-name="space" unicode=" " horiz-adv-x="280" 
 />
    <glyph glyph-name="e" unicode="e" horiz-adv-x="311" 
d="M383 247q3 -6 1.5 -10t-5.5 -9l-31 -41l-54 -70q-11 -14 -22.5 -26.5t-22.5 -26.5q-11 -15 -21.5 -30.5t-23.5 -29.5q-14 -14 -29.5 -28t-33.5 -24q-24 -13 -51 -5q-20 5 -36.5 16.5t-29.5 26.5q-4 5 -7 9t-4 10q-1 5 -1.5 10t-0.5 10q-1 9 1 16.5t4 16.5q2 10 5 19t5 19
q2 11 4 20.5t4 19.5q1 9 0.5 18.5t1.5 18.5q2 6 5.5 12t5.5 13q-2 -5 -5 -9t-4 -8l-4 -12t-4 -11q-2 -6 -3.5 -11.5t-3.5 -11.5q-3 -7 -5.5 -13t-3.5 -14q-1 -7 -0.5 -13.5t-0.5 -13.5q-2 -7 -3 -12.5t-1 -12.5q0 -2 1 -5.5t1 -5.5q0 -3 -1 -6.5t-1 -7.5q0 -7 1 -13.5
t2 -14.5q-12 21 -12 42t4 44t7.5 44.5t8.5 43.5q10 45 29.5 87t48.5 77q23 31 54 50t72 12q15 -3 30 -10t25 -20q11 -14 11 -31t-5 -34q-10 -29 -32 -52.5t-45 -43.5q-10 -8 -20.5 -16t-21.5 -15q-8 -5 -16 -8l-16 -6l-17 -6q-5 -2 -7 -2t-4 -5q-4 -8 -3 -15t-1 -15
q-2 -10 -4 -19t-4 -19q-4 -18 -8 -39.5t1 -40.5q4 -19 19.5 -17t34 13.5t34.5 26t22 19.5q8 7 14.5 14t13.5 14q4 5 8 8.5t7 8.5q0 1 1 3q0 1 0.5 2t0.5 2q9 14 20.5 27.5t22.5 27.5q14 16 26 32.5t25 33.5q3 5 8.5 13t12 13.5t13 6t12.5 -9.5v-1q1 -1 1 0zM135 236
q-4 -8 -6.5 -16t-6.5 -16q49 26 84 67l17 22q2 4 5 6.5t5 7.5q1 4 0 7t0 8l4 21q1 8 -3 21.5t-15 11.5q-5 -2 -10 -7t-8 -9l-18 -24q-16 -23 -26 -48t-21 -49v-1q0 -1 -0.5 -1t-0.5 -1z" />
    <glyph glyph-name="f" unicode="f" horiz-adv-x="341" 
d="M413 246q3 -13 -2.5 -26t-15.5 -25t-20.5 -23.5t-16.5 -20.5q-20 -35 -57.5 -62.5t-75.5 -38.5q-5 -2 -17 -2t-16 -4q-2 -2 -3.5 -8t-2.5 -13.5t-1.5 -14.5t-0.5 -10q-2 -11 -4.5 -21t-5.5 -21q-12 -42 -24.5 -87.5t-36.5 -82.5q-11 -16 -25 -29t-30 -19t-33.5 -4
t-35.5 16q-15 12 -23.5 29.5t-12 37.5t-3.5 40.5t1 37.5q2 42 10.5 82.5t20.5 80t25 78.5t24 78q21 75 53.5 145t68.5 139q20 38 41.5 76.5t46.5 74.5q9 13 20.5 30t25.5 33t30 28t33 14q34 4 47.5 -16t15 -49.5t-5.5 -60t-14 -47.5q-28 -66 -66 -127.5t-82 -118.5
q-26 -34 -53.5 -67t-56.5 -66l-18 -20t-19 -20q-8 -8 -10.5 -13.5l-7.5 -16.5q-4 -11 -7.5 -21.5t-6.5 -21.5q-14 -42 -26.5 -83t-23.5 -84q-7 -29 -14 -63.5t0 -64.5l-4 3l1 -1q9 -18 20.5 -19.5t23 7t22.5 24t20.5 32t16.5 31.5t10 23q14 32 24 64t17 66q2 8 4.5 17.5
t0.5 17.5q-2 9 -7 18t-7 18q-8 35 0 71q2 9 6.5 16t10.5 10t12.5 0.5t12.5 -12.5q5 -9 6.5 -19t3.5 -20q1 -8 -0.5 -20.5t1.5 -19.5q5 -11 19 -8t23 8q36 14 65 42.5t54 57.5q2 2 9.5 13t16.5 21.5t17.5 15.5t11.5 -4v-1zM121 242q48 54 90.5 110.5t78.5 117.5q3 6 12.5 24
t20.5 42t22 51t18 50t7.5 39t-8.5 19q-10 3 -18.5 -7.5t-13.5 -17.5q-20 -26 -36 -55.5t-32 -58.5q-32 -60 -59.5 -121t-53.5 -124q3 3 -6 -16v1q0 -1 -0.5 -1.5t-0.5 -1.5zM10 -39q-10 -29 -18.5 -62.5t-4.5 -65.5q0 13 2.5 27.5t5.5 28.5t6 25.5t5 18.5q6 34 17 69
q-4 -10 -7 -20t-6 -21zM146 303q1 2 2 4.5t1 3.5z" />
    <glyph glyph-name="g" unicode="g" horiz-adv-x="437" 
d="M510 240q3 -14 -6.5 -21.5t-19.5 -15.5l-81 -62q-23 -18 -44.5 -35.5t-42.5 -36.5q-11 -8 -21.5 -16.5t-19.5 -17.5q-9 -10 -12.5 -22t-7.5 -25q-13 -43 -25.5 -87t-27 -87t-32 -84.5t-39.5 -80.5q-14 -26 -30 -49.5t-48 -31.5q-19 -5 -35.5 -0.5t-31 15t-25 25.5
t-17.5 31q-15 37 -4 70.5t33 65.5q19 27 39 53.5t42 51.5q15 17 31 32.5t33 30.5q16 15 35 30.5t33 32.5q13 17 19 45t13 50l22 78q-16 -29 -35.5 -55t-38.5 -52q-17 -24 -35.5 -49.5t-43.5 -40.5q-11 -7 -22 -9t-22 3q-3 1 -10 7t-14.5 13.5t-13 14t-3.5 9.5q2 -2 3 -2
l-3 7q1 -4 -0.5 -2.5t-4 5.5t-4.5 7.5t-2 4.5q-3 10 -4 20t-1 21q0 16 1 32.5t4 32.5q2 14 7.5 27.5t13.5 25.5q0 1 3.5 7t8 12t8 11t5.5 4q1 0 -1.5 -3.5t-1.5 -4.5l17 25q-3 -3 -5 -3q-2 1 4 9.5t16 20.5t23 26t24.5 26.5t20 22t11.5 11.5q12 12 25 22t28 18q8 5 14 4.5
t13 1.5q6 1 9.5 3t8.5 4q18 5 41 -1t34 -21q4 -5 7 -13.5t2.5 -17t-4.5 -15.5t-13 -7q-5 0 -7.5 2.5t-6.5 4.5l3 -3h-15h-12.5t-11.5 -1l13 5q-23 -4 -43.5 -18t-38.5 -33t-33.5 -40t-27.5 -38q3 4 13.5 17t23.5 28t25 28.5t19 19.5q-7 -6 -19 -20.5t-24.5 -30t-22.5 -28
t-11 -14.5q-20 -29 -38 -61t-29 -66q-2 -5 -5.5 -20.5t-4.5 -30t2.5 -22.5t17.5 3q20 14 40 37t35 43q-2 -2 -3 -2t1.5 4.5t6 10t7 10.5t4.5 7l27 41q14 20 28 41.5t28 41.5q6 8 15 21t18 17q15 7 31 4t27 -12t14.5 -22.5t-5.5 -29.5q-20 -35 -39.5 -72t-31.5 -75
q2 -1 11.5 6.5t21.5 17.5t22.5 19t13.5 12q17 14 33.5 27t33.5 25q13 10 26 18.5t26 18.5q3 3 9.5 8.5t13.5 9t12 2.5t7 -12zM156 -100q4 11 7.5 22t6.5 22q-34 -32 -63.5 -65t-58.5 -70q-12 -15 -26.5 -34.5t-26 -40.5t-17 -43t0.5 -43q6 -22 15 -28t19.5 -1.5t21.5 16.5
t20.5 26t16.5 27.5t11 20.5q21 44 37 89t32 91q-1 -2 1.5 5t2.5 6zM152 -167q-11 -30 -24.5 -58.5t-27.5 -57.5q7 12 15 23.5t15 24.5q7 16 12 32t10 33v3zM121 231q-2 -4 -5.5 -7.5l-5.5 -5.5q-11 -12 -18 -24t-13 -26l12 16t11 16zM113 194q-12 -17 -21 -33l9 13z" />
    <glyph glyph-name="h" unicode="h" horiz-adv-x="431" 
d="M496 246q2 0 7 -2.5t0 -3.5q1 0 -2 -8.5t-8.5 -19.5t-10.5 -20.5t-6 -11.5q-11 -18 -23 -36t-24 -35q-22 -33 -43.5 -68.5t-50.5 -63.5q-11 -10 -20 -15t-23 -4q-17 1 -29.5 8t-23.5 18q-1 1 -6 5.5t-10 9.5t-8.5 10t-2.5 8l6 -9q-4 6 -7 16v-4q-1 -1 -3 4t-3.5 12t-3 13
t-1.5 8q-1 11 1 22.5t4 22.5l10 36l10 36q5 19 14 37l18 36q1 1 4.5 8l7.5 15t7.5 14t5.5 6q0 -1 -2 -5.5t-1 -5.5l15 34l-3 -3l29 70q-28 -23 -50.5 -51.5t-44.5 -55.5q-11 -13 -21 -27t-23 -25q-5 -4 -7 -3.5t-6 -4.5q-3 -4 -5.5 -8.5t-4.5 -9.5q-17 -29 -37.5 -55
t-38.5 -54l-18 -32q-2 -4 -2.5 -6.5t-3.5 -6.5q-10 -11 -24.5 -8.5t-22.5 13.5q-7 8 -8.5 17.5t-1.5 18.5q-3 33 2.5 67.5t11.5 66.5q13 71 30.5 140.5t40.5 138.5q20 61 49 117t58 113l1 3.5t2.5 8t3 8.5t3.5 5l-4 -10q-2 -4 -3 -9l12 23l-2 1q0 14 12 31.5t20 28.5
q11 17 22 33.5t23 33.5q21 29 42.5 59t50.5 52q15 11 32.5 20t37.5 7q21 0 35 -14q1 -2 5 -7.5t7 -12t4.5 -12.5t-0.5 -7q-2 3 -3 7q-1 2 -1 2.5t-1 2.5q-1 1 -1 3q5 -12 6 -25t0 -25q1 3 2 3q2 0 -0.5 -14.5t-6.5 -32.5t-7.5 -34t-4.5 -19q-8 -26 -18 -51.5t-21 -50.5
q-26 -53 -57 -106.5t-69 -98.5q-8 -8 -16.5 -14.5t-15.5 -13.5q-8 -8 -13.5 -18t-13.5 -19q-20 -23 -40.5 -43.5t-42.5 -40.5q-13 -12 -19 -21t-12 -26q-5 -16 -10 -31.5t-10 -30.5q-20 -62 -36 -121q13 20 26.5 38.5t27.5 37.5q-9 -11 -16 -19q-4 -4 -6 -7q-1 0 8.5 12
t23.5 29.5t31 38t32.5 39.5t27 32.5t14.5 17.5q11 12 26.5 28.5t32.5 27.5t35 11t35 -20q9 -12 11 -24.5t-0.5 -25t-8 -25t-11.5 -23.5q-20 -42 -41 -87.5t-33 -87.5q1 1 4 8t5 6q2 -2 0.5 -11t-4.5 -19t-6 -19.5t-4 -12.5q0 -3 -1.5 -9.5t-2 -13.5t0 -13t3.5 -8
q5 -3 11.5 -0.5t12.5 7.5t12 10.5t9 8.5q27 26 52 54.5t50 57.5q9 11 18 22.5t20 22.5q2 2 6.5 7.5t8.5 5.5zM409 919q0 -1 -1 -1q-27 -43 -51 -88.5t-47 -90.5q-21 -42 -43 -83.5t-40 -83.5q2 4 4 7t4 4q-6 -17 -11 -30q-5 -12 -8.5 -22.5t-4.5 -12.5l-30 -79
q54 57 100.5 120t84.5 131q-15 -25 -30.5 -49t-32.5 -47l-40 -56l-18 -18l8 9q8 9 14.5 18t13.5 18q13 18 25.5 36.5t24.5 37.5q25 39 47 79t40 82q9 22 17.5 44.5t14.5 45.5q1 6 4 15.5t4.5 20t0.5 19.5t-6 14q-5 4 -11 1t-12 -10t-11 -15t-8 -12q1 1 -1 -3v1q0 -1 -1 -1
v-1zM157 426q-1 -4 -3 -12.5t0 -8.5q-1 0 4.5 17t13 37.5t14.5 39t9 22.5q6 16 14 30t13 31q6 17 13.5 32.5t15.5 31.5q3 7 14.5 29t26.5 51.5t31 62t29 60t21 46t6 19.5l-7.5 -13.5t-19 -34t-24.5 -45.5t-24.5 -47.5t-20.5 -39.5t-11 -22q-15 -32 -32.5 -62.5t-29.5 -63.5
q-14 -39 -29.5 -77.5t-22.5 -79.5zM227 499q4 6 7 9q-2 -2 -3.5 -4.5t-3.5 -4.5zM409 919v1h1zM158 428l-1 -2q0 1 0.5 1t0.5 1z" />
    <glyph glyph-name="i" unicode="i" horiz-adv-x="189" 
d="M262 246q3 -14 -6.5 -29t-17.5 -25q-13 -19 -25.5 -37t-26.5 -36q-8 -10 -16.5 -22.5t-18 -23.5t-21 -20t-24.5 -12q-3 0 -10.5 1.5t-15.5 3.5t-13.5 5t-5.5 5h2q-3 1 -3.5 1t-1 -0.5t-2 0t-5.5 3.5q-7 5 -11.5 11t-9.5 13q-8 11 -17 21.5t-12 24.5q0 2 -0.5 8.5t-0.5 14
t1.5 13t4.5 5.5q2 0 1 -2.5t0 -2.5l3 18q-2 -3 -3 -4q-2 0 0.5 11.5t6 25.5t6.5 26.5t4 14.5q6 16 11.5 32t20.5 25q11 8 25 7t28 -7q6 -2 18.5 -8.5t12.5 -14.5q0 -5 -3 -6.5t-5 -3.5q1 1 4 1q1 -1 -0.5 -4.5t-4.5 -7.5t-5.5 -7t-3.5 -3q-2 0 -0.5 3l2.5 5
q-28 -46 -47 -101q2 5 7 16.5t10.5 23t10 20t5.5 8.5t-8.5 -19.5t-19 -43.5t-13.5 -46.5t9 -28.5q6 -3 13.5 -0.5t15 7t14.5 10.5t11 9q14 11 31 24.5t28 26.5q-2 -2 -7 -2q-2 2 5.5 13.5t17 25t19.5 25t13 13.5q5 4 13 5t10 -9zM87 372q-2 3 -3 5q-3 3 -3 5q0 1 -0.5 6.5
t-0.5 11t2 9.5t6 2q0 1 2 4t3.5 4.5t2 1.5t-1.5 -5q13 17 24 41l-12 -18q3 7 7 16.5t8 18.5t6.5 16.5t2.5 10.5q0 1 -1 5.5t1 6.5q-8 3 -9.5 6.5t0 7.5t5.5 7t7 6q-3 0 -4 2q-3 3 3 5t8 3q11 5 23 3t22 -7q8 -5 15 -15t10 -19q3 -10 -2.5 -20t-12.5 -16q-3 -3 -7.5 -5.5
t-8.5 -5.5q-5 -5 -5.5 -11.5t-4.5 -11.5q-2 -4 -6 -6t-6 -6q-6 -4 -1 -9q-6 -3 -10 -7q-8 -12 -13.5 -19.5t-14.5 -14.5q8 5 14 10.5t14 15.5q12 15 29 22q-8 -8 -11.5 -17t-12.5 -15q-5 -3 -5.5 -2t-1 1.5t-1.5 0t-6 -4.5h3q1 0 0 -1q-7 -6 -14 -14t-16 -12
q-5 -2 -8.5 -3.5t-8.5 0.5q-5 3 -4.5 6t-1.5 5zM68 134q1 2 0 1l-2 -8l2 6v1zM101 431l1 1q1 1 3 5zM91 412q-1 -1 -2 -1q1 0 1 -1q1 1 1 2z" />
    <glyph glyph-name="j" unicode="j" horiz-adv-x="256" 
d="M324 220q-3 2 -3 3t-4 -1q1 -3 4 -3q-27 -15 -52 -34.5t-49 -38.5q-62 -47 -120 -96q-14 -11 -22.5 -28.5t-15 -37t-11.5 -39.5t-11 -36q-12 -34 -23.5 -68t-25.5 -67q-10 -27 -22.5 -52t-26.5 -50q-11 -20 -23 -42.5t-29 -38.5q-21 -19 -48.5 -24.5t-54.5 4.5
q-31 11 -44.5 31t-15 43.5t7 48.5t20.5 47q14 24 30.5 45t32.5 44q13 18 27 36t31 35q23 23 47 45.5t49 44.5q6 6 13 11.5t12 11.5q7 7 10 14.5t6 17.5l19 59q9 26 17.5 53t16.5 53q5 13 8.5 26t8.5 25q2 5 3.5 12.5t3.5 11.5q9 14 26.5 15t33 -7t24 -22.5t-0.5 -31.5
q-17 -35 -38.5 -70t-35.5 -73q34 27 68 53t70 50q12 8 24.5 16t23.5 16q4 3 10 8.5t12.5 9t12 3.5t8.5 -8q5 -14 -4 -25zM-66 -176l2 5l44 119q-32 -28 -60.5 -58t-55.5 -63q-13 -16 -27.5 -33.5t-27 -36.5t-22 -39t-12.5 -41q-1 -8 -0.5 -17.5t3 -18.5t8 -16t14.5 -9
q8 -2 16 2t14.5 10.5t12 14t9.5 13.5q24 37 42 76.5t35 81.5q1 1 2 5.5t3 7.5v-3zM141 363q-3 -1 -8 -4t-10 -4.5t-9 0.5t-5 10q-1 3 0 7t5 3q0 1 1.5 3.5l3 5t2 2t-1.5 -5.5q7 11 12.5 22t10.5 23l-9 -16q3 9 6.5 21t6.5 24t5 21t2 11q1 11 -0.5 13.5t-9.5 7.5q2 -3 1 -4
q-2 -3 -3.5 -1.5t-3 4.5t-2 6t-0.5 4q1 5 5 7.5t7 4.5q4 2 8.5 3t8.5 2q15 4 36.5 1.5t32.5 -13.5q3 -3 7 -11q3 -8 3.5 -17.5t-3.5 -17.5q-5 -8 -9 -10.5t-6 -10.5h-2q-2 -5 -4.5 -16.5t-7.5 -18.5q-7 -10 -13 -10.5t-11 -6.5q-1 0 2 0.5t1 -1.5q-8 -7 -14 -15t-14 -16
q-5 -4 -8.5 -6t-8.5 -4q-1 -1 -2 1.5t-2 1.5zM-5 -101q-3 -3 -5 -7t-5 -6q-5 -4 -7.5 -16.5t-4.5 -18.5q5 12 12.5 24t9.5 24zM-19 -184q4 9 5 17q-1 -1 -1 -3l-4 -12v5q-3 -6 -6.5 -12t-5.5 -14q-2 -4 -2 -7.5t-1 -7.5l3 9l3 8l3 5l3 7v-1zM-10 -157l-1 -2h1v-1q3 7 6 14.5
t5 14.5l3 6l-2 -2q-5 -5 -7.5 -13.5t-4.5 -16.5zM125 396q1 1 2 3l1.5 3t2.5 3q-3 -11 -6 -9zM-6 -148q0 2 2 6zM-4 -142q0 3 1 4zM-11 -160l-1 -1h1v1zM116 375v-1h-1q1 0 1 1z" />
    <glyph glyph-name="k" unicode="k" horiz-adv-x="456" 
d="M529 241q2 -20 -10 -32t-23 -25q-11 -14 -21.5 -27.5t-23.5 -26.5q-15 -16 -29.5 -32t-31.5 -29q-1 -1 -8.5 -5.5t-16.5 -9.5t-16.5 -10t-8.5 -6v2q-3 -2 -3 -2.5t1 -1t0 -1.5l-5 -5q-8 -6 -16 -9.5t-16 -7.5q-10 -4 -19 -9.5t-20 -6.5q-3 0 -11 2.5t-16 6t-13.5 8
t-3.5 7.5q1 2 2.5 0t2.5 -1q-7 4 -13 12q0 -1 0.5 -2t0.5 -2q-1 -1 -6 5t-10.5 14t-10.5 15t-6 9q-8 14 -13.5 30.5t-8.5 32.5l-48 -80q-9 -14 -16 -32.5t-24 -22.5q-1 0 -5.5 -1t-10.5 -1.5t-11.5 0.5t-8.5 5q2 -2 7.5 -3t10.5 -1q-6 1 -12.5 3t-10.5 5q0 -1 1 -2l-2.5 2
t-6 4.5t-6.5 5t-4 3.5q-5 8 -7 17t-2 18q0 17 4 33t7 33q8 38 18 75.5t16 75.5q13 70 36 138q6 19 12 37t13 36q1 2 4 11t6.5 18.5t7 17t5.5 7.5q-2 -6 -3 -10l-2 -10q5 15 10 29.5t11 29.5l1 2q2 5 4.5 13.5t4.5 14.5l20 42q8 18 16.5 35t18.5 34q15 26 35.5 52t49.5 39
q17 8 33.5 6t30.5 -11t25.5 -23t19.5 -29q8 -17 10 -32.5t-4 -32.5q-11 -32 -28 -63t-38 -56q-17 -19 -30 -45t-28 -49q-20 -31 -40.5 -61t-43.5 -59q-10 -13 -20 -25.5t-21 -25.5q-12 -14 -18 -26.5t-11 -30.5q-11 -35 -20.5 -70.5t-17.5 -70.5l27 47q1 1 4 5.5l6 9
t5.5 7.5l2.5 3q8 16 20 32q-1 -1 -3.5 -4t-6.5 -8l-10 -12q-1 4 2.5 10.5t8 13.5t9 13l7.5 10q8 14 17.5 26.5t18.5 26.5q20 27 42 52.5t48 48.5q13 12 31 25.5t38 22.5t40 10t37 -14t21 -31.5t-0.5 -32.5t-15.5 -31.5t-24 -28.5q-24 -23 -52.5 -42t-57.5 -35
q-16 -9 -31.5 -17t-32.5 -15q-3 -2 -11 -4t-10 -4q0 -1 1.5 -11t-0.5 -11q-2 0 -4 6q5 -26 14.5 -53t26.5 -47q-2 4 -7 13t-10 19.5t-9 19.5t-4 13q1 -5 7 -17t14 -25t16.5 -23t13.5 -11q3 -1 5.5 -0.5t4.5 0.5q24 2 44 20.5t37 32.5q17 13 37.5 26.5t34.5 27.5q-2 -2 -7 -2
q-1 2 8.5 14.5t22 26.5t23.5 26.5t13 14.5q7 6 14.5 7.5t8.5 -12.5v-1zM312 730q-29 -39 -48.5 -85.5t-36.5 -91.5q-18 -48 -32.5 -96.5t-28.5 -97.5q42 54 79.5 110.5t70.5 116.5l16 30t16 31q-7 -12 -13 -23t-12 -21q-11 -21 -23 -41.5t-25 -40.5l-22 -35q-4 -5 -9 -11
t-8 -11q5 11 13 22l16 22l27 44q14 24 28 48.5t25 50.5q4 9 11 23t12 29t6.5 29t-5.5 23t-15 8t-16.5 -6.5t-15 -13.5t-10.5 -13zM212 215q38 15 71.5 43t61.5 58q3 3 13.5 15.5t20 26.5t15.5 26.5t0 17.5q-6 4 -17.5 -2.5t-23.5 -17t-22 -21t-13 -14.5q-29 -31 -55 -64
t-51 -68zM218 574q-19 -45 -31.5 -93.5t-22.5 -96.5q0 -1 -0.5 -1t-0.5 -1l1 1l-2 -8q10 38 21.5 74t23.5 74q11 32 20.5 63t21.5 62q2 5 10 18t12 23q-4 -7 -9.5 -15t-6.5 -11q-11 -23 -19.5 -45t-17.5 -44zM146 577l-1 -1zM145 576v-1v1z" />
    <glyph glyph-name="l" unicode="l" horiz-adv-x="354" 
d="M400 255q9 9 13.5 8t7 -7.5t2 -15t-1.5 -14.5q-5 -17 -13.5 -32t-17.5 -30q-23 -36 -43.5 -73.5t-45.5 -73.5q-27 -39 -56.5 -77.5t-64.5 -72.5q-15 -14 -32 -25.5t-35 -16t-36.5 -1t-36.5 19.5q-16 15 -24.5 34.5t-12 41t-3.5 44t1 42.5q3 42 12.5 82.5t19.5 81.5
q0 1 0.5 5t0.5 9.5t1 10.5t3 8q-1 -2 -1 -6t-1 -9q2 5 3.5 10.5t3.5 10.5h-3q-2 15 5 35.5t12 34.5q5 17 11 35t12 35q11 32 22.5 64t22.5 64q10 32 24 63t29 61q13 28 30 57q1 2 5 9.5t9 16t9.5 15t6.5 6.5l-8 -17l32 55l-1 -1q4 6 8.5 15t8.5 14l23 31q11 13 24 28t30 20
q16 5 31 0t26.5 -16t19 -25.5t9.5 -29.5l1 -1v-5q2 -23 -2.5 -47.5t-13.5 -48.5t-20 -47t-21 -42q-12 -24 -25.5 -50.5t-32.5 -46.5q-13 -14 -21 -29.5t-19 -32.5q-29 -46 -59.5 -91t-64.5 -87q-8 -11 -13.5 -19t-9.5 -22q-5 -14 -8.5 -28.5t-7.5 -29.5q-5 -15 -8.5 -30
t-7.5 -30q-2 -7 -6.5 -22t-3.5 -17q-4 -18 -6 -37l8 30q2 -3 1.5 -9.5t-1.5 -13.5t-2.5 -14t-1.5 -10q-3 -23 -3 -47q0 -7 0.5 -17.5t2.5 -21t7.5 -18.5t14.5 -9q13 -2 25.5 5.5t24 19t21.5 23.5t16 20q31 37 57 77t52 81q14 21 26.5 42t25.5 43q8 14 15.5 30.5t18.5 27.5z
M275 613q-28 -67 -50.5 -137t-44.5 -136q28 45 56.5 90.5t55.5 93t50.5 96t40.5 98.5q-13 -36 -30.5 -70.5t-34.5 -67.5q-11 -19 -21 -37.5t-21 -37.5q-7 -11 -17.5 -26.5t-15.5 -27.5q6 20 20.5 41t25.5 39l42 78q9 18 19.5 38t19.5 40.5t15.5 42t7.5 42.5v1q1 20 -6 21
t-16 -6t-17 -18t-11 -15q-21 -34 -37 -70t-31 -72zM243 683l-15.5 -31t-14.5 -32q-1 -1 -1 -4q17 30 35 59t34 61q-8 -14 -19 -26.5t-19 -26.5zM54 166q1 1 1 2.5t-2 0.5q-3 0 -6.5 -13.5t-5.5 -30.5v1q-5 -26 -8 -53.5t-5 -54.5l3 32v-3q0 5 1 10l2 10q5 23 7.5 49t11.5 47
v1z" />
    <glyph glyph-name="m" unicode="m" horiz-adv-x="535" 
d="M608 240q2 -10 -1 -20.5t-9 -21t-12.5 -20t-11.5 -16.5l-38 -54t-40 -53q-7 -9 -17 -21.5t-21.5 -24t-24.5 -19.5t-26 -8q-3 0 -11 2t-16 5t-14.5 7t-5.5 7l1 -1q-1 0 -3 5q0 -2 -7.5 5.5t-8.5 11.5q-5 8 -7 17.5t-4 18.5q-2 15 -2.5 29.5t-0.5 28.5q0 31 10 60
q0 1 3.5 11t7.5 20.5t8 19t6 8.5q1 0 -1 -4t0 -5q2 8 5 15.5t6 15.5q-2 -4 -4 -6l4 11t9.5 25t11 27t7.5 17q-12 -12 -22 -25.5t-19.5 -27.5t-19.5 -27.5t-22 -25.5q-16 -16 -28.5 -42t-25.5 -47q-5 -9 -10.5 -19t-12.5 -16t-15.5 -6t-20.5 12q-13 11 -16 31q-1 10 2 19.5
t5 18.5q2 8 1 13t0 14q3 27 16.5 53t23.5 52q1 4 6.5 16t10 24.5t6.5 22.5t-4 10q-1 0 -3.5 -3t-6 -7t-6.5 -8t-4 -5q-9 -11 -17.5 -22t-16.5 -22q-25 -38 -43 -76.5t-39 -78.5q-8 -16 -15 -31.5t-15 -30.5q-3 -8 -7.5 -14.5t-6.5 -14.5q0 -2 -0.5 -6.5t-1.5 -6.5
q-4 -7 -12 -6.5t-17.5 5t-17.5 10.5t-12 11q-16 19 -14.5 37t0.5 39q-2 28 6.5 55t17.5 53q7 23 20 51q4 7 9 13t8 14q2 4 1.5 7.5t6.5 6.5q5 2 11.5 -1t11.5 -7q6 -5 10 -13t8 -13t9 -10t2 -16q0 -2 -1 -3t-2 -3q-5 -8 -11 -14.5t-11 -14.5q-2 -3 -5 -7t-4 -8
q-2 -5 -1 -8.5t-1 -8.5q-2 -11 -7 -20t-7 -20q-2 -7 -4 -14.5t-2 -14.5q0 -8 2 -14.5t0 -14.5q11 18 18 39t18 41l24.5 49t26.5 48q12 19 25.5 37t25.5 38q10 16 25.5 34t35.5 20q13 2 25 -4.5t19.5 -17t11 -24t0.5 -25.5q-5 -19 -14.5 -37.5t-16.5 -36.5q-9 -26 -16.5 -53
t-15.5 -53q9 19 20 37t23 37l-20 -27q0 3 12.5 21.5t29 40t31.5 40.5t19 23q10 10 24.5 18.5t29.5 11t27 -3.5t18 -27q5 -18 3.5 -37t-6.5 -38t-12.5 -37.5t-13.5 -34.5q-12 -29 -26.5 -60.5t-20.5 -60.5q2 4 4 6l-2 -24q-1 -9 -0.5 -17t4.5 -9q7 -2 17 6t20.5 19t19 21.5
t12.5 15.5q20 23 39.5 46.5t39.5 46.5q2 2 10 12.5t17.5 20t17.5 14.5t11 -3v-1zM250 307v-1q2 6 6 16.5t7.5 22t5 22t-0.5 15.5q1 -6 -2 -19t-7.5 -27t-9 -25.5t-5.5 -14.5q-8 -17 -16 -34.5t-14 -35.5q-5 -15 -9.5 -34t-4.5 -36q2 17 8 34t12 32q8 20 13.5 41t14.5 40
q1 0 1 1t1 2h-1z" />
    <glyph glyph-name="n" unicode="n" horiz-adv-x="341" 
d="M414 238q1 -9 -4 -19.5t-13 -20.5t-16.5 -19t-12.5 -15q-17 -21 -32.5 -42.5t-33.5 -41.5q-7 -7 -15.5 -16t-18.5 -15.5t-21 -10t-21 -0.5l-9 4.5t-14.5 8t-13 8.5t-5.5 6l3 -2l-6 6q4 -6 -1 -2t-6 4q-4 4 -7 9t-5 10q-4 8 -5 16.5t-1 16.5t1 16.5t2 16.5q2 17 3.5 32.5
t6.5 32.5q1 2 4.5 11.5t8.5 20.5t9.5 19.5t7.5 7.5q2 0 -0.5 -3.5t-1.5 -4.5l14 28q-2 -2 -2.5 -3t-2.5 -2l1.5 4t4.5 9t5.5 9.5t3.5 6.5q-15 -17 -27.5 -35t-26.5 -36q-10 -13 -20.5 -22.5t-17.5 -21.5q-16 -27 -33.5 -52.5t-30.5 -53.5l-4 8q-7 -8 -15 -8.5t-15.5 4
t-14 12t-10.5 13.5q-7 12 -6.5 22t2.5 24q2 12 2 24t4 25q5 16 10.5 31t11.5 31q5 16 10.5 31.5t11.5 31.5q4 10 10 21t8 22q2 8 2.5 14t10.5 12q9 5 18.5 5.5t19.5 -1.5q6 -1 13.5 -4.5t13 -9.5t6.5 -14t-5 -17q-5 -7 -13 -14t-14 -15q-7 -8 -8 -13.5t-4 -15.5
q-2 -6 -6.5 -11.5t-7.5 -11.5q-5 -8 -8 -18l-6 -20q-2 -6 -1.5 -11t-0.5 -11q-2 -16 -5.5 -31.5t-5.5 -31.5q1 3 4.5 7t4.5 3t-4.5 -9.5t-4.5 -8.5l59 86q-5 -7 -9 -12t-7 -9q-4 -4 -7 -8q-1 1 7.5 12.5t22 29t29.5 38t30.5 39t25.5 32t15 16.5q22 20 45.5 17t34.5 -38
q6 -19 0.5 -35t-16 -30t-23 -27.5t-21.5 -26.5q-10 -15 -18 -32t-16 -33q-5 -10 -13.5 -28.5t-10.5 -35.5q2 11 8 23t9 20q12 31 35 53q-5 -10 -10.5 -19t-10.5 -18l5 6q1 0 -0.5 -5.5t-3.5 -12t-4 -12t-2 -6.5q-3 -9 -5.5 -18.5t-3.5 -19.5q-1 -1 -0.5 -3.5t0.5 -5.5v-8
l1 -1q0 1 3.5 1.5t5.5 1.5q11 4 22 12.5t20 16.5q18 14 35.5 29.5t34.5 30.5q13 12 27.5 24t25.5 25q2 3 5.5 7t7.5 5.5t7 -0.5t5 -11z" />
    <glyph glyph-name="o" unicode="o" horiz-adv-x="391" 
d="M460 249q11 -14 -1.5 -22.5t-33 -14t-40.5 -7.5t-24 -3q-2 0 -8.5 -2t-5.5 -1q-8 -3 -9 -4t-6 -8q-6 -9 -11.5 -18.5t-10.5 -18.5q-2 -2 -8.5 -11t-14 -19t-14.5 -17.5t-10 -6.5q2 2 4 5q3 4 3 6l-29 -34q5 5 5 3q-2 -6 -8.5 -13t-15 -13.5t-16.5 -12t-14 -9.5
q-12 -9 -26.5 -16.5t-30.5 -9.5q-31 -3 -61 11q-22 11 -39 30.5t-26 42.5t-9 48.5t12 48.5q13 24 24 50t29 50q11 13 22.5 25t25.5 21q12 9 27 15q5 3 14 4.5t13 4.5q5 3 9 17.5t7 20.5q6 11 14 23q11 15 23.5 29t28.5 23q26 14 50 4t43 -29l8 -6q3 -3 5.5 -6t2.5 -5l-4 4
l4 -8l1 -1q-2 4 3 -1l6 -6q7 -10 10 -26q2 -11 2 -21.5t-2 -21.5q-3 -28 -10.5 -56t-15.5 -55q23 4 45 8.5t44 9.5q5 2 10 3.5t9 -3.5v-1zM114 47q26 5 49 21t42.5 38t35 46.5t26.5 46.5q-17 2 -34.5 7t-32.5 14t-26.5 22t-15.5 32q-5 -6 -15 -22.5t-21 -39.5l6 9
q0 -2 -7.5 -17t-16 -35.5t-16 -43t-9 -41t5.5 -29.5t28 -8h1zM311 324l5 22.5t4.5 27.5t1 27t-6.5 23q-8 12 -18 11t-20 -8.5t-19 -18.5t-15 -18q-1 0 -1 -1l-1 -2v1q-2 -3 -1 -3q-4 -5 -8 -10.5t-9 -13.5q1 1 6.5 9.5t6.5 6.5t-1.5 -8.5t-6 -13.5t-7 -13.5t-4.5 -8.5
q-5 -12 -8 -24t-5 -25t-1.5 -26t11.5 -22q6 -5 15 -7t17 -3q5 -1 12.5 -2t12.5 1q8 2 8 1.5t4 7.5q11 19 17 44t11 46zM242 389l1 1z" />
    <glyph glyph-name="p" unicode="p" horiz-adv-x="504" 
d="M566 248q2 2 5.5 2t6.5 1q-6 -20 -21.5 -30t-29.5 -22q-11 -10 -24.5 -20t-25.5 -18q-10 -7 -19.5 -7.5t-17.5 -8.5q-1 0 -1 1q-2 -2 -5 -5.5t-8 -6.5q-7 -5 -11 -9t-10 -9q-11 -8 -18.5 -7.5t-15.5 -3.5h1q-3 -1 -11.5 -10.5t-18 -20.5t-18 -21t-9.5 -12
q-12 -14 -24.5 -26t-23.5 -25q-5 -5 -12 -13t-15.5 -15.5t-17.5 -13t-17 -5.5q-9 0 -17.5 7t-15.5 17t-12 21t-7 18q-3 10 -2.5 14t3.5 5.5t8.5 1t11.5 1.5q18 5 33.5 22.5t27.5 30.5q16 17 30.5 35.5t30.5 36.5q6 6 11.5 12t10.5 14q1 2 4 11t6 9q-1 -1 -1 -2
q-1 -1 -1 -2.5t-1 -2.5l6 9q-1 -1 -0.5 1.5t2 6l3 7l1.5 3.5l8 16t9 16q8 15 16.5 31.5t12.5 33.5q1 4 2.5 13t1.5 17.5t-3.5 14t-11.5 4.5q-3 0 -12 -6t-18.5 -13t-17 -12t-8.5 -5q-1 1 2.5 4t2.5 4l-12.5 -12.5t-12.5 -14.5q2 2 6 4q-3 -3 -17 -22t-30.5 -41.5t-30.5 -42
t-17 -23.5q-12 -17 -22.5 -34.5t-21.5 -35.5q-6 -9 -11.5 -19.5t-13.5 -18.5q-4 -3 -8 -5t-6 -5q-8 -11 -15 -26.5t-15 -29.5q-10 -17 -19 -34t-20 -34q-9 -17 -14.5 -34t-11.5 -35q-5 -13 -9.5 -24.5t-8.5 -23.5q1 4 5 8q1 0 0.5 -5.5t-2 -12.5t-3 -13t-1.5 -7l-9 -46
q-5 -25 -9 -50t-9 -50q-1 -9 -2 -23t-9 -22t-17 -6.5t-17.5 7.5t-15 15t-9.5 15q-10 18 -11.5 40.5t1.5 46.5t8 47.5t8 43.5q4 26 9.5 51.5t15.5 49.5q4 8 7.5 14.5t6.5 14.5q0 1 1.5 11.5t3.5 11.5q0 -1 0.5 -1.5t0.5 -1.5q0 1 2 7q-2 -3 -2 -1.5t0.5 5.5l1 8l0.5 4
q2 8 5 15.5t5 15.5q10 27 16 56q1 3 5.5 17.5t10 31t11.5 29.5t10 12q2 0 0 -3.5t-1 -4.5q3 7 5.5 13.5t4.5 13.5q-2 -4 -4 -5q10 29 19 53q8 20 14 38.5t8 23.5q6 15 10.5 30t9.5 31q1 3 3.5 8.5t2.5 9.5q0 3 -2.5 5t-2.5 5q-1 10 1.5 19t8.5 16t15.5 9.5t21.5 -0.5
q13 -3 22 -12.5t14 -20.5q7 -13 5 -20.5t-4 -18.5l3 5q1 0 0.5 -6.5t-2 -14.5t-4 -14t-4.5 -6q-1 0 1 8t2 10q-6 -21 -12.5 -41.5t-13.5 -40.5v1l-6 -17q-1 -2 -1.5 -5t-2.5 -5q-9 -26 -20 -59t-20.5 -63.5t-17 -53t-8.5 -28.5q6 12 12.5 24t13.5 23q-4 -5 -6.5 -9t-4.5 -7
q-3 -4 -5 -7q28 46 51 83q10 16 19.5 31.5t18 28.5t14 22t7.5 12q27 41 54.5 82t58.5 80q7 8 16 19t19.5 20.5t22.5 16t24 5.5q20 -2 33 -12.5t20.5 -26.5t10 -33.5t2.5 -32.5q1 4 1.5 9t2.5 4q6 -3 5 -16.5t-4 -29t-7.5 -30t-5.5 -18.5q-8 -25 -20 -49.5t-26 -47.5
q15 8 29 17.5t28 19.5q13 8 28 11t28 8q-3 0 -3 2q-1 3 6.5 7t17.5 8t19.5 7t11.5 3zM54 146l-1 2q1 -3 -1.5 -11t-6.5 -16.5t-7 -16t-4 -9.5q-12 -31 -25.5 -61.5t-23.5 -62.5q-11 -35 -23 -70.5t-20 -72.5q7 26 15.5 52t18.5 50q25 59 44 118q5 14 9.5 28.5t9.5 28.5
q4 9 9 19.5t6 20.5v1zM98 116q-3 -8 -5.5 -16.5t-4.5 -16.5q3 8 5.5 16t4.5 17zM235 280q-5 -7 -9.5 -14t-9.5 -14zM407 165q-2 -2 -5 -3t-4 -3zM156 268q2 7 3 8zM156 268l-4 -9zM204 234q2 4 1 3q0 -1 -1 -2v-1zM150 255q2 2 2 4zM-60 -181q1 1 1 2q-1 -1 -1 -2zM104 128
l-1 -1z" />
    <glyph glyph-name="q" unicode="q" horiz-adv-x="414" 
d="M487 245q1 -7 -5 -9.5t-10 -6.5l-8 -11q-7 -7 -16.5 -15t-18.5 -10q-8 -2 -10 0.5t-7 -2.5q-2 2 1 2q-2 -1 -8.5 -6.5t-11.5 -8.5q-10 -5 -15.5 -3.5t-11.5 -1.5q1 -1 2 -1t1.5 -0.5t-0.5 -0.5q-11 -3 -22.5 -10.5t-13.5 -15.5t-1 -17t0 -17q-1 -11 -1.5 -22t-2.5 -22
q-2 -21 -5 -41.5t-6 -40.5q-6 -42 -12.5 -84t-19.5 -83q-6 -17 -13.5 -32.5t-16.5 -30.5q-1 -2 -3.5 -8.5t-5.5 -14t-6.5 -13.5t-5.5 -6q1 3 3 6q1 2 2 3.5t1 2.5q-5 -8 -10 -13q3 1 -0.5 -6t-5.5 -9q-6 -9 -17 -12q-6 -3 -12 -3q-13 -1 -25 4.5t-20 13.5q-18 17 -26 43
t-7 50q0 3 1 17.5t3.5 30.5t5.5 28.5t7 12.5q2 0 0.5 -4.5t-0.5 -5.5q2 8 2.5 15t2.5 15q-2 0 2 15t11.5 37t16.5 47.5t17.5 49t15 40.5t8.5 22q-9 -14 -23 -30.5t-30.5 -32t-34.5 -26.5t-36 -13q-17 -2 -33 5t-27 18q-10 10 -13.5 20t-5.5 23q-2 9 -3 16q-4 14 -2 16
q1 -1 1 -2q0 -4 1 -5v8q-2 -1 -3 6.5t-1 8.5q0 7 1.5 13t3.5 12q3 11 7.5 21t9.5 21q5 15 10.5 27.5t14.5 25.5q1 1 5.5 7t10.5 13t11.5 12.5t7.5 4.5q1 -1 -1.5 -3.5t-1.5 -3.5l15 19q-1 -1 -4 -1q-2 1 11 15t30 30.5t33 31t19 16.5q18 14 34.5 22t38.5 8q9 0 20.5 -0.5
t22 -3.5t19.5 -9t15 -17q5 -9 4.5 -24t-12.5 -20q-8 -3 -10.5 0.5t-7.5 5.5l2 -3l-5.5 0.5t-12 1t-12.5 1t-7 -0.5q2 2 9.5 3t6.5 1q-21 -1 -40 -11.5t-36 -26t-31.5 -33t-25.5 -32.5q3 3 15.5 16.5t27 28.5t26.5 26t14 9q-2 2 -15.5 -11.5t-29 -31t-29 -33t-15.5 -18.5
q-21 -29 -37.5 -60t-23.5 -65q-1 -4 -3 -13t-3 -18t0.5 -16.5t7.5 -9.5h1q6 -2 16.5 2.5t21 12t20 15.5t14.5 13q-2 -1 -3.5 -2t-3.5 -1q9 11 17 20q7 8 12.5 14.5t7.5 8.5q14 15 27 29.5t26 29.5q4 5 9.5 9t9.5 9q11 14 17 30.5t17 30.5q5 8 11 12.5t17 4.5q12 0 30 -9
t22 -23q2 -8 -0.5 -12t-7.5 -9l4 2q-9 -12 -16 -23l-11 -16.5t-7 -6.5q-1 1 3 7.5t6 11.5l-13 -22q3 1 3.5 -0.5t-2.5 -3.5l26 10q-10 -2 -15 -2q3 1 11 4.5t16 8t15 8l9 4.5q6 4 9.5 6t11.5 4q5 2 11.5 1t9.5 1q-5 1 -3.5 3t5.5 4.5t8.5 4.5l4.5 2q4 2 10.5 5t11.5 2
q3 -1 5 -1.5t3 -5.5zM298 86l5 36q-44 -86 -78 -179q-16 -42 -29 -87t-14 -90q0 -8 1 -16.5t3.5 -13.5t7.5 -5t13 8q15 15 23 36.5t16 41.5q5 15 10.5 31t9.5 32q-2 -8 -3 -7q-2 2 -1.5 9t2.5 15t4.5 15t2.5 10l9 49q5 29 9 57t9 57v1zM196 -102q-2 -5 -7 -19.5t-10 -34
t-9.5 -40.5t-5 -39t3.5 -29.5t15 -12.5q-10 2 -13 14t-1.5 29.5t6 38t10 39t10 32.5t6.5 18q11 29 20.5 57t20.5 56q-11 -26 -23.5 -53t-22.5 -56zM267 63q-8 -6 -3 -8l3 3l-27 -66q14 35 30.5 68.5t33.5 66.5v6q-20 -36 -36 -72q0 1 -0.5 1t-0.5 1zM224 -48l-1 -1l1 2v-1z
M268 60q0 -1 -1 -2zM368 234q0 1 0.5 1t0.5 1z" />
    <glyph glyph-name="r" unicode="r" horiz-adv-x="337" 
d="M410 243q2 -11 -3 -22.5t-10 -20.5q-6 -13 -13.5 -25t-15.5 -24q-17 -26 -35.5 -51t-36.5 -51q-18 -25 -38 -49t-44 -44q-2 -2 -10.5 -8.5t-18 -13.5t-17.5 -12.5t-9 -5.5q0 1 2 3l-7 -3q2 0 0 -1.5t-5.5 -4t-7.5 -5t-6 -3.5q-21 -4 -41 9q-10 6 -15.5 14.5t-10.5 19.5
q-8 17 -9 33t2 34q0 2 2.5 12t6 21t7 20t6.5 9q2 0 0 -4t-1 -5l7 25q-1 0 6.5 18t18 39.5t19.5 40.5t11 22q-23 -5 -48 -2t-41 23q-5 6 -4.5 11t-1.5 10q-2 6 -4.5 10t-4.5 9q-4 18 3.5 38t22 34.5t33 19t36.5 -7.5l-2 3q1 4 7 -3t7 -11q0 -2 -1.5 -7t-3.5 -10.5t-4 -9.5
t-4 -3q-1 0 2.5 9t3.5 10q-5 -14 -16.5 -29.5t-13.5 -30.5q-2 -11 3.5 -13.5t15.5 -4.5q14 -4 34.5 -4t38.5 -5q-12 4 -25 5t-23 3l-1 1q11 -2 22.5 -2.5t21.5 -2.5q22 -5 33 -15.5t2 -33.5q-9 -22 -19.5 -43.5t-20.5 -43.5q-9 -21 -17 -43l-16 -44q-1 -4 -5 -12.5
t-7.5 -18.5t-5.5 -18.5t1 -12.5q4 -5 14.5 1t23.5 15.5t24.5 20.5t17.5 17q-2 -2 -4 -2.5t-4 -2.5q-1 0 2 4.5t7.5 10t8.5 10.5t5 7l29 37l54 71l55 74q2 2 7 8.5t10.5 11t10.5 5t7 -9.5zM111 123q-9 -21 -17.5 -42.5t-13.5 -44.5q5 20 12.5 38.5t15.5 36.5l19 44
q2 3 6.5 12.5t9 20t9 19t6.5 9.5q-3 -1 -6.5 -7t-7 -13t-6 -13.5t-3.5 -7.5q-14 -27 -24 -52zM87 -70q-2 2 -2 3l1 -1q-4 8 -7 15.5l-5 12.5l3 -13l-4 21v1q-1 1 -1 2v1l1 -2v5q-1 11 -0.5 20.5t2.5 19.5v1q-3 -14 -3 -27q-2 -20 3 -38q1 -2 5.5 -12t9.5 -16q0 2 -1 2
q9 -10 23 -14q-8 3 -14 8.5t-11 11.5v-1zM115 261q-2 1 -3 3.5t-1 4.5q0 -2 4 -4l3 -3q7 -5 20 -7q-7 1 -13 2t-10 4zM220 184l-21 -45l21 44v1zM76 19q0 -1 -0.5 -1t-0.5 -1v-1q0 1 0.5 1.5t0.5 1.5zM220 185h1v1zM220 185h1v1zM77 32q0 1 0.5 1.5t0.5 2.5q0 -2 -0.5 -2.5
t-0.5 -1.5zM81 -60q1 -1 1 -2q0 1 -0.5 1t-0.5 1zM111 270l1 1z" />
    <glyph glyph-name="s" unicode="s" horiz-adv-x="324" 
d="M397 234q1 -12 -6 -23t-18 -20t-23 -16.5t-20 -13.5q-22 -16 -44 -30.5t-46 -27.5q-6 -3 -14 -6t-14 -8q-8 -7 -8.5 -9.5t1.5 -14.5q2 -14 3.5 -27.5t1.5 -27.5q1 -21 -1.5 -42t-10.5 -41q-18 -47 -53.5 -74.5t-87.5 -25.5q-23 0 -45.5 6.5t-39 18.5t-25 30.5t-3.5 43.5
q-1 -2 -2.5 -10.5t-2.5 -7.5q-5 3 -2.5 15t4.5 16q9 28 30 50t44 39q13 10 25.5 19.5t25.5 17.5q10 6 26.5 14.5t18.5 19.5q2 10 -4.5 29t-9.5 30q-3 14 -7 29t-6 30q-1 10 0.5 17t-0.5 16q-4 12 -7 23.5t-4 24.5t-0.5 25.5t5.5 24.5q3 9 13.5 22t23.5 23.5t27 14t24 -5.5
q0 2 2 0t4.5 -6l5 -8t2.5 -6t-0.5 -8.5t-2 -13.5t-3.5 -12.5t-4 -5.5q0 2 1 5q1 2 1 5t1 6q-4 -11 -8.5 -21t-5.5 -21q-2 -10 -0.5 -20.5t3.5 -19.5q0 4 2 5l1.5 -9t4.5 -22.5t6.5 -30t6.5 -32.5q-5 20 -11 42t-9 36q6 -33 13 -65.5t15 -64.5q2 2 1 8l2 -6q33 17 64 33
t62 36q14 9 28 21.5t28 19.5q17 7 21 -12v-1zM-7 -109q11 -4 22 -2.5t22 3.5l28 11q1 -1 -3.5 -4t-4.5 -4q17 10 31 27l-5 -4q3 3 7.5 11t9 16.5t8 15.5t3.5 9q5 18 6 36t0 36q-2 -2 -3.5 -2.5t-3.5 -1.5l7 6l-12 -7q2 1 0.5 -1t-5 -5t-7 -5.5t-4.5 -3.5l-30 -20
q-15 -11 -30.5 -22.5t-26.5 -26.5q-3 -5 -8.5 -14t-9 -19t-2.5 -18t11 -11zM119 -138q20 9 31.5 21.5t19.5 29.5q-22 -31 -57 -48.5t-72 -19.5q41 2 78 17zM192 146q-2 5 -3 12.5t-3 15.5q4 -15 6 -28zM205 42q0 1 -0.5 2t-0.5 3q0 -4 1 -5z" />
    <glyph glyph-name="t" unicode="t" horiz-adv-x="307" 
d="M406 519q1 -11 -9 -18.5t-19 -9.5q-10 -3 -20.5 0.5t-19.5 1.5q-5 -2 -5.5 -3.5t-5.5 -3.5q-7 -2 -14.5 -2h-14.5q-10 0 -27 2.5t-25 -2.5q-3 -2 -6 -6l3 6q-5 -1 -11.5 -16.5t-11.5 -29.5l11 22l-14 -38q-8 -16 -14.5 -32t-13.5 -32q-14 -32 -26 -63t-24 -63
q-20 -59 -39 -119.5t-33 -121.5q-1 -5 -4 -17t-4.5 -25t-0.5 -24t8 -14q1 -1 5 0.5t8 3.5l7 3.5l3 1.5q4 4 8 7.5t8 8.5q-3 -2 -9 -7t-6 -3t3.5 6.5t8.5 9.5t9.5 9t6.5 6q8 8 14.5 15.5t13.5 15.5l58 71q27 34 53 68t53 68q3 4 7.5 11.5t10 15t11 14t10.5 7.5q12 2 15 -7
t-1 -19q-7 -20 -23 -37.5t-27 -35.5q-19 -32 -40.5 -61.5t-43.5 -59.5q-24 -32 -48.5 -64t-50.5 -63q-12 -15 -27.5 -33t-34.5 -27q-14 -7 -31 -1t-29 15q-14 9 -21.5 22t-10.5 28q0 2 -1 8.5t-2 13.5t-0.5 13.5t2.5 9.5v-15l2 20q-2 -3 -2 3v8q0 6 1 12.5t3 12.5
q2 12 4.5 23.5t5.5 23.5q5 23 10.5 46.5t10.5 47.5q4 24 11 46.5t15 45.5q1 2 4.5 12.5t8 22.5t8.5 21.5t6 9.5q1 0 -0.5 -6t-1.5 -7q3 11 7 22.5t8 22.5l-3.5 -7t-1.5 -1q0 9 7 22.5t10 21.5l12 35q8 24 16.5 47.5t19.5 46.5q-21 -2 -41 -1.5t-40 -3.5q-29 -5 -62 -3.5
t-62 5.5q-2 0 -6.5 0.5t-9 2t-7 4t-0.5 6.5q2 2 13.5 5t14.5 4q14 5 29 6l30 2q29 3 58 3t58 4q8 1 18.5 0t17.5 2q7 2 8.5 7t4.5 12q5 14 11 27l12 26q7 14 13.5 28.5t15.5 27.5q6 8 11.5 12.5t10.5 13.5q9 20 20 40t25 37q15 20 39 24.5t47 -0.5q11 -2 22.5 -9.5
t6.5 -22.5q-2 -6 -8 -10t-11 -9q0 -1 4.5 3.5t4.5 1.5t-6 -12t-13.5 -19.5t-14 -18t-7.5 -7.5l2 4t5 9t5.5 9t2.5 5q-29 -42 -53 -87t-47 -91q4 0 10 11q-5 -10 -5 -11q29 2 59 2t60 2q3 0 7 1.5t7.5 2t6.5 -0.5t3 -6v-1zM216 462q30 64 59.5 128t70.5 122
q-60 -85 -102 -181.5t-84 -190.5q-50 -111 -83 -226q-8 -26 -14 -52.5t-11 -53.5l5 19q8 35 19.5 70t24.5 69q27 75 54 149.5t61 146.5zM282 561q8 17 14 31t10 15zM179 343q0 2 1 4q-7 -15 -12.5 -30t-11.5 -29q6 14 12 27.5t11 27.5zM269 532l10 22q-2 -6 -5 -11.5
t-5 -10.5zM51 -98q-1 0 -3 2z" />
    <glyph glyph-name="u" unicode="u" horiz-adv-x="400" 
d="M473 244q1 -9 -7.5 -22.5t-13.5 -21.5q-11 -18 -24.5 -34.5t-27.5 -32.5q-11 -12 -24 -26t-28 -27t-31.5 -22t-34.5 -10q-17 -2 -32.5 6t-24.5 23q-8 14 -8.5 30t3 31.5t9 31t10.5 28.5q-37 -45 -76 -94q-3 -3 -16.5 -17t-29 -28t-29.5 -23.5t-18 -4.5q0 1 4.5 3t3.5 3
q-8 -5 -16 -8t-16 -3q1 -1 5 -1q1 -3 -3.5 -2.5t-10 2t-10.5 3.5t-6 3q-8 8 -12.5 18.5t-6.5 21.5q-4 24 -1 48t9 47q6 24 12.5 47.5t17.5 46.5q5 12 13 19.5t13 18.5q8 19 19 40t28 35q14 12 34 11t34 -12q13 -11 9.5 -18t-9.5 -17q3 4 6 6q1 0 -2.5 -7.5t-8.5 -16.5
t-9.5 -16.5t-6.5 -7.5l2 6q1 2 1.5 5t2.5 5q-10 -17 -19 -35t-17 -36q3 4 6 4q-1 0 -7 -14.5t-13 -32.5t-13.5 -34t-7.5 -19q-2 -6 -5 -15.5t-4 -18.5t1.5 -14t12.5 -2q11 3 21.5 11t20 18.5t18 21t15.5 18.5q18 20 33.5 41.5t31.5 44.5q8 12 17.5 27.5t21 27.5t26.5 18
t34 1q17 -5 20.5 -15.5t0 -23.5t-11 -26.5t-12.5 -23.5q4 4 5 4q2 -3 0 -10.5t-5.5 -16t-7 -16.5t-4.5 -12q-5 -14 -9.5 -30t-5.5 -32q-1 -18 4.5 -16t17.5 11q26 20 47.5 44.5t43.5 47.5q1 1 8.5 9.5t16.5 16.5t17 12.5t9 -2.5zM321 224q5 16 12 31t13 32
q-4 -9 -10.5 -19.5t-12.5 -21.5t-9 -21.5t0 -19.5q0 -2 -1 -3q2 2 2 3q2 4 3 9t3 10zM83 95q-1 3 1 13t6 23.5t9 29t10 30.5q-4 -10 -9.5 -22.5t-10 -25t-6.5 -25t0 -23.5zM239 193q2 6 4 9q-4 -3 -4 -9z" />
    <glyph glyph-name="v" unicode="v" horiz-adv-x="415" 
d="M488 239q2 -5 -2 -9.5t-7 -8.5q-8 -11 -17.5 -21t-20.5 -19q-5 -5 -9.5 -11.5t-9.5 -11.5q-16 -18 -44.5 -32t-56 -15.5t-47 12.5t-18.5 52q-25 -35 -53.5 -64.5t-51.5 -66.5q-13 -20 -21 -38.5t-13 -41.5q-1 -9 -2.5 -17.5t-6.5 -16.5q-11 -17 -29 -16.5t-32 11.5
q-20 15 -22.5 43t-0.5 52q0 9 3.5 17.5t4.5 16.5q-1 5 -1 9v7q-1 2 -2 5t-1 11t1 15.5t-1 15.5q-1 10 -2 17t1 18q0 2 2 8q1 3 3 6q0 -3 1 -3q0 7 -1 11l-1 -1q1 2 -1 12t-5 22.5t-5 23.5t-1 16q3 11 9.5 14.5t14.5 8.5q3 2 8.5 7t12.5 7q8 3 18.5 2.5t16.5 -8.5
q5 -5 3.5 -7.5t0.5 -7.5q-1 2 1.5 2.5t3.5 -1.5t1.5 -9.5t-0.5 -6.5l-3 7q4 -13 5.5 -26t3.5 -26v-1l2 -30q0 2 -0.5 10t-0.5 17q1 -15 3.5 -35t4 -39t2.5 -33t1 -18q8 12 16.5 24t17.5 23q4 6 8.5 10.5l9.5 9.5t6 10t4 10q8 14 19.5 24.5t21.5 21.5l33 34q16 18 31.5 37.5
t38.5 33.5q7 5 18 7t20.5 0t16 -8.5t5.5 -18.5q-2 -6 -4.5 -9.5t-7.5 -7.5q-14 -12 -29.5 -20t-28.5 -22l-18 -19l-6 -4q-2 -5 0 -5t1 -2q-2 -5 -5.5 -13t-6 -16t-1.5 -15t7 -10t18 -3t18 2q11 2 20.5 9.5t20.5 12.5t19.5 11.5t17.5 14.5q1 1 13.5 15t26.5 26.5t26 16.5
t14 -15zM109 194q1 12 -0.5 24t-3.5 23q-1 5 -2 9.5t-3 8.5q-1 1 -5.5 7t-4.5 4q0 -3 3 -7t4 -7q2 -5 3 -11l2 -12q2 -13 2 -24.5t-1 -24.5q-1 -15 0.5 -31t0.5 -30q2 17 3 35zM103 107q1 4 -1 4q-1 -4 1 -4zM118 132v15q1 -8 0 -15zM115 212v15v-15zM116 200q-1 1 -1 2v1v1
q0 -2 0.5 -2.5t0.5 -1.5z" />
    <glyph glyph-name="w" unicode="w" horiz-adv-x="610" 
d="M683 235q1 -6 -3 -13t-9.5 -13t-11.5 -11.5t-9 -8.5q-21 -22 -44.5 -45t-55.5 -33q-15 -5 -30 -3t-30 -1q-2 0 -3.5 0.5t-3.5 0.5q-2 -4 -3.5 -7.5t-3.5 -7.5l-8 -20l-17 -37q-8 -17 -19.5 -34t-25.5 -30q-2 -1 -7.5 -6.5t-11.5 -12t-11 -11l-5 -4.5q0 2 1 3l-5 -3
q1 0 0 -2t-3.5 -5t-5 -5.5l-2.5 -2.5q-8 -6 -17 -9.5t-18 -5.5q-14 -2 -30 -1t-28 7t-18.5 17.5t-10.5 24.5q0 1 -1.5 8.5t-2 16t-0.5 15.5t2 7t1.5 -3.5t1.5 -3.5q-1 6 -1 12.5v13.5l-2 -4q-3 0 -0.5 19.5t7 44t8.5 46.5t5 26q-21 -28 -42 -56.5t-44 -53.5
q-12 -12 -25.5 -22.5t-29.5 -17.5q-2 0 -7 -2.5t-10.5 -5t-10.5 -4.5l-5 -2l6 3l-10 -3q3 0 2 -1t-4 -2l-6 -2t-4 -1q-12 -2 -23 3q-9 3 -15 9.5t-11 14.5q-14 27 -13 56q0 1 1.5 9t3.5 18t4.5 17.5t4.5 7.5t0.5 -3t0.5 -3q1 5 1.5 10.5t2.5 10.5q0 -1 -1 -1t-1 -1
q-2 0 3 16t11.5 35.5t12.5 36.5t7 20q5 15 10.5 30.5t13.5 29.5q3 5 7.5 8t6.5 5q4 4 4.5 8t2.5 8q9 17 30 24t38 -4q7 -5 12 -12.5t3 -16.5q-1 -5 -4 -6.5t-5 -5.5l3 3q1 0 -0.5 -5.5t-4.5 -11.5t-6 -11t-4 -5t2 7.5t2 7.5q-17 -36 -32.5 -72t-28.5 -74q1 3 7.5 18.5
t13.5 33t13.5 31.5t7.5 14t-6 -15t-16 -37.5t-19 -49.5t-15 -50t-4 -39.5t14 -18.5q6 -1 13 3t14 10.5t13 13t10 9.5q18 17 38 37.5t34 39.5q-2 -2 -6 -4q-1 0 2.5 6t8 13t9 13.5t5.5 8.5q7 11 14 20.5t15 20.5q8 12 16 25.5t17 24.5q12 14 30.5 18.5t34.5 -6.5
q7 -5 12 -11.5t3 -15.5q-1 -5 -5 -7.5t-6 -6.5l5 3q1 0 -1 -6l-4.5 -13.5t-5.5 -13t-4 -5.5t0 4.5t2 8.5q-14 -41 -25 -83t-18 -85q1 6 5 25t9 39t9.5 35t6.5 15l-4.5 -16t-10.5 -39.5t-11.5 -51t-7.5 -51.5t1.5 -40.5t16.5 -17.5q9 -1 18.5 9.5t18 25t15.5 29t11 20.5
q9 15 17.5 30t16.5 30l6 9t8.5 12.5t7.5 12t3 7.5l-4 -3l0.5 8t1 18.5t1 19t0.5 10.5q8 33 25 61q10 15 23 29.5t26 26.5l3.5 3.5t3.5 2.5q9 4 17 -1.5t11 -14.5q4 -14 -2.5 -25t-14.5 -21q-17 -25 -26.5 -53.5t-20.5 -56.5q9 0 20.5 -0.5t19.5 5.5q6 3 12.5 8.5t14.5 8.5
q32 16 55 42q7 8 12 17t14 16q4 3 10 5.5t12 2.5t10 -2.5t5 -10.5zM243 22q-1 -13 -0.5 -29t4.5 -31.5t11.5 -28t21.5 -18.5q-12 6 -19 17.5t-10 26t-3 29t1 26.5q1 20 3.5 40t6.5 41q-5 -18 -9.5 -36t-6.5 -37zM294 198q2 4 4.5 8t4.5 8q-11 -12 -16.5 -27t-10.5 -31
q4 11 8 21t9 20q0 -1 1 1zM82 81h1l7 32z" />
    <glyph glyph-name="x" unicode="x" horiz-adv-x="370" 
d="M443 238q0 -10 -4 -19.5t-10 -18.5t-12.5 -17.5t-10.5 -15.5q-14 -23 -29 -44t-32 -43q-17 -21 -34 -43t-37 -41q-20 -17 -44 -29q-1 -1 -5 -4t-8.5 -6.5t-8 -6t-4.5 -2.5l2 2l-5 -2q4 1 -3.5 -5t-8.5 -7q-4 -2 -7.5 -3t-8.5 -1q-2 -1 -4 -0.5t-5 0.5q-20 2 -41.5 16
t-31.5 33q-14 -20 -33.5 -42t-43.5 -31q-6 -3 -14.5 -2t-15 4.5t-8.5 9.5t4 14q3 5 9 7t11 4q9 5 16.5 11t15.5 13q8 9 15.5 19t15.5 20q5 5 8 9t5 10q0 2 -1.5 8.5t-0.5 7.5q2 0 2 -3t2 -3l-6 25q0 -4 -1 -6q-2 0 -4.5 16t-4.5 36t-4 38t-2 21q-1 16 -2 31.5t0 30.5
q1 14 4 22.5t7 19.5q5 13 10 21.5t19 16.5q8 5 18 8.5t21 1.5q8 -1 15.5 -5t10.5 -12q2 -8 -1 -11.5t-4 -9.5q0 2 3 4q1 0 0.5 -6t-1 -13t-2 -13t-2.5 -6v8v9q-4 -36 -6 -72t-2 -72q2 3 2.5 17t0.5 29.5t0.5 28t2.5 12.5q-1 -20 -2 -38q-1 -15 -1 -28.5v-15.5l4 5t8.5 10
t8.5 9.5t6 3.5t0 -2t-1 -3l10 14q-2 -2 -4 -2q-1 1 7.5 13t20 27t22 28.5t13.5 16.5q9 10 15 11t15 6q8 5 15 11.5t20 7.5q2 0 4.5 0.5t4.5 -0.5q4 0 8 -2.5t7 -6t4 -8t-3 -8.5q-5 -5 -8 -2.5t-8 0.5q2 0 4 -1q0 -2 -3 -3.5t-7.5 -3t-8.5 -2l-4 -0.5l4 4q2 2 5 3
q-24 -11 -43 -31.5t-36 -40.5q1 1 6 6.5t11.5 12l13.5 13.5l12 12q-9 -9 -23 -26.5t-28 -35.5t-24.5 -33t-12.5 -18q-5 -8 -9 -16t-9 -16q-8 -11 -12 -17t-2 -20q1 -6 2 -14.5t3 -17.5t6 -16t10 -10t13.5 -0.5t14.5 7.5t13 11t10 9q24 19 50.5 41.5t45.5 45.5q-2 -1 -3.5 -2
t-3.5 -2q9 12 16 23q6 9 11.5 17t7.5 10q12 16 24 31.5t23 31.5q2 3 6 10t9 14.5t9.5 13.5t8.5 7q6 2 11 -2.5t6 -10.5zM146 56q-3 -3 -0.5 -14.5t4.5 -19.5q-2 7 -2.5 13.5t-1.5 13.5v7z" />
    <glyph glyph-name="y" unicode="y" horiz-adv-x="510" 
d="M583 239q2 -14 -8.5 -22t-20.5 -16l-87 -69q-23 -19 -46 -38.5t-46 -39.5q-9 -8 -21.5 -17t-20.5 -20t-11.5 -29.5t-8.5 -31.5q-28 -88 -58 -177t-78 -169q-15 -24 -30.5 -46t-46.5 -30q-34 -9 -68 5.5t-54 42.5q-15 19 -16 40t6.5 41.5t20.5 39.5t25 35q23 31 47 61.5
t50 58.5q19 20 39 38.5t40 37.5q14 14 34.5 30.5t30.5 34.5q12 23 18.5 51t14.5 53q6 21 12.5 42t13.5 42q-12 -9 -22.5 -24t-21.5 -26l-66 -66q-16 -17 -34.5 -32.5t-40.5 -24.5q-2 -1 -9 -4t-14.5 -6t-13.5 -5l-6 -2l2 2l-6 -2q3 0 1 -1.5t-5 -3t-7 -2.5t-5 -1
q-17 -3 -32 5q-14 8 -23 24t-11 31q0 3 0.5 14t2 24t4 22.5t6.5 9.5q2 0 0.5 -3t0.5 -4q1 5 1.5 11t2.5 11l-2 -2q-2 0 2.5 16t11 36t12.5 37.5t7 20.5q6 15 11.5 31t13.5 30q3 5 6.5 7t5.5 7q2 2 4 6t4 7q8 17 26.5 26t36.5 1q8 -3 16.5 -12t6.5 -19q-2 -5 -5 -7t-5 -5
q1 0 1.5 0.5t1.5 0.5t-0.5 -5.5t-4.5 -11.5t-6 -11t-4 -5q-2 0 -0.5 4.5l2.5 7.5q-17 -35 -32 -70.5t-27 -72.5q3 7 9.5 23t13 32.5t12.5 28.5t7 12t-5.5 -14.5t-16 -36.5t-19.5 -48t-15.5 -49t-4.5 -39.5t13 -20.5q6 -2 15 2t17.5 10t16 13t11.5 10q20 16 43 33.5t40 34.5
q-2 -1 -3.5 -2t-3.5 -1l8 9t17.5 20.5t18 22t11.5 13.5q13 14 30.5 30.5t23.5 35.5q3 11 7 18t20 10q18 3 39.5 -5.5t25.5 -28.5q2 -9 -1 -16t-8 -15q-23 -37 -43 -76.5t-34 -80.5q35 29 69.5 58t71.5 57q13 11 26 20t26 20q4 3 11 9.5t14 10t12.5 2t6.5 -13.5zM153 -280
q23 51 41.5 103t36.5 104q-32 -29 -60 -60t-54 -65q-26 -32 -52 -67.5t-37 -76.5q-2 -8 -2.5 -22.5t3.5 -28t12.5 -21t23.5 -2.5q16 5 27.5 22.5t19.5 31.5q21 35 35 68v1q0 1 0.5 1t0.5 1l1 1v1l4 8v1zM211 -266q-4 -8 -7 -16.5t-6 -16.5l9 16q8 14 12.5 27t9.5 27
q-5 -9 -10 -18.5t-8 -18.5zM245 -157q2 4 1.5 8.5t-1.5 8.5q2 -8 -2.5 -18.5l-7.5 -17.5q-3 -5 -4.5 -11.5t-3.5 -13.5zM213 -242l4 6q-2 -4 -4 -6z" />
    <glyph glyph-name="z" unicode="z" horiz-adv-x="407" 
d="M328 156q0 -1 0.5 -1.5t0.5 -1.5l87 65q3 2 12 10t19 15.5t19.5 10.5t13.5 -5q3 -9 -4 -18.5t-13 -15.5q-18 -19 -38.5 -35t-40.5 -33q-9 -8 -19.5 -15.5t-18.5 -15.5q-6 -7 -6.5 -10t-0.5 -12v-13.5t-1 -12.5q-2 -22 -8.5 -42t-15.5 -40q-18 -40 -43 -78.5t-56 -72.5
t-67.5 -61t-77.5 -44q35 20 71.5 45.5t62.5 57.5q17 21 32 43.5t25 48.5q8 20 17 40.5t16 40.5q-8 -22 -20.5 -44t-23.5 -42q-14 -23 -30 -44.5t-33 -43.5q-22 -30 -51.5 -53t-60.5 -43q-32 -21 -73 -26t-79 0q-26 3 -48 12q-12 5 -22.5 12.5t-17.5 18.5q-5 8 -5.5 20
t-1.5 15q0 11 1 16q-2 -4 -3 -7.5t-2 -3.5q-5 5 -2.5 15.5t8 22t12 21.5t9.5 15q20 26 48 44t55 34q34 21 70 39t71.5 36l71 36t69.5 38q14 8 21 13.5t5 21.5q-2 11 -6.5 25t-12.5 22t-19 9.5t-22 0t-22 -6t-20 -8.5q-14 -8 -30.5 -20t-31.5 -16q-12 -2 -21 5t-12 18
q-2 8 0.5 14.5t7.5 11.5v1q-2 1 2.5 4.5t10.5 7.5t12 7l6 3q11 5 19.5 10.5t18.5 13.5q11 9 22 15.5t23 14.5q1 0 9 6.5t11 9.5q2 3 3.5 5.5t6.5 8.5q7 7 15 12.5t15 12.5q12 12 22.5 26t22.5 27l-12 -5h3q1 -2 -13 -6t-31 -9t-32.5 -9t-18.5 -4q-11 -2 -24.5 -5t-24.5 2
q-6 2 -8.5 5.5t-7.5 6.5t-9.5 3.5t-9.5 7.5q-5 8 -3.5 17t6.5 17q4 6 11.5 14t15.5 10q5 1 7.5 0t5.5 -1v1q0 1 4.5 2.5t10 2.5t10 1t4.5 -1q0 -2 -7 -4q16 2 31 4t31 3h-17t-8 1t18.5 2t41.5 2t43.5 1.5t24.5 0.5q7 0 17 -0.5t18.5 -3.5t14 -8.5t3.5 -16.5q-2 -9 -9.5 -18
t-13.5 -15q-19 -20 -42.5 -35t-41.5 -31q4 3 8 3l-38 -36q-14 -14 -27.5 -26t-15.5 -14q43 2 74 -16.5t45 -60.5q2 2 2 5zM229 21q2 5 3 8.5t3 7.5q-25 -16 -50.5 -30t-50.5 -29q-1 -1 -9 -8.5t-13 -6.5l16 11l-22 -12q2 0 2 -2q-5 -8 -19.5 -15t-22.5 -12l-45 -26
q-21 -12 -42 -24.5t-39 -29.5q-9 -8 -21 -20t-20 -25t-9.5 -27t9.5 -27q6 -8 18 -11q3 -1 11.5 0t17.5 2t16 2l7 1q-1 0 -2 -1t-2.5 -1.5t-2.5 -1.5q19 7 39 18h-1q8 4 17.5 11t14.5 10q20 13 35 27q20 17 38.5 35t35.5 37q29 32 50.5 65.5t37.5 73.5zM279 219
q28 -16 42 -48q-8 14 -22 28t-18 17l-7 2.5t-15.5 5.5t-15.5 5.5t-7 1.5q0 2 7 0t15 -4.5t15 -5t6 -2.5zM335 71q1 9 1.5 18.5t-0.5 18.5q-2 -2 -3 -10t-1.5 -18t-0.5 -20t-1 -15q2 6 3 12.5t2 13.5zM327 426q-2 0 -3 -0.5t-2 -0.5h12q-2 0 -3.5 0.5t-2.5 0.5h-1zM328 156
q-2 4 -3.5 7.5t-3.5 7.5q7 -11 7 -15zM116 207q1 0 2 1h-1zM264 -95l2 2z" />
    <glyph glyph-name="d" unicode="d" horiz-adv-x="518" 
d="M591 244q1 -9 -3.5 -17.5t-12 -16t-15.5 -14.5t-14 -13q-16 -17 -31 -34.5t-30 -35.5q-31 -38 -57 -79.5t-57 -80.5q-12 -15 -27.5 -33.5t-33.5 -31t-37.5 -13.5t-39.5 19q-16 16 -23 37.5t-8.5 45.5t0.5 48t4 44q-23 -23 -46.5 -44t-49.5 -40q-14 -10 -30.5 -18.5
t-34.5 -4.5q-29 6 -43 27t-17 48t2 55t14 48q10 23 16 47.5t20 48.5q15 27 37 54t51 39q18 7 34.5 2t31.5 -16t28 -25t23 -26q18 66 42 129t53 126q1 1 2.5 6.5t3.5 11.5t5 12t6 8q-3 -2 -6 -11.5t-5 -15.5q3 8 7 16.5t9 16.5h-1q1 1 3.5 7t5.5 13t6 12.5t4 7.5
q7 11 14 21.5t15 20.5q14 17 31.5 31t37.5 22q14 5 30.5 6t31.5 -3t27 -13.5t18 -24.5q7 -21 5 -43.5t-9.5 -44.5t-18.5 -42.5t-21 -37.5q-13 -21 -26.5 -42.5t-27.5 -41.5l-26 -34l-9 -10q2 4 1 5l-8 -11h1h-1l-3 -4l-43 -58q4 5 8.5 10.5t6.5 4.5q-19 -25 -35 -45
q-14 -17 -25.5 -32t-13.5 -18q-9 -12 -15 -27t-9.5 -31t-5.5 -32.5t-4 -31.5q-2 -8 -6 -34.5t-6.5 -55t0.5 -51t16 -22.5q7 0 14.5 9t11.5 14q11 12 21 24.5t20 26.5q20 27 39 54t39 54l40 52t42 50q2 2 10.5 11t18 16.5t18 9.5t10.5 -10v-1zM223 182q3 14 6 26.5t-5 24.5
q-7 10 -13.5 21t-16.5 18q-4 3 -9 6t-10 1q-2 0 -3 -1l5 3q-16 -2 -28 -21.5t-20 -35.5q-17 -32 -30.5 -64.5t-23.5 -67.5q-2 -6 -5.5 -18.5t-5.5 -25.5t-0.5 -24t10.5 -15q9 -5 22 3.5t22 16.5q-10 -8 -20 -13.5t-17 -4.5q-12 1 -15 12t0 27t9 34.5t12 33.5l-11 -33
t-8.5 -33.5t-0.5 -27t13 -12.5q9 -1 19.5 5.5t20.5 15t19 18t15 14.5q12 11 24 22.5t23 23.5q13 13 15.5 28.5t5.5 33.5v1q0 2 1 4v4zM384 409q-1 -1 -1 -3l-3 -5l-1 -5q-23 -65 -42 -129q1 2 5 6q-4 -5 -7 -9.5t-4 -9.5l4 4l7 9l51 66l-20 -25l-22 -23q62 77 115 162
q11 18 24.5 40t25 45t18.5 47t6 47q0 7 -2 15t-9 12q-9 5 -17.5 0t-16.5 -13.5t-14.5 -18.5t-9.5 -16q-27 -44 -47 -91t-37 -95v-1q-1 0 -1 -1t-0.5 -1.5t-0.5 -1.5v-1q-1 -1 -1 -4zM300 327q2 4 5 12.5t3 14.5q-2 -6 -7 -13t-7 -12q-3 -9 -2 -18t-5 -17q2 0 2 2
q1 1 2.5 5.5t3 9.5t3 9.5t2.5 6.5zM125 36h1q11 9 22 18.5t21 19.5q4 4 11 9.5t14 12t12.5 12.5t6.5 11q-35 -36 -72 -69zM318 418q4 11 9 23.5t9 24.5q-4 -10 -8.5 -20t-9.5 -18q-5 -11 -8 -22t-7 -22q9 17 15 34zM383 406l-4 -10q0 1 0.5 2t0.5 3zM167 274q-2 -2 -4 -4.5
t-4 -2.5q1 0 3 2.5t5 4.5zM195 276q4 -2 6 -4zM393 294q1 0 1 1l1 2q-2 -2 -2 -3zM395 297l1 2z" />
    <glyph glyph-name="A" unicode="A" horiz-adv-x="522" 
d="M553 551q8 -12 3 -18t-10 -13q2 2 4 2q1 0 -2 -6t-7.5 -12.5t-9 -11.5t-5.5 -4l4 8q-23 -33 -39 -68.5t-30 -73.5q4 12 10.5 27.5t13 30t12 25t8.5 12.5q-3 -3 -10 -20t-15 -37t-14.5 -37t-7.5 -21q-11 -30 -18.5 -60.5t-12.5 -61.5q-5 -32 -8.5 -63t-7.5 -62
q-3 -25 -7 -51.5t-2 -49.5q0 8 2 12l1.5 -7t3.5 -15.5t4.5 -16.5t4.5 -9q2 -2 4.5 -0.5t4.5 1.5q7 1 14 6t13 12t11.5 13.5t9.5 11.5q5 6 13 19.5t16 16.5q13 6 13.5 -8t-5 -34.5t-13.5 -40t-12 -23.5q-12 -16 -25 -27t-35 -11q-36 0 -65 24q-24 22 -35 53t-13 62
q0 14 2 25.5t4 24.5q0 1 -0.5 7t-0.5 12t0.5 11t1.5 5q0 -1 0.5 -1.5t0.5 -1.5v5q-2 0 -2.5 9t-0.5 10q1 10 2.5 19t3.5 19q3 14 4.5 28t3.5 28q0 3 3 17.5t7.5 31t9 29.5t8.5 13q2 0 0.5 -3.5t-0.5 -4.5l8 28q-40 -65 -81 -129.5t-86 -127.5q-7 -9 -17 -23t-21.5 -26.5
t-24.5 -22t-26 -10.5q-12 -1 -24 4.5t-22 14.5t-18.5 19.5t-14.5 19.5q-3 3 -6 7q-2 3 -4.5 5.5t-2.5 4.5q0 -2 1.5 -3.5l3.5 -3.5q2 -3 5 -5l-12 21q1 -4 0.5 -3.5t-2 3l-3 5l-1.5 2.5q-5 9 -7 22q-4 13 -5 26t-1 26q1 27 7 53t11 52q5 27 13 52.5t19 50.5q1 2 6 14t11 25
t11.5 23.5t8.5 10.5q-1 -4 -2 -7l-2 -7q5 12 10.5 24t11.5 24q-4 -4 -5 -6t-2 -3q1 12 11 26t15 25l30 59q17 30 37.5 58t42.5 55q19 23 42.5 45t52.5 33q15 5 31 3.5t31 -4.5q28 -6 55 -23t48 -35q8 -8 20.5 -19t11.5 -24q0 -11 -10 -20.5t-18 -14.5q-19 -12 -26.5 -6.5
t-12.5 22.5q0 -1 1.5 -6t-0.5 -6q-1 0 -2.5 4.5t-3.5 11t-4 12t-2 7.5q-2 5 -3.5 9.5t-3.5 9.5q2 -4 4 -6l4 -4q-6 17 -16 24q-13 5 -38 -4q-17 -6 -31.5 -16t-27.5 -22q-36 -32 -63.5 -73t-50.5 -84q14 26 30.5 51t34.5 49q19 26 40 45q5 5 15 11.5t16 12.5
q-8 -10 -20.5 -19t-20.5 -17q-10 -11 -18.5 -22t-16.5 -22q-18 -25 -34 -51t-30 -53q-30 -57 -53.5 -117t-39.5 -123q-8 -29 -14 -58t-10 -58q0 -3 -1.5 -10.5t-2 -15t0.5 -14.5t5 -9q6 -3 15.5 3t20 15.5t18.5 19t11 12.5l34 36t32 36q-3 -3 -5.5 -6t-4.5 -2l6 9t13.5 20
t14 21t8.5 12l48 68q26 37 50.5 74.5t49.5 74.5q6 9 11 18.5t10 19.5q4 8 9 13.5t10 10.5t7.5 13.5t7.5 14.5q9 12 21 14.5t23.5 -1t22 -12t17.5 -18.5zM106 222q-3 -24 -6 -49t-5 -50v-4l2 18q2 25 6.5 49.5t10.5 49.5q12 49 27 98t33 97q17 45 37 87t45 83q12 21 28.5 43
t36.5 39q-23 -19 -41 -43.5t-31 -47.5q-23 -40 -44.5 -80t-39.5 -83q-21 -49 -36 -101.5t-23 -105.5zM330 69q-1 -15 -0.5 -29.5t2.5 -28.5q-1 8 -0.5 16.5t1.5 16.5l4 28l4 28q1 12 0.5 24.5t1.5 23.5q-2 -5 -3.5 -10t-3.5 -10q-4 -15 -5 -29t-1 -30zM181 422l-2 -5l2 3v2z
M338 696l-12 -9q3 2 6 4.5t6 4.5zM434 702l4 -8q-4 6 -4 8zM440 692q-2 0 -2 2l3 -3zM458 346l3 8z" />
    <glyph glyph-name="B" unicode="B" horiz-adv-x="643" 
d="M430 352q25 2 49.5 -2.5t45 -16.5t35 -31t20.5 -46q5 -26 1 -54.5t-12 -54.5q-14 -44 -40.5 -82t-61 -69t-74.5 -56t-81 -43q-35 -16 -72.5 -28.5t-75.5 -20.5q-23 -5 -45.5 -6t-45.5 4q-6 1 -16 2t-20.5 3.5t-19.5 6t-13 8.5q-8 9 -2 10t15 3q22 4 43 7.5t41 10.5
q48 14 93.5 35t87.5 47q40 24 76.5 52t67.5 63q14 17 27 34.5t22 37.5q2 5 5 14t5.5 18t3 17t-1.5 10q-2 1 -4 12t-2 19q1 -5 3 -10t3 -9q-1 8 -2.5 16.5t-5.5 16.5v-3q-2 4 -8.5 11.5t-7.5 7.5q-12 12 -32 15q-19 2 -32.5 -4.5t-30.5 -11.5q-10 -3 -26 3.5t-29.5 17
t-19.5 22t5 20.5q10 8 24 12.5t25 11.5q19 14 36.5 28t34.5 31q18 17 34 36.5t31 39.5q2 3 8 13t13 20.5t13 19t8 8.5q-2 -5 -4 -9l-4 -10q8 16 16 31.5t14 32.5v1l1 1l1 3q5 11 9 27t5.5 31t-2 26t-13.5 14q-7 2 -14 -1.5t-13.5 -8.5t-12.5 -11.5t-10 -10.5
q-43 -42 -80 -90.5t-69 -99.5q-19 -29 -36.5 -57.5t-34.5 -57.5q-11 -17 -23 -32.5t-20 -33.5q-23 -55 -46.5 -108.5t-41.5 -110.5q-9 -29 -15.5 -58.5t-11.5 -59.5l-3 6q-11 -11 -23 -13.5t-23.5 1.5t-21 13.5t-14.5 21.5q-11 25 -9 57.5t3 58.5q2 32 4 63.5t10 62.5
q3 13 7 24.5t9 23.5q0 1 1 7l2 12t2 11.5t2 5.5q0 -2 1 -3q0 2 0.5 3.5t0.5 3.5q-2 -4 -2 -2v6t1 8.5l1 4.5q2 8 4.5 16t4.5 16q5 15 8.5 29t5.5 29q1 3 5.5 18t10 32.5t11.5 31t10 12.5q2 -1 0 -4t-1 -4l7 22q-1 0 6 17t16 38t17 39.5t10 21.5q14 25 26 48.5t34 41.5
q7 5 14.5 14.5t16.5 17.5t19.5 12.5t22.5 0.5q11 -5 20.5 -18.5t10.5 -25.5q0 -9 -3.5 -12.5l-8.5 -8.5q2 2 5 2q1 0 -3 -5.5t-9 -12t-9.5 -11.5t-5.5 -5t1.5 4t4.5 8q-27 -37 -48.5 -77t-39.5 -82q4 8 12.5 25.5t17.5 35.5t17 32.5t11 15.5q-2 -1 -10.5 -18t-18 -37
t-18 -38t-10.5 -21q-13 -30 -24 -60t-20 -62q-8 -30 -15 -60t-15 -60q-7 -24 -15 -50t-12 -50q2 4 4 6l-0.5 -7t-1 -16.5t-1.5 -17.5t-1 -9l-4 -38q32 110 84 212.5t116 196.5q-24 -35 -46.5 -70.5t-43.5 -72.5q-10 -19 -19.5 -37.5t-18.5 -37.5q-7 -14 -18 -32.5t-13 -32.5
q2 13 10 27t13 25q11 26 27 55q13 25 26.5 49.5t27.5 48.5q32 51 66 99.5t72 94.5q36 45 77 86q16 15 36.5 34t43.5 23q21 3 38 -5t29 -22.5t19.5 -33t9.5 -36.5q7 -54 -11 -107t-51.5 -99.5t-78.5 -83t-92 -57.5zM474 102q5 12 11.5 29.5t8.5 30.5l-5 -12
q-13 -26 -27.5 -47.5t-33.5 -43.5l-34 -36q9 7 19.5 12.5t21.5 14.5q11 10 22.5 24t16.5 28zM598 528q-8 -15 -17.5 -28.5t-20.5 -27.5q7 8 13 15t13 14q19 21 29 42t18 46q-8 -17 -17.5 -32.5t-17.5 -28.5zM72 218q4 8 7.5 16.5t5.5 18.5q1 5 1 9v8q-4 -8 -8.5 -15.5
t-6.5 -14.5q-5 -16 -7 -36t0 -37q-1 11 1 25.5t7 25.5zM215 519q-2 -4 -2 -6zM405 642l-7 -7zM231 557q-2 -2 -2 -4z" />
    <glyph glyph-name="C" unicode="C" horiz-adv-x="499" 
d="M94 80q0 -1 -0.5 -1t-0.5 -1v-1q-4 -23 -5 -44.5t0 -44.5l3 -6q2 -6 2 -13q5 -2 8.5 -11.5t7.5 -13.5q7 -7 15 -9.5t17 -3.5q14 0 26 3q46 11 83.5 41.5t67.5 63.5q59 64 104 137l3.5 7t5.5 10t6.5 8.5t7.5 3.5t6 -6t2 -13.5t-1 -14t-1 -9.5q-5 -38 -19.5 -74t-36 -68.5
t-48 -61t-54.5 -52.5q-20 -16 -44.5 -33t-50.5 -19q-23 -2 -45.5 8.5t-40.5 21.5q-35 20 -63.5 51t-41.5 69q-10 28 -7 57t7 58q1 2 0 12t2 14q-1 -1 -1 -4v-6v-9q1 5 1 11.5t2 11.5q-1 -1 -1 1v5t0.5 6l0.5 3q1 7 2 13t3 13q3 14 7 28t9 28q9 29 20 57t20 57q8 26 19.5 51
t25.5 50q2 3 9.5 18t16.5 31t17.5 28.5t11.5 11.5q-1 -3 -3 -7q-4 -8 -3 -8q8 13 15.5 26t15.5 26q-2 -2 -3 -3.5t-3 -3.5l-3 -3q3 10 12.5 21.5t15.5 19.5q5 9 11 17.5t12 17.5q28 41 59 76l24 24t28 24.5t31 19t33 8.5q30 2 54 -11.5t40.5 -35.5t25.5 -49.5t9 -52.5v-1
q0 -27 -7.5 -55.5t-25.5 -48.5q-17 -19 -45.5 -37t-54.5 -21q-6 -1 -14 -1t-6 9q0 2 7 7h-1q2 1 8.5 13t13.5 26t13.5 25t9.5 11l-6 -14q-2 -6 -5 -12l-4 -8q13 24 24.5 48t21.5 50q3 7 6.5 17t5.5 20.5t2.5 20.5t-2.5 18q-5 10 -13 12t-17.5 -0.5t-18.5 -7l-15 -7.5l-14 -8
l5 2q-8 -5 -12 -9q9 7 17 10q5 3 12.5 8t16 8t17 3.5t14.5 -3.5q9 -8 8.5 -18t-4.5 -21q3 14 1.5 26t-15.5 14t-24.5 -5.5t-21.5 -10.5q-35 -23 -62 -56.5t-50 -67.5q-26 -37 -48 -76t-42 -80q-21 -43 -37.5 -87t-33.5 -89q-16 -43 -30.5 -86t-22.5 -88v-5q0 -1 -1 -2z
M270 569q12 20 27 43t32 44q-43 -47 -78.5 -101.5t-62.5 -112.5q-45 -96 -76 -195q11 32 25 63t28 61q25 51 50.5 100.5t54.5 97.5zM373 679q5 5 11.5 12t13.5 13q-19 -15 -34.5 -33t-29.5 -37q9 11 18.5 22.5t20.5 22.5zM475 671q0 -2 -1 -4q0 5 2 11.5t4 13.5
q-1 -10 -5 -21z" />
    <glyph glyph-name="D" unicode="D" horiz-adv-x="608" 
d="M664 705q5 -36 3 -73q-1 -19 -5 -37.5t-3 -36.5q0 -2 2 -7t2 -10l-2 -16t-3 -16q-4 -20 -9 -38.5t-11 -37.5q-11 -39 -25 -76t-31 -75q-6 -14 -14.5 -27.5t-12.5 -27.5q-2 -8 -3.5 -17t-5.5 -18q-34 -73 -81 -139q-15 -21 -34.5 -44.5t-42.5 -42.5t-49.5 -30t-55.5 -6
t-51 20t-37 37t-22.5 48t-7.5 53q7 -15 17 -35t23.5 -37.5t30.5 -28t37 -5.5q18 4 32.5 17.5t27 30t22.5 34l18 31.5q20 35 38 70.5t35 72.5q26 57 46.5 117.5t41.5 120.5q25 73 42 149q1 5 4.5 19t5.5 29t0.5 27t-8.5 15q-6 2 -15 -3.5t-17.5 -14t-16 -17t-10.5 -11.5
q-27 -29 -52 -60t-50 -63q-40 -51 -73 -105.5t-67 -108.5q-41 -67 -76.5 -136.5t-64.5 -141.5q-14 -35 -23.5 -67.5t-14.5 -70.5q-2 -7 -2 -17.5t-6 -17.5q-7 -9 -18.5 -11t-23.5 1t-23 9.5t-16 14.5q-8 11 -9 26t1 31.5t5.5 32.5t5.5 28q5 38 10.5 75t16.5 74q4 14 9.5 26
t10.5 25q0 1 1 7t2.5 12.5t3 12t2.5 5.5q0 -3 1 -4v5q-1 0 -0.5 3t1 7t1 7.5l0.5 3.5q2 11 5.5 20.5t7.5 19.5q10 29 16 60q0 3 5 18.5t11.5 33t13 31.5t9.5 13q2 -1 0 -4.5t-1 -4.5q3 7 5 14t5 14l-3 -4q-1 0 2.5 10t9.5 24t13 31.5t13.5 32.5t11.5 26t6 14l14 34t17 33
q6 11 13 17.5t12 15.5q8 16 22 31t34 12q14 -2 26.5 -14.5t17.5 -25.5q4 -11 2 -16t-7 -12l4 3q1 0 -1.5 -7t-6.5 -14.5t-8.5 -13.5t-5.5 -6t1.5 5.5t4.5 10.5q-44 -85 -83 -172q5 11 13 27t15.5 32.5t14.5 30t11 19.5q-4 -7 -11.5 -23t-16.5 -36t-18.5 -42t-17 -40.5
t-13 -31t-5.5 -13.5q-26 -65 -46 -132t-43 -133q48 106 108 204.5t129 191.5q32 44 66 86t71 80q7 8 18 20t23 23t25 19t25 8q16 0 26.5 -9t17 -22t10 -28.5t5.5 -27.5zM122 342q0 -7 1 -6q5 5 7.5 17.5t4.5 20.5q5 12 9 24t9 24q9 22 18.5 43t20.5 43q8 17 15 33t15 33
q3 8 7 14.5t7 13.5q2 5 3 11t3 10q-17 -28 -31 -56.5t-28 -57.5q-11 -22 -20 -43t-17 -44q-7 -17 -14.5 -36t-9.5 -37v-7zM437 163l7.5 15t13 27.5t12 26.5l5.5 12q-1 0 -3.5 -5l-6.5 -13v-1q-2 -4 -3.5 -8t-3.5 -8l1 5l-6 -14q-2 -6 -4.5 -12t-5.5 -12l8 19
q-10 -21 -21 -42t-23 -42q-14 -26 -30 -51.5t-34 -48.5q-8 -9 -16.5 -19t-19.5 -15l-3.5 -1t-7.5 -2t-7 -2.5t-3 -2.5q3 -8 15 0.5t25 22t23.5 26t11.5 14.5q17 24 32.5 50.5t29.5 52.5q0 2 1 2l5 10q2 4 4 7.5t4 7.5v1zM510 270q-11 -27 -25 -52.5t-23 -52.5
q4 12 12.5 23.5t14.5 22.5q13 26 21 58v1zM140 330q-6 -2 -8.5 -13t-5.5 -16q-4 -6 -7 -10t-4 -12q-1 -4 -2 -9t-1 -10q2 6 8 13.5t8 12.5q3 10 3 20.5t6 20.5zM362 29q11 15 21 31.5t20 35.5q-10 -18 -20 -34.5t-21 -32.5zM256 648q-6 -6 -2 -9q7 7 2 9zM232 443
q5 10 10 25l-26 -64l16 38v1zM412 114q0 -1 -2 -5zM454 202q0 -1 -0.5 -1t-0.5 -1q1 1 1 2z" />
    <glyph glyph-name="E" unicode="E" horiz-adv-x="465" 
d="M696 730q1 -7 -5 -12t-14.5 -8t-17 -5t-12.5 -3q-7 -2 -13.5 -2t-12.5 -2q-4 3 -10 0q1 -3 -1 -5q-13 -6 -27.5 -10t-28.5 -6q-15 -3 -30 -7t-30 -6q-6 -1 -12.5 -1.5t-12.5 -2.5q-8 -2 -9 -3.5t-6 -3.5q-14 -5 -27.5 -6t-27.5 -3q-8 -2 -15.5 -4t-15.5 -4l-18 -3
q0 -4 -4 -8q0 5 2 8q-2 0 -5 -6.5t-6 -15t-5 -16t-3 -9.5l-21 -53q-8 -20 -15 -38.5t-14 -38.5q9 25 19.5 52t17.5 43q-8 -19 -21 -54t-25.5 -70.5t-23 -64t-12.5 -34.5q33 4 66 6.5t65 6.5l34 4t34 3h13q2 1 4 3.5t4 1.5q9 -3 8 -9t-7 -11q-10 -8 -24 -8t-25 -3
q-6 -2 -6 -3.5t-7 -4.5q-7 -5 -17 -6t-18 -3q-14 -2 -28 -4.5t-28 -4.5q-11 -2 -18 -6t-20 -6q-10 -2 -25.5 -2t-23.5 -6q-5 -4 -8.5 -19t-5.5 -21l-12 -37q-11 -37 -23.5 -72.5t-25.5 -71.5q-8 -20 -14.5 -39t-13.5 -39q-5 -14 -10 -26t-6 -26q0 -1 0.5 1.5t1.5 6.5
t2.5 6.5t2.5 1.5q2 -2 0.5 -9t-0.5 -10q33 6 66.5 24.5t62.5 34.5q29 15 56.5 31.5t56.5 31.5q14 7 20 3.5t0 -19.5q-5 -14 -17.5 -27.5t-23.5 -24.5q-17 -15 -33 -30t-34 -29t-39.5 -29t-45 -26t-48 -14.5t-48.5 6.5q-15 6 -29 15.5t-25 22.5t-17.5 28.5t-4.5 32.5
q2 14 8.5 25t13.5 23q1 2 3 9t4 15.5t4.5 15t4.5 6.5q-1 -2 -2 -5q-2 -6 -2 -8l5 15q-1 1 1 8.5t2 9.5l11 28q5 14 10.5 26.5t10.5 26.5q11 26 18 53t18 53q-10 0 -21.5 6t-19 14.5t-7 18t14.5 15.5q2 0 2 1q10 3 21.5 3t21.5 1q5 1 9 2.5t8 2.5q1 0 1.5 4t2.5 3q0 -2 -1 -4
q-1 -1 -1 -3q0 -1 -1 -2q4 1 8.5 15.5t6.5 22.5q-1 -3 -5 -9l6.5 18t15.5 45.5t20 60t20.5 62t16.5 51t9 27.5q-12 -2 -28 -1.5t-29.5 5.5t-22 15.5t-6.5 27.5q1 15 18 21q10 4 24.5 4t29.5 0.5t27.5 3.5t18.5 12q5 7 6 14.5t2.5 14.5t5 12.5t12.5 8.5q13 5 28 -0.5
t26 -13.5q6 -5 10 -10t9 -10q3 -5 3 -10l19 3q35 4 69 6.5t69 7.5q32 4 65 8t66 5h8.5t7.5 1q2 0 4.5 2t3.5 2q4 0 7.5 -1t4.5 -7zM185 374q12 28 20 59t17 59q-8 -20 -16 -38.5t-14 -38.5l-47 -129q10 23 20 44t20 44zM243 360l-13 -32q6 0 4 8zM322 564q0 -1 -0.5 -1.5
t-0.5 -1.5v1q0 1 0.5 1t0.5 1zM322 564l2 2zM316 551l3 7z" />
    <glyph glyph-name="F" unicode="F" 
d="M678 733q6 -4 -1.5 -11.5t-20.5 -15.5t-25 -14t-15 -7q-10 -3 -11.5 -5.5t-9.5 -8.5q-8 -7 -22.5 -11t-24.5 -6q-40 -11 -77.5 -20t-77.5 -12q-9 -1 -20.5 -2t-20.5 -3q-10 -3 -10.5 -4.5t-4.5 -12.5l-8 -22q-7 -22 -13 -44t-13 -45q-7 -22 -14.5 -44t-18.5 -42
q-2 -2 -4.5 -9.5t-5.5 -15.5t-5 -14t-3 -6v3l-3 -8q2 3 2.5 1.5t0 -4.5t-1 -6.5l-0.5 -3.5q26 2 50.5 4t50.5 4q24 2 48 0t48 0q1 0 3.5 1.5t5 2t4 -1.5t0.5 -9q-2 -7 -8.5 -10.5t-14.5 -5t-16.5 -2t-13.5 -1.5q-9 -2 -15.5 -6.5t-19.5 -6.5q-12 -3 -23.5 -5t-23.5 -5
q-9 -2 -19.5 -2t-19.5 -4q-6 -3 -13 -6t-17 -4q-11 -1 -18.5 -2t-12.5 -11q-5 -11 -6 -25t-5 -25q-1 -2 -5 -13.5t-9 -25t-10 -24t-7 -10.5t0 3.5t1 4.5q-3 -7 -5.5 -14t-4.5 -13l4 4l-5.5 -19t-13 -42t-14 -43.5t-7.5 -24.5q-9 -27 -16 -57t-25 -50q-2 -3 -2 -4v-2t-1 -2
t-7 -3t-14 -0.5t-16 5t-15 8t-12 7.5q-11 8 -19.5 18.5t-10.5 24.5q-2 13 2.5 18.5t8.5 14.5l-4 -4q-1 0 0.5 6.5t4.5 14.5t6 14.5t5 6.5q0 -1 -0.5 -2t-0.5 -3l32 81q-6 -15 -10.5 -24.5t-4.5 -8.5l5.5 13t13 33t17 44t17.5 45t14 37t8 20q-9 0 -21 3.5t-21 10t-12 15.5
t7 20q5 5 11 6t11 2l30 5q15 4 18 8t8 18q6 18 12 35.5t14 35.5q13 30 28.5 60t26.5 59l-6 -8q-1 0 0.5 5.5t4 13l4.5 13.5t2 8q5 11 8 21.5t7 21.5q-12 -1 -30.5 0t-35.5 6t-26.5 16t-3.5 31q5 15 18 17t27 3q11 1 20.5 1t20.5 2q6 0 14 0.5t14 2.5q8 2 10 3t5 11
q3 9 5.5 19.5t7.5 18.5q9 14 21.5 13.5t24.5 -9t20 -22t8 -25.5q45 8 91 9.5t91 7.5l46 6t46 8q2 0 8 1t12 1.5t11 1.5t7 3zM203 263l-1 -2l1 3v1q-21 -57 -43.5 -112t-41.5 -112q9 25 21 49t22 49q11 31 21.5 62t20.5 62zM118 255q-2 -1 -6 -11.5t-7 -19.5zM204 268
q-1 -1 -1 -3q0 1 1 2v1zM204 268q0 1 1 2v1q-1 -1 -1 -3z" />
    <glyph glyph-name="G" unicode="G" horiz-adv-x="557" 
d="M576 438q1 -8 -1.5 -15t-6.5 -15q-9 -18 -18.5 -36t-19.5 -36q-5 -11 -5.5 -19.5t-5.5 -20.5q-7 -20 -15.5 -40.5t-16.5 -41.5l-60 -147q-14 -35 -29.5 -68t-25.5 -68q-10 -36 -28 -70t-35 -66q-18 -35 -35.5 -68.5t-41.5 -64.5q-13 -17 -30 -36.5t-37 -28.5t-44 -4.5
t-44 12.5q-32 13 -50 35.5t-24 49t0 55.5t21 57q19 33 44.5 62t54.5 53q11 8 21 18t21 19q8 7 20 19t23 13q12 1 10.5 -6t-8 -16t-14.5 -17.5t-10 -10.5q-24 -30 -44.5 -63t-37.5 -68q-6 -11 -15 -29.5t-15 -38.5t-7 -39t10 -31q10 -12 21.5 -11t23 8.5t21 18.5t15.5 19
q47 64 79 138t61 147q29 75 55.5 151t53.5 153q-26 -44 -56 -86t-63 -80q-11 -12 -23 -24.5t-25.5 -23.5t-28.5 -18.5t-31 -9.5q-28 -3 -53 11t-43.5 37t-29 51t-9.5 53q0 1 -1.5 11.5t1.5 13.5v-18l3 23q-1 -2 -1.5 2t0 9.5t1 11.5t0.5 8q4 15 8.5 30t10.5 30q9 24 19.5 48
t19.5 48t21.5 46t26.5 44q1 2 8.5 13.5t16.5 24.5t16.5 22.5t10.5 8.5q-1 -3 -3 -6q-4 -6 -3 -6q7 9 14.5 20.5t16.5 22.5l-8 -8q3 12 15.5 24t20.5 21q11 13 22 25.5t23 24.5q23 22 50 41t59 23q36 5 67 -13t51 -48q7 -11 8 -19t3 -19q1 -10 4.5 -18t3.5 -19
q1 -27 -17 -51.5t-37 -42.5q-9 -9 -20 -19t-23.5 -19t-25.5 -16.5t-25 -10.5q-14 -4 -15 -0.5t4 9.5q-6 -4 -6 -3q0 2 6.5 12.5t14.5 22t14.5 20.5t8.5 9l-8 -14q-3 -5 -5.5 -10t-2.5 -6q17 26 30 52.5t21 55.5q4 14 7.5 32.5t-2.5 32.5q-6 13 -20 8.5t-30 -17t-32 -29.5
t-26 -28q10 11 20 21l21 21q9 8 23.5 20t26.5 12q13 0 16 -12t1.5 -26.5t-5.5 -26.5l-4 -12q-2 0 1.5 13t6 27.5t0 25.5t-17.5 8q-12 -3 -24.5 -11.5t-23.5 -19.5t-21 -22.5t-18 -20.5q-45 -51 -83.5 -109t-70.5 -118q-16 -31 -30 -62.5t-28 -63.5q-4 -10 -11 -25.5
t-12 -32.5t-5.5 -32.5t8.5 -25.5q10 -12 26 -8.5t32.5 13t30.5 21t20 16.5q-2 -2 -9 -8t-10 -4l24 24q9 9 16.5 17t9.5 10l53 58q29 32 55.5 65.5t52.5 67.5q11 14 22 27.5t19 27.5q3 5 4 10t2 7q8 16 23.5 16t31.5 -9t28.5 -24t13.5 -28zM137 434q-24 -42 -42 -85.5
t-27 -89.5q8 33 22 65.5t28 62.5q16 35 37 69.5t42 66.5l18 26t19 26q5 6 10.5 17t12.5 17q-17 -14 -31.5 -36.5t-26.5 -40.5q-17 -23 -32 -48zM532 376q-30 -64 -57 -129.5t-50 -132.5q9 27 22.5 53.5t24.5 53.5q14 32 26 64.5t24 65.5zM393 40q4 5 6.5 11.5t5.5 11.5
q-3 -3 -5.5 -6t-4.5 -6l-10 -23q2 4 8 12zM384 25l1 3q-1 -1 -1 -3zM313 551q0 -2 -2 -2q2 0 2 2z" />
    <glyph glyph-name="H" unicode="H" horiz-adv-x="528" 
d="M627 679q5 -11 5 -18.5t-3 -14.5t-7.5 -13.5t-7.5 -13.5q-3 -8 -4.5 -17t-6.5 -19l-24 -46l-48 -95q-11 -21 -21.5 -41t-15.5 -42q15 0 32 -2t32 0q3 1 6 0t6 0q0 2 1 3q2 2 4 2q5 -2 8.5 -3.5t1.5 -8.5q-2 -8 -12.5 -10.5t-15.5 -3.5q-12 -3 -24.5 -3t-23.5 -3
q-6 -2 -11.5 -3.5t-13.5 -5.5q-13 -7 -22 -27.5t-15 -34.5l-33 -80q-11 -23 -17 -44.5t-14 -44.5q-18 -48 -36.5 -95t-35.5 -95q-5 -13 -10 -25.5t-12.5 -21t-18.5 -9.5t-27 9q-30 19 -24 52q5 26 14.5 52.5t17.5 52.5q11 32 22.5 62t24.5 60q18 42 32.5 86t33.5 86
q-14 -2 -26 -6.5t-27 -5.5q-16 -2 -31.5 -4t-31.5 -4q-8 -1 -18 -2t-20 -3t-19 -5.5t-13 -8.5q-7 -8 -11 -23.5t-8 -26.5l-7 -28q-5 -23 -13 -45.5t-15 -45.5q-8 -26 -16 -51t-15 -51q-2 -8 -4 -19t-5 -22t-8 -19.5t-14 -10.5t-19.5 3t-19.5 13.5t-15 18.5t-7 18
q-3 16 2 32.5t9 30.5q16 58 35.5 114t36.5 113q-5 1 -12.5 4.5t-13.5 8.5t-9 11t0 14q3 7 12.5 9.5t15.5 4.5q14 4 20 4t12 12q5 9 8.5 18.5t7.5 18.5q8 20 15.5 39.5t15.5 39.5q26 65 52.5 128.5t58.5 125.5q7 10 11 20q0 -2 2 5t0 6q8 11 21 10.5t24 -5.5q15 -5 28 -17.5
t7 -29.5q-4 -9 -11.5 -17.5t-12.5 -17.5q-5 -10 -7.5 -22.5t-8.5 -24.5q-7 -15 -13.5 -30.5t-14.5 -30.5q-14 -26 -24.5 -52.5t-22.5 -52.5q-8 -16 -10 -31t-9 -31q-5 -12 -9.5 -24t-10.5 -23q20 0 39 5t39 7l46 3q11 1 25.5 0t24.5 3q7 3 13 14t11.5 25t10.5 27.5t8 21.5
l41 96l73 164q3 6 4 11t3.5 9t7.5 5t14 0q19 -2 36 -16.5t25 -31.5zM260 522q-15 -32 -33.5 -63.5t-31.5 -65.5t-24 -66.5t-22 -66.5q19 52 42 105zM310 -38q7 12 10.5 24t7.5 25q-5 -8 -11.5 -16t-8.5 -17q-3 -8 -3.5 -16.5t-2.5 -16.5q2 5 4 8.5t4 8.5zM264 531
q-2 -4 -2 -5z" />
    <glyph glyph-name="I" unicode="I" horiz-adv-x="448" 
d="M644 696q1 -7 -5 -11.5t-14.5 -7t-17 -3.5t-12.5 -1q-12 -1 -18.5 -5.5t-20.5 -7.5t-27 -6t-27 -5q-3 -1 -10.5 -0.5t-9.5 -1.5q-5 -5 -2.5 -7t1.5 -7q-5 -17 -14 -33.5t-17 -31.5q-14 -27 -27 -54t-27 -55q-13 -25 -21.5 -50.5t-21.5 -51.5q-14 -29 -26.5 -58t-24.5 -58
q-10 -23 -16 -46t-15 -46q-14 -35 -26 -70.5t-23 -71.5q35 4 71 6t71 0q4 0 9.5 -1t9.5 0q3 0 3.5 3t3.5 2q8 -2 8 -10q0 -6 -5.5 -10t-13 -6t-15.5 -3t-12 -1q-6 -1 -10 -1t-8 -2t-8.5 -5t-10.5 -5l-52 -11q-21 -5 -39 -9.5t-40 -7.5l-24 -4l-24 -4q-8 -2 -13.5 -5
t-12.5 -5q-9 -3 -21.5 -6t-25.5 -4t-25 0.5t-21 6.5q-14 8 -17 23.5t13 23.5q8 5 19.5 5.5t20.5 2.5q25 5 49.5 7.5t47.5 10.5q-8 16 -7.5 33.5t4.5 34.5t10.5 33.5t12.5 32.5q7 20 15 38.5t17 37.5q8 19 13.5 38t12.5 38q16 44 35.5 86t38.5 84q20 43 38.5 85.5t38.5 84.5
q-8 -2 -13 -4.5t-13 -5.5q-11 -5 -27 -6.5t-28 -2.5q-8 0 -19 2t-19.5 7.5t-13 13.5t0.5 19q2 5 5 7.5t8 4.5q9 5 21 5.5t22 2.5l28 6t28 4q11 1 19 3t19 5t13 4.5t8 9.5q6 6 10 16q-1 1 -1 2q0 4 1 5q4 5 8 6t10 2q13 2 26.5 -4.5t22.5 -14.5q6 -5 8.5 -8t10.5 -5
q4 -1 10 0t11 1q19 2 37.5 2.5t37.5 -1.5q3 0 9.5 -1t9.5 0q3 0 3 3t3 2q8 -2 9 -7v-1zM390 508q7 12 11 24t9 25q-5 -8 -13 -16.5t-11 -16.5q-4 -10 -4.5 -19.5t-2.5 -19.5q2 6 5 11.5t6 11.5zM349 452q4 7 5.5 14t4.5 14q-3 -4 -5.5 -7.5t-4.5 -6.5q-5 -9 -7.5 -18
t-6.5 -18z" />
    <glyph glyph-name="J" unicode="J" horiz-adv-x="465" 
d="M622 697q1 -8 -2.5 -14t-7.5 -11q-14 -17 -27 -33t-27 -33q-9 -12 -12 -24t-11 -26l-42 -85q-18 -39 -34 -78l-32 -78q-8 -20 -18 -40.5t-15 -41.5q-5 -19 -10.5 -37.5t-13.5 -38.5q-29 -70 -58.5 -139.5t-76.5 -129.5q-11 -14 -23 -24t-32 -10q-19 0 -38 5.5t-36 14.5
q-37 20 -57.5 56.5t-30.5 75.5q-11 42 -14 84t-1 84q0 5 -1 20t-2 31t0.5 29.5t6.5 15.5q6 2 10 -2t6.5 -10.5t3.5 -13t2 -10.5q5 -43 11 -84t17 -83q6 -21 13 -42.5t15 -41.5q5 -14 13.5 -31.5t23.5 -25.5t28 0t23.5 22.5t18 31.5t12.5 26q40 80 71 163t62 167
q29 80 60.5 161t77.5 154q-21 -8 -41.5 -12.5t-41.5 -10.5q-19 -5 -37 -13.5t-37 -13.5l-30 -7.5t-35 -11.5t-31 -16.5t-18 -23.5t5 -29t17 -26q2 -3 8 -8.5t11.5 -11.5t8.5 -12t0 -10q-1 -2 -9.5 -5t-9.5 -3q-14 -1 -28.5 9t-24.5 19l-21 19q-7 5 -12.5 9.5t-10.5 13.5
q-4 7 -6.5 13t-2.5 14q1 13 6.5 22t14 15t18.5 10.5t19 9.5q28 14 61 22.5t65 17.5q10 3 16.5 7t15.5 8q15 7 31.5 10.5t31.5 8.5q21 7 42 13l42 12l6 1.5t3.5 1t3 2t5.5 4.5q5 4 8 9.5t5 7.5q7 9 23 12.5t32 1.5t29 -10t15 -23zM415 362q12 26 20 57t19 57
q-9 -18 -17.5 -35.5t-15.5 -36.5l-63 -165q13 33 28 62t29 61z" />
    <glyph glyph-name="K" unicode="K" horiz-adv-x="573" 
d="M637 -34q3 4 6.5 8t6.5 5.5t5 -1.5t4 -13q1 -9 -1 -15.5t-7 -14.5q-11 -17 -23.5 -34t-28 -32t-33.5 -26t-39 -15q-17 -3 -31.5 0t-28.5 11q-2 1 -11 8t-19 15t-18.5 14.5t-8.5 8.5q2 0 4 -1q-3 3 -5 3q2 -2 -4 1.5t-8 4.5q-10 8 -19 20q-8 10 -16.5 18.5t-17.5 16.5
q-2 1 -10 11t-17 21t-15 21t-3 13q1 1 2.5 -2t3.5 -1l-13 16v-2q-1 -1 -10.5 13t-21.5 32.5t-22.5 35t-12.5 19.5q-8 12 -16.5 25.5t-12.5 27.5q-2 5 3 7q-1 6 -8 9l-18 35q-7 -22 -9.5 -43.5t-10.5 -43.5q-10 -32 -17.5 -63.5t-15.5 -63.5l-12 -52q-2 -10 -3 -23.5
t-6 -22.5q-5 -10 -13 -9t-16.5 7t-15.5 14.5t-11 14.5q-11 15 -14 31t-1.5 32.5t6.5 33.5t9 33q13 55 33 112q8 22 12.5 43.5t9.5 44.5q17 57 36.5 113.5t37.5 113.5q17 51 34.5 101t38.5 101q6 18 17 41l7 17q-2 2 -2 4q5 9 14 11.5t18.5 1.5t19.5 -5t16 -9q13 -9 15.5 -18
t-1 -18t-10.5 -18.5t-11 -19.5q-3 -8 -3 -14t-2 -15q-5 -16 -12 -31.5t-12 -30.5q-8 -21 -15.5 -42t-15.5 -43l-18 -45q-5 -12 -7.5 -23t-4.5 -24q-5 -23 -15.5 -45.5t-16.5 -45.5q37 29 71 58t66 62q32 35 66 67t65 70q29 36 60.5 77t44.5 86q2 8 3 14.5t12 4.5
q8 -2 15 -9.5t12.5 -17.5t9 -20t5.5 -17v-2q5 -32 -8.5 -57.5t-34.5 -50.5q-15 -17 -29 -34.5t-31 -34.5q-8 -8 -12.5 -16.5t-11.5 -17.5t-16.5 -17t-17.5 -16q-17 -15 -33.5 -31.5t-33.5 -31.5q-12 -10 -21.5 -21t-20.5 -22q-32 -29 -70 -55t-78 -46q17 -27 34 -53t37 -51
q-6 9 -16 23.5t-18 27.5q12 -16 30 -38t35 -43t30.5 -37t16.5 -20q20 -18 39 -35.5t38 -36.5q13 -13 27.5 -28t28.5 -24l-5 6q0 1 6 -1.5t13 -5.5t13.5 -6t8.5 -4q8 -2 15 -4t15 -1q20 2 40 16t31 28zM140 318q-17 -61 -35.5 -122t-32.5 -122q7 23 15.5 46.5t16.5 47.5
q9 32 15.5 63t14.5 62q0 2 1 3zM315 116q5 -8 11.5 -14.5t12.5 -13.5l-17 21zM244 213q-5 8 -5 9zM245 211l4 -5z" />
    <glyph glyph-name="M" unicode="M" horiz-adv-x="833" 
d="M743 -169q4 1 12 5t16.5 7.5t15.5 4t8 -5.5t-3 -13.5t-10.5 -15t-13 -14t-10.5 -9.5q-26 -21 -58 -29q-33 -9 -58.5 2t-46.5 38q-22 28 -31.5 58.5t-11 62t4 63.5t14.5 64q0 6 1 10t1.5 7.5t2.5 5.5q0 -1 -0.5 -6t-1.5 -8l5 18q0 -1 -2 -1q-2 9 4 24t9 23l22 50
q10 22 18.5 43t16.5 44q8 25 20.5 48.5t23.5 46.5q1 2 5 10.5t8.5 18t8.5 16.5t6 7l-2 -6q-2 -7 -1 -7q5 13 9.5 25.5t9.5 26.5l-7 -14q0 5 3 13t5 15.5t1.5 14t-8.5 8.5q-6 1 -13.5 -2t-15 -8.5t-14 -11.5t-10.5 -10q-34 -31 -61.5 -66t-53.5 -73q-13 -18 -25 -35.5
t-28 -33.5q-10 -9 -17 -23.5t-15 -26.5q-14 -22 -26 -43.5t-25 -42.5q-9 -16 -20 -31.5t-17 -32.5q-4 -11 -8 -20t-10 -13.5t-14 -3t-20 12.5q-23 22 -25.5 49t3.5 56q17 85 56.5 166t83.5 155q19 32 35 66t29 69q2 6 5.5 15t-2.5 11q-4 1 -10 -1t-12 -5.5t-11 -7.5t-8 -6
q-35 -26 -62.5 -58.5t-53.5 -66.5q-26 -35 -50.5 -70.5t-48.5 -72.5q-26 -38 -50 -77l-48 -78q-11 -19 -22.5 -37.5t-19.5 -38.5q-8 -19 -15 -38t-15 -39q-5 -12 -9 -28t-12 -27q-10 -14 -26.5 -14t-29.5 11q-11 9 -15 22.5t-3 27.5q2 42 17 84t31 80t32 74.5t30 74.5
q29 78 65 154.5t58 157.5v-10l6 37q3 18 -0.5 32t-26.5 9q-17 -5 -30.5 -15.5t-24.5 -23.5q-27 -29 -47 -64t-34 -72q-3 -8 -5 -17.5t-3 -14.5q-1 -6 -0.5 -11.5t-4.5 -10.5q-9 -8 -18 -3.5t-15 12.5q-12 18 -12 43.5t5 45.5q5 18 15.5 32t18.5 31q2 5 2.5 11t5.5 12l10 14
q16 18 34 34q35 29 77 42q24 8 48.5 6.5t43.5 -21.5q12 -13 19 -33t11 -37q5 -23 0 -50t-12 -49t-13.5 -44t-14.5 -44q-7 -21 -14.5 -41.5t-15.5 -41.5q-6 -17 -10 -32.5t-9 -32.5q39 61 81.5 121.5t93.5 114.5q12 13 32 37t43 43t47 24t45 -20q19 -23 24.5 -55t-5.5 -60
q-11 -26 -27 -49t-27 -48q-29 -67 -60.5 -133t-52.5 -137q27 47 55 92.5t60 90.5q-8 -11 -16 -21.5t-15 -21.5q14 21 24.5 37t13.5 20q26 36 54.5 70.5t62.5 64.5q18 17 41.5 32.5t49.5 15.5q15 0 27.5 -6t22 -16.5t15.5 -23.5t9 -27q6 -33 -0.5 -64.5t-19.5 -61.5t-29 -59
t-29 -56q3 7 7 7l-3.5 -10.5t-9 -23t-10 -24t-5.5 -13.5q-9 -21 -17.5 -42t-17.5 -41q-16 -39 -30.5 -78.5t-23.5 -80.5l-4.5 -22.5t-2.5 -24.5t4 -22.5t15 -16.5q21 -11 51 -9.5t51 9.5zM610 131q-12 -25 -19 -49.5t-15 -49.5q8 23 17 45t19 44q12 26 25 54.5t18 55.5
q4 9 0 10q-8 -9 -11.5 -26t-8.5 -28l-12 -28t-13 -28zM167 430q-14 -31 -26 -61.5t-24 -62.5q14 34 28 67t30 65q17 34 28.5 69t20.5 70q-4 -12 -8.5 -23.5t-9.5 -22.5q-11 -25 -19.5 -50.5t-19.5 -50.5zM487 282q-5 -9 -14 -23.5t-17.5 -28.5t-15 -23.5t-7.5 -9.5
q8 13 17 27q8 12 17.5 27t19.5 31zM639 473q-10 -9 -19 -18.5t-18 -20.5zM568 0q3 6 0 7q-4 -6 0 -7zM595 425l1 2l1 1q0 -1 -1 -1l1 1l2 2l1 1l2 3l-2 -2q-1 -1 -2.5 -3t-3.5 -5v1l-2 -3zM489 285l4 6v-1zM487 282q2 2 2 3zM599 431q1 0 1 1z" />
    <glyph glyph-name="L" unicode="L" horiz-adv-x="499" 
d="M475 132q13 -2 13.5 -7t-5 -11.5t-14 -12t-14.5 -8.5q-22 -11 -45.5 -18t-47.5 -12t-48.5 -10.5t-47.5 -13.5q-22 -8 -43 -18t-41 -21q-12 -6 -22 -12t-18 -17q-1 -1 -4.5 -5l-7 -8t-6.5 -7t-3 -2q-5 -5 -10.5 -9.5t-10.5 -8.5q4 2 12 7t9 3q1 -5 -3.5 -9t-11.5 -7.5
t-13.5 -5.5t-10.5 -3q-17 -2 -34 3.5t-22 23.5q-4 12 -1.5 25t8.5 25t14.5 22.5t16.5 18.5q16 16 34 23q11 5 23 8t17 15v3.5t1 8l2 9t3 5.5q-1 -2 -1 -4t-0.5 -3.5t-0.5 -3.5l-2 -10q2 6 3.5 12t3.5 13q-2 -2 -3 0q-2 5 -0.5 13.5t4.5 17.5t6 17.5t4 13.5l8 28t7 28
q7 26 11 50.5t7 50.5q3 29 10 56.5t15 54.5q1 2 4 13t7 23.5t7.5 22.5t5.5 10q1 0 -1 -7t-1 -8q5 15 8.5 30t8.5 29l-1.5 -2.5t-3 -5.5l-2.5 -5t-1 -1q-2 8 4 20t9 20l14 42q8 21 16.5 41.5t21.5 40.5q17 24 40 41t53 19q21 2 42 -4.5t38 -16.5q32 -17 45.5 -41t15.5 -56
q1 -20 -4.5 -43t-16 -45t-24.5 -41t-30 -31q-12 -9 -27.5 -15.5t-30.5 -4.5q-10 1 -18.5 6.5t-2.5 16.5l1 1l2 2h-1l5.5 12t12.5 25.5t13 24.5t8 11l-1.5 -5t-4 -11t-4.5 -11.5t-2 -6.5q23 48 38 97q2 6 5 16.5t5.5 21.5t2 21t-4.5 17q-5 7 -12.5 7.5t-15 -3t-15 -9
t-11.5 -9.5q-21 -21 -35 -49t-25 -55q6 15 14.5 33t19 35t23.5 31t30 20q15 6 21 -0.5t6 -17t-3 -22t-4 -16.5q1 4 2.5 13t2 18t-1.5 16.5t-8 9.5q-7 2 -14.5 -1.5t-14.5 -9t-12.5 -12.5t-8.5 -11q-31 -40 -50 -89t-35 -97q-32 -98 -56.5 -197.5t-61.5 -194.5
q50 15 101 26.5t103 14.5q17 1 34.5 0.5t34.5 -2.5zM264 567l-16 -52t-15 -52q6 20 12.5 38t14.5 36q12 25 23.5 56.5t27.5 60.5t37 51t51 30q-24 -5 -42.5 -18.5t-34.5 -35.5q-20 -26 -33.5 -54.5t-24.5 -59.5zM317 490q-6 -18 -12 -35.5t-11 -35.5l23 69v2v-1v1zM100 -69
q-1 0 -1 -1z" />
    <glyph glyph-name="N" unicode="N" horiz-adv-x="574" 
d="M186 238q21 32 42 65t44 65l-26 -36l-36 -49q50 75 103 147.5t113 139.5q11 12 28 29.5t36.5 33t40 27.5t40 13.5t36 -10t27.5 -41.5v-2q1 -5 2 -5q11 -36 4.5 -73.5t-22.5 -73.5t-36 -70t-36 -65q5 7 7 7l-4.5 -10.5t-10 -23t-10.5 -24t-6 -14.5q-8 -18 -16.5 -37
t-17.5 -38q-20 -45 -40 -89t-38 -90q-14 -34 -28.5 -73t-14.5 -77q0 -17 9 -26t21.5 -12.5t27.5 -3.5t28 1q11 2 21 5t21 6q7 2 18.5 8.5t18.5 5.5q8 -1 6.5 -7.5t-6.5 -14.5t-11 -15.5t-8 -9.5q-11 -11 -25.5 -20.5t-30.5 -16t-32.5 -8t-32.5 3.5t-29.5 16.5t-24 26
t-18.5 30.5t-13 31q-14 37 -15 76t7 77q8 34 22.5 64.5t28.5 62.5q0 1 2 10.5t6 13.5q-1 -2 -3 -10l-2 -8l10 25q-1 -1 -2 0q-1 10 7 25t12 24l27 54q13 26 25 51t23 51t23 51t25 51q2 3 8 16.5t13.5 29t14 27.5t8.5 12l-2 -8l-2 -8q5 13 12.5 31t3.5 32q0 -1 -0.5 -9.5
t-2.5 -8.5q-1 1 -0.5 10.5t-5.5 11.5q-4 1 -9 -2t-7 -5q-20 -11 -35.5 -27.5t-29.5 -33.5q-34 -38 -66 -77t-61 -81q-15 -21 -30 -42.5t-31 -41.5q-5 -8 -11.5 -12.5t-11.5 -9.5q-7 -7 -11 -16.5t-9 -17.5q-27 -45 -56 -88.5t-55 -89.5q-11 -18 -19.5 -36t-16.5 -38
q-5 -11 -8 -26.5t-13 -23.5q-12 -11 -24 -10.5t-22 8t-16.5 20t-7.5 24.5q-2 33 10.5 68.5t23.5 66.5q14 39 32.5 76t31.5 76q14 44 32.5 87t37.5 85.5t36 86t29 88.5q1 6 4 15.5t4.5 19.5t1 18.5t-6.5 13.5q-5 3 -11 3t-12.5 -2t-12 -5t-9.5 -5q-30 -18 -51 -48.5
t-37 -59.5q-16 -28 -27 -59q-3 -7 -6 -14.5t-4 -15.5q0 -2 2 -6.5t-1 -10.5q-9 -16 -27 -6q-15 8 -18.5 28.5t-2.5 35.5q0 20 5.5 38t15.5 35q3 5 7 9.5t7 10.5q3 7 4.5 13.5t6.5 14.5q22 32 53.5 55.5t67.5 34.5q22 7 44 7t41 -15q17 -14 22 -31.5t10 -36.5q11 -37 1 -73
t-20 -73q-11 -38 -26 -75t-26 -75q-8 -28 -17.5 -55t-20.5 -54l5 8q-8 -13 -13 -28zM442 303q17 32 36 62.5t36 62.5q21 39 38 81t27 87l-1 -2l1 4v2q-2 -9 -5.5 -18.5t-7 -18.5t-6 -15.5t-3.5 -8.5l-39 -81zM118 295q-13 -34 -30 -68t-32 -68q-20 -48 -33 -94
q-6 -21 -9 -44q-1 -5 0.5 -14t0.5 -14q3 8 2.5 17.5t1.5 18.5q2 10 4.5 20t5.5 20q7 22 14.5 43.5t17.5 42.5q14 31 28.5 63t24.5 64v1zM125 310q7 7 2 9q-6 -7 -2 -9zM426 565q-16 -16 -34 -39q8 10 16.5 19.5t17.5 19.5zM206 276l-4 -6q2 4 4 6zM371 500q-1 -1 -1 -2l4 6z
M579 600q0 2 0.5 2.5t0.5 1.5q0 -1 -0.5 -2t-0.5 -2zM386 518l6 8zM636 615q-1 1 -1 3zM125 310l1 1q-1 0 -1 -1zM371 500q0 -1 -1 -1q1 0 1 1zM199 266l3 4z" />
    <glyph glyph-name="O" unicode="O" horiz-adv-x="539" 
d="M453 446q3 15 13 15.5t21 -6.5t21.5 -18t13.5 -17q9 -17 11 -35t0.5 -37t-6 -37t-8.5 -35q-11 -48 -31 -92t-43 -86q-20 -36 -45.5 -76t-57 -74.5t-69.5 -59t-82 -28.5q-27 -3 -51 5.5t-44 24.5t-36.5 36.5t-28.5 42.5q-1 2 -7.5 11t-7.5 15q1 -4 4.5 -9.5t5.5 -8.5
q-4 8 -6.5 14.5t-4.5 12.5v-2q-4 12 -7 23q-3 9 -5 16.5t-2 9.5q-2 15 -1 30t3 30q5 35 14.5 68.5t17.5 67.5q8 35 21.5 66.5t29.5 62.5q7 14 14 27t15 26q1 2 5 9t8.5 15t9 14t6.5 6l-6 -11l28 45l-2 -2q3 5 6.5 11.5t5.5 9.5l21 30l22 30t22 29q26 32 55.5 61t64.5 49
q23 14 50 22.5t53 -2.5q14 -6 28.5 -17t27 -24.5t21 -29t10.5 -31.5q1 -17 -7.5 -39t-17.5 -35q-22 -34 -51 -64t-61 -54q-8 -6 -17 -13.5t-19.5 -13.5t-21 -9t-21.5 -1q-5 0 -11.5 2.5t-12 6.5t-8 9t1.5 11l7 4h-1q1 0 7 4.5t13.5 9.5l13.5 9t7 5t7 6.5t12.5 11.5
t12.5 10.5t7 4.5q-8 -8 -14 -15q-5 -6 -10 -11l-6 -6q26 22 46.5 48.5t37.5 56.5q9 17 19 41t6 45q-2 11 -8.5 15t-14.5 3.5t-17 -4t-16 -7.5q-31 -19 -56 -48t-45 -58q20 27 44 55t53 46q-16 -11 -30.5 -26.5t-23.5 -25.5q-54 -62 -95.5 -134.5t-75.5 -147.5
q-32 -72 -59.5 -151.5t-33.5 -157.5q-1 -14 -0.5 -30t5.5 -29.5t15.5 -23t28.5 -10.5q14 -1 27.5 2t25.5 8q17 7 27 13l10 5l6 3t0 -1q8 5 14.5 11t13.5 12q-1 0 -5 -3t-8.5 -6t-8 -5l-3.5 -2q0 3 4.5 8t10 9.5l11 9t7.5 6.5q8 8 16 17t16 19q17 22 31 45t27 47
q54 98 79 204q5 22 9.5 45t3.5 46q0 5 -1.5 10t-0.5 10zM57 249q18 53 44 102.5t55 97.5q28 45 57 90t64 85q9 10 19.5 21t21.5 22q-11 -9 -20 -19t-18 -19q-37 -42 -69.5 -86t-62.5 -91q-30 -48 -55 -99.5t-42 -105.5q-11 -34 -20.5 -69.5t-14.5 -71.5q5 36 17 72.5
t24 70.5zM450 682q-9 0 -13 -1q19 6 25.5 -3t4.5 -24q1 11 -2.5 18.5t-14.5 9.5zM456 613q3 8 6 18t5 20q-1 -11 -4 -20.5t-7 -17.5zM244 458q-2 -2 -2 -3l1 2l-22 -38l20 33l4 7l-1 -1l-1 -1zM453 604q-3 -8 -5 -10zM251 471l-7 -12l1 1l1 1zM422 676q-2 -2 -4 -2zM218 412
l-3 -4z" />
    <glyph glyph-name="P" unicode="P" horiz-adv-x="505" 
d="M533 754q19 6 36.5 -1t31 -20.5t22 -32t10.5 -36.5q-1 2 -0.5 -2t0.5 -2q0 -5 0.5 -12t-1.5 -8q1 1 0 4.5t-2 6.5q1 -14 -0.5 -26t-3.5 -25q1 2 1.5 4t1.5 4l2 4q2 -7 -1.5 -15.5t-5.5 -15.5q-5 -18 -11 -35.5t-14 -34.5q-14 -33 -32.5 -61.5t-41.5 -55.5
q-23 -28 -46.5 -52.5t-52.5 -46.5q-11 -8 -21 -12.5t-21 -10.5q-10 -5 -18 -13t-19 -14q-27 -17 -59 -34.5t-64 -22.5q-11 -2 -21 0q-5 0 -9.5 0.5t-9.5 1.5q-12 8 -14 -8q-6 -7 -10.5 -17t-8.5 -21t-7 -21.5t-6 -19.5q-15 -40 -28.5 -82t-18.5 -84q-2 2 -2 4q-7 -7 -19 -12
t-25 -5.5t-23.5 4.5t-13.5 17q-1 2 -1 5q-1 -1 -1 -4q-6 7 -6.5 18t1.5 22.5t5 22.5t5 18l21 102q5 23 11.5 45.5t16.5 43.5q3 8 7 14.5t7 14.5l1 4.5t2.5 10t2.5 10t2 4.5q1 -1 1 -4q2 6 2 8q-2 -3 -2 -1t1 6t1.5 8l0.5 4q3 9 6.5 18t7.5 18q11 26 17 55q1 3 6 17.5
t12 30.5t13.5 29t10.5 12q1 0 -1 -3.5t-1 -4.5q3 7 6 13.5t5 13.5q-2 -4 -4 -5q-1 0 7.5 19t19 42.5t20 44.5t11.5 26l14 34t17 32q5 6 9.5 9t7.5 8q2 3 3.5 8t3.5 9q4 8 11.5 21.5t17.5 17.5q8 3 14.5 0.5t12 -8.5t9.5 -13.5t6 -13.5q5 -12 3.5 -18.5t-6.5 -14.5l3 2
q1 0 -1.5 -6.5t-6.5 -14t-8 -13t-5 -5.5t0 3t3 6q-22 -40 -41 -81t-36 -83q1 2 9.5 20.5t18 39.5t18 38t9.5 17q-1 0 -10 -20t-20 -45.5t-20.5 -48.5t-11.5 -27q-14 -35 -26.5 -70t-22.5 -71q17 35 35.5 68t40.5 65q20 29 42 54.5t43 52.5q2 6 5 10q5 9 9 10q-2 -4 -5 -8
q-6 -8 -5 -7l14 18q-1 0 -2 1q2 11 14.5 23.5t19.5 20.5q10 11 20 21.5t21 20.5q8 8 18 18.5t20.5 20.5t22 18.5t23.5 11.5zM532 633q1 24 -5.5 31t-17.5 2.5t-24.5 -16.5t-26 -26t-23 -26.5t-14.5 -17.5q-41 -49 -82 -101t-74 -106q1 4 5 4q-10 -17 -17 -31q-7 -12 -12 -23
t-7 -13q-11 -20 -20.5 -39l-19.5 -39q1 1 8.5 4t15.5 6.5t14.5 6t7.5 1.5q0 -1 -11 -6.5t-17 -9.5q76 32 138 87.5t108 124.5q-15 -22 -32 -42t-35 -40q-11 -11 -23 -22.5t-24 -22.5q-6 -5 -17 -11.5t-17 -12.5q7 8 18.5 15.5t18.5 14.5q18 15 35 32q18 20 35 40t32 42
q29 42 54 91t29 101l-1 -2l1 3v1zM40 115q-4 -14 -7 -31t-6 -32q13 43 28 86.5t29 87.5q-10 -29 -23 -54t-21 -57zM20 -13q2 8 0.5 17t0.5 17q-3 -12 -5.5 -23.5t-4.5 -24.5q1 4 4.5 7.5t4.5 6.5zM239 468l-20 -51l21 52zM241 473q-1 -2 -1 -3q0 1 0.5 1t0.5 2zM243 478
l-1 -2l1 1v1zM256 359q0 1 0.5 1t0.5 1z" />
    <glyph glyph-name="Q" unicode="Q" horiz-adv-x="557" 
d="M399 88q-3 -8 -8 -14.5t-10 -12.5q-9 -11 -24 -22t-21 -23q-3 -6 1.5 -13.5t11 -15t14 -14t11.5 -10.5q14 -16 25.5 -32.5t25.5 -33.5q2 -3 6.5 -7t8.5 -8.5t5.5 -8.5t-1.5 -7q-5 -5 -11 -3t-12 7t-11.5 10.5t-8.5 7.5q-15 10 -29.5 18.5t-28.5 21.5q-12 11 -29 21
t-25 24q-18 -14 -39.5 -30t-45 -27t-48 -14t-48.5 9q-23 12 -41 32.5t-30 42.5q-1 2 -5 8.5t-7.5 13.5t-6 13t-0.5 8l4 -8q4 -8 6 -8q-14 23 -22 52v-1q-3 -1 -4.5 18t-1.5 43t0.5 46t1.5 27q11 70 39 138.5t62 130.5q16 29 34.5 57t41.5 51q24 25 43.5 55t43.5 56
q9 10 20.5 22t24.5 22t27.5 17t29.5 7q15 1 27.5 -6t23.5 -17q1 -2 5 -5.5t8 -8t5.5 -8.5t-1.5 -6q4 2 2 -3t-4 -6q-2 -2 -5 -2h-5q-3 0 -5 -1q6 1 -0.5 -1t-8.5 -3q-5 -2 -10 -6.5t-10 -7.5l-41 -33q17 17 33 31t39 25q-17 -6 -32 -17.5t-29 -22.5l12 11
q-84 -69 -144 -157.5t-102 -188.5q38 77 85 149t104 137q-56 -71 -99.5 -149t-78.5 -160q15 35 32.5 69.5t37.5 68.5q17 32 39 67q6 11 17 23.5t15 23.5q-4 -12 -12 -22t-15 -21q-8 -12 -16 -25.5t-16 -26.5q-29 -51 -54 -105q-24 -51 -44 -102.5t-34 -106.5
q-4 -16 -8.5 -35t-6.5 -38.5t0.5 -38t11.5 -33.5q13 -22 32.5 -25.5t40 3t40 19t33.5 23.5l-20.5 20.5t-15.5 23.5q-6 13 -1 27.5t22 16.5q7 1 13 -2.5t12 -9t11.5 -11.5t10.5 -10q11 -10 14.5 -9t14.5 12q29 29 52 64t46 69q17 28 35 56t32 57q-3 -5 -9.5 -12.5t-5.5 -9.5
q-2 6 2 15t9.5 19t11 19t7.5 14q11 26 21.5 52.5t19.5 54.5q7 21 13.5 44t7.5 46t-11.5 27.5t-32.5 -2.5q-39 -14 -71.5 -41.5t-58.5 -58.5q-8 -9 -17.5 -25.5t-20.5 -19.5q-8 -2 -11.5 1.5t-5 9t-1 12.5t1.5 12q8 40 34.5 68.5t55.5 54.5q12 11 27 24t31.5 22.5t34 14
t35.5 -1.5q31 -11 50.5 -41t27.5 -60q11 -40 2.5 -81t-22.5 -79q-17 -45 -38 -86t-47 -81q-14 -22 -29 -43t-31 -43q-4 -6 -13 -22.5t-17 -22.5q2 2 4 6.5t4 7.5l-10 -15z" />
    <glyph glyph-name="R" unicode="R" horiz-adv-x="539" 
d="M533 754q19 6 36.5 -1t31 -20.5t22 -32t10.5 -36.5v-2v-3q0 -4 0.5 -11t-1.5 -8q1 1 0 4.5t-2 6.5q1 -14 -0.5 -26t-3.5 -25q1 2 1.5 4t1.5 4l2 4q1 -8 -1.5 -19t-6.5 -22.5t-8.5 -21.5t-6.5 -16q-11 -29 -25.5 -56t-32.5 -52q-16 -21 -32.5 -41.5t-35.5 -38.5
q-8 -9 -18 -19.5t-21 -20t-23 -17.5t-24 -11q36 31 68.5 66.5t58.5 74.5t44 82.5t27 92.5q-13 -71 -53 -131.5t-88 -111.5q-24 -26 -46.5 -53.5t-50.5 -46.5q-15 -10 -33.5 -21t-38.5 -20.5t-40 -15.5t-39 -5q12 -23 24 -44.5t26 -42.5l-32 57q10 -17 26 -41t31.5 -46
t28 -39t15.5 -21l69 -79q12 -14 25 -30t26 -27q-2 2 -2.5 3.5t-1.5 3.5l5.5 -3t12.5 -7t13 -7.5t8 -4.5q8 -3 15 -5.5t15 -1.5q20 0 41 12t34 26q7 8 13 12t8 -16q1 -14 -11 -29t-26.5 -31.5t-31 -30t-35.5 -22.5t-40 -11q-16 -2 -30.5 3t-28.5 13q-2 1 -10 8.5t-17.5 16.5
t-16.5 17t-7 9q1 0 2 -1q-1 2 -2 2.5t-2 1.5q1 -3 -4.5 1t-6.5 5q-5 5 -9 10.5t-9 11.5q-7 10 -14.5 19t-15.5 19q-2 1 -9.5 11.5t-15 22.5t-12.5 22.5t-2 12.5q2 1 3 -1.5t2 -2.5l-6 10t-5 10q0 -1 0.5 -2t-0.5 -3q-1 0 -8.5 13.5t-16.5 30.5t-17 32.5t-9 18.5
q-7 14 -15 27t-12 28q-3 10 -2.5 15.5t-4.5 13.5q-23 -53 -42 -108.5t-27 -112.5q-2 2 -2 4q-8 -9 -20.5 -13.5t-24.5 -4t-23 6t-16 17.5q-6 12 -5.5 27.5t4 32t8 32t7.5 27.5q8 33 14.5 65t17.5 64q5 12 10.5 23.5t10.5 22.5q1 1 2 7t2.5 12t3 11t2.5 5q1 -1 1 -4q2 6 2 8
q-2 -3 -2 -1t1 6t1.5 8l0.5 4q3 9 6.5 18t7.5 18q11 26 17 55q1 3 6 17.5t12 30.5t13.5 29t9.5 12q2 0 0 -3.5t-1 -4.5q3 7 6 13.5t5 13.5q-2 -4 -4 -5q-1 0 7.5 19t19 42.5t20 44.5t11.5 26l14 34t17 32q5 6 9.5 9t7.5 8q2 3 3.5 8t3.5 9q4 8 11.5 21.5t17.5 17.5
q8 3 14.5 0.5t12 -8.5t9.5 -13.5t6 -13.5q5 -12 3.5 -18.5t-6.5 -14.5l3 2q1 0 -1.5 -6.5t-6.5 -14t-8 -13t-5 -5.5t1 4.5t4 9.5q-66 -109 -110 -214t-74 -207q15 50 35.5 97.5t45.5 93.5l-10 -23l24 51q-13 -33 -25 -66t-21 -68q17 35 35.5 68t40.5 65q20 29 42 54.5
t43 52.5q2 5 5 9q2 4 4 7t4 4l-2 -2.5t-3.5 -5.5l-2.5 -5l-1 -2l14 18q-1 0 -2 1q2 11 14.5 23.5t19.5 20.5q10 11 20 21.5t21 20.5q8 8 18 18.5t20.5 20.5t22 18.5t23.5 11.5zM532 633q1 24 -5.5 31t-17.5 2.5t-24.5 -16.5t-26 -26t-23 -26.5t-14.5 -17.5q-41 -49 -82 -101
t-74 -106q1 4 5 4q-10 -17 -17 -31q-7 -12 -12 -23t-7 -13q-11 -20 -20.5 -39l-19.5 -39q1 1 8.5 4t15.5 6.5t14.5 6t7.5 1.5q0 -1 -11 -6.5t-17 -9.5q76 32 138 87.5t108 124.5q-15 -22 -32 -42t-35 -40q-11 -11 -23 -22.5t-24 -22.5q-6 -5 -17 -11.5t-17 -12.5
q7 8 18.5 15.5t18.5 14.5q18 15 35 32q18 20 35 40t32 42q29 42 54 91t29 101l-1 -2l1 3v1zM297 592q-4 -9 -8 -17.5t-9 -16.5l26 57q1 1 0 -1.5t-3 -7t-3.5 -9t-2.5 -5.5zM211 183q-1 0 3 -7t9 -18q-6 11 -10 17.5t-2 7.5zM283 59v1l-1 1zM282 61l-2 2zM256 359q0 1 0.5 1
t0.5 1z" />
    <glyph glyph-name="S" unicode="S" horiz-adv-x="499" 
d="M600 738q13 -11 18.5 -24t11.5 -27q9 -17 -2 -36t-20 -33q-14 -20 -29.5 -39t-32.5 -37q-13 -13 -26.5 -27t-30.5 -24q-8 -5 -16 -6.5t-13 0.5t-5 7.5t9 14.5q3 1 9 13t13 25.5t14.5 24t12.5 10.5q-2 -2 -6.5 -11.5t-8.5 -16.5q10 14 26 39t27 51t11 49t-21 33
q-17 8 -40 3t-40 -11q-38 -13 -73 -40q48 36 106 46q13 2 28 3t26 -8q11 -11 8.5 -23t-4.5 -23q0 9 0.5 18t-1.5 16t-8 12t-20 6q-23 1 -46.5 -6t-43.5 -17q-35 -17 -65.5 -45.5t-48.5 -63.5q-20 -39 -17.5 -79.5t16 -80t33.5 -78t35 -73.5q-15 29 -31.5 56.5t-30.5 56.5
q11 -23 17 -45t19 -45q17 -28 33.5 -54.5t26.5 -58.5q20 -68 1 -123t-71 -100l20 14q0 -11 -14 -23.5t-33 -23t-37.5 -18.5t-26.5 -11q-23 -9 -48 -14t-51.5 -5.5t-52 4.5t-47.5 16q-32 16 -46 43.5t-14 59t10 63t26 57.5q4 6 18 24t30.5 34t33 24t24.5 -7q3 -6 0 -16
t-9 -21.5t-12 -21.5t-8 -16q-6 -13 -10 -26t-7 -27q-5 -24 -7.5 -51t8.5 -50q6 -14 16.5 -21.5t23.5 -10.5t27 -1.5t27 5.5q36 11 66.5 36t50.5 57q10 17 16 35t8 38q0 14 -3 29l-5 10t-1 11q0 -3 2 -7.5t4 -8.5q-2 5 -3 10t-2 11q0 -1 -2 3t-3 4q-5 12 -8 22l-18 45
q-15 39 -32 77.5t-34 77.5q-12 29 -19.5 59.5t-9.5 61.5q0 3 -1 14.5t-0.5 24t3 22t8.5 9.5q-1 0 -2.5 -8t-0.5 -8q6 28 21 56l-7 -10q2 13 10 26.5t18.5 25.5t22 23t20.5 19q54 50 125 68q36 9 69 4t67 -19q14 -5 26 -11.5t23 -15.5zM41 -72q-15 18 -19.5 46t-1 58t14 59.5
t25.5 51.5q-18 -24 -30.5 -51.5t-16.5 -55.5t2 -56t26 -52zM299 510q1 -4 0.5 -7.5t-0.5 -6.5v14z" />
    <glyph glyph-name="T" unicode="T" horiz-adv-x="442" 
d="M818 732q1 -7 -4.5 -11t-13 -6.5t-15.5 -3.5t-12 -2q-14 -3 -30 -3t-29 -5q-1 0 -3 -3t-4 -4q-3 -2 -6.5 -2.5t-6.5 -1.5q-10 -2 -19.5 -3.5t-18.5 -3.5l-72 -12q-6 -1 -14.5 -1t-16 -0.5t-14.5 -3.5t-10 -10q-2 -3 -1.5 -7t-0.5 -8q-3 -9 -8 -17.5t-10 -16.5l-38 -76
q-14 -26 -25 -54t-23 -55q-7 -16 -14.5 -31.5t-12.5 -32.5q-3 -13 -6 -25.5t-8 -26.5q-25 -60 -52 -119.5t-50 -121.5q-8 -22 -20.5 -52.5t-30.5 -58.5t-42 -46.5t-54 -15.5q-34 3 -60.5 24t-42.5 51q-12 23 -20.5 53.5t-9.5 56.5v12.5t4 11.5q5 5 10 4t10 -5t9 -9.5t7 -9.5
q18 -26 35.5 -54t43.5 -48q12 -9 17.5 -9t14.5 12q19 23 32 52.5t22 58.5q23 70 49.5 139t53.5 138q26 69 52.5 138t59.5 136q-13 -2 -25.5 -3.5t-25.5 -3.5q-10 -2 -17.5 -5t-17.5 -5q-16 -5 -32.5 -6t-33.5 -3q-19 -2 -37.5 -3t-37.5 4q-9 3 -19.5 10t-16.5 15.5
t-5.5 17.5t13.5 16q8 5 19 6.5t19 2.5q36 6 71.5 12t71.5 8q15 2 28.5 3.5t27.5 4.5q15 4 30 6q7 1 17.5 0.5t16.5 3.5q10 6 12.5 16t7.5 16q10 11 28.5 11.5t31.5 -3.5q14 -5 19.5 -11t14.5 -14q4 -5 1.5 -5t4.5 -2q5 -1 10 0t9 2q9 0 18 0.5t18 1.5q36 2 72 2t72 -2
q10 -2 16 -2q2 1 3 4t5 2q7 -2 9 -9zM437 500q18 35 33 72t35 72l-18 -27t-19.5 -30.5t-18 -31t-14.5 -28.5q-7 -15 -17.5 -42.5t-22 -58t-23 -60t-18.5 -48.5q7 16 19 42.5t24 54.5t23 51.5t17 33.5z" />
    <glyph glyph-name="U" unicode="U" horiz-adv-x="562" 
d="M614 540q1 -8 -2.5 -11t-7.5 -7q1 1 3 1q1 0 -2.5 -6t-8 -13t-9 -12.5t-5.5 -4.5q-1 0 0.5 2.5t3 6t3 6l1.5 2.5q-26 -39 -47.5 -80t-39.5 -84q4 9 12.5 26t17 34.5t15.5 30.5t10 15q-3 -3 -11.5 -20.5t-18 -38t-17.5 -38t-9 -20.5q-13 -30 -24.5 -61t-20.5 -63
q-8 -31 -15.5 -61.5t-16.5 -61.5q-8 -26 -16.5 -54.5t-11.5 -53.5q2 8 5 12l-0.5 -8t-0.5 -17.5t0.5 -18t0.5 -11.5q2 -9 2 -11.5t8 -1.5q6 1 13 6t13 11.5t11.5 13t9.5 10.5q5 7 14 20.5t17 16.5q6 3 8.5 2t5.5 -8q5 -11 0 -27.5t-9 -27.5q-5 -13 -11 -23.5t-14 -21.5
q-11 -17 -24.5 -27.5t-35.5 -9.5q-43 3 -67 36q-20 27 -24 61t0 66q2 12 5.5 22t6.5 21q0 2 0.5 7.5t1 12t1 11.5t1.5 5q1 -1 1 -3q1 2 1 7q-1 -1 -1 2.5t0.5 8.5t1 9.5t1.5 6.5q2 10 5 19.5t6 19.5q5 18 8 36t9 36q-21 -34 -42.5 -67.5t-44.5 -65.5q-23 -29 -47 -56
t-49 -54l-6 -8q-5 -6 -10 -9l7 7q3 3 5 6l-19 -18q4 3 3.5 2t-2.5 -3.5t-5.5 -5.5t-4.5 -4q-7 -7 -19 -9q-5 -1 -11 0t-11 3q-31 10 -57.5 34t-42.5 52q-8 16 -10 32t-1 33q3 32 9 64q1 2 2.5 10t4 17t4.5 16t4 7q-1 -4 -1 -7v-6q3 14 6 27t7 26l-6 -13q-1 6 1 13t5 14.5
t5.5 15t4.5 12.5q3 11 6 21t7 21q8 27 18 53t22 52q12 28 23 56t25 55q7 13 13 27t16 25q6 7 9.5 10.5t7.5 12.5q11 23 23.5 47.5t28.5 44.5q3 4 6 7.5t8 6.5q11 6 22.5 3.5t22 -9t18.5 -16.5t13 -19q6 -17 2.5 -24.5t-11.5 -17.5q6 4 6 3q0 -2 -6.5 -12t-14 -20.5t-15 -19
t-8.5 -8.5q2 4 5 8q2 4 4.5 8t4.5 7q-17 -24 -32.5 -49t-29.5 -51q6 8 8 9q-5 -5 -16.5 -30.5t-24 -55t-23 -55.5t-12.5 -31q-17 -42 -31.5 -85.5t-25.5 -88.5l3 30l-1 -6q0 2 0.5 4.5t0.5 4.5l-6 -25l4 10q-2 -19 -6.5 -38.5t-8 -39t-5 -39.5t1.5 -40q1 -5 3 -13t8 -11
q9 -4 24.5 7.5t31 28t28.5 33t17 21.5l50 58t45 58q-2 -2 -7 -9t-8 -6q10 16 19 30q8 12 14.5 22.5t8.5 13.5q12 17 23.5 34t22.5 34l98 148q6 9 12.5 20.5t14 23t15.5 21t16 15.5q10 7 23.5 6.5t25.5 -6t20.5 -15.5t10.5 -22zM353 65q7 30 10 57.5t11 57.5
q-10 -26 -17.5 -52.5t-12.5 -55.5q-6 -35 -7.5 -72t5.5 -72q-6 31 -1 68.5t12 68.5zM186 445q-12 -30 -23.5 -60t-20.5 -61q-4 -11 -6.5 -21t-4.5 -21q11 40 26.5 78.5t32.5 78.5q23 51 48.5 99t57.5 93q-32 -44 -60.5 -89.5t-49.5 -96.5zM163 348q4 10 11.5 28t16 38.5
t18 41.5t17.5 38q-35 -71 -63 -146zM487 302l-18 -46q7 14 11 26zM240 523v1v-1zM315 655q0 -2 -2 -2q2 0 2 2z" />
    <glyph glyph-name="V" unicode="V" horiz-adv-x="362" 
d="M177 365q3 -50 -5.5 -97.5t-14.5 -93.5q2 6 4 8q3 1 2 -9t-1 -11q20 38 43.5 72.5t43.5 72.5q29 55 67 104.5t76 99.5q32 42 65 81.5t71 76.5q17 17 35.5 30.5t35.5 28.5q5 4 5 6.5t7 4.5q6 2 12.5 -0.5t12 -7t10 -10.5t6.5 -11q5 -14 -3.5 -23t-21.5 -16t-27 -12.5
t-20 -11.5q-6 -5 -8.5 -11t-8.5 -12q-6 -7 -13.5 -12.5t-14.5 -12.5q-16 -15 -32 -29.5t-30 -31.5q-50 -57 -94 -116t-86 -122q-9 -14 -19.5 -27.5t-17.5 -28.5q-4 -8 -7 -17.5t-8 -17.5q-23 -39 -46 -77.5t-44 -79.5q-7 -14 -12.5 -29.5t-10.5 -31t-11.5 -30.5t-15.5 -27
q-6 -8 -22.5 -14t-34 -7.5t-31 4t-13.5 21.5q0 11 7.5 23.5t11.5 22.5q8 23 12 46l8 46q3 22 6 44.5t9 43.5q2 8 4 13t3 13v12q0 11 1 12q0 -1 0.5 -1.5t0.5 -1.5q0 2 0.5 3.5t0.5 3.5q-1 -3 -2 -1.5t-1.5 4.5t-0.5 6.5v3.5q-1 7 0 13.5t1 13.5q2 16 3 31t-1 31
q0 4 -1.5 20.5t-2 35t0.5 33.5t5 16q2 1 1.5 -3t1.5 -4q-1 7 -1 14v14q-1 -2 -1 -3t-1 -2q0 1 -1.5 18.5t-3.5 38.5t-4 39.5t-2 21.5q-1 15 -3.5 29.5t-4.5 28.5q-2 8 -3 15.5t-2 15.5q-1 6 0.5 11.5t1.5 10.5t-2.5 9.5t-0.5 11.5q2 12 13.5 21.5t20.5 16.5q12 8 26.5 16
t29.5 9q12 2 14.5 -3.5t4.5 -13.5q0 1 2 5q1 0 3 -6t3.5 -14t1.5 -15t-1 -7q-2 -1 -4 7q4 -26 6.5 -51.5t4.5 -51.5q-1 11 -1 19.5v16.5t-1 16q0 -11 1 -23q1 -11 1.5 -24.5t1.5 -30.5v-11v1v-2v1v-2v1q0 -2 0.5 -2t0.5 -2q0 1 -0.5 1.5t-0.5 1.5q0 -3 1 -5v-9t1 -9l-1 1
l3 -64q0 1 -0.5 2t-0.5 2q0 -1 0.5 -2t0.5 -2zM90 254q2 32 2 66t-1 67q1 -66 -4 -130t-14 -130q-4 -26 -9 -52.5t-10 -52.5q-2 -7 -3.5 -13.5t-3.5 -11.5q11 28 18 58q11 49 15.5 97.5t9.5 98.5v3z" />
    <glyph glyph-name="W" unicode="W" horiz-adv-x="677" 
d="M918 710q3 -10 -0.5 -17.5t-10.5 -13.5t-15 -11t-14 -10t-12 -9.5t-11 -9.5q-7 -7 -6.5 -9t-4.5 -10q-11 -17 -25 -33t-27 -32q-14 -18 -26 -36t-25 -36q-11 -17 -25 -33t-22 -34q-6 -14 -13 -28.5t-16 -28.5q-20 -30 -37.5 -61t-35.5 -63q-14 -23 -23 -47.5t-23 -49.5
q-21 -38 -40 -78l-38 -80q-5 -11 -10 -21.5t-7 -21.5q-3 -12 -8 -18t-19 -8q-26 -2 -47.5 16t-24.5 44q-5 32 -3 67t3 68q1 17 3 36.5t8 36.5q2 8 4 12.5t3 12.5q1 2 1 9t1 5q0 7 -0.5 15t1.5 18q2 12 5 24t5 24q0 2 1.5 16.5t4 30.5t6.5 29t9 12q2 0 0.5 -3t0.5 -3
q1 5 1.5 9.5t2.5 9.5q-1 0 -1 -0.5t-1 -0.5l2.5 8.5t5 19.5t4.5 20.5t3 11.5l-38 -49q-12 -17 -26 -32.5t-25 -32.5q-23 -38 -47 -73.5t-48 -72.5q-23 -34 -44.5 -69t-41.5 -70q-11 -20 -24 -39.5t-20 -41.5q-2 -10 -4 -15q-5 -11 -15.5 -18t-23 -9.5t-25 -1t-22.5 7.5
q-19 11 -18 28.5t7 34.5t10 32t9 32q9 38 23 73.5t24 72.5q10 36 19.5 72t18.5 72q15 59 26 120t15 123q-4 -51 -15 -102t-21 -100q-13 -61 -30 -122.5t-37 -121.5q8 30 13.5 60.5t13.5 60.5q4 13 8.5 24.5t8.5 24.5l1 5.5t2.5 11.5t2.5 11.5l1 5.5q0 -2 1 -3q0 2 0.5 2.5
t0.5 2.5q-1 -2 -1.5 0.5t-0.5 6t0.5 7.5l0.5 4q1 7 2 13.5t3 13.5q4 15 6.5 29t3.5 29q0 4 1.5 20t4 33t6 31t6.5 14q2 0 1 -3.5t0 -4.5q2 7 2.5 13.5t1.5 14.5q-2 -5 -3 -5q0 1 1 9t1.5 18t1 18.5t0.5 10.5q-17 -12 -24.5 -6.5t-8 18t3 27.5t7.5 23q6 14 18 26.5t29 13.5
q4 0 5.5 -2t5.5 -2q4 -1 5.5 0.5t4.5 0.5q13 -2 21 -12.5t13 -21.5q7 -14 9.5 -29t3.5 -31q0 -10 -2.5 -16t-2.5 -13q0 1 2 3q1 0 1.5 -6t0 -14t-1.5 -14.5t-3 -6.5q-1 -1 -0.5 8.5t0.5 8.5q-5 -45 -13 -89l-16 -88q1 4 5 23t8 40t7.5 37.5l3.5 16.5q-9 -51 -17 -93
q-7 -36 -12.5 -68t-6.5 -38q-10 -51 -19 -100.5t-23 -99.5l53 76q16 22 28 44t29 44q17 20 32.5 42t32.5 43q9 13 15 25.5t15 24.5q28 40 60 78.5t61 74.5q3 4 4.5 8t9.5 6q9 2 19 -3t16 -11q17 -14 19 -36q1 -11 -3.5 -14.5t-7.5 -10.5l4 3q1 0 0 -5.5t-3 -11.5t-4.5 -11
t-3.5 -5q-3 0 -1 8q-12 -35 -20 -70t-15 -70q1 1 2.5 8.5t4 17.5t5 21.5t5.5 21.5q-4 -20 -9 -48.5t-9.5 -55t-8 -46.5t-4.5 -24q-2 -26 -4.5 -52.5t-7.5 -52.5q-3 -18 -7.5 -37t-6.5 -36q0 1 3 4q1 1 1.5 -6t0.5 -15.5t-0.5 -16t-0.5 -8.5q14 32 27.5 63.5t29.5 62.5
q11 23 24 44.5t24 44.5q25 55 54.5 106.5t61.5 102.5t65 101.5t71 98.5q14 18 30.5 34.5t31.5 34.5q4 5 4 8t9 5q12 2 23 -9t15 -21v-1zM474 323q-2 -8 -2 -13v-10q2 9 4 17.5t4 19.5q0 -1 -0.5 -1.5t-0.5 -1.5q-2 -5 -4 -9t-1 -2zM510 458q-1 -1 -2 -4t-3 -11q3 15 5 15z
" />
    <glyph glyph-name="X" unicode="X" horiz-adv-x="637" 
d="M665 726q3 -2 8.5 -8t10.5 -13t7 -13.5t-2 -9.5q2 -11 -7.5 -20.5t-14.5 -17.5q-14 -19 -28.5 -36.5t-29.5 -34.5q-33 -38 -64.5 -76.5t-65.5 -74.5l-30 -32q-8 -10 -12.5 -16.5t-4.5 -17.5q-1 -24 6 -49.5t10 -49.5q5 -48 8.5 -97.5t12.5 -93.5q0 4 0.5 7.5t2.5 3.5
q3 -1 6.5 -11.5t6.5 -23t5.5 -24.5t4.5 -16q6 -17 13 -33.5t18 -30.5q9 -12 21.5 -21t29.5 -8q17 0 38 9.5t33 22.5q4 4 8.5 12.5t11.5 5.5q5 -2 5.5 -12t-0.5 -15q-4 -17 -20 -32t-27 -27q-18 -21 -40.5 -34t-45.5 -15.5t-46.5 5.5t-43.5 29q-25 26 -39.5 57.5t-23.5 65.5
q-4 15 -5.5 30t-3.5 30q0 1 -2 6l-4 10t-3.5 10t-0.5 7q0 -1 1 -3l2 -4l-2 16q0 -5 -0.5 -4.5t-1.5 2.5l-2.5 5l-1.5 3q-2 5 -2.5 10.5t-1.5 10.5q-2 12 -3.5 24t-3.5 24q-3 24 -8.5 47t-8.5 46q-78 -85 -153 -171.5t-160 -165.5q-12 -11 -24 -22.5t-26 -20.5q-4 -3 -8.5 -6
t-8 -4.5t-6.5 0t-5 8.5q-3 9 2 21t13 24t16.5 22.5t13.5 17.5q11 15 27 30.5t24 31.5q3 5 4 10.5t5 11.5q7 11 15 20.5t16 19.5q15 20 31 38t32 38q26 32 53 64t50 67q14 21 32 40t35 37q11 12 12.5 20.5t-0.5 24.5q-1 11 -2.5 22t-3.5 22q-3 26 -5 51t-6 50q-4 26 -9 52
t-7 52q-1 8 1 14t0 14q-1 6 -4.5 13.5t-5.5 13.5q-6 20 -13.5 32t-22.5 25q-11 10 -4.5 15.5t19.5 9.5q19 7 32 6.5t27 -13.5q-2 4 -2 6q0 1 7 -5t14 -14t11.5 -15.5t1.5 -10.5q-3 5 -6 9q-2 4 -4.5 6.5l-3.5 3.5q13 -19 22 -40t16 -44q-1 3 -1 8q0 2 -1 3q1 0 4.5 -15
t8 -33.5t8 -35.5t3.5 -20q5 -26 8.5 -53t7.5 -54q27 38 57 73.5t61 70.5q21 25 42.5 50.5t46.5 46.5q21 18 43 3zM471 14q-11 36 -17 76.5t-11 79.5v6q-2 11 -4.5 21.5t-4.5 21.5q4 -39 5 -81t9 -79q4 -19 11.5 -44.5t20 -49.5t30.5 -42t42 -22q-17 4 -30.5 16.5t-23 29
t-16.5 34.5t-11 33zM412 479q2 2 -1 7q1 -3 1 -7z" />
    <glyph glyph-name="Y" unicode="Y" horiz-adv-x="551" 
d="M43 313v-1q5 10 6 25.5t3 25.5q6 24 12.5 48t14.5 47q15 43 31.5 86t36.5 84q5 10 12 17.5t13 16.5q6 8 9.5 18.5t8.5 20.5q3 7 7.5 17t9.5 19.5t12 17t15 10.5q9 4 18 2t17.5 -6.5t16 -11.5t12.5 -14q10 -17 10 -28.5t-9 -25.5q5 5 5 3q0 -3 -5 -12.5t-12 -19.5t-13 -18
t-8 -7l6 12q2 5 4 9l3 6q-14 -23 -27.5 -46.5t-24.5 -48.5q2 4 5 5q-2 -2 -8.5 -17t-13.5 -34t-13 -35.5t-7 -19.5q-24 -63 -41 -127t-25 -131q-1 -7 -2 -17.5t0.5 -20t7 -15t17.5 -2.5q17 5 32 22t26 31q39 46 78 91.5t74 95.5q-1 -1 -7.5 -8t-6.5 -6q-2 4 0.5 9.5t6 10.5
t7.5 9.5t6 7.5q10 12 18.5 24.5t16.5 25.5l91 143q11 16 21.5 31.5t19.5 32.5q7 12 13 20.5t22 8.5q19 0 40 -16t29 -35l1 -2q0 -2 1 -2h-1q1 -1 1 -2l1 -1q3 -17 -2.5 -34t-14.5 -34t-19 -33.5t-15 -31.5q-7 -22 -12.5 -43t-13.5 -42q-10 -23 -19 -47t-19 -48l-76 -189
q-18 -44 -33.5 -88t-35.5 -87q-35 -76 -73 -154t-92 -144q-21 -26 -50.5 -31t-59 4.5t-54.5 30.5t-37 47q-16 36 -9.5 71t25 68t45 61.5t50.5 50.5l15 15t26 23.5t25 17.5t13 -4q1 -8 -8 -18.5t-13 -15.5q-18 -23 -33 -48q-37 -58 -59 -122q-7 -20 -13.5 -46t1.5 -47
q4 -13 13 -17.5t19 -3.5t20 6.5t18 12.5q21 20 35.5 47.5t28.5 53.5q79 155 137.5 315.5t113.5 325.5q-32 -53 -63 -104.5t-66 -102.5q-16 -22 -32.5 -42.5t-35.5 -40.5q-8 -7 -14.5 -14t-12.5 -15q-3 -4 -7.5 -12.5t-9.5 -8.5l5 8q-2 -3 -5 -5.5t-5 -4.5q2 0 3 -1
q-2 -11 -11 -19t-20 -13.5t-23.5 -7t-21.5 0.5q-25 6 -51.5 24.5t-43.5 38.5q-15 18 -20 39t-3 44q0 2 0.5 11.5t1.5 20t3 19t6 8.5q1 0 0 -6t0 -7q2 11 3.5 20.5t3.5 20.5q-3 -3 -2 -3zM104 471q3 8 7 16.5t7 16.5q10 17 17 30q3 5 6 10.5t5 10.5l5 10q10 28 18.5 47.5
t16.5 35.5t17.5 33t22.5 41q-17 -30 -36 -60.5t-33 -60.5q-15 -34 -28 -65t-25 -65zM347 -41q15 33 28.5 65.5t27.5 65.5q-5 -8 -14.5 -24t-12.5 -24q-10 -25 -14 -42t-15 -41zM637 636l-1 1h1v-1z" />
    <glyph glyph-name="Z" unicode="Z" horiz-adv-x="545" 
d="M678 726q2 2 4 2l1 1v-1q9 3 14.5 -1.5t7.5 -12t1 -16.5t-5 -16q-2 -2 -8.5 -9t-14.5 -14.5t-15.5 -12t-9.5 -2.5q-1 1 3 4.5t5 4.5q-20 -11 -36 -27t-33 -32q-3 -3 -6.5 -6t-6.5 -7q-47 -40 -90.5 -83.5t-87.5 -85.5q-57 -55 -102.5 -117t-96.5 -122q19 21 36.5 42.5
t36.5 43.5q35 41 73 78t76 75q-19 -23 -37 -45.5t-38 -45.5q-19 -22 -38 -40.5t-36 -41.5l7 5q-3 -2 -8.5 -10t-11.5 -18t-11.5 -18t-6.5 -10q-23 -31 -45 -61.5t-42 -63.5q11 -3 22 -3.5t22 -3.5q11 -2 20.5 -7.5t19.5 -10.5q18 -8 37.5 -16t39.5 -11q43 -8 87.5 5t80.5 36
q3 1 9.5 6.5t14 10t14.5 7t10 -0.5q4 -6 -3 -17t-10 -15q-19 -28 -50 -49t-61 -35q-39 -20 -76.5 -27t-79.5 12q-16 7 -31 18.5t-30.5 22t-32.5 17.5t-36 6q-17 -1 -32.5 -10t-28.5 -20q-5 -4 -8.5 -9.5t-7.5 -9.5t-8.5 -6t-11.5 0q-8 3 -14 9t-9.5 14.5t-4 17t3.5 15.5
q7 14 19.5 25.5t20.5 25.5q22 35 42 71.5t46 69.5q12 16 26.5 28.5t25.5 27.5q4 4 6 8.5t6 8.5q1 1 4.5 5.5t1.5 -1.5q3 4 3.5 6t3.5 9q4 6 8.5 12t9.5 11q14 16 27.5 32.5t27.5 33.5q3 3 12.5 15t20.5 24.5t21 21t14 5.5q1 0 -2 -3t-2 -4l21 22q-5 -4 -3.5 -2t5 6.5t7.5 9
t5 5.5l49 50q21 21 42.5 44t45.5 40q-30 -3 -60 0.5t-60 6.5t-60 3t-60 -9q-28 -8 -46 -26q-5 -5 -7.5 -11.5t-8.5 -5.5q-11 2 -10.5 12t5.5 22t12 22t9 13q7 11 12 21t16 18t24.5 10.5t27.5 4.5t27.5 1.5t27.5 -1.5q14 0 29 1.5t29 -0.5q33 -3 65 -5t63.5 0t62.5 10t62 23
h1zM283 245l-1 -1q0 1 1 1z" />
    <glyph glyph-name="zero" unicode="0" horiz-adv-x="378" 
d="M353 496q17 -22 24.5 -48.5t7.5 -54.5q0 -21 -4 -41.5t-7 -40.5q-3 -17 -3.5 -33t-2.5 -32q-4 -22 -10 -42.5t-13 -41.5q-10 -30 -22 -60.5t-27.5 -59.5t-35.5 -55t-45 -46q-20 -16 -40 -21.5t-43 -12.5q-8 -2 -12.5 -5t-15.5 -2q-15 2 -29.5 9t-25.5 18q-19 18 -29 49
q-9 0 -13.5 18t-6 40.5t-0.5 43.5t1 27q0 23 5 51l6 28q2 8 0.5 15t0.5 16q4 30 16 61.5t23 60.5q5 11 9.5 21.5t9.5 21.5q5 12 8 24t10 23q14 27 36 50.5t48 40.5q20 12 45 17.5t49.5 3.5t47.5 -12.5t38 -30.5zM339 388q1 8 1 11.5t0 2.5q0 13 -2 28t-7 27.5t-13.5 22.5
t-21.5 14q-10 3 -11.5 0.5t-9.5 -7.5q-18 -10 -32.5 -19.5t-28.5 -24.5q-8 -8 -13 -22.5t-12 -28.5q-8 -15 -15 -29t-12 -30q-6 -18 -12.5 -34.5t-8.5 -33.5t-7.5 -32t-9.5 -31q-8 -28 -11 -56t-2 -55q1 -19 -1.5 -37t-0.5 -36q0 -7 0.5 -17t2.5 -20t6 -18.5t12 -11.5
q11 -5 25.5 1t22.5 13q24 22 42 53t32 59q8 17 18 33t16 33q6 20 11 39.5t12 39.5q12 38 20 76.5t10 78.5v11zM21 139q11 67 29 130t49 123q-23 -45 -42.5 -90.5t-30.5 -95.5q-11 -45 -16.5 -95.5t2.5 -98.5q-4 33 0 66.5t9 60.5z" />
    <glyph glyph-name="one" unicode="1" horiz-adv-x="257" 
d="M285 500q2 -3 3 -7.5t0 -8.5q-2 -20 -10.5 -42t-15.5 -40q-4 -10 -8.5 -19.5t-8.5 -19.5q-6 -14 -7 -26.5t-6 -26.5q-8 -24 -18 -47.5t-18 -48.5q-7 -20 -15.5 -41.5t-11.5 -42.5q-8 -49 -21 -98t-24 -98q-4 -17 -12 -29.5t-28 -13.5q-8 0 -19 2t-21.5 6.5t-18 11.5
t-8.5 17q0 3 0.5 5.5t0.5 4.5q5 29 15.5 58t18.5 57q7 23 17 44t16 44q8 29 15.5 57.5t18.5 56.5l36 102l17 48q1 3 4.5 10.5t7 15.5t6 15.5t1.5 10.5q-3 7 -16.5 7t-30.5 -2.5t-33.5 -5t-24.5 0.5q-19 7 -9 25q2 4 5 6.5t6 5.5q5 2 11 4q3 0 2 4q14 7 29.5 10t31.5 4
t31.5 2t30.5 5q11 3 15.5 7.5t18.5 -0.5q9 -5 16.5 -12.5t10.5 -17.5zM193 324q-6 -20 -12.5 -38.5t-13.5 -37.5q13 17 21 42t13 54zM128 132l6 10t5 10q0 -1 -0.5 1.5t-0.5 1.5q-3 -3 -4 -6v5q-4 -8 -10.5 -18t-0.5 -14q-1 0 -1.5 1t-1.5 0q-2 -2 0.5 -2.5t3.5 0.5q2 2 2 7
l1 2v1zM161 233q1 0 1 2l27 81l-4 -10q-11 -28 -19.5 -56.5t-18.5 -55.5q4 10 7.5 19.5t6.5 19.5zM220 403q0 1 1 3q0 1 0.5 4t-0.5 2q-6 -7 -8.5 -18t-4.5 -21zM133 149q-3 -3 -4 -8l-2 -10q2 7 5 13t1 5zM142 183q-1 -1 -1 -5q0 1 0.5 2t0.5 3z" />
    <glyph glyph-name="two" unicode="2" horiz-adv-x="384" 
d="M172 83q-13 -17 -24.5 -33.5t-22.5 -35.5q-10 -17 -22 -36t-17 -38q38 8 76 16.5t78 9.5q5 0 19.5 -1.5t28.5 -5.5t22.5 -11t2.5 -19q-3 -6 -15 -8.5t-17 -4.5q-30 -7 -64 -12q-70 -11 -137 -15q-15 -2 -35 -2t-37 5t-27 17t-7 35q1 10 5.5 18.5t6.5 18.5q0 1 -1 2
q-3 2 -1 4q1 5 3 9.5t4 9.5q14 29 34.5 55t40.5 49q9 10 19.5 20t17.5 21q4 7 6.5 14.5t7.5 15.5q20 26 39.5 51.5t40.5 50.5q17 20 32 42t32 43q15 20 31.5 41.5t21.5 46.5q2 13 0.5 17t-19.5 1q-26 -5 -52 -20.5t-46 -32.5q-5 -4 -15 -16t-20.5 -21.5t-19.5 -12.5t-13 10
q-4 15 7 30t19 25q15 21 38 39t49 32t54 22t54 9q11 0 23 -1.5t23 -6t19 -13t11 -20.5q4 -17 0 -34t-13 -33t-19.5 -31t-17.5 -29q-19 -34 -41.5 -64.5t-45.5 -61.5q-30 -41 -59 -81zM123 68q3 2 6.5 11t5.5 13q5 7 10.5 12.5t10.5 11.5q8 8 19 18t15 21q5 3 2 5l-34 -35
q-6 -7 -12.5 -13t-11.5 -14l-2.5 -5t-4.5 -10.5t-3.5 -10t-0.5 -4.5z" />
    <glyph glyph-name="three" unicode="3" horiz-adv-x="353" 
d="M364 484q2 -32 -12 -64.5t-30 -60.5q-17 -29 -36.5 -57t-43.5 -53q12 3 24 -0.5t22.5 -11t18 -18t10.5 -20.5q10 -37 -2 -76q-8 -23 -14.5 -45.5t-19.5 -43.5q-16 -27 -36 -53.5t-45 -47.5t-54 -34.5t-62 -14.5q-17 -1 -38.5 3.5t-39 14.5t-26.5 26.5t-2 40.5
q5 16 11.5 33.5t17.5 30.5q3 4 10.5 10.5t16 10.5t15.5 3t8 -12q1 -2 -2.5 -8.5t-3.5 -8.5q-5 -16 -7 -36q-1 -16 3 -34t23 -22q15 -2 28 6.5t24.5 22t20.5 28.5t16 24q25 34 48 73.5t33 81.5q4 18 1 25t-10.5 8t-18.5 -4t-22 -11q-7 -3 -15 -8.5t-17 -10t-17.5 -7
t-16.5 -0.5q-14 3 -18 16t0 24t17.5 23.5t22.5 22.5l23 24q3 3 5.5 4t4.5 5q0 1 -1 3.5t0 4.5q8 20 23.5 36.5t26.5 34.5q9 15 18.5 30.5t17.5 31.5q1 2 3.5 8.5t4.5 14t3.5 14t0.5 8.5q-2 4 -6.5 4.5t-8.5 1.5q-15 1 -30.5 -5t-30 -16t-26.5 -21.5t-21 -21.5
q-8 -8 -16.5 -15t-15.5 -16q-5 -5 -9 -11t-11 -7q-8 -1 -12 3t-5.5 10.5t-0.5 13.5t3 12q10 26 32.5 41t41.5 33q9 8 27.5 19t40.5 20.5t46 16t43.5 4.5t32.5 -13.5t14 -37.5zM197 -27q4 5 16.5 16t27.5 29t29 44.5t22 62.5q-5 -23 -19 -44t-25 -41q-9 -18 -23 -34t-28 -33z
" />
    <glyph glyph-name="four" unicode="4" horiz-adv-x="384" 
d="M376 354q-7 -17 -9.5 -33.5t-9.5 -33.5q-8 -19 -14.5 -37t-12.5 -37q3 1 15 3t24.5 2t21 -3t4.5 -12q-3 -9 -13.5 -13t-22.5 -6t-23 -3.5t-17 -5.5t-6.5 -12t-2.5 -15q-2 -13 -5 -24.5t-7 -24.5q-12 -36 -20.5 -72.5t-16.5 -72.5q-3 -14 -7.5 -28t-12 -23.5t-19.5 -14
t-30 1.5q-16 5 -28.5 16.5t-11.5 29.5q2 23 12 45.5t18 42.5q11 30 18.5 61.5t18.5 61.5q-27 -6 -54 -14.5t-55 -12.5q-3 0 -14 1.5t-23.5 3.5t-22 5.5t-7.5 7.5h3q-3 2 -4 3q1 -3 -3.5 2t-5.5 7q-3 5 -3 10.5v10.5q2 14 8 26.5t9 25.5q1 3 5 16.5t9 28.5t11 27t10 11
q2 -1 0 -3.5t0 -3.5l9 22q-1 -1 -1.5 -2t-2.5 -2l5.5 15t12 33t13 34t7.5 19q5 14 9.5 27.5t9.5 27.5q4 10 9 17t9 15q8 16 24 25t35 -2q15 -10 18 -26q2 -11 -1 -15t-5 -12q0 2 3 4q1 0 0.5 -6t-2 -12.5t-4 -11.5t-4.5 -5q-1 0 1 7t2 8q-8 -26 -17.5 -51t-20.5 -50l9 20
q-10 -23 -23.5 -56t-26.5 -64.5t-23 -56t-13 -30.5q28 5 57 8t55 8q-7 0 -11 1q-1 1 1.5 2.5t5 2l5 1t1.5 0.5q5 4 6 4t5 5q5 8 7.5 19t5.5 20q8 22 15 44.5t15 45.5l26 74q4 11 9 23.5t7 24.5q1 6 -1 7.5t-2 9.5t4 17.5t8 15.5q5 8 11 15.5t16 9.5q13 3 25 -2
q5 -2 6.5 -4.5t5.5 -4.5q2 -2 4 -1t4 0q15 -10 17 -31q2 -17 -7.5 -35t-14.5 -35q-5 -16 -11.5 -31t-12.5 -31zM270 77q6 14 9.5 27t7.5 27q-4 -9 -8 -18.5t-7 -19.5q-4 -11 -7 -22.5t-6 -22.5q4 13 11 29zM121 355q0 -1 -1 -2q1 0 1 1q6 13 14 25.5t10 27.5
q-2 -6 -7.5 -13.5t-7.5 -12.5q-6 -12 -9 -25v-1zM200 378q3 7 5.5 13t4.5 10l4 8q-2 -4 -4 -9t-4.5 -10.5t-5.5 -11.5zM156 281q-4 -8 -5 -12l5 11l2 4z" />
    <glyph glyph-name="five" unicode="5" horiz-adv-x="359" 
d="M398 469q3 0 1.5 -4t-5 -8.5t-7.5 -7t-5 -0.5q0 2 0.5 2.5t0.5 1.5q-11 -8 -23.5 -12.5t-26.5 -8.5q5 1 9.5 2t8.5 2l8 2q0 -1 -20.5 -6t-46.5 -10t-49.5 -10t-28.5 -6q-6 -2 -9 -2.5t-4 -1.5t-1.5 -3t-2.5 -7q-4 -8 -6 -18t-4 -18q-5 -13 -11 -26t-9 -25q1 4 5 5
q3 -2 1 -10.5t-5.5 -19t-7.5 -20t-5 -12.5q14 3 29 3.5t29 2.5q9 2 16.5 5t19.5 3q25 2 48 -6t33.5 -29t8.5 -44q-2 -16 -8 -30t-8 -30q-2 -14 -5.5 -27t-9.5 -27q-15 -32 -34.5 -61.5t-46.5 -53.5q-20 -17 -37.5 -29.5t-44.5 -19.5q-31 -7 -67.5 -5t-61.5 24q-19 17 -16 39
t9 43q3 7 8.5 19t13 22.5t17.5 17t21 3.5q7 -2 8.5 -7.5t0 -12.5t-4.5 -14.5t-4 -11.5q-2 -11 -2.5 -24t3 -24t11 -18.5t22.5 -7.5q13 0 24 7.5t20.5 18.5t17.5 23.5t14 21.5q3 6 12.5 23t19.5 39.5t19.5 46.5t13 44.5t0 32.5t-19.5 11q-26 -2 -49 -15.5t-47 -20.5
q-11 -3 -21.5 -1.5t-17.5 12.5q-4 8 -2.5 13.5t3.5 13.5l20 115q3 15 9 26.5t11 24.5q0 1 1 5l2 8t1.5 5t0.5 -4q2 6 0.5 9.5t0.5 13.5q2 9 6.5 17.5t6.5 17.5q2 11 4.5 21.5t11.5 19.5q2 2 3 3.5t3 2.5q3 2 6 2.5t6 2.5q6 1 4 0t-2 -3l14 4l-2 2q-1 3 16.5 5t40 2.5
t42.5 0.5t25 -2t6 -4t6 -4t13 -1.5t13 -1.5q4 -1 12 -4t15.5 -7.5t12 -10.5t0.5 -13l-2 -2h-1v-1q0 -1 -0.5 -1t-0.5 -1zM282 89q-8 -15 -14 -30.5t-13 -30.5q17 26 31 53.5t22 56.5q-4 -13 -12 -25.5t-14 -23.5zM241 414q5 1 9.5 1.5t9.5 2.5zM260 418q4 0 10 2zM300 425
q-2 0 -3 -0.5t-2 -0.5q2 0 5 1z" />
    <glyph glyph-name="six" unicode="6" horiz-adv-x="355" 
d="M350 189q5 -26 1.5 -50t-11.5 -46.5t-18.5 -45t-19.5 -44.5t-27 -40.5t-41 -31t-48.5 -18.5t-48.5 -3q-42 5 -73 33.5t-42 69.5q-9 34 1 69.5t24 66.5q13 30 25 61.5t23 63.5l-18 -41q-7 -15 -12.5 -25.5t-10.5 -20t-10 -20.5t-11 -26q7 30 14.5 54.5t16.5 48t19 47
t21 52.5q9 24 20.5 47t20.5 46q7 16 12.5 34.5t19.5 30.5q9 8 21.5 11.5t24.5 1t21.5 -10t13.5 -20.5q3 -10 0.5 -17.5t-6.5 -16.5q-25 -58 -50.5 -115t-45.5 -116q10 9 21.5 15.5t21.5 14.5l12 12t16 9q21 8 41 5q35 -5 55 -29t27 -56zM255 151l3 10q0 2 1 3l1 2v1
q5 15 8 34.5t-5 27.5q-5 5 -12.5 5t-15.5 -3t-15.5 -7.5t-11.5 -7.5q-20 -14 -36.5 -31.5t-30.5 -37.5q-13 -18 -19 -42t-11 -47q-2 -9 -5 -30.5t-1.5 -40.5t10.5 -29t30 5t37 40t28 48q26 48 44 98v1q0 1 1 3v-2zM255 153l4 11q-1 -1 -1 -2v-1zM259 164q0 1 1 2v1l-1 -1v-2
z" />
    <glyph glyph-name="eight" unicode="8" horiz-adv-x="416" 
d="M474 430q1 -28 -15 -49.5t-34 -39.5q-8 -8 -11 -16t-10 -16q-11 -14 -25 -25l-28 -22q-29 -24 -57 -45q-6 -5 -9.5 -7.5t-4 -5.5t1 -7t5.5 -11l10 -17q12 -23 24 -46.5t14 -49.5q5 -54 -20.5 -90.5t-66.5 -55.5t-89.5 -21t-90.5 14q-29 11 -45 30.5t-21 43.5t0.5 50
t20.5 50q14 24 33.5 44.5t39.5 39.5q12 11 24.5 20.5t25.5 19.5q5 3 9 6t9 7q10 7 12.5 8t0.5 12q-3 16 -11 31t-15 31t-11 32t-1 33q4 23 23 39.5t44 27t51.5 16t45.5 7.5q22 2 30 -1t6 -9.5t-12.5 -15t-24.5 -15.5q-20 -11 -38.5 -23t-32.5 -32t-8 -42.5t14 -43.5
q31 25 59.5 52.5t51.5 60.5q7 9 13.5 19t10.5 21q3 9 2.5 16.5t-2.5 14.5t-3.5 14.5t0.5 15.5q4 16 16.5 17.5t27 -4.5t28 -17.5t19.5 -20.5q6 -10 10 -21t4 -23v-1zM158 -52q21 -1 40.5 6t34.5 20t24.5 31.5t10.5 39.5q1 16 -3 31.5t-10.5 30.5t-14 29.5t-14.5 28.5
q-26 -22 -52 -43.5t-48 -46.5q-11 -13 -21.5 -29t-7.5 -33q-2 -13 2.5 -24.5t13.5 -20.5t21 -14.5t24 -5.5zM62 93q4 3 2 5q-8 -9 -15 -17.5t-13 -17.5q-7 -10 -12 -19t-3 -21q0 -8 4 -18q0 1 4 -3t4 -2q1 3 -3 10t-5 11q0 10 3 17.5t8 15.5q6 9 14.5 18.5t11.5 20.5z" />
    <glyph glyph-name="nine" unicode="9" horiz-adv-x="352" 
d="M372 386q1 -17 -2 -32.5t-7 -31.5q-15 -66 -36 -133q-20 -60 -45 -117t-48 -116q-8 -21 -22 -38t-40 -13q-16 3 -29 14q-8 8 -7 11.5t3 12.5q3 15 10.5 29.5t13.5 28.5q17 42 37 81t35 81q-9 -23 -22.5 -46.5t-23.5 -46.5q-15 -34 -29 -67t-28 -67q-3 10 0 22t8 24
t11.5 23t9.5 19q18 45 37.5 89t36.5 89q-11 -10 -23 -18t-21 -17q-19 -18 -47 -21q-12 -2 -24 0q-25 4 -42 18t-26.5 33.5t-13 42t-0.5 45.5q4 27 14.5 52.5t22.5 49.5q7 12 11 23.5t12 23.5q15 21 35.5 37.5t45 26.5t50.5 12t51 -6q37 -12 62.5 -45.5t29.5 -72.5zM283 383
q1 7 3.5 19t2.5 24.5t-3.5 23t-13.5 13.5q-14 5 -26.5 -6.5t-20.5 -20.5q-35 -40 -59.5 -91t-37.5 -102q-2 -6 -4 -15t-2 -17t2.5 -15t11.5 -9q15 -4 31.5 7t27.5 19q17 14 36 34t28 40q10 22 15 47.5t9 48.5zM244 185q6 8 1 8q-5 -7 -1 -8z" />
    <glyph glyph-name="seven" unicode="7" horiz-adv-x="348" 
d="M398 456q2 -15 -5 -30t-12 -27q-8 -19 -21 -36.5t-25 -34.5t-22.5 -36t-21.5 -38q-8 -13 -17 -25.5t-15 -26.5q-26 -60 -61.5 -116.5t-69.5 -113.5q-7 -11 -15.5 -22.5t-19 -18.5t-23 -8t-27.5 8q-13 8 -22.5 23.5t-7.5 31.5q2 7 6.5 13.5t6.5 11.5l35 67
q17 31 35.5 59.5t34.5 60.5q32 65 75.5 124t84.5 119q-42 -2 -83 -2.5t-83 1.5q-16 1 -33 1.5t-31 5.5q-17 6 -11 17t20 17q21 9 46 10.5t48 1.5q10 0 19.5 -0.5t17.5 1.5q10 2 19.5 3.5t20.5 1.5q26 1 52 -1t52 -1q21 1 35.5 -8.5t17.5 -32.5zM142 177q17 26 34 53l34 54
q-14 -23 -29 -44.5t-30 -42.5q-20 -27 -39 -54.5t-36 -56.5q-12 -21 -25 -43.5t-23 -45.5q10 20 23 39.5t25 39.5z" />
    <glyph glyph-name="at" unicode="@" horiz-adv-x="686" 
d="M320 456q49 3 100 -6.5t93.5 -33.5t71 -63.5t32.5 -95.5q2 -48 -17.5 -93t-47.5 -83q-11 -15 -25.5 -30.5t-31 -27t-35.5 -18.5t-40 -6q0 -1 -7 -1t-9 1q-22 6 -33 27q-2 4 -5.5 13t-5.5 19.5t-3 20.5t2 16q-2 -7 0.5 -17t4.5 -16q-4 22 -1.5 44.5t9 44.5t15.5 43.5
t18 41.5l-13 -20l12 22q-23 -35 -45.5 -69.5t-47.5 -68.5q-14 -19 -30 -41.5t-38 -36.5l-1 -1l1 1q-25 -15 -50.5 -11t-37.5 42q-7 19 -8 40t2 42t8.5 41t12.5 39q16 46 43 91t70 71q26 15 46 11.5t34.5 -18.5t24.5 -37t16 -43q12 16 28 32t39 15q20 -2 32 -16.5t9 -34.5
q-2 -12 -9 -23.5t-13 -22.5q-7 -14 -14 -27.5t-13 -27.5q-12 -26 -22 -53t-17 -55q-2 -5 -4.5 -14t-3 -17.5t3 -14t13.5 -4.5q7 1 13.5 6.5t12.5 13t10.5 15t8.5 12.5q25 37 44.5 78.5t25.5 86.5q5 37 -4 71t-30 60.5t-51.5 42t-69.5 17.5q-43 1 -82 -12t-73 -36.5t-62 -55
t-48 -67.5q-23 -42 -38 -89t-9 -95q2 -18 8.5 -36.5t17 -33.5t25.5 -26t35 -15q3 -2 10 -0.5t14 1.5q-5 0 -8.5 -1.5t-8.5 -0.5q11 -2 22.5 -1.5t22.5 2.5h1q21 8 41 15t37 22q4 4 10.5 9.5t12 8t8 -1t-0.5 -17.5q-4 -15 -17 -26t-30.5 -18.5t-35.5 -12t-31 -7.5
q-54 -10 -103 12t-79 67q-24 35 -29.5 73.5t0.5 76.5v1q2 11 4.5 23t5.5 23q-2 0 6 17t19 38t21.5 40.5t14.5 24.5q45 57 109.5 88t136.5 36zM347 213q0 1 0.5 1t0.5 1l1 1q8 11 14.5 20.5t6.5 24.5q0 9 -1.5 18.5t-3.5 17.5q-1 5 -2.5 12t-4.5 13.5t-7.5 11t-10.5 4.5
q-10 0 -19 -9.5t-16.5 -21.5t-13.5 -24t-9 -19q-16 -32 -28.5 -64.5t-20.5 -67.5q-2 -10 -5 -22t-1 -22q3 -10 7 -11q1 0 2 -1q5 1 13 6l9 10q11 12 21 27t15 21q14 18 26.5 36t25.5 37h1zM368 180q-11 -16 -21.5 -32.5t-22.5 -32.5q11 17 22 33zM313 98q0 1 1 2
q2 4 4.5 7.5t5.5 7.5q0 -2 -11 -17zM404 235q4 5 7 13q-2 -3 -3.5 -6zM261 35q-7 -7 -14 -11zM285 61l9 12q-3 -6 -7 -10zM157 160q1 3 1 3.5t-2 -5.5q1 1 1 2zM287 63q0 -2 -5 -7zM298 77q-1 -2 -2 -2.5t-2 -1.5zM216 -36q-1 0 -1.5 0.5t-1.5 0.5q1 -1 3 -1zM15 217
q-1 -1 -1 -3q0 2 1 3z" />
    <glyph glyph-name="bar" unicode="|" horiz-adv-x="372" 
d="M346 849v-9.5v-14t-1 -13.5t-2 -6q-1 1 -1 3v7q-1 -19 -3 -37.5t-4 -36.5l1 1q-1 0 -1 -1v-3q-6 -50 -15 -99q-3 -26 -6 -46t-4 -25l-30 -175q-15 -83 -34.5 -165t-36.5 -162q1 2 1.5 4t1.5 4l2 4q3 -4 1 -14.5t-5 -22t-6 -22t-4 -14.5l-17 -72q-18 -75 -39 -150
q-10 -32 -21 -63.5t-22 -63.5q-2 -5 -4 -14t-4.5 -18t-6 -16.5t-8.5 -10.5q-3 -2 -3 5.5t1 16.5t2.5 17.5t1.5 9.5q7 38 13.5 76t11.5 76q6 34 12 67.5t14 66.5q2 11 5.5 20.5t5.5 19.5q1 3 1.5 10t1 14.5t2 14t3.5 9.5q-1 -2 -1 -6.5v-6.5q1 4 1 8t2 8q-2 -2 -1.5 3.5
t0.5 7.5l3 18l9 44l8 36t6 37q3 22 7 43t9 42q0 1 2 11.5t4.5 21.5t5 20.5t4.5 9.5l-1 -11q2 9 3.5 18.5t3.5 18.5q-2 -2 -2 -4l4 20t10.5 51.5t13.5 68.5t13.5 70.5t11.5 58t7 31.5q3 11 6.5 19.5t5.5 19.5q3 20 7.5 40t9.5 40t9.5 40t10.5 40q0 2 2.5 7.5l5 11t5.5 8
t5 -1.5q-1 2 -1 4q1 1 3.5 -8t3.5 -10v-1zM295 495q0 -2 -0.5 -2.5t-0.5 -1.5l-8 -45zM295 494v1v2v-3zM301 526q-2 -8 -2 -10zM337 744l-1 -1q0 1 1 1z" />
    <glyph glyph-name="backslash" unicode="\" horiz-adv-x="470" 
d="M417 -206q2 -12 -0.5 -17t-12.5 3q-8 6 -13 18t-10 20q-8 14 -15.5 27.5t-15.5 27.5q-15 29 -30 57.5t-28 57.5q-5 11 -8.5 22t-8.5 22q0 1 -3 6.5l-6 11t-5.5 10.5t-2.5 7q2 -2 2 -3l-3 6q0 -2 -4.5 6t-5.5 10l-15 32q-6 14 -11.5 27t-13.5 26q-2 4 -10.5 20.5
t-17.5 35.5t-15.5 35t-3.5 18q1 1 2.5 -3t2.5 -4l-13 28q1 -2 1 -3t1 -2q-1 0 -8 15.5t-17.5 39.5t-23.5 52.5t-24 54.5t-19 45.5t-9 24.5q-5 21 -16 44t-20 45q-1 3 -5 14t-7.5 24t-4.5 23t4 11q-1 0 -1 0.5t-1 0.5h-1q-1 2 6 0.5t9 -3.5l5 -5t8 -8.5t6.5 -8.5t1.5 -5
q-4 4 -7 8q-2 2 -2.5 3t-1.5 2l-2 2q24 -29 41 -57v1q1 0 1 -1q0 -2 1 -3q9 -15 17.5 -30t16.5 -31q11 -20 20.5 -37.5t11.5 -20.5q17 -34 33.5 -67.5t33.5 -67.5q27 -54 49.5 -111t45.5 -112q0 2 -0.5 2.5t-0.5 2.5q2 -6 9.5 -19.5t9.5 -17.5q6 -13 11.5 -26t10.5 -26
q9 -23 18.5 -46t17.5 -46q14 -40 27.5 -82.5t18.5 -84.5v-1zM157 441l5 -10zM156 445h-1q0 1 -1 1q1 -1 2 -1zM156 445q0 -2 1 -3q-1 1 -1 3z" />
    <glyph glyph-name="percent" unicode="%" horiz-adv-x="523" 
d="M411 364q-25 -32 -53.5 -64t-49.5 -66q-20 -32 -46.5 -60.5t-50.5 -57.5q-17 -20 -32.5 -41t-32.5 -41q-4 -5 -17 -21.5t-29 -33.5t-30 -29.5t-19 -8.5q-4 4 3 19.5t17.5 33.5t20.5 33.5t12 18.5q48 68 98 133t104 128q29 35 58 68.5t61 65.5q1 2 11.5 12t22.5 20t22 16
t12 0q2 -7 -2.5 -16.5t-11 -19t-14 -18t-11.5 -12.5q-5 -7 -12.5 -13.5t-11.5 -13.5q-5 -8 -9 -16t-10 -16zM399 167q9 -1 20.5 -3t23 -6.5t19.5 -12t9 -19.5q4 -35 -7.5 -72t-37.5 -61q-11 -10 -21.5 -13.5t-23.5 -8.5l-6 -2q-3 -1 -5 -2q-14 -2 -22 3t-19 12q-6 4 -11.5 6
t-10.5 12q-4 7 -5.5 15.5t-2.5 16.5q-1 17 1 32t8 31q8 22 18.5 40t34.5 27q-8 -16 -20 -30t-18 -32q5 11 15.5 23.5t16.5 23.5q1 2 3 7.5t4 7.5q6 5 18 5.5t19 -0.5zM75 352q-5 1 -2.5 11t7.5 22.5t10.5 24t7.5 14.5q7 14 16.5 23t27.5 14q13 4 30.5 3.5t33.5 -5.5
t27.5 -16t11.5 -28q1 -26 -4 -49t-18 -46q-14 -24 -32 -35.5t-44 -16.5q-3 -1 -5.5 -3.5t-8.5 -1.5q-8 0 -15 5q-5 2 -13 8q-3 2 -5.5 2t-5.5 2q-9 7 -11 12.5t0 14.5q3 12 7 24t4 26q-1 -14 -7 -29.5t-7 -28.5q-6 13 -6.5 26t1.5 27zM448 91q0 6 -1 14t-4 15.5t-8.5 12
t-13.5 2.5q-1 0 -5.5 -3.5t-6.5 -5.5q-6 -5 -7.5 -7t-3.5 -4q-6 -9 -12 -22t-9 -24q-1 -3 -1.5 -9t-2.5 -11t-3 -11.5t-1 -11.5v-16t2.5 -16t8.5 -9.5t17 4.5q4 3 9.5 9t10.5 13t9.5 13.5t6.5 11.5q5 11 9 26.5t6 27.5v1zM143 322v-9t1 -12.5t2.5 -12t3.5 -6.5q5 -3 12 1
t11 7q11 8 20.5 21.5t16.5 29t10 31t2 29.5q-2 10 -8.5 22t-20.5 9q1 0 -1.5 -2.5t-6.5 -4.5q-4 -4 -10 -7q-5 -5 -3 -5t0 -4q-8 -11 -12 -22.5t-7 -22.5q-2 -7 -4 -22.5t-6 -19.5z" />
    <glyph glyph-name="bracketright" unicode="]" horiz-adv-x="417" 
d="M407 624q2 -33 -7 -68.5t-18 -67.5q-9 -33 -21 -67q-1 -2 -2 -9t-2.5 -14.5t-3.5 -14t-4 -7.5v2q0 3 1 5q0 3 1 6l-5 -17q1 1 1 -1.5t-0.5 -6.5t-1.5 -8t-1 -5q-2 -10 -5 -19.5t-6 -18.5q-5 -16 -9.5 -31.5t-7.5 -31.5q-9 -37 -21 -76q0 -1 -2.5 -9t-5.5 -17.5t-6.5 -17
t-4.5 -7.5l2 10q-5 -14 -10 -32l2 3q-2 -4 -7 -22.5t-12 -43t-15.5 -52.5t-17.5 -53t-17.5 -42.5t-16.5 -21.5q-13 -7 -28 -7t-29 -2q-20 -2 -41.5 -1.5t-41.5 2.5q-6 0 -15.5 0.5t-20 2t-19.5 4t-13 7.5q-8 8 -4 8.5t11 2.5h-4q3 1 11 3t16.5 4t16 3t8.5 -2q-6 -1 -11 -2
t-8.5 -1.5t-2.5 -0.5q16 2 31.5 3t31.5 2q7 1 21.5 -0.5t20.5 2.5l2 2l-2 -2q0 1 -4.5 1t-9.5 -0.5t-10 -0.5t-5 1h4.5h9.5t10 0.5l5 0.5q2 1 4 7t3 12.5t2 12.5t2 9l24 80l43 149q19 69 42.5 136.5t43.5 134.5q-2 -5 -4 -7q2 5 4.5 18t3.5 16l11 36l25 81q-30 2 -64.5 7.5
t-61.5 19.5q-16 8 -11.5 13.5t17.5 9t28 5.5t21 3t20.5 3.5t32 4.5t36.5 3t34.5 -1.5t26 -9t10.5 -18.5zM215 47q7 22 12.5 45t11.5 46l-14 -46t-18 -45q-18 -41 -29 -86q-3 -11 -5 -22l-4 -22q4 9 7.5 18t6.5 18zM126 -70q-3 -10 -5 -17.5t-4 -10.5q3 5 5 13t4 15zM168 78
q0 1 0.5 2t0.5 3q-2 -7 -3.5 -13t-3.5 -12zM173 97q0 -2 -0.5 -2.5t-0.5 -2.5q0 2 0.5 2.5t0.5 2.5zM271 105l-1 -1q0 1 1 1z" />
    <glyph glyph-name="slash" unicode="/" horiz-adv-x="522" 
d="M576 585q2 0 -0.5 -7t-6.5 -15.5t-8 -16.5t-5 -9q-13 -21 -28 -40t-31 -38l1 1q-13 -16 -24 -34t-24 -35q-28 -36 -56 -70.5t-57 -69.5q-41 -50 -79.5 -100.5t-80.5 -99.5q0 -1 -1 -2l-12 -14q-27 -32 -55 -68.5t-57 -69.5q-14 -16 -27.5 -32t-27.5 -32q-3 -3 -8 -9.5
t-11 -12.5t-12 -10t-11 -3q-6 2 -6.5 7.5t1.5 12t5.5 12.5t5.5 9q-1 -2 0 0.5t1 1.5v-1v1q0 -1 -0.5 -2t-1.5 -4q1 2 2 3t1 2v2l4 8q-2 5 2 14.5t11 19.5t13.5 19t9.5 13q21 33 43.5 65t45.5 64q35 48 71 94t73 92q48 61 98 119.5t103 115.5q20 22 40 43.5t42 41.5
q13 12 26 22t31 12zM-19 -125q-2 -3 -8.5 -12t-5.5 -13zM496 457l1 2q0 -1 -1 -2zM-38 -159l1 1zM165 36q0 -1 -1 -1z" />
    <glyph glyph-name="numbersign" unicode="#" horiz-adv-x="537" 
d="M78 327q2 11 12 11.5t19 0.5q-8 1 -17 1.5t-14 -6.5q2 5 6 6t11 2q19 2 38.5 1.5t39.5 0.5q19 1 30 4.5t19 21.5q8 19 17.5 35.5t20.5 33.5q4 6 15.5 18t24 21t24.5 10.5t17 -13.5q4 -13 -5.5 -26.5t-15.5 -23.5q-12 -20 -22 -40t-23 -39q4 0 6 -1q1 2 4.5 3t4.5 1
q5 2 11 1.5t11 -0.5l39 -3q13 -1 19 1t14 14q9 17 17 34t19 34q8 14 19.5 28t25.5 22q11 6 25.5 6t15.5 -17q1 -8 -2.5 -16t-8.5 -16.5t-10.5 -16t-9.5 -13.5q-11 -17 -20.5 -35.5t-21.5 -35.5q5 -1 16.5 -1t23.5 -1t22.5 -3.5t14.5 -8.5q3 -3 -2 -6t-11.5 -5.5t-13.5 -3.5
t-8 -1q-8 -2 -15 -2h-15q-2 0 -6 -0.5t-8 -0.5h-6.5t-0.5 1q-11 -2 -17 -13.5t-11 -19.5l-31 -47q27 -2 56 -5t55 -11q5 -2 8.5 -3t-5.5 -9q-7 -6 -18.5 -6h-19.5q-14 -1 -26.5 -3.5t-26.5 -3.5q-9 -1 -17.5 0t-17.5 0q-20 -1 -29 -14.5t-19 -29.5q-13 -21 -28.5 -40
t-31.5 -39q-3 -3 -8.5 -11t-11 -14t-10 -6t-4.5 13t10 26t16 24q12 20 21.5 41.5t20.5 41.5q-20 -1 -39 -1.5t-39 -0.5q-14 1 -25 -0.5t-21 -12.5q-21 -24 -39 -50.5t-38 -50.5q-1 -1 -4.5 -6.5t-7.5 -11t-8 -10t-5 -4.5q-6 1 -7 6t0.5 11.5t4 12t4.5 8.5q8 14 16 25t13 25
q11 30 26 54q-14 1 -29 5t-24 15q-11 13 -6 23.5t20 13.5q8 1 18 0.5t20 -1.5t19.5 0t15.5 7q5 4 6.5 9.5t3.5 10.5q4 9 9 17l10 16q-14 -1 -26.5 0.5t-24.5 3.5q1 -1 -2 -2t-5 0q-3 2 -6.5 3.5t-5.5 3.5h1q-5 3 -10.5 6.5t-9.5 8.5v-2l-3 5q-1 2 -2 4.5t-1 5.5q-1 2 -1 5v4
q0 -1 0.5 -2t0.5 -2zM317 249q10 21 26 42q-10 0 -19 3h-4q-3 0 -1 1q-2 -1 -6.5 -1h-6.5q-3 -1 -9.5 -2t-8.5 -1q-8 -1 -17.5 -1t-17.5 -2q-20 -5 -30.5 -24.5t-20.5 -35.5q14 0 28.5 0.5t28.5 0.5q9 0 23.5 -2t22.5 2q7 4 8.5 8t3.5 12zM126 339q2 0 4.5 0.5t5.5 0.5h1h-3
t-6 -0.5t-4 -0.5t2 0zM153 341q-3 0 -6 -0.5t-6 -0.5q8 0 12 1zM77 331q0 1 1 2q0 -1 -0.5 -1t-0.5 -1z" />
    <glyph glyph-name="underscore" unicode="_" horiz-adv-x="762" 
d="M773 -97q0 -1 -1 -1q0 -1 -1 -1q0 -1 -1 -1q-1 -1 -2 -1q-1 -1 -2 -1q-2 0 -4 -1q-4 0 -6 -1q-4 0 -7 -0.5t-6 -0.5q-7 -1 -13.5 -1h-12.5q-8 0 -15.5 -0.5t-14.5 -0.5q-7 1 -13.5 1h-14.5h-3q-1 0 -1 1h-9q0 -2 -3 -3.5t-12 -1.5l-58 -2q-11 0 -21.5 0.5t-22.5 0.5
q-10 -1 -23.5 -1.5t-22.5 -0.5q-6 1 -12.5 0.5t-12.5 -0.5q-2 0 -5 0.5t-6 0.5q-7 0 -13.5 -0.5t-14.5 -0.5q0 -2 -9 -3q-11 -1 -21 -1h-21h-22q-5 1 -8.5 1.5t-8.5 0.5q-12 -1 -23 -1.5t-23 -0.5h-78q1 -1 -3 -1.5t-10 -1t-11.5 -1t-8.5 -0.5h-75h-20t-21 1q-22 0 -41 3
q-5 1 -9.5 1.5t-9.5 2.5q-11 2 -20 6q-3 1 -9 5t-8 7q0 1 -0.5 1.5t-0.5 1.5v3l3 5q2 2 4.5 2t4.5 1q3 0 3 -1q2 1 8 1h1h10t9 1q4 0 7.5 0.5t8.5 1.5h33q17 0 35 0.5t36 0.5q17 1 34.5 1.5t34.5 -0.5q8 0 16 -0.5t16 -0.5q6 0 11.5 -0.5t10.5 -0.5h16l24 2t25 1h55l54 -2
h24t24 -1q5 0 9.5 -0.5t9.5 -0.5q66 -2 130.5 -4.5t124.5 -7.5q7 0 10 -1h7q0 2 2 2q1 1 4 1h4q1 0 2 -1h2q0 -1 1 -1q0 -1 1 -1v-5v0z" />
    <glyph glyph-name="bracketleft" unicode="[" horiz-adv-x="355" 
d="M285 592q-2 -7 -2.5 -14t-1.5 -11q-11 -42 -23.5 -83t-24.5 -83q-25 -85 -52 -167t-53 -166q2 6 6 10q-6 -13 -8.5 -28t-6.5 -29q-7 -23 -14 -47t-15 -47q6 0 30.5 -4t50.5 -10t44 -14t11 -17q-4 -5 -12 -5.5t-13 -1.5l-54 -10q-23 -3 -45.5 -5.5t-45.5 -0.5
q-18 1 -35.5 7.5t-19.5 28.5q-3 21 3 42.5t11 42.5q6 26 13 52t17 52q1 3 2.5 10.5t3 15.5t3.5 15t4 9q-1 -2 -1 -6v-6q2 4 2 8.5t2 9.5q0 3 1 7q0 3 0.5 5t0.5 4q2 10 5 19t6 19q6 22 12 43t11 44q0 2 4.5 19t10 36.5t11 35.5t9.5 16q-1 -3 -1 -5q-1 -1 -1 -3v-2l7 21l4 10
t-4 -3q15 49 27 89q5 17 10 33.5t9.5 30t7.5 23t4 12.5q3 8 6 17.5t8 17.5q10 16 28 17t35 3q29 2 58 2t58 -4q5 -1 12.5 -1.5t15.5 -2t14 -4t8 -8.5q2 -4 -3.5 -4.5t-7.5 -1.5q2 0 0 -0.5l-6 -1.5t-8.5 -2t-5.5 -1q-2 0 -6 -1.5t-9 -2.5t-9.5 -1t-5.5 2q2 0 5 1q2 1 4.5 1
t5.5 1q-16 -2 -32 -3t-32 -1q-9 0 -18 1t-17 -4l-1 -1q1 1 6 1.5t10.5 0.5h10t4.5 -1h-4.5h-10t-10 -0.5t-5.5 -1.5q-2 -1 -4 -5q2 4 2 5q-3 -5 -5 -13.5t-4 -16.5zM218 568q2 8 4 12q-13 -28 -24.5 -56t-19.5 -57l-23 -82q2 8 5 14.5t6 14.5q16 38 29 76t23 78zM240 435
q-2 -7 -3.5 -13t-3.5 -12q2 5 3.5 11t3.5 12v2zM123 276l7 26zM246 453l-4 -11zM289 606q-1 -2 -2 -5.5t-2 -8.5q1 9 4 14zM239 617q-2 -3 -2.5 -6t-2.5 -5zM234 606l-3 -5zM230 401l3 9zM128 66v2v-2z" />
    <glyph glyph-name="cent" unicode="&#xa2;" horiz-adv-x="316" 
d="M329 374q3 -22 -5 -48t-21 -43q-8 -10 -16.5 -10.5t-5.5 16.5t7 33.5t2 34.5q-2 9 -11 16t-20 -1q-6 -5 -9.5 -21t-6.5 -24q-4 -10 -8 -19.5t-7 -20.5q-7 -22 -12.5 -43t-13.5 -43q-17 -45 -32.5 -89.5t-32.5 -89.5q8 -2 14 -1h-1q8 2 19 8t12 6q14 11 24 27t19 30
q6 10 10.5 22t11.5 21q8 11 16 7.5t9 -18.5q0 -12 -6 -22t-11 -20q-5 -14 -11 -26.5t-16 -24.5q-8 -11 -18.5 -20t-23.5 -14q-8 -3 -14.5 -3t-13.5 -1q1 0 1.5 -0.5t1.5 -0.5q0 -1 -3.5 -2t-8 -1.5t-8 -1t-2.5 -0.5q-14 0 -16 -3t-7 -15q-1 -2 -3 -7t-4 -10.5t-4 -10
t-3 -5.5q-7 -6 -7.5 0.5t1.5 17.5t5 22.5t4 15.5q-28 5 -44 21q6 -7 11 -11.5t5 -3.5q-1 -2 -6 2.5t-11 11.5t-11 13t-6 7q-8 14 -10.5 29.5t-3.5 30.5q-1 31 4.5 62.5t14.5 60.5q18 61 52 106t91 69h-5q-1 0 4 2.5t11 4.5q7 3 17 7q8 6 11 20t6 25q4 11 8.5 24t14.5 21
q3 3 7.5 5.5t10 4t10 0.5t7.5 -6q2 -4 0.5 -7.5t-2.5 -7.5q-5 -18 -9.5 -35.5t-10.5 -35.5q20 1 37 -5t22 -29q-1 1 0 -1v-3zM202 333q2 3 2.5 6.5t1.5 6.5q-9 -4 -17 -12.5t-15 -18.5t-13 -20.5l-10 -17.5q-5 -8 -10.5 -16.5t-10.5 -16.5q0 -1 -1.5 -6t-3.5 -10.5t-4 -10.5
t-3 -5v3l-3 -7q3 6 1.5 -0.5t-1.5 -7.5q-1 -6 -3 -12l-4 -12q-4 -12 -6.5 -24.5t-2.5 -24.5q-1 -20 2.5 -45t14.5 -42q9 39 23.5 77.5t21.5 77.5q4 18 10 35.5t11 35.5q5 15 8.5 34t11.5 33zM85 274q-5 -8 -7 -15.5t-4 -16.5q3 5 6.5 10t5.5 8q0 1 1 1v1q20 29 39.5 55.5
t48.5 45.5q-19 -12 -34.5 -26t-31.5 -30q-7 -8 -13 -16t-11 -17zM52 23q-11 15 -16 32.5t-6 37.5q0 -14 2.5 -28.5t8.5 -27.5zM126 -11q1 1 4 1q-6 0 -6 -1h2zM155 22q-1 0 -2 -0.5t-2 -0.5q2 0 4 1zM73 240l1 2z" />
    <glyph glyph-name="braceright" unicode="}" horiz-adv-x="394" 
d="M296 313q4 -10 13 -10t16 -7q8 -8 6.5 -16.5t-7.5 -16t-14.5 -13t-15.5 -8.5q-6 -3 -12.5 -4t-13.5 -3q-8 -2 -13.5 -6t-11.5 -11q-1 -1 -3.5 -4.5t-5.5 -8t-6 -8l-3 -3.5l3 8q-8 -15 -12 -26q0 1 2 3q-11 -35 -21 -63q-8 -24 -15 -45.5t-9 -25.5l-12 -32t-14 -32
q-7 -14 -15 -23t-17 -20q-17 -22 -40.5 -39.5t-54.5 -15.5q-6 1 -12.5 2t-7.5 9q-2 10 7.5 12.5t16.5 4.5h-4q3 1 8.5 4.5t11.5 8t10.5 8t5.5 4.5q-1 -2 -6.5 -8.5t-6.5 -7.5q18 13 29 34.5t18.5 46.5t12.5 50t10 46q-3 -11 -8.5 -31t-10.5 -39.5t-10 -34t-6 -14.5q1 0 8 25
t16 56.5t17 59t10 33.5q7 20 18 40t25.5 35.5t33 26.5t42.5 13q-16 12 -22.5 28.5t-7 34.5t3 36t6.5 35q-1 -3 -2.5 -6.5t-2.5 -2.5q-3 3 -1 15t6 26t8 26t5 16q7 23 13.5 46.5t9.5 48.5q3 19 0.5 33.5t-20.5 23.5q-5 2 -11.5 3t-8.5 7q-4 9 1 14t13.5 8t17.5 3.5t14 0.5
q38 3 60 -14.5t24 -55.5t-6 -76.5t-19 -73.5q-5 -16 -11 -30.5t-12 -29.5q-1 -2 -2 -7.5t-2 -12t-2.5 -12t-2.5 -6.5q-1 0 -1 2q0 -2 -0.5 -3t-0.5 -3q1 5 1 -0.5v-6.5q0 -5 -1 -10.5t1 -10.5zM271 621q9 -8 11 -22.5t0 -32t-6.5 -36t-8.5 -33.5q8 22 15 43.5t9 44.5
q1 9 -5.5 19t-14.5 17zM116 106l-3 -9zM140 175l-4 -8zM145 184l-3 -5zM151 195l-4 -6z" />
    <glyph glyph-name="dollar" unicode="$" horiz-adv-x="304" 
d="M322 389q1 -11 -5 -24.5t-15.5 -26t-20.5 -23.5t-19 -17q-4 -2 -12 -7t-13 0q-2 3 0.5 6t5.5 6q-1 0 -1 -0.5t-1 -0.5l3.5 6t8 13.5t8 13.5t4.5 6l-1 -3t-3 -6.5t-3 -6l-1 -2.5q8 14 16.5 31t10.5 34q1 6 0 12t-6 11q-2 2 -9 4t-9 -1h3q-1 -1 -3 -1q-2 -1 -4 -6.5
t-3.5 -12t-2.5 -12.5t-2 -8q-2 -9 -5 -18t-6 -17q-5 -14 -10 -27t-9 -27q-3 -9 -5 -18t-5 -18q-3 -11 -4 -15.5t6 -15.5q34 -49 36 -92.5t-37 -88.5q2 2 5.5 5t3.5 2q2 -6 -6 -14t-19 -16t-22 -14.5t-15 -8.5q-9 -4 -19 -5t-19 -4q-2 -1 -4 0t-3 0q-2 -2 -4.5 -9.5
t-4.5 -10.5q-1 -2 -3 -7.5t-4.5 -10.5t-5 -9t-4.5 -4q-5 1 -4.5 8.5t2.5 16.5t4.5 17t3.5 10q-36 6 -55 29t-11 62q1 6 7 20t14.5 27.5t18.5 23t20 6.5q9 -3 7.5 -6.5t-2.5 -8.5q-2 -14 -9 -28t-9 -28q-2 -12 -2 -26.5t6 -25.5q2 -4 5.5 -7.5t8.5 -5.5q9 -3 10.5 -1.5
t5.5 9.5q3 7 0.5 7t-1.5 5q2 10 4.5 19t5.5 19q4 14 8.5 27.5t8.5 27.5q3 12 8.5 25.5t1.5 24.5q-5 14 -15.5 26.5t-17.5 25.5q-15 28 -13 61q0 1 0.5 8t1.5 14.5t3 13.5t4 6q-1 -2 -1 -4v-4q1 5 2 8.5t3 8.5q-5 -29 -3 -60t22 -55q-8 11 -13 26t-4 27q0 11 1.5 20.5
t1.5 20.5q-1 9 -2.5 16t2.5 16q0 -1 -1 -1l2 3l-1 -1l2 3l5 9q5 8 10.5 15t12.5 15q25 27 57 42q9 4 14.5 5.5t10.5 9.5q3 5 4.5 12t3.5 12q5 9 13.5 18.5t20.5 9.5q16 -1 13.5 -10.5t-4.5 -19.5q-2 -5 -3.5 -13t-1.5 -14v-8t1.5 -3t5 -2t9.5 -4q11 -5 22 -17t12 -25z
M184 89q0 3 -2 8.5t-3.5 10.5t-2.5 9.5t0 6.5l5 -11l-6 16q1 -4 0 -3t-3 4t-3.5 5t-0.5 1q-11 -31 -21.5 -61.5t-22.5 -60.5q23 5 36 21q5 5 8.5 10.5t6.5 12.5q2 6 3 15.5t6 14.5v1zM211 404q-23 -9 -34.5 -23t-15 -31.5t0.5 -36.5t13 -38q8 31 15.5 61t17.5 60v-1
q0 1 0.5 1t0.5 2q0 -1 -1 -2q0 2 1 3zM282 385q0 5 -1 10q-1 4 -2.5 8.5t-4.5 7.5q4 -1 7 -6q1 -2 2 -11t-1 -9zM263 414q8 2 11 -3q-5 3 -11 3zM114 354l-2 -4zM112 350l-1 -2q0 1 1 2z" />
    <glyph glyph-name="parenright" unicode=")" horiz-adv-x="442" 
d="M367 487q3 -53 -7 -102q-2 -8 -4.5 -15t-4.5 -15q0 -1 -0.5 -6.5t-1.5 -11.5t-2 -11t-2 -6v3l-2 -6q1 1 1 -1.5t-0.5 -6.5t-1 -7t-0.5 -4l-10 -37q-5 -14 -9 -28.5t-8 -28.5q-1 -3 -6 -17.5t-12 -31t-13.5 -29.5t-9.5 -12q-1 0 1 3.5t1 4.5q-3 -7 -6 -13.5t-7 -12.5
q1 1 1.5 2t2.5 2q2 -1 -7.5 -17t-22 -35.5t-24 -36t-13.5 -19.5q-19 -23 -38.5 -41.5t-45.5 -29.5q-22 -10 -43.5 -19t-47.5 -5q-5 1 -10.5 3t-9.5 5.5t-5 8.5t4 11q6 7 13 5t15 -3l-1 1q2 0 8 2.5t12.5 6t12 6l5.5 2.5q1 -1 -4 -4.5t-9 -5.5q18 10 33.5 26.5t28 36t23 40.5
t19.5 40q-6 -11 -15 -28t-18.5 -33t-17 -27.5t-10.5 -11.5q3 1 12.5 16.5t20 35t19 36.5t10.5 20q14 29 26.5 59.5t22.5 62.5q18 54 36 112t26 113q0 -1 -0.5 -1.5t-0.5 -1.5q0 8 1 14q0 5 0.5 10t0.5 7q3 18 3 38q2 20 1.5 42t-6.5 42q-5 16 -12.5 23.5t-22.5 12.5
q-8 2 -15.5 6t-0.5 15q4 6 13 9t19 3.5t19.5 -1t15.5 -3.5q25 -7 40 -23q23 -25 30.5 -61.5t9.5 -70.5v-3q1 -11 1 -9t-1 6zM198 166l-10 -26zM177 116l8 19zM185 135l1 2q1 3 2 3q-2 -2 -2 -4zM187 138q0 1 1 2q0 1 -0.5 0t-0.5 -2z" />
    <glyph glyph-name="question" unicode="?" horiz-adv-x="340" 
d="M446 674q0 -4 -1 -15t-3.5 -22.5t-5.5 -21t-6 -10.5v3l-3 -6q1 3 -1.5 -6.5t-3.5 -10.5q-4 -10 -9 -18.5t-10 -16.5l-30 -51q-2 -3 -10.5 -16t-18.5 -27.5t-19 -25.5t-12 -10q-1 0 1.5 3.5t1.5 3.5q-4 -6 -8 -11.5t-9 -11.5l4 3q-2 -2 -11.5 -16t-23.5 -34.5t-29.5 -44
t-30 -44t-25 -36t-13.5 -18.5q-14 -17 -25.5 -40t-22.5 -43q-2 -4 -6 -10t-8.5 -10.5t-9.5 -5t-10 6.5q-5 6 -3 13.5t4 14.5l-2 -5v7t1 15t3 15t4 7q1 0 -1 -9t-2 -10q7 36 23 74l-3 -4.5t-2 -3.5t-1 -3l8 17t18.5 38l20 40l11.5 23q17 30 35.5 59.5t35.5 58.5t34.5 56.5
t35.5 55.5q3 5 12 17.5t17 26t12.5 26t-0.5 17.5q2 -2 1.5 -6.5t-0.5 -3.5q-4 3 -5 5.5t-3 4t-6 1.5t-13 -3q-26 -6 -50.5 -24.5t-43.5 -37.5q-5 -5 -12 -15t-15 -18.5t-16.5 -11.5t-15.5 7q-8 11 -3.5 25t11.5 25q29 42 76.5 71.5t96.5 40.5q14 3 29.5 2.5t29 -5t23.5 -14
t13 -26.5v-1zM130 10q5 0 4 -6t-4 -13t-7 -14t-5 -8q-5 -12 -12.5 -18t-18.5 -16q-9 -8 -18 -15t-23 1q-5 2 -15.5 11.5t-13.5 15.5q-5 11 -2 24t11 24.5t18 20.5t19 14q14 7 28 9.5t29 -3.5q4 -1 5 0.5t5 -3.5q5 -6 2.5 -12.5t-2.5 -11.5zM214 372q-12 -20 -22.5 -40.5
t-23.5 -39.5q13 18 23 36.5t23 36.5q11 16 19.5 32.5t16.5 33.5q-9 -16 -18.5 -30.5t-17.5 -28.5zM212 413l-16 -26zM252 433l-2 -2zM190 376q0 -1 -0.5 -1t-0.5 -1q0 1 0.5 1t0.5 1z" />
    <glyph glyph-name="exclam" unicode="!" horiz-adv-x="220" 
d="M339 679q-1 -14 -6 -30q-7 -20 -14.5 -39t-15.5 -39q-14 -38 -26.5 -76t-25.5 -76q-21 -63 -38 -126t-40 -126q-2 -6 -7.5 -21.5t-12.5 -30t-16 -22.5t-18 2q-6 6 -6.5 17.5t2 24.5t5.5 25t5 19q5 19 10.5 37t10.5 37q20 81 37 162t32 163q3 21 8 42.5t6 42.5q0 12 1 22
t12 20q11 9 26.5 12t30.5 -0.5t26.5 -13t13.5 -25.5v-1zM152 10q5 0 4 -6t-4 -13t-7 -14t-5 -8q-5 -12 -12.5 -18t-18.5 -16q-9 -8 -18 -15t-23 1q-5 2 -15.5 11.5t-13.5 15.5q-5 11 -2 24t11 24.5t18 20.5t19 14q14 7 28 9.5t29 -3.5q4 -1 5 0.5t5 -3.5q5 -6 2.5 -12.5
t-2.5 -11.5zM226 470q-6 -31 -15 -59q-5 -15 -9 -30.5t-6 -30.5q-2 -14 -5 -24t-6 -22q5 19 14.5 38t13.5 39q5 23 8 44t5 44v1zM184 300q0 2 1 4q-1 -2 -1 -4z" />
    <glyph glyph-name="parenleft" unicode="(" horiz-adv-x="339" 
d="M368 637q2 -8 -1.5 -11.5t-9 -4t-12 0.5t-10.5 1l2 -1q-3 0 -9 -3t-13 -6l-16 -8q-1 1 4 4.5t8 5.5q-19 -11 -34.5 -28t-28 -37t-23 -41.5t-19.5 -40.5q3 7 9 18t13 23.5l14 25t13 21.5q-9 -15 -22 -40.5t-25 -50.5t-21.5 -45t-11.5 -24l10 27q-26 -60 -54 -118t-48 -121
q-4 -12 -11 -37.5t-12 -56t-7 -61.5t5 -53q-7 24 -2.5 59t15 75t25 81.5t28.5 77.5t26 62.5t17 37.5q-12 -33 -21 -66.5t-19 -66.5q-9 -31 -19 -64t-15 -63l3 9q-1 -3 -1.5 -9.5t-0.5 -13t-0.5 -12.5t-0.5 -8q-3 -27 -3 -53q0 -12 1 -26t4.5 -26.5t10.5 -23t20 -14.5
q4 -2 10 -3t10 -3.5t5 -6.5t-5 -11t-16.5 -9.5t-22 -1.5t-22 4t-17.5 6q-22 9 -35 28t-20 41.5t-9.5 47.5t-3.5 46q-2 51 9 99q2 7 4 13t4 13l0.5 5.5t1 11.5t1.5 11.5t3 6.5v-3q0 2 0.5 3t0.5 3q-1 -2 0 7.5t2 11.5q2 9 4.5 18.5t5.5 18.5q5 14 9 28.5t7 28.5q1 3 6 17.5
t12 31t13.5 29.5t10.5 12q0 -2 -1 -4q-2 -4 -1 -4q3 7 6 13.5t7 12.5l-4 -4q-1 0 6 12.5t16 28t17.5 29t10.5 16.5q15 21 33 42t39 37q8 6 30 17t46.5 18t44.5 6t24 -19zM73 -50q10 -7 21 -8q-11 1 -21 8zM261 564q2 4 4 5.5t3 2.5q-3 -2 -7 -8zM261 564l-4 -4zM70 -47l3 -3
zM257 560l-2 -4z" />
    <glyph glyph-name="braceleft" unicode="{" horiz-adv-x="352" 
d="M424 660q3 -6 1.5 -9.5t-5.5 -6t-9 -3.5t-9 -2h3q-3 -1 -8.5 -4.5t-11.5 -8t-10.5 -8t-5.5 -4.5q1 2 7 8.5t7 7.5q-18 -14 -29.5 -35t-19 -46t-12 -50.5t-10.5 -46.5q3 11 8.5 31.5t11 40t10 34t6.5 14.5q-1 0 -8.5 -25t-16 -56.5t-16.5 -59t-10 -33.5q-8 -20 -18.5 -40
t-25 -35.5t-33 -26.5t-42.5 -13q16 -13 22 -29.5t7 -34.5t-2.5 -36.5t-6.5 -34.5q1 3 2.5 7t2.5 3q2 -2 1 -10.5t-4 -18t-5.5 -18t-3.5 -11.5q-4 -16 -8 -31t-9 -31q-3 -10 -6.5 -22.5t-6 -26t-3 -26.5t4.5 -23q4 -8 9 -11.5t13 -6.5q12 -5 14.5 -10t-0.5 -10.5t-10.5 -9.5
t-16.5 -5q-21 -3 -45 -0.5t-38 19.5q-9 10 -13 23t-5 27t0.5 28t3.5 26q4 32 12 62.5t19 60.5q3 9 7 17.5t7 17.5q0 1 1 6.5t2.5 12t3 12t2.5 6.5v-3q2 4 2 8q-2 -7 -2 -1v7q1 5 2 10.5t-1 10.5t-5.5 7t-7.5 3t-8.5 2t-8.5 5q-8 8 -6.5 16.5t7.5 16t14.5 13t15.5 8.5t13.5 4
t13.5 3q13 4 25 17q1 1 3.5 4.5t5.5 8t6 8l3 3.5l-3 -8l12 26l-2 -2q2 4 7 20.5t11 35t11 34t6 18.5q10 28 20.5 59.5t29.5 54.5q12 15 27 31.5t33 26.5q4 3 14 7t21.5 7t21.5 2t14 -8zM149 180q1 3 2.5 11t2 17t-0.5 17.5t-4 13.5q4 -6 2 -19t-6 -26.5t-8.5 -25.5t-5.5 -16
l-28 -98q8 32 20.5 62t24.5 61q0 1 1 2v1zM288 382q-3 -7 -6 -13.5t-7 -13.5q5 8 8.5 15.5t6.5 15.5q-1 -1 -1 -3zM290 387h1l3 9zM310 444l2 8zM149 179v1l-1 -2q0 1 1 1zM208 372q0 -1 -1 -1q1 0 1 1zM102 49q-1 -2 -1 -5q0 4 1 5z" />
    <glyph glyph-name="comma" unicode="," horiz-adv-x="216" 
d="M157 21q3 -14 -5 -28t-12 -26q-8 -23 -24.5 -43t-33.5 -39q-8 -9 -20.5 -24t-23.5 -20q-13 -6 -18 0t-3 17q3 15 11 27.5t18 23.5t20.5 22t18.5 23q-4 -1 -11 -3.5t-14.5 -4t-14.5 -2.5t-11 1q-11 5 -10 17.5t6 20.5q8 17 25.5 28.5t33.5 19.5q-4 2 -0.5 5.5t10 7
t13.5 5.5t10 1q11 -2 21.5 -8.5t13.5 -20.5z" />
    <glyph glyph-name="hyphen" unicode="-" horiz-adv-x="373" 
d="M374 234q1 -6 -3.5 -9.5t-11.5 -6t-13.5 -3.5t-10.5 -1q-11 -2 -18 -5t-18 -5q-25 -4 -50 -6.5t-49 -7.5q-20 -4 -40.5 -2t-40.5 -2q-16 -2 -32.5 -4.5t-33.5 2.5q-20 6 -29.5 27t-5.5 41q3 14 11.5 13t19.5 0q43 1 85 4.5t86 -0.5q23 -2 46 -5t46 -8q3 -1 13 -3.5
t21 -5.5t19.5 -6.5t8.5 -6.5zM144 247q18 -1 36.5 -1t37.5 5q-17 -3 -34.5 -2.5t-35 2t-35 2t-34.5 -3.5q15 2 32.5 0t32.5 -2z" />
    <glyph glyph-name="plus" unicode="+" horiz-adv-x="401" 
d="M390 234q1 -8 -6 -12t-16.5 -5.5t-19 -2t-13.5 -1.5q-2 -1 -6.5 -4t-8.5 -4q-12 -3 -25 -3l-18 -2t-17 -3q-13 -1 -19.5 -1t-11.5 -13l-18 -39q-10 -19 -21 -37t-25 -35l-3 3q1 -4 0.5 -6.5t-5.5 -7.5q-9 -10 -13.5 -2.5t-4.5 21.5q1 7 2.5 13.5t2.5 13.5q0 5 -0.5 8.5
t-0.5 9.5q0 14 4 31t8 31q-18 -1 -40 -3.5t-40 1.5t-30 16.5t-11 41.5q0 11 3.5 16t9.5 6t13.5 0.5t16.5 -0.5q16 2 31 2t30 1h18.5t17.5 4q4 3 6 16t3 19q2 11 3.5 21t6.5 21q9 26 26 38t46 4q14 -4 18.5 -9t1.5 -18q-6 -24 -15 -48.5t-13 -48.5q20 -2 38.5 -4.5t37.5 -7.5
q3 -1 12 -3t19 -5t18 -6.5t8 -6.5zM167 145q4 21 7.5 42t8.5 42q5 25 9 54t12 56q-7 -23 -11 -46t-10 -44q-11 -37 -20 -76t-4 -78q0 14 3 29t5 21z" />
    <glyph glyph-name="equal" unicode="=" horiz-adv-x="401" 
d="M377 310q4 -7 0 -11.5t-11.5 -7t-15.5 -4t-11 -2.5q-11 -2 -21 -5.5t-22 -5.5q-29 -4 -56.5 -7.5t-56.5 -5.5q-19 -1 -42.5 -4.5t-44 -1.5t-35.5 13.5t-16 40.5q-1 14 0.5 20t13.5 8q28 5 57.5 5t57.5 2q26 2 52.5 -1t52.5 -7q38 -5 72 -18q4 -2 14 -4t12 -4zM358 185
q9 -3 6.5 -7.5t-9.5 -9t-15 -7.5t-10 -3q-13 -2 -20.5 -5t-20.5 -5q-28 -5 -56 -8.5t-56 -5.5q-19 -1 -43 -5.5t-46 -3.5t-38 11.5t-20 39.5q-2 12 -0.5 21t12.5 12t27 2.5t27 0.5q14 1 28 1t28 2q27 3 55.5 0.5t54.5 -6.5q17 -3 33 -6.5t32 -9.5zM137 159h-39.5t-39.5 -4
q18 4 36.5 2.5t37.5 -3t37.5 -2t36.5 5.5q-16 -4 -34.5 -2t-34.5 3z" />
    <glyph glyph-name="greater" unicode="&#x3e;" horiz-adv-x="409" 
d="M387 301q1 -6 -3.5 -12t-11 -11.5t-13.5 -10.5t-11 -8q-14 -12 -29.5 -23t-29.5 -23q-19 -16 -40.5 -28.5t-41.5 -26.5q-16 -10 -30.5 -21t-32.5 -9q-18 1 -29 9.5t-15 20.5t-0.5 25.5t15.5 24.5q16 15 34 25.5t35 23.5q23 17 47.5 29t49.5 24q-44 -33 -84.5 -71.5
t-87.5 -67.5q26 16 50 35t49 38q26 20 47 41.5t50 36.5q-26 14 -51.5 31t-47.5 38q-5 5 -14 15t-7 19q1 5 5 6.5t9 0.5t10.5 -3.5t8.5 -3.5q12 -6 22.5 -15t21.5 -15q2 -2 8 -3.5t10 -3.5l23 -16q20 -16 43.5 -34t40.5 -37z" />
    <glyph glyph-name="yen" unicode="&#xa5;" horiz-adv-x="298" 
d="M326 382q8 -5 3 -18.5t-14 -28.5t-19 -27.5t-12 -15.5q-17 -23 -31.5 -46t-29.5 -47q3 -1 10 -1.5t14.5 -1.5t13.5 -2.5t7 -4.5q3 -7 -1.5 -9.5t-11.5 -3.5t-14.5 -1t-9.5 -1v2q-14 -3 -25.5 -9.5t-17.5 -22.5q13 -1 25.5 -2.5t25.5 -5.5q1 0 4 -1t6.5 -1h6t1.5 1
q7 -10 -3 -12t-17 -3q-4 -1 -5.5 1t-4.5 1q-2 -1 -5.5 -3.5t-8.5 -2.5q-8 -1 -17.5 0t-17.5 -1q-11 -2 -17 -13.5t-12 -20.5q-13 -21 -27.5 -41.5t-26.5 -40.5q11 29 24 52.5t27 50.5q8 15 13.5 30t12.5 30q1 1 1 2q-12 -16 -22.5 -32.5t-18.5 -35.5l-22 -54
q-5 -11 -9 -24.5t-10 -24.5q-8 -14 -18 -14.5t-18 6.5t-12 19t-1 23q8 22 23.5 41t25.5 40q-7 0 -14 4t-11.5 10t-4 12.5t8.5 10.5q1 1 2.5 0.5t2.5 -0.5q8 2 16.5 0.5t15.5 1.5q8 2 11 6t8 12q-8 -6 -17 -3l-15 5q1 -2 0 -3q-5 0 -8 4v1q-2 2 -3.5 4.5t-3.5 4.5q0 -2 -1 -2
q-2 5 -3 9q-2 10 4 14q4 2 14 1.5t15 0.5q13 1 23 3.5t3 16.5q0 1 1 1q-2 7 -7.5 16t-7.5 17q-3 11 -1 16t0 12q0 -2 -1.5 0.5t-2.5 6.5t-2.5 8t-1.5 6q-3 9 -4 18t-3 18q-1 3 -3.5 11.5t-2.5 14.5q0 5 1 8.5t2 6.5q-2 0 -3 1q-2 4 0.5 5.5t3.5 3.5v-3q1 4 4 7.5t7 7.5
q-3 -1 -4 0q1 -1 4 1t7 4t8.5 2t7.5 -5q4 -5 4.5 -15.5t2.5 -17.5q3 -11 6 -20.5t4 -20.5q1 -7 0 -14t0 -13q0 3 2 4q4 0 5.5 -13.5t1.5 -30t-0.5 -31t-0.5 -17.5l45 66q11 16 25 32t24 33q6 11 12 24t22 20q14 5 21 1.5t16 -10.5zM83 197q-8 -1 -8 -6q2 5 8 6zM104 198
q-3 0 -5.5 -0.5t-4.5 -0.5q6 0 10 1zM129 408q5 -3 6 -11q-1 9 -6 11zM139 376q-1 2 -1 6q0 -4 1 -6z" />
    <glyph glyph-name="less" unicode="&#x3c;" horiz-adv-x="399" 
d="M389 392q4 -14 -1 -25.5t-15.5 -21t-22.5 -16.5t-21 -13q-18 -11 -34.5 -23t-35.5 -22l-78 -39q29 -16 59 -34.5t51 -44.5q4 -5 9.5 -14.5t-1.5 -14.5q-5 -5 -13.5 -2.5t-18 8t-17.5 11t-12 8.5q-10 8 -19 11.5t-20 11.5q-13 9 -24.5 18.5t-24.5 19.5q-11 8 -20.5 18.5
t-20.5 18.5q-6 5 -8 5.5t0 7.5q2 10 12.5 17t17.5 12q11 9 22 17.5t23 16.5q17 11 32 23.5t32 23.5q15 10 30 19.5t30 20.5q7 5 14.5 10t16.5 7q8 2 18 0t17 -6q10 -6 16 -15q6 -8 6 -10.5t-7 -10.5l-1 -2q3 5 8 8zM350 356q-13 -11 -26.5 -20.5t-26.5 -19.5
q-18 -13 -34 -27t-33 -27q19 14 38.5 26.5t37.5 27.5z" />
    <glyph glyph-name="Euro" unicode="&#x20ac;" horiz-adv-x="287" 
d="M207 335q-2 -2 -7.5 -8.5t-6.5 -8.5q-8 -10 -17 -26.5t-15 -30.5q11 -1 23 -4t22 -5q6 -1 19.5 -2t18.5 -6q6 -7 1 -10t-14 -4.5t-18 -2t-11 -1.5q-1 1 -1 2q-8 -2 -19 -6t-22 -5q-11 0 -13 0.5t-7 -10.5q-1 -2 -5 -10.5t-5 -8.5t0 2.5t0 2.5q-4 -11 -5 -19q0 4 2 4
q0 -3 -1 -5q23 -2 46 -6t46 -7q5 -1 11.5 -0.5t5.5 -6.5q0 -5 -4.5 -7t-10 -2.5t-11 0t-8.5 -0.5l-17 -5q-11 -2 -21.5 -1.5t-21.5 -0.5q-10 -1 -14 -2.5t-7 -9.5q-3 -11 -2 -27t6 -32t13.5 -28t20.5 -13q4 0 10.5 1t13 1.5t12.5 0t9 -4.5q6 -7 3 -14.5t-10 -12.5
q-5 -3 -9.5 -2t-9.5 0q1 0 1.5 -0.5t2.5 -0.5q0 -1 -4 -2.5t-9.5 -2t-10.5 -1t-5 1.5l9 2q-30 -3 -57 7t-41 38q8 -18 20 -27q0 -1 6.5 -4.5t13.5 -7t13 -6t6 -1.5q0 -2 -7 1t-15.5 7.5t-15.5 9t-8 5.5q-10 11 -15.5 24t-8.5 27q-3 19 -3 40q0 1 1 12t0 13q-3 3 -13.5 1.5
t-15.5 0.5q-13 5 -18 14q-4 8 -3 16t9 12q2 1 10 0.5t9 -0.5h9t9 1q11 -3 10 9q4 7 5.5 15.5t3.5 15.5q-9 -1 -14.5 0.5t-12.5 3.5v-3q-4 -1 -5.5 1t-3.5 4h4q-8 3 -13 12q0 -2 -1 -3q-1 0 -5 11t3 16q5 3 14.5 2t14.5 -1q8 1 19 2t18 4q5 2 8 6t5 8q-3 -3 -5 -3q-3 4 4 16
t17.5 25t20.5 24t13 14q26 24 54 37q7 3 25 9.5t37.5 10.5t36 2.5t19.5 -13.5q3 -9 -7 -16t-23.5 -11.5t-27.5 -8.5t-20 -7q-8 -5 -17 -9.5t-16 -10.5zM93 83q1 -4 3.5 -12t4.5 -13q-3 7 -1 17t2 16v21t-1 21q-1 -5 -1.5 -9.5t-2.5 -8.5q-2 -9 -4 -15.5t0 -16.5zM16 248
q2 4 9 5q-7 0 -9 -5zM52 76q0 4 -0.5 7.5t-0.5 7.5q0 -10 1 -14v-1zM193 318l3 4zM54 66q-1 2 -1 5q0 -3 1 -5zM37 253h1h-1zM42 254q-2 0 -2.5 -0.5t-1.5 -0.5q1 0 2 0.5t2 0.5zM61 41q0 -1 2 -5q-2 4 -2 5z" />
    <glyph glyph-name="asciitilde" unicode="~" 
d="M393 212q2 -14 -11.5 -25t-23.5 -17q-9 -6 -17.5 -10t-19.5 -4q-6 -1 -12.5 -0.5t-12.5 1.5q-14 2 -12 2h5q-20 3 -38 9t-38 12l1 1l-9 3q-3 1 -10 1.5t-10 0.5q-11 0 -22 -1.5t-22 -3.5q-8 -1 -17 -5t-16 -3q-18 0 -15 10.5t12 18.5q0 1 3 5t7 4v-2q9 7 18 12.5t19 10.5
q-5 -2 -9 -3.5t-7 -3.5q-4 -2 -7 -4q-1 1 7 5t17.5 8t19 7.5t11.5 4.5q18 4 32 3t26.5 -5.5t24.5 -12t26 -15.5q-2 1 0.5 1t6.5 -0.5t8 -1.5l4 -1q7 -2 14.5 -4.5t14.5 -2.5q3 0 11 2.5t16.5 5t15.5 2.5t9 -4v-1zM191 245h-2q-2 -1 -3 -1zM196 246l-5 -1q3 0 5 1z" />
    <glyph glyph-name="semicolon" unicode=";" horiz-adv-x="350" 
d="M201 128q16 -14 11 -32t-12 -34t-13 -29t-18 -27q-7 -8 -14 -15.5t-13 -15.5q-5 -5 -11 -10t-11 -11q-6 -5 -11.5 -13.5t-12.5 -12.5q-10 -5 -17.5 -2.5t-7.5 13.5q0 15 8.5 28t19.5 25.5t23 24t19 22.5q-4 -1 -11 -3t-14.5 -4t-14.5 -3t-11 1q-11 5 -10 18t6 21
q8 16 25.5 28t33.5 20q-4 2 -1.5 5t7.5 6t10 5.5t7 2.5q5 1 17 -2t16 -6zM289 378q5 0 4 -6t-4.5 -13.5t-7.5 -14t-5 -8.5q-5 -12 -12.5 -18t-18.5 -15q-9 -9 -18 -16t-23 1q-5 3 -15.5 12.5t-13.5 15.5q-5 11 -2 23.5t11 24t18 20.5t19 14q14 8 28.5 10t28.5 -3
q4 -2 5 -0.5t5 -3.5q5 -5 2.5 -11.5t-1.5 -11.5z" />
    <glyph glyph-name="colon" unicode=":" horiz-adv-x="309" 
d="M193 96q5 0 4 -6t-4 -13.5t-7 -14t-5 -8.5q-5 -12 -12.5 -18t-18.5 -15q-9 -9 -18 -16t-23 1q-5 3 -15.5 12.5t-13.5 15.5q-5 11 -2 23.5t11 24t18 20.5t19 14q14 8 28 10t29 -3q4 -2 5 -0.5t5 -3.5q5 -5 2.5 -11.5t-2.5 -11.5zM281 378q5 0 4 -6t-4 -13.5t-7 -14
t-5 -8.5q-5 -12 -12.5 -18t-18.5 -15q-9 -9 -18 -16t-23 1q-5 3 -15.5 12.5t-13.5 15.5q-5 11 -2 23.5t11 24t18 20.5t19 14q14 8 28 10t29 -3q4 -2 5 -0.5t5 -3.5q5 -5 2.5 -11.5t-2.5 -11.5z" />
    <glyph glyph-name="period" unicode="." horiz-adv-x="219" 
d="M156 10q5 0 4 -6t-4 -13t-7 -14t-5 -8q-5 -12 -12.5 -18t-18.5 -16q-9 -8 -18 -15t-23 1q-5 2 -15.5 11.5t-13.5 15.5q-5 11 -2 24t11 24.5t18 20.5t19 14q14 7 28 9.5t29 -3.5q4 -1 5 0.5t5 -3.5q5 -6 2.5 -12.5t-2.5 -11.5z" />
    <glyph glyph-name="asterisk" unicode="*" horiz-adv-x="275" 
d="M311 401q2 -2 4.5 -1t3.5 -1q1 -4 0.5 -5.5t-3.5 -4.5q-4 -3 -10 -1.5t-12 5.5t-11 7.5t-8 5.5q-1 0 -2 -1q-3 -3 -4 -1q-6 2 -11.5 4.5t-10.5 5.5l-28 14q-9 -19 -20 -37t-24 -34q-1 -2 -4.5 -6.5t-7.5 -9.5t-7.5 -9t-4.5 -4q-8 -1 -9.5 5t0 14.5t4.5 16.5t4 11
q-1 2 -1 5q-1 2 -1 6q0 6 2 11.5t4 11.5l9 30q-22 -7 -43.5 -11t-44.5 -7q-2 -1 -5 -4.5t-6 3.5q-2 4 1 7.5t7.5 6.5t9 5t7.5 3q13 5 26 11t27 14q-7 4 -16 7t-17 7t-15 9.5t-11 14.5q-5 11 -1.5 22.5t17.5 10.5q4 -1 7.5 -3.5t6.5 -4.5q17 -8 33.5 -19t33.5 -17l12 45
q4 11 9.5 22.5t15.5 16.5q4 3 12 4t16.5 0.5t16 -3t10.5 -7.5q2 -4 0.5 -11.5t-4.5 -15t-6 -14.5t-4 -11q7 2 18 5.5t21 3.5t17.5 -4.5t8.5 -17.5q3 -1 -1 -5.5t-5 -5.5q-5 -5 -14 -7.5t-16 -4.5q-3 -2 -10.5 -4t-15.5 -4.5t-15 -5t-8 -5.5q-2 -3 3.5 -8.5t13.5 -11.5
t16.5 -11.5t12.5 -8.5q7 -5 13.5 -11.5t13.5 -12.5z" />
    <glyph glyph-name="asciicircum" unicode="^" horiz-adv-x="234" 
d="M279 435q1 -9 0.5 -19t-5 -18.5t-12 -14t-19.5 -4.5q-7 1 -11.5 4t-9.5 8q-10 12 -15.5 28t-8 33t-2.5 34.5v31.5q-20 -20 -39 -38.5t-39 -36.5q-5 -4 -13.5 -12t-18.5 -15.5t-20 -12.5t-17 -2q-8 3 -4 11.5t12 17.5t16.5 17t10.5 11q7 10 13 19.5t16 19.5l30 30
l27.5 27.5t29.5 24.5q6 4 13.5 9.5t15 8.5t15 3t14.5 -6q14 -12 16.5 -32.5t3.5 -38.5q2 -22 0.5 -44.5t0.5 -43.5z" />
    <glyph glyph-name="quotedbl" unicode="&#x22;" horiz-adv-x="235" 
d="M154 525q-17 -36 -30 -71.5t-36 -68.5q-6 -8 -14 -12.5t-10 8.5q-2 11 5 22.5t10 22.5t5 21t6 20q-8 -1 -8.5 12.5t2.5 30.5t7.5 32.5t5.5 19.5q2 8 3.5 20.5t6.5 17.5q4 4 12 6t16.5 2.5t16.5 -1t12 -4.5q10 -10 7 -20.5t-6 -21.5q-3 -10 -4.5 -18.5t-6.5 -17.5z
M264 567q1 -19 -7.5 -36.5t-16.5 -33.5q-11 -21 -20 -41.5t-23 -40.5q-1 -2 -6.5 -8.5t-12.5 -14t-14 -13t-10 -3.5q-4 1 -4 6.5t2 11.5t4.5 11.5t3.5 7.5q6 14 11.5 28t12.5 28q-10 0 -8.5 16t7.5 36t13 37.5l9 22.5q1 2 -1 4t1 7q4 5 12 6t13 -1q10 -4 21 -10.5t13 -19.5z
" />
    <glyph glyph-name="quotesingle" unicode="'" horiz-adv-x="143" 
d="M172 592q2 -12 -3.5 -29t-8.5 -28q-4 -12 -10.5 -23.5t-10.5 -23.5q-8 -24 -18 -45t-24 -43q-2 -3 -5.5 -9t-7.5 -11t-9 -8t-9 2q-3 3 -2 9.5t3.5 13.5t5.5 13.5t4 9.5q5 11 7.5 23t7.5 24q-10 -1 -9.5 15.5t5.5 37.5t11 40.5t7 24.5q0 3 -2 5t3 8q3 5 9.5 7t11.5 3
q10 1 25 0t19 -15v-1v0z" />
    <glyph glyph-name="ampersand" unicode="&#x26;" horiz-adv-x="482" 
d="M499 261q3 -6 -4 -12t-16.5 -10.5t-19 -8.5t-11.5 -5q-10 -6 -18.5 -10.5t-19.5 -9.5q-6 -2 -8.5 -4t-3 -5t-0.5 -7.5t-1 -10.5q-4 -24 -13.5 -45.5t-21.5 -42.5q-15 -25 -28.5 -46t-37.5 -41q-17 -14 -37.5 -25.5t-43.5 -18.5q-27 -8 -53.5 -5.5t-54.5 7.5
q-8 2 -21.5 3.5t-21.5 7.5q-24 11 -28 37t2 56.5t17.5 59t19.5 44.5q23 48 56.5 90.5t80.5 68.5q-12 8 -22.5 17.5t-17.5 21.5q-17 30 -12 55t16 53q9 22 29.5 38t38.5 30t41.5 27t44.5 19q24 6 46.5 -2t38.5 -25t22.5 -40t-0.5 -46q-3 -9 -8.5 -20t-13 -21.5t-16 -19
t-16.5 -12.5q-5 -2 -11.5 -3.5t-12.5 -0.5t-10 4.5t-4 11.5q-1 6 3.5 10t8.5 9t14.5 18t18 27t9 27t-11.5 18q-11 4 -26.5 -2t-30.5 -16t-28.5 -21t-21.5 -18l-17.5 -17.5t-21 -24.5t-14.5 -27t2 -24q8 -12 22.5 -12t31.5 3.5t33 6t27 -4.5q7 -5 10.5 -13t4.5 -16.5t-2 -17
t-9 -12.5q-12 -8 -27.5 -5.5t-29.5 -3.5t-26.5 -14t-24.5 -16q-6 -5 -10.5 -9t-7.5 -9q-3 -4 -5 -8.5t-6 -9.5q-11 -15 -21 -29.5t-20 -29.5q-16 -25 -28.5 -53.5t-20.5 -57.5q-2 -6 -3.5 -15.5t-0.5 -19t4 -17.5t11 -11q9 -4 20.5 -1.5t23.5 8t23 12t18 11.5q45 31 79 74
t64 88q-16 -9 -36 -10t-37 -5q-12 -2 -19 -3.5t-9 15.5q-2 14 3.5 21t13.5 16q0 1 -1 4t1 5t5.5 2.5t6.5 2.5q7 2 13.5 0t12.5 -1q4 1 7 4t10 5q9 2 19.5 2.5t19.5 2.5q14 2 25 3.5t26 2.5q10 1 20.5 1.5t20.5 2.5q3 0 8 2t11 3t11.5 0t7.5 -7zM57 83q9 26 22.5 52.5
t27.5 50.5q9 14 17 29t19 29q-12 -11 -26 -28q-14 -20 -24.5 -38.5t-19.5 -41.5q-6 -14 -11.5 -31t-9.5 -35t-5 -36.5t4 -34.5q-4 21 -1 45.5t7 38.5z" />
    <glyph glyph-name="cedilla" unicode="&#xb8;" horiz-adv-x="156" 
d="M135 -56q1 -18 -6.5 -31.5t-20 -22.5t-28 -14t-30.5 -6q-9 0 -13.5 0.5t-9.5 8.5q-3 4 -4.5 11.5t-1.5 16t1.5 16t4.5 10.5q6 6 8.5 3t8.5 -4h11.5t18 0.5t17 2.5t8.5 5q1 6 -3.5 9t-11 4t-13 0.5t-9.5 -0.5q-12 0 -14.5 4.5t0 11.5t7.5 15t9 15q2 5 6.5 16t9.5 13
q2 1 10 -2.5t9 -4.5q3 -6 -3 -15t-8 -13q7 2 15 -2.5t15 -12.5t11.5 -17t5.5 -15l-1 1q0 -1 1 -2v-1v0z" />
    <glyph glyph-name="tilde" unicode="&#x2dc;" horiz-adv-x="279" 
d="M237 485q1 1 3 4.5t4 5.5t5 2t7 -5q3 -5 2 -9.5t-4 -8.5t-7 -7.5t-5 -5.5q-5 -6 -9 -11t-12 -10q-13 -8 -28.5 -9.5t-28.5 1.5q-16 5 -30 13.5t-30 11.5q-10 2 -19 3.5t-20 -1.5q-8 -2 -18.5 -9t-18.5 0q-12 9 -6 20t19 21t27.5 17t19.5 9q18 7 31 4.5t25 -10t24 -16.5
t27 -15q11 -5 22 -4t20 9z" />
    <glyph glyph-name="dieresis" unicode="&#xa8;" horiz-adv-x="281" 
d="M259 502q1 -4 2 -13t-1 -13h-1q-2 -11 -7.5 -19.5t-13.5 -16.5q8 6 9 6q1 -1 -4 -5.5t-11.5 -10t-13 -10t-7.5 -5.5q-6 -4 -9.5 -5.5t-10.5 -0.5q-1 0 -4.5 2t-7 4.5t-6 4.5t-1.5 3t3 0q-1 1 -5 4.5t-3 1.5q4 -5 4 -5.5t-1.5 1l-4 4t-2.5 3.5q-2 6 -3.5 9.5t-0.5 11.5
q1 12 6.5 21.5t14.5 17.5q6 6 18 13.5t24 10.5t22 -0.5t13 -18.5q-2 16 -14 20t-25 1q14 5 24 2t17 -18zM119 513q4 0 3.5 -5t-2.5 -11.5t-4.5 -12.5t-2.5 -7q-5 -12 -11 -21t-18 -17q-5 -3 -12.5 -9t-12.5 -6q-9 -1 -19.5 8.5t-15.5 17.5q-8 14 0.5 31t18.5 28q5 5 9.5 7.5
t9.5 6.5q2 2 0.5 4.5t3.5 4.5q5 3 10 1.5t10 -1.5q1 0 2 2t4 2q7 0 13 -3q8 -3 10 -7.5t4 -12.5zM194 410q2 3 -2 3t-7 2q2 -3 8 -5h1zM199 510q-2 3 6 5l-3 -3q-1 -1 -2 -1t-1 -1zM254 468l-4 -8q4 7 5 14q-1 -2 -1 -5v-1zM258 485q0 5 -1 1.5t-1 -7.5q0 2 2 6zM210 418
q2 1 4.5 3t5.5 4zM235 437q1 0 3 2zM233 435l2 1q-1 0 -2 -1zM218 518q-2 0 -2.5 -0.5t-1.5 -0.5q1 0 1.5 0.5t2.5 0.5z" />
    <glyph glyph-name="circumflex" unicode="&#x2c6;" horiz-adv-x="218" 
d="M196 513q2 -20 1.5 -41t-2.5 -41q-1 -11 -8.5 -22.5t-23.5 -5.5q-12 4 -18.5 17t-10 28t-4 30t-0.5 24q-11 -11 -20.5 -20t-19.5 -20q-11 -12 -26.5 -25.5t-30.5 -18.5q-13 -5 -13 2t6 17t14.5 20.5t11.5 13.5q11 12 24 27t27 29t29.5 25.5t32.5 16.5q17 7 25 -11
q2 -7 2 -13.5t1 -13.5q0 -2 -1 -5t0 -5q0 -2 2 -3t2 -5z" />
    <glyph glyph-name="caron" unicode="&#x2c7;" horiz-adv-x="220" 
d="M198 553q3 -1 -2.5 -9.5t-13.5 -19t-16.5 -20t-9.5 -10.5q-8 -9 -14.5 -18t-14.5 -18q-15 -14 -30 -27.5t-34 -22.5q-15 -8 -23 -4.5t-13 21.5q-6 21 -4.5 41.5t-0.5 41.5q-1 7 -1.5 16.5t0.5 18.5t5.5 16t13.5 10q16 5 25 -6.5t13 -29t5 -35.5t2 -26q5 8 13.5 13.5
t15.5 12.5q7 5 9.5 8.5t8.5 10.5q8 8 18 15.5t20 13.5q1 1 5.5 3t10 4t9 2.5t3.5 -2.5z" />
    <glyph glyph-name="grave" unicode="`" horiz-adv-x="162" 
d="M141 412q2 -13 -4 -13.5t-15 4.5t-17.5 12t-11.5 10q-15 13 -28.5 29.5t-30.5 27.5l-12 7.5t2 15.5q2 2 4 2.5t3 1.5q2 2 0.5 3.5t0.5 3.5q10 11 26 13q14 1 21 -3t14 -16q5 -11 11.5 -19t11.5 -19q5 -9 8 -18.5t6 -18.5q3 -6 6 -10t5 -12v-1v0z" />
    <glyph glyph-name="breve" unicode="&#x2d8;" horiz-adv-x="177" 
d="M134 475q4 -1 12.5 -5t9.5 -7q2 -5 -3.5 -12t-7.5 -11q-11 -15 -23.5 -23t-31.5 -10q-12 -2 -24 -1.5t-23 7.5q-11 6 -18 22t-3 29q3 7 9.5 11t15 4.5t16.5 -1t14 -4.5t7.5 -6t1 -6.5t-3 -7.5t-3.5 -10q-1 -11 3 -18.5t16 0.5q9 5 14 16.5t8 20.5q2 5 2.5 9t11.5 3z" />
    <glyph glyph-name="ring" unicode="&#x2da;" horiz-adv-x="175" 
d="M152 481q2 0 2 -3t-1 -7.5t-2 -8.5l-1 -4q-4 -9 -8.5 -17t-12.5 -15q-8 -8 -19 -14t-23 -8q-17 -2 -31 2.5t-23 13.5t-11.5 23t2.5 31q3 9 11.5 24.5t15.5 20.5q5 3 9.5 2t9.5 1q3 1 2.5 2.5t2.5 2.5q5 2 10 1.5t10 -0.5q12 -1 22.5 -3.5t19 -7.5t12.5 -14t3 -22z
M131 471q3 5 -0.5 17.5t-9.5 15.5q-4 2 -4 1t-3 -1q-13 -3 -17 -10t-9 -15q-2 -3 -5.5 -12t-6 -19t-2.5 -18t7 -8q0 4 2 5.5t5 1t6 -1.5t5 0q-2 5 6.5 9.5t11.5 8.5q4 5 7 12t7 14z" />
    <glyph glyph-name="acute" unicode="&#xb4;" horiz-adv-x="157" 
d="M136 493q2 -1 -2.5 -7t-11 -12.5t-13 -12.5t-7.5 -7q-11 -13 -26 -24.5t-28 -21.5q-3 -2 -11.5 -7.5t-13.5 -1.5q-4 3 -2.5 10.5t4.5 16.5t7 17.5t6 11.5l37 64q2 5 1.5 8t8.5 4q4 1 10.5 -0.5t7.5 -1.5q8 -2 15.5 -6t12.5 -12q2 -2 3 -9t2 -9z" />
    <glyph glyph-name="Agrave" unicode="&#xc0;" horiz-adv-x="522" 
d="M553 551q8 -12 3 -18t-10 -13q2 2 4 2q1 0 -2 -6t-7.5 -12.5t-9 -11.5t-5.5 -4l4 8q-23 -33 -39 -68.5t-30 -73.5q4 12 10.5 27.5t13 30t12 25t8.5 12.5q-3 -3 -10 -20t-15 -37t-14.5 -37t-7.5 -21q-11 -30 -18.5 -60.5t-12.5 -61.5q-5 -32 -8.5 -63t-7.5 -62
q-3 -25 -7 -51.5t-2 -49.5q0 8 2 12l1.5 -7t3.5 -15.5t4.5 -16.5t4.5 -9q2 -2 4.5 -0.5t4.5 1.5q7 1 14 6t13 12t11.5 13.5t9.5 11.5q5 6 13 19.5t16 16.5q13 6 13.5 -8t-5 -34.5t-13.5 -40t-12 -23.5q-12 -16 -25 -27t-35 -11q-36 0 -65 24q-24 22 -35 53t-13 62
q0 14 2 25.5t4 24.5q0 1 -0.5 7t-0.5 12t0.5 11t1.5 5q0 -1 0.5 -1.5t0.5 -1.5v5q-2 0 -2.5 9t-0.5 10q1 10 2.5 19t3.5 19q3 14 4.5 28t3.5 28q0 3 3 17.5t7.5 31t9 29.5t8.5 13q2 0 0.5 -3.5t-0.5 -4.5l8 28q-40 -65 -81 -129.5t-86 -127.5q-7 -9 -17 -23t-21.5 -26.5
t-24.5 -22t-26 -10.5q-12 -1 -24 4.5t-22 14.5t-18.5 19.5t-14.5 19.5q-3 3 -6 7q-2 3 -4.5 5.5t-2.5 4.5q0 -2 1.5 -3.5l3.5 -3.5q2 -3 5 -5l-12 21q1 -4 0.5 -3.5t-2 3l-3 5l-1.5 2.5q-5 9 -7 22q-4 13 -5 26t-1 26q1 27 7 53t11 52q5 27 13 52.5t19 50.5q1 2 6 14t11 25
t11.5 23.5t8.5 10.5q-1 -4 -2 -7l-2 -7q5 12 10.5 24t11.5 24q-4 -4 -5 -6t-2 -3q1 12 11 26t15 25l30 59q17 30 37.5 58t42.5 55q19 23 42.5 45t52.5 33q15 5 31 3.5t31 -4.5q28 -6 55 -23t48 -35q8 -8 20.5 -19t11.5 -24q0 -11 -10 -20.5t-18 -14.5q-19 -12 -26.5 -6.5
t-12.5 22.5q0 -1 1.5 -6t-0.5 -6q-1 0 -2.5 4.5t-3.5 11t-4 12t-2 7.5q-2 5 -3.5 9.5t-3.5 9.5q2 -4 4 -6l4 -4q-6 17 -16 24q-13 5 -38 -4q-17 -6 -31.5 -16t-27.5 -22q-36 -32 -63.5 -73t-50.5 -84q14 26 30.5 51t34.5 49q19 26 40 45q5 5 15 11.5t16 12.5
q-8 -10 -20.5 -19t-20.5 -17q-10 -11 -18.5 -22t-16.5 -22q-18 -25 -34 -51t-30 -53q-30 -57 -53.5 -117t-39.5 -123q-8 -29 -14 -58t-10 -58q0 -3 -1.5 -10.5t-2 -15t0.5 -14.5t5 -9q6 -3 15.5 3t20 15.5t18.5 19t11 12.5l34 36t32 36q-3 -3 -5.5 -6t-4.5 -2l6 9t13.5 20
t14 21t8.5 12l48 68q26 37 50.5 74.5t49.5 74.5q6 9 11 18.5t10 19.5q4 8 9 13.5t10 10.5t7.5 13.5t7.5 14.5q9 12 21 14.5t23.5 -1t22 -12t17.5 -18.5zM106 222q-3 -24 -6 -49t-5 -50v-4l2 18q2 25 6.5 49.5t10.5 49.5q12 49 27 98t33 97q17 45 37 87t45 83q12 21 28.5 43
t36.5 39q-23 -19 -41 -43.5t-31 -47.5q-23 -40 -44.5 -80t-39.5 -83q-21 -49 -36 -101.5t-23 -105.5zM330 69q-1 -15 -0.5 -29.5t2.5 -28.5q-1 8 -0.5 16.5t1.5 16.5l4 28l4 28q1 12 0.5 24.5t1.5 23.5q-2 -5 -3.5 -10t-3.5 -10q-4 -15 -5 -29t-1 -30zM181 422l-2 -5l2 3v2z
M338 696l-12 -9q3 2 6 4.5t6 4.5zM434 702l4 -8q-4 6 -4 8zM440 692q-2 0 -2 2l3 -3zM458 346l3 8zM465 813q2 -13 -4 -13.5t-15 4.5t-17.5 12t-11.5 10q-15 13 -28.5 29.5t-30.5 27.5l-12 7.5t2 15.5q2 2 4 2.5t3 1.5q2 2 0.5 3.5t0.5 3.5q10 11 26 13q14 1 21 -3t14 -16
q5 -11 11.5 -19t11.5 -19q5 -9 8 -18.5t6 -18.5q3 -6 6 -10t5 -12v-1z" />
    <glyph glyph-name="Aacute" unicode="&#xc1;" horiz-adv-x="522" 
d="M553 551q8 -12 3 -18t-10 -13q2 2 4 2q1 0 -2 -6t-7.5 -12.5t-9 -11.5t-5.5 -4l4 8q-23 -33 -39 -68.5t-30 -73.5q4 12 10.5 27.5t13 30t12 25t8.5 12.5q-3 -3 -10 -20t-15 -37t-14.5 -37t-7.5 -21q-11 -30 -18.5 -60.5t-12.5 -61.5q-5 -32 -8.5 -63t-7.5 -62
q-3 -25 -7 -51.5t-2 -49.5q0 8 2 12l1.5 -7t3.5 -15.5t4.5 -16.5t4.5 -9q2 -2 4.5 -0.5t4.5 1.5q7 1 14 6t13 12t11.5 13.5t9.5 11.5q5 6 13 19.5t16 16.5q13 6 13.5 -8t-5 -34.5t-13.5 -40t-12 -23.5q-12 -16 -25 -27t-35 -11q-36 0 -65 24q-24 22 -35 53t-13 62
q0 14 2 25.5t4 24.5q0 1 -0.5 7t-0.5 12t0.5 11t1.5 5q0 -1 0.5 -1.5t0.5 -1.5v5q-2 0 -2.5 9t-0.5 10q1 10 2.5 19t3.5 19q3 14 4.5 28t3.5 28q0 3 3 17.5t7.5 31t9 29.5t8.5 13q2 0 0.5 -3.5t-0.5 -4.5l8 28q-40 -65 -81 -129.5t-86 -127.5q-7 -9 -17 -23t-21.5 -26.5
t-24.5 -22t-26 -10.5q-12 -1 -24 4.5t-22 14.5t-18.5 19.5t-14.5 19.5q-3 3 -6 7q-2 3 -4.5 5.5t-2.5 4.5q0 -2 1.5 -3.5l3.5 -3.5q2 -3 5 -5l-12 21q1 -4 0.5 -3.5t-2 3l-3 5l-1.5 2.5q-5 9 -7 22q-4 13 -5 26t-1 26q1 27 7 53t11 52q5 27 13 52.5t19 50.5q1 2 6 14t11 25
t11.5 23.5t8.5 10.5q-1 -4 -2 -7l-2 -7q5 12 10.5 24t11.5 24q-4 -4 -5 -6t-2 -3q1 12 11 26t15 25l30 59q17 30 37.5 58t42.5 55q19 23 42.5 45t52.5 33q15 5 31 3.5t31 -4.5q28 -6 55 -23t48 -35q8 -8 20.5 -19t11.5 -24q0 -11 -10 -20.5t-18 -14.5q-19 -12 -26.5 -6.5
t-12.5 22.5q0 -1 1.5 -6t-0.5 -6q-1 0 -2.5 4.5t-3.5 11t-4 12t-2 7.5q-2 5 -3.5 9.5t-3.5 9.5q2 -4 4 -6l4 -4q-6 17 -16 24q-13 5 -38 -4q-17 -6 -31.5 -16t-27.5 -22q-36 -32 -63.5 -73t-50.5 -84q14 26 30.5 51t34.5 49q19 26 40 45q5 5 15 11.5t16 12.5
q-8 -10 -20.5 -19t-20.5 -17q-10 -11 -18.5 -22t-16.5 -22q-18 -25 -34 -51t-30 -53q-30 -57 -53.5 -117t-39.5 -123q-8 -29 -14 -58t-10 -58q0 -3 -1.5 -10.5t-2 -15t0.5 -14.5t5 -9q6 -3 15.5 3t20 15.5t18.5 19t11 12.5l34 36t32 36q-3 -3 -5.5 -6t-4.5 -2l6 9t13.5 20
t14 21t8.5 12l48 68q26 37 50.5 74.5t49.5 74.5q6 9 11 18.5t10 19.5q4 8 9 13.5t10 10.5t7.5 13.5t7.5 14.5q9 12 21 14.5t23.5 -1t22 -12t17.5 -18.5zM106 222q-3 -24 -6 -49t-5 -50v-4l2 18q2 25 6.5 49.5t10.5 49.5q12 49 27 98t33 97q17 45 37 87t45 83q12 21 28.5 43
t36.5 39q-23 -19 -41 -43.5t-31 -47.5q-23 -40 -44.5 -80t-39.5 -83q-21 -49 -36 -101.5t-23 -105.5zM330 69q-1 -15 -0.5 -29.5t2.5 -28.5q-1 8 -0.5 16.5t1.5 16.5l4 28l4 28q1 12 0.5 24.5t1.5 23.5q-2 -5 -3.5 -10t-3.5 -10q-4 -15 -5 -29t-1 -30zM181 422l-2 -5l2 3v2z
M338 696l-12 -9q3 2 6 4.5t6 4.5zM434 702l4 -8q-4 6 -4 8zM440 692q-2 0 -2 2l3 -3zM458 346l3 8zM531 914q2 -1 -2.5 -7t-11 -12.5t-13 -12.5t-7.5 -7q-11 -13 -26 -24.5t-28 -21.5q-3 -2 -11.5 -7.5t-13.5 -1.5q-4 3 -2.5 10.5t4.5 16.5t7 17.5t6 11.5l37 64q2 5 1.5 8
t8.5 4q4 1 10.5 -0.5t7.5 -1.5q8 -2 15.5 -6t12.5 -12q2 -2 3 -9t2 -9z" />
    <glyph glyph-name="Acircumflex" unicode="&#xc2;" horiz-adv-x="522" 
d="M553 551q8 -12 3 -18t-10 -13q2 2 4 2q1 0 -2 -6t-7.5 -12.5t-9 -11.5t-5.5 -4l4 8q-23 -33 -39 -68.5t-30 -73.5q4 12 10.5 27.5t13 30t12 25t8.5 12.5q-3 -3 -10 -20t-15 -37t-14.5 -37t-7.5 -21q-11 -30 -18.5 -60.5t-12.5 -61.5q-5 -32 -8.5 -63t-7.5 -62
q-3 -25 -7 -51.5t-2 -49.5q0 8 2 12l1.5 -7t3.5 -15.5t4.5 -16.5t4.5 -9q2 -2 4.5 -0.5t4.5 1.5q7 1 14 6t13 12t11.5 13.5t9.5 11.5q5 6 13 19.5t16 16.5q13 6 13.5 -8t-5 -34.5t-13.5 -40t-12 -23.5q-12 -16 -25 -27t-35 -11q-36 0 -65 24q-24 22 -35 53t-13 62
q0 14 2 25.5t4 24.5q0 1 -0.5 7t-0.5 12t0.5 11t1.5 5q0 -1 0.5 -1.5t0.5 -1.5v5q-2 0 -2.5 9t-0.5 10q1 10 2.5 19t3.5 19q3 14 4.5 28t3.5 28q0 3 3 17.5t7.5 31t9 29.5t8.5 13q2 0 0.5 -3.5t-0.5 -4.5l8 28q-40 -65 -81 -129.5t-86 -127.5q-7 -9 -17 -23t-21.5 -26.5
t-24.5 -22t-26 -10.5q-12 -1 -24 4.5t-22 14.5t-18.5 19.5t-14.5 19.5q-3 3 -6 7q-2 3 -4.5 5.5t-2.5 4.5q0 -2 1.5 -3.5l3.5 -3.5q2 -3 5 -5l-12 21q1 -4 0.5 -3.5t-2 3l-3 5l-1.5 2.5q-5 9 -7 22q-4 13 -5 26t-1 26q1 27 7 53t11 52q5 27 13 52.5t19 50.5q1 2 6 14t11 25
t11.5 23.5t8.5 10.5q-1 -4 -2 -7l-2 -7q5 12 10.5 24t11.5 24q-4 -4 -5 -6t-2 -3q1 12 11 26t15 25l30 59q17 30 37.5 58t42.5 55q19 23 42.5 45t52.5 33q15 5 31 3.5t31 -4.5q28 -6 55 -23t48 -35q8 -8 20.5 -19t11.5 -24q0 -11 -10 -20.5t-18 -14.5q-19 -12 -26.5 -6.5
t-12.5 22.5q0 -1 1.5 -6t-0.5 -6q-1 0 -2.5 4.5t-3.5 11t-4 12t-2 7.5q-2 5 -3.5 9.5t-3.5 9.5q2 -4 4 -6l4 -4q-6 17 -16 24q-13 5 -38 -4q-17 -6 -31.5 -16t-27.5 -22q-36 -32 -63.5 -73t-50.5 -84q14 26 30.5 51t34.5 49q19 26 40 45q5 5 15 11.5t16 12.5
q-8 -10 -20.5 -19t-20.5 -17q-10 -11 -18.5 -22t-16.5 -22q-18 -25 -34 -51t-30 -53q-30 -57 -53.5 -117t-39.5 -123q-8 -29 -14 -58t-10 -58q0 -3 -1.5 -10.5t-2 -15t0.5 -14.5t5 -9q6 -3 15.5 3t20 15.5t18.5 19t11 12.5l34 36t32 36q-3 -3 -5.5 -6t-4.5 -2l6 9t13.5 20
t14 21t8.5 12l48 68q26 37 50.5 74.5t49.5 74.5q6 9 11 18.5t10 19.5q4 8 9 13.5t10 10.5t7.5 13.5t7.5 14.5q9 12 21 14.5t23.5 -1t22 -12t17.5 -18.5zM106 222q-3 -24 -6 -49t-5 -50v-4l2 18q2 25 6.5 49.5t10.5 49.5q12 49 27 98t33 97q17 45 37 87t45 83q12 21 28.5 43
t36.5 39q-23 -19 -41 -43.5t-31 -47.5q-23 -40 -44.5 -80t-39.5 -83q-21 -49 -36 -101.5t-23 -105.5zM330 69q-1 -15 -0.5 -29.5t2.5 -28.5q-1 8 -0.5 16.5t1.5 16.5l4 28l4 28q1 12 0.5 24.5t1.5 23.5q-2 -5 -3.5 -10t-3.5 -10q-4 -15 -5 -29t-1 -30zM181 422l-2 -5l2 3v2z
M338 696l-12 -9q3 2 6 4.5t6 4.5zM434 702l4 -8q-4 6 -4 8zM440 692q-2 0 -2 2l3 -3zM458 346l3 8zM532 916q2 -20 1.5 -41t-2.5 -41q-1 -11 -8.5 -22.5t-23.5 -5.5q-12 4 -18.5 17t-10 28t-4 30t-0.5 24q-11 -11 -20.5 -20t-19.5 -20q-11 -12 -26.5 -25.5t-30.5 -18.5
q-13 -5 -13 2t6 17t14.5 20.5t11.5 13.5q11 12 24 27t27 29t29.5 25.5t32.5 16.5q17 7 25 -11q2 -7 2 -13.5t1 -13.5q0 -2 -1 -5t0 -5q0 -2 2 -3t2 -5z" />
    <glyph glyph-name="Atilde" unicode="&#xc3;" horiz-adv-x="522" 
d="M553 551q8 -12 3 -18t-10 -13q2 2 4 2q1 0 -2 -6t-7.5 -12.5t-9 -11.5t-5.5 -4l4 8q-23 -33 -39 -68.5t-30 -73.5q4 12 10.5 27.5t13 30t12 25t8.5 12.5q-3 -3 -10 -20t-15 -37t-14.5 -37t-7.5 -21q-11 -30 -18.5 -60.5t-12.5 -61.5q-5 -32 -8.5 -63t-7.5 -62
q-3 -25 -7 -51.5t-2 -49.5q0 8 2 12l1.5 -7t3.5 -15.5t4.5 -16.5t4.5 -9q2 -2 4.5 -0.5t4.5 1.5q7 1 14 6t13 12t11.5 13.5t9.5 11.5q5 6 13 19.5t16 16.5q13 6 13.5 -8t-5 -34.5t-13.5 -40t-12 -23.5q-12 -16 -25 -27t-35 -11q-36 0 -65 24q-24 22 -35 53t-13 62
q0 14 2 25.5t4 24.5q0 1 -0.5 7t-0.5 12t0.5 11t1.5 5q0 -1 0.5 -1.5t0.5 -1.5v5q-2 0 -2.5 9t-0.5 10q1 10 2.5 19t3.5 19q3 14 4.5 28t3.5 28q0 3 3 17.5t7.5 31t9 29.5t8.5 13q2 0 0.5 -3.5t-0.5 -4.5l8 28q-40 -65 -81 -129.5t-86 -127.5q-7 -9 -17 -23t-21.5 -26.5
t-24.5 -22t-26 -10.5q-12 -1 -24 4.5t-22 14.5t-18.5 19.5t-14.5 19.5q-3 3 -6 7q-2 3 -4.5 5.5t-2.5 4.5q0 -2 1.5 -3.5l3.5 -3.5q2 -3 5 -5l-12 21q1 -4 0.5 -3.5t-2 3l-3 5l-1.5 2.5q-5 9 -7 22q-4 13 -5 26t-1 26q1 27 7 53t11 52q5 27 13 52.5t19 50.5q1 2 6 14t11 25
t11.5 23.5t8.5 10.5q-1 -4 -2 -7l-2 -7q5 12 10.5 24t11.5 24q-4 -4 -5 -6t-2 -3q1 12 11 26t15 25l30 59q17 30 37.5 58t42.5 55q19 23 42.5 45t52.5 33q15 5 31 3.5t31 -4.5q28 -6 55 -23t48 -35q8 -8 20.5 -19t11.5 -24q0 -11 -10 -20.5t-18 -14.5q-19 -12 -26.5 -6.5
t-12.5 22.5q0 -1 1.5 -6t-0.5 -6q-1 0 -2.5 4.5t-3.5 11t-4 12t-2 7.5q-2 5 -3.5 9.5t-3.5 9.5q2 -4 4 -6l4 -4q-6 17 -16 24q-13 5 -38 -4q-17 -6 -31.5 -16t-27.5 -22q-36 -32 -63.5 -73t-50.5 -84q14 26 30.5 51t34.5 49q19 26 40 45q5 5 15 11.5t16 12.5
q-8 -10 -20.5 -19t-20.5 -17q-10 -11 -18.5 -22t-16.5 -22q-18 -25 -34 -51t-30 -53q-30 -57 -53.5 -117t-39.5 -123q-8 -29 -14 -58t-10 -58q0 -3 -1.5 -10.5t-2 -15t0.5 -14.5t5 -9q6 -3 15.5 3t20 15.5t18.5 19t11 12.5l34 36t32 36q-3 -3 -5.5 -6t-4.5 -2l6 9t13.5 20
t14 21t8.5 12l48 68q26 37 50.5 74.5t49.5 74.5q6 9 11 18.5t10 19.5q4 8 9 13.5t10 10.5t7.5 13.5t7.5 14.5q9 12 21 14.5t23.5 -1t22 -12t17.5 -18.5zM106 222q-3 -24 -6 -49t-5 -50v-4l2 18q2 25 6.5 49.5t10.5 49.5q12 49 27 98t33 97q17 45 37 87t45 83q12 21 28.5 43
t36.5 39q-23 -19 -41 -43.5t-31 -47.5q-23 -40 -44.5 -80t-39.5 -83q-21 -49 -36 -101.5t-23 -105.5zM330 69q-1 -15 -0.5 -29.5t2.5 -28.5q-1 8 -0.5 16.5t1.5 16.5l4 28l4 28q1 12 0.5 24.5t1.5 23.5q-2 -5 -3.5 -10t-3.5 -10q-4 -15 -5 -29t-1 -30zM181 422l-2 -5l2 3v2z
M338 696l-12 -9q3 2 6 4.5t6 4.5zM434 702l4 -8q-4 6 -4 8zM440 692q-2 0 -2 2l3 -3zM458 346l3 8zM559 876q1 1 3 4.5t4 5.5t5 2t7 -5q3 -5 2 -9.5t-4 -8.5t-7 -7.5t-5 -5.5q-5 -6 -9 -11t-12 -10q-13 -8 -28.5 -9.5t-28.5 1.5q-16 5 -30 13.5t-30 11.5q-10 2 -19 3.5
t-20 -1.5q-8 -2 -18.5 -9t-18.5 0q-12 9 -6 20t19 21t27.5 17t19.5 9q18 7 31 4.5t25 -10t24 -16.5t27 -15q11 -5 22 -4t20 9z" />
    <glyph glyph-name="Adieresis" unicode="&#xc4;" horiz-adv-x="522" 
d="M553 551q8 -12 3 -18t-10 -13q2 2 4 2q1 0 -2 -6t-7.5 -12.5t-9 -11.5t-5.5 -4l4 8q-23 -33 -39 -68.5t-30 -73.5q4 12 10.5 27.5t13 30t12 25t8.5 12.5q-3 -3 -10 -20t-15 -37t-14.5 -37t-7.5 -21q-11 -30 -18.5 -60.5t-12.5 -61.5q-5 -32 -8.5 -63t-7.5 -62
q-3 -25 -7 -51.5t-2 -49.5q0 8 2 12l1.5 -7t3.5 -15.5t4.5 -16.5t4.5 -9q2 -2 4.5 -0.5t4.5 1.5q7 1 14 6t13 12t11.5 13.5t9.5 11.5q5 6 13 19.5t16 16.5q13 6 13.5 -8t-5 -34.5t-13.5 -40t-12 -23.5q-12 -16 -25 -27t-35 -11q-36 0 -65 24q-24 22 -35 53t-13 62
q0 14 2 25.5t4 24.5q0 1 -0.5 7t-0.5 12t0.5 11t1.5 5q0 -1 0.5 -1.5t0.5 -1.5v5q-2 0 -2.5 9t-0.5 10q1 10 2.5 19t3.5 19q3 14 4.5 28t3.5 28q0 3 3 17.5t7.5 31t9 29.5t8.5 13q2 0 0.5 -3.5t-0.5 -4.5l8 28q-40 -65 -81 -129.5t-86 -127.5q-7 -9 -17 -23t-21.5 -26.5
t-24.5 -22t-26 -10.5q-12 -1 -24 4.5t-22 14.5t-18.5 19.5t-14.5 19.5q-3 3 -6 7q-2 3 -4.5 5.5t-2.5 4.5q0 -2 1.5 -3.5l3.5 -3.5q2 -3 5 -5l-12 21q1 -4 0.5 -3.5t-2 3l-3 5l-1.5 2.5q-5 9 -7 22q-4 13 -5 26t-1 26q1 27 7 53t11 52q5 27 13 52.5t19 50.5q1 2 6 14t11 25
t11.5 23.5t8.5 10.5q-1 -4 -2 -7l-2 -7q5 12 10.5 24t11.5 24q-4 -4 -5 -6t-2 -3q1 12 11 26t15 25l30 59q17 30 37.5 58t42.5 55q19 23 42.5 45t52.5 33q15 5 31 3.5t31 -4.5q28 -6 55 -23t48 -35q8 -8 20.5 -19t11.5 -24q0 -11 -10 -20.5t-18 -14.5q-19 -12 -26.5 -6.5
t-12.5 22.5q0 -1 1.5 -6t-0.5 -6q-1 0 -2.5 4.5t-3.5 11t-4 12t-2 7.5q-2 5 -3.5 9.5t-3.5 9.5q2 -4 4 -6l4 -4q-6 17 -16 24q-13 5 -38 -4q-17 -6 -31.5 -16t-27.5 -22q-36 -32 -63.5 -73t-50.5 -84q14 26 30.5 51t34.5 49q19 26 40 45q5 5 15 11.5t16 12.5
q-8 -10 -20.5 -19t-20.5 -17q-10 -11 -18.5 -22t-16.5 -22q-18 -25 -34 -51t-30 -53q-30 -57 -53.5 -117t-39.5 -123q-8 -29 -14 -58t-10 -58q0 -3 -1.5 -10.5t-2 -15t0.5 -14.5t5 -9q6 -3 15.5 3t20 15.5t18.5 19t11 12.5l34 36t32 36q-3 -3 -5.5 -6t-4.5 -2l6 9t13.5 20
t14 21t8.5 12l48 68q26 37 50.5 74.5t49.5 74.5q6 9 11 18.5t10 19.5q4 8 9 13.5t10 10.5t7.5 13.5t7.5 14.5q9 12 21 14.5t23.5 -1t22 -12t17.5 -18.5zM106 222q-3 -24 -6 -49t-5 -50v-4l2 18q2 25 6.5 49.5t10.5 49.5q12 49 27 98t33 97q17 45 37 87t45 83q12 21 28.5 43
t36.5 39q-23 -19 -41 -43.5t-31 -47.5q-23 -40 -44.5 -80t-39.5 -83q-21 -49 -36 -101.5t-23 -105.5zM330 69q-1 -15 -0.5 -29.5t2.5 -28.5q-1 8 -0.5 16.5t1.5 16.5l4 28l4 28q1 12 0.5 24.5t1.5 23.5q-2 -5 -3.5 -10t-3.5 -10q-4 -15 -5 -29t-1 -30zM181 422l-2 -5l2 3v2z
M338 696l-12 -9q3 2 6 4.5t6 4.5zM434 702l4 -8q-4 6 -4 8zM440 692q-2 0 -2 2l3 -3zM458 346l3 8zM579 894q1 -4 2 -13t-1 -13h-1q-2 -11 -7.5 -19.5t-13.5 -16.5q8 6 9 6q1 -1 -4 -5.5t-11.5 -10t-13 -10t-7.5 -5.5q-6 -4 -9.5 -5.5t-10.5 -0.5q-1 0 -4.5 2t-7 4.5t-6 4.5
t-1.5 3t3 0q-1 1 -5 4.5t-3 1.5q4 -5 4 -5.5t-1.5 1l-4 4t-2.5 3.5q-2 6 -3.5 9.5t-0.5 11.5q1 12 6.5 21.5t14.5 17.5q6 6 18 13.5t24 10.5t22 -0.5t13 -18.5q-2 16 -14 20t-25 1q14 5 24 2t17 -18zM439 905q4 0 3.5 -5t-2.5 -11.5t-4.5 -12.5t-2.5 -7q-5 -12 -11 -21
t-18 -17q-5 -3 -12.5 -9t-12.5 -6q-9 -1 -19.5 8.5t-15.5 17.5q-8 14 0.5 31t18.5 28q5 5 9.5 7.5t9.5 6.5q2 2 0.5 4.5t3.5 4.5q5 3 10 1.5t10 -1.5q1 0 2 2t4 2q7 0 13 -3q8 -3 10 -7.5t4 -12.5zM514 802q2 3 -2 3t-7 2q2 -3 8 -5h1zM519 902q-2 3 6 5l-3 -3q-1 -1 -2 -1
t-1 -1zM574 860l-4 -8q4 7 5 14q-1 -2 -1 -5v-1zM578 877q0 5 -1 1.5t-1 -7.5q0 2 2 6zM530 810q2 1 4.5 3t5.5 4zM555 829q1 0 3 2zM553 827l2 1q-1 0 -2 -1zM538 910q-2 0 -2.5 -0.5t-1.5 -0.5q1 0 1.5 0.5t2.5 0.5z" />
    <glyph glyph-name="Aring" unicode="&#xc5;" horiz-adv-x="522" 
d="M553 551q8 -12 3 -18t-10 -13q2 2 4 2q1 0 -2 -6t-7.5 -12.5t-9 -11.5t-5.5 -4l4 8q-23 -33 -39 -68.5t-30 -73.5q4 12 10.5 27.5t13 30t12 25t8.5 12.5q-3 -3 -10 -20t-15 -37t-14.5 -37t-7.5 -21q-11 -30 -18.5 -60.5t-12.5 -61.5q-5 -32 -8.5 -63t-7.5 -62
q-3 -25 -7 -51.5t-2 -49.5q0 8 2 12l1.5 -7t3.5 -15.5t4.5 -16.5t4.5 -9q2 -2 4.5 -0.5t4.5 1.5q7 1 14 6t13 12t11.5 13.5t9.5 11.5q5 6 13 19.5t16 16.5q13 6 13.5 -8t-5 -34.5t-13.5 -40t-12 -23.5q-12 -16 -25 -27t-35 -11q-36 0 -65 24q-24 22 -35 53t-13 62
q0 14 2 25.5t4 24.5q0 1 -0.5 7t-0.5 12t0.5 11t1.5 5q0 -1 0.5 -1.5t0.5 -1.5v5q-2 0 -2.5 9t-0.5 10q1 10 2.5 19t3.5 19q3 14 4.5 28t3.5 28q0 3 3 17.5t7.5 31t9 29.5t8.5 13q2 0 0.5 -3.5t-0.5 -4.5l8 28q-40 -65 -81 -129.5t-86 -127.5q-7 -9 -17 -23t-21.5 -26.5
t-24.5 -22t-26 -10.5q-12 -1 -24 4.5t-22 14.5t-18.5 19.5t-14.5 19.5q-3 3 -6 7q-2 3 -4.5 5.5t-2.5 4.5q0 -2 1.5 -3.5l3.5 -3.5q2 -3 5 -5l-12 21q1 -4 0.5 -3.5t-2 3l-3 5l-1.5 2.5q-5 9 -7 22q-4 13 -5 26t-1 26q1 27 7 53t11 52q5 27 13 52.5t19 50.5q1 2 6 14t11 25
t11.5 23.5t8.5 10.5q-1 -4 -2 -7l-2 -7q5 12 10.5 24t11.5 24q-4 -4 -5 -6t-2 -3q1 12 11 26t15 25l30 59q17 30 37.5 58t42.5 55q19 23 42.5 45t52.5 33q15 5 31 3.5t31 -4.5q28 -6 55 -23t48 -35q8 -8 20.5 -19t11.5 -24q0 -11 -10 -20.5t-18 -14.5q-19 -12 -26.5 -6.5
t-12.5 22.5q0 -1 1.5 -6t-0.5 -6q-1 0 -2.5 4.5t-3.5 11t-4 12t-2 7.5q-2 5 -3.5 9.5t-3.5 9.5q2 -4 4 -6l4 -4q-6 17 -16 24q-13 5 -38 -4q-17 -6 -31.5 -16t-27.5 -22q-36 -32 -63.5 -73t-50.5 -84q14 26 30.5 51t34.5 49q19 26 40 45q5 5 15 11.5t16 12.5
q-8 -10 -20.5 -19t-20.5 -17q-10 -11 -18.5 -22t-16.5 -22q-18 -25 -34 -51t-30 -53q-30 -57 -53.5 -117t-39.5 -123q-8 -29 -14 -58t-10 -58q0 -3 -1.5 -10.5t-2 -15t0.5 -14.5t5 -9q6 -3 15.5 3t20 15.5t18.5 19t11 12.5l34 36t32 36q-3 -3 -5.5 -6t-4.5 -2l6 9t13.5 20
t14 21t8.5 12l48 68q26 37 50.5 74.5t49.5 74.5q6 9 11 18.5t10 19.5q4 8 9 13.5t10 10.5t7.5 13.5t7.5 14.5q9 12 21 14.5t23.5 -1t22 -12t17.5 -18.5zM106 222q-3 -24 -6 -49t-5 -50v-4l2 18q2 25 6.5 49.5t10.5 49.5q12 49 27 98t33 97q17 45 37 87t45 83q12 21 28.5 43
t36.5 39q-23 -19 -41 -43.5t-31 -47.5q-23 -40 -44.5 -80t-39.5 -83q-21 -49 -36 -101.5t-23 -105.5zM330 69q-1 -15 -0.5 -29.5t2.5 -28.5q-1 8 -0.5 16.5t1.5 16.5l4 28l4 28q1 12 0.5 24.5t1.5 23.5q-2 -5 -3.5 -10t-3.5 -10q-4 -15 -5 -29t-1 -30zM181 422l-2 -5l2 3v2z
M338 696l-12 -9q3 2 6 4.5t6 4.5zM434 702l4 -8q-4 6 -4 8zM440 692q-2 0 -2 2l3 -3zM458 346l3 8zM526 893q2 0 2 -3t-1 -7.5t-2 -8.5l-1 -4q-4 -9 -8.5 -17t-12.5 -15q-8 -8 -19 -14t-23 -8q-17 -2 -31 2.5t-23 13.5t-11.5 23t2.5 31q3 9 11.5 24.5t15.5 20.5q5 3 9.5 2
t9.5 1q3 1 2.5 2.5t2.5 2.5q5 2 10 1.5t10 -0.5q12 -1 22.5 -3.5t19 -7.5t12.5 -14t3 -22zM505 883q3 5 -0.5 17.5t-9.5 15.5q-4 2 -4 1t-3 -1q-13 -3 -17 -10t-9 -15q-2 -3 -5.5 -12t-6 -19t-2.5 -18t7 -8q0 4 2 5.5t5 1t6 -1.5t5 0q-2 5 6.5 9.5t11.5 8.5q4 5 7 12t7 14z
" />
    <glyph glyph-name="Ccedilla" unicode="&#xc7;" horiz-adv-x="499" 
d="M94 80q0 -1 -0.5 -1t-0.5 -1v-1q-4 -23 -5 -44.5t0 -44.5l3 -6q2 -6 2 -13q5 -2 8.5 -11.5t7.5 -13.5q7 -7 15 -9.5t17 -3.5q14 0 26 3q46 11 83.5 41.5t67.5 63.5q59 64 104 137l3.5 7t5.5 10t6.5 8.5t7.5 3.5t6 -6t2 -13.5t-1 -14t-1 -9.5q-5 -38 -19.5 -74t-36 -68.5
t-48 -61t-54.5 -52.5q-20 -16 -44.5 -33t-50.5 -19q-23 -2 -45.5 8.5t-40.5 21.5q-35 20 -63.5 51t-41.5 69q-10 28 -7 57t7 58q1 2 0 12t2 14q-1 -1 -1 -4v-6v-9q1 5 1 11.5t2 11.5q-1 -1 -1 1v5t0.5 6l0.5 3q1 7 2 13t3 13q3 14 7 28t9 28q9 29 20 57t20 57q8 26 19.5 51
t25.5 50q2 3 9.5 18t16.5 31t17.5 28.5t11.5 11.5q-1 -3 -3 -7q-4 -8 -3 -8q8 13 15.5 26t15.5 26q-2 -2 -3 -3.5t-3 -3.5l-3 -3q3 10 12.5 21.5t15.5 19.5q5 9 11 17.5t12 17.5q28 41 59 76l24 24t28 24.5t31 19t33 8.5q30 2 54 -11.5t40.5 -35.5t25.5 -49.5t9 -52.5v-1
q0 -27 -7.5 -55.5t-25.5 -48.5q-17 -19 -45.5 -37t-54.5 -21q-6 -1 -14 -1t-6 9q0 2 7 7h-1q2 1 8.5 13t13.5 26t13.5 25t9.5 11l-6 -14q-2 -6 -5 -12l-4 -8q13 24 24.5 48t21.5 50q3 7 6.5 17t5.5 20.5t2.5 20.5t-2.5 18q-5 10 -13 12t-17.5 -0.5t-18.5 -7l-15 -7.5l-14 -8
l5 2q-8 -5 -12 -9q9 7 17 10q5 3 12.5 8t16 8t17 3.5t14.5 -3.5q9 -8 8.5 -18t-4.5 -21q3 14 1.5 26t-15.5 14t-24.5 -5.5t-21.5 -10.5q-35 -23 -62 -56.5t-50 -67.5q-26 -37 -48 -76t-42 -80q-21 -43 -37.5 -87t-33.5 -89q-16 -43 -30.5 -86t-22.5 -88v-5q0 -1 -1 -2z
M270 569q12 20 27 43t32 44q-43 -47 -78.5 -101.5t-62.5 -112.5q-45 -96 -76 -195q11 32 25 63t28 61q25 51 50.5 100.5t54.5 97.5zM373 679q5 5 11.5 12t13.5 13q-19 -15 -34.5 -33t-29.5 -37q9 11 18.5 22.5t20.5 22.5zM475 671q0 -2 -1 -4q0 5 2 11.5t4 13.5
q-1 -10 -5 -21zM167 -191q1 -18 -6.5 -31.5t-20 -22.5t-28 -14t-30.5 -6q-9 0 -13.5 0.5t-9.5 8.5q-3 4 -4.5 11.5t-1.5 16t1.5 16t4.5 10.5q6 6 8.5 3t8.5 -4h11.5t18 0.5t17 2.5t8.5 5q1 6 -3.5 9t-11 4t-13 0.5t-9.5 -0.5q-12 0 -14.5 4.5t0 11.5t7.5 15t9 15q2 5 6.5 16
t9.5 13q2 1 10 -2.5t9 -4.5q3 -6 -3 -15t-8 -13q7 2 15 -2.5t15 -12.5t11.5 -17t5.5 -15l-1 1q0 -1 1 -2v-1z" />
    <glyph glyph-name="Egrave" unicode="&#xc8;" horiz-adv-x="465" 
d="M696 730q1 -7 -5 -12t-14.5 -8t-17 -5t-12.5 -3q-7 -2 -13.5 -2t-12.5 -2q-4 3 -10 0q1 -3 -1 -5q-13 -6 -27.5 -10t-28.5 -6q-15 -3 -30 -7t-30 -6q-6 -1 -12.5 -1.5t-12.5 -2.5q-8 -2 -9 -3.5t-6 -3.5q-14 -5 -27.5 -6t-27.5 -3q-8 -2 -15.5 -4t-15.5 -4l-18 -3
q0 -4 -4 -8q0 5 2 8q-2 0 -5 -6.5t-6 -15t-5 -16t-3 -9.5l-21 -53q-8 -20 -15 -38.5t-14 -38.5q9 25 19.5 52t17.5 43q-8 -19 -21 -54t-25.5 -70.5t-23 -64t-12.5 -34.5q33 4 66 6.5t65 6.5l34 4t34 3h13q2 1 4 3.5t4 1.5q9 -3 8 -9t-7 -11q-10 -8 -24 -8t-25 -3
q-6 -2 -6 -3.5t-7 -4.5q-7 -5 -17 -6t-18 -3q-14 -2 -28 -4.5t-28 -4.5q-11 -2 -18 -6t-20 -6q-10 -2 -25.5 -2t-23.5 -6q-5 -4 -8.5 -19t-5.5 -21l-12 -37q-11 -37 -23.5 -72.5t-25.5 -71.5q-8 -20 -14.5 -39t-13.5 -39q-5 -14 -10 -26t-6 -26q0 -1 0.5 1.5t1.5 6.5
t2.5 6.5t2.5 1.5q2 -2 0.5 -9t-0.5 -10q33 6 66.5 24.5t62.5 34.5q29 15 56.5 31.5t56.5 31.5q14 7 20 3.5t0 -19.5q-5 -14 -17.5 -27.5t-23.5 -24.5q-17 -15 -33 -30t-34 -29t-39.5 -29t-45 -26t-48 -14.5t-48.5 6.5q-15 6 -29 15.5t-25 22.5t-17.5 28.5t-4.5 32.5
q2 14 8.5 25t13.5 23q1 2 3 9t4 15.5t4.5 15t4.5 6.5q-1 -2 -2 -5q-2 -6 -2 -8l5 15q-1 1 1 8.5t2 9.5l11 28q5 14 10.5 26.5t10.5 26.5q11 26 18 53t18 53q-10 0 -21.5 6t-19 14.5t-7 18t14.5 15.5q2 0 2 1q10 3 21.5 3t21.5 1q5 1 9 2.5t8 2.5q1 0 1.5 4t2.5 3q0 -2 -1 -4
q-1 -1 -1 -3q0 -1 -1 -2q4 1 8.5 15.5t6.5 22.5q-1 -3 -5 -9l6.5 18t15.5 45.5t20 60t20.5 62t16.5 51t9 27.5q-12 -2 -28 -1.5t-29.5 5.5t-22 15.5t-6.5 27.5q1 15 18 21q10 4 24.5 4t29.5 0.5t27.5 3.5t18.5 12q5 7 6 14.5t2.5 14.5t5 12.5t12.5 8.5q13 5 28 -0.5
t26 -13.5q6 -5 10 -10t9 -10q3 -5 3 -10l19 3q35 4 69 6.5t69 7.5q32 4 65 8t66 5h8.5t7.5 1q2 0 4.5 2t3.5 2q4 0 7.5 -1t4.5 -7zM185 374q12 28 20 59t17 59q-8 -20 -16 -38.5t-14 -38.5l-47 -129q10 23 20 44t20 44zM243 360l-13 -32q6 0 4 8zM322 564q0 -1 -0.5 -1.5
t-0.5 -1.5v1q0 1 0.5 1t0.5 1zM322 564l2 2zM316 551l3 7zM451 791q2 -13 -4 -13.5t-15 4.5t-17.5 12t-11.5 10q-15 13 -28.5 29.5t-30.5 27.5l-12 7.5t2 15.5q2 2 4 2.5t3 1.5q2 2 0.5 3.5t0.5 3.5q10 11 26 13q14 1 21 -3t14 -16q5 -11 11.5 -19t11.5 -19q5 -9 8 -18.5
t6 -18.5q3 -6 6 -10t5 -12v-1z" />
    <glyph glyph-name="Eacute" unicode="&#xc9;" horiz-adv-x="465" 
d="M696 730q1 -7 -5 -12t-14.5 -8t-17 -5t-12.5 -3q-7 -2 -13.5 -2t-12.5 -2q-4 3 -10 0q1 -3 -1 -5q-13 -6 -27.5 -10t-28.5 -6q-15 -3 -30 -7t-30 -6q-6 -1 -12.5 -1.5t-12.5 -2.5q-8 -2 -9 -3.5t-6 -3.5q-14 -5 -27.5 -6t-27.5 -3q-8 -2 -15.5 -4t-15.5 -4l-18 -3
q0 -4 -4 -8q0 5 2 8q-2 0 -5 -6.5t-6 -15t-5 -16t-3 -9.5l-21 -53q-8 -20 -15 -38.5t-14 -38.5q9 25 19.5 52t17.5 43q-8 -19 -21 -54t-25.5 -70.5t-23 -64t-12.5 -34.5q33 4 66 6.5t65 6.5l34 4t34 3h13q2 1 4 3.5t4 1.5q9 -3 8 -9t-7 -11q-10 -8 -24 -8t-25 -3
q-6 -2 -6 -3.5t-7 -4.5q-7 -5 -17 -6t-18 -3q-14 -2 -28 -4.5t-28 -4.5q-11 -2 -18 -6t-20 -6q-10 -2 -25.5 -2t-23.5 -6q-5 -4 -8.5 -19t-5.5 -21l-12 -37q-11 -37 -23.5 -72.5t-25.5 -71.5q-8 -20 -14.5 -39t-13.5 -39q-5 -14 -10 -26t-6 -26q0 -1 0.5 1.5t1.5 6.5
t2.5 6.5t2.5 1.5q2 -2 0.5 -9t-0.5 -10q33 6 66.5 24.5t62.5 34.5q29 15 56.5 31.5t56.5 31.5q14 7 20 3.5t0 -19.5q-5 -14 -17.5 -27.5t-23.5 -24.5q-17 -15 -33 -30t-34 -29t-39.5 -29t-45 -26t-48 -14.5t-48.5 6.5q-15 6 -29 15.5t-25 22.5t-17.5 28.5t-4.5 32.5
q2 14 8.5 25t13.5 23q1 2 3 9t4 15.5t4.5 15t4.5 6.5q-1 -2 -2 -5q-2 -6 -2 -8l5 15q-1 1 1 8.5t2 9.5l11 28q5 14 10.5 26.5t10.5 26.5q11 26 18 53t18 53q-10 0 -21.5 6t-19 14.5t-7 18t14.5 15.5q2 0 2 1q10 3 21.5 3t21.5 1q5 1 9 2.5t8 2.5q1 0 1.5 4t2.5 3q0 -2 -1 -4
q-1 -1 -1 -3q0 -1 -1 -2q4 1 8.5 15.5t6.5 22.5q-1 -3 -5 -9l6.5 18t15.5 45.5t20 60t20.5 62t16.5 51t9 27.5q-12 -2 -28 -1.5t-29.5 5.5t-22 15.5t-6.5 27.5q1 15 18 21q10 4 24.5 4t29.5 0.5t27.5 3.5t18.5 12q5 7 6 14.5t2.5 14.5t5 12.5t12.5 8.5q13 5 28 -0.5
t26 -13.5q6 -5 10 -10t9 -10q3 -5 3 -10l19 3q35 4 69 6.5t69 7.5q32 4 65 8t66 5h8.5t7.5 1q2 0 4.5 2t3.5 2q4 0 7.5 -1t4.5 -7zM185 374q12 28 20 59t17 59q-8 -20 -16 -38.5t-14 -38.5l-47 -129q10 23 20 44t20 44zM243 360l-13 -32q6 0 4 8zM322 564q0 -1 -0.5 -1.5
t-0.5 -1.5v1q0 1 0.5 1t0.5 1zM322 564l2 2zM316 551l3 7zM517 869q2 -1 -2.5 -7t-11 -12.5t-13 -12.5t-7.5 -7q-11 -13 -26 -24.5t-28 -21.5q-3 -2 -11.5 -7.5t-13.5 -1.5q-4 3 -2.5 10.5t4.5 16.5t7 17.5t6 11.5l37 64q2 5 1.5 8t8.5 4q4 1 10.5 -0.5t7.5 -1.5
q8 -2 15.5 -6t12.5 -12q2 -2 3 -9t2 -9z" />
    <glyph glyph-name="Ecircumflex" unicode="&#xca;" horiz-adv-x="465" 
d="M696 730q1 -7 -5 -12t-14.5 -8t-17 -5t-12.5 -3q-7 -2 -13.5 -2t-12.5 -2q-4 3 -10 0q1 -3 -1 -5q-13 -6 -27.5 -10t-28.5 -6q-15 -3 -30 -7t-30 -6q-6 -1 -12.5 -1.5t-12.5 -2.5q-8 -2 -9 -3.5t-6 -3.5q-14 -5 -27.5 -6t-27.5 -3q-8 -2 -15.5 -4t-15.5 -4l-18 -3
q0 -4 -4 -8q0 5 2 8q-2 0 -5 -6.5t-6 -15t-5 -16t-3 -9.5l-21 -53q-8 -20 -15 -38.5t-14 -38.5q9 25 19.5 52t17.5 43q-8 -19 -21 -54t-25.5 -70.5t-23 -64t-12.5 -34.5q33 4 66 6.5t65 6.5l34 4t34 3h13q2 1 4 3.5t4 1.5q9 -3 8 -9t-7 -11q-10 -8 -24 -8t-25 -3
q-6 -2 -6 -3.5t-7 -4.5q-7 -5 -17 -6t-18 -3q-14 -2 -28 -4.5t-28 -4.5q-11 -2 -18 -6t-20 -6q-10 -2 -25.5 -2t-23.5 -6q-5 -4 -8.5 -19t-5.5 -21l-12 -37q-11 -37 -23.5 -72.5t-25.5 -71.5q-8 -20 -14.5 -39t-13.5 -39q-5 -14 -10 -26t-6 -26q0 -1 0.5 1.5t1.5 6.5
t2.5 6.5t2.5 1.5q2 -2 0.5 -9t-0.5 -10q33 6 66.5 24.5t62.5 34.5q29 15 56.5 31.5t56.5 31.5q14 7 20 3.5t0 -19.5q-5 -14 -17.5 -27.5t-23.5 -24.5q-17 -15 -33 -30t-34 -29t-39.5 -29t-45 -26t-48 -14.5t-48.5 6.5q-15 6 -29 15.5t-25 22.5t-17.5 28.5t-4.5 32.5
q2 14 8.5 25t13.5 23q1 2 3 9t4 15.5t4.5 15t4.5 6.5q-1 -2 -2 -5q-2 -6 -2 -8l5 15q-1 1 1 8.5t2 9.5l11 28q5 14 10.5 26.5t10.5 26.5q11 26 18 53t18 53q-10 0 -21.5 6t-19 14.5t-7 18t14.5 15.5q2 0 2 1q10 3 21.5 3t21.5 1q5 1 9 2.5t8 2.5q1 0 1.5 4t2.5 3q0 -2 -1 -4
q-1 -1 -1 -3q0 -1 -1 -2q4 1 8.5 15.5t6.5 22.5q-1 -3 -5 -9l6.5 18t15.5 45.5t20 60t20.5 62t16.5 51t9 27.5q-12 -2 -28 -1.5t-29.5 5.5t-22 15.5t-6.5 27.5q1 15 18 21q10 4 24.5 4t29.5 0.5t27.5 3.5t18.5 12q5 7 6 14.5t2.5 14.5t5 12.5t12.5 8.5q13 5 28 -0.5
t26 -13.5q6 -5 10 -10t9 -10q3 -5 3 -10l19 3q35 4 69 6.5t69 7.5q32 4 65 8t66 5h8.5t7.5 1q2 0 4.5 2t3.5 2q4 0 7.5 -1t4.5 -7zM185 374q12 28 20 59t17 59q-8 -20 -16 -38.5t-14 -38.5l-47 -129q10 23 20 44t20 44zM243 360l-13 -32q6 0 4 8zM322 564q0 -1 -0.5 -1.5
t-0.5 -1.5v1q0 1 0.5 1t0.5 1zM322 564l2 2zM316 551l3 7zM498 901q2 -20 1.5 -41t-2.5 -41q-1 -11 -8.5 -22.5t-23.5 -5.5q-12 4 -18.5 17t-10 28t-4 30t-0.5 24q-11 -11 -20.5 -20t-19.5 -20q-11 -12 -26.5 -25.5t-30.5 -18.5q-13 -5 -13 2t6 17t14.5 20.5t11.5 13.5
q11 12 24 27t27 29t29.5 25.5t32.5 16.5q17 7 25 -11q2 -7 2 -13.5t1 -13.5q0 -2 -1 -5t0 -5q0 -2 2 -3t2 -5z" />
    <glyph glyph-name="Edieresis" unicode="&#xcb;" horiz-adv-x="465" 
d="M696 730q1 -7 -5 -12t-14.5 -8t-17 -5t-12.5 -3q-7 -2 -13.5 -2t-12.5 -2q-4 3 -10 0q1 -3 -1 -5q-13 -6 -27.5 -10t-28.5 -6q-15 -3 -30 -7t-30 -6q-6 -1 -12.5 -1.5t-12.5 -2.5q-8 -2 -9 -3.5t-6 -3.5q-14 -5 -27.5 -6t-27.5 -3q-8 -2 -15.5 -4t-15.5 -4l-18 -3
q0 -4 -4 -8q0 5 2 8q-2 0 -5 -6.5t-6 -15t-5 -16t-3 -9.5l-21 -53q-8 -20 -15 -38.5t-14 -38.5q9 25 19.5 52t17.5 43q-8 -19 -21 -54t-25.5 -70.5t-23 -64t-12.5 -34.5q33 4 66 6.5t65 6.5l34 4t34 3h13q2 1 4 3.5t4 1.5q9 -3 8 -9t-7 -11q-10 -8 -24 -8t-25 -3
q-6 -2 -6 -3.5t-7 -4.5q-7 -5 -17 -6t-18 -3q-14 -2 -28 -4.5t-28 -4.5q-11 -2 -18 -6t-20 -6q-10 -2 -25.5 -2t-23.5 -6q-5 -4 -8.5 -19t-5.5 -21l-12 -37q-11 -37 -23.5 -72.5t-25.5 -71.5q-8 -20 -14.5 -39t-13.5 -39q-5 -14 -10 -26t-6 -26q0 -1 0.5 1.5t1.5 6.5
t2.5 6.5t2.5 1.5q2 -2 0.5 -9t-0.5 -10q33 6 66.5 24.5t62.5 34.5q29 15 56.5 31.5t56.5 31.5q14 7 20 3.5t0 -19.5q-5 -14 -17.5 -27.5t-23.5 -24.5q-17 -15 -33 -30t-34 -29t-39.5 -29t-45 -26t-48 -14.5t-48.5 6.5q-15 6 -29 15.5t-25 22.5t-17.5 28.5t-4.5 32.5
q2 14 8.5 25t13.5 23q1 2 3 9t4 15.5t4.5 15t4.5 6.5q-1 -2 -2 -5q-2 -6 -2 -8l5 15q-1 1 1 8.5t2 9.5l11 28q5 14 10.5 26.5t10.5 26.5q11 26 18 53t18 53q-10 0 -21.5 6t-19 14.5t-7 18t14.5 15.5q2 0 2 1q10 3 21.5 3t21.5 1q5 1 9 2.5t8 2.5q1 0 1.5 4t2.5 3q0 -2 -1 -4
q-1 -1 -1 -3q0 -1 -1 -2q4 1 8.5 15.5t6.5 22.5q-1 -3 -5 -9l6.5 18t15.5 45.5t20 60t20.5 62t16.5 51t9 27.5q-12 -2 -28 -1.5t-29.5 5.5t-22 15.5t-6.5 27.5q1 15 18 21q10 4 24.5 4t29.5 0.5t27.5 3.5t18.5 12q5 7 6 14.5t2.5 14.5t5 12.5t12.5 8.5q13 5 28 -0.5
t26 -13.5q6 -5 10 -10t9 -10q3 -5 3 -10l19 3q35 4 69 6.5t69 7.5q32 4 65 8t66 5h8.5t7.5 1q2 0 4.5 2t3.5 2q4 0 7.5 -1t4.5 -7zM185 374q12 28 20 59t17 59q-8 -20 -16 -38.5t-14 -38.5l-47 -129q10 23 20 44t20 44zM243 360l-13 -32q6 0 4 8zM322 564q0 -1 -0.5 -1.5
t-0.5 -1.5v1q0 1 0.5 1t0.5 1zM322 564l2 2zM316 551l3 7zM577 881q1 -4 2 -13t-1 -13h-1q-2 -11 -7.5 -19.5t-13.5 -16.5q8 6 9 6q1 -1 -4 -5.5t-11.5 -10t-13 -10t-7.5 -5.5q-6 -4 -9.5 -5.5t-10.5 -0.5q-1 0 -4.5 2t-7 4.5t-6 4.5t-1.5 3t3 0q-1 1 -5 4.5t-3 1.5
q4 -5 4 -5.5t-1.5 1l-4 4t-2.5 3.5q-2 6 -3.5 9.5t-0.5 11.5q1 12 6.5 21.5t14.5 17.5q6 6 18 13.5t24 10.5t22 -0.5t13 -18.5q-2 16 -14 20t-25 1q14 5 24 2t17 -18zM437 892q4 0 3.5 -5t-2.5 -11.5t-4.5 -12.5t-2.5 -7q-5 -12 -11 -21t-18 -17q-5 -3 -12.5 -9t-12.5 -6
q-9 -1 -19.5 8.5t-15.5 17.5q-8 14 0.5 31t18.5 28q5 5 9.5 7.5t9.5 6.5q2 2 0.5 4.5t3.5 4.5q5 3 10 1.5t10 -1.5q1 0 2 2t4 2q7 0 13 -3q8 -3 10 -7.5t4 -12.5zM512 789q2 3 -2 3t-7 2q2 -3 8 -5h1zM517 889q-2 3 6 5l-3 -3q-1 -1 -2 -1t-1 -1zM572 847l-4 -8q4 7 5 14
q-1 -2 -1 -5v-1zM576 864q0 5 -1 1.5t-1 -7.5q0 2 2 6zM528 797q2 1 4.5 3t5.5 4zM553 816q1 0 3 2zM551 814l2 1q-1 0 -2 -1zM536 897q-2 0 -2.5 -0.5t-1.5 -0.5q1 0 1.5 0.5t2.5 0.5z" />
    <glyph glyph-name="Igrave" unicode="&#xcc;" horiz-adv-x="448" 
d="M644 696q1 -7 -5 -11.5t-14.5 -7t-17 -3.5t-12.5 -1q-12 -1 -18.5 -5.5t-20.5 -7.5t-27 -6t-27 -5q-3 -1 -10.5 -0.5t-9.5 -1.5q-5 -5 -2.5 -7t1.5 -7q-5 -17 -14 -33.5t-17 -31.5q-14 -27 -27 -54t-27 -55q-13 -25 -21.5 -50.5t-21.5 -51.5q-14 -29 -26.5 -58t-24.5 -58
q-10 -23 -16 -46t-15 -46q-14 -35 -26 -70.5t-23 -71.5q35 4 71 6t71 0q4 0 9.5 -1t9.5 0q3 0 3.5 3t3.5 2q8 -2 8 -10q0 -6 -5.5 -10t-13 -6t-15.5 -3t-12 -1q-6 -1 -10 -1t-8 -2t-8.5 -5t-10.5 -5l-52 -11q-21 -5 -39 -9.5t-40 -7.5l-24 -4l-24 -4q-8 -2 -13.5 -5
t-12.5 -5q-9 -3 -21.5 -6t-25.5 -4t-25 0.5t-21 6.5q-14 8 -17 23.5t13 23.5q8 5 19.5 5.5t20.5 2.5q25 5 49.5 7.5t47.5 10.5q-8 16 -7.5 33.5t4.5 34.5t10.5 33.5t12.5 32.5q7 20 15 38.5t17 37.5q8 19 13.5 38t12.5 38q16 44 35.5 86t38.5 84q20 43 38.5 85.5t38.5 84.5
q-8 -2 -13 -4.5t-13 -5.5q-11 -5 -27 -6.5t-28 -2.5q-8 0 -19 2t-19.5 7.5t-13 13.5t0.5 19q2 5 5 7.5t8 4.5q9 5 21 5.5t22 2.5l28 6t28 4q11 1 19 3t19 5t13 4.5t8 9.5q6 6 10 16q-1 1 -1 2q0 4 1 5q4 5 8 6t10 2q13 2 26.5 -4.5t22.5 -14.5q6 -5 8.5 -8t10.5 -5
q4 -1 10 0t11 1q19 2 37.5 2.5t37.5 -1.5q3 0 9.5 -1t9.5 0q3 0 3 3t3 2q8 -2 9 -7v-1zM390 508q7 12 11 24t9 25q-5 -8 -13 -16.5t-11 -16.5q-4 -10 -4.5 -19.5t-2.5 -19.5q2 6 5 11.5t6 11.5zM349 452q4 7 5.5 14t4.5 14q-3 -4 -5.5 -7.5t-4.5 -6.5q-5 -9 -7.5 -18
t-6.5 -18zM505 800q2 -13 -4 -13.5t-15 4.5t-17.5 12t-11.5 10q-15 13 -28.5 29.5t-30.5 27.5l-12 7.5t2 15.5q2 2 4 2.5t3 1.5q2 2 0.5 3.5t0.5 3.5q10 11 26 13q14 1 21 -3t14 -16q5 -11 11.5 -19t11.5 -19q5 -9 8 -18.5t6 -18.5q3 -6 6 -10t5 -12v-1z" />
    <glyph glyph-name="Iacute" unicode="&#xcd;" horiz-adv-x="448" 
d="M644 696q1 -7 -5 -11.5t-14.5 -7t-17 -3.5t-12.5 -1q-12 -1 -18.5 -5.5t-20.5 -7.5t-27 -6t-27 -5q-3 -1 -10.5 -0.5t-9.5 -1.5q-5 -5 -2.5 -7t1.5 -7q-5 -17 -14 -33.5t-17 -31.5q-14 -27 -27 -54t-27 -55q-13 -25 -21.5 -50.5t-21.5 -51.5q-14 -29 -26.5 -58t-24.5 -58
q-10 -23 -16 -46t-15 -46q-14 -35 -26 -70.5t-23 -71.5q35 4 71 6t71 0q4 0 9.5 -1t9.5 0q3 0 3.5 3t3.5 2q8 -2 8 -10q0 -6 -5.5 -10t-13 -6t-15.5 -3t-12 -1q-6 -1 -10 -1t-8 -2t-8.5 -5t-10.5 -5l-52 -11q-21 -5 -39 -9.5t-40 -7.5l-24 -4l-24 -4q-8 -2 -13.5 -5
t-12.5 -5q-9 -3 -21.5 -6t-25.5 -4t-25 0.5t-21 6.5q-14 8 -17 23.5t13 23.5q8 5 19.5 5.5t20.5 2.5q25 5 49.5 7.5t47.5 10.5q-8 16 -7.5 33.5t4.5 34.5t10.5 33.5t12.5 32.5q7 20 15 38.5t17 37.5q8 19 13.5 38t12.5 38q16 44 35.5 86t38.5 84q20 43 38.5 85.5t38.5 84.5
q-8 -2 -13 -4.5t-13 -5.5q-11 -5 -27 -6.5t-28 -2.5q-8 0 -19 2t-19.5 7.5t-13 13.5t0.5 19q2 5 5 7.5t8 4.5q9 5 21 5.5t22 2.5l28 6t28 4q11 1 19 3t19 5t13 4.5t8 9.5q6 6 10 16q-1 1 -1 2q0 4 1 5q4 5 8 6t10 2q13 2 26.5 -4.5t22.5 -14.5q6 -5 8.5 -8t10.5 -5
q4 -1 10 0t11 1q19 2 37.5 2.5t37.5 -1.5q3 0 9.5 -1t9.5 0q3 0 3 3t3 2q8 -2 9 -7v-1zM390 508q7 12 11 24t9 25q-5 -8 -13 -16.5t-11 -16.5q-4 -10 -4.5 -19.5t-2.5 -19.5q2 6 5 11.5t6 11.5zM349 452q4 7 5.5 14t4.5 14q-3 -4 -5.5 -7.5t-4.5 -6.5q-5 -9 -7.5 -18
t-6.5 -18zM553 885q2 -1 -2.5 -7t-11 -12.5t-13 -12.5t-7.5 -7q-11 -13 -26 -24.5t-28 -21.5q-3 -2 -11.5 -7.5t-13.5 -1.5q-4 3 -2.5 10.5t4.5 16.5t7 17.5t6 11.5l37 64q2 5 1.5 8t8.5 4q4 1 10.5 -0.5t7.5 -1.5q8 -2 15.5 -6t12.5 -12q2 -2 3 -9t2 -9z" />
    <glyph glyph-name="Icircumflex" unicode="&#xce;" horiz-adv-x="448" 
d="M644 696q1 -7 -5 -11.5t-14.5 -7t-17 -3.5t-12.5 -1q-12 -1 -18.5 -5.5t-20.5 -7.5t-27 -6t-27 -5q-3 -1 -10.5 -0.5t-9.5 -1.5q-5 -5 -2.5 -7t1.5 -7q-5 -17 -14 -33.5t-17 -31.5q-14 -27 -27 -54t-27 -55q-13 -25 -21.5 -50.5t-21.5 -51.5q-14 -29 -26.5 -58t-24.5 -58
q-10 -23 -16 -46t-15 -46q-14 -35 -26 -70.5t-23 -71.5q35 4 71 6t71 0q4 0 9.5 -1t9.5 0q3 0 3.5 3t3.5 2q8 -2 8 -10q0 -6 -5.5 -10t-13 -6t-15.5 -3t-12 -1q-6 -1 -10 -1t-8 -2t-8.5 -5t-10.5 -5l-52 -11q-21 -5 -39 -9.5t-40 -7.5l-24 -4l-24 -4q-8 -2 -13.5 -5
t-12.5 -5q-9 -3 -21.5 -6t-25.5 -4t-25 0.5t-21 6.5q-14 8 -17 23.5t13 23.5q8 5 19.5 5.5t20.5 2.5q25 5 49.5 7.5t47.5 10.5q-8 16 -7.5 33.5t4.5 34.5t10.5 33.5t12.5 32.5q7 20 15 38.5t17 37.5q8 19 13.5 38t12.5 38q16 44 35.5 86t38.5 84q20 43 38.5 85.5t38.5 84.5
q-8 -2 -13 -4.5t-13 -5.5q-11 -5 -27 -6.5t-28 -2.5q-8 0 -19 2t-19.5 7.5t-13 13.5t0.5 19q2 5 5 7.5t8 4.5q9 5 21 5.5t22 2.5l28 6t28 4q11 1 19 3t19 5t13 4.5t8 9.5q6 6 10 16q-1 1 -1 2q0 4 1 5q4 5 8 6t10 2q13 2 26.5 -4.5t22.5 -14.5q6 -5 8.5 -8t10.5 -5
q4 -1 10 0t11 1q19 2 37.5 2.5t37.5 -1.5q3 0 9.5 -1t9.5 0q3 0 3 3t3 2q8 -2 9 -7v-1zM390 508q7 12 11 24t9 25q-5 -8 -13 -16.5t-11 -16.5q-4 -10 -4.5 -19.5t-2.5 -19.5q2 6 5 11.5t6 11.5zM349 452q4 7 5.5 14t4.5 14q-3 -4 -5.5 -7.5t-4.5 -6.5q-5 -9 -7.5 -18
t-6.5 -18zM575 886q2 -20 1.5 -41t-2.5 -41q-1 -11 -8.5 -22.5t-23.5 -5.5q-12 4 -18.5 17t-10 28t-4 30t-0.5 24q-11 -11 -20.5 -20t-19.5 -20q-11 -12 -26.5 -25.5t-30.5 -18.5q-13 -5 -13 2t6 17t14.5 20.5t11.5 13.5q11 12 24 27t27 29t29.5 25.5t32.5 16.5q17 7 25 -11
q2 -7 2 -13.5t1 -13.5q0 -2 -1 -5t0 -5q0 -2 2 -3t2 -5z" />
    <glyph glyph-name="Idieresis" unicode="&#xcf;" horiz-adv-x="448" 
d="M644 696q1 -7 -5 -11.5t-14.5 -7t-17 -3.5t-12.5 -1q-12 -1 -18.5 -5.5t-20.5 -7.5t-27 -6t-27 -5q-3 -1 -10.5 -0.5t-9.5 -1.5q-5 -5 -2.5 -7t1.5 -7q-5 -17 -14 -33.5t-17 -31.5q-14 -27 -27 -54t-27 -55q-13 -25 -21.5 -50.5t-21.5 -51.5q-14 -29 -26.5 -58t-24.5 -58
q-10 -23 -16 -46t-15 -46q-14 -35 -26 -70.5t-23 -71.5q35 4 71 6t71 0q4 0 9.5 -1t9.5 0q3 0 3.5 3t3.5 2q8 -2 8 -10q0 -6 -5.5 -10t-13 -6t-15.5 -3t-12 -1q-6 -1 -10 -1t-8 -2t-8.5 -5t-10.5 -5l-52 -11q-21 -5 -39 -9.5t-40 -7.5l-24 -4l-24 -4q-8 -2 -13.5 -5
t-12.5 -5q-9 -3 -21.5 -6t-25.5 -4t-25 0.5t-21 6.5q-14 8 -17 23.5t13 23.5q8 5 19.5 5.5t20.5 2.5q25 5 49.5 7.5t47.5 10.5q-8 16 -7.5 33.5t4.5 34.5t10.5 33.5t12.5 32.5q7 20 15 38.5t17 37.5q8 19 13.5 38t12.5 38q16 44 35.5 86t38.5 84q20 43 38.5 85.5t38.5 84.5
q-8 -2 -13 -4.5t-13 -5.5q-11 -5 -27 -6.5t-28 -2.5q-8 0 -19 2t-19.5 7.5t-13 13.5t0.5 19q2 5 5 7.5t8 4.5q9 5 21 5.5t22 2.5l28 6t28 4q11 1 19 3t19 5t13 4.5t8 9.5q6 6 10 16q-1 1 -1 2q0 4 1 5q4 5 8 6t10 2q13 2 26.5 -4.5t22.5 -14.5q6 -5 8.5 -8t10.5 -5
q4 -1 10 0t11 1q19 2 37.5 2.5t37.5 -1.5q3 0 9.5 -1t9.5 0q3 0 3 3t3 2q8 -2 9 -7v-1zM390 508q7 12 11 24t9 25q-5 -8 -13 -16.5t-11 -16.5q-4 -10 -4.5 -19.5t-2.5 -19.5q2 6 5 11.5t6 11.5zM349 452q4 7 5.5 14t4.5 14q-3 -4 -5.5 -7.5t-4.5 -6.5q-5 -9 -7.5 -18
t-6.5 -18zM606 861q1 -4 2 -13t-1 -13h-1q-2 -11 -7.5 -19.5t-13.5 -16.5q8 6 9 6q1 -1 -4 -5.5t-11.5 -10t-13 -10t-7.5 -5.5q-6 -4 -9.5 -5.5t-10.5 -0.5q-1 0 -4.5 2t-7 4.5t-6 4.5t-1.5 3t3 0q-1 1 -5 4.5t-3 1.5q4 -5 4 -5.5t-1.5 1l-4 4t-2.5 3.5q-2 6 -3.5 9.5
t-0.5 11.5q1 12 6.5 21.5t14.5 17.5q6 6 18 13.5t24 10.5t22 -0.5t13 -18.5q-2 16 -14 20t-25 1q14 5 24 2t17 -18zM466 872q4 0 3.5 -5t-2.5 -11.5t-4.5 -12.5t-2.5 -7q-5 -12 -11 -21t-18 -17q-5 -3 -12.5 -9t-12.5 -6q-9 -1 -19.5 8.5t-15.5 17.5q-8 14 0.5 31t18.5 28
q5 5 9.5 7.5t9.5 6.5q2 2 0.5 4.5t3.5 4.5q5 3 10 1.5t10 -1.5q1 0 2 2t4 2q7 0 13 -3q8 -3 10 -7.5t4 -12.5zM541 769q2 3 -2 3t-7 2q2 -3 8 -5h1zM546 869q-2 3 6 5l-3 -3q-1 -1 -2 -1t-1 -1zM601 827l-4 -8q4 7 5 14q-1 -2 -1 -5v-1zM605 844q0 5 -1 1.5t-1 -7.5q0 2 2 6
zM557 777q2 1 4.5 3t5.5 4zM582 796q1 0 3 2zM580 794l2 1q-1 0 -2 -1zM565 877q-2 0 -2.5 -0.5t-1.5 -0.5q1 0 1.5 0.5t2.5 0.5z" />
    <glyph glyph-name="Ntilde" unicode="&#xd1;" horiz-adv-x="574" 
d="M186 238q21 32 42 65t44 65l-26 -36l-36 -49q50 75 103 147.5t113 139.5q11 12 28 29.5t36.5 33t40 27.5t40 13.5t36 -10t27.5 -41.5v-2q1 -5 2 -5q11 -36 4.5 -73.5t-22.5 -73.5t-36 -70t-36 -65q5 7 7 7l-4.5 -10.5t-10 -23t-10.5 -24t-6 -14.5q-8 -18 -16.5 -37
t-17.5 -38q-20 -45 -40 -89t-38 -90q-14 -34 -28.5 -73t-14.5 -77q0 -17 9 -26t21.5 -12.5t27.5 -3.5t28 1q11 2 21 5t21 6q7 2 18.5 8.5t18.5 5.5q8 -1 6.5 -7.5t-6.5 -14.5t-11 -15.5t-8 -9.5q-11 -11 -25.5 -20.5t-30.5 -16t-32.5 -8t-32.5 3.5t-29.5 16.5t-24 26
t-18.5 30.5t-13 31q-14 37 -15 76t7 77q8 34 22.5 64.5t28.5 62.5q0 1 2 10.5t6 13.5q-1 -2 -3 -10l-2 -8l10 25q-1 -1 -2 0q-1 10 7 25t12 24l27 54q13 26 25 51t23 51t23 51t25 51q2 3 8 16.5t13.5 29t14 27.5t8.5 12l-2 -8l-2 -8q5 13 12.5 31t3.5 32q0 -1 -0.5 -9.5
t-2.5 -8.5q-1 1 -0.5 10.5t-5.5 11.5q-4 1 -9 -2t-7 -5q-20 -11 -35.5 -27.5t-29.5 -33.5q-34 -38 -66 -77t-61 -81q-15 -21 -30 -42.5t-31 -41.5q-5 -8 -11.5 -12.5t-11.5 -9.5q-7 -7 -11 -16.5t-9 -17.5q-27 -45 -56 -88.5t-55 -89.5q-11 -18 -19.5 -36t-16.5 -38
q-5 -11 -8 -26.5t-13 -23.5q-12 -11 -24 -10.5t-22 8t-16.5 20t-7.5 24.5q-2 33 10.5 68.5t23.5 66.5q14 39 32.5 76t31.5 76q14 44 32.5 87t37.5 85.5t36 86t29 88.5q1 6 4 15.5t4.5 19.5t1 18.5t-6.5 13.5q-5 3 -11 3t-12.5 -2t-12 -5t-9.5 -5q-30 -18 -51 -48.5
t-37 -59.5q-16 -28 -27 -59q-3 -7 -6 -14.5t-4 -15.5q0 -2 2 -6.5t-1 -10.5q-9 -16 -27 -6q-15 8 -18.5 28.5t-2.5 35.5q0 20 5.5 38t15.5 35q3 5 7 9.5t7 10.5q3 7 4.5 13.5t6.5 14.5q22 32 53.5 55.5t67.5 34.5q22 7 44 7t41 -15q17 -14 22 -31.5t10 -36.5q11 -37 1 -73
t-20 -73q-11 -38 -26 -75t-26 -75q-8 -28 -17.5 -55t-20.5 -54l5 8q-8 -13 -13 -28zM442 303q17 32 36 62.5t36 62.5q21 39 38 81t27 87l-1 -2l1 4v2q-2 -9 -5.5 -18.5t-7 -18.5t-6 -15.5t-3.5 -8.5l-39 -81zM118 295q-13 -34 -30 -68t-32 -68q-20 -48 -33 -94
q-6 -21 -9 -44q-1 -5 0.5 -14t0.5 -14q3 8 2.5 17.5t1.5 18.5q2 10 4.5 20t5.5 20q7 22 14.5 43.5t17.5 42.5q14 31 28.5 63t24.5 64v1zM125 310q7 7 2 9q-6 -7 -2 -9zM426 565q-16 -16 -34 -39q8 10 16.5 19.5t17.5 19.5zM206 276l-4 -6q2 4 4 6zM371 500q-1 -1 -1 -2l4 6z
M579 600q0 2 0.5 2.5t0.5 1.5q0 -1 -0.5 -2t-0.5 -2zM386 518l6 8zM636 615q-1 1 -1 3zM125 310l1 1q-1 0 -1 -1zM371 500q0 -1 -1 -1q1 0 1 1zM199 266l3 4zM585 800q1 1 3 4.5t4 5.5t5 2t7 -5q3 -5 2 -9.5t-4 -8.5t-7 -7.5t-5 -5.5q-5 -6 -9 -11t-12 -10
q-13 -8 -28.5 -9.5t-28.5 1.5q-16 5 -30 13.5t-30 11.5q-10 2 -19 3.5t-20 -1.5q-8 -2 -18.5 -9t-18.5 0q-12 9 -6 20t19 21t27.5 17t19.5 9q18 7 31 4.5t25 -10t24 -16.5t27 -15q11 -5 22 -4t20 9z" />
    <glyph glyph-name="Ograve" unicode="&#xd2;" horiz-adv-x="539" 
d="M453 446q3 15 13 15.5t21 -6.5t21.5 -18t13.5 -17q9 -17 11 -35t0.5 -37t-6 -37t-8.5 -35q-11 -48 -31 -92t-43 -86q-20 -36 -45.5 -76t-57 -74.5t-69.5 -59t-82 -28.5q-27 -3 -51 5.5t-44 24.5t-36.5 36.5t-28.5 42.5q-1 2 -7.5 11t-7.5 15q1 -4 4.5 -9.5t5.5 -8.5
q-4 8 -6.5 14.5t-4.5 12.5v-2q-4 12 -7 23q-3 9 -5 16.5t-2 9.5q-2 15 -1 30t3 30q5 35 14.5 68.5t17.5 67.5q8 35 21.5 66.5t29.5 62.5q7 14 14 27t15 26q1 2 5 9t8.5 15t9 14t6.5 6l-6 -11l28 45l-2 -2q3 5 6.5 11.5t5.5 9.5l21 30l22 30t22 29q26 32 55.5 61t64.5 49
q23 14 50 22.5t53 -2.5q14 -6 28.5 -17t27 -24.5t21 -29t10.5 -31.5q1 -17 -7.5 -39t-17.5 -35q-22 -34 -51 -64t-61 -54q-8 -6 -17 -13.5t-19.5 -13.5t-21 -9t-21.5 -1q-5 0 -11.5 2.5t-12 6.5t-8 9t1.5 11l7 4h-1q1 0 7 4.5t13.5 9.5l13.5 9t7 5t7 6.5t12.5 11.5
t12.5 10.5t7 4.5q-8 -8 -14 -15q-5 -6 -10 -11l-6 -6q26 22 46.5 48.5t37.5 56.5q9 17 19 41t6 45q-2 11 -8.5 15t-14.5 3.5t-17 -4t-16 -7.5q-31 -19 -56 -48t-45 -58q20 27 44 55t53 46q-16 -11 -30.5 -26.5t-23.5 -25.5q-54 -62 -95.5 -134.5t-75.5 -147.5
q-32 -72 -59.5 -151.5t-33.5 -157.5q-1 -14 -0.5 -30t5.5 -29.5t15.5 -23t28.5 -10.5q14 -1 27.5 2t25.5 8q17 7 27 13l10 5l6 3t0 -1q8 5 14.5 11t13.5 12q-1 0 -5 -3t-8.5 -6t-8 -5l-3.5 -2q0 3 4.5 8t10 9.5l11 9t7.5 6.5q8 8 16 17t16 19q17 22 31 45t27 47
q54 98 79 204q5 22 9.5 45t3.5 46q0 5 -1.5 10t-0.5 10zM57 249q18 53 44 102.5t55 97.5q28 45 57 90t64 85q9 10 19.5 21t21.5 22q-11 -9 -20 -19t-18 -19q-37 -42 -69.5 -86t-62.5 -91q-30 -48 -55 -99.5t-42 -105.5q-11 -34 -20.5 -69.5t-14.5 -71.5q5 36 17 72.5
t24 70.5zM450 682q-9 0 -13 -1q19 6 25.5 -3t4.5 -24q1 11 -2.5 18.5t-14.5 9.5zM456 613q3 8 6 18t5 20q-1 -11 -4 -20.5t-7 -17.5zM244 458q-2 -2 -2 -3l1 2l-22 -38l20 33l4 7l-1 -1l-1 -1zM453 604q-3 -8 -5 -10zM251 471l-7 -12l1 1l1 1zM422 676q-2 -2 -4 -2zM218 412
l-3 -4zM500 809q2 -13 -4 -13.5t-15 4.5t-17.5 12t-11.5 10q-15 13 -28.5 29.5t-30.5 27.5l-12 7.5t2 15.5q2 2 4 2.5t3 1.5q2 2 0.5 3.5t0.5 3.5q10 11 26 13q14 1 21 -3t14 -16q5 -11 11.5 -19t11.5 -19q5 -9 8 -18.5t6 -18.5q3 -6 6 -10t5 -12v-1z" />
    <glyph glyph-name="Oacute" unicode="&#xd3;" horiz-adv-x="539" 
d="M453 446q3 15 13 15.5t21 -6.5t21.5 -18t13.5 -17q9 -17 11 -35t0.5 -37t-6 -37t-8.5 -35q-11 -48 -31 -92t-43 -86q-20 -36 -45.5 -76t-57 -74.5t-69.5 -59t-82 -28.5q-27 -3 -51 5.5t-44 24.5t-36.5 36.5t-28.5 42.5q-1 2 -7.5 11t-7.5 15q1 -4 4.5 -9.5t5.5 -8.5
q-4 8 -6.5 14.5t-4.5 12.5v-2q-4 12 -7 23q-3 9 -5 16.5t-2 9.5q-2 15 -1 30t3 30q5 35 14.5 68.5t17.5 67.5q8 35 21.5 66.5t29.5 62.5q7 14 14 27t15 26q1 2 5 9t8.5 15t9 14t6.5 6l-6 -11l28 45l-2 -2q3 5 6.5 11.5t5.5 9.5l21 30l22 30t22 29q26 32 55.5 61t64.5 49
q23 14 50 22.5t53 -2.5q14 -6 28.5 -17t27 -24.5t21 -29t10.5 -31.5q1 -17 -7.5 -39t-17.5 -35q-22 -34 -51 -64t-61 -54q-8 -6 -17 -13.5t-19.5 -13.5t-21 -9t-21.5 -1q-5 0 -11.5 2.5t-12 6.5t-8 9t1.5 11l7 4h-1q1 0 7 4.5t13.5 9.5l13.5 9t7 5t7 6.5t12.5 11.5
t12.5 10.5t7 4.5q-8 -8 -14 -15q-5 -6 -10 -11l-6 -6q26 22 46.5 48.5t37.5 56.5q9 17 19 41t6 45q-2 11 -8.5 15t-14.5 3.5t-17 -4t-16 -7.5q-31 -19 -56 -48t-45 -58q20 27 44 55t53 46q-16 -11 -30.5 -26.5t-23.5 -25.5q-54 -62 -95.5 -134.5t-75.5 -147.5
q-32 -72 -59.5 -151.5t-33.5 -157.5q-1 -14 -0.5 -30t5.5 -29.5t15.5 -23t28.5 -10.5q14 -1 27.5 2t25.5 8q17 7 27 13l10 5l6 3t0 -1q8 5 14.5 11t13.5 12q-1 0 -5 -3t-8.5 -6t-8 -5l-3.5 -2q0 3 4.5 8t10 9.5l11 9t7.5 6.5q8 8 16 17t16 19q17 22 31 45t27 47
q54 98 79 204q5 22 9.5 45t3.5 46q0 5 -1.5 10t-0.5 10zM57 249q18 53 44 102.5t55 97.5q28 45 57 90t64 85q9 10 19.5 21t21.5 22q-11 -9 -20 -19t-18 -19q-37 -42 -69.5 -86t-62.5 -91q-30 -48 -55 -99.5t-42 -105.5q-11 -34 -20.5 -69.5t-14.5 -71.5q5 36 17 72.5
t24 70.5zM450 682q-9 0 -13 -1q19 6 25.5 -3t4.5 -24q1 11 -2.5 18.5t-14.5 9.5zM456 613q3 8 6 18t5 20q-1 -11 -4 -20.5t-7 -17.5zM244 458q-2 -2 -2 -3l1 2l-22 -38l20 33l4 7l-1 -1l-1 -1zM453 604q-3 -8 -5 -10zM251 471l-7 -12l1 1l1 1zM422 676q-2 -2 -4 -2zM218 412
l-3 -4zM543 896q2 -1 -2.5 -7t-11 -12.5t-13 -12.5t-7.5 -7q-11 -13 -26 -24.5t-28 -21.5q-3 -2 -11.5 -7.5t-13.5 -1.5q-4 3 -2.5 10.5t4.5 16.5t7 17.5t6 11.5l37 64q2 5 1.5 8t8.5 4q4 1 10.5 -0.5t7.5 -1.5q8 -2 15.5 -6t12.5 -12q2 -2 3 -9t2 -9z" />
    <glyph glyph-name="Ocircumflex" unicode="&#xd4;" horiz-adv-x="539" 
d="M453 446q3 15 13 15.5t21 -6.5t21.5 -18t13.5 -17q9 -17 11 -35t0.5 -37t-6 -37t-8.5 -35q-11 -48 -31 -92t-43 -86q-20 -36 -45.5 -76t-57 -74.5t-69.5 -59t-82 -28.5q-27 -3 -51 5.5t-44 24.5t-36.5 36.5t-28.5 42.5q-1 2 -7.5 11t-7.5 15q1 -4 4.5 -9.5t5.5 -8.5
q-4 8 -6.5 14.5t-4.5 12.5v-2q-4 12 -7 23q-3 9 -5 16.5t-2 9.5q-2 15 -1 30t3 30q5 35 14.5 68.5t17.5 67.5q8 35 21.5 66.5t29.5 62.5q7 14 14 27t15 26q1 2 5 9t8.5 15t9 14t6.5 6l-6 -11l28 45l-2 -2q3 5 6.5 11.5t5.5 9.5l21 30l22 30t22 29q26 32 55.5 61t64.5 49
q23 14 50 22.5t53 -2.5q14 -6 28.5 -17t27 -24.5t21 -29t10.5 -31.5q1 -17 -7.5 -39t-17.5 -35q-22 -34 -51 -64t-61 -54q-8 -6 -17 -13.5t-19.5 -13.5t-21 -9t-21.5 -1q-5 0 -11.5 2.5t-12 6.5t-8 9t1.5 11l7 4h-1q1 0 7 4.5t13.5 9.5l13.5 9t7 5t7 6.5t12.5 11.5
t12.5 10.5t7 4.5q-8 -8 -14 -15q-5 -6 -10 -11l-6 -6q26 22 46.5 48.5t37.5 56.5q9 17 19 41t6 45q-2 11 -8.5 15t-14.5 3.5t-17 -4t-16 -7.5q-31 -19 -56 -48t-45 -58q20 27 44 55t53 46q-16 -11 -30.5 -26.5t-23.5 -25.5q-54 -62 -95.5 -134.5t-75.5 -147.5
q-32 -72 -59.5 -151.5t-33.5 -157.5q-1 -14 -0.5 -30t5.5 -29.5t15.5 -23t28.5 -10.5q14 -1 27.5 2t25.5 8q17 7 27 13l10 5l6 3t0 -1q8 5 14.5 11t13.5 12q-1 0 -5 -3t-8.5 -6t-8 -5l-3.5 -2q0 3 4.5 8t10 9.5l11 9t7.5 6.5q8 8 16 17t16 19q17 22 31 45t27 47
q54 98 79 204q5 22 9.5 45t3.5 46q0 5 -1.5 10t-0.5 10zM57 249q18 53 44 102.5t55 97.5q28 45 57 90t64 85q9 10 19.5 21t21.5 22q-11 -9 -20 -19t-18 -19q-37 -42 -69.5 -86t-62.5 -91q-30 -48 -55 -99.5t-42 -105.5q-11 -34 -20.5 -69.5t-14.5 -71.5q5 36 17 72.5
t24 70.5zM450 682q-9 0 -13 -1q19 6 25.5 -3t4.5 -24q1 11 -2.5 18.5t-14.5 9.5zM456 613q3 8 6 18t5 20q-1 -11 -4 -20.5t-7 -17.5zM244 458q-2 -2 -2 -3l1 2l-22 -38l20 33l4 7l-1 -1l-1 -1zM453 604q-3 -8 -5 -10zM251 471l-7 -12l1 1l1 1zM422 676q-2 -2 -4 -2zM218 412
l-3 -4zM553 902q2 -20 1.5 -41t-2.5 -41q-1 -11 -8.5 -22.5t-23.5 -5.5q-12 4 -18.5 17t-10 28t-4 30t-0.5 24q-11 -11 -20.5 -20t-19.5 -20q-11 -12 -26.5 -25.5t-30.5 -18.5q-13 -5 -13 2t6 17t14.5 20.5t11.5 13.5q11 12 24 27t27 29t29.5 25.5t32.5 16.5q17 7 25 -11
q2 -7 2 -13.5t1 -13.5q0 -2 -1 -5t0 -5q0 -2 2 -3t2 -5z" />
    <glyph glyph-name="Otilde" unicode="&#xd5;" horiz-adv-x="539" 
d="M453 446q3 15 13 15.5t21 -6.5t21.5 -18t13.5 -17q9 -17 11 -35t0.5 -37t-6 -37t-8.5 -35q-11 -48 -31 -92t-43 -86q-20 -36 -45.5 -76t-57 -74.5t-69.5 -59t-82 -28.5q-27 -3 -51 5.5t-44 24.5t-36.5 36.5t-28.5 42.5q-1 2 -7.5 11t-7.5 15q1 -4 4.5 -9.5t5.5 -8.5
q-4 8 -6.5 14.5t-4.5 12.5v-2q-4 12 -7 23q-3 9 -5 16.5t-2 9.5q-2 15 -1 30t3 30q5 35 14.5 68.5t17.5 67.5q8 35 21.5 66.5t29.5 62.5q7 14 14 27t15 26q1 2 5 9t8.5 15t9 14t6.5 6l-6 -11l28 45l-2 -2q3 5 6.5 11.5t5.5 9.5l21 30l22 30t22 29q26 32 55.5 61t64.5 49
q23 14 50 22.5t53 -2.5q14 -6 28.5 -17t27 -24.5t21 -29t10.5 -31.5q1 -17 -7.5 -39t-17.5 -35q-22 -34 -51 -64t-61 -54q-8 -6 -17 -13.5t-19.5 -13.5t-21 -9t-21.5 -1q-5 0 -11.5 2.5t-12 6.5t-8 9t1.5 11l7 4h-1q1 0 7 4.5t13.5 9.5l13.5 9t7 5t7 6.5t12.5 11.5
t12.5 10.5t7 4.5q-8 -8 -14 -15q-5 -6 -10 -11l-6 -6q26 22 46.5 48.5t37.5 56.5q9 17 19 41t6 45q-2 11 -8.5 15t-14.5 3.5t-17 -4t-16 -7.5q-31 -19 -56 -48t-45 -58q20 27 44 55t53 46q-16 -11 -30.5 -26.5t-23.5 -25.5q-54 -62 -95.5 -134.5t-75.5 -147.5
q-32 -72 -59.5 -151.5t-33.5 -157.5q-1 -14 -0.5 -30t5.5 -29.5t15.5 -23t28.5 -10.5q14 -1 27.5 2t25.5 8q17 7 27 13l10 5l6 3t0 -1q8 5 14.5 11t13.5 12q-1 0 -5 -3t-8.5 -6t-8 -5l-3.5 -2q0 3 4.5 8t10 9.5l11 9t7.5 6.5q8 8 16 17t16 19q17 22 31 45t27 47
q54 98 79 204q5 22 9.5 45t3.5 46q0 5 -1.5 10t-0.5 10zM57 249q18 53 44 102.5t55 97.5q28 45 57 90t64 85q9 10 19.5 21t21.5 22q-11 -9 -20 -19t-18 -19q-37 -42 -69.5 -86t-62.5 -91q-30 -48 -55 -99.5t-42 -105.5q-11 -34 -20.5 -69.5t-14.5 -71.5q5 36 17 72.5
t24 70.5zM450 682q-9 0 -13 -1q19 6 25.5 -3t4.5 -24q1 11 -2.5 18.5t-14.5 9.5zM456 613q3 8 6 18t5 20q-1 -11 -4 -20.5t-7 -17.5zM244 458q-2 -2 -2 -3l1 2l-22 -38l20 33l4 7l-1 -1l-1 -1zM453 604q-3 -8 -5 -10zM251 471l-7 -12l1 1l1 1zM422 676q-2 -2 -4 -2zM218 412
l-3 -4zM579 847q1 1 3 4.5t4 5.5t5 2t7 -5q3 -5 2 -9.5t-4 -8.5t-7 -7.5t-5 -5.5q-5 -6 -9 -11t-12 -10q-13 -8 -28.5 -9.5t-28.5 1.5q-16 5 -30 13.5t-30 11.5q-10 2 -19 3.5t-20 -1.5q-8 -2 -18.5 -9t-18.5 0q-12 9 -6 20t19 21t27.5 17t19.5 9q18 7 31 4.5t25 -10
t24 -16.5t27 -15q11 -5 22 -4t20 9z" />
    <glyph glyph-name="Odieresis" unicode="&#xd6;" horiz-adv-x="539" 
d="M453 446q3 15 13 15.5t21 -6.5t21.5 -18t13.5 -17q9 -17 11 -35t0.5 -37t-6 -37t-8.5 -35q-11 -48 -31 -92t-43 -86q-20 -36 -45.5 -76t-57 -74.5t-69.5 -59t-82 -28.5q-27 -3 -51 5.5t-44 24.5t-36.5 36.5t-28.5 42.5q-1 2 -7.5 11t-7.5 15q1 -4 4.5 -9.5t5.5 -8.5
q-4 8 -6.5 14.5t-4.5 12.5v-2q-4 12 -7 23q-3 9 -5 16.5t-2 9.5q-2 15 -1 30t3 30q5 35 14.5 68.5t17.5 67.5q8 35 21.5 66.5t29.5 62.5q7 14 14 27t15 26q1 2 5 9t8.5 15t9 14t6.5 6l-6 -11l28 45l-2 -2q3 5 6.5 11.5t5.5 9.5l21 30l22 30t22 29q26 32 55.5 61t64.5 49
q23 14 50 22.5t53 -2.5q14 -6 28.5 -17t27 -24.5t21 -29t10.5 -31.5q1 -17 -7.5 -39t-17.5 -35q-22 -34 -51 -64t-61 -54q-8 -6 -17 -13.5t-19.5 -13.5t-21 -9t-21.5 -1q-5 0 -11.5 2.5t-12 6.5t-8 9t1.5 11l7 4h-1q1 0 7 4.5t13.5 9.5l13.5 9t7 5t7 6.5t12.5 11.5
t12.5 10.5t7 4.5q-8 -8 -14 -15q-5 -6 -10 -11l-6 -6q26 22 46.5 48.5t37.5 56.5q9 17 19 41t6 45q-2 11 -8.5 15t-14.5 3.5t-17 -4t-16 -7.5q-31 -19 -56 -48t-45 -58q20 27 44 55t53 46q-16 -11 -30.5 -26.5t-23.5 -25.5q-54 -62 -95.5 -134.5t-75.5 -147.5
q-32 -72 -59.5 -151.5t-33.5 -157.5q-1 -14 -0.5 -30t5.5 -29.5t15.5 -23t28.5 -10.5q14 -1 27.5 2t25.5 8q17 7 27 13l10 5l6 3t0 -1q8 5 14.5 11t13.5 12q-1 0 -5 -3t-8.5 -6t-8 -5l-3.5 -2q0 3 4.5 8t10 9.5l11 9t7.5 6.5q8 8 16 17t16 19q17 22 31 45t27 47
q54 98 79 204q5 22 9.5 45t3.5 46q0 5 -1.5 10t-0.5 10zM57 249q18 53 44 102.5t55 97.5q28 45 57 90t64 85q9 10 19.5 21t21.5 22q-11 -9 -20 -19t-18 -19q-37 -42 -69.5 -86t-62.5 -91q-30 -48 -55 -99.5t-42 -105.5q-11 -34 -20.5 -69.5t-14.5 -71.5q5 36 17 72.5
t24 70.5zM450 682q-9 0 -13 -1q19 6 25.5 -3t4.5 -24q1 11 -2.5 18.5t-14.5 9.5zM456 613q3 8 6 18t5 20q-1 -11 -4 -20.5t-7 -17.5zM244 458q-2 -2 -2 -3l1 2l-22 -38l20 33l4 7l-1 -1l-1 -1zM453 604q-3 -8 -5 -10zM251 471l-7 -12l1 1l1 1zM422 676q-2 -2 -4 -2zM218 412
l-3 -4zM599 864q1 -4 2 -13t-1 -13h-1q-2 -11 -7.5 -19.5t-13.5 -16.5q8 6 9 6q1 -1 -4 -5.5t-11.5 -10t-13 -10t-7.5 -5.5q-6 -4 -9.5 -5.5t-10.5 -0.5q-1 0 -4.5 2t-7 4.5t-6 4.5t-1.5 3t3 0q-1 1 -5 4.5t-3 1.5q4 -5 4 -5.5t-1.5 1l-4 4t-2.5 3.5q-2 6 -3.5 9.5
t-0.5 11.5q1 12 6.5 21.5t14.5 17.5q6 6 18 13.5t24 10.5t22 -0.5t13 -18.5q-2 16 -14 20t-25 1q14 5 24 2t17 -18zM459 875q4 0 3.5 -5t-2.5 -11.5t-4.5 -12.5t-2.5 -7q-5 -12 -11 -21t-18 -17q-5 -3 -12.5 -9t-12.5 -6q-9 -1 -19.5 8.5t-15.5 17.5q-8 14 0.5 31t18.5 28
q5 5 9.5 7.5t9.5 6.5q2 2 0.5 4.5t3.5 4.5q5 3 10 1.5t10 -1.5q1 0 2 2t4 2q7 0 13 -3q8 -3 10 -7.5t4 -12.5zM534 772q2 3 -2 3t-7 2q2 -3 8 -5h1zM539 872q-2 3 6 5l-3 -3q-1 -1 -2 -1t-1 -1zM594 830l-4 -8q4 7 5 14q-1 -2 -1 -5v-1zM598 847q0 5 -1 1.5t-1 -7.5q0 2 2 6
zM550 780q2 1 4.5 3t5.5 4zM575 799q1 0 3 2zM573 797l2 1q-1 0 -2 -1zM558 880q-2 0 -2.5 -0.5t-1.5 -0.5q1 0 1.5 0.5t2.5 0.5z" />
    <glyph glyph-name="Ugrave" unicode="&#xd9;" horiz-adv-x="562" 
d="M614 540q1 -8 -2.5 -11t-7.5 -7q1 1 3 1q1 0 -2.5 -6t-8 -13t-9 -12.5t-5.5 -4.5q-1 0 0.5 2.5t3 6t3 6l1.5 2.5q-26 -39 -47.5 -80t-39.5 -84q4 9 12.5 26t17 34.5t15.5 30.5t10 15q-3 -3 -11.5 -20.5t-18 -38t-17.5 -38t-9 -20.5q-13 -30 -24.5 -61t-20.5 -63
q-8 -31 -15.5 -61.5t-16.5 -61.5q-8 -26 -16.5 -54.5t-11.5 -53.5q2 8 5 12l-0.5 -8t-0.5 -17.5t0.5 -18t0.5 -11.5q2 -9 2 -11.5t8 -1.5q6 1 13 6t13 11.5t11.5 13t9.5 10.5q5 7 14 20.5t17 16.5q6 3 8.5 2t5.5 -8q5 -11 0 -27.5t-9 -27.5q-5 -13 -11 -23.5t-14 -21.5
q-11 -17 -24.5 -27.5t-35.5 -9.5q-43 3 -67 36q-20 27 -24 61t0 66q2 12 5.5 22t6.5 21q0 2 0.5 7.5t1 12t1 11.5t1.5 5q1 -1 1 -3q1 2 1 7q-1 -1 -1 2.5t0.5 8.5t1 9.5t1.5 6.5q2 10 5 19.5t6 19.5q5 18 8 36t9 36q-21 -34 -42.5 -67.5t-44.5 -65.5q-23 -29 -47 -56
t-49 -54l-6 -8q-5 -6 -10 -9l7 7q3 3 5 6l-19 -18q4 3 3.5 2t-2.5 -3.5t-5.5 -5.5t-4.5 -4q-7 -7 -19 -9q-5 -1 -11 0t-11 3q-31 10 -57.5 34t-42.5 52q-8 16 -10 32t-1 33q3 32 9 64q1 2 2.5 10t4 17t4.5 16t4 7q-1 -4 -1 -7v-6q3 14 6 27t7 26l-6 -13q-1 6 1 13t5 14.5
t5.5 15t4.5 12.5q3 11 6 21t7 21q8 27 18 53t22 52q12 28 23 56t25 55q7 13 13 27t16 25q6 7 9.5 10.5t7.5 12.5q11 23 23.5 47.5t28.5 44.5q3 4 6 7.5t8 6.5q11 6 22.5 3.5t22 -9t18.5 -16.5t13 -19q6 -17 2.5 -24.5t-11.5 -17.5q6 4 6 3q0 -2 -6.5 -12t-14 -20.5t-15 -19
t-8.5 -8.5q2 4 5 8q2 4 4.5 8t4.5 7q-17 -24 -32.5 -49t-29.5 -51q6 8 8 9q-5 -5 -16.5 -30.5t-24 -55t-23 -55.5t-12.5 -31q-17 -42 -31.5 -85.5t-25.5 -88.5l3 30l-1 -6q0 2 0.5 4.5t0.5 4.5l-6 -25l4 10q-2 -19 -6.5 -38.5t-8 -39t-5 -39.5t1.5 -40q1 -5 3 -13t8 -11
q9 -4 24.5 7.5t31 28t28.5 33t17 21.5l50 58t45 58q-2 -2 -7 -9t-8 -6q10 16 19 30q8 12 14.5 22.5t8.5 13.5q12 17 23.5 34t22.5 34l98 148q6 9 12.5 20.5t14 23t15.5 21t16 15.5q10 7 23.5 6.5t25.5 -6t20.5 -15.5t10.5 -22zM353 65q7 30 10 57.5t11 57.5
q-10 -26 -17.5 -52.5t-12.5 -55.5q-6 -35 -7.5 -72t5.5 -72q-6 31 -1 68.5t12 68.5zM186 445q-12 -30 -23.5 -60t-20.5 -61q-4 -11 -6.5 -21t-4.5 -21q11 40 26.5 78.5t32.5 78.5q23 51 48.5 99t57.5 93q-32 -44 -60.5 -89.5t-49.5 -96.5zM163 348q4 10 11.5 28t16 38.5
t18 41.5t17.5 38q-35 -71 -63 -146zM487 302l-18 -46q7 14 11 26zM240 523v1v-1zM315 655q0 -2 -2 -2q2 0 2 2zM506 709q2 -13 -4 -13.5t-15 4.5t-17.5 12t-11.5 10q-15 13 -28.5 29.5t-30.5 27.5l-12 7.5t2 15.5q2 2 4 2.5t3 1.5q2 2 0.5 3.5t0.5 3.5q10 11 26 13
q14 1 21 -3t14 -16q5 -11 11.5 -19t11.5 -19q5 -9 8 -18.5t6 -18.5q3 -6 6 -10t5 -12v-1z" />
    <glyph glyph-name="Uacute" unicode="&#xda;" horiz-adv-x="562" 
d="M614 540q1 -8 -2.5 -11t-7.5 -7q1 1 3 1q1 0 -2.5 -6t-8 -13t-9 -12.5t-5.5 -4.5q-1 0 0.5 2.5t3 6t3 6l1.5 2.5q-26 -39 -47.5 -80t-39.5 -84q4 9 12.5 26t17 34.5t15.5 30.5t10 15q-3 -3 -11.5 -20.5t-18 -38t-17.5 -38t-9 -20.5q-13 -30 -24.5 -61t-20.5 -63
q-8 -31 -15.5 -61.5t-16.5 -61.5q-8 -26 -16.5 -54.5t-11.5 -53.5q2 8 5 12l-0.5 -8t-0.5 -17.5t0.5 -18t0.5 -11.5q2 -9 2 -11.5t8 -1.5q6 1 13 6t13 11.5t11.5 13t9.5 10.5q5 7 14 20.5t17 16.5q6 3 8.5 2t5.5 -8q5 -11 0 -27.5t-9 -27.5q-5 -13 -11 -23.5t-14 -21.5
q-11 -17 -24.5 -27.5t-35.5 -9.5q-43 3 -67 36q-20 27 -24 61t0 66q2 12 5.5 22t6.5 21q0 2 0.5 7.5t1 12t1 11.5t1.5 5q1 -1 1 -3q1 2 1 7q-1 -1 -1 2.5t0.5 8.5t1 9.5t1.5 6.5q2 10 5 19.5t6 19.5q5 18 8 36t9 36q-21 -34 -42.5 -67.5t-44.5 -65.5q-23 -29 -47 -56
t-49 -54l-6 -8q-5 -6 -10 -9l7 7q3 3 5 6l-19 -18q4 3 3.5 2t-2.5 -3.5t-5.5 -5.5t-4.5 -4q-7 -7 -19 -9q-5 -1 -11 0t-11 3q-31 10 -57.5 34t-42.5 52q-8 16 -10 32t-1 33q3 32 9 64q1 2 2.5 10t4 17t4.5 16t4 7q-1 -4 -1 -7v-6q3 14 6 27t7 26l-6 -13q-1 6 1 13t5 14.5
t5.5 15t4.5 12.5q3 11 6 21t7 21q8 27 18 53t22 52q12 28 23 56t25 55q7 13 13 27t16 25q6 7 9.5 10.5t7.5 12.5q11 23 23.5 47.5t28.5 44.5q3 4 6 7.5t8 6.5q11 6 22.5 3.5t22 -9t18.5 -16.5t13 -19q6 -17 2.5 -24.5t-11.5 -17.5q6 4 6 3q0 -2 -6.5 -12t-14 -20.5t-15 -19
t-8.5 -8.5q2 4 5 8q2 4 4.5 8t4.5 7q-17 -24 -32.5 -49t-29.5 -51q6 8 8 9q-5 -5 -16.5 -30.5t-24 -55t-23 -55.5t-12.5 -31q-17 -42 -31.5 -85.5t-25.5 -88.5l3 30l-1 -6q0 2 0.5 4.5t0.5 4.5l-6 -25l4 10q-2 -19 -6.5 -38.5t-8 -39t-5 -39.5t1.5 -40q1 -5 3 -13t8 -11
q9 -4 24.5 7.5t31 28t28.5 33t17 21.5l50 58t45 58q-2 -2 -7 -9t-8 -6q10 16 19 30q8 12 14.5 22.5t8.5 13.5q12 17 23.5 34t22.5 34l98 148q6 9 12.5 20.5t14 23t15.5 21t16 15.5q10 7 23.5 6.5t25.5 -6t20.5 -15.5t10.5 -22zM353 65q7 30 10 57.5t11 57.5
q-10 -26 -17.5 -52.5t-12.5 -55.5q-6 -35 -7.5 -72t5.5 -72q-6 31 -1 68.5t12 68.5zM186 445q-12 -30 -23.5 -60t-20.5 -61q-4 -11 -6.5 -21t-4.5 -21q11 40 26.5 78.5t32.5 78.5q23 51 48.5 99t57.5 93q-32 -44 -60.5 -89.5t-49.5 -96.5zM163 348q4 10 11.5 28t16 38.5
t18 41.5t17.5 38q-35 -71 -63 -146zM487 302l-18 -46q7 14 11 26zM240 523v1v-1zM315 655q0 -2 -2 -2q2 0 2 2zM554 746q2 -1 -2.5 -7t-11 -12.5t-13 -12.5t-7.5 -7q-11 -13 -26 -24.5t-28 -21.5q-3 -2 -11.5 -7.5t-13.5 -1.5q-4 3 -2.5 10.5t4.5 16.5t7 17.5t6 11.5l37 64
q2 5 1.5 8t8.5 4q4 1 10.5 -0.5t7.5 -1.5q8 -2 15.5 -6t12.5 -12q2 -2 3 -9t2 -9z" />
    <glyph glyph-name="Ucircumflex" unicode="&#xdb;" horiz-adv-x="562" 
d="M614 540q1 -8 -2.5 -11t-7.5 -7q1 1 3 1q1 0 -2.5 -6t-8 -13t-9 -12.5t-5.5 -4.5q-1 0 0.5 2.5t3 6t3 6l1.5 2.5q-26 -39 -47.5 -80t-39.5 -84q4 9 12.5 26t17 34.5t15.5 30.5t10 15q-3 -3 -11.5 -20.5t-18 -38t-17.5 -38t-9 -20.5q-13 -30 -24.5 -61t-20.5 -63
q-8 -31 -15.5 -61.5t-16.5 -61.5q-8 -26 -16.5 -54.5t-11.5 -53.5q2 8 5 12l-0.5 -8t-0.5 -17.5t0.5 -18t0.5 -11.5q2 -9 2 -11.5t8 -1.5q6 1 13 6t13 11.5t11.5 13t9.5 10.5q5 7 14 20.5t17 16.5q6 3 8.5 2t5.5 -8q5 -11 0 -27.5t-9 -27.5q-5 -13 -11 -23.5t-14 -21.5
q-11 -17 -24.5 -27.5t-35.5 -9.5q-43 3 -67 36q-20 27 -24 61t0 66q2 12 5.5 22t6.5 21q0 2 0.5 7.5t1 12t1 11.5t1.5 5q1 -1 1 -3q1 2 1 7q-1 -1 -1 2.5t0.5 8.5t1 9.5t1.5 6.5q2 10 5 19.5t6 19.5q5 18 8 36t9 36q-21 -34 -42.5 -67.5t-44.5 -65.5q-23 -29 -47 -56
t-49 -54l-6 -8q-5 -6 -10 -9l7 7q3 3 5 6l-19 -18q4 3 3.5 2t-2.5 -3.5t-5.5 -5.5t-4.5 -4q-7 -7 -19 -9q-5 -1 -11 0t-11 3q-31 10 -57.5 34t-42.5 52q-8 16 -10 32t-1 33q3 32 9 64q1 2 2.5 10t4 17t4.5 16t4 7q-1 -4 -1 -7v-6q3 14 6 27t7 26l-6 -13q-1 6 1 13t5 14.5
t5.5 15t4.5 12.5q3 11 6 21t7 21q8 27 18 53t22 52q12 28 23 56t25 55q7 13 13 27t16 25q6 7 9.5 10.5t7.5 12.5q11 23 23.5 47.5t28.5 44.5q3 4 6 7.5t8 6.5q11 6 22.5 3.5t22 -9t18.5 -16.5t13 -19q6 -17 2.5 -24.5t-11.5 -17.5q6 4 6 3q0 -2 -6.5 -12t-14 -20.5t-15 -19
t-8.5 -8.5q2 4 5 8q2 4 4.5 8t4.5 7q-17 -24 -32.5 -49t-29.5 -51q6 8 8 9q-5 -5 -16.5 -30.5t-24 -55t-23 -55.5t-12.5 -31q-17 -42 -31.5 -85.5t-25.5 -88.5l3 30l-1 -6q0 2 0.5 4.5t0.5 4.5l-6 -25l4 10q-2 -19 -6.5 -38.5t-8 -39t-5 -39.5t1.5 -40q1 -5 3 -13t8 -11
q9 -4 24.5 7.5t31 28t28.5 33t17 21.5l50 58t45 58q-2 -2 -7 -9t-8 -6q10 16 19 30q8 12 14.5 22.5t8.5 13.5q12 17 23.5 34t22.5 34l98 148q6 9 12.5 20.5t14 23t15.5 21t16 15.5q10 7 23.5 6.5t25.5 -6t20.5 -15.5t10.5 -22zM353 65q7 30 10 57.5t11 57.5
q-10 -26 -17.5 -52.5t-12.5 -55.5q-6 -35 -7.5 -72t5.5 -72q-6 31 -1 68.5t12 68.5zM186 445q-12 -30 -23.5 -60t-20.5 -61q-4 -11 -6.5 -21t-4.5 -21q11 40 26.5 78.5t32.5 78.5q23 51 48.5 99t57.5 93q-32 -44 -60.5 -89.5t-49.5 -96.5zM163 348q4 10 11.5 28t16 38.5
t18 41.5t17.5 38q-35 -71 -63 -146zM487 302l-18 -46q7 14 11 26zM240 523v1v-1zM315 655q0 -2 -2 -2q2 0 2 2zM570 766q2 -20 1.5 -41t-2.5 -41q-1 -11 -8.5 -22.5t-23.5 -5.5q-12 4 -18.5 17t-10 28t-4 30t-0.5 24q-11 -11 -20.5 -20t-19.5 -20q-11 -12 -26.5 -25.5
t-30.5 -18.5q-13 -5 -13 2t6 17t14.5 20.5t11.5 13.5q11 12 24 27t27 29t29.5 25.5t32.5 16.5q17 7 25 -11q2 -7 2 -13.5t1 -13.5q0 -2 -1 -5t0 -5q0 -2 2 -3t2 -5z" />
    </font>
</defs>
</svg>
