<?xml version="1.0" standalone="no"?>
<!DOCTYPE svg PUBLIC "-//W3C//DTD SVG 20010904//EN"
 "http://www.w3.org/TR/2001/REC-SVG-20010904/DTD/svg10.dtd">
<svg version="1.0" xmlns="http://www.w3.org/2000/svg"
 width="200.000000pt" height="200.000000pt" viewBox="0 0 200.000000 200.000000"
 preserveAspectRatio="xMidYMid meet">
<metadata>
Created by potrace 1.11, written by Peter Selinger 2001-2013
</metadata>
<g transform="translate(0.000000,200.000000) scale(0.100000,-0.100000)"
fill="#000000" stroke="none">
<path d="M1179 1690 c-94 -28 -217 -114 -284 -199 l-45 -56 38 -33 37 -32 -35
19 c-100 56 -182 16 -236 -114 -48 -116 9 -298 138 -438 45 -49 47 -55 41 -92
-15 -97 -12 -131 16 -162 9 -10 36 -42 60 -71 40 -50 42 -54 27 -71 -23 -26
-37 -78 -26 -105 16 -42 119 -53 243 -26 42 10 57 18 61 34 6 23 -1 242 -8
254 -2 4 -7 27 -10 52 -8 55 -15 100 -21 120 -2 8 -7 31 -10 50 -3 19 -10 50
-15 68 -4 17 -6 32 -4 32 6 0 51 -100 59 -132 6 -24 9 -25 38 -17 18 5 33 9
35 9 2 0 -8 -15 -21 -32 -13 -18 -23 -37 -22 -43 3 -31 20 -79 53 -149 39 -85
40 -83 -17 -115 -8 -5 -15 -27 -16 -55 l-1 -46 40 -8 c40 -8 169 -7 193 2 18
7 90 251 117 395 40 211 39 435 -1 515 -25 50 -74 96 -131 122 -71 33 -80 31
-84 -13 -2 -24 -8 -37 -16 -35 -9 1 -8 -5 4 -23 15 -24 15 -25 -18 -40 -18 -8
-24 -13 -13 -11 88 19 85 19 85 -5 0 -29 -34 -82 -62 -98 -54 -28 -130 41
-114 103 6 24 4 25 -39 24 -54 -1 -84 21 -83 61 0 14 -3 43 -7 64 l-8 37 35 0
c20 0 60 -5 89 -10 45 -9 60 -8 92 6 45 21 49 48 9 68 -20 11 -32 29 -45 69
-17 53 -70 138 -85 136 -4 0 -19 -4 -33 -9z"/>
<path d="M1258 1393 c-54 -2 -98 -8 -98 -13 0 -14 51 -50 70 -50 10 0 23 7 30
15 9 11 23 13 50 9 32 -5 40 -3 49 14 13 24 14 33 4 30 -5 -1 -52 -4 -105 -5z"/>
<path d="M1286 1325 c-2 -6 0 -18 4 -26 7 -11 10 -11 15 3 4 10 14 14 27 10
13 -3 19 -1 15 5 -10 16 -55 22 -61 8z"/>
<path d="M553 1018 c-70 -18 -106 -95 -83 -179 24 -86 16 -124 -40 -200 -53
-74 -69 -119 -63 -186 4 -59 19 -92 44 -101 12 -5 56 -7 98 -6 178 4 162 1
158 29 -1 14 -12 31 -22 39 -19 14 -18 18 40 135 55 111 62 121 87 121 25 0
28 4 29 33 0 17 2 41 4 52 3 13 -8 33 -30 55 -19 19 -58 76 -88 125 -58 96
-65 101 -134 83z"/>
<path d="M750 616 c0 -15 12 -34 31 -50 28 -24 29 -27 15 -47 -13 -19 -13 -27
1 -73 27 -93 56 -101 91 -26 l23 50 -25 25 c-41 41 -74 89 -81 118 -5 20 -13
27 -31 27 -19 0 -24 -5 -24 -24z"/>
</g>
</svg>
