<?xml version="1.0" standalone="no"?>
<!DOCTYPE svg PUBLIC "-//W3C//DTD SVG 1.1//EN" "http://www.w3.org/Graphics/SVG/1.1/DTD/svg11.dtd" >
<svg xmlns="http://www.w3.org/2000/svg" xmlns:xlink="http://www.w3.org/1999/xlink" version="1.1">
<metadata>
Created by FontForge 20160405 at Thu Jun 21 00:44:44 2018
 By www-data
Copyright (c) 2012 by Doan BC doanbc1502@gmail.com. All rights reserved.
</metadata>
<defs>
<font id="VNF-Optima" horiz-adv-x="1024" >
  <font-face 
    font-family="VNF-Optima"
    font-weight="400"
    font-stretch="normal"
    units-per-em="2048"
    panose-1="2 11 5 0 4 0 0 2 0 4"
    ascent="1638"
    descent="-410"
    x-height="985"
    cap-height="1407"
    bbox="-336 -565 2048 2277"
    underline-thickness="50"
    underline-position="-150"
    unicode-range="U+000D-FB02"
  />
<missing-glyph 
d="M0 1434h1024v-1434h-1024v1434zM860 1331h-696l348 -522zM922 195v1044l-349 -522zM860 102l-348 523l-348 -523h696zM102 195l349 522l-349 522v-1044z" />
    <glyph glyph-name=".notdef" 
d="M0 1434h1024v-1434h-1024v1434zM860 1331h-696l348 -522zM922 195v1044l-349 -522zM860 102l-348 523l-348 -523h696zM102 195l349 522l-349 522v-1044z" />
    <glyph glyph-name=".null" 
 />
    <glyph glyph-name=".null" 
 />
    <glyph glyph-name="nonmarkingreturn" unicode="&#xd;" 
 />
    <glyph glyph-name="_32" unicode=" " horiz-adv-x="522" 
 />
    <glyph glyph-name="exclam" unicode="!" horiz-adv-x="909" 
d="M338 1184q-3 29 -4.5 44t-1.5 32q0 10 2 34.5t12.5 50t33.5 45t66 19.5q41 0 64 -17.5t34.5 -41.5t14 -49t2.5 -39q0 -19 -1.5 -36.5t-4.5 -43.5l-82 -828q-18 3 -30.5 2.5t-24.5 -2.5zM449 236q27 0 50.5 -10.5t41 -28.5t27.5 -41.5t10 -49.5q0 -27 -10 -50.5
t-27.5 -41.5t-41 -28.5t-50.5 -10.5q-28 0 -52 10.5t-42 28t-28 41t-10 49.5q0 27 10 51t28 42t42 28.5t52 10.5z" />
    <glyph glyph-name="quotedbl" unicode="&#x22;" 
d="M315 838l-53 585h172l-53 -585h-66zM643 838l-53 585h172l-53 -585h-66z" />
    <glyph glyph-name="numbersign" unicode="#" 
d="M113 0l69 377h-215v125h240l49 286h-213v125h240l79 437h144l-80 -437h260l82 437h143l-82 -437h215v-125h-237l-53 -286h215v-125h-238l-69 -377h-144l70 377h-262l-70 -377h-143zM348 502h262l54 286h-263z" />
    <glyph glyph-name="dollar" unicode="$" 
d="M799 1122q-7 20 -20.5 49t-41 57t-73 51t-117.5 32v-502q26 -11 51.5 -21t54.5 -22q57 -24 108.5 -52.5t91 -68.5t62.5 -96t23 -135q0 -91 -37.5 -177.5t-103.5 -148.5q-34 -31 -66.5 -50.5t-64 -31.5t-61.5 -18.5t-58 -12.5v-50t1 -38.5t3 -41.5t6 -60q-11 2 -23.5 3
t-29.5 1q-19 0 -32 -1t-26 -3q4 32 6.5 54.5t4 42t2 39t0.5 46.5q-29 -1 -71.5 -0.5t-94 10.5t-109.5 33t-118 68q21 69 27.5 112t8.5 74h25q39 -74 87 -115.5t94.5 -61.5t87 -24.5t63.5 -5.5v566q-57 23 -94.5 38t-64.5 28t-47.5 25.5t-43.5 30.5q-36 28 -58 63t-34.5 71
t-16.5 69.5t-4 59.5q0 70 18 124t48 95.5t68.5 70.5t79 48.5t79.5 30t70 14.5q-1 23 -1.5 38.5t-1.5 32.5t-3.5 39.5t-6.5 59.5q19 -2 34 -3.5t24 -1.5q12 0 26.5 1.5t26.5 3.5q-3 -40 -5 -64.5t-3 -41t-1.5 -29t-0.5 -29.5q108 -5 189 -29.5t149 -62.5q-25 -50 -38 -93.5
t-20 -87.5zM459 1307q-9 -2 -27.5 -6.5t-40.5 -14.5t-45.5 -26t-42.5 -40.5t-31 -58.5t-12 -80q0 -59 21 -99.5t52 -67.5t65.5 -43.5t60.5 -26.5v463zM547 66q102 24 158.5 88t56.5 170q0 64 -21 107.5t-53.5 73.5t-70 49t-70.5 34v-522z" />
    <glyph glyph-name="percent" unicode="%" horiz-adv-x="1821" 
d="M766 1096q0 -73 -25 -135.5t-70 -108t-107 -71t-136 -25.5q-73 0 -135 25.5t-107 71t-70.5 108t-25.5 135.5t25.5 135t70.5 107.5t107 71.5t135 26q74 0 136 -26t107 -71.5t70 -107.5t25 -135zM428 1386q-54 0 -89 -29.5t-55.5 -73.5t-28 -94.5t-7.5 -92.5
q0 -45 7.5 -96.5t28 -94.5t55.5 -71.5t89 -28.5q57 0 92 28.5t54.5 71.5t26.5 94.5t7 96.5q0 42 -7 92.5t-26.5 94.5t-54.5 73.5t-92 29.5zM1731 303q0 -73 -25.5 -135t-70.5 -107.5t-107 -71.5t-135 -26t-135 26t-107 71.5t-70.5 107.5t-25.5 135t25.5 135.5t70.5 108
t107 71t135 25.5t135 -25.5t107 -71t70.5 -108t25.5 -135.5zM1393 594q-55 0 -90 -29.5t-55.5 -73.5t-28 -95t-7.5 -93q0 -45 7.5 -96.5t28 -94.5t55.5 -71.5t90 -28.5q57 0 92 28.5t54.5 71.5t26.5 94.5t7 96.5q0 42 -7 93t-26.5 95t-54.5 73.5t-92 29.5zM1262 1479l22 -4
t27 -2q29 0 47 6l-795 -1551q-24 6 -51 6q-14 0 -25.5 -1.5t-25.5 -4.5z" />
    <glyph glyph-name="ampersand" unicode="&#x26;" horiz-adv-x="1479" 
d="M1255 772q17 -25 44.5 -54t56.5 -44q-32 -63 -67.5 -121t-69.5 -107t-63.5 -87t-49.5 -60q18 -21 45 -52t61 -67.5t75 -78t89 -83.5v-28q-31 9 -60 10.5t-61 1.5h-26.5t-33.5 -1.5t-36.5 -4t-36.5 -6.5q-51 65 -89.5 106.5t-59.5 63.5q-28 -28 -67 -62t-92 -64
t-123 -50.5t-159 -20.5q-98 0 -173 27.5t-127 76.5t-78.5 115t-26.5 144q0 67 19 123.5t61 106t108.5 95.5t161.5 94q-43 56 -69 102.5t-39.5 85t-18 69t-4.5 55.5q0 51 16.5 107.5t54 104.5t99.5 79.5t154 31.5q74 0 127 -19t86.5 -51.5t49 -75.5t15.5 -91q0 -60 -20 -107
t-55.5 -87.5t-85 -78t-107.5 -79.5q43 -53 92.5 -114t98.5 -119.5t94.5 -111t81.5 -88.5q24 22 55 66t59.5 100t50 119t27.5 125zM500 1128q0 -35 9 -67.5t26.5 -66t43.5 -70t60 -80.5q50 31 85.5 68t58.5 77t33.5 79.5t10.5 74.5q0 32 -10 62.5t-29.5 54t-49 37.5t-68.5 14
t-70 -13.5t-53.5 -37.5t-34.5 -57.5t-12 -74.5zM313 397q0 -76 29 -135t75 -99.5t102.5 -61.5t111.5 -21q50 0 91.5 12t77 31.5t66.5 44t60 49.5q-27 27 -62 65.5t-73.5 82.5t-79 90.5t-77 90.5t-68 83t-52.5 67q-26 -15 -60.5 -38.5t-65.5 -59.5t-53 -85.5t-22 -115.5z" />
    <glyph glyph-name="quotesingle" unicode="'" horiz-adv-x="512" 
d="M223 838l-53 585h172l-53 -585h-66z" />
    <glyph glyph-name="parenleft" unicode="(" horiz-adv-x="682" 
d="M174 580q0 81 8.5 153t27 141.5t47.5 139.5t71 145q34 62 66 107.5t59.5 78t49 53t36.5 32.5q11 -13 20.5 -22.5t28.5 -25.5q-49 -54 -96 -132.5t-83.5 -180.5t-58.5 -227.5t-22 -272.5q0 -133 19.5 -253t53.5 -223t79.5 -186.5t97.5 -142.5q-16 -12 -25.5 -20.5
t-20.5 -24.5q-24 24 -58 60t-72 87t-77 119t-73 156q-13 33 -27 76.5t-25 98t-18.5 120.5t-7.5 144z" />
    <glyph glyph-name="parenright" unicode=")" horiz-adv-x="682" 
d="M508 578q0 -158 -32 -289.5t-95 -257.5q-32 -62 -63 -110t-60.5 -85t-56.5 -65.5t-51 -51.5q-13 16 -22.5 25t-23.5 20q52 58 97.5 142t79.5 187t53.5 223.5t19.5 252.5q0 135 -19 254.5t-53.5 222t-82 187t-105.5 149.5q19 14 28 24t21 24q15 -13 36 -33t47 -51
t56.5 -74.5t65.5 -104.5q42 -74 72.5 -144t50 -140.5t28.5 -145.5t9 -159z" />
    <glyph glyph-name="asterisk" unicode="*" 
d="M786 1309q12 -26 20.5 -43t16.5 -29t16 -21.5t17 -19.5q-65 -27 -106 -44t-70 -29.5t-52 -24t-53 -27.5q21 -12 52 -27.5t67.5 -32t77 -32.5t80.5 -31q-13 -17 -21.5 -29.5t-15 -24.5t-12 -26t-12.5 -34q-26 18 -58.5 41.5t-65.5 48.5t-65 48.5t-57 41.5q1 -21 4 -56.5
t7 -77t9 -86t10 -83.5q-14 3 -28 5.5t-33 2.5t-35 -2.5t-35 -5.5q2 10 6.5 42t9.5 74.5t10 91t7 93.5q-63 -38 -123.5 -84.5t-120.5 -91.5q-8 22 -14 36.5t-13 25.5t-15.5 22.5t-22.5 27.5q31 13 68 28.5t74 32t71 32.5t61 30q-25 15 -60.5 31t-74 32.5t-75 31t-64.5 26.5
q15 18 25 31t17 25.5t12 26t11 32.5q30 -23 62 -48t64 -48.5t62 -44.5t56 -36q-2 36 -6 79.5t-9 86t-10 78.5t-8 56q17 -4 34.5 -6.5t37.5 -2.5q17 0 29.5 2t29.5 7q-3 -22 -8 -59.5t-9.5 -80.5t-7.5 -85t-3 -72q29 18 62.5 41t65.5 47.5t61 47.5t50 40z" />
    <glyph glyph-name="plus" unicode="+" horiz-adv-x="1214" 
d="M539 442h-447v123h447v441h135v-441h446v-123h-446v-442h-135v442z" />
    <glyph glyph-name="comma" unicode="," horiz-adv-x="512" 
d="M160 111q12 43 25.5 70.5t28.5 43.5t32 21.5t37 5.5q24 0 40.5 -8.5t26 -22t13.5 -29t4 -30.5q0 -11 -5.5 -36.5t-25.5 -59.5l-266 -443q-14 6 -22 9.5t-23 7.5z" />
    <glyph glyph-name="hyphen" unicode="-" horiz-adv-x="682" 
d="M590 416q-59 3 -100.5 5t-74 3t-58.5 1.5t-54 0.5q-33 0 -59.5 -0.5t-51 -2t-48.5 -3.5t-52 -4q3 20 5.5 39.5t2.5 50.5q0 29 -2.5 48t-5.5 38q59 -3 123.5 -6.5t132.5 -3.5q33 0 63 0.5t59 2t58.5 3.5t61.5 4q-3 -20 -5.5 -38t-2.5 -50t2.5 -50t5.5 -38z" />
    <glyph glyph-name="period" unicode="." horiz-adv-x="512" 
d="M258 236q27 0 50.5 -10.5t41 -28.5t27.5 -41.5t10 -49.5q0 -27 -10 -50.5t-27.5 -41.5t-41 -28.5t-50.5 -10.5q-28 0 -52 10.5t-41.5 28t-27.5 41t-10 49.5q0 27 10 51t27.5 42t41.5 28.5t52 10.5z" />
    <glyph glyph-name="slash" unicode="/" horiz-adv-x="569" 
d="M111 -39q-16 3 -30.5 4.5t-37.5 1.5q-22 0 -33.5 -1.5t-23.5 -4.5l473 1417q14 -3 29 -4.5t36 -1.5q22 0 35.5 1.5t26.5 4.5z" />
    <glyph glyph-name="zero" unicode="0" 
d="M961 698q0 -26 -1 -71.5t-6.5 -102t-17.5 -120t-33 -126t-53.5 -119.5t-80 -100.5t-111 -69.5t-146.5 -26q-106 0 -181 35.5t-125 93.5t-78.5 132t-43 151t-18 151t-3.5 131q0 60 4 138t18.5 159t43.5 158.5t79 138.5t124 98t180 37t181 -37t125 -97t78.5 -135.5t43 -152
t18 -146.5t3.5 -120zM756 715q0 129 -9 238t-35.5 188t-74 123.5t-125.5 44.5q-57 0 -97.5 -27.5t-67.5 -74t-43 -108.5t-24 -131t-10 -141t-2 -139q0 -66 1 -139t8 -145t21 -137.5t41 -116t68 -80t101 -29.5q64 0 110.5 39.5t77 122t45.5 210t15 302.5z" />
    <glyph glyph-name="one" unicode="1" 
d="M47 1083q34 11 83.5 30.5t107.5 45t120.5 55.5t123 63t115 67t95.5 67l23 -14q-2 -16 -3.5 -28.5t-3 -24t-2 -24t-1.5 -28.5q-4 -56 -6.5 -145.5t-4.5 -194.5t-3 -217.5t-2 -213.5t-1 -182v-124q0 -87 1 -140.5t3 -84.5q-37 6 -63 9t-54 3q-29 0 -54 -3t-54 -9q4 30 8 69
t8 82t6.5 88t2.5 86q0 10 0.5 56t0.5 116t1 158.5t1 183.5t0.5 190t0.5 179q-11 -6 -36.5 -19.5t-58.5 -32t-70.5 -40t-74 -43t-69 -42t-54.5 -36.5q-11 19 -28.5 40.5t-57.5 43.5v14z" />
    <glyph glyph-name="two" unicode="2" 
d="M33 47q117 102 224.5 213t207.5 229q30 35 67 82.5t69.5 108.5t54.5 136.5t22 166.5q0 22 -2.5 54.5t-11 67.5t-25 70t-44 63t-67.5 45t-96 17q-38 0 -82 -14t-80.5 -47.5t-60 -89t-21.5 -137.5l-32 -6q-17 48 -46 82t-49 53q7 13 20 36.5t35 51t54 56t76 52t101 38
t130 14.5q99 0 176 -28t130 -77.5t80.5 -116.5t27.5 -145q0 -70 -19.5 -134.5t-50.5 -122.5t-70 -108t-77 -90l-400 -407h394q72 0 143.5 3t140.5 11q-5 -20 -7.5 -44t-2.5 -52q0 -31 2.5 -52t7.5 -36q-45 3 -114 6.5t-144 3.5t-159 -1t-170.5 -2.5t-171 -3.5t-160.5 -3v57z
" />
    <glyph glyph-name="three" unicode="3" 
d="M100 209q29 -51 65.5 -82t74 -48t73 -22.5t64.5 -5.5q93 0 153 32.5t95.5 82t49 107t13.5 108.5q0 81 -25 137.5t-67 92t-98 51.5t-117 16q-32 0 -52.5 -4t-43.5 -12q2 12 3 24t1 31q0 20 -1 32.5t-3 26.5q23 -6 47.5 -10t52.5 -4q69 0 116.5 26.5t77.5 67.5t43 91t13 97
q0 62 -17.5 110.5t-48.5 82t-73.5 51t-92.5 17.5q-34 0 -63 -7.5t-52.5 -19.5t-42 -27t-30.5 -30q-25 -29 -32.5 -57t-10.5 -56l-31 2q-5 25 -10 43.5t-11.5 33.5t-15.5 29.5t-22 32.5q21 19 51.5 43t73 45t98.5 35t129 14q40 0 85.5 -6t90 -20.5t85 -38t71.5 -58.5
t49.5 -82.5t18.5 -109.5q0 -60 -20 -112t-55.5 -94t-84.5 -73t-107 -49q-24 -6 -30.5 -8.5t-6.5 -5.5q0 -6 4 -7t7 -1q27 0 64 -5.5t77 -19t79.5 -36.5t70.5 -59t50 -86.5t19 -117.5q0 -91 -37.5 -169.5t-107 -136t-168 -90t-221.5 -32.5q-64 0 -114 8.5t-89.5 21t-69 27.5
t-51.5 27q7 18 12 33.5t8.5 32.5t5 38t1.5 50z" />
    <glyph glyph-name="four" unicode="4" 
d="M274 371q-19 0 -52 -0.5t-71.5 -2t-79.5 -3t-75 -3.5q2 19 1.5 29.5t-3.5 32.5q14 17 49 65.5t82 116.5t103 149t112.5 164t109.5 161t94.5 140t68.5 102t30 46q19 -3 39.5 -6.5t48.5 -3.5q26 0 43.5 3.5t34.5 6.5q-4 -72 -6 -127.5t-4 -108t-3 -108t-1.5 -127.5
t-1.5 -166.5t-2 -224.5q34 1 56.5 1.5t42 1.5t40 2t51.5 3q-5 -19 -7.5 -38t-2.5 -42q0 -25 2.5 -41.5t7.5 -32.5q-17 2 -35 4t-40 3.5t-50 2.5t-65 1q0 -11 0.5 -33.5t0.5 -50t1 -58t1 -58t0.5 -48.5t0.5 -31q1 -24 1.5 -39t0.5 -25.5v-19v-18.5q-29 6 -53 10t-50 4
q-24 0 -47.5 -4t-54.5 -10q5 59 10.5 156t5.5 225h-334zM610 506v649q-30 -42 -71.5 -101t-86 -122.5t-87.5 -125t-76 -108.5q-23 -35 -40 -60t-30.5 -46.5t-25.5 -41.5t-27 -44h444z" />
    <glyph glyph-name="five" unicode="5" 
d="M156 655q2 62 4 114.5t3.5 98.5t2 87t0.5 81q0 59 -1 104.5t-3 83t-4.5 70.5t-5.5 68q21 -2 45 -4t61.5 -3.5t91.5 -3t135 -1.5q71 0 127.5 1.5t101.5 3t79.5 3.5t62.5 4q-2 -22 -6 -43t-4 -55q0 -26 3.5 -46.5t6.5 -37.5q-79 7 -168.5 11t-171.5 5.5t-148 2t-98 -0.5
q-8 -116 -11 -225.5t-3 -208.5q15 7 33.5 15.5t43.5 15.5t57.5 11.5t76.5 4.5q87 0 165 -21.5t137 -67t93.5 -117.5t34.5 -173q0 -107 -40.5 -194t-112.5 -148.5t-172 -95t-218 -33.5q-27 0 -64 3t-79 12.5t-87.5 27.5t-90.5 49q7 26 11 46t7 37t5.5 34.5t4.5 38.5l23 2
q21 -41 53 -72t70 -52t79.5 -31.5t82.5 -10.5q67 0 125.5 23.5t101.5 69t67.5 112t24.5 151.5q0 89 -28.5 149.5t-72 97.5t-96 53t-100.5 16q-44 0 -79 -9.5t-61 -22.5t-43 -26t-26 -20z" />
    <glyph glyph-name="six" unicode="6" 
d="M778 1288q-21 6 -43.5 11.5t-56.5 5.5q-76 0 -146.5 -37t-125.5 -115.5t-90.5 -199.5t-41.5 -289q14 24 39.5 51.5t63.5 51.5t89 40t116 16q87 0 158 -27t121.5 -78.5t78 -125.5t27.5 -168q0 -101 -32.5 -185t-90.5 -145t-138.5 -95t-177.5 -34q-70 0 -124.5 15.5
t-95 38.5t-68 49.5t-43.5 48.5q-23 30 -46 69t-41 93.5t-29 128t-11 172.5q0 191 49 340.5t131 252.5t189.5 157t224.5 54q35 0 59.5 -3.5t46.5 -6.5q1 -9 2 -16.5t2.5 -15.5t4 -19t7.5 -27zM520 45q69 0 115.5 31t74.5 80.5t40 112.5t12 128q0 48 -8 106t-32.5 107.5
t-69.5 83t-120 33.5q-57 0 -103.5 -22t-79.5 -65t-51.5 -107t-18.5 -148q0 -87 18.5 -151t51 -106t76.5 -62.5t95 -20.5z" />
    <glyph glyph-name="seven" unicode="7" 
d="M1020 1333q-21 -34 -51 -83.5t-64.5 -108.5t-72.5 -123.5t-75 -128.5t-71.5 -124.5t-63 -110t-49 -85.5t-28.5 -51q-51 -95 -90.5 -172t-70.5 -141t-55.5 -117t-45.5 -98q-17 5 -37 8.5t-49 3.5q-28 0 -50 -3.5t-41 -8.5l-6 16q64 99 113 174.5t89 138.5t74.5 118.5
t70.5 114.5t76 126t91 153q51 87 103.5 176.5t95.5 176.5h-266q-103 -1 -168.5 -2t-112.5 -3t-85.5 -5t-86.5 -9q5 22 7.5 45.5t2.5 57.5t-2.5 57t-7.5 43q31 -3 63.5 -6t67.5 -6q91 -8 186 -9t179 -1q24 0 71 0.5t106 1.5t124 3t127 5z" />
    <glyph glyph-name="eight" unicode="8" 
d="M616 770q21 -2 46.5 -4.5t53.5 -9.5t57.5 -19.5t57.5 -34.5q15 -12 37.5 -34.5t43.5 -58.5t36 -86.5t15 -119.5q0 -109 -34 -191t-95 -137t-145.5 -82.5t-184.5 -27.5q-108 0 -191 30t-139.5 84t-85.5 129.5t-29 166.5q0 59 10.5 105t27 82t37.5 63t42 47q29 25 59 42
t58 27.5t52 16.5t42 10q-122 29 -189 101t-67 192q0 55 20.5 112.5t66 104t118.5 76.5t178 30q91 0 162 -22t120 -61.5t74 -95.5t25 -124q0 -80 -29.5 -138.5t-72.5 -96.5q-44 -38 -88.5 -52.5t-88.5 -23.5zM510 799q34 0 68 14t61 45.5t44 82.5t17 126q0 34 -6 75.5
t-25.5 78t-55.5 61.5t-95 25q-47 0 -79 -15t-53 -39t-32.5 -53.5t-16.5 -58t-6 -52.5t-1 -38t1.5 -38.5t7 -52.5t17 -56.5t31.5 -52t50 -38t73 -14.5zM508 43q58 0 104.5 24t78 69t48.5 109.5t17 145.5q0 56 -9.5 115t-36 107t-73 79t-121.5 31q-62 0 -104.5 -21t-70 -54
t-42.5 -73t-22 -77.5t-8 -68t-1 -44.5q0 -62 11 -123t38 -109.5t73.5 -79t117.5 -30.5z" />
    <glyph glyph-name="nine" unicode="9" 
d="M178 121q24 -23 49 -37.5t48.5 -22.5t44.5 -11t38 -3q77 0 145 43t119.5 124.5t81.5 198.5t31 265q-15 -20 -31 -38.5t-42 -37.5q-36 -25 -71 -39t-65.5 -21t-54 -8.5t-37.5 -1.5q-90 0 -160.5 31.5t-118.5 86.5t-73 129t-25 159q0 91 28 172.5t83 143.5t136.5 98.5
t189.5 36.5q103 0 176.5 -30t124 -78.5t80.5 -111t46.5 -127.5t21.5 -127.5t5 -111.5q0 -105 -15.5 -203.5t-45 -186t-72.5 -162.5t-98 -134q-44 -47 -92.5 -75.5t-97 -44.5t-94.5 -21t-85 -5q-31 0 -52.5 2t-38 5.5t-30 8l-28.5 9.5q-6 19 -10 32.5t-8.5 25.5t-10 25
t-12.5 30zM496 627q60 0 101 21t67.5 53.5t41 71.5t21 76.5t7.5 67.5t1 44q0 23 -2 55.5t-8.5 68.5t-19 72t-33.5 66q-26 35 -71.5 59.5t-98.5 24.5q-49 0 -93 -22.5t-77 -67t-52.5 -111t-19.5 -154.5q0 -64 12.5 -122.5t41 -103.5t73 -72t109.5 -27z" />
    <glyph glyph-name="colon" unicode=":" horiz-adv-x="512" 
d="M250 948q27 0 50.5 -10.5t41 -28t27.5 -41t10 -49.5q0 -28 -10.5 -52t-28 -41.5t-41 -27.5t-49.5 -10q-27 0 -51 10t-41.5 27.5t-28 41t-10.5 50.5t10 51t27.5 41.5t41.5 28t52 10.5zM250 236q27 0 50.5 -10.5t41 -28.5t27.5 -41.5t10 -49.5q0 -27 -10 -50.5t-27.5 -41.5
t-41 -28.5t-50.5 -10.5q-28 0 -52 10.5t-41.5 28t-27.5 41t-10 49.5q0 27 10 51t27.5 42t41.5 28.5t52 10.5z" />
    <glyph glyph-name="semicolon" unicode=";" horiz-adv-x="512" 
d="M264 948q27 0 50.5 -10.5t41 -28t27.5 -41t10 -49.5q0 -28 -10.5 -52t-28 -41.5t-41 -27.5t-49.5 -10q-27 0 -50.5 10.5t-41.5 28.5t-28.5 41.5t-10.5 50.5q0 26 10 49.5t27.5 41t41.5 28t52 10.5zM160 111q12 43 25.5 70.5t28.5 43.5t31.5 21.5t35.5 5.5q24 0 40.5 -8.5
t26.5 -22t14.5 -29t4.5 -30.5q0 -11 -6 -36.5t-27 -59.5l-264 -445q-14 8 -22 10.5t-23 6.5z" />
    <glyph glyph-name="less" unicode="&#x3c;" horiz-adv-x="1214" 
d="M94 567l1026 410v-137l-866 -340l866 -336v-137l-1026 407v133z" />
    <glyph glyph-name="equal" unicode="=" horiz-adv-x="1214" 
d="M92 758h1028v-123h-1028v123zM92 369h1028v-123h-1028v123z" />
    <glyph glyph-name="greater" unicode="&#x3e;" horiz-adv-x="1214" 
d="M94 27v137l864 336l-864 340v137l1026 -410v-133z" />
    <glyph glyph-name="question" unicode="?" horiz-adv-x="909" 
d="M188 1217q-2 18 -4 30.5t-4 23.5t-5.5 23.5t-8.5 30.5q33 29 72 45t74 23.5t61.5 8.5t34.5 1q76 0 137 -21.5t104 -59.5t65.5 -89.5t22.5 -112.5q0 -58 -16.5 -105t-40.5 -84.5t-52.5 -67t-52.5 -52.5q-63 -61 -101 -102t-58.5 -71t-26.5 -52.5t-6 -46.5q0 -21 5.5 -41
t17.5 -35.5t31 -25t46 -9.5q23 0 36 5t32 16l12 -9q-8 -18 -11.5 -31t-6.5 -36q-16 -5 -31 -8t-41 -3q-73 0 -120 24t-74.5 59t-38.5 75t-11 72q0 45 14.5 85.5t38.5 77t54.5 70.5t62.5 66q42 41 73 74.5t50.5 64t29 60t9.5 63.5q0 35 -11.5 65.5t-33.5 53t-53.5 35
t-71.5 12.5q-126 0 -184 -107zM426 236q28 0 52 -10.5t41.5 -28.5t27.5 -41.5t10 -49.5q0 -27 -10 -50.5t-27.5 -41.5t-41.5 -28.5t-52 -10.5q-27 0 -50.5 10.5t-41 28t-27.5 41t-10 49.5q0 27 10 51t27.5 42t41 28.5t50.5 10.5z" />
    <glyph glyph-name="at" unicode="@" horiz-adv-x="1638" 
d="M1401 145q-128 -90 -266 -138t-295 -48q-151 0 -288.5 48.5t-242.5 138.5t-167 218t-62 287q0 103 28.5 201t80.5 184t126 157.5t165.5 123t197.5 80t223 28.5q148 0 269.5 -45t207.5 -123.5t133.5 -185t47.5 -229.5q0 -70 -15.5 -138t-43.5 -129t-66.5 -113t-84 -90
t-96.5 -59.5t-104 -21.5q-27 0 -57.5 7.5t-56.5 27t-44.5 52t-21.5 83.5q-15 -33 -37.5 -63.5t-51.5 -54.5t-66.5 -38t-82.5 -14q-59 0 -106 23.5t-80.5 63t-51.5 91.5t-18 109q0 62 17 121.5t46.5 112t69.5 96.5t85.5 76t94 49.5t95.5 17.5q21 0 50 -5.5t56.5 -20.5
t49.5 -41.5t30 -68.5l35 113h141q-41 -135 -70 -231.5t-47.5 -163.5t-27 -107.5t-8.5 -64.5q0 -31 10.5 -50.5t25.5 -31t31.5 -15.5t28.5 -4q49 0 102 40t97.5 106t73 152.5t28.5 179.5q0 114 -42.5 209t-118.5 163.5t-181.5 107t-231.5 38.5q-102 0 -194.5 -26.5
t-172.5 -74t-144.5 -113.5t-110.5 -144.5t-71 -167t-25 -181.5q0 -137 50 -250.5t138 -196t209 -128t262 -45.5q139 0 269.5 44.5t244.5 125.5zM623 530q0 -37 8.5 -68t25.5 -53.5t42 -35.5t57 -13q55 0 96 34.5t70 94.5q16 34 34.5 84.5t34.5 103.5t26.5 101.5t10.5 79.5
q0 30 -9.5 53t-25.5 38.5t-37.5 23.5t-44.5 8q-39 0 -75.5 -23t-68.5 -60.5t-58.5 -85.5t-45.5 -98.5t-29.5 -98.5t-10.5 -85z" />
    <glyph glyph-name="A" unicode="A" horiz-adv-x="1366" 
d="M365 526q-15 -35 -37.5 -86.5t-48 -119t-53 -150.5t-52.5 -180q-18 3 -36.5 7.5t-47.5 4.5t-49.5 -4.5t-40.5 -7.5q45 99 99.5 218.5t112.5 248t117 261t114 258.5t103 240.5t85 206.5q12 -2 23 -4t28 -2q14 0 23.5 1.5t21.5 4.5q30 -81 72 -185t90.5 -219.5t100.5 -236
t102 -234.5t95 -214.5t79 -176.5t54 -121t21 -46q-26 5 -54 8.5t-66 3.5q-41 0 -71.5 -3.5t-59.5 -8.5q-27 92 -55.5 171.5t-56 146.5t-52 121.5t-43.5 96.5h-518zM621 1137l-215 -508h436z" />
    <glyph glyph-name="B" unicode="B" horiz-adv-x="1251" 
d="M1075 1092q0 -60 -18 -106t-46 -80t-63 -58t-69 -39.5t-63 -24t-46 -12.5q-25 -6 -30 -8.5t-5 -7.5t6.5 -6t34.5 -5q100 -10 168.5 -44.5t111.5 -83t62 -106t19 -112.5q0 -44 -11.5 -91.5t-36.5 -92.5t-64.5 -85.5t-94.5 -70.5q-62 -34 -149 -49.5t-177 -15.5
q-14 0 -48 0.5t-71.5 1.5t-70.5 1.5t-45 0.5q-20 0 -38 -0.5t-39.5 -1.5t-47.5 -2.5t-60 -3.5q6 79 9.5 140t5.5 126t3 145.5t1 198.5q0 204 -4 405.5t-15 405.5q56 -6 110 -6h109q112 0 197 -1.5t149.5 -8t111 -20t81.5 -38.5q62 -43 97.5 -107t35.5 -138zM862 1063
q0 69 -27 118t-71 80t-101 45.5t-118 14.5q-31 0 -69.5 -2.5t-74.5 -7.5q-3 -63 -4.5 -129t-1.5 -131t1 -132t3 -133q48 -2 83 -3t63 0.5t51 4.5t47 9q52 11 93 35.5t69 59t42.5 78t14.5 93.5zM913 393q0 75 -22 127t-56.5 86t-78.5 53t-87.5 28t-83 11t-65.5 2
q-29 0 -54 -1.5t-67 -4.5q-2 -75 -3 -154.5t-1 -156.5q0 -74 1.5 -148.5t4.5 -146.5q28 -2 50.5 -3t56.5 -1q27 0 61.5 0.5t70 4t68.5 11t58 21.5q45 25 74 57t45 68t22 73.5t6 73.5z" />
    <glyph glyph-name="C" unicode="C" horiz-adv-x="1479" 
d="M1395 264q-8 -35 -14 -72t-9 -94q-114 -68 -243 -100.5t-265 -32.5q-178 0 -317.5 55t-236 153t-147 232.5t-50.5 292.5q0 148 46.5 280t143 230t244.5 155.5t350 57.5q93 0 170.5 -11t140.5 -27.5t111.5 -35.5t83.5 -34q-12 -32 -19.5 -54.5t-13 -44.5t-9 -46.5
t-7.5 -59.5h-21q-21 44 -63.5 84.5t-101 72t-130 50t-149.5 18.5q-122 0 -221 -43t-170 -125t-109.5 -199.5t-38.5 -265.5q0 -160 46 -279.5t122.5 -199t177 -119t209.5 -39.5q34 0 88.5 6t118.5 28t131 64t127 113z" />
    <glyph glyph-name="D" unicode="D" horiz-adv-x="1593" 
d="M1485 737q0 -129 -29 -235t-81.5 -189t-125 -144t-159 -100.5t-184 -59t-199.5 -19.5q-5 0 -27.5 0.5t-54.5 1.5t-69 2t-71.5 2t-62.5 1.5t-41 0.5q-21 0 -41 -0.5t-45 -1.5t-57 -2.5t-76 -3.5q3 52 6.5 100t6 99.5t4.5 111t3.5 133t2.5 165.5t1 210q0 76 -0.5 135
t-1 108t-2 90.5l-3 83t-4 86t-5.5 99.5q169 -6 336 -6q137 0 245 -2.5t197.5 -16.5t164.5 -45t147 -88q67 -53 110.5 -115t69 -129t35.5 -136t10 -136zM1257 713q0 57 -8 122.5t-30.5 131t-63 126.5t-104.5 109q-54 41 -113 63t-120.5 32.5t-124.5 12t-124 1.5
q-37 0 -60.5 -0.5t-41.5 -1.5t-35.5 -2.5t-42.5 -3.5q-6 -143 -8 -293.5t-2 -292.5v-162v-120.5t0.5 -92.5t1 -78t1.5 -77.5t3 -90.5q26 -3 50 -5.5t49 -4t54 -2t66 -0.5q33 0 84 1.5t109 10.5t118.5 29t112.5 57q72 51 116.5 117t69.5 137.5t34 143t9 133.5z" />
    <glyph glyph-name="E" unicode="E" 
d="M385 788q122 -2 242.5 -0.5t240.5 15.5q-3 -17 -5.5 -32.5t-2.5 -37.5q0 -17 3 -31.5t5 -31.5q-40 5 -82 9t-83.5 6.5t-80 3.5t-71.5 1q-42 0 -85 -1t-81 -3q-2 -66 -3 -134t-1 -134q0 -40 0.5 -87t1.5 -91t2 -81.5t2 -58.5q49 0 105.5 0.5t122.5 2.5t143 7.5t168 14.5
q-3 -17 -5.5 -32.5t-2.5 -37.5q0 -21 2.5 -35.5t5.5 -29.5q-72 9 -143 10.5t-142 1.5q-119 0 -237.5 -3.5t-237.5 -8.5q3 38 6 76.5t5 82.5t4.5 97.5t3.5 122t2 155.5t1 199q0 77 -1 165t-2.5 177.5t-5 177t-7.5 162.5q108 -9 214 -10.5t214 -1.5q79 0 156 2t155 10
q-3 -17 -5.5 -34.5t-2.5 -37.5q0 -21 2.5 -35.5t5.5 -29.5q-28 5 -57.5 10t-66.5 8.5t-85.5 5.5t-115.5 2h-50t-44 -0.5t-47 -1.5t-58 -2q-2 -30 -2.5 -53.5t-1 -48.5t-0.5 -56.5v-76.5v-82.5v-60t0.5 -55.5t1.5 -69z" />
    <glyph glyph-name="F" unicode="F" 
d="M383 401q-1 -76 0 -132.5t3.5 -103t5.5 -88t7 -87.5q-24 5 -50.5 8.5t-69.5 3.5q-21 0 -36.5 -1t-28.5 -2.5t-24.5 -4t-23.5 -4.5q5 78 9 159t7 166.5t4.5 177t1.5 191.5q0 75 -1 169t-3 192t-5 192t-7 168q43 -5 78.5 -7t72 -3.5t79 -1.5h100.5q103 0 171 0.5t114.5 2
t77 4t59.5 5.5q-3 -17 -6 -33t-3 -39t3 -38.5t6 -30.5q-33 4 -77 9t-96 9.5t-111 7t-122 2.5h-63.5t-67.5 -2q-2 -31 -2.5 -54.5t-1 -49t-0.5 -57v-76.5v-82.5v-60t0.5 -55.5t1.5 -69q63 -1 130 -0.5t132 2t125 5.5t109 10q-3 -17 -6 -33t-3 -39q0 -22 3 -36t6 -29
q-45 7 -90.5 11t-89 6.5t-83 3.5t-71.5 1q-45 0 -84.5 -1t-77.5 -3z" />
    <glyph glyph-name="G" unicode="G" horiz-adv-x="1593" 
d="M1346 1094q-19 29 -50.5 70t-84 79t-131 65t-191.5 27q-112 0 -214 -39t-179.5 -117.5t-123.5 -196.5t-46 -277q0 -162 49 -283.5t130.5 -203t187 -122.5t218.5 -41q11 0 44 1t77.5 8.5t95 23.5t95.5 45q1 81 1.5 140.5t0.5 103.5t-0.5 76.5t-2 60.5t-4 55t-6.5 60
q26 -6 53 -9.5t68 -3.5q38 0 62 4t47 9q-8 -91 -14.5 -188t-6.5 -214q0 -37 0.5 -76t5.5 -73q-71 -25 -137 -46t-133.5 -36.5t-140.5 -24t-158 -8.5q-171 0 -312 53.5t-242 150t-156.5 232.5t-55.5 301q0 145 47.5 276t145.5 230.5t247 158t353 58.5q72 0 147 -8.5
t147.5 -24t138.5 -38t120 -49.5q-34 -73 -49 -126.5t-21 -82.5h-22z" />
    <glyph glyph-name="H" unicode="H" horiz-adv-x="1593" 
d="M406 381v-118t0.5 -89.5t1 -84t2.5 -99.5q-25 5 -51 8.5t-60 3.5q-35 0 -63 -3.5t-54 -8.5q5 91 9 163t7 133t5 113.5t3.5 105.5t2 109t0.5 123v72t-1 69.5t-2 80t-3.5 105t-5.5 145t-7 198.5q25 -6 49.5 -9t65.5 -3t65.5 3t49.5 9q-1 -15 -3 -49t-3.5 -81t-3.5 -104
t-3.5 -118.5t-1.5 -123.5t1 -120q102 -3 203.5 -5.5t203.5 -2.5q60 0 109 0.5t93.5 1t87 1.5t89.5 3q1 69 1.5 120.5t0.5 94t-1 80.5t-2.5 81.5t-3.5 96.5t-5 125q24 -6 49 -9t65 -3q39 0 64.5 3t50.5 9q-14 -258 -18 -505.5t-4 -477.5q0 -62 0.5 -109.5t2 -94.5t3.5 -101
t6 -129q-29 5 -55 8.5t-52 3.5q-24 0 -51 -3t-65 -9q2 29 3.5 65.5t3 75l3 77t2.5 72t1.5 59t0.5 38.5v307q-51 2 -90 3.5t-81 2t-93.5 0.5h-128.5h-123t-89.5 -0.5t-81.5 -1.5t-99 -2v-305z" />
    <glyph glyph-name="I" unicode="I" horiz-adv-x="682" 
d="M242 719v127.5t-0.5 98.5t-1.5 88t-2.5 94.5t-4 118.5t-6.5 161q12 -3 23.5 -5.5t24.5 -4t28.5 -2t36.5 -0.5t37.5 0.5t30 2t26 4t25.5 5.5q-10 -184 -13.5 -365.5t-3.5 -365.5q0 -138 1.5 -241t3.5 -183t5 -142.5t5 -119.5q-29 5 -61 8.5t-66 3.5t-59 -3.5t-50 -8.5
q4 56 7 103.5t5 95t4 98.5t3 113.5t1.5 140t0.5 178.5z" />
    <glyph glyph-name="J" unicode="J" horiz-adv-x="682" 
d="M29 -240q33 4 68 13.5t66 35t53.5 72.5t31.5 125q4 35 7 92.5t5 127t3 145.5t2 147.5t1 133v102.5q0 170 -4 335t-12 318q26 -5 56 -8.5t65 -3.5q37 0 65 3.5t56 8.5q-13 -178 -18 -391.5t-5 -450.5q0 -66 1 -139t1 -139q0 -88 -2.5 -155t-13.5 -121t-35 -99t-66 -88
q-39 -40 -80.5 -64t-83 -37.5t-80 -19t-71.5 -8.5z" />
    <glyph glyph-name="K" unicode="K" horiz-adv-x="1251" 
d="M195 680q0 112 -0.5 195.5t-1.5 147.5t-3 113t-4 92.5t-4.5 86t-5.5 92.5q26 -5 54.5 -8.5t70.5 -3.5q38 0 60.5 3.5t44.5 8.5q-3 -21 -5 -52.5t-3.5 -66.5t-3.5 -72t-3 -69q-2 -42 -2 -82v-86t0.5 -102t1.5 -129q36 29 66.5 54t60.5 50.5t61 55t70 68t87 88.5t112 118
q52 55 83 88.5t50 56t32 40t29 40.5q28 -6 53.5 -9t53.5 -3q26 0 48 3.5t44 8.5l4 -12q-17 -12 -50.5 -41.5t-78.5 -71.5t-98 -92t-107 -101.5t-106.5 -102t-96.5 -93t-76.5 -73.5t-47.5 -44l130.5 -148.5t148.5 -168t148.5 -167.5t131.5 -147q7 -8 19 -20.5t25.5 -27.5
t28.5 -30.5t29 -29.5v-47q-10 2 -26 4.5t-34.5 4t-36.5 2.5t-32 1t-32.5 -1t-38 -2.5t-39 -3.5t-35.5 -5q-57 97 -132.5 189t-152.5 181q-61 71 -101.5 117.5t-71.5 81t-58 63.5t-60 64l-6 -8v-127q0 -79 0.5 -137.5t1.5 -105t2 -83.5t2.5 -73t4 -75t6.5 -87q-25 5 -54 8.5
t-61 3.5q-31 0 -60.5 -3.5t-60.5 -8.5q5 89 9 156t6.5 121t4.5 99.5t3 92.5t1.5 99.5t0.5 121.5z" />
    <glyph glyph-name="L" unicode="L" 
d="M412 106q37 -2 64 -2.5t48.5 -1t40 -0.5h37.5q39 0 89 1.5t101 5t98.5 8t82.5 10.5q-3 -14 -5.5 -30t-2.5 -38q0 -24 2.5 -40.5t5.5 -28.5q-50 1 -94 3.5t-93.5 4t-110.5 3t-145 1.5q-68 0 -114 -1t-83 -2.5t-70 -4t-75 -4.5q6 98 10 189.5t6 182t2.5 182.5t0.5 193
q0 105 -2 210t-4.5 196.5t-5.5 161t-5 102.5q25 -5 49 -8.5t62 -3.5q40 0 70.5 3.5t58.5 8.5q-5 -131 -8 -234t-5 -194.5t-3 -179.5t-1.5 -189t-0.5 -223v-281z" />
    <glyph glyph-name="M" unicode="M" horiz-adv-x="1935" 
d="M1575 -10q0 41 -4 105.5t-10 143t-13.5 165.5t-16 172.5t-16 165t-14 142t-11 104.5t-5.5 52q-112 -201 -217 -401t-207 -406q-24 -48 -40 -83.5t-28 -63t-21 -50t-18 -46.5q-8 2 -15 3t-13 1t-12.5 -1t-14.5 -3q-14 31 -25.5 57.5t-22.5 50.5t-22.5 48t-25.5 51
q-54 103 -111 212t-113.5 215.5t-112 207.5t-106.5 190q-12 -77 -23.5 -170.5t-21 -192.5t-17 -199t-12.5 -189t-8 -162t-2 -119q-24 6 -40.5 9t-36.5 3q-31 0 -57 -4.5t-42 -7.5q4 18 13 70.5t22 129.5t28.5 174.5t32 206t33.5 222.5t32 224t28 212t22 186q8 -2 17 -3
t18 -1q8 0 19 1t22 3q11 -25 37 -77.5t62 -122.5t79.5 -153t90.5 -170.5t94 -174t89.5 -164t78.5 -140t61 -102.5q82 153 142 264t104 193t76 141.5t58.5 109.5t51.5 97t55 105q19 36 31 60l22 44t19.5 40.5t22.5 49.5q11 -2 19 -3t17 -1q8 0 17.5 1t21.5 3
q12 -108 25 -228.5t27.5 -245.5t29.5 -249.5t29.5 -240.5t29 -220t27.5 -186q2 -11 4 -23t9 -32q-21 3 -36.5 5t-28 3.5t-24.5 2.5t-26 1q-45 0 -73 -3.5t-54 -8.5z" />
    <glyph glyph-name="N" unicode="N" horiz-adv-x="1593" 
d="M305 920q2 -124 3.5 -219t3.5 -172t4.5 -141t6 -126t7 -127.5t8.5 -144.5q-19 5 -38.5 8.5t-47.5 3.5t-44.5 -3.5t-35.5 -8.5q2 25 5 70t6 101t6 120.5t5 130.5t3.5 129t1.5 116q0 20 -0.5 61t-1 92t-1.5 106.5t-1.5 105.5t-1 89.5t-0.5 57.5v246q9 -2 16.5 -3t15.5 -1
q10 0 19.5 1t23.5 3l68 -80q21 -24 41.5 -47.5t46.5 -52t60 -65t81 -85.5q102 -108 177 -187t133 -139.5t104 -109t91 -95t95 -97.5t115 -117v76v234.5t-1 190.5t-2.5 158.5t-4.5 140.5t-7.5 134.5t-11.5 140.5q17 -5 36 -8.5t44 -3.5t46.5 3.5t41.5 8.5
q-26 -223 -30.5 -443.5t-4.5 -443.5v-133t1 -147.5t3 -145t5 -125.5q-13 2 -21.5 3.5t-17.5 1.5q-8 0 -15 -1.5t-18 -3.5q-16 19 -50 58.5t-79.5 90t-97.5 107.5t-104 112t-99.5 103.5t-83.5 81.5q-26 25 -52 51l-52 52l-400 416v-129z" />
    <glyph glyph-name="O" unicode="O" horiz-adv-x="1821" 
d="M922 1425q107 0 205.5 -20.5t184 -61.5t156 -101t120 -139.5t77 -177t27.5 -212.5q0 -161 -55 -298.5t-157.5 -239t-249 -159t-329.5 -57.5q-167 0 -308.5 50t-244 144t-160 229t-57.5 306q0 163 53 299t154 233t248.5 151t335.5 54zM365 690q0 -150 40 -269t112 -202
t171 -127.5t217 -44.5q121 0 223 43.5t175 127t114 205.5t41 279q0 40 -4 89.5t-14 102t-27.5 105t-44.5 97.5q-42 70 -98.5 116t-119 74t-125 39.5t-114.5 11.5q-102 0 -200 -36t-175 -114t-124 -200.5t-47 -296.5z" />
    <glyph glyph-name="P" unicode="P" horiz-adv-x="1139" 
d="M1092 1044q0 -70 -19 -124.5t-48 -96t-64 -71.5t-66 -50q-41 -26 -92 -42.5t-106 -26.5t-109 -13.5t-101 -3.5q-24 0 -48.5 1.5t-49.5 3.5q-1 -106 0 -190t2.5 -157.5t4.5 -141.5t7 -142q-13 2 -24.5 4.5t-25 4t-30 2.5t-38.5 1q-42 0 -64.5 -3.5t-44.5 -8.5
q11 216 14 431t3 433q0 115 -1.5 195t-3.5 141.5t-5 111.5t-7 105q60 -5 140 -5.5t200 -0.5q58 0 112 -0.5t102.5 -5t91 -14t79.5 -27.5q94 -45 142.5 -125.5t48.5 -184.5zM868 1024q0 60 -15.5 112t-53.5 89q-26 24 -60.5 41.5t-72.5 28t-78.5 15.5t-79.5 5
q-25 0 -57.5 -1.5t-61.5 -6.5q-2 -134 -2 -286t2 -314q51 -2 106.5 -1t109 10.5t101 29t84 55.5t57.5 90.5t21 132.5z" />
    <glyph glyph-name="Q" unicode="Q" horiz-adv-x="1821" 
d="M1675 -319q-43 -14 -86 -34.5t-90 -56.5q-75 66 -156.5 125t-166.5 113q-50 31 -79.5 50.5t-50 33t-37 25t-38.5 28.5q-22 -2 -44 -3t-42 -1q-175 0 -315 54.5t-237.5 151.5t-149.5 231t-52 292q0 166 54.5 301.5t156 232t246.5 149t325 52.5q179 0 323 -51t245.5 -144.5
t156 -225t54.5 -291.5q0 -99 -19.5 -184.5t-54 -157t-81 -129.5t-101 -103.5t-114.5 -78.5t-120 -54q-4 -4 -4 -6q0 -5 10 -14t23.5 -19.5t26.5 -20t20 -14.5q69 -45 119.5 -77.5t87.5 -55.5t63 -38.5t47 -27t39.5 -21t40.5 -19.5v-12zM365 690q0 -150 40 -269t112 -202
t171 -127.5t217 -44.5q121 0 223 43.5t175 127t114 205.5t41 279q0 40 -4 89.5t-14 102t-27.5 105t-44.5 97.5q-42 70 -98.5 116t-119 74t-125 39.5t-114.5 11.5q-102 0 -200 -36t-175 -114t-124 -200.5t-47 -296.5z" />
    <glyph glyph-name="R" unicode="R" horiz-adv-x="1251" 
d="M1221 -10q-32 5 -59.5 8.5t-61.5 3.5q-32 0 -68 -3.5t-80 -8.5q-73 115 -138 210.5t-126 177.5t-119.5 155t-117.5 143h-54v-123t1 -152t4.5 -186t9.5 -225q-26 6 -58.5 9t-60.5 3q-41 0 -63.5 -4t-45.5 -8q4 90 7 182t4.5 188.5t2.5 199t1 214.5q0 144 -4 302t-9 331
q59 -6 103 -7t76 -1h28t42.5 0.5t49.5 0.5t49 0.5t41.5 0.5h26.5q91 0 153.5 -5.5t106 -16.5t73 -27t54.5 -37q59 -48 82 -110t23 -136q0 -73 -21 -127t-55.5 -93t-78 -64.5t-88 -42t-86.5 -25.5t-73 -15q14 -22 43.5 -61.5t68 -90t83 -108l89 -115t87 -111t76 -96.5
t55.5 -71t27 -35v-24zM881 1047q0 60 -15.5 103t-42.5 73t-62.5 48.5t-74.5 28.5t-80 13.5t-78 3.5q-45 0 -77 -3.5t-52 -6.5q-3 -70 -3.5 -140t-0.5 -139q0 -35 0.5 -77t0.5 -82t0.5 -72.5t0.5 -48.5q15 -2 27 -3t24 -1h26t32 1q23 1 59.5 4t78.5 13t84 29t76 52t55.5 83
t21.5 121z" />
    <glyph glyph-name="S" unicode="S" horiz-adv-x="1139" 
d="M868 1147q-10 29 -29 62.5t-52 62t-83 47t-120 18.5q-84 0 -135.5 -26.5t-79.5 -64t-37.5 -77.5t-9.5 -67q0 -61 22.5 -103t58 -71.5t77.5 -49t81 -34.5q56 -21 97.5 -37.5t72.5 -29t53.5 -23.5t41 -21.5t35 -22t34.5 -26.5q35 -29 57.5 -62.5t35 -68t17.5 -68.5t5 -63
q0 -53 -13 -107.5t-39.5 -105.5t-68 -95.5t-98.5 -77.5t-130.5 -52t-164.5 -19q-103 0 -198 26.5t-175 86.5q23 78 29 125t8 67h26q22 -46 56 -85t77.5 -67.5t96 -44.5t112.5 -16q81 0 138 24t94 63t54 88t17 98q0 62 -20.5 106t-55 76.5t-80.5 55.5t-97 44q-90 38 -144 61
t-86.5 38.5t-51.5 29t-40 31.5q-26 21 -45.5 50.5t-32 63t-18.5 69.5t-6 71q0 99 37 173.5t99.5 124t145 74.5t172.5 25q60 0 115 -10t100.5 -24.5t80 -31t52.5 -28.5q-6 -12 -15 -32t-18 -44.5t-16.5 -52t-9.5 -53.5h-29z" />
    <glyph glyph-name="T" unicode="T" horiz-adv-x="1139" 
d="M473 791q0 140 -1 268t-3 233q-162 -2 -274.5 -8t-180.5 -20q3 17 6 32.5t3 38.5q0 25 -3 40.5t-6 31.5q48 -5 117 -7t145.5 -3.5t152 -1.5h136.5h152t149 1.5t135.5 3.5t112.5 7q-3 -14 -5.5 -31.5t-2.5 -40.5t2.5 -38.5t5.5 -32.5q-24 4 -60.5 9t-89 9t-123.5 6.5
t-163 3.5q-2 -106 -3 -212t-1 -212q0 -93 -1 -198t-0.5 -217.5t4 -229.5t11.5 -233q-53 8 -86 10t-45 2q-35 0 -63.5 -4.5t-42.5 -7.5q6 84 10 181t7 200t4 209.5t1 210.5z" />
    <glyph glyph-name="U" unicode="U" horiz-adv-x="1593" 
d="M201 559v236.5t-0.5 171.5t-1.5 127t-3 102t-5 97.5t-7 113.5q32 -5 62.5 -8.5t58.5 -3.5q34 0 63.5 3.5t55.5 8.5q-4 -67 -7.5 -142t-5.5 -149t-3 -143.5t-1.5 -124.5t-0.5 -92.5v-48.5q0 -97 2.5 -173.5t11.5 -137t27 -107.5t49 -84q24 -31 60 -55.5t79.5 -42
t91.5 -26.5t96 -9q15 0 45.5 2t70 11.5t83 28.5t83.5 52t72.5 83t49.5 122q12 52 19 117t10.5 126.5t4.5 110t1 68.5q0 19 -1 63t-2.5 101t-3.5 122t-5.5 127t-7.5 115t-9 86q20 -5 40.5 -8.5t55.5 -3.5q34 0 53 3.5t37 8.5q-20 -140 -27.5 -318t-7.5 -405q0 -75 -3.5 -152
t-18.5 -150.5t-44.5 -139.5t-80.5 -119q-32 -34 -73.5 -63.5t-96.5 -51.5t-124 -34.5t-157 -12.5q-59 0 -126.5 8.5t-134.5 31.5t-128.5 63t-109.5 104q-29 38 -46 79t-26 88.5t-11.5 102.5t-2.5 121z" />
    <glyph glyph-name="V" unicode="V" horiz-adv-x="1366" 
d="M737 221q37 87 70 164t62.5 149t57 142.5t55 145.5t56 157t60.5 178q16 51 27 88t19.5 65.5t14.5 51.5t12 45q19 -6 38 -9t46 -3q9 0 22.5 0.5t27.5 2t27.5 3.5t23.5 6q-10 -17 -42.5 -85t-80 -173t-106 -240.5t-121.5 -287t-126 -313t-120 -318.5q-8 3 -26.5 7.5
t-55.5 4.5q-9 0 -32 -1.5t-48 -10.5q-9 28 -31.5 92t-55.5 151.5t-73 193t-84 217.5t-89.5 224t-88 213.5t-80.5 185.5t-67 140q10 -3 25 -5.5t31.5 -4t33.5 -2t31 -0.5h30t35.5 1.5t38 3.5t37.5 7q18 -64 48 -154t66.5 -194t78.5 -216.5t85.5 -223t86.5 -213t81 -185.5z
" />
    <glyph glyph-name="W" unicode="W" horiz-adv-x="2048" 
d="M1657 668q31 90 58 172t52.5 169t49.5 183.5t49 214.5q24 -9 46 -10.5t42 -1.5q43 0 64 4.5t30 7.5q-32 -78 -72 -180.5t-89 -233t-106.5 -290.5t-123.5 -353q-26 -73 -43 -125t-30 -92.5t-22.5 -74t-19.5 -68.5q-8 4 -19 6t-22.5 3.5t-22.5 2t-18 0.5q-9 0 -34 -1.5
t-50 -10.5q-15 61 -37.5 137t-49.5 160.5t-56 173t-58 173.5t-56.5 163.5t-49.5 142.5t-38 109t-23 65q-10 -26 -27.5 -75.5t-40 -114t-49 -139.5t-53.5 -153t-53.5 -155t-49.5 -145.5t-41 -123.5t-28 -89q-11 -31 -19 -58.5t-18 -70.5q-28 8 -53 10t-37 2q-10 0 -34.5 -1.5
t-51.5 -10.5q-23 87 -54 198.5t-67.5 235.5t-77.5 255.5t-83.5 259.5t-85.5 248t-83 220q17 -5 44 -8.5t63 -3.5q22 0 45.5 1.5t43.5 3.5t34.5 4t19.5 3q19 -84 45.5 -185t57.5 -208t63.5 -216t64.5 -210t60.5 -190t50.5 -156l149 426q17 47 37.5 108t42.5 128t44 137
t41.5 136.5t35 125.5t25.5 104q18 -5 36 -8.5t50 -3.5q31 0 46 3.5t32 8.5q7 -28 14 -55.5t15.5 -59.5t19.5 -69.5t26 -85.5q13 -42 31.5 -98t39.5 -120t44.5 -133.5t46.5 -137.5t45 -132t40.5 -118t32.5 -94.5t21 -61.5z" />
    <glyph glyph-name="X" unicode="X" horiz-adv-x="1251" 
d="M721 762q37 -61 84 -137t96 -155t96.5 -155t85.5 -137q12 -19 22.5 -35.5t24 -36.5t32 -47.5t46.5 -68.5q-43 9 -82 10.5t-67 1.5q-29 0 -62.5 -2t-62.5 -10q-13 30 -39 80t-58.5 109.5t-68.5 123t-69 120t-59.5 101t-39.5 66.5q-40 -59 -85 -130t-91.5 -148.5
t-92.5 -159t-89 -162.5q-17 5 -46 8.5t-55 3.5q-23 0 -47.5 -2t-46.5 -10q27 35 70.5 93t93.5 126t102.5 140.5t98 137.5t80 116t49.5 77q-24 40 -60 97.5t-78 124t-87 137.5t-89 138.5t-83 127t-68 102.5q32 -9 65.5 -10.5t65.5 -1.5q13 0 31 0.5t37.5 2t38.5 4t34 5.5
q28 -53 59 -111t62.5 -115t62 -110t56 -96.5t45.5 -74t31 -42.5q17 24 44 63.5t58 87.5t64.5 101.5t64.5 106.5t56.5 102t41.5 88q8 -2 16.5 -4.5t20.5 -4t29 -2.5t41 -1q37 0 55.5 3.5t34.5 8.5q-25 -29 -60 -74t-76.5 -99.5t-86 -115.5t-88 -123t-84.5 -121.5t-74 -111.5z
" />
    <glyph glyph-name="Y" unicode="Y" horiz-adv-x="1251" 
d="M743 465q0 -19 0.5 -50.5t1 -70.5t2 -84t3 -91.5t3.5 -92.5t5 -86q-31 9 -57 10.5t-46 1.5q-46 0 -73 -2t-50 -10q4 42 7 79.5t4.5 74.5t2 77.5t0.5 90t-0.5 110.5t-0.5 139q-85 144 -147.5 248.5t-108 181t-79 132t-61.5 101.5t-54 88.5t-58 94.5q40 -9 77.5 -10.5
t53.5 -1.5q54 0 91 4.5t52 7.5q63 -160 136 -294.5t139 -248.5q16 -29 32.5 -56.5t30.5 -49.5t25 -35.5t16 -13.5q4 0 15.5 16t24.5 37t25 42t17 30q81 139 152 281t133 292q23 -8 47 -10t49 -2q29 0 48 3t44 9q-20 -28 -56 -83t-79.5 -124t-92 -146.5t-93 -151
t-81.5 -136.5t-59 -104q-14 -25 -22.5 -45.5t-16.5 -38.5q-2 -23 -2 -52v-61z" />
    <glyph glyph-name="Z" unicode="Z" horiz-adv-x="1251" 
d="M10 25q6 7 23.5 28.5t37 47t36.5 48.5t24 33q45 62 103 144t124 175.5t136.5 195.5t140.5 205t137 202t125 188q-114 0 -228 -1t-220 -4t-198 -9.5t-161 -17.5q3 15 5.5 34.5t2.5 42.5q0 26 -1.5 41t-6.5 29q67 -5 126.5 -7t125.5 -3.5t145.5 -1.5h186.5q204 0 340.5 3
t193.5 9v-31q-134 -183 -251 -347.5t-215 -304t-175 -251.5t-130.5 -191.5t-82 -123.5t-28.5 -47q0 -5 5 -6t7 -1q170 0 386.5 4t479.5 27q-3 -11 -5.5 -26t-2.5 -41q0 -17 1 -36t7 -42q-12 1 -62 2.5t-121 3t-153.5 2.5t-159 2t-138 1.5t-89.5 0.5q-118 0 -235.5 -2
t-235.5 -10v35z" />
    <glyph glyph-name="bracketleft" unicode="[" horiz-adv-x="682" 
d="M217 1202l-4 205q42 -6 75 -8t70 -2q60 0 115.5 2t114.5 8q-3 -9 -5.5 -19.5t-2.5 -25.5q0 -16 2.5 -26t5.5 -21q-37 5 -64.5 8t-51.5 4.5t-47.5 1.5h-51.5q-3 -81 -5 -139.5t-3 -105t-1.5 -85.5t-1 -82.5t-0.5 -96v-124.5v-185.5t0.5 -141.5t1 -117.5t1.5 -114.5
t3 -132.5t5 -170.5q51 0 105 2t110 10q-3 -11 -4.5 -21t-1.5 -24q0 -15 1.5 -24.5t4.5 -20.5q-17 1 -43.5 3t-57.5 4t-64 3t-61 1q-23 0 -40 -0.5t-33.5 -2t-35 -3.5t-44.5 -5q1 31 2.5 62.5t3 66.5t2 77t0.5 95v1145z" />
    <glyph glyph-name="backslash" unicode="\" horiz-adv-x="569" 
d="M-14 1378q12 -3 25.5 -4.5t35.5 -1.5t37 1.5t29 4.5l473 -1417q-13 3 -24.5 4.5t-33.5 1.5q-23 0 -37.5 -1.5t-29.5 -4.5z" />
    <glyph glyph-name="bracketright" unicode="]" horiz-adv-x="682" 
d="M465 -39l4 -205q-42 6 -75 8.5t-70 2.5q-60 0 -115.5 -2.5t-114.5 -8.5q3 10 5.5 20t2.5 25q0 16 -2.5 26t-5.5 21q37 -5 64.5 -8t51.5 -4.5t47 -1.5h52q2 81 4 140t3 105t1.5 85.5t1 82.5t0.5 95.5v124.5v185.5t-0.5 141.5t-1 117.5t-1.5 114.5t-3 132.5t-4 170.5
q-51 0 -105 -2t-110 -10q3 11 4.5 21t1.5 24q0 15 -1.5 24.5t-4.5 20.5q17 -2 43.5 -3.5t57.5 -3t63.5 -2.5t60.5 -1q23 0 40 0.5t33.5 1.5t35.5 3t45 5q-2 -32 -3 -63t-2.5 -66t-2 -77t-0.5 -95v-1145z" />
    <glyph glyph-name="asciicircum" unicode="^" horiz-adv-x="1214" 
d="M543 1350h129l346 -856h-141l-273 694l-266 -694h-141z" />
    <glyph glyph-name="underscore" unicode="_" 
d="M0 -154h1024v-102h-1024v102z" />
    <glyph glyph-name="grave" unicode="`" horiz-adv-x="569" 
d="M612 1124l-342 213q-24 16 -30 32.5t-6 29.5q0 29 20.5 50t48.5 21q12 0 20.5 -2.5t19 -10t25.5 -22t40 -38.5l276 -273h-72z" />
    <glyph glyph-name="a" unicode="a" 
d="M156 739l8 133q24 19 55 41t71.5 41t91.5 31t114 12q30 0 65 -3.5t71 -14t71.5 -28.5t66.5 -46q18 -17 33 -37.5t26.5 -47.5t18 -62t6.5 -82q0 -15 -0.5 -44.5t-1.5 -66t-2 -76.5t-2 -76t-1.5 -64.5t-0.5 -41.5q0 -68 1 -113.5t8.5 -73.5t22.5 -40t44 -12q18 0 30.5 3.5
t20.5 6.5l2 -58q-34 -17 -69 -31t-79 -14q-51 0 -94.5 32t-60.5 102q-24 -25 -53 -50.5t-66 -46.5t-84 -34t-107 -13q-79 0 -133 27t-87 67.5t-47.5 88.5t-14.5 90q0 81 30 132t78 82t109 47.5t123 30.5l178 39q43 11 59.5 33t16.5 66q0 52 -17 93.5t-47.5 70t-73 44
t-92.5 15.5q-64 0 -105.5 -17.5t-68 -42t-39.5 -50.5t-20 -42h-55zM670 502q-132 -20 -210 -45.5t-118 -56.5t-51.5 -67.5t-11.5 -78.5q0 -50 17 -83t43 -53t56.5 -28t57.5 -8q39 0 78 14.5t69.5 40.5t50 61.5t19.5 77.5v226z" />
    <glyph glyph-name="b" unicode="b" horiz-adv-x="1251" 
d="M164 -10q4 70 7 154.5t4.5 172t2 174t0.5 160.5v145t-0.5 164t-1.5 162t-2 138q0 33 -0.5 60.5t-2 55t-3.5 57.5t-4 68q28 -5 55.5 -8.5t54.5 -3.5q54 0 107 12q-3 -64 -5 -113t-3.5 -93t-3 -88.5t-2.5 -100t-2 -126.5t-3 -169q14 21 39 52t65 60.5t96.5 50.5t133.5 21
q89 0 172 -31t146.5 -93.5t102 -155.5t38.5 -217q0 -116 -33.5 -214.5t-97 -170.5t-155 -113t-207.5 -41q-66 0 -117 14t-90 35.5t-69 47.5t-54 50q-16 -11 -32.5 -27t-31 -32.5t-26.5 -31.5t-19 -25h-59zM647 49q81 0 138.5 37t93.5 98t52.5 140.5t16.5 164.5
q0 120 -29.5 198t-74 123t-96 63t-95.5 18q-62 0 -118 -25.5t-97 -74.5q-18 -23 -34.5 -51.5t-29 -67.5t-19.5 -92t-7 -123q0 -87 17 -161.5t53.5 -129.5t93 -86t135.5 -31z" />
    <glyph glyph-name="c" unicode="c" 
d="M963 162q-14 -42 -17.5 -69.5t-5.5 -49.5q-46 -31 -123.5 -55.5t-179.5 -24.5q-146 0 -249 44t-168.5 116.5t-95.5 165t-30 190.5q0 118 37 214t106.5 164t170 105t227.5 37q91 0 175.5 -18t162.5 -63q-23 -59 -31.5 -102.5t-13.5 -72.5h-25q-22 57 -53.5 90.5t-66 51.5
t-68.5 23t-62 5q-85 0 -150 -29t-108.5 -83.5t-65.5 -131.5t-22 -173q0 -94 18.5 -163.5t48.5 -118t68 -79.5t78 -48t78 -23.5t68 -6.5q31 0 68 6t74.5 19.5t72.5 34.5t63 51z" />
    <glyph glyph-name="d" unicode="d" horiz-adv-x="1251" 
d="M90 475q0 121 35.5 218.5t97.5 166t147.5 105t186.5 36.5q72 0 129 -18t98 -45.5t68 -61.5t39 -65q1 87 1 177.5t-0.5 180t-2.5 174t-6 158.5q21 -5 43 -8.5t59 -3.5t62.5 3.5t50.5 8.5q-11 -217 -16 -431t-5 -431q0 -159 1.5 -323.5t4.5 -325.5q-21 5 -41.5 8.5
t-54.5 3.5t-56.5 -3.5t-43.5 -8.5q5 57 5.5 100.5t0.5 65.5q-26 -47 -63 -83.5t-82.5 -61t-97 -37.5t-105.5 -13q-78 0 -158.5 29.5t-146.5 92t-108 159.5t-42 233zM582 63q84 0 140.5 30.5t90.5 76.5q14 18 29 43t27 62.5t20 91t8 129.5q0 62 -8 123t-37 116
q-26 48 -56.5 79t-64 49.5t-68.5 26t-69 7.5q-73 0 -123.5 -26t-83 -66t-50 -88.5t-25.5 -94.5t-9.5 -83t-1.5 -54q0 -116 25 -196.5t65.5 -130.5t90.5 -72.5t100 -22.5z" />
    <glyph glyph-name="e" unicode="e" horiz-adv-x="1139" 
d="M305 487q0 -21 1 -52.5t6 -67.5t16 -74.5t32 -73.5q36 -57 77 -89.5t80 -48t73.5 -19t56.5 -3.5q75 0 131 20t95.5 47t63.5 55t36 44l24 -6q-9 -43 -10.5 -70.5t-3.5 -52.5q-68 -65 -162 -99t-219 -34q-117 0 -210 35.5t-158 102t-99.5 161.5t-34.5 213q0 106 29.5 200.5
t90.5 165.5t153.5 112.5t218.5 41.5q114 0 192 -30t128 -77t76.5 -105.5t38 -114.5t12.5 -104.5t1 -76.5h-735zM836 573q0 17 -1 49t-8 69.5t-22 77t-42 71.5t-69.5 52.5t-103.5 20.5q-67 0 -117 -24.5t-84.5 -69t-54.5 -107t-27 -139.5h529z" />
    <glyph glyph-name="f" unicode="f" horiz-adv-x="682" 
d="M670 1329l-15 -8q-26 9 -53.5 17t-62.5 8q-58 0 -89 -22t-45.5 -52t-17 -60.5t-2.5 -48.5q0 -27 3 -59t7 -62t9 -54t8 -36q55 0 109 1t110 3q-2 -17 -3 -29t-1 -22q0 -11 1 -20t3 -19q-54 2 -107.5 3t-107.5 1l2 -333v-62.5t0.5 -88.5t1.5 -104t2.5 -108t3.5 -101t6 -83
q-23 3 -48.5 7.5t-59.5 4.5t-60 -4.5t-51 -7.5q5 54 9 124t6.5 144.5t3.5 146t1 127.5q0 69 -1.5 154t-4.5 184q-43 0 -85.5 -1t-86.5 -3q2 13 3 22.5t1 20.5t-1 22t-3 25q44 -2 87.5 -3t86.5 -1q3 119 38.5 220.5t91 175.5t125.5 115.5t143 41.5q20 0 31.5 -1.5t23.5 -4.5z
" />
    <glyph glyph-name="g" unicode="g" horiz-adv-x="1139" 
d="M133 666q0 81 31.5 143.5t86 104.5t127 63.5t154.5 21.5q36 0 69.5 -2t68.5 -8q40 -7 67.5 -11t49.5 -6t44 -2.5t52 -0.5h42t37.5 1t44 2.5t62.5 4.5q-2 -12 -4 -25.5t-2 -25.5q0 -14 2 -27t4 -27q-40 4 -92.5 4.5t-95.5 0.5q37 -32 61.5 -81.5t24.5 -115.5
q0 -81 -31.5 -144t-87 -105.5t-131 -64.5t-162.5 -22q-9 0 -31.5 1t-47 2.5t-44 3t-20.5 1.5q-23 0 -39.5 -8.5t-28 -22t-17 -31.5t-5.5 -36q0 -21 5.5 -40.5t29.5 -34.5t72 -24.5t132 -9.5q9 0 29.5 0.5t44 0.5t44 0.5t28.5 0.5q65 -2 110.5 -9t77.5 -18t53 -24.5t37 -27.5
q38 -34 60 -83.5t22 -109.5q0 -37 -10 -84t-34 -95.5t-64.5 -95.5t-100.5 -83.5t-142 -59t-190 -22.5q-123 0 -206.5 28.5t-134 73t-72 98.5t-21.5 105q0 47 13.5 84t35 65.5t48 49t51.5 34.5t45.5 22.5t31.5 12.5q-50 14 -80 34.5t-45.5 43.5t-20.5 47t-5 45q0 51 21 88
t49 61t55.5 36.5t40.5 15.5q-53 20 -91 49.5t-62 67t-35 80.5t-11 90zM541 414q70 0 114.5 26.5t70.5 66.5t36 87.5t10 89.5q0 67 -19.5 113.5t-51 76t-71 43t-79.5 13.5q-51 0 -87.5 -14.5t-61.5 -38.5t-39.5 -53.5t-22 -59.5t-10 -58t-2.5 -47q0 -65 17 -111t46 -76
t67.5 -44t82.5 -14zM569 -481q80 0 141 21t102.5 56.5t63 82.5t21.5 98q0 47 -15.5 82t-42 59.5t-60.5 40t-70.5 24.5t-74 12t-69.5 3q-12 0 -40.5 -1t-64 -7.5t-73.5 -21t-69.5 -40.5t-51.5 -66.5t-20 -99.5q0 -57 23.5 -102t66 -76.5t102 -48t131.5 -16.5z" />
    <glyph glyph-name="h" unicode="h" horiz-adv-x="1251" 
d="M369 795q20 36 51 71.5t75 64t102 46.5t132 18q84 0 142.5 -18t98 -48t61.5 -68t33.5 -77.5t14 -77.5t2.5 -67q0 -5 -0.5 -34.5t-1.5 -72.5t-2 -93t-2 -97t-1.5 -84.5t-0.5 -54.5q0 -15 0.5 -45.5t1 -64t1.5 -63t3 -40.5q-21 6 -43.5 9t-60.5 3q-40 0 -63 -3t-46 -9
q7 82 11 162.5t5.5 146.5t2 112t0.5 60q0 77 -5.5 149t-28.5 127.5t-71 89t-133 33.5q-38 0 -69.5 -7.5t-57.5 -20t-46.5 -28.5t-35.5 -34q-15 -17 -27.5 -37t-21.5 -51t-14.5 -77.5t-5.5 -116.5q0 -112 1 -188t3 -132t4.5 -99t5.5 -89q-23 6 -48 9t-63 3q-37 0 -60 -3
t-46 -9q3 62 5.5 129.5t4.5 135.5t3 135.5t1 129.5v445q0 103 -0.5 175t-2 130t-3.5 111t-4 120q22 -3 45.5 -7.5t60.5 -4.5q36 0 62 4.5t49 7.5q-1 -12 -2.5 -39.5t-3 -61.5t-3 -68.5t-1.5 -59.5q-1 -66 -1.5 -106t-0.5 -68t-0.5 -51t-1.5 -54z" />
    <glyph glyph-name="i" unicode="i" horiz-adv-x="569" 
d="M197 510q0 87 -1.5 156.5t-4 126t-5.5 102.5t-6 86q22 -6 43.5 -9t57.5 -3q35 0 59 3t47 9q-1 -28 -2.5 -56t-3 -60t-2.5 -70.5t-2 -89t-1.5 -115.5t-0.5 -148v-44t1 -43t1.5 -53t2.5 -72.5t4 -100.5t5 -139q-10 3 -19.5 5t-21 3.5t-25.5 2.5t-34 1q-22 0 -37 -1
t-26.5 -2.5t-21.5 -3.5t-22 -5q3 58 5.5 124t5 134t3.5 135t1 127zM401 1317q0 -23 -9 -43.5t-24 -35.5t-35.5 -23.5t-43.5 -8.5t-43 8.5t-35 23.5t-24 35.5t-9 43.5q0 24 9 44.5t24 35.5t35 24t43 9t43.5 -9t35.5 -24t24 -35.5t9 -44.5z" />
    <glyph glyph-name="j" unicode="j" horiz-adv-x="569" 
d="M403 1317q0 -23 -9 -43.5t-24 -35.5t-35.5 -23.5t-43.5 -8.5t-43 8.5t-35 23.5t-24 35.5t-9 43.5q0 24 9 44.5t24 35.5t35 24t43 9t43.5 -9t35.5 -24t24 -35.5t9 -44.5zM37 -479q24 7 49 19.5t47 43t39 85.5t25 149q1 16 1.5 58t1 97.5t1 118.5t0.5 121.5v106v73.5
q0 61 -1.5 133t-4 148t-6.5 154t-9 153q23 -5 51 -8.5t60 -3.5q31 0 58.5 3.5t51.5 8.5q-3 -66 -5 -118t-4 -97.5t-2.5 -88.5t-1.5 -93t-1 -111v-141v-198.5t-0.5 -137t-1.5 -90t-3 -58t-5.5 -41t-7.5 -38.5q-3 -14 -10.5 -39.5t-21.5 -57.5t-37.5 -66t-58.5 -64t-84 -52.5
t-114 -30.5z" />
    <glyph glyph-name="k" unicode="k" horiz-adv-x="1139" 
d="M1077 -10q-26 5 -56.5 8.5t-74.5 3.5q-42 0 -72.5 -3.5t-56.5 -8.5q-47 66 -89.5 120.5t-86 107t-91 106t-104.5 118.5q-12 13 -26 23t-25 10q-12 0 -13 -11t-1 -24l2 -180q0 -33 2 -77.5t5 -85.5t5.5 -71.5t3.5 -35.5q-23 5 -48.5 8.5t-59.5 3.5t-57.5 -3t-45.5 -9
q7 186 8 368t1 369v190t-1 199t-3 198t-5 187q23 -5 48.5 -8.5t60.5 -3.5t59 3.5t47 8.5q-8 -112 -13 -224t-5 -226q0 -88 -3 -181t-3 -184q0 -12 0.5 -29.5t0.5 -35.5t0.5 -34t0.5 -26q0 -9 5 -12.5t11 -3.5q3 0 9.5 4.5t14.5 11t16.5 14t15.5 13.5q37 34 88 81.5
t103.5 100.5t102 107.5t84.5 103.5q23 -8 49.5 -10t51.5 -2q37 0 64.5 3.5t47.5 8.5l-466 -408l319 -374l180 -191v-18z" />
    <glyph glyph-name="l" unicode="l" horiz-adv-x="569" 
d="M190 778q-1 117 -1 201.5t-0.5 148t-1.5 110.5t-2.5 88.5t-3.5 82.5t-5 92q26 -5 52 -8.5t55 -3.5q27 0 53.5 3.5t54.5 8.5q-3 -74 -5 -135.5t-3.5 -117t-2.5 -110t-1.5 -115t-1 -131.5t-0.5 -159q0 -80 0.5 -146.5t1 -125t2 -113t3 -110t4 -116.5t5.5 -132q-23 6 -46 10
t-64 4q-39 0 -60.5 -4t-44.5 -10q3 52 5 94t3.5 86t2 95.5t1 121.5t0.5 165v226z" />
    <glyph glyph-name="m" unicode="m" horiz-adv-x="1821" 
d="M602 874q-54 0 -100.5 -21.5t-83.5 -78.5q-19 -29 -30 -62.5t-17 -78t-7.5 -102.5t-1.5 -136q0 -77 3.5 -182.5t15.5 -222.5q-31 6 -56 9t-51 3t-50 -3t-56 -9q2 76 4 131t3.5 96.5t2.5 72.5t1.5 58.5t0.5 55v61.5v67t-1 60t-1.5 64t-2.5 80t-4 107t-5 146q23 -3 46 -7.5
t54 -4.5q29 0 55.5 4.5t49.5 7.5q-3 -20 -8 -68t-5 -110q35 55 74 90.5t80 56.5t82 29t80 8q52 0 99 -10.5t86 -32.5t69.5 -57t50.5 -84q30 51 70 86t85 56.5t92 31.5t91 10q22 0 55.5 -3.5t70 -15t73 -32.5t65.5 -55q21 -26 33 -52.5t18 -53t8 -51.5t2 -46q0 -5 -0.5 -28.5
t-0.5 -57.5t-1 -73.5t-1 -76t-0.5 -66t-0.5 -42.5q0 -90 4 -177t9 -175q-32 6 -57.5 9t-51.5 3q-28 0 -53 -3t-51 -9q7 74 10.5 133t5 110t2 98t0.5 97q0 101 -2 162.5t-6.5 98.5t-12.5 57.5t-20 41.5q-16 27 -37 44t-43.5 26t-45 12.5t-42.5 3.5q-59 0 -100.5 -18.5
t-69 -49t-43.5 -70t-23.5 -81t-9.5 -82t-2 -73.5q0 -59 1.5 -123t4 -130t5.5 -131t6 -126q-12 3 -23 5t-23 3.5t-27.5 2.5t-37.5 1q-41 0 -62 -3t-40 -9q9 99 12.5 214.5t3.5 223.5q0 29 -1 77.5t-5 99.5t-10.5 97.5t-18.5 71.5q-15 31 -37 51t-47 30.5t-50.5 14.5t-47.5 4z
" />
    <glyph glyph-name="n" unicode="n" horiz-adv-x="1251" 
d="M186 553q0 102 -3.5 215t-6.5 221q28 -5 51 -8.5t52 -3.5t51.5 3.5t48.5 8.5q-1 -12 -2.5 -39.5t-3 -58.5t-2.5 -58.5t-2 -37.5q20 36 51.5 71.5t75.5 64t102 46.5t131 18q84 0 142.5 -18t98 -48t61.5 -68t33.5 -77.5t14 -77.5t2.5 -67q0 -5 -0.5 -34.5t-1.5 -72.5
t-2 -93t-2 -97t-1.5 -84.5t-0.5 -54.5q0 -15 0.5 -45.5t1 -64t1.5 -63t3 -40.5q-21 6 -43.5 9t-60.5 3q-40 0 -63 -3t-46 -9q7 82 11 162.5t5.5 146.5t2 112t0.5 60q0 77 -5.5 149t-28.5 127.5t-71 89t-133 33.5q-81 0 -143.5 -36t-100.5 -105q-14 -27 -21 -79t-10.5 -111.5
t-4 -116t-0.5 -92.5q0 -120 5.5 -201.5t10.5 -138.5q-22 5 -47.5 8.5t-61.5 3.5q-35 0 -60 -3.5t-48 -8.5q4 47 7.5 97.5t6.5 115.5t4.5 150t1.5 200z" />
    <glyph glyph-name="o" unicode="o" horiz-adv-x="1251" 
d="M618 997q146 0 248.5 -44t166.5 -115t93 -162t29 -184q0 -122 -40 -220.5t-111.5 -167.5t-170 -106t-215.5 -37q-54 0 -113.5 9t-117.5 32t-110.5 60.5t-92 95.5t-63 137t-23.5 184q0 120 38 216t107 163t164.5 103t210.5 36zM631 915q-81 0 -136.5 -27.5t-91.5 -70
t-55.5 -94t-28.5 -99.5t-10.5 -86t-1.5 -53q0 -107 22.5 -189t63.5 -138.5t99 -85.5t129 -29q73 0 133 31t103 88t66 138.5t23 182.5q0 40 -5 87.5t-17.5 95.5t-35 93t-57.5 79.5t-84.5 55.5t-115.5 21z" />
    <glyph glyph-name="p" unicode="p" horiz-adv-x="1251" 
d="M1155 485q0 -121 -35.5 -218.5t-97.5 -165.5t-148 -105t-186 -37q-72 0 -128.5 18t-98 46t-68.5 61.5t-39 65.5v-218.5t0.5 -180t3 -155t7.5 -143.5q-23 6 -46.5 9t-60.5 3q-38 0 -62 -3t-49 -9q13 201 18 400.5t5 400.5q0 140 -2.5 325.5t-7.5 409.5q21 -5 46 -8.5
t54 -3.5q28 0 53.5 3.5t46.5 8.5q-3 -42 -4.5 -70.5t-2.5 -48.5t-1 -35.5v-31.5q12 20 36 53t65 65t101.5 55t145.5 23q51 0 105 -12.5t104.5 -39.5t95 -68t78 -98.5t53 -131t19.5 -164.5zM664 897q-83 0 -139 -31t-91 -75q-15 -20 -30 -45t-27 -62.5t-19.5 -91t-7.5 -129.5
q0 -68 7 -115.5t19 -82t27 -58.5t31 -43q40 -48 93 -74.5t124 -26.5q73 0 123.5 26t83 66.5t50 89.5t25.5 94.5t9.5 82.5t1.5 53q0 116 -25 196.5t-65 130.5t-90 72.5t-100 22.5z" />
    <glyph glyph-name="q" unicode="q" horiz-adv-x="1251" 
d="M94 485q0 91 19.5 164t53 130.5t78.5 99t95.5 68t104.5 39.5t106 13q62 0 119 -16t106 -47q27 -17 46 -33.5t32.5 -33t24 -33t20.5 -33.5q0 60 -3 109t-5 77q22 -6 44 -9t56 -3q32 0 55.5 3.5t45.5 8.5q-2 -33 -3.5 -64t-2.5 -67.5t-2 -83.5t-1.5 -113.5t-1 -156
t-0.5 -211.5v-187.5t1 -148t2.5 -123.5t4 -115t6.5 -122l9 -144q-23 6 -48.5 9t-62.5 3q-35 0 -59 -3t-47 -9q4 62 6 124t3 140.5t1 182.5v250q-11 -29 -36.5 -62t-67 -62t-98.5 -48t-132 -19q-102 0 -188 37t-148.5 105.5t-97.5 166t-35 217.5zM305 487q0 -20 1.5 -59.5
t9.5 -86.5t25.5 -96.5t50 -89.5t83 -66t123.5 -26q33 0 59.5 5.5t48 14.5t38.5 19.5t30 20.5q43 33 68.5 72t38.5 84t16.5 96t3.5 108q0 26 -2 59t-7.5 67t-14.5 66.5t-23 59.5q-26 49 -58 80.5t-66.5 49.5t-69.5 25t-66 7q-66 0 -119.5 -29t-91 -82.5t-58 -129
t-20.5 -169.5z" />
    <glyph glyph-name="r" unicode="r" horiz-adv-x="797" 
d="M729 795q-20 10 -42.5 18t-63.5 8q-44 0 -78 -13t-59 -31t-41 -38t-23 -34q-11 -24 -17.5 -48t-10 -62t-4.5 -97.5t-1 -153.5v-23.5v-34.5t0.5 -39t1.5 -36q3 -54 4.5 -86t2.5 -54.5t1.5 -39.5t1.5 -41q-23 6 -46.5 9t-63.5 3q-37 0 -58.5 -3t-44.5 -9q4 33 7 62.5
t5.5 61t4.5 68t3.5 83t2 107t0.5 140.5q0 87 -1.5 153.5t-3.5 122t-5 103.5t-6 98q23 -6 46.5 -9t57.5 -3t57 3t47 9q-12 -85 -14 -144t-2 -87q13 31 39 74.5t69.5 82.5t108 63.5t154.5 16.5q-6 -23 -12.5 -54.5t-6.5 -78.5q0 -9 0.5 -20.5t3.5 -36.5z" />
    <glyph glyph-name="s" unicode="s" horiz-adv-x="909" 
d="M682 758q-3 11 -7.5 26t-13 31.5t-23 33.5t-36.5 32q-16 11 -34 18t-36 10.5t-34.5 4.5t-28.5 1q-94 0 -142 -43.5t-48 -109.5q0 -45 20 -76t49 -52t62.5 -33t60.5 -19q68 -18 128 -36.5t105 -49.5t71 -79.5t26 -125.5q0 -59 -21.5 -117.5t-68.5 -106t-122 -77
t-181 -29.5q-62 0 -114 11t-91.5 26t-64.5 29t-34 20q10 18 18 42.5t14 48t10 43.5l6 30l24 6q5 -13 12.5 -29.5t20 -34.5t31 -36t47.5 -35q38 -23 76.5 -31t72.5 -8q40 0 77.5 10t66 30.5t46 52t17.5 75.5t-14.5 72t-47.5 50t-87.5 41.5t-135.5 45.5q-33 11 -73.5 29.5
t-76 50t-59.5 78t-24 114.5q0 44 15.5 97t55.5 99.5t108.5 77.5t174.5 31q53 0 95.5 -7t75.5 -17.5t57.5 -22t42.5 -20.5q-16 -40 -26 -80t-15 -92h-27z" />
    <glyph glyph-name="t" unicode="t" horiz-adv-x="682" 
d="M213 872q-25 0 -41.5 -0.5t-33 -1.5t-37 -2.5t-52.5 -3.5q2 11 3 22.5t1 28.5q0 16 -1 27.5t-3 24.5q25 -3 66 -6q20 -2 44.5 -3.5t53.5 -1.5v51t-0.5 50t-1.5 56.5t-2 70.5q21 4 51 16t60 26.5t56.5 28.5t41.5 23q-4 -64 -6 -103t-3.5 -70.5t-2.5 -64.5t-3 -84
q57 0 113 3t109 8q-2 -13 -3 -24t-1 -28t1 -27.5t3 -21.5q-39 2 -99 4t-123 2q-6 -140 -8 -280t-2 -281q0 -62 6 -110t22 -80.5t44 -49t72 -16.5q7 0 18.5 1.5t25 3.5l27 4t23.5 4q-3 -17 -3 -27.5t3 -30.5q-18 -10 -40.5 -17t-46.5 -12t-46.5 -7.5t-40.5 -2.5q-44 0 -79 11
t-62 28.5t-46 39.5t-32 44q-6 11 -11.5 24.5t-9.5 34.5t-6 53.5t-2 80.5v27.5t0.5 43.5t1 73.5t2.5 117.5v323z" />
    <glyph glyph-name="u" unicode="u" horiz-adv-x="1251" 
d="M594 98q48 0 87 13t68 34t49.5 46.5t32.5 50.5q14 27 21.5 56.5t11 58t4 54.5t0.5 48q0 33 -0.5 77t-1 92.5t-1.5 100t-2.5 99t-3 89.5t-3.5 72q23 -5 51 -8.5t60 -3.5q34 0 56 3.5t44 8.5q-3 -45 -6.5 -102.5t-6.5 -124t-5 -140.5t-2 -153q0 -114 0.5 -188.5t2 -125.5
t4 -88t5.5 -77q-26 5 -48 8.5t-53 3.5q-27 0 -47.5 -3t-48.5 -9q2 22 3.5 38t2.5 35.5t1.5 47.5t2.5 73q-38 -70 -84.5 -112t-92.5 -64.5t-87.5 -29.5t-70.5 -7q-80 0 -137.5 18.5t-97 49t-63 69t-35.5 78t-16 77t-4 65.5q0 15 1 48.5t2 76t2.5 90t2.5 91t2 78t1 52.5
q0 28 -1 61t-2 64t-3 57.5t-3 42.5q23 -6 47 -9t58 -3q32 0 55.5 3t46.5 9q-5 -56 -8 -115t-5.5 -115.5t-3.5 -108t-1 -93.5q0 -91 3.5 -174t24 -146.5t65 -101t126.5 -37.5z" />
    <glyph glyph-name="v" unicode="v" 
d="M541 221q4 -4 6 -4t6 4l22 47q9 19 27.5 65.5t41.5 110t49.5 137.5t51.5 148t47 141.5t37 118.5q20 -5 40.5 -8.5t41.5 -3.5q34 0 55 4.5t40 7.5q-31 -62 -68 -138t-76.5 -160t-80 -174t-78 -180.5t-70.5 -178.5t-58 -168q-11 5 -28.5 8.5t-46.5 3.5q-32 0 -49 -3.5
t-29 -8.5q-83 258 -190 506.5t-222 492.5q29 -6 55.5 -9t61.5 -3q46 0 77 3.5t50 8.5q19 -58 41.5 -123t46.5 -132.5t49 -134.5t48 -127.5t44 -112.5t37 -89z" />
    <glyph glyph-name="w" unicode="w" horiz-adv-x="1593" 
d="M774 713q-6 0 -18.5 -27.5t-26.5 -69.5q-6 -18 -26.5 -75.5t-49.5 -141.5t-65.5 -189.5t-73.5 -219.5q-14 5 -33.5 8.5t-44.5 3.5q-28 0 -44 -3.5t-27 -8.5q-4 20 -18 63.5t-35 103.5t-47 132t-54.5 149t-58.5 155.5t-58 151t-52.5 135.5t-43.5 109q17 -5 47.5 -8.5
t71.5 -3.5q12 0 43 1.5t76 10.5q15 -75 52 -194t91 -283q3 -11 11 -35.5t18.5 -55t21.5 -63t21.5 -59t18 -44t11.5 -17.5q5 0 18.5 26.5t33.5 75.5t44.5 117.5t51.5 152t55 179.5t55 200q25 -6 42.5 -9t43.5 -3q29 0 46.5 3.5t37.5 8.5q15 -65 32 -126t37 -126t44 -137
t53 -160q31 -94 52 -148t30 -54q6 0 30.5 54t61 152.5t81 237t91.5 307.5q19 -6 35.5 -8t38.5 -2q34 0 53.5 2.5t34.5 7.5q-23 -43 -55.5 -114.5t-69.5 -159.5t-77 -186.5t-78 -195t-72 -185.5t-60 -158q-9 3 -28.5 7.5t-40.5 4.5q-11 0 -29.5 -2t-44.5 -10q-24 81 -46 150
t-46 139.5t-52.5 150.5t-66.5 184q-15 44 -26 71.5t-17 27.5z" />
    <glyph glyph-name="x" unicode="x" 
d="M588 537q25 -32 56.5 -75t67 -91.5t72.5 -100t72 -102t67 -96t58 -82.5q-25 5 -57.5 8.5t-67.5 3.5q-34 0 -69.5 -4.5t-57.5 -7.5q-59 103 -124 200.5t-134 194.5q-38 -53 -77.5 -111.5t-75.5 -112.5t-65 -99t-46 -72q-17 5 -38 8.5t-52 3.5q-32 0 -51.5 -3.5t-36.5 -8.5
q44 49 99 111.5t109.5 127t103.5 126.5t81 110q-40 56 -92 125t-106.5 140t-107 138.5t-93.5 120.5q30 -5 66 -8.5t79 -3.5q38 0 65 3t58 9q37 -65 96 -164t150 -215q20 28 50 71.5t64.5 94.5t70.5 106t66 107q13 -5 30.5 -8.5t51.5 -3.5q31 0 58.5 4.5t40.5 7.5
q-11 -12 -19.5 -20.5t-18.5 -19.5t-23.5 -26.5t-35.5 -39.5q-35 -42 -61 -72.5t-47 -55.5t-39 -47t-38 -46.5t-43.5 -54.5t-55.5 -70z" />
    <glyph glyph-name="y" unicode="y" 
d="M365 166q-23 54 -51.5 122t-58.5 139t-58.5 139t-51.5 122q-22 55 -37 91t-28.5 66.5t-29 63t-38.5 80.5q26 -6 54 -9t75 -3q34 0 57 1.5t54 10.5q4 -14 17.5 -52t33.5 -92.5t44.5 -121.5t51.5 -138t55 -142t54 -134q11 -26 22.5 -47.5t20.5 -21.5q5 0 22 32.5t41 87.5
t53.5 129t60 157.5t60 171t54.5 171.5q17 -5 39.5 -8.5t50.5 -3.5q29 0 49 3.5t33 8.5q-9 -14 -17.5 -28.5t-19.5 -35t-25 -50t-35 -75t-50.5 -109.5t-69.5 -152q-17 -38 -34 -74.5t-36 -73.5q-52 -114 -105 -230t-102 -233t-92.5 -233.5t-77.5 -231.5q-11 5 -29.5 9
t-41.5 4q-40 0 -93 -13q68 127 133.5 250t126.5 250z" />
    <glyph glyph-name="z" unicode="z" 
d="M41 43q88 108 174.5 216.5t171.5 217.5q12 15 35 46.5t51.5 70.5t60 81.5t59.5 80.5t50.5 68t32.5 44q-18 1 -34 2.5t-32.5 2t-34.5 1t-40 0.5q-7 0 -32 -0.5t-61.5 -1.5t-80 -2.5t-88 -5t-86.5 -8.5t-74 -12q3 18 5.5 33.5t2.5 35.5q0 23 -2.5 40t-5.5 32q32 -5 61.5 -8
t56.5 -6q32 -4 62.5 -6.5t62 -4t64 -2t69.5 -0.5q121 0 241 2.5t241 10.5v-37q-22 -22 -39 -40.5t-39 -44t-53 -64t-79.5 -100t-118.5 -152.5t-171 -222q-8 -11 -26.5 -34.5t-40 -54t-42.5 -64t-36 -64.5h121t152.5 2.5t174 8t184.5 16.5q-3 -14 -5.5 -27t-2.5 -28
q0 -17 2.5 -36.5t5.5 -39.5q-18 1 -63.5 3.5t-109 4t-140 3t-156.5 1.5q-152 0 -267 -3t-181 -9v53z" />
    <glyph glyph-name="braceleft" unicode="{" horiz-adv-x="834" 
d="M78 621q40 2 74 9.5t62 17.5t48.5 21.5t32.5 22.5q20 17 31.5 35.5t17.5 42t8 52.5t2 67v94q0 48 2 97t13 94t35.5 85.5t69.5 71.5t114 51t170 25v-82q-65 -4 -110 -19t-74 -38.5t-44.5 -53t-22.5 -62.5t-8 -67t-1 -67v-86q0 -35 -1 -73t-8.5 -74.5t-23.5 -70t-45.5 -61
t-75 -47t-111.5 -26.5q99 -12 152.5 -47t78.5 -84t29.5 -107t4.5 -115v-100q0 -29 1 -61t8.5 -63.5t23 -60t44.5 -51.5t73.5 -38t109.5 -19v-82q-96 5 -163.5 23.5t-112.5 47t-70.5 66t-38.5 81.5t-16 92.5t-3 99.5v108q0 43 -4.5 87t-30 81.5t-82 64.5t-159.5 36v82z" />
    <glyph glyph-name="bar" unicode="|" horiz-adv-x="455" 
d="M162 1536h133v-2048h-133v2048z" />
    <glyph glyph-name="braceright" unicode="}" horiz-adv-x="834" 
d="M758 539q-81 -5 -137 -27.5t-80 -44.5q-20 -17 -32 -35.5t-18 -42t-8 -52.5t-2 -67v-94q0 -48 -2 -96.5t-13 -94t-35.5 -85.5t-69 -71.5t-113.5 -51.5t-170 -25v82q65 4 110 19t74 38.5t44.5 53t22.5 62.5t8 67t1 67v86q0 35 1 73t8.5 74.5t23.5 70.5t45.5 61.5
t74.5 46.5t111 27q-66 7 -111 25.5t-74.5 45t-45.5 59.5t-23.5 69.5t-8.5 75.5t-1 77v100q0 44 -4 93t-28.5 91.5t-77.5 72.5t-150 36v82q96 -5 163.5 -23.5t112 -47t70 -66t38.5 -81.5t16 -92.5t3 -99.5v-108q0 -29 1.5 -58t9 -57t24 -53t47.5 -45.5t78.5 -34.5t116.5 -20
v-82z" />
    <glyph glyph-name="asciitilde" unicode="~" horiz-adv-x="1214" 
d="M70 354q4 54 21.5 105.5t49 91t77.5 64t106 24.5q65 0 141 -23t153 -51q79 -29 151 -52.5t126 -23.5q34 0 61 12.5t46.5 34t32 51t18.5 64.5h92q-4 -54 -21.5 -105t-49 -90.5t-77.5 -64t-106 -24.5q-32 0 -67 6t-73 16.5t-77 24t-78 28.5q-77 28 -149 51t-128 23
q-23 0 -48 -9t-47.5 -28.5t-39 -50t-22.5 -74.5h-92z" />
    <glyph glyph-name="uni00A0" unicode="&#xa0;" horiz-adv-x="512" 
 />
    <glyph glyph-name="exclamdown" unicode="&#xa1;" horiz-adv-x="909" 
d="M442 729q-26 0 -49.5 10t-41 27.5t-28 41.5t-10.5 52q0 27 10 50.5t27.5 41t41 27.5t50.5 10q28 0 52 -10.5t41.5 -28t27.5 -41t10 -49.5q0 -27 -10 -51t-27.5 -41.5t-41.5 -28t-52 -10.5zM555 -219q3 -29 4.5 -44.5t1.5 -31.5q0 -11 -2 -35.5t-13 -50t-34.5 -44.5
t-65.5 -19q-43 0 -66 19.5t-33.5 45t-12.5 50t-2 34.5q0 19 1.5 37t4.5 41l82 827q15 -2 27.5 -2t27.5 2z" />
    <glyph glyph-name="cent" unicode="&#xa2;" 
d="M500 96q24 -11 63.5 -25t102.5 -14q32 0 69 6.5t74.5 20t72 34.5t62.5 50l19 -6q-14 -42 -17.5 -69.5t-5.5 -49.5q-48 -32 -126 -56t-175 -24q-68 0 -113 7.5t-65 11.5q-9 -25 -16 -47t-14 -46.5t-15.5 -55.5t-20.5 -73q-29 20 -50 26t-50 9q7 21 17 46.5t20.5 52
t20.5 51.5l18 45q3 6 4 9t4 9q-17 7 -44.5 22.5t-59 40.5t-64 61.5t-58.5 86t-42.5 113.5t-16.5 145q0 118 36.5 214t106.5 164.5t170 106t228 37.5q31 0 51 -1t33 -3q4 13 12.5 38.5t19 59t22 72.5t22.5 80q32 -21 54.5 -28t47.5 -9q-24 -55 -38 -88.5t-23 -56.5
t-15.5 -40.5t-13.5 -41.5q66 -14 103.5 -31.5t62.5 -31.5q-23 -59 -31.5 -102.5t-13.5 -72.5h-25q-5 12 -13 30t-22.5 38.5t-37 41t-56.5 38.5zM690 911q-19 3 -37.5 2.5t-34 -2t-26 -3.5t-14.5 -3q-61 -11 -104.5 -37.5t-73.5 -62t-48.5 -78t-28 -85t-13 -83t-3.5 -72.5
q0 -82 13.5 -140t32.5 -97t39.5 -63t35.5 -37z" />
    <glyph glyph-name="sterling" unicode="&#xa3;" 
d="M920 1155q-26 81 -85 121.5t-135 40.5q-62 0 -105 -21t-70.5 -54.5t-42.5 -75.5t-22 -84t-8 -79.5t-1 -62.5q0 -32 0.5 -58t2 -48t2.5 -41t3 -37q57 0 102 0.5t83 2t71.5 3.5t68.5 4q-3 -12 -5.5 -26t-2.5 -29q0 -17 2.5 -29t5.5 -25q-47 5 -82.5 7.5t-71 4t-76 1.5
h-97.5q0 -22 -0.5 -52t-4.5 -67t-14 -80t-28 -90q-20 -50 -42 -86.5t-42.5 -63t-39 -44t-32.5 -29.5h256q54 0 123.5 1t138.5 2.5t130 4t97 6.5q-5 -25 -7.5 -43t-2.5 -49q0 -29 2.5 -48t7.5 -42q-9 1 -49.5 3.5t-101 5.5t-135 5t-150.5 2q-63 0 -130.5 -0.5t-121.5 -3.5
q-65 -3 -104.5 -5t-67.5 -3.5t-51.5 -2t-56.5 -1.5q5 15 7.5 29.5t2.5 43.5q0 26 -2.5 41.5t-7.5 32.5q64 -11 110.5 9.5t77 63t45.5 103t15 131.5q0 57 -4.5 113.5t-10.5 112.5q-45 0 -73.5 -0.5t-50.5 -1t-43 -2t-50 -2.5q3 12 5.5 24.5t2.5 26.5t-2.5 26.5t-5.5 26.5
q37 -4 60.5 -6t44.5 -3t44.5 -1.5t61.5 -1.5q-3 24 -6.5 58.5t-3.5 82.5q0 60 6.5 107.5t18 86t27.5 68.5t36 55q26 33 63.5 66.5t87.5 60.5t112 43.5t138 16.5q50 0 114 -11t142 -47q-20 -43 -31 -90.5t-14 -97.5h-28z" />
    <glyph glyph-name="currency" unicode="&#xa4;" 
d="M164 416q-9 14 -24 36.5t-28.5 55t-23.5 74.5t-10 94q0 69 22 135t64 123l-131 131l88 88l131 -131q18 13 42 28t55.5 28t71.5 21.5t91 8.5q47 0 85.5 -8t70 -21t57.5 -28t47 -29l131 131l88 -88l-131 -131q42 -57 64 -123t22 -137q0 -50 -10 -91.5t-23.5 -73.5
t-28.5 -55t-24 -36l131 -133l-88 -88l-133 133q-57 -42 -122 -65t-136 -23t-136.5 22t-121.5 64l-133 -131l-88 88zM512 975q-62 0 -117 -23.5t-96 -64t-64.5 -95.5t-23.5 -118q0 -62 23.5 -116t64.5 -95t96 -64.5t117 -23.5t117 23.5t96 64t64.5 95t23.5 116.5
q0 64 -24 119t-65 95.5t-96 63.5t-116 23z" />
    <glyph glyph-name="yen" unicode="&#xa5;" 
d="M420 543q-71 0 -140.5 -0.5t-138.5 -3.5q5 14 7 28.5t2 28.5t-3.5 25.5t-5.5 19.5q62 -2 125 -4t137 -2q-18 32 -35 63.5t-34 65.5q-37 75 -72 144t-72.5 141t-79 151.5t-90.5 175.5q47 -9 83 -10.5t53 -1.5q10 0 24 0.5t30 2t32 3.5t30 6q9 -26 24 -69t34.5 -95.5
t42 -110.5t45.5 -114.5t45 -108t40.5 -91t33 -62.5t22.5 -23q9 0 24 27t34.5 75t43 112.5t49 139.5t52 156.5t53.5 163.5q23 -8 48.5 -10t49.5 -2q15 0 26 0.5t21.5 2t21 3.5t22.5 6q-62 -122 -120.5 -243.5t-121.5 -243.5l-92 -180q-16 -29 -23 -43.5t-16 -30.5
q130 0 262 6q-5 -15 -6.5 -29t-1.5 -22q0 -17 2.5 -28.5t5.5 -22.5q-75 2 -142 3t-137 1v-133h84.5h66t60.5 1t68 3q-5 -16 -6.5 -30.5t-1.5 -25.5q0 -15 2.5 -25.5t5.5 -21.5q-16 1 -55.5 2t-83.5 2t-83.5 1.5t-56.5 0.5q0 -38 1.5 -80t3.5 -85t4 -84.5t4 -77.5
q-29 9 -55.5 10.5t-45.5 1.5q-47 0 -73.5 -2.5t-49.5 -9.5q10 86 13.5 168t3.5 159q-28 0 -64.5 -0.5t-74.5 -1t-75 -2t-65 -2.5q9 31 9 58q0 17 -3 28.5t-6 16.5q52 -2 88 -2.5t66 -1t58.5 -0.5h66.5v133z" />
    <glyph glyph-name="brokenbar" unicode="&#xa6;" horiz-adv-x="455" 
d="M162 358h133v-716h-133v716zM162 1382h133v-716h-133v716z" />
    <glyph glyph-name="section" unicode="&#xa7;" 
d="M764 1137q-9 31 -27.5 62.5t-46.5 56t-66 40t-87 15.5q-48 0 -89 -12.5t-70.5 -36.5t-46 -58t-16.5 -76q0 -51 23 -87.5t64 -65.5t98 -55t125 -54q48 -20 99.5 -42t96.5 -50q24 -15 44 -38t34.5 -52t22.5 -63t8 -70q0 -80 -44 -148.5t-110 -126.5q31 -28 49.5 -57t28 -56
t12 -50.5t2.5 -40.5q0 -73 -29 -140.5t-83.5 -119t-133.5 -82.5t-178 -31q-57 0 -107.5 10.5t-90.5 25.5t-68.5 31.5t-42.5 28.5q19 48 27.5 98.5t5.5 104.5h20q41 -103 116.5 -158t172.5 -55q50 0 93.5 13.5t76 40t51.5 65.5t19 90q0 53 -17.5 89.5t-55 66t-96.5 57.5
t-142 63q-59 25 -115.5 53t-100 65.5t-70 89.5t-26.5 126q0 61 18 106.5t43 78t52 54t45 34.5q-9 8 -21.5 22t-24 35.5t-20 51.5t-8.5 71q0 65 22 125t66 106t111.5 73.5t159.5 27.5q11 0 43.5 -1.5t76 -11t93 -30t94.5 -58.5q-29 -38 -41.5 -75.5t-22.5 -75.5h-16zM723 315
q8 7 22.5 20.5t28.5 33t24.5 45.5t10.5 59q0 45 -19.5 78t-53 58.5t-78 45.5t-95.5 41q-35 15 -66 29t-62 29.5t-65.5 35t-76.5 46.5q-40 -25 -64 -65.5t-24 -88.5t23.5 -84t59 -64t78 -49.5t80.5 -38.5q71 -32 114 -50.5t71 -31.5t47.5 -23.5t44.5 -25.5z" />
    <glyph glyph-name="dieresis" unicode="&#xa8;" horiz-adv-x="569" 
d="M389 1260q0 19 7.5 36t20.5 30t30 20.5t36 7.5q20 0 38 -7.5t31 -20.5t20.5 -30t7.5 -36q0 -41 -28 -69t-69 -28q-19 0 -36 7.5t-30 20t-20.5 30.5t-7.5 39zM-12 1260q0 19 7.5 36t20.5 30t30 20.5t36 7.5q20 0 37.5 -7.5t30.5 -20.5t20.5 -30t7.5 -36q0 -41 -28 -69
t-68 -28q-19 0 -36 7.5t-30 20t-20.5 30.5t-7.5 39z" />
    <glyph glyph-name="copyright" unicode="&#xa9;" horiz-adv-x="1593" 
d="M797 1425q101 0 195 -26t176 -73.5t149.5 -114t115.5 -148t74.5 -175.5t26.5 -196q0 -100 -26 -193.5t-74 -175t-115 -148.5t-149 -115t-176.5 -74.5t-196.5 -26.5t-197 26.5t-177 74.5t-149 115t-115 148.5t-74 175t-26 193.5q0 102 26.5 196t74.5 175.5t115.5 148
t149.5 114t176 73.5t196 26zM797 1346q-135 0 -253 -51t-206.5 -139.5t-139.5 -207.5t-51 -256q0 -90 23 -173.5t65 -156t101.5 -132t131.5 -102t155.5 -66t173.5 -23.5q136 0 254 51.5t206 140.5t138.5 208t50.5 253q0 91 -23 174.5t-65 156.5t-101.5 132.5t-131.5 102
t-155 65.5t-173 23zM1079 442q-3 -15 -5.5 -37.5t-4.5 -62.5q-45 -29 -89 -45.5t-81.5 -24t-65 -9t-38.5 -1.5q-96 0 -172 33t-128.5 91.5t-80 139t-27.5 174.5q0 88 25.5 166.5t78 137.5t132.5 94t190 35q49 0 90 -7t75 -17t60.5 -21.5t46.5 -20.5q-7 -20 -11 -34t-7 -26.5
t-5 -26.5t-3 -34h-12q-12 25 -35 49t-54.5 43t-70 30t-80.5 11q-68 0 -121.5 -27t-90.5 -76.5t-57 -119.5t-20 -156q0 -94 24.5 -165t65.5 -118t95.5 -71t113.5 -24q18 0 47.5 3.5t63.5 16.5t70.5 37.5t68.5 66.5z" />
    <glyph glyph-name="ordfeminine" unicode="&#xaa;" horiz-adv-x="666" 
d="M98 1262l6 88q15 11 35.5 24t48 24.5t62.5 19t80 7.5q19 0 42 -2.5t46.5 -8.5t46.5 -16.5t43 -27.5q23 -20 39 -51t16 -86q0 -14 -1 -46t-2 -67t-2 -66t-1 -42q0 -38 0.5 -64t5 -41.5t13.5 -22.5t26 -7q24 0 33 6l2 -43q-22 -11 -44.5 -19t-53.5 -8q-35 0 -62.5 18.5
t-40.5 55.5q-15 -15 -33 -29.5t-42.5 -26t-56 -18t-73.5 -6.5q-51 0 -86.5 15.5t-57 39.5t-31 52.5t-9.5 54.5q0 51 19.5 82t50.5 50t70.5 29t80.5 19l117 25q28 6 38.5 18.5t10.5 34.5q0 28 -11 51.5t-30 40.5t-44.5 26t-53.5 9q-42 0 -69 -10.5t-44 -25.5t-25.5 -30.5
t-13.5 -25.5h-45zM430 1124q-81 -12 -129 -27.5t-73 -33.5t-32.5 -39t-7.5 -45q0 -27 11 -45t27 -29t35 -15.5t34 -4.5q26 0 50.5 8.5t43 24t30 37t11.5 46.5v123z" />
    <glyph glyph-name="guillemotleft" unicode="&#xab;" 
d="M440 901q18 -18 32.5 -29.5t26.5 -18t21 -10t17 -5.5q-25 -28 -58 -69.5t-67.5 -88t-67.5 -93.5t-57 -85q34 -56 90.5 -141.5t144.5 -196.5q-32 -11 -54 -23.5t-48 -40.5q-35 61 -70.5 119t-69 109.5t-63.5 95t-53 76.5q16 18 39 48.5t49.5 67.5t54 77.5t53 79t46.5 72
t34 56.5zM762 901q18 -19 32.5 -30.5t26.5 -18t21.5 -9.5t17.5 -5q-24 -29 -57.5 -71t-68.5 -88.5t-68 -93.5t-58 -85q34 -54 92 -139.5t146 -196.5q-17 -5 -30.5 -10.5t-25.5 -13t-24 -17t-25 -23.5q-35 61 -70.5 118.5t-69 108.5t-63.5 94.5t-53 76.5q16 19 39.5 49.5
t50 67.5t54.5 78t53 79.5t46 72t34 56.5z" />
    <glyph glyph-name="logicalnot" unicode="&#xac;" horiz-adv-x="1214" 
d="M94 758h1028v-514h-127v391h-901v123z" />
    <glyph glyph-name="uni00AD" unicode="&#xad;" horiz-adv-x="682" 
d="M590 416q-59 3 -100.5 5t-74 3t-58.5 1.5t-54 0.5q-33 0 -59.5 -0.5t-51 -2t-48.5 -3.5t-52 -4q3 20 5.5 39.5t2.5 50.5q0 29 -2.5 48t-5.5 38q59 -3 123.5 -6.5t132.5 -3.5q33 0 63 0.5t59 2t58.5 3.5t61.5 4q-3 -20 -5.5 -38t-2.5 -50t2.5 -50t5.5 -38z" />
    <glyph glyph-name="registered" unicode="&#xae;" horiz-adv-x="784" 
d="M592 858q-11 2 -21 3t-22 1q-11 0 -22.5 -1t-28.5 -3q-53 75 -94 122t-70 81h-15v-46t1 -45.5t2 -50.5t4 -61q-14 2 -23 3t-24 1q-16 0 -23 -1t-16 -3q1 17 2.5 36t2 44t1 57.5t0.5 77.5q0 39 -0.5 69t-1 54t-1 42.5t-1.5 35.5q22 -2 43.5 -2h56.5q38 0 75.5 -1.5
t67 -10.5t48 -29t18.5 -57q0 -33 -15.5 -52.5t-37 -31t-44.5 -16t-38 -5.5q10 -14 35 -44t53.5 -62.5t54 -60.5t35.5 -38zM471 1169q0 28 -14 43t-35.5 22t-48 8t-51.5 1q-2 -42 -2.5 -79t-0.5 -74q17 0 43 1t50 8.5t41.5 23.5t17.5 46zM25 1057q0 78 29 145.5t78.5 117
t116.5 77.5t142 28q78 0 145 -28.5t117 -78.5t78.5 -117t28.5 -144q0 -78 -29 -145t-78.5 -117t-116.5 -78.5t-143 -28.5q-77 0 -144 28.5t-117 78.5t-78.5 117t-28.5 145zM690 1057q0 62 -22 117t-61.5 96.5t-94.5 65.5t-121 24q-63 0 -117.5 -23.5t-94 -64.5t-62.5 -96
t-23 -119q0 -65 22.5 -120t62 -96t94 -64t118.5 -23t119 23t95 63.5t62.5 96t22.5 120.5z" />
    <glyph glyph-name="macron" unicode="&#xaf;" horiz-adv-x="569" 
d="M12 1311h545v-103h-545v103z" />
    <glyph glyph-name="degree" unicode="&#xb0;" horiz-adv-x="834" 
d="M416 1386q64 0 121 -24.5t99 -66.5t66.5 -98t24.5 -120t-24.5 -120.5t-66.5 -99t-99 -67t-121 -24.5t-120.5 24.5t-98.5 66.5t-66.5 98.5t-24.5 121.5q0 64 25 120.5t67 98.5t98.5 66t119.5 24zM416 1270q-39 0 -74.5 -15t-61.5 -41.5t-41.5 -61.5t-15.5 -75
q0 -41 15 -76t41.5 -61.5t61.5 -41.5t75 -15t75.5 15.5t62 42t41.5 61.5t15 75t-15 75t-41.5 61.5t-62 41.5t-75.5 15z" />
    <glyph glyph-name="plusminus" unicode="&#xb1;" horiz-adv-x="1214" 
d="M539 545h-447v123h447v356h135v-356h446v-123h-446v-355h-135v355zM92 102h1028v-122h-1028v122z" />
    <glyph glyph-name="twosuperior" unicode="&#xb2;" horiz-adv-x="666" 
d="M27 590q74 65 142 129t136 135q19 20 43 47.5t45 62.5t35 77t14 92q0 21 -4.5 53t-20 62.5t-46 52.5t-82.5 22q-24 0 -52 -8.5t-51.5 -28t-39 -51.5t-13.5 -80l-24 -4q-11 28 -29.5 49.5t-32.5 38.5q7 12 24 37t48.5 50t81 44t121.5 19q64 0 114.5 -17t85 -47t52.5 -70
t18 -86q0 -42 -12.5 -81.5t-33 -74.5t-46 -66t-51.5 -56l-244 -232h239q48 0 94.5 2t88.5 7q-6 -26 -6 -58q0 -18 1.5 -32t4.5 -29q-29 2 -74.5 4t-93.5 2q-49 0 -104 -0.5t-111.5 -1.5t-111.5 -2t-105 -2v41z" />
    <glyph glyph-name="threesuperior" unicode="&#xb3;" horiz-adv-x="666" 
d="M76 690q19 -30 42.5 -48t47.5 -28t46.5 -13t39.5 -3q58 0 96.5 19.5t60.5 47.5t31 60t9 57q0 46 -16 78.5t-43 53.5t-62.5 30.5t-73.5 9.5q-22 0 -35 -1.5t-29 -6.5q2 6 3.5 14.5t1.5 22.5q0 12 -1.5 21.5t-3.5 21.5q16 -3 32.5 -5.5t33.5 -2.5q44 0 74 16t49 40t27 53
t8 55q0 31 -11 57.5t-30.5 45.5t-46.5 29.5t-58 10.5q-26 0 -50.5 -8.5t-44.5 -24t-33.5 -37t-16.5 -47.5l-25 2q-3 15 -6 26t-7.5 21t-10.5 20.5t-15 25.5q14 11 34 25t48 27t65.5 21.5t86.5 9.5q39 0 85 -8.5t85 -30t65.5 -58t26.5 -91.5q0 -36 -13 -67.5t-35.5 -57
t-54.5 -44t-69 -28.5q-16 -5 -19.5 -6t-3.5 -4t2.5 -3.5t4.5 -0.5q17 0 41 -3t49.5 -11.5t51 -22.5t45 -35.5t32 -51.5t12.5 -70q0 -55 -24.5 -101.5t-70 -81t-111 -54t-146.5 -19.5q-42 0 -74.5 5t-58 12.5t-44.5 16t-34 15.5q4 10 7.5 20t5 21t2.5 25.5t1 35.5z" />
    <glyph glyph-name="acute" unicode="&#xb4;" horiz-adv-x="569" 
d="M505 1124l275 273q24 24 39 38.5t26 22t20 10t21 2.5q28 0 49 -21t21 -50q0 -37 -39 -62l-340 -213h-72z" />
    <glyph glyph-name="mu" unicode="&#xb5;" horiz-adv-x="1251" 
d="M594 98q48 0 87 13t68 34t49.5 46.5t32.5 50.5q14 27 21.5 56.5t11 58t4 54.5t0.5 48q0 33 -0.5 77t-1 92.5t-1.5 100t-2.5 99t-3 89.5t-3.5 72q23 -5 51 -8.5t60 -3.5q34 0 56 3.5t44 8.5q-3 -45 -6.5 -102.5t-6.5 -124t-5 -140.5t-2 -153q0 -114 0.5 -188.5t2 -125.5
t4 -88t5.5 -77q-26 5 -48 8.5t-53 3.5q-27 0 -47.5 -3t-48.5 -9q2 22 3.5 38t2.5 35.5t1.5 47.5t2.5 73q-38 -70 -84.5 -112t-92.5 -64.5t-87.5 -29.5t-70.5 -7q-48 0 -87 10.5t-67 30.5v-175t1 -144.5t3 -124.5t6 -115q-23 6 -46 9t-60 3q-38 0 -62 -3t-49 -9
q13 190 17 379.5t4 378.5v191.5t-1 202.5t-3.5 200t-6.5 184q23 -6 47 -9t58 -3q32 0 55.5 3t46.5 9q-5 -56 -8 -115t-5.5 -115.5t-3.5 -108t-1 -93.5q0 -91 3.5 -174t24 -146.5t65 -101t126.5 -37.5z" />
    <glyph glyph-name="paragraph" unicode="&#xb6;" 
d="M913 1276v-1704h-141v1704h-246v-1704h-141v889q-82 6 -145.5 29t-110 57.5t-78 78t-51 92t-27.5 98.5t-8 97t9.5 101t32.5 107.5t62 102.5t97.5 86.5t139.5 60t188 22.5h530v-117h-111z" />
    <glyph glyph-name="periodcentered" unicode="&#xb7;" horiz-adv-x="512" 
d="M258 635q27 0 50.5 -10.5t41 -28t27.5 -41t10 -49.5q0 -27 -10 -51t-27.5 -41.5t-41 -28t-50.5 -10.5q-28 0 -52 10.5t-41.5 28t-27.5 41t-10 49.5q0 27 10 50.5t27.5 41.5t41.5 28.5t52 10.5z" />
    <glyph glyph-name="cedilla" unicode="&#xb8;" horiz-adv-x="569" 
d="M125 -356q26 -10 56.5 -17.5t68.5 -7.5q59 0 89 24.5t30 61.5q0 31 -22.5 56.5t-74.5 25.5q-21 0 -33.5 -3.5t-23.5 -8.5l-33 12l90 203h70l-61 -137q11 3 29 7.5t44 4.5q28 0 55.5 -9t50 -27t36.5 -45t14 -63q0 -53 -26 -86.5t-63 -52.5t-77.5 -26t-69.5 -7q-21 0 -64 6
t-114 27z" />
    <glyph glyph-name="onesuperior" unicode="&#xb9;" horiz-adv-x="666" 
d="M471 1389q-3 -20 -3.5 -32t-2.5 -32q-3 -33 -4.5 -86.5t-2.5 -117t-1.5 -130.5t-1 -128t-0.5 -109.5v-73.5v-85t2 -50q-25 3 -41 4.5t-35 1.5t-36.5 -1.5t-45.5 -4.5q2 18 4.5 36.5t4.5 41.5t3.5 51t1.5 65q0 6 0.5 31.5t0.5 65.5t1 91t1 107t0.5 114t0.5 112
q-9 -5 -37.5 -19.5t-63.5 -33.5t-69 -39t-55 -35q-11 17 -23 31t-38 28v14q21 7 52.5 18.5t69 26.5t77.5 33t79 37t74 38t61 38z" />
    <glyph glyph-name="ordmasculine" unicode="&#xba;" horiz-adv-x="813" 
d="M754 1122q0 -79 -27 -139t-74 -100t-110.5 -60t-136.5 -20t-136.5 20t-110 58.5t-73.5 95.5t-27 131q0 80 26.5 139.5t73.5 99t110.5 59t138.5 19.5q71 0 134 -19t110 -57t74.5 -95t27.5 -132zM207 1114q0 -44 10.5 -89t33.5 -82t61 -60t94 -23q54 0 92 24t62 61t35 82
t11 87q0 45 -10.5 90.5t-33.5 82t-61 59t-93 22.5q-57 0 -95.5 -22t-62 -57.5t-33.5 -81t-10 -93.5z" />
    <glyph glyph-name="guillemotright" unicode="&#xbb;" 
d="M281 100q-23 25 -48.5 40t-54.5 26q85 108 142 192.5t94 143.5q-26 39 -59 86t-67.5 93.5t-67 88t-56.5 68.5q29 9 50 22t46 41q13 -23 34 -56.5t46.5 -71.5t53 -78.5t54 -77.5t49.5 -67.5t40 -49.5q-20 -29 -49.5 -71t-63.5 -94.5t-71 -112t-72 -122.5zM604 100
q-23 25 -48 40t-56 26q86 108 143 192.5t94 143.5q-25 39 -58.5 86t-68 93.5t-67.5 88t-58 68.5q29 9 51.5 22t47.5 41q13 -23 34 -56.5t46 -71.5t52.5 -78.5t54 -77.5t49.5 -67.5t40 -49.5q-20 -29 -49 -71t-63.5 -94.5t-71.5 -112t-72 -122.5z" />
    <glyph glyph-name="onequarter" unicode="&#xbc;" horiz-adv-x="1673" 
d="M1182 219q-12 0 -33.5 -0.5t-47 -1t-52.5 -1t-50 -1.5q2 11 2 18.5t-2 22.5q9 10 32 39.5t53.5 70t67 89.5t73 98.5t71 96.5t61.5 84.5t44.5 61.5t19.5 27q13 -3 26.5 -4.5t35.5 -1.5q17 0 28.5 1.5t26.5 4.5q-2 -43 -3.5 -76.5t-2.5 -65t-1.5 -65t-1 -76t-1 -98.5
t-0.5 -133q22 1 36.5 1.5t26.5 0.5t24 0.5t30 1.5q-7 -25 -7 -51q0 -15 1.5 -26t5.5 -23q-22 3 -48 4.5t-69 1.5q0 -8 0.5 -31t0.5 -49.5t0.5 -49.5t0.5 -32q2 -29 2 -39v-22q-20 3 -36 5.5t-38 2.5q-15 0 -31 -2.5t-41 -5.5q2 35 6.5 93t4.5 130h-215zM1397 676
q-14 -18 -38 -49.5t-51.5 -68t-55.5 -73.5t-50 -65q-15 -21 -25.5 -36t-18.5 -27t-15.5 -23.5t-16.5 -24.5h271v367zM442 -35q-12 3 -23 4.5t-30 1.5q-22 0 -33.5 -1.5t-25.5 -4.5l897 1413q12 -3 24.5 -4.5t34.5 -1.5t33.5 1.5t23.5 4.5zM471 1389q-3 -20 -3.5 -32
t-2.5 -32q-3 -33 -4.5 -86.5t-2.5 -117t-1.5 -130.5t-1 -128t-0.5 -109.5v-73.5v-85t2 -50q-25 3 -41 4.5t-35 1.5t-36.5 -1.5t-45.5 -4.5q2 18 4.5 36.5t4.5 41.5t3.5 51t1.5 65q0 6 0.5 31.5t0.5 65.5t1 91t1 107.5t0.5 114.5t0.5 113q-9 -5 -37 -19.5t-63 -33t-70 -38.5
t-57 -36q-9 15 -21 29t-38 28v12q21 7 52.5 18.5t69 26.5t78 33t79.5 37t74 39t62 39z" />
    <glyph glyph-name="onehalf" unicode="&#xbd;" horiz-adv-x="1673" 
d="M442 -35q-12 3 -23 4.5t-30 1.5q-22 0 -33.5 -1.5t-25.5 -4.5l897 1413q12 -3 24.5 -4.5t34.5 -1.5t33.5 1.5t23.5 4.5zM1034 35q75 65 143 129t136 135q19 20 43 47.5t45 62.5t35 77t14 92q0 21 -4.5 53t-20 62.5t-46.5 52.5t-83 22q-24 0 -51.5 -8.5t-51 -28t-39 -51.5
t-13.5 -80l-25 -4q-11 28 -29 49.5t-32 38.5q7 12 23.5 37t48 50t81 44t121.5 19q64 0 114.5 -17t85 -47t52.5 -70t18 -86q0 -42 -12.5 -81.5t-33 -74.5t-46 -66t-51.5 -56l-244 -232h240q48 0 94 2t88 7q-6 -26 -6 -58q0 -18 1.5 -32t4.5 -29q-29 2 -74.5 4t-93.5 2
q-49 0 -104 -0.5t-111.5 -1.5t-111.5 -2t-105 -2v41zM471 1389q-3 -20 -3.5 -32t-2.5 -32q-3 -33 -4.5 -86.5t-2.5 -117t-1.5 -130.5t-1 -128t-0.5 -109.5v-73.5v-85t2 -50q-25 3 -41 4.5t-35 1.5t-36.5 -1.5t-45.5 -4.5q2 18 4.5 36.5t4.5 41.5t3.5 51t1.5 65q0 6 0.5 31.5
t0.5 65.5t1 91t1 107t0.5 114t0.5 112q-9 -5 -37.5 -19.5t-63.5 -33.5t-69 -39t-55 -35q-11 17 -23 31t-38 28v14q21 7 52.5 18.5t69 26.5t77.5 33t79 37t74 38t61 38z" />
    <glyph glyph-name="threequarters" unicode="&#xbe;" horiz-adv-x="1673" 
d="M1182 219q-12 0 -33.5 -0.5t-47 -1t-52.5 -1t-50 -1.5q2 11 2 18.5t-2 22.5q9 10 32 39.5t53.5 70t67 89.5t73 98.5t71 96.5t61.5 84.5t44.5 61.5t19.5 27q13 -3 26.5 -4.5t35.5 -1.5q17 0 28.5 1.5t26.5 4.5q-2 -43 -3.5 -76.5t-2.5 -65t-1.5 -65t-1 -76t-1 -98.5
t-0.5 -133q22 1 36.5 1.5t26.5 0.5t24 0.5t30 1.5q-7 -25 -7 -51q0 -15 1.5 -26t5.5 -23q-22 3 -48 4.5t-69 1.5q0 -8 0.5 -31t0.5 -49.5t0.5 -49.5t0.5 -32q2 -29 2 -39v-22q-20 3 -36 5.5t-38 2.5q-15 0 -31 -2.5t-41 -5.5q2 35 6.5 93t4.5 130h-215zM1397 676
q-14 -18 -38 -49.5t-51.5 -68t-55.5 -73.5t-50 -65q-15 -21 -25.5 -36t-18.5 -27t-15.5 -23.5t-16.5 -24.5h271v367zM453 -35q-13 3 -24 4.5t-30 1.5q-21 0 -33 -1.5t-26 -4.5l897 1413q12 -3 25 -4.5t34 -1.5q22 0 33.5 1.5t24.5 4.5zM76 690q19 -30 42.5 -48t47.5 -28
t46.5 -13t39.5 -3q58 0 96.5 19.5t60.5 47.5t31 60t9 57q0 46 -16 78.5t-43 53.5t-62.5 30.5t-73.5 9.5q-22 0 -35 -1.5t-29 -6.5q2 6 3.5 14.5t1.5 22.5q0 12 -1.5 21.5t-3.5 21.5q16 -3 32.5 -5.5t33.5 -2.5q44 0 74 16t49 40t27 53t8 55q0 31 -11 57.5t-30.5 45.5
t-46.5 29.5t-58 10.5q-26 0 -50.5 -8.5t-44.5 -24t-33.5 -37t-16.5 -47.5l-25 2q-3 15 -6 26t-7.5 21t-10.5 20.5t-15 25.5q14 11 34 25t48 27t65.5 21.5t86.5 9.5q39 0 85 -8.5t85 -30t65.5 -58t26.5 -91.5q0 -36 -13 -67.5t-35.5 -57t-54.5 -44t-69 -28.5q-16 -5 -19.5 -6
t-3.5 -4t2.5 -3.5t4.5 -0.5q17 0 41 -3t49.5 -11.5t51 -22.5t45 -35.5t32 -51.5t12.5 -70q0 -55 -24.5 -101.5t-70 -81t-111 -54t-146.5 -19.5q-42 0 -74.5 5t-58 12.5t-44.5 16t-34 15.5q4 10 7.5 20t5 21t2.5 25.5t1 35.5z" />
    <glyph glyph-name="questiondown" unicode="&#xbf;" horiz-adv-x="909" 
d="M496 729q-27 0 -51 10t-41.5 27.5t-28 41t-10.5 50.5q0 28 10 52t27.5 41.5t41.5 27.5t52 10q27 0 50.5 -10t41 -27.5t27.5 -41t10 -50.5q0 -28 -10.5 -52t-28 -41.5t-41 -27.5t-49.5 -10zM735 -252q2 -20 3.5 -32t4 -22.5t6.5 -22.5t11 -31q-35 -29 -73.5 -45
t-73.5 -23.5t-62 -8.5t-37 -1q-84 0 -146 23.5t-103 62.5t-61 90t-20 106q0 58 16.5 105.5t41 85.5t52.5 68t52 53q63 60 101 100t58.5 70t27 53t6.5 49q0 51 -28 81t-73 30q-21 0 -35.5 -6t-31.5 -15l-13 8q11 23 14 38.5t5 29.5q18 5 36.5 7.5t37.5 2.5q67 0 113.5 -22
t74.5 -56t40.5 -75t12.5 -78q0 -45 -14.5 -84.5t-38.5 -76t-54.5 -70.5t-62.5 -66q-43 -43 -73.5 -77t-50 -64.5t-29 -59.5t-9.5 -63q0 -36 11.5 -66t33.5 -52.5t53.5 -35t71.5 -12.5q126 0 187 106z" />
    <glyph glyph-name="Agrave" unicode="&#xc0;" horiz-adv-x="1366" 
d="M365 526q-15 -35 -37.5 -86.5t-48 -119t-53 -150.5t-52.5 -180q-18 3 -36.5 7.5t-47.5 4.5t-49.5 -4.5t-40.5 -7.5q45 99 99.5 218.5t112.5 248t117 261t114 258.5t103 240.5t85 206.5q12 -2 23 -4t28 -2q14 0 23.5 1.5t21.5 4.5q30 -81 72 -185t90.5 -219.5t100.5 -236
t102 -234.5t95 -214.5t79 -176.5t54 -121t21 -46q-26 5 -54 8.5t-66 3.5q-41 0 -71.5 -3.5t-59.5 -8.5q-27 92 -55.5 171.5t-56 146.5t-52 121.5t-43.5 96.5h-518zM621 1137l-215 -508h436zM762 1489l-342 213q-25 15 -31 32t-6 29q0 15 5.5 28t15.5 22.5t22.5 15.5t26.5 6
q11 0 19.5 -2.5t19 -10t26 -22t39.5 -39.5l277 -272h-72z" />
    <glyph glyph-name="Aacute" unicode="&#xc1;" horiz-adv-x="1366" 
d="M365 526q-15 -35 -37.5 -86.5t-48 -119t-53 -150.5t-52.5 -180q-18 3 -36.5 7.5t-47.5 4.5t-49.5 -4.5t-40.5 -7.5q45 99 99.5 218.5t112.5 248t117 261t114 258.5t103 240.5t85 206.5q12 -2 23 -4t28 -2q14 0 23.5 1.5t21.5 4.5q30 -81 72 -185t90.5 -219.5t100.5 -236
t102 -234.5t95 -214.5t79 -176.5t54 -121t21 -46q-26 5 -54 8.5t-66 3.5q-41 0 -71.5 -3.5t-59.5 -8.5q-27 92 -55.5 171.5t-56 146.5t-52 121.5t-43.5 96.5h-518zM621 1137l-215 -508h436zM535 1489l274 272q24 25 39.5 39.5t26 22t19.5 10t21 2.5q14 0 26.5 -6t22.5 -15.5
t15.5 -22.5t5.5 -28q0 -38 -39 -61l-340 -213h-71z" />
    <glyph glyph-name="Acircumflex" unicode="&#xc2;" horiz-adv-x="1366" 
d="M365 526q-15 -35 -37.5 -86.5t-48 -119t-53 -150.5t-52.5 -180q-18 3 -36.5 7.5t-47.5 4.5t-49.5 -4.5t-40.5 -7.5q45 99 99.5 218.5t112.5 248t117 261t114 258.5t103 240.5t85 206.5q12 -2 23 -4t28 -2q14 0 23.5 1.5t21.5 4.5q30 -81 72 -185t90.5 -219.5t100.5 -236
t102 -234.5t95 -214.5t79 -176.5t54 -121t21 -46q-26 5 -54 8.5t-66 3.5q-41 0 -71.5 -3.5t-59.5 -8.5q-27 92 -55.5 171.5t-56 146.5t-52 121.5t-43.5 96.5h-518zM621 1137l-215 -508h436zM627 1831h114l250 -342h-67l-240 215l-240 -215h-69z" />
    <glyph glyph-name="Atilde" unicode="&#xc3;" horiz-adv-x="1366" 
d="M365 526q-15 -35 -37.5 -86.5t-48 -119t-53 -150.5t-52.5 -180q-18 3 -36.5 7.5t-47.5 4.5t-49.5 -4.5t-40.5 -7.5q45 99 99.5 218.5t112.5 248t117 261t114 258.5t103 240.5t85 206.5q12 -2 23 -4t28 -2q14 0 23.5 1.5t21.5 4.5q30 -81 72 -185t90.5 -219.5t100.5 -236
t102 -234.5t95 -214.5t79 -176.5t54 -121t21 -46q-26 5 -54 8.5t-66 3.5q-41 0 -71.5 -3.5t-59.5 -8.5q-27 92 -55.5 171.5t-56 146.5t-52 121.5t-43.5 96.5h-518zM621 1137l-215 -508h436zM350 1540q8 47 28.5 84t49.5 63t64 40t71 14q16 0 28.5 -2t29.5 -8t43 -18t69 -32
q24 -11 39.5 -17.5t27 -10t21.5 -5t23 -1.5q24 0 42.5 9.5t32 24t23 32.5t16.5 36h60q-5 -25 -20 -60.5t-41 -68.5t-64 -56.5t-90 -23.5q-26 0 -54.5 6t-62.5 23l-72 35q-27 14 -49 22t-47 8q-7 0 -22 -2t-32 -11t-33 -28t-25 -53h-56z" />
    <glyph glyph-name="Adieresis" unicode="&#xc4;" horiz-adv-x="1366" 
d="M365 526q-15 -35 -37.5 -86.5t-48 -119t-53 -150.5t-52.5 -180q-18 3 -36.5 7.5t-47.5 4.5t-49.5 -4.5t-40.5 -7.5q45 99 99.5 218.5t112.5 248t117 261t114 258.5t103 240.5t85 206.5q12 -2 23 -4t28 -2q14 0 23.5 1.5t21.5 4.5q30 -81 72 -185t90.5 -219.5t100.5 -236
t102 -234.5t95 -214.5t79 -176.5t54 -121t21 -46q-26 5 -54 8.5t-66 3.5q-41 0 -71.5 -3.5t-59.5 -8.5q-27 92 -55.5 171.5t-56 146.5t-52 121.5t-43.5 96.5h-518zM621 1137l-215 -508h436zM788 1624q0 19 7.5 36t20.5 30t30 20.5t37 7.5t37.5 -7.5t30.5 -20.5t20.5 -30
t7.5 -36q0 -40 -28 -68t-68 -28q-20 0 -37 7.5t-30 20t-20.5 30t-7.5 38.5zM387 1624q0 19 7.5 36t20.5 30t30 20.5t36 7.5q20 0 38 -7.5t31 -20.5t20.5 -30t7.5 -36q0 -40 -28 -68t-69 -28q-19 0 -36 7.5t-30 20t-20.5 30t-7.5 38.5z" />
    <glyph glyph-name="Aring" unicode="&#xc5;" horiz-adv-x="1366" 
d="M365 526q-15 -35 -37.5 -86.5t-48 -119t-53 -150.5t-52.5 -180q-18 3 -36.5 7.5t-47.5 4.5t-49.5 -4.5t-40.5 -7.5q45 99 99.5 218.5t112.5 248t117 261t114 258.5t103 240.5t85 206.5q12 -2 23 -4t28 -2q14 0 23.5 1.5t21.5 4.5q30 -81 72 -185t90.5 -219.5t100.5 -236
t102 -234.5t95 -214.5t79 -176.5t54 -121t21 -46q-26 5 -54 8.5t-66 3.5q-41 0 -71.5 -3.5t-59.5 -8.5q-27 92 -55.5 171.5t-56 146.5t-52 121.5t-43.5 96.5h-518zM621 1137l-215 -508h436zM684 1458q-39 0 -73.5 15t-60 40.5t-40 60t-14.5 73.5q0 38 14.5 72t40 59.5t60 40
t73.5 14.5q38 0 72 -14.5t59.5 -40t40 -59.5t14.5 -72q0 -39 -14.5 -73.5t-40 -60t-59.5 -40.5t-72 -15zM684 1513q28 0 52 10.5t41.5 28.5t27.5 42.5t10 52.5q0 27 -10 50.5t-28 41.5t-42.5 28.5t-52.5 10.5t-52 -10.5t-41.5 -28.5t-27.5 -41.5t-10 -50.5q0 -28 10 -52.5
t28 -42.5t42 -28.5t53 -10.5z" />
    <glyph glyph-name="AE" unicode="&#xc6;" horiz-adv-x="1821" 
d="M606 510q-18 0 -45.5 -0.5t-75.5 -3.5q-109 -161 -175 -293.5t-101 -222.5q-20 4 -41.5 8t-61.5 4q-20 0 -34.5 -1t-26 -2.5t-22.5 -3.5t-23 -5q8 12 25 35.5t37.5 53t43.5 62t43.5 61.5t36.5 52.5t23 34.5q39 60 85.5 131.5t95.5 148.5t100 156.5t100.5 156.5t95 148.5
t84.5 132.5q36 55 60.5 94t41 66.5t28 47t20.5 36.5q42 -3 79 -5.5t82.5 -4t105.5 -2t148 -0.5q56 0 112.5 1t106 2.5t89 4t61.5 4.5q-3 -14 -5.5 -27.5t-2.5 -38.5q0 -26 2.5 -41t5.5 -30q-113 17 -226 21.5t-223 4.5q-21 0 -45 -1t-43 -1q-2 -34 -3.5 -67t-2.5 -69.5
t-1.5 -77.5t-0.5 -91q0 -51 2 -100.5t2 -100.5q55 -6 117 -6q91 0 184 6t187 17q-3 -16 -6 -30.5t-3 -39.5t3 -39.5t6 -29.5q-42 6 -98.5 10.5t-120.5 7.5t-133 3.5t-136 -1.5q0 -74 -2 -146t-2 -147q0 -145 12 -293q74 0 209.5 3t335.5 22q-3 -17 -5.5 -30.5t-2.5 -35.5
q0 -24 2.5 -39t5.5 -30q-48 5 -107.5 7.5t-122.5 3.5t-127 1h-122q-60 0 -133.5 -2t-151.5 -10q3 47 5.5 114t4 140t2.5 143t1 123h-359zM547 610q45 -2 84 -2.5t85 -1t104.5 -0.5h144.5q0 25 0.5 60t1.5 71.5t1.5 71.5t0.5 59v71.5t-0.5 83t-2 83.5t-3.5 74
q-2 26 -4.5 42.5t-10.5 16.5t-13.5 -8t-10.5 -14z" />
    <glyph glyph-name="Ccedilla" unicode="&#xc7;" horiz-adv-x="1479" 
d="M823 -147q11 3 29.5 7.5t44.5 4.5q28 0 55.5 -9t50 -27t36.5 -45t14 -63q0 -53 -26 -86.5t-63 -52.5t-77.5 -26t-69.5 -7q-22 0 -65 6t-115 27l29 62q27 -10 56.5 -17.5t70.5 -7.5q58 0 88 24.5t30 61.5q0 15 -5 30t-17 26.5t-30.5 18.5t-45.5 7q-20 0 -32 -3.5t-23 -8.5
l-35 12l80 180q-173 12 -302.5 73.5t-215.5 160t-129 226t-43 271.5q0 148 46.5 280t143 230t244.5 155.5t350 57.5q93 0 170.5 -11t140.5 -27.5t111.5 -35.5t83.5 -34q-12 -32 -19.5 -54.5t-13 -44.5t-9 -46.5t-7.5 -59.5h-21q-21 44 -63.5 84.5t-101 72t-130 50
t-149.5 18.5q-122 0 -221 -43t-170 -125t-109.5 -199.5t-38.5 -265.5q0 -160 46 -279.5t122.5 -199t177 -119t209.5 -39.5q34 0 88.5 6t118.5 28t131 64t127 113l25 -10q-8 -35 -14 -72t-9 -94q-81 -48 -161.5 -75t-149 -40t-119 -15.5t-70.5 -2.5z" />
    <glyph glyph-name="Egrave" unicode="&#xc8;" 
d="M385 788q122 -2 242.5 -0.5t240.5 15.5q-3 -17 -5.5 -32.5t-2.5 -37.5q0 -17 3 -31.5t5 -31.5q-40 5 -82 9t-83.5 6.5t-80 3.5t-71.5 1q-42 0 -85 -1t-81 -3q-2 -66 -3 -134t-1 -134q0 -40 0.5 -87t1.5 -91t2 -81.5t2 -58.5q49 0 105.5 0.5t122.5 2.5t143 7.5t168 14.5
q-3 -17 -5.5 -32.5t-2.5 -37.5q0 -21 2.5 -35.5t5.5 -29.5q-72 9 -143 10.5t-142 1.5q-119 0 -237.5 -3.5t-237.5 -8.5q3 38 6 76.5t5 82.5t4.5 97.5t3.5 122t2 155.5t1 199q0 77 -1 165t-2.5 177.5t-5 177t-7.5 162.5q108 -9 214 -10.5t214 -1.5q79 0 156 2t155 10
q-3 -17 -5.5 -34.5t-2.5 -37.5q0 -21 2.5 -35.5t5.5 -29.5q-28 5 -57.5 10t-66.5 8.5t-85.5 5.5t-115.5 2h-50t-44 -0.5t-47 -1.5t-58 -2q-2 -30 -2.5 -53.5t-1 -48.5t-0.5 -56.5v-76.5v-82.5v-60t0.5 -55.5t1.5 -69zM631 1489l-342 213q-25 15 -31 32t-6 29q0 15 5.5 28
t15.5 22.5t22.5 15.5t26.5 6q11 0 19.5 -2.5t19 -10t25.5 -22t40 -39.5l276 -272h-71z" />
    <glyph glyph-name="Eacute" unicode="&#xc9;" 
d="M385 788q122 -2 242.5 -0.5t240.5 15.5q-3 -17 -5.5 -32.5t-2.5 -37.5q0 -17 3 -31.5t5 -31.5q-40 5 -82 9t-83.5 6.5t-80 3.5t-71.5 1q-42 0 -85 -1t-81 -3q-2 -66 -3 -134t-1 -134q0 -40 0.5 -87t1.5 -91t2 -81.5t2 -58.5q49 0 105.5 0.5t122.5 2.5t143 7.5t168 14.5
q-3 -17 -5.5 -32.5t-2.5 -37.5q0 -21 2.5 -35.5t5.5 -29.5q-72 9 -143 10.5t-142 1.5q-119 0 -237.5 -3.5t-237.5 -8.5q3 38 6 76.5t5 82.5t4.5 97.5t3.5 122t2 155.5t1 199q0 77 -1 165t-2.5 177.5t-5 177t-7.5 162.5q108 -9 214 -10.5t214 -1.5q79 0 156 2t155 10
q-3 -17 -5.5 -34.5t-2.5 -37.5q0 -21 2.5 -35.5t5.5 -29.5q-28 5 -57.5 10t-66.5 8.5t-85.5 5.5t-115.5 2h-50t-44 -0.5t-47 -1.5t-58 -2q-2 -30 -2.5 -53.5t-1 -48.5t-0.5 -56.5v-76.5v-82.5v-60t0.5 -55.5t1.5 -69zM383 1489l274 272q25 25 40 39.5t26 22t20 10t21 2.5
q14 0 26.5 -6t22.5 -15.5t15.5 -22.5t5.5 -28q0 -37 -39 -61l-340 -213h-72z" />
    <glyph glyph-name="Ecircumflex" unicode="&#xca;" 
d="M385 788q122 -2 242.5 -0.5t240.5 15.5q-3 -17 -5.5 -32.5t-2.5 -37.5q0 -17 3 -31.5t5 -31.5q-40 5 -82 9t-83.5 6.5t-80 3.5t-71.5 1q-42 0 -85 -1t-81 -3q-2 -66 -3 -134t-1 -134q0 -40 0.5 -87t1.5 -91t2 -81.5t2 -58.5q49 0 105.5 0.5t122.5 2.5t143 7.5t168 14.5
q-3 -17 -5.5 -32.5t-2.5 -37.5q0 -21 2.5 -35.5t5.5 -29.5q-72 9 -143 10.5t-142 1.5q-119 0 -237.5 -3.5t-237.5 -8.5q3 38 6 76.5t5 82.5t4.5 97.5t3.5 122t2 155.5t1 199q0 77 -1 165t-2.5 177.5t-5 177t-7.5 162.5q108 -9 214 -10.5t214 -1.5q79 0 156 2t155 10
q-3 -17 -5.5 -34.5t-2.5 -37.5q0 -21 2.5 -35.5t5.5 -29.5q-28 5 -57.5 10t-66.5 8.5t-85.5 5.5t-115.5 2h-50t-44 -0.5t-47 -1.5t-58 -2q-2 -30 -2.5 -53.5t-1 -48.5t-0.5 -56.5v-76.5v-82.5v-60t0.5 -55.5t1.5 -69zM485 1831h115l250 -342h-68l-239 215l-240 -215h-70z
" />
    <glyph glyph-name="Edieresis" unicode="&#xcb;" 
d="M385 788q122 -2 242.5 -0.5t240.5 15.5q-3 -17 -5.5 -32.5t-2.5 -37.5q0 -17 3 -31.5t5 -31.5q-40 5 -82 9t-83.5 6.5t-80 3.5t-71.5 1q-42 0 -85 -1t-81 -3q-2 -66 -3 -134t-1 -134q0 -40 0.5 -87t1.5 -91t2 -81.5t2 -58.5q49 0 105.5 0.5t122.5 2.5t143 7.5t168 14.5
q-3 -17 -5.5 -32.5t-2.5 -37.5q0 -21 2.5 -35.5t5.5 -29.5q-72 9 -143 10.5t-142 1.5q-119 0 -237.5 -3.5t-237.5 -8.5q3 38 6 76.5t5 82.5t4.5 97.5t3.5 122t2 155.5t1 199q0 77 -1 165t-2.5 177.5t-5 177t-7.5 162.5q108 -9 214 -10.5t214 -1.5q79 0 156 2t155 10
q-3 -17 -5.5 -34.5t-2.5 -37.5q0 -21 2.5 -35.5t5.5 -29.5q-28 5 -57.5 10t-66.5 8.5t-85.5 5.5t-115.5 2h-50t-44 -0.5t-47 -1.5t-58 -2q-2 -30 -2.5 -53.5t-1 -48.5t-0.5 -56.5v-76.5v-82.5v-60t0.5 -55.5t1.5 -69zM647 1624q0 19 7.5 36t20.5 30t30 20.5t36 7.5
q20 0 38 -7.5t31 -20.5t20.5 -30t7.5 -36q0 -40 -28 -68t-69 -28q-19 0 -36 7.5t-30 20t-20.5 30t-7.5 38.5zM246 1624q0 19 7.5 36t20.5 30t30 20.5t36 7.5q20 0 37.5 -7.5t30.5 -20.5t20.5 -30t7.5 -36q0 -40 -28 -68t-68 -28q-19 0 -36 7.5t-30 20t-20.5 30t-7.5 38.5z
" />
    <glyph glyph-name="Igrave" unicode="&#xcc;" horiz-adv-x="682" 
d="M422 719v127.5t-0.5 98.5t-1.5 88t-2.5 94.5t-4 118.5t-6.5 161q12 -3 23.5 -5.5t24.5 -4t28.5 -2t36.5 -0.5t37.5 0.5t30 2t26 4t25.5 5.5q-10 -184 -13.5 -365.5t-3.5 -365.5q0 -138 1.5 -241t3.5 -183t5 -142.5t5 -119.5q-29 5 -61 8.5t-66 3.5t-59 -3.5t-50 -8.5
q4 56 7 103.5t5 95t4 98.5t3 113.5t1.5 140t0.5 178.5zM600 1489l-342 213q-25 15 -31 32t-6 29q0 15 5.5 28t15.5 22.5t22.5 15.5t26.5 6q11 0 19.5 -2.5t19 -10t26 -22t39.5 -39.5l277 -272h-72z" />
    <glyph glyph-name="Iacute" unicode="&#xcd;" horiz-adv-x="682" 
d="M242 719v127.5t-0.5 98.5t-1.5 88t-2.5 94.5t-4 118.5t-6.5 161q12 -3 23.5 -5.5t24.5 -4t28.5 -2t36.5 -0.5t37.5 0.5t30 2t26 4t25.5 5.5q-10 -184 -13.5 -365.5t-3.5 -365.5q0 -138 1.5 -241t3.5 -183t5 -142.5t5 -119.5q-29 5 -61 8.5t-66 3.5t-59 -3.5t-50 -8.5
q4 56 7 103.5t5 95t4 98.5t3 113.5t1.5 140t0.5 178.5zM193 1489l274 272q24 25 39.5 39.5t26 22t19.5 10t21 2.5q14 0 26.5 -6t22.5 -15.5t15.5 -22.5t5.5 -28q0 -38 -39 -61l-340 -213h-71z" />
    <glyph glyph-name="Icircumflex" unicode="&#xce;" horiz-adv-x="682" 
d="M430 719v127.5t-0.5 98.5t-1.5 88t-2.5 94.5t-4 118.5t-6.5 161q12 -3 23.5 -5.5t24.5 -4t28.5 -2t36.5 -0.5t37.5 0.5t30 2t26 4t25.5 5.5q-10 -184 -13.5 -365.5t-3.5 -365.5q0 -138 1.5 -241t3.5 -183t5 -142.5t5 -119.5q-29 5 -61 8.5t-66 3.5t-59 -3.5t-50 -8.5
q4 56 7 103.5t5 95t4 98.5t3 113.5t1.5 140t0.5 178.5zM473 1831h114l250 -342h-67l-240 215l-240 -215h-69z" />
    <glyph glyph-name="Idieresis" unicode="&#xcf;" horiz-adv-x="682" 
d="M418 719v127.5t-0.5 98.5t-1.5 88t-2.5 94.5t-4 118.5t-6.5 161q12 -3 23.5 -5.5t24.5 -4t28.5 -2t36.5 -0.5t37.5 0.5t30 2t26 4t25.5 5.5q-10 -184 -13.5 -365.5t-3.5 -365.5q0 -138 1.5 -241t3.5 -183t5 -142.5t5 -119.5q-29 5 -61 8.5t-66 3.5t-59 -3.5t-50 -8.5
q4 56 7 103.5t5 95t4 98.5t3 113.5t1.5 140t0.5 178.5zM622 1624q0 19 7.5 36t20.5 30t30 20.5t37 7.5t37.5 -7.5t30.5 -20.5t20.5 -30t7.5 -36q0 -40 -28 -68t-68 -28q-20 0 -37 7.5t-30 20t-20.5 30t-7.5 38.5zM221 1624q0 19 7.5 36t20.5 30t30 20.5t36 7.5q20 0 38 -7.5
t31 -20.5t20.5 -30t7.5 -36q0 -40 -28 -68t-69 -28q-19 0 -36 7.5t-30 20t-20.5 30t-7.5 38.5z" />
    <glyph glyph-name="Eth" unicode="&#xd0;" horiz-adv-x="1593" 
d="M1485 737q0 -129 -29 -235t-81.5 -189t-125 -144t-159 -100.5t-184 -59t-199.5 -19.5q-5 0 -28 0.5t-54.5 1.5t-69 2t-72 2t-62 1.5t-40.5 0.5q-21 0 -41 -0.5t-45 -1.5t-57 -2.5t-76 -3.5q5 73 8.5 130.5t6 109t4 101.5t2.5 107.5t1 127.5v161q-48 0 -94 -2t-94 -4
q3 18 4.5 30t-0.5 23q0 13 -0.5 24t-3.5 25q94 -6 188 -6q0 152 -2.5 298.5t-11.5 295.5q169 -6 336 -6q136 0 244.5 -2.5t197.5 -16.5t164.5 -45t147.5 -88q67 -53 110.5 -115t69 -129t35.5 -136t10 -136zM1257 713q0 57 -8 122.5t-30.5 131t-63 126.5t-104.5 109
q-55 41 -114 63t-120.5 32.5t-124 12t-123.5 1.5q-37 0 -60.5 -0.5t-41.5 -1.5t-35.5 -2.5t-42.5 -3.5q-6 -122 -8 -243t-2 -243q114 0 205.5 1.5t156.5 4.5q-2 -12 -3 -24.5t-1 -32.5q0 -14 1 -25t3 -20q-97 5 -186 5.5t-176 0.5v-426q0 -15 0.5 -42t1.5 -57.5t2 -59
t2 -46.5q26 -3 50 -5.5t49 -4t53.5 -2t64.5 -0.5q33 0 84 1.5t109.5 10.5t119.5 29t113 57q72 51 116.5 117t69.5 137.5t34 143t9 133.5z" />
    <glyph glyph-name="Ntilde" unicode="&#xd1;" horiz-adv-x="1593" 
d="M305 920q2 -124 3.5 -219t3.5 -172t4.5 -141t6 -126t7 -127.5t8.5 -144.5q-19 5 -38.5 8.5t-47.5 3.5t-44.5 -3.5t-35.5 -8.5q2 25 5 70t6 101t6 120.5t5 130.5t3.5 129t1.5 116q0 20 -0.5 61t-1 92t-1.5 106.5t-1.5 105.5t-1 89.5t-0.5 57.5v246q9 -2 16.5 -3t15.5 -1
q10 0 19.5 1t23.5 3l68 -80q21 -24 41.5 -47.5t46.5 -52t60 -65t81 -85.5q102 -108 177 -187t133 -139.5t104 -109t91 -95t95 -97.5t115 -117v76v234.5t-1 190.5t-2.5 158.5t-4.5 140.5t-7.5 134.5t-11.5 140.5q17 -5 36 -8.5t44 -3.5t46.5 3.5t41.5 8.5
q-26 -223 -30.5 -443.5t-4.5 -443.5v-133t1 -147.5t3 -145t5 -125.5q-13 2 -21.5 3.5t-17.5 1.5q-8 0 -15 -1.5t-18 -3.5q-16 19 -50 58.5t-79.5 90t-97.5 107.5t-104 112t-99.5 103.5t-83.5 81.5q-26 25 -52 51l-52 52l-400 416v-129zM473 1540q8 47 28.5 84t49.5 63t64 40
t71 14q16 0 28.5 -2t29.5 -8t43 -18t69 -32q24 -11 39.5 -17.5t27 -10t21.5 -5t23 -1.5q24 0 42.5 9.5t32 24t23 32.5t16.5 36h60q-6 -25 -20.5 -60.5t-40.5 -68.5t-64 -56.5t-90 -23.5q-26 0 -54.5 6t-62.5 23l-72 35q-28 14 -49.5 22t-46.5 8q-7 0 -22 -2t-32 -11
t-33.5 -28t-25.5 -53h-55z" />
    <glyph glyph-name="Ograve" unicode="&#xd2;" horiz-adv-x="1821" 
d="M922 1425q107 0 205.5 -20.5t184 -61.5t156 -101t120 -139.5t77 -177t27.5 -212.5q0 -161 -55 -298.5t-157.5 -239t-249 -159t-329.5 -57.5q-167 0 -308.5 50t-244 144t-160 229t-57.5 306q0 163 53 299t154 233t248.5 151t335.5 54zM365 690q0 -150 40 -269t112 -202
t171 -127.5t217 -44.5q121 0 223 43.5t175 127t114 205.5t41 279q0 40 -4 89.5t-14 102t-27.5 105t-44.5 97.5q-42 70 -98.5 116t-119 74t-125 39.5t-114.5 11.5q-102 0 -200 -36t-175 -114t-124 -200.5t-47 -296.5zM989 1489l-342 213q-25 15 -31 32t-6 29q0 15 5.5 28
t15.5 22.5t22.5 15.5t26.5 6q12 0 20.5 -2.5t19 -10t25.5 -22t39 -39.5l277 -272h-72z" />
    <glyph glyph-name="Oacute" unicode="&#xd3;" horiz-adv-x="1821" 
d="M922 1425q107 0 205.5 -20.5t184 -61.5t156 -101t120 -139.5t77 -177t27.5 -212.5q0 -161 -55 -298.5t-157.5 -239t-249 -159t-329.5 -57.5q-167 0 -308.5 50t-244 144t-160 229t-57.5 306q0 163 53 299t154 233t248.5 151t335.5 54zM365 690q0 -150 40 -269t112 -202
t171 -127.5t217 -44.5q121 0 223 43.5t175 127t114 205.5t41 279q0 40 -4 89.5t-14 102t-27.5 105t-44.5 97.5q-42 70 -98.5 116t-119 74t-125 39.5t-114.5 11.5q-102 0 -200 -36t-175 -114t-124 -200.5t-47 -296.5zM762 1489l274 272q25 25 40 39.5t26 22t20 10t21 2.5
q28 0 48.5 -21.5t20.5 -50.5q0 -38 -38 -61l-340 -213h-72z" />
    <glyph glyph-name="Ocircumflex" unicode="&#xd4;" horiz-adv-x="1821" 
d="M922 1425q107 0 205.5 -20.5t184 -61.5t156 -101t120 -139.5t77 -177t27.5 -212.5q0 -161 -55 -298.5t-157.5 -239t-249 -159t-329.5 -57.5q-167 0 -308.5 50t-244 144t-160 229t-57.5 306q0 163 53 299t154 233t248.5 151t335.5 54zM365 690q0 -150 40 -269t112 -202
t171 -127.5t217 -44.5q121 0 223 43.5t175 127t114 205.5t41 279q0 40 -4 89.5t-14 102t-27.5 105t-44.5 97.5q-42 70 -98.5 116t-119 74t-125 39.5t-114.5 11.5q-102 0 -200 -36t-175 -114t-124 -200.5t-47 -296.5zM854 1831h115l250 -342h-68l-240 215l-239 -215h-70z" />
    <glyph glyph-name="Otilde" unicode="&#xd5;" horiz-adv-x="1821" 
d="M922 1425q107 0 205.5 -20.5t184 -61.5t156 -101t120 -139.5t77 -177t27.5 -212.5q0 -161 -55 -298.5t-157.5 -239t-249 -159t-329.5 -57.5q-167 0 -308.5 50t-244 144t-160 229t-57.5 306q0 163 53 299t154 233t248.5 151t335.5 54zM365 690q0 -150 40 -269t112 -202
t171 -127.5t217 -44.5q121 0 223 43.5t175 127t114 205.5t41 279q0 40 -4 89.5t-14 102t-27.5 105t-44.5 97.5q-42 70 -98.5 116t-119 74t-125 39.5t-114.5 11.5q-102 0 -200 -36t-175 -114t-124 -200.5t-47 -296.5zM578 1540q7 47 28 84t50 63t64 40t71 14q16 0 28.5 -2
t29.5 -8t43 -18t69 -32q24 -11 39 -17.5t26.5 -10t21.5 -5t23 -1.5q25 0 43.5 9.5t32 24t23 32.5t16.5 36h59q-5 -25 -20 -60.5t-41 -68.5t-64 -56.5t-90 -23.5q-26 0 -54.5 6t-62.5 23l-71 35q-28 14 -50 22t-47 8q-7 0 -22 -2t-32 -11t-33 -28t-25 -53h-55z" />
    <glyph glyph-name="Odieresis" unicode="&#xd6;" horiz-adv-x="1821" 
d="M922 1425q107 0 205.5 -20.5t184 -61.5t156 -101t120 -139.5t77 -177t27.5 -212.5q0 -161 -55 -298.5t-157.5 -239t-249 -159t-329.5 -57.5q-167 0 -308.5 50t-244 144t-160 229t-57.5 306q0 163 53 299t154 233t248.5 151t335.5 54zM365 690q0 -150 40 -269t112 -202
t171 -127.5t217 -44.5q121 0 223 43.5t175 127t114 205.5t41 279q0 40 -4 89.5t-14 102t-27.5 105t-44.5 97.5q-42 70 -98.5 116t-119 74t-125 39.5t-114.5 11.5q-102 0 -200 -36t-175 -114t-124 -200.5t-47 -296.5zM1016 1624q0 19 7.5 36t20.5 30t30 20.5t36 7.5
q20 0 37.5 -7.5t30.5 -20.5t20.5 -30t7.5 -36q0 -40 -28 -68t-68 -28q-19 0 -36 7.5t-30 20t-20.5 30t-7.5 38.5zM614 1624q0 19 7.5 36t20.5 30t30 20.5t37 7.5t37.5 -7.5t30.5 -20.5t20.5 -30t7.5 -36q0 -40 -28 -68t-68 -28q-20 0 -37 7.5t-30 20t-20.5 30t-7.5 38.5z
" />
    <glyph glyph-name="multiply" unicode="&#xd7;" horiz-adv-x="1214" 
d="M516 502l-395 395l92 92l395 -395l393 393l93 -92l-394 -391l394 -395l-93 -93l-393 396l-393 -396l-94 93z" />
    <glyph glyph-name="Oslash" unicode="&#xd8;" horiz-adv-x="1821" 
d="M1374 1309q25 31 43 53l36 44t39.5 47.5t53.5 62.5q11 -14 18 -22.5t15 -15t18.5 -14.5t28.5 -20q-35 -37 -56 -60t-38.5 -41.5t-35 -38t-44.5 -49.5q31 -28 72 -71.5t78.5 -108t63.5 -153.5t26 -209q0 -161 -55.5 -299t-158 -239t-249 -158.5t-328.5 -57.5
q-63 0 -119.5 7t-105 18.5t-88 25.5t-68.5 29q-32 15 -54 29.5t-44 29.5q-35 -40 -59 -67.5t-45 -52t-43 -50t-52 -61.5q-8 13 -15 22t-15 16.5t-18 14t-23 14.5q34 37 56 60.5t42 44.5t43 46t61 65q-48 45 -88.5 98t-70.5 118t-47 144.5t-17 177.5q0 179 59.5 316.5
t164.5 231t247.5 141.5t308.5 48q122 0 240 -27t223 -89zM1458 702q0 73 -11 147t-36 148q-15 44 -34 77t-36 59q-88 -99 -158.5 -176.5t-131 -146t-117 -132t-118 -133t-133 -150.5t-161.5 -184q17 -18 46.5 -45.5t76 -53.5t112 -44.5t152.5 -18.5q135 0 238 51t172 139.5
t104 207.5t35 255zM365 690q0 -89 11.5 -156t28 -116t34.5 -82.5t32 -54.5q97 106 198 220t203.5 231t205 235.5t202.5 234.5q-77 66 -172 100.5t-199 34.5q-114 0 -216 -43.5t-173 -122.5q-51 -55 -81.5 -120.5t-47 -130.5t-21.5 -125t-5 -105z" />
    <glyph glyph-name="Ugrave" unicode="&#xd9;" horiz-adv-x="1593" 
d="M201 559v236.5t-0.5 171.5t-1.5 127t-3 102t-5 97.5t-7 113.5q32 -5 62.5 -8.5t58.5 -3.5q34 0 63.5 3.5t55.5 8.5q-4 -67 -7.5 -142t-5.5 -149t-3 -143.5t-1.5 -124.5t-0.5 -92.5v-48.5q0 -97 2.5 -173.5t11.5 -137t27 -107.5t49 -84q24 -31 60 -55.5t79.5 -42
t91.5 -26.5t96 -9q15 0 45.5 2t70 11.5t83 28.5t83.5 52t72.5 83t49.5 122q12 52 19 117t10.5 126.5t4.5 110t1 68.5q0 19 -1 63t-2.5 101t-3.5 122t-5.5 127t-7.5 115t-9 86q20 -5 40.5 -8.5t55.5 -3.5q34 0 53 3.5t37 8.5q-20 -140 -27.5 -318t-7.5 -405q0 -75 -3.5 -152
t-18.5 -150.5t-44.5 -139.5t-80.5 -119q-32 -34 -73.5 -63.5t-96.5 -51.5t-124 -34.5t-157 -12.5q-59 0 -126.5 8.5t-134.5 31.5t-128.5 63t-109.5 104q-29 38 -46 79t-26 88.5t-11.5 102.5t-2.5 121zM874 1489l-342 213q-24 15 -30 32t-6 29q0 29 20.5 50.5t48.5 21.5
q12 0 20.5 -2.5t19 -10t25.5 -22t40 -39.5l276 -272h-72z" />
    <glyph glyph-name="Uacute" unicode="&#xda;" horiz-adv-x="1593" 
d="M201 559v236.5t-0.5 171.5t-1.5 127t-3 102t-5 97.5t-7 113.5q32 -5 62.5 -8.5t58.5 -3.5q34 0 63.5 3.5t55.5 8.5q-4 -67 -7.5 -142t-5.5 -149t-3 -143.5t-1.5 -124.5t-0.5 -92.5v-48.5q0 -97 2.5 -173.5t11.5 -137t27 -107.5t49 -84q24 -31 60 -55.5t79.5 -42
t91.5 -26.5t96 -9q15 0 45.5 2t70 11.5t83 28.5t83.5 52t72.5 83t49.5 122q12 52 19 117t10.5 126.5t4.5 110t1 68.5q0 19 -1 63t-2.5 101t-3.5 122t-5.5 127t-7.5 115t-9 86q20 -5 40.5 -8.5t55.5 -3.5q34 0 53 3.5t37 8.5q-20 -140 -27.5 -318t-7.5 -405q0 -75 -3.5 -152
t-18.5 -150.5t-44.5 -139.5t-80.5 -119q-32 -34 -73.5 -63.5t-96.5 -51.5t-124 -34.5t-157 -12.5q-59 0 -126.5 8.5t-134.5 31.5t-128.5 63t-109.5 104q-29 38 -46 79t-26 88.5t-11.5 102.5t-2.5 121zM657 1489l275 272q24 25 39.5 39.5t26 22t19.5 10t21 2.5q14 0 26.5 -6
t22.5 -15.5t15.5 -22.5t5.5 -28q0 -38 -39 -61l-340 -213h-72z" />
    <glyph glyph-name="Ucircumflex" unicode="&#xdb;" horiz-adv-x="1593" 
d="M201 559v236.5t-0.5 171.5t-1.5 127t-3 102t-5 97.5t-7 113.5q32 -5 62.5 -8.5t58.5 -3.5q34 0 63.5 3.5t55.5 8.5q-4 -67 -7.5 -142t-5.5 -149t-3 -143.5t-1.5 -124.5t-0.5 -92.5v-48.5q0 -97 2.5 -173.5t11.5 -137t27 -107.5t49 -84q24 -31 60 -55.5t79.5 -42
t91.5 -26.5t96 -9q15 0 45.5 2t70 11.5t83 28.5t83.5 52t72.5 83t49.5 122q12 52 19 117t10.5 126.5t4.5 110t1 68.5q0 19 -1 63t-2.5 101t-3.5 122t-5.5 127t-7.5 115t-9 86q20 -5 40.5 -8.5t55.5 -3.5q34 0 53 3.5t37 8.5q-20 -140 -27.5 -318t-7.5 -405q0 -75 -3.5 -152
t-18.5 -150.5t-44.5 -139.5t-80.5 -119q-32 -34 -73.5 -63.5t-96.5 -51.5t-124 -34.5t-157 -12.5q-59 0 -126.5 8.5t-134.5 31.5t-128.5 63t-109.5 104q-29 38 -46 79t-26 88.5t-11.5 102.5t-2.5 121zM770 1831h115l250 -342h-68l-240 215l-239 -215h-70z" />
    <glyph glyph-name="Udieresis" unicode="&#xdc;" horiz-adv-x="1593" 
d="M201 559v236.5t-0.5 171.5t-1.5 127t-3 102t-5 97.5t-7 113.5q32 -5 62.5 -8.5t58.5 -3.5q34 0 63.5 3.5t55.5 8.5q-4 -67 -7.5 -142t-5.5 -149t-3 -143.5t-1.5 -124.5t-0.5 -92.5v-48.5q0 -97 2.5 -173.5t11.5 -137t27 -107.5t49 -84q24 -31 60 -55.5t79.5 -42
t91.5 -26.5t96 -9q15 0 45.5 2t70 11.5t83 28.5t83.5 52t72.5 83t49.5 122q12 52 19 117t10.5 126.5t4.5 110t1 68.5q0 19 -1 63t-2.5 101t-3.5 122t-5.5 127t-7.5 115t-9 86q20 -5 40.5 -8.5t55.5 -3.5q34 0 53 3.5t37 8.5q-20 -140 -27.5 -318t-7.5 -405q0 -75 -3.5 -152
t-18.5 -150.5t-44.5 -139.5t-80.5 -119q-32 -34 -73.5 -63.5t-96.5 -51.5t-124 -34.5t-157 -12.5q-59 0 -126.5 8.5t-134.5 31.5t-128.5 63t-109.5 104q-29 38 -46 79t-26 88.5t-11.5 102.5t-2.5 121zM942 1624q0 19 7.5 36t20.5 30t30 20.5t36 7.5q20 0 38 -7.5t31 -20.5
t20.5 -30t7.5 -36q0 -40 -28 -68t-69 -28q-19 0 -36 7.5t-30 20t-20.5 30t-7.5 38.5zM541 1624q0 19 7.5 36t20.5 30t30 20.5t36 7.5q20 0 37.5 -7.5t30.5 -20.5t20.5 -30t7.5 -36q0 -40 -28 -68t-68 -28q-19 0 -36 7.5t-30 20t-20.5 30t-7.5 38.5z" />
    <glyph glyph-name="Yacute" unicode="&#xdd;" horiz-adv-x="1251" 
d="M743 465q0 -19 0.5 -50.5t1 -70.5t2 -84t3 -91.5t3.5 -92.5t5 -86q-31 9 -57 10.5t-46 1.5q-46 0 -73 -2t-50 -10q4 42 7 79.5t4.5 74.5t2 77.5t0.5 90t-0.5 110.5t-0.5 139q-85 144 -147.5 248.5t-108 181t-79 132t-61.5 101.5t-54 88.5t-58 94.5q40 -9 77.5 -10.5
t53.5 -1.5q54 0 91 4.5t52 7.5q63 -160 136 -294.5t139 -248.5q16 -29 32.5 -56.5t30.5 -49.5t25 -35.5t16 -13.5q4 0 15.5 16t24.5 37t25 42t17 30q81 139 152 281t133 292q23 -8 47 -10t49 -2q29 0 48 3t44 9q-20 -28 -56 -83t-79.5 -124t-92 -146.5t-93 -151
t-81.5 -136.5t-59 -104q-14 -25 -22.5 -45.5t-16.5 -38.5q-2 -23 -2 -52v-61zM528 1489l275 272q24 25 39.5 39.5t26 22t19.5 10t21 2.5q14 0 26.5 -6t22.5 -15.5t15.5 -22.5t5.5 -28q0 -38 -39 -61l-340 -213h-72z" />
    <glyph glyph-name="Thorn" unicode="&#xde;" horiz-adv-x="1139" 
d="M592 1159q40 0 80 -0.5t79.5 -5t77.5 -14t74 -27.5q93 -45 141 -127t48 -184q0 -54 -17 -116t-59.5 -119t-115.5 -103t-185 -68q-47 -9 -107 -14.5t-123 -5.5q-21 0 -45.5 1t-50.5 3q1 -40 1.5 -69.5t1.5 -55t2 -50t2 -55t2.5 -68.5t4.5 -91q-13 2 -24.5 4.5t-25 4
t-30 2.5t-38.5 1q-42 0 -64.5 -3.5t-44.5 -8.5q11 216 14 431t3 433q0 115 -1.5 195t-3.5 141.5t-5 111.5t-7 105q16 -2 29 -4.5t25 -4t25 -2.5t28 -1q32 0 62 4.5t54 7.5q-1 -15 -2.5 -51t-3 -75.5t-2.5 -74t-2 -47.5h203zM868 782q0 152 -94.5 221.5t-269.5 69.5
q-37 0 -61.5 -1.5t-53.5 -6.5q-3 -299 0 -600q52 -2 108 -1t109 10t100.5 28.5t83.5 55.5t57 90.5t21 133.5z" />
    <glyph glyph-name="germandbls" unicode="&#xdf;" horiz-adv-x="1251" 
d="M569 178q9 -18 26 -38.5t41.5 -38.5t57 -30t74.5 -12q61 0 102 20t66 50.5t35 65.5t10 65q0 56 -25 101.5t-61 81t-75.5 61t-67.5 41.5q-26 15 -52 34.5t-48.5 40.5t-39.5 42.5t-26 39.5q-5 9 -7.5 20t-4 21t-1.5 16.5v8.5q0 23 5.5 41t20 40t40.5 52t68 76
q23 25 44 52.5t37.5 58.5t26.5 66t10 75q0 50 -15 88t-41.5 64t-63.5 39.5t-80 13.5q-59 0 -108.5 -26t-78.5 -73q-17 -28 -33 -82.5t-16 -130.5v-85t-0.5 -117t-0.5 -134.5t-0.5 -137.5t-0.5 -125.5v-98.5q0 -62 0.5 -124t2 -118.5t4 -105.5t5.5 -86q-11 3 -21 5t-21 3.5
t-25 2.5t-33 1q-21 0 -36.5 -1t-29 -2.5t-25.5 -4t-24 -4.5q4 36 6.5 66t4 63.5t2.5 75t1.5 100t0.5 138.5v190v211q0 82 0.5 145t3 112.5t8 87t16 68.5t26.5 58.5t40 56.5q60 74 149 111.5t195 37.5q70 0 130 -18t104.5 -51.5t70 -81t25.5 -105.5q0 -46 -12.5 -83
t-31.5 -66.5t-40 -52.5t-39 -41q-11 -11 -24 -24.5t-26.5 -28.5t-26 -29.5t-22.5 -26.5q-8 -12 -12 -22.5t-4 -24.5q0 -23 15 -44.5t35 -39.5t41.5 -32t33.5 -21q56 -35 107.5 -70t91 -77t63 -93.5t23.5 -120.5q0 -72 -34 -142.5t-92 -126t-135.5 -90t-164.5 -34.5
q-39 0 -70.5 5.5t-56.5 14t-44 17.5t-32 16q6 14 11.5 28t10.5 32t9 42.5t8 59.5z" />
    <glyph glyph-name="agrave" unicode="&#xe0;" 
d="M156 739l8 133q24 19 55 41t71.5 41t91.5 31t114 12q30 0 65 -3.5t71 -14t71.5 -28.5t66.5 -46q18 -17 33 -37.5t26.5 -47.5t18 -62t6.5 -82q0 -15 -0.5 -44.5t-1.5 -66t-2 -76.5t-2 -76t-1.5 -64.5t-0.5 -41.5q0 -68 1 -113.5t8.5 -73.5t22.5 -40t44 -12q18 0 30.5 3.5
t20.5 6.5l2 -58q-34 -17 -69 -31t-79 -14q-51 0 -94.5 32t-60.5 102q-24 -25 -53 -50.5t-66 -46.5t-84 -34t-107 -13q-79 0 -133 27t-87 67.5t-47.5 88.5t-14.5 90q0 81 30 132t78 82t109 47.5t123 30.5l178 39q43 11 59.5 33t16.5 66q0 52 -17 93.5t-47.5 70t-73 44
t-92.5 15.5q-64 0 -105.5 -17.5t-68 -42t-39.5 -50.5t-20 -42h-55zM670 502q-132 -20 -210 -45.5t-118 -56.5t-51.5 -67.5t-11.5 -78.5q0 -50 17 -83t43 -53t56.5 -28t57.5 -8q39 0 78 14.5t69.5 40.5t50 61.5t19.5 77.5v226zM590 1124l-342 213q-25 16 -31 32.5t-6 29.5
q0 29 21 50t49 21q11 0 19.5 -2.5t19 -10t25.5 -22t40 -38.5l277 -273h-72z" />
    <glyph glyph-name="aacute" unicode="&#xe1;" 
d="M156 739l8 133q24 19 55 41t71.5 41t91.5 31t114 12q30 0 65 -3.5t71 -14t71.5 -28.5t66.5 -46q18 -17 33 -37.5t26.5 -47.5t18 -62t6.5 -82q0 -15 -0.5 -44.5t-1.5 -66t-2 -76.5t-2 -76t-1.5 -64.5t-0.5 -41.5q0 -68 1 -113.5t8.5 -73.5t22.5 -40t44 -12q18 0 30.5 3.5
t20.5 6.5l2 -58q-34 -17 -69 -31t-79 -14q-51 0 -94.5 32t-60.5 102q-24 -25 -53 -50.5t-66 -46.5t-84 -34t-107 -13q-79 0 -133 27t-87 67.5t-47.5 88.5t-14.5 90q0 81 30 132t78 82t109 47.5t123 30.5l178 39q43 11 59.5 33t16.5 66q0 52 -17 93.5t-47.5 70t-73 44
t-92.5 15.5q-64 0 -105.5 -17.5t-68 -42t-39.5 -50.5t-20 -42h-55zM670 502q-132 -20 -210 -45.5t-118 -56.5t-51.5 -67.5t-11.5 -78.5q0 -50 17 -83t43 -53t56.5 -28t57.5 -8q39 0 78 14.5t69.5 40.5t50 61.5t19.5 77.5v226zM362 1124l275 273q24 24 39.5 38.5t26 22
t19.5 10t21 2.5q28 0 49 -21t21 -50q0 -37 -39 -62l-340 -213h-72z" />
    <glyph glyph-name="acircumflex" unicode="&#xe2;" 
d="M156 739l8 133q24 19 55 41t71.5 41t91.5 31t114 12q30 0 65 -3.5t71 -14t71.5 -28.5t66.5 -46q18 -17 33 -37.5t26.5 -47.5t18 -62t6.5 -82q0 -15 -0.5 -44.5t-1.5 -66t-2 -76.5t-2 -76t-1.5 -64.5t-0.5 -41.5q0 -68 1 -113.5t8.5 -73.5t22.5 -40t44 -12q18 0 30.5 3.5
t20.5 6.5l2 -58q-34 -17 -69 -31t-79 -14q-51 0 -94.5 32t-60.5 102q-24 -25 -53 -50.5t-66 -46.5t-84 -34t-107 -13q-79 0 -133 27t-87 67.5t-47.5 88.5t-14.5 90q0 81 30 132t78 82t109 47.5t123 30.5l178 39q43 11 59.5 33t16.5 66q0 52 -17 93.5t-47.5 70t-73 44
t-92.5 15.5q-64 0 -105.5 -17.5t-68 -42t-39.5 -50.5t-20 -42h-55zM670 502q-132 -20 -210 -45.5t-118 -56.5t-51.5 -67.5t-11.5 -78.5q0 -50 17 -83t43 -53t56.5 -28t57.5 -8q39 0 78 14.5t69.5 40.5t50 61.5t19.5 77.5v226zM455 1466h114l250 -342h-67l-240 215l-240 -215
h-69z" />
    <glyph glyph-name="atilde" unicode="&#xe3;" 
d="M156 739l8 133q24 19 55 41t71.5 41t91.5 31t114 12q30 0 65 -3.5t71 -14t71.5 -28.5t66.5 -46q18 -17 33 -37.5t26.5 -47.5t18 -62t6.5 -82q0 -15 -0.5 -44.5t-1.5 -66t-2 -76.5t-2 -76t-1.5 -64.5t-0.5 -41.5q0 -68 1 -113.5t8.5 -73.5t22.5 -40t44 -12q18 0 30.5 3.5
t20.5 6.5l2 -58q-34 -17 -69 -31t-79 -14q-51 0 -94.5 32t-60.5 102q-24 -25 -53 -50.5t-66 -46.5t-84 -34t-107 -13q-79 0 -133 27t-87 67.5t-47.5 88.5t-14.5 90q0 81 30 132t78 82t109 47.5t123 30.5l178 39q43 11 59.5 33t16.5 66q0 52 -17 93.5t-47.5 70t-73 44
t-92.5 15.5q-64 0 -105.5 -17.5t-68 -42t-39.5 -50.5t-20 -42h-55zM670 502q-132 -20 -210 -45.5t-118 -56.5t-51.5 -67.5t-11.5 -78.5q0 -50 17 -83t43 -53t56.5 -28t57.5 -8q39 0 78 14.5t69.5 40.5t50 61.5t19.5 77.5v226zM178 1176q8 46 28.5 83.5t49.5 63t64 39.5
t71 14q16 0 28.5 -2t29.5 -8t43 -17.5t69 -31.5q24 -11 39.5 -18t27 -10.5t21.5 -5t23 -1.5q24 0 42.5 9.5t32 24t23 32.5t16.5 36h60q-6 -24 -20.5 -59.5t-40.5 -68.5t-64 -56.5t-90 -23.5q-26 0 -54.5 5.5t-62.5 22.5l-72 35q-27 14 -49 22.5t-47 8.5q-7 0 -22 -2t-32 -11
t-33.5 -28t-25.5 -53h-55z" />
    <glyph glyph-name="adieresis" unicode="&#xe4;" 
d="M156 739l8 133q24 19 55 41t71.5 41t91.5 31t114 12q30 0 65 -3.5t71 -14t71.5 -28.5t66.5 -46q18 -17 33 -37.5t26.5 -47.5t18 -62t6.5 -82q0 -15 -0.5 -44.5t-1.5 -66t-2 -76.5t-2 -76t-1.5 -64.5t-0.5 -41.5q0 -68 1 -113.5t8.5 -73.5t22.5 -40t44 -12q18 0 30.5 3.5
t20.5 6.5l2 -58q-34 -17 -69 -31t-79 -14q-51 0 -94.5 32t-60.5 102q-24 -25 -53 -50.5t-66 -46.5t-84 -34t-107 -13q-79 0 -133 27t-87 67.5t-47.5 88.5t-14.5 90q0 81 30 132t78 82t109 47.5t123 30.5l178 39q43 11 59.5 33t16.5 66q0 52 -17 93.5t-47.5 70t-73 44
t-92.5 15.5q-64 0 -105.5 -17.5t-68 -42t-39.5 -50.5t-20 -42h-55zM670 502q-132 -20 -210 -45.5t-118 -56.5t-51.5 -67.5t-11.5 -78.5q0 -50 17 -83t43 -53t56.5 -28t57.5 -8q39 0 78 14.5t69.5 40.5t50 61.5t19.5 77.5v226zM616 1260q0 19 7.5 36t20.5 30t30 20.5t37 7.5
t37.5 -7.5t30.5 -20.5t20.5 -30t7.5 -36q0 -41 -28 -69t-68 -28q-39 0 -67 27.5t-28 69.5zM215 1260q0 19 7.5 36t20.5 30t30 20.5t36 7.5q20 0 37.5 -7.5t31 -20.5t21 -30t7.5 -36q0 -20 -7.5 -38t-21 -31t-31 -20.5t-37.5 -7.5q-19 0 -36 7.5t-30 20t-20.5 30.5t-7.5 39z
" />
    <glyph glyph-name="aring" unicode="&#xe5;" 
d="M156 739l8 133q24 19 55 41t71.5 41t91.5 31t114 12q30 0 65 -3.5t71 -14t71.5 -28.5t66.5 -46q18 -17 33 -37.5t26.5 -47.5t18 -62t6.5 -82q0 -15 -0.5 -44.5t-1.5 -66t-2 -76.5t-2 -76t-1.5 -64.5t-0.5 -41.5q0 -68 1 -113.5t8.5 -73.5t22.5 -40t44 -12q18 0 30.5 3.5
t20.5 6.5l2 -58q-34 -17 -69 -31t-79 -14q-51 0 -94.5 32t-60.5 102q-24 -25 -53 -50.5t-66 -46.5t-84 -34t-107 -13q-79 0 -133 27t-87 67.5t-47.5 88.5t-14.5 90q0 81 30 132t78 82t109 47.5t123 30.5l178 39q43 11 59.5 33t16.5 66q0 52 -17 93.5t-47.5 70t-73 44
t-92.5 15.5q-64 0 -105.5 -17.5t-68 -42t-39.5 -50.5t-20 -42h-55zM670 502q-132 -20 -210 -45.5t-118 -56.5t-51.5 -67.5t-11.5 -78.5q0 -50 17 -83t43 -53t56.5 -28t57.5 -8q39 0 78 14.5t69.5 40.5t50 61.5t19.5 77.5v226zM512 1090q-39 0 -73.5 14.5t-60 40t-40 60
t-14.5 73.5q0 38 14.5 72t40 59.5t60 40t73.5 14.5q38 0 72 -14.5t59.5 -40t40 -59.5t14.5 -72q0 -39 -14.5 -73.5t-40 -60t-59.5 -40t-72 -14.5zM512 1145q28 0 52 10.5t41.5 28.5t27.5 42t10 52q0 27 -10 51t-28 41.5t-42.5 28t-52.5 10.5t-52 -10.5t-41.5 -28
t-27.5 -41.5t-10 -51q0 -28 10 -52t28 -42t42 -28.5t53 -10.5z" />
    <glyph glyph-name="ae" unicode="&#xe6;" horiz-adv-x="1706" 
d="M885 487q-3 -115 25 -196t75.5 -132t108.5 -74.5t123 -23.5q72 0 127.5 21t95.5 49t65 56.5t37 43.5l21 -6q-4 -16 -6.5 -27.5t-4 -25t-2.5 -32t-2 -48.5q-55 -41 -109 -66t-103 -38.5t-91.5 -18t-75.5 -4.5q-65 0 -126 13t-114 40.5t-97 70t-74 101.5q-12 -22 -36.5 -60
t-67 -74.5t-105.5 -63.5t-152 -27q-71 0 -127 20t-94 56t-58 86.5t-20 112.5q0 85 32.5 137t85.5 83.5t119 47.5t134 29q48 9 76 14.5t45.5 8.5t27 5.5t19.5 5.5q29 10 44 17.5t28 13.5q1 15 1.5 36t-2.5 45.5t-11 52t-23 55.5q-18 32 -43.5 52t-53 31t-54 15t-46.5 4
q-51 0 -99 -16.5t-83 -45.5q-34 -27 -49.5 -53.5t-24.5 -48.5l-49 4q2 20 5 58.5t3 80.5q12 11 40 32t71.5 42t104.5 37t139 16q67 0 114.5 -12t81 -31t56.5 -43t42 -47q13 13 38 35.5t64.5 44t96.5 37.5t135 16q119 0 202.5 -37t136 -104.5t76.5 -161.5t24 -209h-717z
M1399 573q0 29 -2.5 65.5t-10.5 74.5t-23.5 74t-42.5 64.5t-67 46t-96 17.5q-69 0 -120 -28.5t-85 -76t-50.5 -109.5t-16.5 -128h514zM705 500q-8 -2 -26.5 -5t-42 -7.5t-49 -9.5t-49.5 -9.5t-43 -9t-28 -6.5q-32 -10 -61.5 -23.5t-53 -36t-37.5 -55.5t-14 -82
q0 -51 16.5 -85.5t43 -55t58.5 -29t64 -8.5q56 0 98 22.5t70 57.5q19 24 29.5 47.5t15.5 50.5t6.5 58t2.5 69v117z" />
    <glyph glyph-name="ccedilla" unicode="&#xe7;" 
d="M963 162q-14 -42 -17.5 -69.5t-5.5 -49.5q-23 -15 -54.5 -30t-71 -26t-86.5 -18t-101 -6l-49 -110q11 3 29 7.5t44 4.5q28 0 55.5 -9t50 -27t36.5 -45t14 -63q0 -53 -26 -86.5t-63 -52.5t-78 -26t-71 -7q-21 0 -63.5 6t-114.5 27l29 62q28 -10 57.5 -17.5t67.5 -7.5
q60 0 90.5 24.5t30.5 61.5q0 15 -5.5 30t-17 26.5t-30.5 18.5t-46 7q-20 0 -32.5 -3.5t-24.5 -8.5l-33 12l80 180q-117 12 -204 56.5t-144.5 113.5t-86 156.5t-28.5 185.5q0 118 37 214t107 164t170.5 105t228.5 37q90 0 174 -18t162 -63q-23 -59 -31.5 -102.5t-13.5 -72.5
h-25q-22 57 -53 90.5t-65 51.5t-68 23t-62 5q-85 0 -150 -29t-109 -83.5t-66.5 -131.5t-22.5 -173q0 -94 18.5 -163.5t48.5 -118t68.5 -79.5t78.5 -48t78.5 -23.5t68.5 -6.5q31 0 68 6t74 19.5t71.5 34.5t62.5 51z" />
    <glyph glyph-name="egrave" unicode="&#xe8;" horiz-adv-x="1139" 
d="M305 487q0 -21 1 -52.5t6 -67.5t16 -74.5t32 -73.5q36 -57 77 -89.5t80 -48t73.5 -19t56.5 -3.5q75 0 131 20t95.5 47t63.5 55t36 44l24 -6q-9 -43 -10.5 -70.5t-3.5 -52.5q-68 -65 -162 -99t-219 -34q-117 0 -210 35.5t-158 102t-99.5 161.5t-34.5 213q0 106 29.5 200.5
t90.5 165.5t153.5 112.5t218.5 41.5q114 0 192 -30t128 -77t76.5 -105.5t38 -114.5t12.5 -104.5t1 -76.5h-735zM836 573q0 17 -1 49t-8 69.5t-22 77t-42 71.5t-69.5 52.5t-103.5 20.5q-67 0 -117 -24.5t-84.5 -69t-54.5 -107t-27 -139.5h529zM688 1124l-342 213
q-25 16 -31 32.5t-6 29.5q0 29 21 50t49 21q12 0 20.5 -2.5t19 -10t25.5 -22t39 -38.5l277 -273h-72z" />
    <glyph glyph-name="eacute" unicode="&#xe9;" horiz-adv-x="1139" 
d="M305 487q0 -21 1 -52.5t6 -67.5t16 -74.5t32 -73.5q36 -57 77 -89.5t80 -48t73.5 -19t56.5 -3.5q75 0 131 20t95.5 47t63.5 55t36 44l24 -6q-9 -43 -10.5 -70.5t-3.5 -52.5q-68 -65 -162 -99t-219 -34q-117 0 -210 35.5t-158 102t-99.5 161.5t-34.5 213q0 106 29.5 200.5
t90.5 165.5t153.5 112.5t218.5 41.5q114 0 192 -30t128 -77t76.5 -105.5t38 -114.5t12.5 -104.5t1 -76.5h-735zM836 573q0 17 -1 49t-8 69.5t-22 77t-42 71.5t-69.5 52.5t-103.5 20.5q-67 0 -117 -24.5t-84.5 -69t-54.5 -107t-27 -139.5h529zM440 1124l275 273
q24 24 39 38.5t26 22t20 10t21 2.5q28 0 49 -21t21 -50q0 -37 -39 -62l-340 -213h-72z" />
    <glyph glyph-name="ecircumflex" unicode="&#xea;" horiz-adv-x="1139" 
d="M305 487q0 -21 1 -52.5t6 -67.5t16 -74.5t32 -73.5q36 -57 77 -89.5t80 -48t73.5 -19t56.5 -3.5q75 0 131 20t95.5 47t63.5 55t36 44l24 -6q-9 -43 -10.5 -70.5t-3.5 -52.5q-68 -65 -162 -99t-219 -34q-117 0 -210 35.5t-158 102t-99.5 161.5t-34.5 213q0 106 29.5 200.5
t90.5 165.5t153.5 112.5t218.5 41.5q114 0 192 -30t128 -77t76.5 -105.5t38 -114.5t12.5 -104.5t1 -76.5h-735zM836 573q0 17 -1 49t-8 69.5t-22 77t-42 71.5t-69.5 52.5t-103.5 20.5q-67 0 -117 -24.5t-84.5 -69t-54.5 -107t-27 -139.5h529zM532 1466h115l250 -342h-68
l-239 215l-240 -215h-69z" />
    <glyph glyph-name="edieresis" unicode="&#xeb;" horiz-adv-x="1139" 
d="M305 487q0 -21 1 -52.5t6 -67.5t16 -74.5t32 -73.5q36 -57 77 -89.5t80 -48t73.5 -19t56.5 -3.5q75 0 131 20t95.5 47t63.5 55t36 44l24 -6q-9 -43 -10.5 -70.5t-3.5 -52.5q-68 -65 -162 -99t-219 -34q-117 0 -210 35.5t-158 102t-99.5 161.5t-34.5 213q0 106 29.5 200.5
t90.5 165.5t153.5 112.5t218.5 41.5q114 0 192 -30t128 -77t76.5 -105.5t38 -114.5t12.5 -104.5t1 -76.5h-735zM836 573q0 17 -1 49t-8 69.5t-22 77t-42 71.5t-69.5 52.5t-103.5 20.5q-67 0 -117 -24.5t-84.5 -69t-54.5 -107t-27 -139.5h529zM694 1260q0 19 7.5 36t20.5 30
t30 20.5t36 7.5q20 0 38 -7.5t31 -20.5t20.5 -30t7.5 -36q0 -41 -28 -69t-69 -28q-19 0 -36 7.5t-30 20t-20.5 30.5t-7.5 39zM293 1260q0 19 7.5 36t20.5 30t30 20.5t36 7.5q20 0 37.5 -7.5t30.5 -20.5t20.5 -30t7.5 -36q0 -41 -28 -69t-68 -28q-19 0 -36 7.5t-30 20
t-20.5 30.5t-7.5 39z" />
    <glyph glyph-name="igrave" unicode="&#xec;" horiz-adv-x="569" 
d="M391 510q0 87 -1.5 156.5t-4 126t-5.5 102.5t-6 86q22 -6 43.5 -9t57.5 -3q35 0 59 3t47 9q-2 -28 -3 -56t-2.5 -60t-2.5 -70.5t-2 -89t-1.5 -115.5t-0.5 -148v-44t1 -43t1.5 -53t2.5 -72.5t4 -100.5t5 -139q-10 3 -19.5 5t-21 3.5t-25.5 2.5t-34 1q-22 0 -37 -1
t-26.5 -2.5t-21.5 -3.5t-22 -5q3 58 5.5 124t5 134t3.5 135t1 127zM556 1124l-342 213q-24 16 -30 32.5t-6 29.5q0 29 20.5 50t48.5 21q12 0 20.5 -2.5t19 -10t25.5 -22t40 -38.5l276 -273h-72z" />
    <glyph glyph-name="iacute" unicode="&#xed;" horiz-adv-x="569" 
d="M240 510q0 87 -1.5 156.5t-4 126t-5.5 102.5t-6 86q22 -6 43.5 -9t57.5 -3q35 0 59 3t47 9q-1 -28 -2.5 -56t-3 -60t-2.5 -70.5t-2 -89t-1.5 -115.5t-0.5 -148v-44t1 -43t1.5 -53t2.5 -72.5t4 -100.5t5 -139q-10 3 -19.5 5t-21 3.5t-25.5 2.5t-34 1q-22 0 -37 -1
t-26.5 -2.5t-21.5 -3.5t-22 -5q3 58 5.5 124t5 134t3.5 135t1 127zM178 1124l275 273q24 24 39 38.5t26 22t20 10t21 2.5q28 0 49 -21t21 -50q0 -37 -39 -62l-340 -213h-72z" />
    <glyph glyph-name="icircumflex" unicode="&#xee;" horiz-adv-x="569" 
d="M400 510q0 87 -1.5 156.5t-4 126t-5.5 102.5t-6 86q22 -6 43.5 -9t57.5 -3q35 0 59 3t47 9q-2 -28 -3 -56t-2.5 -60t-2.5 -70.5t-2 -89t-1.5 -115.5t-0.5 -148v-44t1 -43t1.5 -53t2.5 -72.5t4 -100.5t5 -139q-10 3 -19.5 5t-21 3.5t-25.5 2.5t-34 1q-22 0 -37 -1
t-26.5 -2.5t-21.5 -3.5t-22 -5q3 58 5.5 124t5 134t3.5 135t1 127zM430 1466h115l250 -342h-68l-239 215l-240 -215h-70z" />
    <glyph glyph-name="idieresis" unicode="&#xef;" horiz-adv-x="569" 
d="M387 510q0 87 -1.5 156.5t-4 126t-5.5 102.5t-6 86q22 -6 43.5 -9t57.5 -3q35 0 59 3t47 9q-1 -28 -2.5 -56t-3 -60t-2.5 -70.5t-2 -89t-1.5 -115.5t-0.5 -148v-44t1 -43t1.5 -53t2.5 -72.5t4 -100.5t5 -139q-10 3 -19.5 5t-21 3.5t-25.5 2.5t-34 1q-22 0 -37 -1
t-26.5 -2.5t-21.5 -3.5t-22 -5q3 58 5.5 124t5 134t3.5 135t1 127zM579 1260q0 19 7.5 36t20.5 30t30 20.5t36 7.5q20 0 38 -7.5t31 -20.5t20.5 -30t7.5 -36q0 -41 -28 -69t-69 -28q-19 0 -36 7.5t-30 20t-20.5 30.5t-7.5 39zM178 1260q0 19 7.5 36t20.5 30t30 20.5t36 7.5
q20 0 37.5 -7.5t30.5 -20.5t20.5 -30t7.5 -36q0 -41 -28 -69t-68 -28q-19 0 -36 7.5t-30 20t-20.5 30.5t-7.5 39z" />
    <glyph glyph-name="eth" unicode="&#xf0;" horiz-adv-x="1251" 
d="M98 469q0 116 34.5 212.5t99.5 165.5t160 107.5t216 38.5q26 0 47 -1.5t39 -4.5t35.5 -7t36.5 -9q-59 77 -124.5 139t-133.5 121q-64 -20 -106 -33.5t-74 -25.5t-60 -24t-63 -28q-9 20 -21.5 39t-27.5 39q43 12 76 21.5t64 19t65 21.5t79 28q-36 30 -69.5 56t-66.5 50
t-67 47t-71 48q29 7 49 12.5t36.5 11t32 12t35.5 15.5q79 -45 151 -91t144 -97q72 24 144.5 50.5t150.5 61.5q10 -21 21.5 -41.5t25.5 -40.5q-68 -20 -135 -39.5t-139 -48.5q97 -73 183.5 -155.5t150.5 -178.5t101.5 -206.5t37.5 -239.5q0 -107 -24 -190t-64.5 -144.5
t-94 -103.5t-113 -67.5t-122 -36.5t-119.5 -11q-55 0 -114.5 10t-117.5 33t-110 61.5t-91.5 94.5t-63 132.5t-23.5 176.5zM631 915q-81 0 -136.5 -27.5t-91.5 -70t-55.5 -94t-28.5 -99.5t-10.5 -86t-1.5 -53q0 -107 22.5 -189t63.5 -138.5t99 -85.5t129 -29q73 0 133 31
t103 88t66 138.5t23 182.5q0 40 -5 87.5t-17.5 95.5t-35 93t-57.5 79.5t-84.5 55.5t-115.5 21z" />
    <glyph glyph-name="ntilde" unicode="&#xf1;" horiz-adv-x="1251" 
d="M186 553q0 102 -3.5 215t-6.5 221q28 -5 51 -8.5t52 -3.5t51.5 3.5t48.5 8.5q-1 -12 -2.5 -39.5t-3 -58.5t-2.5 -58.5t-2 -37.5q20 36 51.5 71.5t75.5 64t102 46.5t131 18q84 0 142.5 -18t98 -48t61.5 -68t33.5 -77.5t14 -77.5t2.5 -67q0 -5 -0.5 -34.5t-1.5 -72.5
t-2 -93t-2 -97t-1.5 -84.5t-0.5 -54.5q0 -15 0.5 -45.5t1 -64t1.5 -63t3 -40.5q-21 6 -43.5 9t-60.5 3q-40 0 -63 -3t-46 -9q7 82 11 162.5t5.5 146.5t2 112t0.5 60q0 77 -5.5 149t-28.5 127.5t-71 89t-133 33.5q-81 0 -143.5 -36t-100.5 -105q-14 -27 -21 -79t-10.5 -111.5
t-4 -116t-0.5 -92.5q0 -120 5.5 -201.5t10.5 -138.5q-22 5 -47.5 8.5t-61.5 3.5q-35 0 -60 -3.5t-48 -8.5q4 47 7.5 97.5t6.5 115.5t4.5 150t1.5 200zM293 1176q7 46 28 83.5t50 63t64 39.5t71 14q16 0 28.5 -2t29.5 -8t43 -17.5t69 -31.5q24 -11 39 -18t26.5 -10.5t21.5 -5
t23 -1.5q25 0 43.5 9.5t32 24t23 32.5t16.5 36h60q-6 -24 -20.5 -59.5t-40.5 -68.5t-64.5 -56.5t-90.5 -23.5q-26 0 -54 5.5t-62 22.5l-72 35q-28 14 -49.5 22.5t-46.5 8.5q-7 0 -22 -2t-32 -11t-33.5 -28t-25.5 -53h-55z" />
    <glyph glyph-name="ograve" unicode="&#xf2;" horiz-adv-x="1251" 
d="M618 997q146 0 248.5 -44t166.5 -115t93 -162t29 -184q0 -122 -40 -220.5t-111.5 -167.5t-170 -106t-215.5 -37q-54 0 -113.5 9t-117.5 32t-110.5 60.5t-92 95.5t-63 137t-23.5 184q0 120 38 216t107 163t164.5 103t210.5 36zM631 915q-81 0 -136.5 -27.5t-91.5 -70
t-55.5 -94t-28.5 -99.5t-10.5 -86t-1.5 -53q0 -107 22.5 -189t63.5 -138.5t99 -85.5t129 -29q73 0 133 31t103 88t66 138.5t23 182.5q0 40 -5 87.5t-17.5 95.5t-35 93t-57.5 79.5t-84.5 55.5t-115.5 21zM705 1124l-343 213q-24 16 -30 32.5t-6 29.5q0 29 20.5 50t48.5 21
q12 0 20.5 -2.5t19 -10t25.5 -22t40 -38.5l276 -273h-71z" />
    <glyph glyph-name="oacute" unicode="&#xf3;" horiz-adv-x="1251" 
d="M618 997q146 0 248.5 -44t166.5 -115t93 -162t29 -184q0 -122 -40 -220.5t-111.5 -167.5t-170 -106t-215.5 -37q-54 0 -113.5 9t-117.5 32t-110.5 60.5t-92 95.5t-63 137t-23.5 184q0 120 38 216t107 163t164.5 103t210.5 36zM631 915q-81 0 -136.5 -27.5t-91.5 -70
t-55.5 -94t-28.5 -99.5t-10.5 -86t-1.5 -53q0 -107 22.5 -189t63.5 -138.5t99 -85.5t129 -29q73 0 133 31t103 88t66 138.5t23 182.5q0 40 -5 87.5t-17.5 95.5t-35 93t-57.5 79.5t-84.5 55.5t-115.5 21zM477 1124l275 273q24 24 39 38.5t26 22t20 10t21 2.5q28 0 49 -21
t21 -50q0 -37 -39 -62l-340 -213h-72z" />
    <glyph glyph-name="ocircumflex" unicode="&#xf4;" horiz-adv-x="1251" 
d="M618 997q146 0 248.5 -44t166.5 -115t93 -162t29 -184q0 -122 -40 -220.5t-111.5 -167.5t-170 -106t-215.5 -37q-54 0 -113.5 9t-117.5 32t-110.5 60.5t-92 95.5t-63 137t-23.5 184q0 120 38 216t107 163t164.5 103t210.5 36zM631 915q-81 0 -136.5 -27.5t-91.5 -70
t-55.5 -94t-28.5 -99.5t-10.5 -86t-1.5 -53q0 -107 22.5 -189t63.5 -138.5t99 -85.5t129 -29q73 0 133 31t103 88t66 138.5t23 182.5q0 40 -5 87.5t-17.5 95.5t-35 93t-57.5 79.5t-84.5 55.5t-115.5 21zM569 1466h115l250 -342h-68l-239 215l-240 -215h-70z" />
    <glyph glyph-name="otilde" unicode="&#xf5;" horiz-adv-x="1251" 
d="M618 997q146 0 248.5 -44t166.5 -115t93 -162t29 -184q0 -122 -40 -220.5t-111.5 -167.5t-170 -106t-215.5 -37q-54 0 -113.5 9t-117.5 32t-110.5 60.5t-92 95.5t-63 137t-23.5 184q0 120 38 216t107 163t164.5 103t210.5 36zM631 915q-81 0 -136.5 -27.5t-91.5 -70
t-55.5 -94t-28.5 -99.5t-10.5 -86t-1.5 -53q0 -107 22.5 -189t63.5 -138.5t99 -85.5t129 -29q73 0 133 31t103 88t66 138.5t23 182.5q0 40 -5 87.5t-17.5 95.5t-35 93t-57.5 79.5t-84.5 55.5t-115.5 21zM293 1176q7 46 28 83.5t50 63t64 39.5t71 14q16 0 28.5 -2t29.5 -8
t43 -17.5t69 -31.5q24 -11 39 -18t26.5 -10.5t21.5 -5t23 -1.5q25 0 43.5 9.5t32 24t23 32.5t16.5 36h60q-6 -24 -20.5 -59.5t-40.5 -68.5t-64.5 -56.5t-90.5 -23.5q-26 0 -54 5.5t-62 22.5l-72 35q-28 14 -49.5 22.5t-46.5 8.5q-7 0 -22 -2t-32 -11t-33.5 -28t-25.5 -53
h-55z" />
    <glyph glyph-name="odieresis" unicode="&#xf6;" horiz-adv-x="1251" 
d="M618 997q146 0 248.5 -44t166.5 -115t93 -162t29 -184q0 -122 -40 -220.5t-111.5 -167.5t-170 -106t-215.5 -37q-54 0 -113.5 9t-117.5 32t-110.5 60.5t-92 95.5t-63 137t-23.5 184q0 120 38 216t107 163t164.5 103t210.5 36zM631 915q-81 0 -136.5 -27.5t-91.5 -70
t-55.5 -94t-28.5 -99.5t-10.5 -86t-1.5 -53q0 -107 22.5 -189t63.5 -138.5t99 -85.5t129 -29q73 0 133 31t103 88t66 138.5t23 182.5q0 40 -5 87.5t-17.5 95.5t-35 93t-57.5 79.5t-84.5 55.5t-115.5 21zM731 1260q0 19 7.5 36t20.5 30t30 20.5t36 7.5q20 0 38 -7.5t31 -20.5
t20.5 -30t7.5 -36q0 -41 -28 -69t-69 -28q-19 0 -36 7.5t-30 20t-20.5 30.5t-7.5 39zM330 1260q0 19 7.5 36t20.5 30t30 20.5t36 7.5q20 0 37.5 -7.5t30.5 -20.5t20.5 -30t7.5 -36q0 -41 -28 -69t-68 -28q-19 0 -36 7.5t-30 20t-20.5 30.5t-7.5 39z" />
    <glyph glyph-name="divide" unicode="&#xf7;" horiz-adv-x="1214" 
d="M92 563h1028v-123h-1028v123zM606 242q22 0 41.5 -8t34.5 -22.5t24 -34.5t9 -44q0 -23 -8.5 -42.5t-23.5 -34t-35 -23t-42 -8.5q-23 0 -42.5 8.5t-34 23.5t-23 34.5t-8.5 41.5q0 23 8.5 43t23.5 34.5t34.5 23t41.5 8.5zM606 979q22 0 42 -8.5t35 -23t23.5 -34.5t8.5 -43
t-9 -42.5t-24 -34t-34.5 -23t-41.5 -8.5t-41.5 8.5t-34.5 23.5t-23.5 34.5t-8.5 41.5t8.5 42t23 35t34 23.5t42.5 8.5z" />
    <glyph glyph-name="oslash" unicode="&#xf8;" horiz-adv-x="1251" 
d="M1155 492q0 -125 -41.5 -224t-113.5 -167t-169.5 -104t-209.5 -36q-84 0 -163.5 20t-150.5 62q-29 -35 -47 -58.5t-34 -44t-33 -43.5t-43 -57q-13 20 -24 29t-36 18q39 47 63 75.5t40 48t28.5 35.5t30.5 38q-30 30 -58 65t-49 80.5t-34 105.5t-13 140q0 113 27.5 195.5
t72.5 140.5t102.5 94t116.5 56.5t115 28t99 7.5q25 0 58.5 -2.5t72.5 -10t81.5 -22.5t86.5 -40q24 31 40.5 52t31.5 40.5t32.5 42t42.5 57.5q14 -15 26.5 -25t35.5 -22q-17 -19 -29.5 -33t-28 -32.5t-37.5 -46t-59 -72.5q18 -15 46.5 -44t56 -75.5t47.5 -113.5t20 -158z
M946 479q0 75 -12.5 146.5t-46.5 136.5q-19 -24 -34.5 -43t-38.5 -47t-59 -70.5t-96 -114.5q-28 -35 -56 -69.5t-59 -73.5t-68 -85.5t-83 -104.5q9 -12 25.5 -30.5t43.5 -36.5t66 -31t93 -13q76 0 136.5 32t102.5 90t64 138t22 176zM307 481q0 -58 5.5 -101.5t13.5 -75.5
t16.5 -54t15.5 -37q49 59 90.5 110t79 98t74 91.5t74.5 92.5t80 100.5t92 115.5q-13 14 -31 30.5t-43.5 30.5t-60 23.5t-82.5 9.5q-81 0 -136.5 -27.5t-91.5 -69.5t-55.5 -93.5t-28.5 -100t-10.5 -87.5t-1.5 -56z" />
    <glyph glyph-name="ugrave" unicode="&#xf9;" horiz-adv-x="1251" 
d="M594 98q48 0 87 13t68 34t49.5 46.5t32.5 50.5q14 27 21.5 56.5t11 58t4 54.5t0.5 48q0 33 -0.5 77t-1 92.5t-1.5 100t-2.5 99t-3 89.5t-3.5 72q23 -5 51 -8.5t60 -3.5q34 0 56 3.5t44 8.5q-3 -45 -6.5 -102.5t-6.5 -124t-5 -140.5t-2 -153q0 -114 0.5 -188.5t2 -125.5
t4 -88t5.5 -77q-26 5 -48 8.5t-53 3.5q-27 0 -47.5 -3t-48.5 -9q2 22 3.5 38t2.5 35.5t1.5 47.5t2.5 73q-38 -70 -84.5 -112t-92.5 -64.5t-87.5 -29.5t-70.5 -7q-80 0 -137.5 18.5t-97 49t-63 69t-35.5 78t-16 77t-4 65.5q0 15 1 48.5t2 76t2.5 90t2.5 91t2 78t1 52.5
q0 28 -1 61t-2 64t-3 57.5t-3 42.5q23 -6 47 -9t58 -3q32 0 55.5 3t46.5 9q-5 -56 -8 -115t-5.5 -115.5t-3.5 -108t-1 -93.5q0 -91 3.5 -174t24 -146.5t65 -101t126.5 -37.5zM705 1124l-343 213q-24 16 -30 32.5t-6 29.5q0 29 20.5 50t48.5 21q12 0 20.5 -2.5t19 -10
t25.5 -22t40 -38.5l276 -273h-71z" />
    <glyph glyph-name="uacute" unicode="&#xfa;" horiz-adv-x="1251" 
d="M594 98q48 0 87 13t68 34t49.5 46.5t32.5 50.5q14 27 21.5 56.5t11 58t4 54.5t0.5 48q0 33 -0.5 77t-1 92.5t-1.5 100t-2.5 99t-3 89.5t-3.5 72q23 -5 51 -8.5t60 -3.5q34 0 56 3.5t44 8.5q-3 -45 -6.5 -102.5t-6.5 -124t-5 -140.5t-2 -153q0 -114 0.5 -188.5t2 -125.5
t4 -88t5.5 -77q-26 5 -48 8.5t-53 3.5q-27 0 -47.5 -3t-48.5 -9q2 22 3.5 38t2.5 35.5t1.5 47.5t2.5 73q-38 -70 -84.5 -112t-92.5 -64.5t-87.5 -29.5t-70.5 -7q-80 0 -137.5 18.5t-97 49t-63 69t-35.5 78t-16 77t-4 65.5q0 15 1 48.5t2 76t2.5 90t2.5 91t2 78t1 52.5
q0 28 -1 61t-2 64t-3 57.5t-3 42.5q23 -6 47 -9t58 -3q32 0 55.5 3t46.5 9q-5 -56 -8 -115t-5.5 -115.5t-3.5 -108t-1 -93.5q0 -91 3.5 -174t24 -146.5t65 -101t126.5 -37.5zM477 1124l275 273q24 24 39 38.5t26 22t20 10t21 2.5q28 0 49 -21t21 -50q0 -37 -39 -62
l-340 -213h-72z" />
    <glyph glyph-name="ucircumflex" unicode="&#xfb;" horiz-adv-x="1251" 
d="M594 98q48 0 87 13t68 34t49.5 46.5t32.5 50.5q14 27 21.5 56.5t11 58t4 54.5t0.5 48q0 33 -0.5 77t-1 92.5t-1.5 100t-2.5 99t-3 89.5t-3.5 72q23 -5 51 -8.5t60 -3.5q34 0 56 3.5t44 8.5q-3 -45 -6.5 -102.5t-6.5 -124t-5 -140.5t-2 -153q0 -114 0.5 -188.5t2 -125.5
t4 -88t5.5 -77q-26 5 -48 8.5t-53 3.5q-27 0 -47.5 -3t-48.5 -9q2 22 3.5 38t2.5 35.5t1.5 47.5t2.5 73q-38 -70 -84.5 -112t-92.5 -64.5t-87.5 -29.5t-70.5 -7q-80 0 -137.5 18.5t-97 49t-63 69t-35.5 78t-16 77t-4 65.5q0 15 1 48.5t2 76t2.5 90t2.5 91t2 78t1 52.5
q0 28 -1 61t-2 64t-3 57.5t-3 42.5q23 -6 47 -9t58 -3q32 0 55.5 3t46.5 9q-5 -56 -8 -115t-5.5 -115.5t-3.5 -108t-1 -93.5q0 -91 3.5 -174t24 -146.5t65 -101t126.5 -37.5zM569 1466h115l250 -342h-68l-239 215l-240 -215h-70z" />
    <glyph glyph-name="udieresis" unicode="&#xfc;" horiz-adv-x="1251" 
d="M594 98q48 0 87 13t68 34t49.5 46.5t32.5 50.5q14 27 21.5 56.5t11 58t4 54.5t0.5 48q0 33 -0.5 77t-1 92.5t-1.5 100t-2.5 99t-3 89.5t-3.5 72q23 -5 51 -8.5t60 -3.5q34 0 56 3.5t44 8.5q-3 -45 -6.5 -102.5t-6.5 -124t-5 -140.5t-2 -153q0 -114 0.5 -188.5t2 -125.5
t4 -88t5.5 -77q-26 5 -48 8.5t-53 3.5q-27 0 -47.5 -3t-48.5 -9q2 22 3.5 38t2.5 35.5t1.5 47.5t2.5 73q-38 -70 -84.5 -112t-92.5 -64.5t-87.5 -29.5t-70.5 -7q-80 0 -137.5 18.5t-97 49t-63 69t-35.5 78t-16 77t-4 65.5q0 15 1 48.5t2 76t2.5 90t2.5 91t2 78t1 52.5
q0 28 -1 61t-2 64t-3 57.5t-3 42.5q23 -6 47 -9t58 -3q32 0 55.5 3t46.5 9q-5 -56 -8 -115t-5.5 -115.5t-3.5 -108t-1 -93.5q0 -91 3.5 -174t24 -146.5t65 -101t126.5 -37.5zM731 1260q0 19 7.5 36t20.5 30t30 20.5t36 7.5q20 0 38 -7.5t31 -20.5t20.5 -30t7.5 -36
q0 -41 -28 -69t-69 -28q-19 0 -36 7.5t-30 20t-20.5 30.5t-7.5 39zM330 1260q0 19 7.5 36t20.5 30t30 20.5t36 7.5q20 0 37.5 -7.5t30.5 -20.5t20.5 -30t7.5 -36q0 -41 -28 -69t-68 -28q-19 0 -36 7.5t-30 20t-20.5 30.5t-7.5 39z" />
    <glyph glyph-name="yacute" unicode="&#xfd;" 
d="M365 166q-23 54 -51.5 122t-58.5 139t-58.5 139t-51.5 122q-22 55 -37 91t-28.5 66.5t-29 63t-38.5 80.5q26 -6 54 -9t75 -3q34 0 57 1.5t54 10.5q4 -14 17.5 -52t33.5 -92.5t44.5 -121.5t51.5 -138t55 -142t54 -134q11 -26 22.5 -47.5t20.5 -21.5q5 0 22 32.5t41 87.5
t53.5 129t60 157.5t60 171t54.5 171.5q17 -5 39.5 -8.5t50.5 -3.5q29 0 49 3.5t33 8.5q-9 -14 -17.5 -28.5t-19.5 -35t-25 -50t-35 -75t-50.5 -109.5t-69.5 -152q-17 -38 -34 -74.5t-36 -73.5q-52 -114 -105 -230t-102 -233t-92.5 -233.5t-77.5 -231.5q-11 5 -29.5 9
t-41.5 4q-40 0 -93 -13q68 127 133.5 250t126.5 250zM403 1124l275 273q24 24 39.5 38.5t26 22t19.5 10t21 2.5q28 0 49 -21t21 -50q0 -37 -39 -62l-340 -213h-72z" />
    <glyph glyph-name="thorn" unicode="&#xfe;" horiz-adv-x="1251" 
d="M1155 485q0 -121 -35.5 -218.5t-97.5 -165.5t-148 -105t-186 -37q-72 0 -128.5 18t-98 46t-68.5 61.5t-39 65.5v-218.5t0.5 -180t3 -155t7.5 -143.5q-23 6 -46.5 9t-60.5 3q-38 0 -62 -3t-49 -9q3 55 6 108t5.5 112t4.5 127t3.5 153.5t2.5 192t1 241.5q0 558 -12 1114
q23 -5 48 -8.5t54 -3.5q31 0 55 3.5t47 8.5q-5 -57 -7.5 -123.5t-3.5 -150t-0.5 -187.5t1.5 -237q12 20 36 53t65 65t101.5 55t145.5 23q51 0 105 -12.5t104.5 -39.5t95 -68t78 -98.5t53 -131t19.5 -164.5zM944 475q0 116 -25 196.5t-65 130.5t-90 72.5t-100 22.5
q-83 0 -139 -31t-91 -75q-15 -20 -30 -45t-27 -62.5t-19.5 -91t-7.5 -129.5q0 -68 7 -115.5t19 -82t27 -58.5t31 -43q40 -48 93 -74.5t124 -26.5q73 0 123.5 26t83 66.5t50 89.5t25.5 94.5t9.5 82.5t1.5 53z" />
    <glyph glyph-name="ydieresis" unicode="&#xff;" 
d="M365 166q-23 54 -51.5 122t-58.5 139t-58.5 139t-51.5 122q-22 55 -37 91t-28.5 66.5t-29 63t-38.5 80.5q26 -6 54 -9t75 -3q34 0 57 1.5t54 10.5q4 -14 17.5 -52t33.5 -92.5t44.5 -121.5t51.5 -138t55 -142t54 -134q11 -26 22.5 -47.5t20.5 -21.5q5 0 22 32.5t41 87.5
t53.5 129t60 157.5t60 171t54.5 171.5q17 -5 39.5 -8.5t50.5 -3.5q29 0 49 3.5t33 8.5q-9 -14 -17.5 -28.5t-19.5 -35t-25 -50t-35 -75t-50.5 -109.5t-69.5 -152q-17 -38 -34 -74.5t-36 -73.5q-52 -114 -105 -230t-102 -233t-92.5 -233.5t-77.5 -231.5q-11 5 -29.5 9
t-41.5 4q-40 0 -93 -13q68 127 133.5 250t126.5 250zM627 1260q0 19 7.5 36t20.5 30t30 20.5t36 7.5q20 0 37.5 -7.5t30.5 -20.5t20.5 -30t7.5 -36q0 -41 -28 -69t-68 -28q-19 0 -36 7.5t-30 20t-20.5 30.5t-7.5 39zM225 1260q0 19 7.5 36t20.5 30t30 20.5t36 7.5
q20 0 38 -7.5t31 -20.5t20.5 -30t7.5 -36q0 -41 -28 -69t-69 -28q-19 0 -36 7.5t-30 20t-20.5 30.5t-7.5 39z" />
    <glyph glyph-name="Abreve" unicode="&#x102;" horiz-adv-x="1366" 
d="M365 526q-15 -35 -37.5 -86.5t-48 -119t-53 -150.5t-52.5 -180q-18 3 -36.5 7.5t-47.5 4.5t-49.5 -4.5t-40.5 -7.5q45 99 99.5 218.5t112.5 248t117 261t114 258.5t103 240.5t85 206.5q12 -2 23 -4t28 -2q14 0 23.5 1.5t21.5 4.5q30 -81 72 -185t90.5 -219.5t100.5 -236
t102 -234.5t95 -214.5t79 -176.5t54 -121t21 -46q-26 5 -54 8.5t-66 3.5q-41 0 -71.5 -3.5t-59.5 -8.5q-27 92 -55.5 171.5t-56 146.5t-52 121.5t-43.5 96.5h-518zM621 1137l-215 -508h436zM453 1819q7 -51 27.5 -89t51 -63.5t69 -38t83.5 -12.5q70 0 112.5 24.5t66 58
t33 67.5t13.5 53h58q-6 -72 -26.5 -130.5t-56.5 -100t-88.5 -64.5t-121.5 -23q-23 0 -52 4.5t-60 17t-61 34.5t-53 57.5t-37.5 85.5t-13.5 119h56z" />
    <glyph glyph-name="abreve" unicode="&#x103;" 
d="M156 739l8 133q24 19 55 41t71.5 41t91.5 31t114 12q30 0 65 -3.5t71 -14t71.5 -28.5t66.5 -46q18 -17 33 -37.5t26.5 -47.5t18 -62t6.5 -82q0 -15 -0.5 -44.5t-1.5 -66t-2 -76.5t-2 -76t-1.5 -64.5t-0.5 -41.5q0 -68 1 -113.5t8.5 -73.5t22.5 -40t44 -12q18 0 30.5 3.5
t20.5 6.5l2 -58q-34 -17 -69 -31t-79 -14q-51 0 -94.5 32t-60.5 102q-24 -25 -53 -50.5t-66 -46.5t-84 -34t-107 -13q-79 0 -133 27t-87 67.5t-47.5 88.5t-14.5 90q0 81 30 132t78 82t109 47.5t123 30.5l178 39q43 11 59.5 33t16.5 66q0 52 -17 93.5t-47.5 70t-73 44
t-92.5 15.5q-64 0 -105.5 -17.5t-68 -42t-39.5 -50.5t-20 -42h-55zM670 502q-132 -20 -210 -45.5t-118 -56.5t-51.5 -67.5t-11.5 -78.5q0 -50 17 -83t43 -53t56.5 -28t57.5 -8q39 0 78 14.5t69.5 40.5t50 61.5t19.5 77.5v226zM279 1442q7 -51 27.5 -89t51 -63.5t69 -38
t83.5 -12.5q47 0 81 11.5t58 30t39.5 41.5t25 45.5t14 42.5t7.5 32h58q-6 -72 -26.5 -130.5t-56.5 -100t-88.5 -64.5t-121.5 -23q-23 0 -52 4.5t-60 17t-61 34.5t-53 57.5t-37.5 85.5t-13.5 119h56z" />
    <glyph glyph-name="Dcroat" unicode="&#x110;" horiz-adv-x="1593" 
d="M1485 737q0 -129 -29 -235t-81.5 -189t-125 -144t-159 -100.5t-184 -59t-199.5 -19.5q-5 0 -28 0.5t-54.5 1.5t-69 2t-72 2t-62 1.5t-40.5 0.5q-21 0 -41 -0.5t-45 -1.5t-57 -2.5t-76 -3.5q5 73 8.5 130.5t6 109t4 101.5t2.5 107.5t1 127.5v161q-48 0 -94 -2t-94 -4
q3 18 4.5 30t-0.5 23q0 13 -0.5 24t-3.5 25q94 -6 188 -6q0 152 -2.5 298.5t-11.5 295.5q169 -6 336 -6q136 0 244.5 -2.5t197.5 -16.5t164.5 -45t147.5 -88q67 -53 110.5 -115t69 -129t35.5 -136t10 -136zM1257 713q0 57 -8 122.5t-30.5 131t-63 126.5t-104.5 109
q-55 41 -114 63t-120.5 32.5t-124 12t-123.5 1.5q-37 0 -60.5 -0.5t-41.5 -1.5t-35.5 -2.5t-42.5 -3.5q-6 -122 -8 -243t-2 -243q114 0 205.5 1.5t156.5 4.5q-2 -12 -3 -24.5t-1 -32.5q0 -14 1 -25t3 -20q-97 5 -186 5.5t-176 0.5v-426q0 -15 0.5 -42t1.5 -57.5t2 -59
t2 -46.5q26 -3 50 -5.5t49 -4t53.5 -2t64.5 -0.5q33 0 84 1.5t109.5 10.5t119.5 29t113 57q72 51 116.5 117t69.5 137.5t34 143t9 133.5z" />
    <glyph glyph-name="dcroat" unicode="&#x111;" horiz-adv-x="1251" 
d="M557 1114q14 25 15 50t-15 53q84 -5 166.5 -7t167.5 -2q-2 79 -3.5 153t-4.5 140q21 -5 43 -8.5t59 -3.5t62.5 3.5t50.5 8.5q-5 -72 -7 -145t-6 -146q42 0 83 2.5t83 4.5q-12 -54 0 -103q-43 2 -84.5 3t-83.5 1q-6 -240 -6 -479q0 -159 1.5 -323.5t4.5 -325.5
q-21 5 -41.5 8.5t-54.5 3.5t-56.5 -3.5t-43.5 -8.5q5 57 5.5 100.5t0.5 65.5q-26 -47 -63 -83.5t-82.5 -61t-97 -37.5t-105.5 -13q-78 0 -158.5 29.5t-146.5 92t-108 159.5t-42 233q0 121 35.5 218.5t97.5 166t147.5 105t186.5 36.5q72 0 129 -18t98 -45.5t68 -61.5t39 -65
q0 75 1 153t-1 156zM582 63q84 0 140.5 30.5t90.5 76.5q14 18 29 43t27 62.5t20 91t8 129.5q0 62 -8 123t-37 116q-26 48 -56.5 79t-64 49.5t-68.5 26t-69 7.5q-73 0 -123.5 -26t-83 -66t-50 -88.5t-25.5 -94.5t-9.5 -83t-1.5 -54q0 -116 25 -196.5t65.5 -130.5t90.5 -72.5
t100 -22.5z" />
    <glyph glyph-name="Itilde" unicode="&#x128;" horiz-adv-x="682" 
d="M242 719v127.5t-0.5 98.5t-1.5 88t-2.5 94.5t-4 118.5t-6.5 161q12 -3 23.5 -5.5t24.5 -4t28.5 -2t36.5 -0.5t37.5 0.5t30 2t26 4t25.5 5.5q-10 -184 -13.5 -365.5t-3.5 -365.5q0 -138 1.5 -241t3.5 -183t5 -142.5t5 -119.5q-29 5 -61 8.5t-66 3.5t-59 -3.5t-50 -8.5
q4 56 7 103.5t5 95t4 98.5t3 113.5t1.5 140t0.5 178.5zM81 1565q7 46 28 83.5t50 63t64 39.5t71 14q16 0 28.5 -2t29.5 -8t43 -17.5t69 -31.5q24 -11 39 -18t26.5 -10.5t21.5 -5t23 -1.5q25 0 43.5 9.5t32 24t23 32.5t16.5 36h59q-5 -24 -19.5 -59.5t-40.5 -68.5
t-64.5 -56.5t-90.5 -23.5q-26 0 -54 5.5t-62 22.5l-72 35q-28 14 -49.5 22.5t-46.5 8.5q-7 0 -22 -2t-32 -11t-33.5 -28t-25.5 -53h-55z" />
    <glyph glyph-name="itilde" unicode="&#x129;" horiz-adv-x="569" 
d="M197 510q0 87 -1.5 156.5t-4 126t-5.5 102.5t-6 86q22 -6 43.5 -9t57.5 -3q35 0 59 3t47 9q-1 -28 -2.5 -56t-3 -60t-2.5 -70.5t-2 -89t-1.5 -115.5t-0.5 -148v-44t1 -43t1.5 -53t2.5 -72.5t4 -100.5t5 -139q-10 3 -19.5 5t-21 3.5t-25.5 2.5t-34 1q-22 0 -37 -1
t-26.5 -2.5t-21.5 -3.5t-22 -5q3 58 5.5 124t5 134t3.5 135t1 127zM-49 1176q7 46 28 83.5t50 63t64 39.5t71 14q16 0 28.5 -2t29.5 -8t43 -17.5t69 -31.5q24 -11 39 -18t26.5 -10.5t21.5 -5t23 -1.5q25 0 43.5 9.5t32 24t23 32.5t16.5 36h59q-5 -24 -19.5 -59.5
t-40.5 -68.5t-64.5 -56.5t-90.5 -23.5q-26 0 -54 5.5t-62 22.5l-72 35q-28 14 -49.5 22.5t-46.5 8.5q-7 0 -22 -2t-32 -11t-33.5 -28t-25.5 -53h-55z" />
    <glyph glyph-name="dotlessi" unicode="&#x131;" horiz-adv-x="569" 
d="M197 510q0 87 -1.5 156.5t-4 126t-5.5 102.5t-6 86q22 -6 43.5 -9t57.5 -3q35 0 59 3t47 9q-1 -28 -2.5 -56t-3 -60t-2.5 -70.5t-2 -89t-1.5 -115.5t-0.5 -148v-44t1 -43t1.5 -53t2.5 -72.5t4 -100.5t5 -139q-10 3 -19.5 5t-21 3.5t-25.5 2.5t-34 1q-22 0 -37 -1
t-26.5 -2.5t-21.5 -3.5t-22 -5q3 58 5.5 124t5 134t3.5 135t1 127z" />
    <glyph glyph-name="IJ" unicode="&#x132;" horiz-adv-x="682" 
d="M242 719v127.5t-0.5 98.5t-1.5 88t-2.5 94.5t-4 118.5t-6.5 161q12 -3 23.5 -5.5t24.5 -4t28.5 -2t36.5 -0.5t37.5 0.5t30 2t26 4t25.5 5.5q-10 -184 -13.5 -365.5t-3.5 -365.5q0 -138 1.5 -241t3.5 -183t5 -142.5t5 -119.5q-29 5 -61 8.5t-66 3.5t-59 -3.5t-50 -8.5
q4 56 7 103.5t5 95t4 98.5t3 113.5t1.5 140t0.5 178.5zM557 -240q33 4 68 13.5t66 35t53.5 72.5t31.5 125q4 35 7 92.5t5 127t3 145.5t2 147.5t1 133v102.5q0 170 -4 335t-12 318q26 -5 56 -8.5t65 -3.5q37 0 65 3.5t56 8.5q-13 -178 -18 -391.5t-5 -450.5q0 -66 1 -139
t1 -139q0 -88 -2.5 -155t-13.5 -121t-35 -99t-66 -88q-39 -40 -80.5 -64t-83 -37.5t-80 -19t-71.5 -8.5z" />
    <glyph glyph-name="ij" unicode="&#x133;" horiz-adv-x="569" 
d="M197 510q0 87 -1.5 156.5t-4 126t-5.5 102.5t-6 86q22 -6 43.5 -9t57.5 -3q35 0 59 3t47 9q-1 -28 -2.5 -56t-3 -60t-2.5 -70.5t-2 -89t-1.5 -115.5t-0.5 -148v-44t1 -43t1.5 -53t2.5 -72.5t4 -100.5t5 -139q-10 3 -19.5 5t-21 3.5t-25.5 2.5t-34 1q-22 0 -37 -1
t-26.5 -2.5t-21.5 -3.5t-22 -5q3 58 5.5 124t5 134t3.5 135t1 127zM401 1317q0 -23 -9 -43.5t-24 -35.5t-35.5 -23.5t-43.5 -8.5t-43 8.5t-35 23.5t-24 35.5t-9 43.5q0 24 9 44.5t24 35.5t35 24t43 9t43.5 -9t35.5 -24t24 -35.5t9 -44.5zM854 1317q0 -23 -9 -43.5t-24 -35.5
t-35.5 -23.5t-43.5 -8.5t-43 8.5t-35 23.5t-24 35.5t-9 43.5q0 24 9 44.5t24 35.5t35 24t43 9t43.5 -9t35.5 -24t24 -35.5t9 -44.5zM488 -479q24 7 49 19.5t47 43t39 85.5t25 149q1 16 1.5 58t1 97.5t1 118.5t0.5 121.5v106v73.5q0 61 -1.5 133t-4 148t-6.5 154t-9 153
q23 -5 51 -8.5t60 -3.5q31 0 58.5 3.5t51.5 8.5q-3 -66 -5 -118t-4 -97.5t-2.5 -88.5t-1.5 -93t-1 -111v-141v-198.5t-0.5 -137t-1.5 -90t-3 -58t-5.5 -41t-7.5 -38.5q-3 -14 -10.5 -39.5t-21.5 -57.5t-37.5 -66t-58.5 -64t-84 -52.5t-114 -30.5z" />
    <glyph glyph-name="Lslash" unicode="&#x141;" 
d="M432 106q37 -2 64 -2.5t48.5 -1t40 -0.5h38.5q39 0 88.5 2t100.5 5.5t98.5 8t82.5 9.5q-3 -14 -5.5 -30t-2.5 -38q0 -24 2.5 -40.5t5.5 -28.5q-50 1 -94 3.5t-93.5 4t-110 3t-144.5 1.5q-68 0 -114 -1t-83 -2.5t-70.5 -4t-74.5 -4.5q4 77 8 161.5t6.5 164.5t4 150
t1.5 118q-24 -10 -43 -18t-40.5 -18.5t-49.5 -25t-71 -37.5q-8 15 -14 25.5t-13 19.5t-16 18t-23 21q36 14 63 25t55.5 24t64 30t87.5 42q0 33 -1 87t-2 119t-3 137t-4 140.5t-4 129t-4 104.5q25 -5 48.5 -8.5t62.5 -3.5q40 0 70.5 3.5t58.5 8.5q-8 -218 -12.5 -374.5
t-4.5 -244.5q48 22 91.5 42.5t85.5 41t83 42.5t84 47q6 -16 10.5 -27.5t10 -22t13 -21.5t19.5 -26q-41 -19 -92 -43t-105 -48.5t-106 -48.5t-94 -44q0 -51 -0.5 -92.5t-1 -79.5t-0.5 -77v-85.5v-105v-134.5z" />
    <glyph glyph-name="lslash" unicode="&#x142;" horiz-adv-x="569" 
d="M190 801q0 106 -1 205.5t-2.5 189t-4 166.5t-6.5 139q25 -3 51 -7.5t54 -4.5q29 0 55 3.5t55 8.5q-6 -155 -10 -306t-4 -306q33 13 57.5 23.5t46 21.5t43.5 23t49 28q6 -12 11.5 -21t10.5 -17.5t12 -16.5t16 -19q-72 -28 -137.5 -56t-108.5 -50v-143q0 -99 1 -186
t3 -167.5t5 -158.5t7 -160q-26 6 -48.5 9t-63.5 3q-39 0 -60 -3t-43 -9q4 81 6.5 162.5t4 170t1.5 186.5v212q-19 -9 -43 -20.5t-47.5 -23t-44.5 -21.5t-35 -17q-6 12 -10.5 20.5t-10 15.5t-12 14.5t-16.5 17.5q56 23 110.5 44.5t108.5 49.5z" />
    <glyph glyph-name="OE" unicode="&#x152;" horiz-adv-x="2048" 
d="M127 690q0 188 57 326.5t153 229t221 135t261 44.5q156 0 275 -54.5t213 -170.5q0 39 -0.5 67t-1 50.5t-2 42.5t-3.5 45q100 -8 197.5 -10t194.5 -2q75 0 148.5 2t152.5 10q-3 -20 -5.5 -35.5t-2.5 -38.5t2.5 -36t5.5 -27q-53 9 -109 14t-117 7t-127 2.5t-139 0.5
q0 -30 -0.5 -74t-0.5 -105t-0.5 -141.5t-0.5 -183.5q45 0 101 0.5t116 2t119 5.5t109 11q-4 -16 -6.5 -31.5t-2.5 -34.5q0 -14 2 -30t7 -37q-51 4 -107 6.5t-113.5 4t-114.5 1.5h-110q-1 -94 -1 -173.5t0.5 -150t1.5 -134.5t3 -126q19 0 70.5 -1t121.5 0.5t151.5 6.5
t160.5 17q-5 -17 -6.5 -35t-1.5 -43q2 -20 3.5 -32.5t4.5 -24.5q-36 4 -70.5 6t-73.5 3.5t-86 2t-108 0.5h-94.5t-89.5 -1.5t-89 -4t-93 -6.5q3 42 3.5 101.5t0.5 115.5q-46 -66 -103 -113t-122 -77t-138 -44t-151 -14q-135 0 -255.5 46.5t-212 138.5t-145 229t-53.5 317z
M354 694q0 -71 10.5 -146t33 -146t58.5 -135t87.5 -112t120 -76t155.5 -28q96 0 169.5 27t127.5 74t90.5 110.5t59 137.5t32 154t9.5 161q0 78 -10.5 154.5t-33.5 145t-59.5 127t-89.5 101t-123 66.5t-160 24q-121 0 -210.5 -53.5t-149 -142.5t-88.5 -204t-29 -239z" />
    <glyph glyph-name="oe" unicode="&#x153;" horiz-adv-x="1935" 
d="M1796 217q-3 -15 -5 -26.5t-3.5 -24t-3.5 -28.5t-4 -40q-63 -66 -160.5 -100.5t-218.5 -34.5q-74 0 -131.5 13t-103.5 37t-82.5 58t-67.5 76q-40 -54 -90 -89.5t-104.5 -57t-110.5 -30.5t-109 -9q-114 0 -207 36.5t-159 103t-102 159.5t-36 207q0 108 31 204.5t95.5 169
t163 114.5t233.5 42q121 0 222 -41t181 -129q73 92 161 130t197 38q127 0 214 -35t141 -100.5t78 -160t24 -212.5h-727q0 -105 25.5 -185t71 -134t108 -81.5t135.5 -27.5q70 0 123 19t92.5 45.5t66.5 55t44 48.5zM608 43q49 0 105 22t104 73.5t79.5 136t31.5 210.5
q0 36 -4.5 82.5t-16.5 94t-33.5 93t-56 81.5t-83.5 57.5t-116 21.5q-78 0 -131 -27.5t-87.5 -70.5t-53.5 -94.5t-27.5 -99.5t-10 -85.5t-1.5 -52.5q0 -132 30 -217.5t75 -135.5t98 -69.5t98 -19.5zM1632 573q0 28 -2.5 70.5t-17.5 97.5q-16 59 -45.5 93.5t-62 52t-63 22
t-48.5 4.5q-73 0 -124.5 -29.5t-84.5 -77.5t-49.5 -109t-20.5 -124h518z" />
    <glyph glyph-name="Scaron" unicode="&#x160;" horiz-adv-x="1139" 
d="M868 1147q-10 29 -29 62.5t-52 62t-83 47t-120 18.5q-84 0 -135.5 -26.5t-79.5 -64t-37.5 -77.5t-9.5 -67q0 -61 22.5 -103t58 -71.5t77.5 -49t81 -34.5q56 -21 97.5 -37.5t72.5 -29t53.5 -23.5t41 -21.5t35 -22t34.5 -26.5q35 -29 57.5 -62.5t35 -68t17.5 -68.5t5 -63
q0 -53 -13 -107.5t-39.5 -105.5t-68 -95.5t-98.5 -77.5t-130.5 -52t-164.5 -19q-103 0 -198 26.5t-175 86.5q23 78 29 125t8 67h26q22 -46 56 -85t77.5 -67.5t96 -44.5t112.5 -16q81 0 138 24t94 63t54 88t17 98q0 62 -20.5 106t-55 76.5t-80.5 55.5t-97 44q-90 38 -144 61
t-86.5 38.5t-51.5 29t-40 31.5q-26 21 -45.5 50.5t-32 63t-18.5 69.5t-6 71q0 99 37 173.5t99.5 124t145 74.5t172.5 25q60 0 115 -10t100.5 -24.5t80 -31t52.5 -28.5q-6 -12 -15 -32t-18 -44.5t-16.5 -52t-9.5 -53.5h-29zM627 1489h-115l-252 342h70l239 -215l240 215h68z
" />
    <glyph glyph-name="scaron" unicode="&#x161;" horiz-adv-x="909" 
d="M682 758q-3 11 -7.5 26t-13 31.5t-23 33.5t-36.5 32q-16 11 -34 18t-36 10.5t-34.5 4.5t-28.5 1q-94 0 -142 -43.5t-48 -109.5q0 -45 20 -76t49 -52t62.5 -33t60.5 -19q68 -18 128 -36.5t105 -49.5t71 -79.5t26 -125.5q0 -59 -21.5 -117.5t-68.5 -106t-122 -77
t-181 -29.5q-62 0 -114 11t-91.5 26t-64.5 29t-34 20q10 18 18 42.5t14 48t10 43.5l6 30l24 6q5 -13 12.5 -29.5t20 -34.5t31 -36t47.5 -35q38 -23 76.5 -31t72.5 -8q40 0 77.5 10t66 30.5t46 52t17.5 75.5t-14.5 72t-47.5 50t-87.5 41.5t-135.5 45.5q-33 11 -73.5 29.5
t-76 50t-59.5 78t-24 114.5q0 44 15.5 97t55.5 99.5t108.5 77.5t174.5 31q53 0 95.5 -7t75.5 -17.5t57.5 -22t42.5 -20.5q-16 -40 -26 -80t-15 -92h-27zM512 1124h-115l-252 342h70l240 -215l239 215h68z" />
    <glyph glyph-name="Utilde" unicode="&#x168;" horiz-adv-x="1593" 
d="M201 559v236.5t-0.5 171.5t-1.5 127t-3 102t-5 97.5t-7 113.5q32 -5 62.5 -8.5t58.5 -3.5q34 0 63.5 3.5t55.5 8.5q-4 -67 -7.5 -142t-5.5 -149t-3 -143.5t-1.5 -124.5t-0.5 -92.5v-48.5q0 -97 2.5 -173.5t11.5 -137t27 -107.5t49 -84q24 -31 60 -55.5t79.5 -42
t91.5 -26.5t96 -9q15 0 45.5 2t70 11.5t83 28.5t83.5 52t72.5 83t49.5 122q12 52 19 117t10.5 126.5t4.5 110t1 68.5q0 19 -1 63t-2.5 101t-3.5 122t-5.5 127t-7.5 115t-9 86q20 -5 40.5 -8.5t55.5 -3.5q34 0 53 3.5t37 8.5q-20 -140 -27.5 -318t-7.5 -405q0 -75 -3.5 -152
t-18.5 -150.5t-44.5 -139.5t-80.5 -119q-32 -34 -73.5 -63.5t-96.5 -51.5t-124 -34.5t-157 -12.5q-59 0 -126.5 8.5t-134.5 31.5t-128.5 63t-109.5 104q-29 38 -46 79t-26 88.5t-11.5 102.5t-2.5 121zM536 1540q8 47 28.5 84t49.5 63t64 40t71 14q16 0 28.5 -2t29.5 -8
t43 -18t69 -32q24 -11 39.5 -17.5t27 -10t21.5 -5t23 -1.5q24 0 42.5 9.5t32 24t23 32.5t16.5 36h60q-5 -25 -20 -60.5t-41 -68.5t-64 -56.5t-90 -23.5q-26 0 -54.5 6t-62.5 23l-72 35q-27 14 -49 22t-47 8q-7 0 -22 -2t-32 -11t-33 -28t-25 -53h-56z" />
    <glyph glyph-name="utilde" unicode="&#x169;" horiz-adv-x="1251" 
d="M594 98q48 0 87 13t68 34t49.5 46.5t32.5 50.5q14 27 21.5 56.5t11 58t4 54.5t0.5 48q0 33 -0.5 77t-1 92.5t-1.5 100t-2.5 99t-3 89.5t-3.5 72q23 -5 51 -8.5t60 -3.5q34 0 56 3.5t44 8.5q-3 -45 -6.5 -102.5t-6.5 -124t-5 -140.5t-2 -153q0 -114 0.5 -188.5t2 -125.5
t4 -88t5.5 -77q-26 5 -48 8.5t-53 3.5q-27 0 -47.5 -3t-48.5 -9q2 22 3.5 38t2.5 35.5t1.5 47.5t2.5 73q-38 -70 -84.5 -112t-92.5 -64.5t-87.5 -29.5t-70.5 -7q-80 0 -137.5 18.5t-97 49t-63 69t-35.5 78t-16 77t-4 65.5q0 15 1 48.5t2 76t2.5 90t2.5 91t2 78t1 52.5
q0 28 -1 61t-2 64t-3 57.5t-3 42.5q23 -6 47 -9t58 -3q32 0 55.5 3t46.5 9q-5 -56 -8 -115t-5.5 -115.5t-3.5 -108t-1 -93.5q0 -91 3.5 -174t24 -146.5t65 -101t126.5 -37.5zM335 1176q7 46 28 83.5t50 63t64 39.5t71 14q16 0 28.5 -2t29.5 -8t43 -17.5t69 -31.5
q24 -11 39 -18t26.5 -10.5t21.5 -5t23 -1.5q25 0 43.5 9.5t32 24t23 32.5t16.5 36h59q-5 -24 -19.5 -59.5t-40.5 -68.5t-64.5 -56.5t-90.5 -23.5q-26 0 -54 5.5t-62 22.5l-72 35q-28 14 -49.5 22.5t-46.5 8.5q-7 0 -22 -2t-32 -11t-33.5 -28t-25.5 -53h-55z" />
    <glyph glyph-name="Ydieresis" unicode="&#x178;" horiz-adv-x="1251" 
d="M743 465q0 -19 0.5 -50.5t1 -70.5t2 -84t3 -91.5t3.5 -92.5t5 -86q-31 9 -57 10.5t-46 1.5q-46 0 -73 -2t-50 -10q4 42 7 79.5t4.5 74.5t2 77.5t0.5 90t-0.5 110.5t-0.5 139q-85 144 -147.5 248.5t-108 181t-79 132t-61.5 101.5t-54 88.5t-58 94.5q40 -9 77.5 -10.5
t53.5 -1.5q54 0 91 4.5t52 7.5q63 -160 136 -294.5t139 -248.5q16 -29 32.5 -56.5t30.5 -49.5t25 -35.5t16 -13.5q4 0 15.5 16t24.5 37t25 42t17 30q81 139 152 281t133 292q23 -8 47 -10t49 -2q29 0 48 3t44 9q-20 -28 -56 -83t-79.5 -124t-92 -146.5t-93 -151
t-81.5 -136.5t-59 -104q-14 -25 -22.5 -45.5t-16.5 -38.5q-2 -23 -2 -52v-61zM752 1624q0 19 7.5 36t20.5 30t30 20.5t36 7.5q20 0 37.5 -7.5t30.5 -20.5t20.5 -30t7.5 -36q0 -40 -28 -68t-68 -28q-19 0 -36 7.5t-30 20t-20.5 30t-7.5 38.5zM350 1624q0 19 7.5 36t20.5 30
t30 20.5t36 7.5q20 0 38 -7.5t31 -20.5t20.5 -30t7.5 -36q0 -40 -28 -68t-69 -28q-19 0 -36 7.5t-30 20t-20.5 30t-7.5 38.5z" />
    <glyph glyph-name="Zcaron" unicode="&#x17d;" horiz-adv-x="1251" 
d="M10 25q6 7 23.5 28.5t37 47t36.5 48.5t24 33q45 62 103 144t124 175.5t136.5 195.5t140.5 205t137 202t125 188q-114 0 -228 -1t-220 -4t-198 -9.5t-161 -17.5q3 15 5.5 34.5t2.5 42.5q0 26 -1.5 41t-6.5 29q67 -5 126.5 -7t125.5 -3.5t145.5 -1.5h186.5q204 0 340.5 3
t193.5 9v-31q-134 -183 -251 -347.5t-215 -304t-175 -251.5t-130.5 -191.5t-82 -123.5t-28.5 -47q0 -5 5 -6t7 -1q170 0 386.5 4t479.5 27q-3 -11 -5.5 -26t-2.5 -41q0 -17 1 -36t7 -42q-12 1 -62 2.5t-121 3t-153.5 2.5t-159 2t-138 1.5t-89.5 0.5q-118 0 -235.5 -2
t-235.5 -10v35zM684 1489h-115l-252 342h70l240 -215l239 215h68z" />
    <glyph glyph-name="zcaron" unicode="&#x17e;" 
d="M41 43q88 108 174.5 216.5t171.5 217.5q12 15 35 46.5t51.5 70.5t60 81.5t59.5 80.5t50.5 68t32.5 44q-18 1 -34 2.5t-32.5 2t-34.5 1t-40 0.5q-7 0 -32 -0.5t-61.5 -1.5t-80 -2.5t-88 -5t-86.5 -8.5t-74 -12q3 18 5.5 33.5t2.5 35.5q0 23 -2.5 40t-5.5 32q32 -5 61.5 -8
t56.5 -6q32 -4 62.5 -6.5t62 -4t64 -2t69.5 -0.5q121 0 241 2.5t241 10.5v-37q-22 -22 -39 -40.5t-39 -44t-53 -64t-79.5 -100t-118.5 -152.5t-171 -222q-8 -11 -26.5 -34.5t-40 -54t-42.5 -64t-36 -64.5h121t152.5 2.5t174 8t184.5 16.5q-3 -14 -5.5 -27t-2.5 -28
q0 -17 2.5 -36.5t5.5 -39.5q-18 1 -63.5 3.5t-109 4t-140 3t-156.5 1.5q-152 0 -267 -3t-181 -9v53zM569 1124h-114l-252 342h69l240 -215l240 215h67z" />
    <glyph glyph-name="florin" unicode="&#x192;" 
d="M877 1214q-14 17 -37.5 32.5t-55.5 15.5q-24 0 -41 -7t-29 -19.5t-20.5 -29t-15.5 -35.5q-10 -28 -19 -68.5t-16 -83.5t-12.5 -84.5t-9.5 -72.5q54 0 107.5 2t107.5 8q-4 -17 -6.5 -28t-3 -21t-0.5 -21t1 -28q-71 5 -129 5.5t-90 0.5q-13 -73 -29 -161.5t-35 -183
t-41.5 -190.5t-47 -183t-52 -161.5t-57.5 -125.5q-48 -84 -98 -131t-98 -70t-93 -29t-84 -8q8 18 13.5 35t9 38t5 49t1.5 69h21q17 -20 40 -30.5t48 -10.5q28 0 49 12t37 37.5t28 66t23 97.5q18 97 31 168.5t24.5 130.5t22.5 113t23.5 115t28 135.5t36.5 176.5l8 41
q-63 0 -120 -0.5t-95 -5.5q4 17 7 29.5t4 23t0.5 21t-1.5 24.5q56 -3 112 -6.5t111 -3.5q29 148 79.5 249.5t113.5 170.5q41 45 82 71t79 39t70.5 16t57.5 3q-10 -29 -16 -49.5t-9 -40t-3.5 -41.5t1.5 -53z" />
    <glyph glyph-name="Ohorn" unicode="&#x1a0;" horiz-adv-x="1921" 
d="M922 1425q130 0 246.5 -30.5t212.5 -90.5t166.5 -148.5t107.5 -203.5q43 30 74 72.5t43 98.5t1.5 127.5t-49.5 158.5q52 -14 87 -12.5t67 12.5q26 -129 19.5 -219.5t-36.5 -153t-78.5 -102.5t-105.5 -68q7 -35 11 -74t4 -79q0 -161 -55 -298.5t-157.5 -239t-249 -159
t-329.5 -57.5q-167 0 -308.5 50t-244 144t-160 229t-57.5 306q0 163 53 299t154 233t248.5 151t335.5 54zM365 690q0 -150 40 -269t112 -202t171 -127.5t217 -44.5q121 0 223 43.5t175 127t114 205.5t41 279q0 40 -4 89.5t-14 102t-27.5 105t-44.5 97.5q-42 70 -98.5 116
t-119 74t-125 39.5t-114.5 11.5q-102 0 -200 -36t-175 -114t-124 -200.5t-47 -296.5z" />
    <glyph glyph-name="ohorn" unicode="&#x1a1;" horiz-adv-x="1374" 
d="M618 997q126 0 219 -33.5t157.5 -89.5t101.5 -129t51 -153q40 24 69.5 58.5t40.5 82.5t1.5 111t-46.5 145q52 -14 87 -12.5t67 12.5q17 -85 19 -150t-8.5 -114.5t-32 -85.5t-51 -62t-65 -44.5t-73.5 -32.5v-8q0 -122 -40 -220.5t-111.5 -167.5t-170 -106t-215.5 -37
q-54 0 -113.5 9t-117.5 32t-110.5 60.5t-92 95.5t-63 137t-23.5 184q0 120 38 216t107 163t164.5 103t210.5 36zM631 915q-81 0 -136.5 -27.5t-91.5 -70t-55.5 -94t-28.5 -99.5t-10.5 -86t-1.5 -53q0 -107 22.5 -189t63.5 -138.5t99 -85.5t129 -29q73 0 133 31t103 88
t66 138.5t23 182.5q0 40 -5 87.5t-17.5 95.5t-35 93t-57.5 79.5t-84.5 55.5t-115.5 21z" />
    <glyph glyph-name="Uhorn" unicode="&#x1af;" horiz-adv-x="1706" 
d="M201 559v236.5t-0.5 171.5t-1.5 127t-3 102t-5 97.5t-7 113.5q32 -5 62.5 -8.5t58.5 -3.5q34 0 63.5 3.5t55.5 8.5q-4 -67 -7.5 -142t-5.5 -149t-3 -143.5t-1.5 -124.5t-0.5 -92.5v-48.5q0 -97 2.5 -173.5t11.5 -137t27 -107.5t49 -84q24 -31 60 -55.5t79.5 -42
t91.5 -26.5t96 -9q15 0 45.5 2t70 11.5t83 28.5t83.5 52t72.5 83t49.5 122q12 52 19 117t10.5 126.5t4.5 110t1 68.5q0 19 -1 63t-2.5 101t-3.5 122t-5.5 127t-7.5 115t-9 86q20 -5 40.5 -8.5t55.5 -3.5q34 0 53 3.5t37 8.5q-15 -103 -22 -225t-11 -271q60 24 108 65.5
t72.5 102.5t19 143t-53.5 187q52 -14 86.5 -12.5t67.5 12.5q21 -104 20.5 -182.5t-18 -137.5t-49 -101t-72.5 -72t-88 -51.5t-95 -39.5v-141q0 -75 -3.5 -152t-18.5 -150.5t-44.5 -139.5t-80.5 -119q-32 -34 -73.5 -63.5t-96.5 -51.5t-124 -34.5t-157 -12.5
q-59 0 -126.5 8.5t-134.5 31.5t-128.5 63t-109.5 104q-29 38 -46 79t-26 88.5t-11.5 102.5t-2.5 121z" />
    <glyph glyph-name="uhorn" unicode="&#x1b0;" horiz-adv-x="1343" 
d="M594 98q48 0 87 13t68 34t49.5 46.5t32.5 50.5q14 27 21.5 56.5t11 58t4 54.5t0.5 48q0 33 -0.5 77t-1 92.5t-1.5 100t-2.5 99t-3 89.5t-3.5 72q23 -5 51 -8.5t60 -3.5q34 0 56 3.5t44 8.5q-6 -75 -11.5 -182t-8.5 -234q49 23 87 56.5t55 83t10 117t-48 159.5
q52 -14 87 -12.5t67 12.5q19 -93 19 -162.5t-14 -121t-40.5 -87t-61.5 -61t-76.5 -43t-84.5 -31.5v-14q0 -114 0.5 -188.5t2 -125.5t4 -88t5.5 -77q-26 5 -48 8.5t-53 3.5q-27 0 -47.5 -3t-48.5 -9q2 22 3.5 38t2.5 35.5t1.5 47.5t2.5 73q-38 -70 -84.5 -112t-92.5 -64.5
t-87.5 -29.5t-70.5 -7q-80 0 -137.5 18.5t-97 49t-63 69t-35.5 78t-16 77t-4 65.5q0 15 1 48.5t2 76t2.5 90t2.5 91t2 78t1 52.5q0 28 -1 61t-2 64t-3 57.5t-3 42.5q23 -6 47 -9t58 -3q32 0 55.5 3t46.5 9q-5 -56 -8 -115t-5.5 -115.5t-3.5 -108t-1 -93.5q0 -91 3.5 -174
t24 -146.5t65 -101t126.5 -37.5z" />
    <glyph glyph-name="uni01E2" unicode="&#x1e2;" horiz-adv-x="2028" 
d="M606 510q-18 0 -45.5 -0.5t-75.5 -3.5q-109 -161 -175 -293.5t-101 -222.5q-20 4 -41.5 8t-61.5 4q-20 0 -34.5 -1t-26 -2.5t-22.5 -3.5t-23 -5q8 12 25 35.5t37.5 53t43.5 62t43.5 61.5t36.5 52.5t23 34.5q39 60 85.5 131.5t95.5 148.5t100 156.5t100.5 156.5t95 148.5
t84.5 132.5q36 55 60.5 94t41 66.5t28 47t20.5 36.5q42 -3 79 -5.5t82.5 -4t105.5 -2t148 -0.5q56 0 112.5 1t106 2.5t89 4t61.5 4.5q-3 -14 -5.5 -27.5t-2.5 -38.5q0 -26 2.5 -41t5.5 -30q-113 17 -226 21.5t-223 4.5q-21 0 -45 -1t-43 -1q-2 -34 -3.5 -67t-2.5 -69.5
t-1.5 -77.5t-0.5 -91q0 -51 2 -100.5t2 -100.5q55 -6 117 -6q91 0 184 6t187 17q-3 -16 -6 -30.5t-3 -39.5t3 -39.5t6 -29.5q-42 6 -98.5 10.5t-120.5 7.5t-133 3.5t-136 -1.5q0 -74 -2 -146t-2 -147q0 -145 12 -293q74 0 209.5 3t335.5 22q-3 -17 -5.5 -30.5t-2.5 -35.5
q0 -24 2.5 -39t5.5 -30q-48 5 -107.5 7.5t-122.5 3.5t-127 1h-122q-60 0 -133.5 -2t-151.5 -10q3 47 5.5 114t4 140t2.5 143t1 123h-359zM547 610q45 -2 84 -2.5t85 -1t104.5 -0.5h144.5q0 25 0.5 60t1.5 71.5t1.5 71.5t0.5 59v71.5t-0.5 83t-2 83.5t-3.5 74
q-2 26 -4.5 42.5t-10.5 16.5t-13.5 -8t-10.5 -14zM891 1700h545v-103h-545v103z" />
    <glyph glyph-name="uni01E3" unicode="&#x1e3;" horiz-adv-x="1815" 
d="M885 487q-3 -115 25 -196t75.5 -132t108.5 -74.5t123 -23.5q72 0 127.5 21t95.5 49t65 56.5t37 43.5l21 -6q-4 -16 -6.5 -27.5t-4 -25t-2.5 -32t-2 -48.5q-55 -41 -109 -66t-103 -38.5t-91.5 -18t-75.5 -4.5q-65 0 -126 13t-114 40.5t-97 70t-74 101.5q-12 -22 -36.5 -60
t-67 -74.5t-105.5 -63.5t-152 -27q-71 0 -127 20t-94 56t-58 86.5t-20 112.5q0 85 32.5 137t85.5 83.5t119 47.5t134 29q48 9 76 14.5t45.5 8.5t27 5.5t19.5 5.5q29 10 44 17.5t28 13.5q1 15 1.5 36t-2.5 45.5t-11 52t-23 55.5q-18 32 -43.5 52t-53 31t-54 15t-46.5 4
q-51 0 -99 -16.5t-83 -45.5q-34 -27 -49.5 -53.5t-24.5 -48.5l-49 4q2 20 5 58.5t3 80.5q12 11 40 32t71.5 42t104.5 37t139 16q67 0 114.5 -12t81 -31t56.5 -43t42 -47q13 13 38 35.5t64.5 44t96.5 37.5t135 16q119 0 202.5 -37t136 -104.5t76.5 -161.5t24 -209h-717z
M1399 573q0 29 -2.5 65.5t-10.5 74.5t-23.5 74t-42.5 64.5t-67 46t-96 17.5q-69 0 -120 -28.5t-85 -76t-50.5 -109.5t-16.5 -128h514zM705 500q-8 -2 -26.5 -5t-42 -7.5t-49 -9.5t-49.5 -9.5t-43 -9t-28 -6.5q-32 -10 -61.5 -23.5t-53 -36t-37.5 -55.5t-14 -82
q0 -51 16.5 -85.5t43 -55t58.5 -29t64 -8.5q56 0 98 22.5t70 57.5q19 24 29.5 47.5t15.5 50.5t6.5 58t2.5 69v117zM594 1311h545v-103h-545v103z" />
    <glyph glyph-name="AEacute" unicode="&#x1fc;" horiz-adv-x="2028" 
d="M606 510q-18 0 -45.5 -0.5t-75.5 -3.5q-109 -161 -175 -293.5t-101 -222.5q-20 4 -41.5 8t-61.5 4q-20 0 -34.5 -1t-26 -2.5t-22.5 -3.5t-23 -5q8 12 25 35.5t37.5 53t43.5 62t43.5 61.5t36.5 52.5t23 34.5q39 60 85.5 131.5t95.5 148.5t100 156.5t100.5 156.5t95 148.5
t84.5 132.5q36 55 60.5 94t41 66.5t28 47t20.5 36.5q42 -3 79 -5.5t82.5 -4t105.5 -2t148 -0.5q56 0 112.5 1t106 2.5t89 4t61.5 4.5q-3 -14 -5.5 -27.5t-2.5 -38.5q0 -26 2.5 -41t5.5 -30q-113 17 -226 21.5t-223 4.5q-21 0 -45 -1t-43 -1q-2 -34 -3.5 -67t-2.5 -69.5
t-1.5 -77.5t-0.5 -91q0 -51 2 -100.5t2 -100.5q55 -6 117 -6q91 0 184 6t187 17q-3 -16 -6 -30.5t-3 -39.5t3 -39.5t6 -29.5q-42 6 -98.5 10.5t-120.5 7.5t-133 3.5t-136 -1.5q0 -74 -2 -146t-2 -147q0 -145 12 -293q74 0 209.5 3t335.5 22q-3 -17 -5.5 -30.5t-2.5 -35.5
q0 -24 2.5 -39t5.5 -30q-48 5 -107.5 7.5t-122.5 3.5t-127 1h-122q-60 0 -133.5 -2t-151.5 -10q3 47 5.5 114t4 140t2.5 143t1 123h-359zM547 610q45 -2 84 -2.5t85 -1t104.5 -0.5h144.5q0 25 0.5 60t1.5 71.5t1.5 71.5t0.5 59v71.5t-0.5 83t-2 83.5t-3.5 74
q-2 26 -4.5 42.5t-10.5 16.5t-13.5 -8t-10.5 -14zM1234 1513l275 273q24 24 39 38.5t26 22t20 10t21 2.5q28 0 49 -21t21 -50q0 -37 -39 -62l-340 -213h-72z" />
    <glyph glyph-name="aeacute" unicode="&#x1fd;" horiz-adv-x="1815" 
d="M885 487q-3 -115 25 -196t75.5 -132t108.5 -74.5t123 -23.5q72 0 127.5 21t95.5 49t65 56.5t37 43.5l21 -6q-4 -16 -6.5 -27.5t-4 -25t-2.5 -32t-2 -48.5q-55 -41 -109 -66t-103 -38.5t-91.5 -18t-75.5 -4.5q-65 0 -126 13t-114 40.5t-97 70t-74 101.5q-12 -22 -36.5 -60
t-67 -74.5t-105.5 -63.5t-152 -27q-71 0 -127 20t-94 56t-58 86.5t-20 112.5q0 85 32.5 137t85.5 83.5t119 47.5t134 29q48 9 76 14.5t45.5 8.5t27 5.5t19.5 5.5q29 10 44 17.5t28 13.5q1 15 1.5 36t-2.5 45.5t-11 52t-23 55.5q-18 32 -43.5 52t-53 31t-54 15t-46.5 4
q-51 0 -99 -16.5t-83 -45.5q-34 -27 -49.5 -53.5t-24.5 -48.5l-49 4q2 20 5 58.5t3 80.5q12 11 40 32t71.5 42t104.5 37t139 16q67 0 114.5 -12t81 -31t56.5 -43t42 -47q13 13 38 35.5t64.5 44t96.5 37.5t135 16q119 0 202.5 -37t136 -104.5t76.5 -161.5t24 -209h-717z
M1399 573q0 29 -2.5 65.5t-10.5 74.5t-23.5 74t-42.5 64.5t-67 46t-96 17.5q-69 0 -120 -28.5t-85 -76t-50.5 -109.5t-16.5 -128h514zM705 500q-8 -2 -26.5 -5t-42 -7.5t-49 -9.5t-49.5 -9.5t-43 -9t-28 -6.5q-32 -10 -61.5 -23.5t-53 -36t-37.5 -55.5t-14 -82
q0 -51 16.5 -85.5t43 -55t58.5 -29t64 -8.5q56 0 98 22.5t70 57.5q19 24 29.5 47.5t15.5 50.5t6.5 58t2.5 69v117zM1087 1124l275 273q24 24 39 38.5t26 22t20 10t21 2.5q28 0 49 -21t21 -50q0 -37 -39 -62l-340 -213h-72z" />
    <glyph glyph-name="hookabovecombHOA" unicode="&#x2bc;" horiz-adv-x="0" 
d="M65 1779q-1 13 -2 22t-3 18t-5.5 19.5t-7.5 25.5q25 31 64.5 51.5t85 29.5t92 4.5t84 -24t61 -54.5t23.5 -88q0 -48 -22 -75t-54 -44t-68 -30t-65 -32t-44 -50t-5 -85q-6 2 -11 2.5t-10 -4.5q-23 54 -20.5 92t19 65.5t43 47t52.5 36t46.5 32t25.5 36.5q10 40 -5 67.5
t-42.5 42.5t-62.5 16t-65 -12t-50 -41.5t-18 -72.5z" />
    <glyph glyph-name="circumflex" unicode="&#x2c6;" horiz-adv-x="569" 
d="M227 1466h115l250 -342h-68l-239 215l-240 -215h-70z" />
    <glyph glyph-name="caron" unicode="&#x2c7;" horiz-adv-x="569" 
d="M342 1124h-115l-252 342h70l240 -215l239 215h68z" />
    <glyph glyph-name="uni02C9" unicode="&#x2c9;" horiz-adv-x="569" 
d="M12 1311h545v-103h-545v103z" />
    <glyph glyph-name="breve" unicode="&#x2d8;" horiz-adv-x="569" 
d="M55 1442q8 -51 28.5 -89t51 -63.5t69 -38t83.5 -12.5q46 0 80.5 11.5t58.5 30t39.5 41.5t25 45.5t14 42.5t7.5 32h57q-5 -72 -25.5 -130.5t-57 -100t-89 -64.5t-121.5 -23q-22 0 -51.5 4.5t-60.5 17t-60.5 34.5t-53 57.5t-37.5 85.5t-13 119h55z" />
    <glyph glyph-name="dotaccent" unicode="&#x2d9;" horiz-adv-x="569" 
d="M184 1278q0 21 8 39t21.5 31.5t32 21.5t39.5 8q20 0 37.5 -7.5t31 -21t21.5 -32t8 -39.5q0 -20 -8 -37.5t-21.5 -31t-31 -21.5t-37.5 -8q-44 0 -72.5 29t-28.5 69z" />
    <glyph glyph-name="ring" unicode="&#x2da;" horiz-adv-x="569" 
d="M285 1090q-39 0 -73.5 14.5t-60 40t-40.5 60t-15 73.5q0 38 15 72t40.5 59.5t60 40t73.5 14.5q38 0 72 -14.5t59.5 -40t40 -59.5t14.5 -72q0 -39 -14.5 -73.5t-40 -60t-59.5 -40t-72 -14.5zM285 1145q27 0 51 10.5t42 28.5t28 42t10 52q0 27 -10 51t-28 41.5t-42.5 28
t-52.5 10.5t-52 -10.5t-41.5 -28t-27.5 -41.5t-10 -51q0 -28 10 -52t28 -42t42 -28.5t53 -10.5z" />
    <glyph glyph-name="ogonek" unicode="&#x2db;" horiz-adv-x="569" 
d="M465 -2q-93 -65 -142 -117.5t-49 -107.5q0 -21 8.5 -40.5t24.5 -35t39 -24.5t51 -9q42 0 75 17.5t54 37.5l33 -43q-21 -18 -46 -37.5t-54.5 -36t-63.5 -27.5t-73 -11t-70.5 12t-54 33t-35 49.5t-12.5 60.5q0 48 23.5 90t59 76.5t76 63t74.5 49.5h82z" />
    <glyph glyph-name="tilde" unicode="&#x2dc;" horiz-adv-x="569" 
d="M151 1176q7 46 28 83.5t50 63t64 39.5t71 14q16 0 28.5 -2t29.5 -8t43 -17.5t69 -31.5q24 -11 39 -18t26.5 -10.5t21.5 -5t23 -1.5q25 0 43.5 9.5t32 24t23 32.5t16.5 36h59q-5 -24 -19.5 -59.5t-40.5 -68.5t-64.5 -56.5t-90.5 -23.5q-26 0 -54 5.5t-62 22.5l-72 35
q-28 14 -49.5 22.5t-46.5 8.5q-7 0 -22 -2t-32 -11t-33.5 -28t-25.5 -53h-55z" />
    <glyph glyph-name="hungarumlaut" unicode="&#x2dd;" horiz-adv-x="569" 
d="M100 1112l199 301q12 20 31 36.5t47 16.5t45.5 -18t17.5 -43q0 -19 -10.5 -37.5t-36.5 -40.5l-243 -215h-50zM342 1112l199 301q11 19 30.5 36t46.5 17q28 0 46 -18t18 -43q0 -20 -11 -38t-36 -40l-244 -215h-49z" />
    <glyph glyph-name="gravecomb" unicode="&#x300;" horiz-adv-x="0" 
d="M186 1489l-342 213q-25 15 -31 32t-6 29q0 15 5.5 28t15.5 22.5t22.5 15.5t26.5 6q11 0 19.5 -2.5t19 -10t26 -22t39.5 -39.5l277 -272h-72z" />
    <glyph glyph-name="acutecomb" unicode="&#x301;" horiz-adv-x="0" 
d="M-1 1489l274 272q24 25 39.5 39.5t26 22t19.5 10t21 2.5q14 0 26.5 -6t22.5 -15.5t15.5 -22.5t5.5 -28q0 -38 -39 -61l-340 -213h-71z" />
    <glyph glyph-name="tildecomb" unicode="&#x303;" 
d="M-84 1540q8 47 28.5 84t49.5 63t64 40t71 14q16 0 28.5 -2t29.5 -8t43 -18t69 -32q24 -11 39.5 -17.5t27 -10t21.5 -5t23 -1.5q24 0 42.5 9.5t32 24t23 32.5t16.5 36h60q-5 -25 -20 -60.5t-41 -68.5t-64 -56.5t-90 -23.5q-26 0 -54.5 6t-62.5 23l-72 35q-27 14 -49 22
t-47 8q-7 0 -22 -2t-32 -11t-33 -28t-25 -53h-56z" />
    <glyph glyph-name="hookabovecomb" unicode="&#x309;" horiz-adv-x="0" 
d="M-114 1387q-1 13 -2 22t-3 18t-5.5 19.5t-7.5 25.5q24 31 64 51.5t85.5 29.5t92 4.5t84 -24t61 -54.5t23.5 -88q0 -48 -22 -75t-54 -44t-68 -30t-65 -32t-44 -50t-5 -85q-6 2 -11 2.5t-10 -4.5q-22 54 -20 92t18.5 65.5t43 47t52.5 36t46.5 32t25.5 36.5q10 40 -5 67.5
t-42.5 42.5t-62.5 16t-65 -12t-50 -41.5t-18 -72.5z" />
    <glyph glyph-name="dotbelowcomb" unicode="&#x323;" horiz-adv-x="0" 
d="M-74 -320q0 21 8 39t21.5 31.5t32 21.5t39.5 8q20 0 37.5 -7.5t31 -21t21.5 -32t8 -39.5q0 -20 -8 -37.5t-21.5 -31t-31 -21.5t-37.5 -8q-44 0 -72.5 29t-28.5 69z" />
    <glyph glyph-name="uni03A9" unicode="&#x3a9;" horiz-adv-x="1339" 
d="M1231 0h-440l-15 35q30 68 69.5 151.5t75.5 177t60.5 194.5t24.5 204q-1 157 -29.5 265t-75.5 175t-108 97t-125 30q-70 0 -131 -29t-106 -96.5t-71 -177.5t-26 -272q0 -100 21.5 -196.5t55 -187.5t73 -174.5t75.5 -158.5l-16 -37h-439l-43 287l52 2q15 -47 28.5 -75.5
t30 -44.5t36.5 -21t48 -5h188q-29 28 -64 63t-70.5 78t-68.5 94.5t-58 111.5t-40.5 129.5t-15.5 148.5q0 144 42.5 259t116 196t173 124.5t213.5 43.5q116 0 214 -41.5t169.5 -120.5t112 -192t40.5 -257q0 -107 -31 -200t-79 -172t-105 -145t-108 -120h200q28 0 48 4.5
t35 20t27.5 44.5t27.5 77l53 -2z" />
    <glyph glyph-name="uni03BC" unicode="&#x3bc;" horiz-adv-x="1251" 
d="M594 98q48 0 87 13t68 34t49.5 46.5t32.5 50.5q14 27 21.5 56.5t11 58t4 54.5t0.5 48q0 33 -0.5 77t-1 92.5t-1.5 100t-2.5 99t-3 89.5t-3.5 72q23 -5 51 -8.5t60 -3.5q34 0 56 3.5t44 8.5q-3 -45 -6.5 -102.5t-6.5 -124t-5 -140.5t-2 -153q0 -114 0.5 -188.5t2 -125.5
t4 -88t5.5 -77q-26 5 -48 8.5t-53 3.5q-27 0 -47.5 -3t-48.5 -9q2 22 3.5 38t2.5 35.5t1.5 47.5t2.5 73q-38 -70 -84.5 -112t-92.5 -64.5t-87.5 -29.5t-70.5 -7q-48 0 -87 10.5t-67 30.5v-175t1 -144.5t3 -124.5t6 -115q-23 6 -46 9t-60 3q-38 0 -62 -3t-49 -9
q13 190 17 379.5t4 378.5v191.5t-1 202.5t-3.5 200t-6.5 184q23 -6 47 -9t58 -3q32 0 55.5 3t46.5 9q-5 -56 -8 -115t-5.5 -115.5t-3.5 -108t-1 -93.5q0 -91 3.5 -174t24 -146.5t65 -101t126.5 -37.5z" />
    <glyph glyph-name="pi" unicode="&#x3c0;" horiz-adv-x="1063" 
d="M1012 918q-5 -29 -12.5 -56.5t-16.5 -51t-18.5 -43t-18.5 -32.5q-23 -8 -56 -9t-71 -1q-4 -47 -5.5 -103.5t-2 -116t-0.5 -118.5v-111q0 -91 18.5 -135.5t61.5 -44.5q28 0 47.5 14t44.5 42l25 -41q-18 -33 -41 -58.5t-49 -42.5t-54 -26t-55 -9q-37 0 -68.5 11.5t-55 41
t-37 79t-13.5 126.5q0 69 1.5 133t4.5 125t6.5 120t7.5 118q-77 2 -148 3t-130 1v-33q0 -172 -15 -295.5t-35.5 -206.5t-41.5 -128t-33 -60q-26 -12 -60 -21.5t-59 -13.5l-12 35q53 71 87.5 164.5t54.5 193t28 196t8 173.5q-46 0 -79.5 -6t-60.5 -17t-51 -27t-51 -36l-28 47
q20 25 45.5 56t63 59t90 46.5t126.5 17.5q107 -2 234 -5.5t264 -3.5q23 0 39 3t28.5 10.5t22.5 20t21 32.5z" />
    <glyph glyph-name="uni1EA0" unicode="&#x1ea0;" horiz-adv-x="1366" 
d="M365 526q-15 -35 -37.5 -86.5t-48 -119t-53 -150.5t-52.5 -180q-18 3 -36.5 7.5t-47.5 4.5t-49.5 -4.5t-40.5 -7.5q45 99 99.5 218.5t112.5 248t117 261t114 258.5t103 240.5t85 206.5q12 -2 23 -4t28 -2q14 0 23.5 1.5t21.5 4.5q30 -81 72 -185t90.5 -219.5t100.5 -236
t102 -234.5t95 -214.5t79 -176.5t54 -121t21 -46q-26 5 -54 8.5t-66 3.5q-41 0 -71.5 -3.5t-59.5 -8.5q-27 92 -55.5 171.5t-56 146.5t-52 121.5t-43.5 96.5h-518zM621 1137l-215 -508h436zM564 -320q0 21 8 39t21.5 31.5t32 21.5t39.5 8q20 0 37.5 -7.5t31 -21t21.5 -32
t8 -39.5q0 -20 -8 -37.5t-21.5 -31t-31 -21.5t-37.5 -8q-44 0 -72.5 29t-28.5 69z" />
    <glyph glyph-name="uni1EA1" unicode="&#x1ea1;" 
d="M156 739l8 133q24 19 55 41t71.5 41t91.5 31t114 12q30 0 65 -3.5t71 -14t71.5 -28.5t66.5 -46q18 -17 33 -37.5t26.5 -47.5t18 -62t6.5 -82q0 -15 -0.5 -44.5t-1.5 -66t-2 -76.5t-2 -76t-1.5 -64.5t-0.5 -41.5q0 -68 1 -113.5t8.5 -73.5t22.5 -40t44 -12q18 0 30.5 3.5
t20.5 6.5l2 -58q-34 -17 -69 -31t-79 -14q-51 0 -94.5 32t-60.5 102q-24 -25 -53 -50.5t-66 -46.5t-84 -34t-107 -13q-79 0 -133 27t-87 67.5t-47.5 88.5t-14.5 90q0 81 30 132t78 82t109 47.5t123 30.5l178 39q43 11 59.5 33t16.5 66q0 52 -17 93.5t-47.5 70t-73 44
t-92.5 15.5q-64 0 -105.5 -17.5t-68 -42t-39.5 -50.5t-20 -42h-55zM670 502q-132 -20 -210 -45.5t-118 -56.5t-51.5 -67.5t-11.5 -78.5q0 -50 17 -83t43 -53t56.5 -28t57.5 -8q39 0 78 14.5t69.5 40.5t50 61.5t19.5 77.5v226zM490 -320q0 21 8 39t21.5 31.5t32 21.5t39.5 8
q20 0 37.5 -7.5t31 -21t21.5 -32t8 -39.5q0 -20 -8 -37.5t-21.5 -31t-31 -21.5t-37.5 -8q-44 0 -72.5 29t-28.5 69z" />
    <glyph glyph-name="uni1EA2" unicode="&#x1ea2;" horiz-adv-x="1366" 
d="M365 526q-15 -35 -37.5 -86.5t-48 -119t-53 -150.5t-52.5 -180q-18 3 -36.5 7.5t-47.5 4.5t-49.5 -4.5t-40.5 -7.5q45 99 99.5 218.5t112.5 248t117 261t114 258.5t103 240.5t85 206.5q12 -2 23 -4t28 -2q14 0 23.5 1.5t21.5 4.5q30 -81 72 -185t90.5 -219.5t100.5 -236
t102 -234.5t95 -214.5t79 -176.5t54 -121t21 -46q-26 5 -54 8.5t-66 3.5q-41 0 -71.5 -3.5t-59.5 -8.5q-27 92 -55.5 171.5t-56 146.5t-52 121.5t-43.5 96.5h-518zM621 1137l-215 -508h436zM546 1779q-1 13 -2 22t-3 18t-5.5 19.5t-7.5 25.5q24 31 64 51.5t85.5 29.5t92 4.5
t84 -24t61 -54.5t23.5 -88q0 -48 -22 -75t-54 -44t-68 -30t-65 -32t-44 -50t-5 -85q-6 2 -11 2.5t-10 -4.5q-23 54 -20.5 92t19 65.5t43 47t52.5 36t46.5 32t25.5 36.5q10 40 -5 67.5t-42.5 42.5t-62.5 16t-65 -12t-50 -41.5t-18 -72.5z" />
    <glyph glyph-name="uni1EA3" unicode="&#x1ea3;" 
d="M156 739l8 133q24 19 55 41t71.5 41t91.5 31t114 12q30 0 65 -3.5t71 -14t71.5 -28.5t66.5 -46q18 -17 33 -37.5t26.5 -47.5t18 -62t6.5 -82q0 -15 -0.5 -44.5t-1.5 -66t-2 -76.5t-2 -76t-1.5 -64.5t-0.5 -41.5q0 -68 1 -113.5t8.5 -73.5t22.5 -40t44 -12q18 0 30.5 3.5
t20.5 6.5l2 -58q-34 -17 -69 -31t-79 -14q-51 0 -94.5 32t-60.5 102q-24 -25 -53 -50.5t-66 -46.5t-84 -34t-107 -13q-79 0 -133 27t-87 67.5t-47.5 88.5t-14.5 90q0 81 30 132t78 82t109 47.5t123 30.5l178 39q43 11 59.5 33t16.5 66q0 52 -17 93.5t-47.5 70t-73 44
t-92.5 15.5q-64 0 -105.5 -17.5t-68 -42t-39.5 -50.5t-20 -42h-55zM670 502q-132 -20 -210 -45.5t-118 -56.5t-51.5 -67.5t-11.5 -78.5q0 -50 17 -83t43 -53t56.5 -28t57.5 -8q39 0 78 14.5t69.5 40.5t50 61.5t19.5 77.5v226zM361 1387q-1 13 -2 22t-3 18t-5.5 19.5
t-7.5 25.5q24 31 64 51.5t85.5 29.5t92 4.5t84 -24t61 -54.5t23.5 -88q0 -48 -22 -75t-54 -44t-68 -30t-65 -32t-44 -50t-5 -85q-6 2 -11 2.5t-10 -4.5q-23 54 -20.5 92t19 65.5t43 47t52.5 36t46.5 32t25.5 36.5q10 40 -5 67.5t-42.5 42.5t-62.5 16t-65 -12t-50 -41.5
t-18 -72.5z" />
    <glyph glyph-name="uni1EA4" unicode="&#x1ea4;" horiz-adv-x="1366" 
d="M365 526q-15 -35 -37.5 -86.5t-48 -119t-53 -150.5t-52.5 -180q-18 3 -36.5 7.5t-47.5 4.5t-49.5 -4.5t-40.5 -7.5q45 99 99.5 218.5t112.5 248t117 261t114 258.5t103 240.5t85 206.5q12 -2 23 -4t28 -2q14 0 23.5 1.5t21.5 4.5q30 -81 72 -185t90.5 -219.5t100.5 -236
t102 -234.5t95 -214.5t79 -176.5t54 -121t21 -46q-26 5 -54 8.5t-66 3.5q-41 0 -71.5 -3.5t-59.5 -8.5q-27 92 -55.5 171.5t-56 146.5t-52 121.5t-43.5 96.5h-518zM621 1137l-215 -508h436zM627 1831h114l250 -342h-67l-240 215l-240 -215h-69zM995 1664l274 272
q24 25 39.5 39.5t26 22t19.5 10t21 2.5q14 0 26.5 -6t22.5 -15.5t15.5 -22.5t5.5 -28q0 -38 -39 -61l-340 -213h-71z" />
    <glyph glyph-name="uni1EA5" unicode="&#x1ea5;" 
d="M211 739q7 16 20 42t39.5 50.5t68 42t105.5 17.5q50 0 92.5 -15.5t73 -44t47.5 -70t17 -93.5q0 -44 -16.5 -66t-59.5 -33l-178 -39q-62 -14 -123 -30.5t-109 -47.5t-78 -82t-30 -132q0 -42 14.5 -90t47.5 -88.5t87 -67.5t133 -27q60 0 107 13t84 34t66 46.5t53 50.5
q17 -70 60.5 -102t94.5 -32q44 0 79 14t69 31l-2 58q-8 -3 -20.5 -6.5t-30.5 -3.5q-29 0 -44 12t-22.5 40t-8.5 73.5t-1 113.5q0 13 0.5 41.5t1.5 64.5t2 76t2 76.5t1.5 66t0.5 44.5q0 47 -6.5 82t-18 62t-26.5 47.5t-33 37.5q-31 28 -66.5 46t-71.5 28.5t-71 14t-65 3.5
q-63 0 -114 -12t-91.5 -31t-71.5 -41t-55 -41l-8 -133h55zM670 276q0 -42 -19.5 -77.5t-50 -61.5t-69.5 -40.5t-78 -14.5q-27 0 -57.5 8t-56.5 28t-43 53t-17 83q0 42 11.5 78.5t51.5 67.5t118 56.5t210 45.5v-226zM203 1124h69l240 215l240 -215h67l-250 342h-114z
M657 1415l276 273q25 24 40 38.5t25.5 22t19 10t20.5 2.5q28 0 48.5 -21t20.5 -50q0 -13 -6 -29.5t-30 -32.5l-342 -213h-72z" />
    <glyph glyph-name="uni1EA6" unicode="&#x1ea6;" horiz-adv-x="1366" 
d="M365 526q-15 -35 -37.5 -86.5t-48 -119t-53 -150.5t-52.5 -180q-18 3 -36.5 7.5t-47.5 4.5t-49.5 -4.5t-40.5 -7.5q45 99 99.5 218.5t112.5 248t117 261t114 258.5t103 240.5t85 206.5q12 -2 23 -4t28 -2q14 0 23.5 1.5t21.5 4.5q30 -81 72 -185t90.5 -219.5t100.5 -236
t102 -234.5t95 -214.5t79 -176.5t54 -121t21 -46q-26 5 -54 8.5t-66 3.5q-41 0 -71.5 -3.5t-59.5 -8.5q-27 92 -55.5 171.5t-56 146.5t-52 121.5t-43.5 96.5h-518zM621 1137l-215 -508h436zM627 1831h114l250 -342h-67l-240 215l-240 -215h-69zM1155 1664l-342 213
q-25 15 -31 32t-6 29q0 15 5.5 28t15.5 22.5t22.5 15.5t26.5 6q11 0 19.5 -2.5t19 -10t26 -22t39.5 -39.5l277 -272h-72z" />
    <glyph glyph-name="uni1EA7" unicode="&#x1ea7;" 
d="M156 739l8 133q24 19 55 41t71.5 41t91.5 31t114 12q30 0 65 -3.5t71 -14t71.5 -28.5t66.5 -46q18 -17 33 -37.5t26.5 -47.5t18 -62t6.5 -82q0 -15 -0.5 -44.5t-1.5 -66t-2 -76.5t-2 -76t-1.5 -64.5t-0.5 -41.5q0 -68 1 -113.5t8.5 -73.5t22.5 -40t44 -12q18 0 30.5 3.5
t20.5 6.5l2 -58q-34 -17 -69 -31t-79 -14q-51 0 -94.5 32t-60.5 102q-24 -25 -53 -50.5t-66 -46.5t-84 -34t-107 -13q-79 0 -133 27t-87 67.5t-47.5 88.5t-14.5 90q0 81 30 132t78 82t109 47.5t123 30.5l178 39q43 11 59.5 33t16.5 66q0 52 -17 93.5t-47.5 70t-73 44
t-92.5 15.5q-64 0 -105.5 -17.5t-68 -42t-39.5 -50.5t-20 -42h-55zM670 502q-132 -20 -210 -45.5t-118 -56.5t-51.5 -67.5t-11.5 -78.5q0 -50 17 -83t43 -53t56.5 -28t57.5 -8q39 0 78 14.5t69.5 40.5t50 61.5t19.5 77.5v226zM455 1466h114l250 -342h-67l-240 215l-240 -215
h-69zM829 1415l-342 213q-24 16 -30 32.5t-6 29.5q0 29 20.5 50t48.5 21q12 0 20.5 -2.5t19 -10t25.5 -22t40 -38.5l276 -273h-72z" />
    <glyph glyph-name="uni1EA8" unicode="&#x1ea8;" horiz-adv-x="1366" 
d="M365 526q-15 -35 -37.5 -86.5t-48 -119t-53 -150.5t-52.5 -180q-18 3 -36.5 7.5t-47.5 4.5t-49.5 -4.5t-40.5 -7.5q45 99 99.5 218.5t112.5 248t117 261t114 258.5t103 240.5t85 206.5q12 -2 23 -4t28 -2q14 0 23.5 1.5t21.5 4.5q30 -81 72 -185t90.5 -219.5t100.5 -236
t102 -234.5t95 -214.5t79 -176.5t54 -121t21 -46q-26 5 -54 8.5t-66 3.5q-41 0 -71.5 -3.5t-59.5 -8.5q-27 92 -55.5 171.5t-56 146.5t-52 121.5t-43.5 96.5h-518zM621 1137l-215 -508h436zM627 1831h114l250 -342h-67l-240 215l-240 -215h-69zM851 1962q-1 13 -2 22t-3 18
t-5.5 19.5t-7.5 25.5q24 31 64 51.5t85.5 29.5t92 4.5t84 -24t61 -54.5t23.5 -88q0 -48 -22 -75t-54 -44t-68 -30t-65 -32t-44 -50t-5 -85q-6 2 -11 2.5t-10 -4.5q-22 54 -20 92t18.5 65.5t43 47t52.5 36t46.5 32t25.5 36.5q10 40 -5 67.5t-42.5 42.5t-62.5 16t-65 -12
t-50 -41.5t-18 -72.5z" />
    <glyph glyph-name="uni1EA9" unicode="&#x1ea9;" 
d="M156 739l8 133q24 19 55 41t71.5 41t91.5 31t114 12q30 0 65 -3.5t71 -14t71.5 -28.5t66.5 -46q18 -17 33 -37.5t26.5 -47.5t18 -62t6.5 -82q0 -15 -0.5 -44.5t-1.5 -66t-2 -76.5t-2 -76t-1.5 -64.5t-0.5 -41.5q0 -68 1 -113.5t8.5 -73.5t22.5 -40t44 -12q18 0 30.5 3.5
t20.5 6.5l2 -58q-34 -17 -69 -31t-79 -14q-51 0 -94.5 32t-60.5 102q-24 -25 -53 -50.5t-66 -46.5t-84 -34t-107 -13q-79 0 -133 27t-87 67.5t-47.5 88.5t-14.5 90q0 81 30 132t78 82t109 47.5t123 30.5l178 39q43 11 59.5 33t16.5 66q0 52 -17 93.5t-47.5 70t-73 44
t-92.5 15.5q-64 0 -105.5 -17.5t-68 -42t-39.5 -50.5t-20 -42h-55zM670 502q-132 -20 -210 -45.5t-118 -56.5t-51.5 -67.5t-11.5 -78.5q0 -50 17 -83t43 -53t56.5 -28t57.5 -8q39 0 78 14.5t69.5 40.5t50 61.5t19.5 77.5v226zM455 1466h114l250 -342h-67l-240 215l-240 -215
h-69zM668 1647q-1 13 -2 22t-3 18t-5.5 19.5t-7.5 25.5q24 31 64 51.5t85.5 29.5t92 4.5t84 -24t61 -54.5t23.5 -88q0 -48 -22 -75t-54 -44t-68 -30t-65 -32t-44 -50t-5 -85q-6 2 -11 2.5t-10 -4.5q-22 54 -20 92t18.5 65.5t43 47t52.5 36t46.5 32t25.5 36.5q10 40 -5 67.5
t-42.5 42.5t-62.5 16t-65 -12t-50 -41.5t-18 -72.5z" />
    <glyph glyph-name="uni1EAA" unicode="&#x1eaa;" horiz-adv-x="1366" 
d="M365 526q-15 -35 -37.5 -86.5t-48 -119t-53 -150.5t-52.5 -180q-18 3 -36.5 7.5t-47.5 4.5t-49.5 -4.5t-40.5 -7.5q45 99 99.5 218.5t112.5 248t117 261t114 258.5t103 240.5t85 206.5q12 -2 23 -4t28 -2q14 0 23.5 1.5t21.5 4.5q30 -81 72 -185t90.5 -219.5t100.5 -236
t102 -234.5t95 -214.5t79 -176.5t54 -121t21 -46q-26 5 -54 8.5t-66 3.5q-41 0 -71.5 -3.5t-59.5 -8.5q-27 92 -55.5 171.5t-56 146.5t-52 121.5t-43.5 96.5h-518zM621 1137l-215 -508h436zM627 1831h114l250 -342h-67l-240 215l-240 -215h-69zM399 1890q8 47 28.5 84
t49.5 63t64 40t71 14q16 0 28.5 -2t29.5 -8t43 -18t69 -32q24 -11 39.5 -17.5t27 -10t21.5 -5t23 -1.5q24 0 42.5 9.5t32 24t23 32.5t16.5 36h60q-5 -25 -20 -60.5t-41 -68.5t-64 -56.5t-90 -23.5q-26 0 -54.5 6t-62.5 23l-72 35q-27 14 -49 22t-47 8q-7 0 -22 -2t-32 -11
t-33 -28t-25 -53h-56z" />
    <glyph glyph-name="uni1EAB" unicode="&#x1eab;" 
d="M156 739l8 133q24 19 55 41t71.5 41t91.5 31t114 12q30 0 65 -3.5t71 -14t71.5 -28.5t66.5 -46q18 -17 33 -37.5t26.5 -47.5t18 -62t6.5 -82q0 -15 -0.5 -44.5t-1.5 -66t-2 -76.5t-2 -76t-1.5 -64.5t-0.5 -41.5q0 -68 1 -113.5t8.5 -73.5t22.5 -40t44 -12q18 0 30.5 3.5
t20.5 6.5l2 -58q-34 -17 -69 -31t-79 -14q-51 0 -94.5 32t-60.5 102q-24 -25 -53 -50.5t-66 -46.5t-84 -34t-107 -13q-79 0 -133 27t-87 67.5t-47.5 88.5t-14.5 90q0 81 30 132t78 82t109 47.5t123 30.5l178 39q43 11 59.5 33t16.5 66q0 52 -17 93.5t-47.5 70t-73 44
t-92.5 15.5q-64 0 -105.5 -17.5t-68 -42t-39.5 -50.5t-20 -42h-55zM670 502q-132 -20 -210 -45.5t-118 -56.5t-51.5 -67.5t-11.5 -78.5q0 -50 17 -83t43 -53t56.5 -28t57.5 -8q39 0 78 14.5t69.5 40.5t50 61.5t19.5 77.5v226zM455 1466h114l250 -342h-67l-240 215l-240 -215
h-69zM225 1500q7 46 28 83.5t50 63t64 39.5t71 14q16 0 28.5 -2t29.5 -8t43 -17.5t69 -31.5q24 -11 39 -18t26.5 -10.5t21.5 -5t23 -1.5q25 0 43.5 9.5t32 24t23 32.5t16.5 36h59q-5 -24 -19.5 -59.5t-40.5 -68.5t-64.5 -56.5t-90.5 -23.5q-26 0 -54 5.5t-62 22.5l-72 35
q-28 14 -49.5 22.5t-46.5 8.5q-7 0 -22 -2t-32 -11t-33.5 -28t-25.5 -53h-55z" />
    <glyph glyph-name="uni1EAC" unicode="&#x1eac;" horiz-adv-x="1366" 
d="M365 526q-15 -35 -37.5 -86.5t-48 -119t-53 -150.5t-52.5 -180q-18 3 -36.5 7.5t-47.5 4.5t-49.5 -4.5t-40.5 -7.5q45 99 99.5 218.5t112.5 248t117 261t114 258.5t103 240.5t85 206.5q12 -2 23 -4t28 -2q14 0 23.5 1.5t21.5 4.5q30 -81 72 -185t90.5 -219.5t100.5 -236
t102 -234.5t95 -214.5t79 -176.5t54 -121t21 -46q-26 5 -54 8.5t-66 3.5q-41 0 -71.5 -3.5t-59.5 -8.5q-27 92 -55.5 171.5t-56 146.5t-52 121.5t-43.5 96.5h-518zM621 1137l-215 -508h436zM627 1831h114l250 -342h-67l-240 215l-240 -215h-69zM585 -320q0 21 8 39
t21.5 31.5t32 21.5t39.5 8q20 0 37.5 -7.5t31 -21t21.5 -32t8 -39.5q0 -20 -8 -37.5t-21.5 -31t-31 -21.5t-37.5 -8q-44 0 -72.5 29t-28.5 69z" />
    <glyph glyph-name="uni1EAD" unicode="&#x1ead;" 
d="M156 739l8 133q24 19 55 41t71.5 41t91.5 31t114 12q30 0 65 -3.5t71 -14t71.5 -28.5t66.5 -46q18 -17 33 -37.5t26.5 -47.5t18 -62t6.5 -82q0 -15 -0.5 -44.5t-1.5 -66t-2 -76.5t-2 -76t-1.5 -64.5t-0.5 -41.5q0 -68 1 -113.5t8.5 -73.5t22.5 -40t44 -12q18 0 30.5 3.5
t20.5 6.5l2 -58q-34 -17 -69 -31t-79 -14q-51 0 -94.5 32t-60.5 102q-24 -25 -53 -50.5t-66 -46.5t-84 -34t-107 -13q-79 0 -133 27t-87 67.5t-47.5 88.5t-14.5 90q0 81 30 132t78 82t109 47.5t123 30.5l178 39q43 11 59.5 33t16.5 66q0 52 -17 93.5t-47.5 70t-73 44
t-92.5 15.5q-64 0 -105.5 -17.5t-68 -42t-39.5 -50.5t-20 -42h-55zM670 502q-132 -20 -210 -45.5t-118 -56.5t-51.5 -67.5t-11.5 -78.5q0 -50 17 -83t43 -53t56.5 -28t57.5 -8q39 0 78 14.5t69.5 40.5t50 61.5t19.5 77.5v226zM455 1466h114l250 -342h-67l-240 215l-240 -215
h-69zM410 -320q0 21 8 39t21.5 31.5t32 21.5t39.5 8q20 0 37.5 -7.5t31 -21t21.5 -32t8 -39.5q0 -20 -8 -37.5t-21.5 -31t-31 -21.5t-37.5 -8q-44 0 -72.5 29t-28.5 69z" />
    <glyph glyph-name="uni1EAE" unicode="&#x1eae;" horiz-adv-x="1366" 
d="M365 526q-15 -35 -37.5 -86.5t-48 -119t-53 -150.5t-52.5 -180q-18 3 -36.5 7.5t-47.5 4.5t-49.5 -4.5t-40.5 -7.5q45 99 99.5 218.5t112.5 248t117 261t114 258.5t103 240.5t85 206.5q12 -2 23 -4t28 -2q14 0 23.5 1.5t21.5 4.5q30 -81 72 -185t90.5 -219.5t100.5 -236
t102 -234.5t95 -214.5t79 -176.5t54 -121t21 -46q-26 5 -54 8.5t-66 3.5q-41 0 -71.5 -3.5t-59.5 -8.5q-27 92 -55.5 171.5t-56 146.5t-52 121.5t-43.5 96.5h-518zM621 1137l-215 -508h436zM453 1819q7 -51 27.5 -89t51 -63.5t69 -38t83.5 -12.5q70 0 112.5 24.5t66 58
t33 67.5t13.5 53h58q-6 -72 -26.5 -130.5t-56.5 -100t-88.5 -64.5t-121.5 -23q-23 0 -52 4.5t-60 17t-61 34.5t-53 57.5t-37.5 85.5t-13.5 119h56zM562 1766l274 272q24 25 39.5 39.5t26 22t19.5 10t21 2.5q14 0 26.5 -6t22.5 -15.5t15.5 -22.5t5.5 -28q0 -38 -39 -61
l-340 -213h-71z" />
    <glyph glyph-name="uni1EAF" unicode="&#x1eaf;" 
d="M211 739q7 16 20 42t39.5 50.5t68 42t105.5 17.5q50 0 92.5 -15.5t73 -44t47.5 -70t17 -93.5q0 -44 -16.5 -66t-59.5 -33l-178 -39q-62 -14 -123 -30.5t-109 -47.5t-78 -82t-30 -132q0 -42 14.5 -90t47.5 -88.5t87 -67.5t133 -27q60 0 107 13t84 34t66 46.5t53 50.5
q17 -70 60.5 -102t94.5 -32q44 0 79 14t69 31l-2 58q-8 -3 -20.5 -6.5t-30.5 -3.5q-29 0 -44 12t-22.5 40t-8.5 73.5t-1 113.5q0 13 0.5 41.5t1.5 64.5t2 76t2 76.5t1.5 66t0.5 44.5q0 47 -6.5 82t-18 62t-26.5 47.5t-33 37.5q-31 28 -66.5 46t-71.5 28.5t-71 14t-65 3.5
q-63 0 -114 -12t-91.5 -31t-71.5 -41t-55 -41l-8 -133h55zM670 276q0 -42 -19.5 -77.5t-50 -61.5t-69.5 -40.5t-78 -14.5q-27 0 -57.5 8t-56.5 28t-43 53t-17 83q0 42 11.5 78.5t51.5 67.5t118 56.5t210 45.5v-226zM223 1442q-1 -69 13.5 -119t37.5 -85.5t53 -57.5t61 -34.5
t60 -17t52 -4.5q69 0 121.5 23t88.5 64.5t56.5 100t26.5 130.5h-58q-3 -12 -7.5 -32t-14 -42.5t-25 -45.5t-39.5 -41.5t-58 -30t-81 -11.5q-45 0 -83.5 12.5t-69 38t-51 63.5t-27.5 89h-56zM435 1412l276 273q25 24 40 38.5t25.5 22t19 10t20.5 2.5q28 0 48.5 -21t20.5 -50
q0 -13 -6 -29.5t-30 -32.5l-342 -213h-72z" />
    <glyph glyph-name="uni1EB0" unicode="&#x1eb0;" horiz-adv-x="1366" 
d="M365 526q-15 -35 -37.5 -86.5t-48 -119t-53 -150.5t-52.5 -180q-18 3 -36.5 7.5t-47.5 4.5t-49.5 -4.5t-40.5 -7.5q45 99 99.5 218.5t112.5 248t117 261t114 258.5t103 240.5t85 206.5q12 -2 23 -4t28 -2q14 0 23.5 1.5t21.5 4.5q30 -81 72 -185t90.5 -219.5t100.5 -236
t102 -234.5t95 -214.5t79 -176.5t54 -121t21 -46q-26 5 -54 8.5t-66 3.5q-41 0 -71.5 -3.5t-59.5 -8.5q-27 92 -55.5 171.5t-56 146.5t-52 121.5t-43.5 96.5h-518zM621 1137l-215 -508h436zM453 1819q7 -51 27.5 -89t51 -63.5t69 -38t83.5 -12.5q70 0 112.5 24.5t66 58
t33 67.5t13.5 53h58q-6 -72 -26.5 -130.5t-56.5 -100t-88.5 -64.5t-121.5 -23q-23 0 -52 4.5t-60 17t-61 34.5t-53 57.5t-37.5 85.5t-13.5 119h56zM747 1766l-342 213q-25 15 -31 32t-6 29q0 15 5.5 28t15.5 22.5t22.5 15.5t26.5 6q11 0 19.5 -2.5t19 -10t26 -22t39.5 -39.5
l277 -272h-72z" />
    <glyph glyph-name="uni1EB1" unicode="&#x1eb1;" 
d="M156 739l8 133q24 19 55 41t71.5 41t91.5 31t114 12q30 0 65 -3.5t71 -14t71.5 -28.5t66.5 -46q18 -17 33 -37.5t26.5 -47.5t18 -62t6.5 -82q0 -15 -0.5 -44.5t-1.5 -66t-2 -76.5t-2 -76t-1.5 -64.5t-0.5 -41.5q0 -68 1 -113.5t8.5 -73.5t22.5 -40t44 -12q18 0 30.5 3.5
t20.5 6.5l2 -58q-34 -17 -69 -31t-79 -14q-51 0 -94.5 32t-60.5 102q-24 -25 -53 -50.5t-66 -46.5t-84 -34t-107 -13q-79 0 -133 27t-87 67.5t-47.5 88.5t-14.5 90q0 81 30 132t78 82t109 47.5t123 30.5l178 39q43 11 59.5 33t16.5 66q0 52 -17 93.5t-47.5 70t-73 44
t-92.5 15.5q-64 0 -105.5 -17.5t-68 -42t-39.5 -50.5t-20 -42h-55zM670 502q-132 -20 -210 -45.5t-118 -56.5t-51.5 -67.5t-11.5 -78.5q0 -50 17 -83t43 -53t56.5 -28t57.5 -8q39 0 78 14.5t69.5 40.5t50 61.5t19.5 77.5v226zM279 1442q7 -51 27.5 -89t51 -63.5t69 -38
t83.5 -12.5q47 0 81 11.5t58 30t39.5 41.5t25 45.5t14 42.5t7.5 32h58q-6 -72 -26.5 -130.5t-56.5 -100t-88.5 -64.5t-121.5 -23q-23 0 -52 4.5t-60 17t-61 34.5t-53 57.5t-37.5 85.5t-13.5 119h56zM525 1412l-342 213q-24 16 -30 32.5t-6 29.5q0 29 20.5 50t48.5 21
q12 0 20.5 -2.5t19 -10t25.5 -22t40 -38.5l276 -273h-72z" />
    <glyph glyph-name="uni1EB2" unicode="&#x1eb2;" horiz-adv-x="1366" 
d="M365 526q-15 -35 -37.5 -86.5t-48 -119t-53 -150.5t-52.5 -180q-18 3 -36.5 7.5t-47.5 4.5t-49.5 -4.5t-40.5 -7.5q45 99 99.5 218.5t112.5 248t117 261t114 258.5t103 240.5t85 206.5q12 -2 23 -4t28 -2q14 0 23.5 1.5t21.5 4.5q30 -81 72 -185t90.5 -219.5t100.5 -236
t102 -234.5t95 -214.5t79 -176.5t54 -121t21 -46q-26 5 -54 8.5t-66 3.5q-41 0 -71.5 -3.5t-59.5 -8.5q-27 92 -55.5 171.5t-56 146.5t-52 121.5t-43.5 96.5h-518zM621 1137l-215 -508h436zM453 1819q7 -51 27.5 -89t51 -63.5t69 -38t83.5 -12.5q70 0 112.5 24.5t66 58
t33 67.5t13.5 53h58q-6 -72 -26.5 -130.5t-56.5 -100t-88.5 -64.5t-121.5 -23q-23 0 -52 4.5t-60 17t-61 34.5t-53 57.5t-37.5 85.5t-13.5 119h56zM566 2105q-1 13 -2 22t-3 18t-5.5 19.5t-7.5 25.5q24 31 64 51.5t85.5 29.5t92 4.5t84 -24t61 -54.5t23.5 -88q0 -48 -22 -75
t-54 -44t-68 -30t-65 -32t-44 -50t-5 -85q-6 2 -11 2.5t-10 -4.5q-23 54 -20.5 92t19 65.5t43 47t52.5 36t46.5 32t25.5 36.5q10 40 -5 67.5t-42.5 42.5t-62.5 16t-65 -12t-50 -41.5t-18 -72.5z" />
    <glyph glyph-name="uni1EB3" unicode="&#x1eb3;" 
d="M156 739l8 133q24 19 55 41t71.5 41t91.5 31t114 12q30 0 65 -3.5t71 -14t71.5 -28.5t66.5 -46q18 -17 33 -37.5t26.5 -47.5t18 -62t6.5 -82q0 -15 -0.5 -44.5t-1.5 -66t-2 -76.5t-2 -76t-1.5 -64.5t-0.5 -41.5q0 -68 1 -113.5t8.5 -73.5t22.5 -40t44 -12q18 0 30.5 3.5
t20.5 6.5l2 -58q-34 -17 -69 -31t-79 -14q-51 0 -94.5 32t-60.5 102q-24 -25 -53 -50.5t-66 -46.5t-84 -34t-107 -13q-79 0 -133 27t-87 67.5t-47.5 88.5t-14.5 90q0 81 30 132t78 82t109 47.5t123 30.5l178 39q43 11 59.5 33t16.5 66q0 52 -17 93.5t-47.5 70t-73 44
t-92.5 15.5q-64 0 -105.5 -17.5t-68 -42t-39.5 -50.5t-20 -42h-55zM670 502q-132 -20 -210 -45.5t-118 -56.5t-51.5 -67.5t-11.5 -78.5q0 -50 17 -83t43 -53t56.5 -28t57.5 -8q39 0 78 14.5t69.5 40.5t50 61.5t19.5 77.5v226zM279 1442q7 -51 27.5 -89t51 -63.5t69 -38
t83.5 -12.5q47 0 81 11.5t58 30t39.5 41.5t25 45.5t14 42.5t7.5 32h58q-6 -72 -26.5 -130.5t-56.5 -100t-88.5 -64.5t-121.5 -23q-23 0 -52 4.5t-60 17t-61 34.5t-53 57.5t-37.5 85.5t-13.5 119h56zM387 1694q-1 13 -2 22t-3 18t-5.5 19.5t-7.5 25.5q24 31 64 51.5
t85.5 29.5t92 4.5t84 -24t61 -54.5t23.5 -88q0 -48 -22 -75t-54 -44t-68 -30t-65 -32t-44 -50t-5 -85q-6 2 -11 2.5t-10 -4.5q-23 54 -20.5 92t19 65.5t43 47t52.5 36t46.5 32t25.5 36.5q10 40 -5 67.5t-42.5 42.5t-62.5 16t-65 -12t-50 -41.5t-18 -72.5z" />
    <glyph glyph-name="uni1EB4" unicode="&#x1eb4;" horiz-adv-x="1366" 
d="M365 526q-15 -35 -37.5 -86.5t-48 -119t-53 -150.5t-52.5 -180q-18 3 -36.5 7.5t-47.5 4.5t-49.5 -4.5t-40.5 -7.5q45 99 99.5 218.5t112.5 248t117 261t114 258.5t103 240.5t85 206.5q12 -2 23 -4t28 -2q14 0 23.5 1.5t21.5 4.5q30 -81 72 -185t90.5 -219.5t100.5 -236
t102 -234.5t95 -214.5t79 -176.5t54 -121t21 -46q-26 5 -54 8.5t-66 3.5q-41 0 -71.5 -3.5t-59.5 -8.5q-27 92 -55.5 171.5t-56 146.5t-52 121.5t-43.5 96.5h-518zM621 1137l-215 -508h436zM453 1819q7 -51 27.5 -89t51 -63.5t69 -38t83.5 -12.5q70 0 112.5 24.5t66 58
t33 67.5t13.5 53h58q-6 -72 -26.5 -130.5t-56.5 -100t-88.5 -64.5t-121.5 -23q-23 0 -52 4.5t-60 17t-61 34.5t-53 57.5t-37.5 85.5t-13.5 119h56zM410 1893q8 47 28.5 84t49.5 63t64 40t71 14q16 0 28.5 -2t29.5 -8t43 -18t69 -32q24 -11 39.5 -17.5t27 -10t21.5 -5
t23 -1.5q24 0 42.5 9.5t32 24t23 32.5t16.5 36h60q-5 -25 -20 -60.5t-41 -68.5t-64 -56.5t-90 -23.5q-26 0 -54.5 6t-62.5 23l-72 35q-27 14 -49 22t-47 8q-7 0 -22 -2t-32 -11t-33 -28t-25 -53h-56z" />
    <glyph glyph-name="uni1EB5" unicode="&#x1eb5;" 
d="M156 739l8 133q24 19 55 41t71.5 41t91.5 31t114 12q30 0 65 -3.5t71 -14t71.5 -28.5t66.5 -46q18 -17 33 -37.5t26.5 -47.5t18 -62t6.5 -82q0 -15 -0.5 -44.5t-1.5 -66t-2 -76.5t-2 -76t-1.5 -64.5t-0.5 -41.5q0 -68 1 -113.5t8.5 -73.5t22.5 -40t44 -12q18 0 30.5 3.5
t20.5 6.5l2 -58q-34 -17 -69 -31t-79 -14q-51 0 -94.5 32t-60.5 102q-24 -25 -53 -50.5t-66 -46.5t-84 -34t-107 -13q-79 0 -133 27t-87 67.5t-47.5 88.5t-14.5 90q0 81 30 132t78 82t109 47.5t123 30.5l178 39q43 11 59.5 33t16.5 66q0 52 -17 93.5t-47.5 70t-73 44
t-92.5 15.5q-64 0 -105.5 -17.5t-68 -42t-39.5 -50.5t-20 -42h-55zM670 502q-132 -20 -210 -45.5t-118 -56.5t-51.5 -67.5t-11.5 -78.5q0 -50 17 -83t43 -53t56.5 -28t57.5 -8q39 0 78 14.5t69.5 40.5t50 61.5t19.5 77.5v226zM279 1442q7 -51 27.5 -89t51 -63.5t69 -38
t83.5 -12.5q47 0 81 11.5t58 30t39.5 41.5t25 45.5t14 42.5t7.5 32h58q-6 -72 -26.5 -130.5t-56.5 -100t-88.5 -64.5t-121.5 -23q-23 0 -52 4.5t-60 17t-61 34.5t-53 57.5t-37.5 85.5t-13.5 119h56zM230 1538q7 46 28 83.5t50 63t64 39.5t71 14q16 0 28.5 -2t29.5 -8
t43 -17.5t69 -31.5q24 -11 39 -18t26.5 -10.5t21.5 -5t23 -1.5q25 0 43.5 9.5t32 24t23 32.5t16.5 36h59q-5 -24 -19.5 -59.5t-40.5 -68.5t-64.5 -56.5t-90.5 -23.5q-26 0 -54 5.5t-62 22.5l-72 35q-28 14 -49.5 22.5t-46.5 8.5q-7 0 -22 -2t-32 -11t-33.5 -28t-25.5 -53
h-55z" />
    <glyph glyph-name="uni1EB6" unicode="&#x1eb6;" horiz-adv-x="1366" 
d="M365 526q-15 -35 -37.5 -86.5t-48 -119t-53 -150.5t-52.5 -180q-18 3 -36.5 7.5t-47.5 4.5t-49.5 -4.5t-40.5 -7.5q45 99 99.5 218.5t112.5 248t117 261t114 258.5t103 240.5t85 206.5q12 -2 23 -4t28 -2q14 0 23.5 1.5t21.5 4.5q30 -81 72 -185t90.5 -219.5t100.5 -236
t102 -234.5t95 -214.5t79 -176.5t54 -121t21 -46q-26 5 -54 8.5t-66 3.5q-41 0 -71.5 -3.5t-59.5 -8.5q-27 92 -55.5 171.5t-56 146.5t-52 121.5t-43.5 96.5h-518zM621 1137l-215 -508h436zM453 1819q7 -51 27.5 -89t51 -63.5t69 -38t83.5 -12.5q70 0 112.5 24.5t66 58
t33 67.5t13.5 53h58q-6 -72 -26.5 -130.5t-56.5 -100t-88.5 -64.5t-121.5 -23q-23 0 -52 4.5t-60 17t-61 34.5t-53 57.5t-37.5 85.5t-13.5 119h56zM564 -320q0 21 8 39t21.5 31.5t32 21.5t39.5 8q20 0 37.5 -7.5t31 -21t21.5 -32t8 -39.5q0 -20 -8 -37.5t-21.5 -31
t-31 -21.5t-37.5 -8q-44 0 -72.5 29t-28.5 69z" />
    <glyph glyph-name="uni1EB7" unicode="&#x1eb7;" 
d="M156 739l8 133q24 19 55 41t71.5 41t91.5 31t114 12q30 0 65 -3.5t71 -14t71.5 -28.5t66.5 -46q18 -17 33 -37.5t26.5 -47.5t18 -62t6.5 -82q0 -15 -0.5 -44.5t-1.5 -66t-2 -76.5t-2 -76t-1.5 -64.5t-0.5 -41.5q0 -68 1 -113.5t8.5 -73.5t22.5 -40t44 -12q18 0 30.5 3.5
t20.5 6.5l2 -58q-34 -17 -69 -31t-79 -14q-51 0 -94.5 32t-60.5 102q-24 -25 -53 -50.5t-66 -46.5t-84 -34t-107 -13q-79 0 -133 27t-87 67.5t-47.5 88.5t-14.5 90q0 81 30 132t78 82t109 47.5t123 30.5l178 39q43 11 59.5 33t16.5 66q0 52 -17 93.5t-47.5 70t-73 44
t-92.5 15.5q-64 0 -105.5 -17.5t-68 -42t-39.5 -50.5t-20 -42h-55zM670 502q-132 -20 -210 -45.5t-118 -56.5t-51.5 -67.5t-11.5 -78.5q0 -50 17 -83t43 -53t56.5 -28t57.5 -8q39 0 78 14.5t69.5 40.5t50 61.5t19.5 77.5v226zM279 1442q7 -51 27.5 -89t51 -63.5t69 -38
t83.5 -12.5q47 0 81 11.5t58 30t39.5 41.5t25 45.5t14 42.5t7.5 32h58q-6 -72 -26.5 -130.5t-56.5 -100t-88.5 -64.5t-121.5 -23q-23 0 -52 4.5t-60 17t-61 34.5t-53 57.5t-37.5 85.5t-13.5 119h56zM396 -320q0 21 8 39t21.5 31.5t32 21.5t39.5 8q20 0 37.5 -7.5t31 -21
t21.5 -32t8 -39.5q0 -20 -8 -37.5t-21.5 -31t-31 -21.5t-37.5 -8q-44 0 -72.5 29t-28.5 69z" />
    <glyph glyph-name="uni1EB8" unicode="&#x1eb8;" 
d="M385 788q122 -2 242.5 -0.5t240.5 15.5q-3 -17 -5.5 -32.5t-2.5 -37.5q0 -17 3 -31.5t5 -31.5q-40 5 -82 9t-83.5 6.5t-80 3.5t-71.5 1q-42 0 -85 -1t-81 -3q-2 -66 -3 -134t-1 -134q0 -40 0.5 -87t1.5 -91t2 -81.5t2 -58.5q49 0 105.5 0.5t122.5 2.5t143 7.5t168 14.5
q-3 -17 -5.5 -32.5t-2.5 -37.5q0 -21 2.5 -35.5t5.5 -29.5q-72 9 -143 10.5t-142 1.5q-119 0 -237.5 -3.5t-237.5 -8.5q3 38 6 76.5t5 82.5t4.5 97.5t3.5 122t2 155.5t1 199q0 77 -1 165t-2.5 177.5t-5 177t-7.5 162.5q108 -9 214 -10.5t214 -1.5q79 0 156 2t155 10
q-3 -17 -5.5 -34.5t-2.5 -37.5q0 -21 2.5 -35.5t5.5 -29.5q-28 5 -57.5 10t-66.5 8.5t-85.5 5.5t-115.5 2h-50t-44 -0.5t-47 -1.5t-58 -2q-2 -30 -2.5 -53.5t-1 -48.5t-0.5 -56.5v-76.5v-82.5v-60t0.5 -55.5t1.5 -69zM464 -320q0 21 8 39t21.5 31.5t32 21.5t39.5 8
q20 0 37.5 -7.5t31 -21t21.5 -32t8 -39.5q0 -20 -8 -37.5t-21.5 -31t-31 -21.5t-37.5 -8q-44 0 -72.5 29t-28.5 69z" />
    <glyph glyph-name="uni1EB9" unicode="&#x1eb9;" horiz-adv-x="1139" 
d="M305 487q0 -21 1 -52.5t6 -67.5t16 -74.5t32 -73.5q36 -57 77 -89.5t80 -48t73.5 -19t56.5 -3.5q75 0 131 20t95.5 47t63.5 55t36 44l24 -6q-9 -43 -10.5 -70.5t-3.5 -52.5q-68 -65 -162 -99t-219 -34q-117 0 -210 35.5t-158 102t-99.5 161.5t-34.5 213q0 106 29.5 200.5
t90.5 165.5t153.5 112.5t218.5 41.5q114 0 192 -30t128 -77t76.5 -105.5t38 -114.5t12.5 -104.5t1 -76.5h-735zM836 573q0 17 -1 49t-8 69.5t-22 77t-42 71.5t-69.5 52.5t-103.5 20.5q-67 0 -117 -24.5t-84.5 -69t-54.5 -107t-27 -139.5h529zM489 -320q0 21 8 39t21.5 31.5
t32 21.5t39.5 8q20 0 37.5 -7.5t31 -21t21.5 -32t8 -39.5q0 -20 -8 -37.5t-21.5 -31t-31 -21.5t-37.5 -8q-44 0 -72.5 29t-28.5 69z" />
    <glyph glyph-name="uni1EBA" unicode="&#x1eba;" 
d="M385 788q122 -2 242.5 -0.5t240.5 15.5q-3 -17 -5.5 -32.5t-2.5 -37.5q0 -17 3 -31.5t5 -31.5q-40 5 -82 9t-83.5 6.5t-80 3.5t-71.5 1q-42 0 -85 -1t-81 -3q-2 -66 -3 -134t-1 -134q0 -40 0.5 -87t1.5 -91t2 -81.5t2 -58.5q49 0 105.5 0.5t122.5 2.5t143 7.5t168 14.5
q-3 -17 -5.5 -32.5t-2.5 -37.5q0 -21 2.5 -35.5t5.5 -29.5q-72 9 -143 10.5t-142 1.5q-119 0 -237.5 -3.5t-237.5 -8.5q3 38 6 76.5t5 82.5t4.5 97.5t3.5 122t2 155.5t1 199q0 77 -1 165t-2.5 177.5t-5 177t-7.5 162.5q108 -9 214 -10.5t214 -1.5q79 0 156 2t155 10
q-3 -17 -5.5 -34.5t-2.5 -37.5q0 -21 2.5 -35.5t5.5 -29.5q-28 5 -57.5 10t-66.5 8.5t-85.5 5.5t-115.5 2h-50t-44 -0.5t-47 -1.5t-58 -2q-2 -30 -2.5 -53.5t-1 -48.5t-0.5 -56.5v-76.5v-82.5v-60t0.5 -55.5t1.5 -69zM451 1779q-1 13 -2 22t-3 18t-5.5 19.5t-7.5 25.5
q24 31 64 51.5t85.5 29.5t92 4.5t84 -24t61 -54.5t23.5 -88q0 -48 -22 -75t-54 -44t-68 -30t-65 -32t-44 -50t-5 -85q-6 2 -11 2.5t-10 -4.5q-23 54 -20.5 92t19 65.5t43 47t52.5 36t46.5 32t25.5 36.5q10 40 -5 67.5t-42.5 42.5t-62.5 16t-65 -12t-50 -41.5t-18 -72.5z" />
    <glyph glyph-name="uni1EBB" unicode="&#x1ebb;" horiz-adv-x="1139" 
d="M305 487q0 -21 1 -52.5t6 -67.5t16 -74.5t32 -73.5q36 -57 77 -89.5t80 -48t73.5 -19t56.5 -3.5q75 0 131 20t95.5 47t63.5 55t36 44l24 -6q-9 -43 -10.5 -70.5t-3.5 -52.5q-68 -65 -162 -99t-219 -34q-117 0 -210 35.5t-158 102t-99.5 161.5t-34.5 213q0 106 29.5 200.5
t90.5 165.5t153.5 112.5t218.5 41.5q114 0 192 -30t128 -77t76.5 -105.5t38 -114.5t12.5 -104.5t1 -76.5h-735zM836 573q0 17 -1 49t-8 69.5t-22 77t-42 71.5t-69.5 52.5t-103.5 20.5q-67 0 -117 -24.5t-84.5 -69t-54.5 -107t-27 -139.5h529zM502 1387q-1 13 -2 22t-3 18
t-5.5 19.5t-7.5 25.5q24 31 64 51.5t85.5 29.5t92 4.5t84 -24t61 -54.5t23.5 -88q0 -48 -22 -75t-54 -44t-68 -30t-65 -32t-44 -50t-5 -85q-6 2 -11 2.5t-10 -4.5q-23 54 -20.5 92t19 65.5t43 47t52.5 36t46.5 32t25.5 36.5q10 40 -5 67.5t-42.5 42.5t-62.5 16t-65 -12
t-50 -41.5t-18 -72.5z" />
    <glyph glyph-name="uni1EBC" unicode="&#x1ebc;" 
d="M385 788q122 -2 242.5 -0.5t240.5 15.5q-3 -17 -5.5 -32.5t-2.5 -37.5q0 -17 3 -31.5t5 -31.5q-40 5 -82 9t-83.5 6.5t-80 3.5t-71.5 1q-42 0 -85 -1t-81 -3q-2 -66 -3 -134t-1 -134q0 -40 0.5 -87t1.5 -91t2 -81.5t2 -58.5q49 0 105.5 0.5t122.5 2.5t143 7.5t168 14.5
q-3 -17 -5.5 -32.5t-2.5 -37.5q0 -21 2.5 -35.5t5.5 -29.5q-72 9 -143 10.5t-142 1.5q-119 0 -237.5 -3.5t-237.5 -8.5q3 38 6 76.5t5 82.5t4.5 97.5t3.5 122t2 155.5t1 199q0 77 -1 165t-2.5 177.5t-5 177t-7.5 162.5q108 -9 214 -10.5t214 -1.5q79 0 156 2t155 10
q-3 -17 -5.5 -34.5t-2.5 -37.5q0 -21 2.5 -35.5t5.5 -29.5q-28 5 -57.5 10t-66.5 8.5t-85.5 5.5t-115.5 2h-50t-44 -0.5t-47 -1.5t-58 -2q-2 -30 -2.5 -53.5t-1 -48.5t-0.5 -56.5v-76.5v-82.5v-60t0.5 -55.5t1.5 -69zM253 1565q7 46 28 83.5t50 63t64 39.5t71 14
q16 0 28.5 -2t29.5 -8t43 -17.5t69 -31.5q24 -11 39 -18t26.5 -10.5t21.5 -5t23 -1.5q25 0 43.5 9.5t32 24t23 32.5t16.5 36h59q-5 -24 -19.5 -59.5t-40.5 -68.5t-64.5 -56.5t-90.5 -23.5q-26 0 -54 5.5t-62 22.5l-72 35q-28 14 -49.5 22.5t-46.5 8.5q-7 0 -22 -2t-32 -11
t-33.5 -28t-25.5 -53h-55z" />
    <glyph glyph-name="uni1EBD" unicode="&#x1ebd;" horiz-adv-x="1139" 
d="M305 487q0 -21 1 -52.5t6 -67.5t16 -74.5t32 -73.5q36 -57 77 -89.5t80 -48t73.5 -19t56.5 -3.5q75 0 131 20t95.5 47t63.5 55t36 44l24 -6q-9 -43 -10.5 -70.5t-3.5 -52.5q-68 -65 -162 -99t-219 -34q-117 0 -210 35.5t-158 102t-99.5 161.5t-34.5 213q0 106 29.5 200.5
t90.5 165.5t153.5 112.5t218.5 41.5q114 0 192 -30t128 -77t76.5 -105.5t38 -114.5t12.5 -104.5t1 -76.5h-735zM836 573q0 17 -1 49t-8 69.5t-22 77t-42 71.5t-69.5 52.5t-103.5 20.5q-67 0 -117 -24.5t-84.5 -69t-54.5 -107t-27 -139.5h529zM335 1176q7 46 28 83.5t50 63
t64 39.5t71 14q16 0 28.5 -2t29.5 -8t43 -17.5t69 -31.5q24 -11 39 -18t26.5 -10.5t21.5 -5t23 -1.5q25 0 43.5 9.5t32 24t23 32.5t16.5 36h59q-5 -24 -19.5 -59.5t-40.5 -68.5t-64.5 -56.5t-90.5 -23.5q-26 0 -54 5.5t-62 22.5l-72 35q-28 14 -49.5 22.5t-46.5 8.5
q-7 0 -22 -2t-32 -11t-33.5 -28t-25.5 -53h-55z" />
    <glyph glyph-name="uni1EBE" unicode="&#x1ebe;" 
d="M385 788q122 -2 242.5 -0.5t240.5 15.5q-3 -17 -5.5 -32.5t-2.5 -37.5q0 -17 3 -31.5t5 -31.5q-40 5 -82 9t-83.5 6.5t-80 3.5t-71.5 1q-42 0 -85 -1t-81 -3q-2 -66 -3 -134t-1 -134q0 -40 0.5 -87t1.5 -91t2 -81.5t2 -58.5q49 0 105.5 0.5t122.5 2.5t143 7.5t168 14.5
q-3 -17 -5.5 -32.5t-2.5 -37.5q0 -21 2.5 -35.5t5.5 -29.5q-72 9 -143 10.5t-142 1.5q-119 0 -237.5 -3.5t-237.5 -8.5q3 38 6 76.5t5 82.5t4.5 97.5t3.5 122t2 155.5t1 199q0 77 -1 165t-2.5 177.5t-5 177t-7.5 162.5q108 -9 214 -10.5t214 -1.5q79 0 156 2t155 10
q-3 -17 -5.5 -34.5t-2.5 -37.5q0 -21 2.5 -35.5t5.5 -29.5q-28 5 -57.5 10t-66.5 8.5t-85.5 5.5t-115.5 2h-50t-44 -0.5t-47 -1.5t-58 -2q-2 -30 -2.5 -53.5t-1 -48.5t-0.5 -56.5v-76.5v-82.5v-60t0.5 -55.5t1.5 -69zM485 1831h115l250 -342h-68l-239 215l-240 -215h-70z
M825 1664l274 272q24 25 39.5 39.5t26 22t19.5 10t21 2.5q14 0 26.5 -6t22.5 -15.5t15.5 -22.5t5.5 -28q0 -38 -39 -61l-340 -213h-71z" />
    <glyph glyph-name="uni1EBF" unicode="&#x1ebf;" horiz-adv-x="1139" 
d="M1040 487q0 28 -1 76.5t-12.5 104.5t-38 114.5t-76.5 105.5t-128 77t-192 30q-126 0 -218.5 -41.5t-153.5 -112.5t-90.5 -165.5t-29.5 -200.5q0 -118 34.5 -213t99.5 -161.5t158 -102t210 -35.5q125 0 219 34t162 99q2 25 3.5 52.5t10.5 70.5l-24 6q-12 -16 -36 -44
t-63.5 -55t-95.5 -47t-131 -20q-22 0 -56.5 3.5t-73.5 19t-80 48t-77 89.5q-21 35 -32 73.5t-16 74.5t-6 67.5t-1 52.5h735zM307 573q7 77 27 139.5t54.5 107t84.5 69t117 24.5q61 0 103.5 -20.5t69.5 -52.5t42 -71.5t22 -77t8 -69.5t1 -49h-529zM281 1124h69l240 215
l239 -215h68l-250 342h-115zM736 1415l276 273q25 24 40 38.5t25.5 22t19 10t20.5 2.5q28 0 48.5 -21t20.5 -50q0 -13 -6 -29.5t-30 -32.5l-342 -213h-72z" />
    <glyph glyph-name="uni1EC0" unicode="&#x1ec0;" 
d="M385 788q122 -2 242.5 -0.5t240.5 15.5q-3 -17 -5.5 -32.5t-2.5 -37.5q0 -17 3 -31.5t5 -31.5q-40 5 -82 9t-83.5 6.5t-80 3.5t-71.5 1q-42 0 -85 -1t-81 -3q-2 -66 -3 -134t-1 -134q0 -40 0.5 -87t1.5 -91t2 -81.5t2 -58.5q49 0 105.5 0.5t122.5 2.5t143 7.5t168 14.5
q-3 -17 -5.5 -32.5t-2.5 -37.5q0 -21 2.5 -35.5t5.5 -29.5q-72 9 -143 10.5t-142 1.5q-119 0 -237.5 -3.5t-237.5 -8.5q3 38 6 76.5t5 82.5t4.5 97.5t3.5 122t2 155.5t1 199q0 77 -1 165t-2.5 177.5t-5 177t-7.5 162.5q108 -9 214 -10.5t214 -1.5q79 0 156 2t155 10
q-3 -17 -5.5 -34.5t-2.5 -37.5q0 -21 2.5 -35.5t5.5 -29.5q-28 5 -57.5 10t-66.5 8.5t-85.5 5.5t-115.5 2h-50t-44 -0.5t-47 -1.5t-58 -2q-2 -30 -2.5 -53.5t-1 -48.5t-0.5 -56.5v-76.5v-82.5v-60t0.5 -55.5t1.5 -69zM485 1831h115l250 -342h-68l-239 215l-240 -215h-70z
M1005 1664l-342 213q-25 15 -31 32t-6 29q0 15 5.5 28t15.5 22.5t22.5 15.5t26.5 6q11 0 19.5 -2.5t19 -10t26 -22t39.5 -39.5l277 -272h-72z" />
    <glyph glyph-name="uni1EC1" unicode="&#x1ec1;" horiz-adv-x="1139" 
d="M305 487q0 -21 1 -52.5t6 -67.5t16 -74.5t32 -73.5q36 -57 77 -89.5t80 -48t73.5 -19t56.5 -3.5q75 0 131 20t95.5 47t63.5 55t36 44l24 -6q-9 -43 -10.5 -70.5t-3.5 -52.5q-68 -65 -162 -99t-219 -34q-117 0 -210 35.5t-158 102t-99.5 161.5t-34.5 213q0 106 29.5 200.5
t90.5 165.5t153.5 112.5t218.5 41.5q114 0 192 -30t128 -77t76.5 -105.5t38 -114.5t12.5 -104.5t1 -76.5h-735zM836 573q0 17 -1 49t-8 69.5t-22 77t-42 71.5t-69.5 52.5t-103.5 20.5q-67 0 -117 -24.5t-84.5 -69t-54.5 -107t-27 -139.5h529zM532 1466h115l250 -342h-68
l-239 215l-240 -215h-69zM879 1415l-342 213q-24 16 -30 32.5t-6 29.5q0 29 20.5 50t48.5 21q12 0 20.5 -2.5t19 -10t25.5 -22t40 -38.5l276 -273h-72z" />
    <glyph glyph-name="uni1EC2" unicode="&#x1ec2;" 
d="M385 788q122 -2 242.5 -0.5t240.5 15.5q-3 -17 -5.5 -32.5t-2.5 -37.5q0 -17 3 -31.5t5 -31.5q-40 5 -82 9t-83.5 6.5t-80 3.5t-71.5 1q-42 0 -85 -1t-81 -3q-2 -66 -3 -134t-1 -134q0 -40 0.5 -87t1.5 -91t2 -81.5t2 -58.5q49 0 105.5 0.5t122.5 2.5t143 7.5t168 14.5
q-3 -17 -5.5 -32.5t-2.5 -37.5q0 -21 2.5 -35.5t5.5 -29.5q-72 9 -143 10.5t-142 1.5q-119 0 -237.5 -3.5t-237.5 -8.5q3 38 6 76.5t5 82.5t4.5 97.5t3.5 122t2 155.5t1 199q0 77 -1 165t-2.5 177.5t-5 177t-7.5 162.5q108 -9 214 -10.5t214 -1.5q79 0 156 2t155 10
q-3 -17 -5.5 -34.5t-2.5 -37.5q0 -21 2.5 -35.5t5.5 -29.5q-28 5 -57.5 10t-66.5 8.5t-85.5 5.5t-115.5 2h-50t-44 -0.5t-47 -1.5t-58 -2q-2 -30 -2.5 -53.5t-1 -48.5t-0.5 -56.5v-76.5v-82.5v-60t0.5 -55.5t1.5 -69zM485 1831h115l250 -342h-68l-239 215l-240 -215h-70z
M741 1962q-1 13 -2 22t-3 18t-5.5 19.5t-7.5 25.5q24 31 64 51.5t85.5 29.5t92 4.5t84 -24t61 -54.5t23.5 -88q0 -48 -22 -75t-54 -44t-68 -30t-65 -32t-44 -50t-5 -85q-6 2 -11 2.5t-10 -4.5q-23 54 -20.5 92t19 65.5t43 47t52.5 36t46.5 32t25.5 36.5q10 40 -5 67.5
t-42.5 42.5t-62.5 16t-65 -12t-50 -41.5t-18 -72.5z" />
    <glyph glyph-name="uni1EC3" unicode="&#x1ec3;" horiz-adv-x="1139" 
d="M305 487q0 -21 1 -52.5t6 -67.5t16 -74.5t32 -73.5q36 -57 77 -89.5t80 -48t73.5 -19t56.5 -3.5q75 0 131 20t95.5 47t63.5 55t36 44l24 -6q-9 -43 -10.5 -70.5t-3.5 -52.5q-68 -65 -162 -99t-219 -34q-117 0 -210 35.5t-158 102t-99.5 161.5t-34.5 213q0 106 29.5 200.5
t90.5 165.5t153.5 112.5t218.5 41.5q114 0 192 -30t128 -77t76.5 -105.5t38 -114.5t12.5 -104.5t1 -76.5h-735zM836 573q0 17 -1 49t-8 69.5t-22 77t-42 71.5t-69.5 52.5t-103.5 20.5q-67 0 -117 -24.5t-84.5 -69t-54.5 -107t-27 -139.5h529zM532 1466h115l250 -342h-68
l-239 215l-240 -215h-69zM704 1647q-1 13 -2 22t-3 18t-5.5 19.5t-7.5 25.5q24 31 64 51.5t85.5 29.5t92 4.5t84 -24t61 -54.5t23.5 -88q0 -48 -22 -75t-54 -44t-68 -30t-65 -32t-44 -50t-5 -85q-6 2 -11 2.5t-10 -4.5q-23 54 -20.5 92t19 65.5t43 47t52.5 36t46.5 32
t25.5 36.5q10 40 -5 67.5t-42.5 42.5t-62.5 16t-65 -12t-50 -41.5t-18 -72.5z" />
    <glyph glyph-name="uni1EC4" unicode="&#x1ec4;" 
d="M385 788q122 -2 242.5 -0.5t240.5 15.5q-3 -17 -5.5 -32.5t-2.5 -37.5q0 -17 3 -31.5t5 -31.5q-40 5 -82 9t-83.5 6.5t-80 3.5t-71.5 1q-42 0 -85 -1t-81 -3q-2 -66 -3 -134t-1 -134q0 -40 0.5 -87t1.5 -91t2 -81.5t2 -58.5q49 0 105.5 0.5t122.5 2.5t143 7.5t168 14.5
q-3 -17 -5.5 -32.5t-2.5 -37.5q0 -21 2.5 -35.5t5.5 -29.5q-72 9 -143 10.5t-142 1.5q-119 0 -237.5 -3.5t-237.5 -8.5q3 38 6 76.5t5 82.5t4.5 97.5t3.5 122t2 155.5t1 199q0 77 -1 165t-2.5 177.5t-5 177t-7.5 162.5q108 -9 214 -10.5t214 -1.5q79 0 156 2t155 10
q-3 -17 -5.5 -34.5t-2.5 -37.5q0 -21 2.5 -35.5t5.5 -29.5q-28 5 -57.5 10t-66.5 8.5t-85.5 5.5t-115.5 2h-50t-44 -0.5t-47 -1.5t-58 -2q-2 -30 -2.5 -53.5t-1 -48.5t-0.5 -56.5v-76.5v-82.5v-60t0.5 -55.5t1.5 -69zM485 1831h115l250 -342h-68l-239 215l-240 -215h-70z
M231 1890q8 47 28.5 84t49.5 63t64 40t71 14q16 0 28.5 -2t29.5 -8t43 -18t69 -32q24 -11 39.5 -17.5t27 -10t21.5 -5t23 -1.5q24 0 42.5 9.5t32 24t23 32.5t16.5 36h60q-5 -25 -20 -60.5t-41 -68.5t-64 -56.5t-90 -23.5q-26 0 -54.5 6t-62.5 23l-72 35q-27 14 -49 22t-47 8
q-7 0 -22 -2t-32 -11t-33 -28t-25 -53h-56z" />
    <glyph glyph-name="uni1EC5" unicode="&#x1ec5;" horiz-adv-x="1139" 
d="M305 487q0 -21 1 -52.5t6 -67.5t16 -74.5t32 -73.5q36 -57 77 -89.5t80 -48t73.5 -19t56.5 -3.5q75 0 131 20t95.5 47t63.5 55t36 44l24 -6q-9 -43 -10.5 -70.5t-3.5 -52.5q-68 -65 -162 -99t-219 -34q-117 0 -210 35.5t-158 102t-99.5 161.5t-34.5 213q0 106 29.5 200.5
t90.5 165.5t153.5 112.5t218.5 41.5q114 0 192 -30t128 -77t76.5 -105.5t38 -114.5t12.5 -104.5t1 -76.5h-735zM836 573q0 17 -1 49t-8 69.5t-22 77t-42 71.5t-69.5 52.5t-103.5 20.5q-67 0 -117 -24.5t-84.5 -69t-54.5 -107t-27 -139.5h529zM532 1466h115l250 -342h-68
l-239 215l-240 -215h-69zM309 1500q7 46 28 83.5t50 63t64 39.5t71 14q16 0 28.5 -2t29.5 -8t43 -17.5t69 -31.5q24 -11 39 -18t26.5 -10.5t21.5 -5t23 -1.5q25 0 43.5 9.5t32 24t23 32.5t16.5 36h59q-5 -24 -19.5 -59.5t-40.5 -68.5t-64.5 -56.5t-90.5 -23.5q-26 0 -54 5.5
t-62 22.5l-72 35q-28 14 -49.5 22.5t-46.5 8.5q-7 0 -22 -2t-32 -11t-33.5 -28t-25.5 -53h-55z" />
    <glyph glyph-name="uni1EC6" unicode="&#x1ec6;" 
d="M445 -320q0 21 8 39t21.5 31.5t32 21.5t39.5 8q20 0 37.5 -7.5t31 -21t21.5 -32t8 -39.5q0 -20 -8 -37.5t-21.5 -31t-31 -21.5t-37.5 -8q-44 0 -72.5 29t-28.5 69zM385 788q122 -2 242.5 -0.5t240.5 15.5q-3 -17 -5.5 -32.5t-2.5 -37.5q0 -17 3 -31.5t5 -31.5
q-40 5 -82 9t-83.5 6.5t-80 3.5t-71.5 1q-42 0 -85 -1t-81 -3q-2 -66 -3 -134t-1 -134q0 -40 0.5 -87t1.5 -91t2 -81.5t2 -58.5q49 0 105.5 0.5t122.5 2.5t143 7.5t168 14.5q-3 -17 -5.5 -32.5t-2.5 -37.5q0 -21 2.5 -35.5t5.5 -29.5q-72 9 -143 10.5t-142 1.5
q-119 0 -237.5 -3.5t-237.5 -8.5q3 38 6 76.5t5 82.5t4.5 97.5t3.5 122t2 155.5t1 199q0 77 -1 165t-2.5 177.5t-5 177t-7.5 162.5q108 -9 214 -10.5t214 -1.5q79 0 156 2t155 10q-3 -17 -5.5 -34.5t-2.5 -37.5q0 -21 2.5 -35.5t5.5 -29.5q-28 5 -57.5 10t-66.5 8.5
t-85.5 5.5t-115.5 2h-50t-44 -0.5t-47 -1.5t-58 -2q-2 -30 -2.5 -53.5t-1 -48.5t-0.5 -56.5v-76.5v-82.5v-60t0.5 -55.5t1.5 -69zM485 1831h115l250 -342h-68l-239 215l-240 -215h-70z" />
    <glyph glyph-name="uni1EC7" unicode="&#x1ec7;" horiz-adv-x="1139" 
d="M305 487q0 -21 1 -52.5t6 -67.5t16 -74.5t32 -73.5q36 -57 77 -89.5t80 -48t73.5 -19t56.5 -3.5q75 0 131 20t95.5 47t63.5 55t36 44l24 -6q-9 -43 -10.5 -70.5t-3.5 -52.5q-68 -65 -162 -99t-219 -34q-117 0 -210 35.5t-158 102t-99.5 161.5t-34.5 213q0 106 29.5 200.5
t90.5 165.5t153.5 112.5t218.5 41.5q114 0 192 -30t128 -77t76.5 -105.5t38 -114.5t12.5 -104.5t1 -76.5h-735zM836 573q0 17 -1 49t-8 69.5t-22 77t-42 71.5t-69.5 52.5t-103.5 20.5q-67 0 -117 -24.5t-84.5 -69t-54.5 -107t-27 -139.5h529zM532 1466h115l250 -342h-68
l-239 215l-240 -215h-69zM489 -341q0 21 8 39t21.5 31.5t32 21.5t39.5 8q20 0 37.5 -7.5t31 -21t21.5 -32t8 -39.5q0 -20 -8 -37.5t-21.5 -31t-31 -21.5t-37.5 -8q-44 0 -72.5 29t-28.5 69z" />
    <glyph glyph-name="uni1EC8" unicode="&#x1ec8;" horiz-adv-x="682" 
d="M257 719v127.5t-0.5 98.5t-1.5 88t-2.5 94.5t-4 118.5t-6.5 161q12 -3 23.5 -5.5t24.5 -4t28.5 -2t36.5 -0.5t37.5 0.5t30 2t26 4t25.5 5.5q-10 -184 -13.5 -365.5t-3.5 -365.5q0 -138 1.5 -241t3.5 -183t5 -142.5t5 -119.5q-29 5 -61 8.5t-66 3.5t-59 -3.5t-50 -8.5
q4 56 7 103.5t5 95t4 98.5t3 113.5t1.5 140t0.5 178.5zM239 1779q-1 13 -2 22t-3 18t-5.5 19.5t-7.5 25.5q24 31 64 51.5t85.5 29.5t92 4.5t84 -24t61 -54.5t23.5 -88q0 -48 -22 -75t-54 -44t-68 -30t-65 -32t-44 -50t-5 -85q-6 2 -11 2.5t-10 -4.5q-23 54 -20.5 92t19 65.5
t43 47t52.5 36t46.5 32t25.5 36.5q10 40 -5 67.5t-42.5 42.5t-62.5 16t-65 -12t-50 -41.5t-18 -72.5z" />
    <glyph glyph-name="uni1EC9" unicode="&#x1ec9;" horiz-adv-x="569" 
d="M219 510q0 87 -1.5 156.5t-4 126t-5.5 102.5t-6 86q22 -6 43.5 -9t57.5 -3q35 0 59 3t47 9q-2 -28 -3 -56t-2.5 -60t-2.5 -70.5t-2 -89t-1.5 -115.5t-0.5 -148v-44t1 -43t1.5 -53t2.5 -72.5t4 -100.5t5 -139q-10 3 -19.5 5t-21 3.5t-25.5 2.5t-34 1q-22 0 -37 -1
t-26.5 -2.5t-21.5 -3.5t-22 -5q3 58 5.5 124t5 134t3.5 135t1 127zM159 1387q-1 13 -2 22t-3 18t-5.5 19.5t-7.5 25.5q24 31 64 51.5t85.5 29.5t92 4.5t84 -24t61 -54.5t23.5 -88q0 -48 -22 -75t-54 -44t-68 -30t-65 -32t-44 -50t-5 -85q-6 2 -11 2.5t-10 -4.5
q-23 54 -20.5 92t19 65.5t43 47t52.5 36t46.5 32t25.5 36.5q10 40 -5 67.5t-42.5 42.5t-62.5 16t-65 -12t-50 -41.5t-18 -72.5z" />
    <glyph glyph-name="uni1ECA" unicode="&#x1eca;" horiz-adv-x="682" 
d="M242 719v127.5t-0.5 98.5t-1.5 88t-2.5 94.5t-4 118.5t-6.5 161q12 -3 23.5 -5.5t24.5 -4t28.5 -2t36.5 -0.5t37.5 0.5t30 2t26 4t25.5 5.5q-10 -184 -13.5 -365.5t-3.5 -365.5q0 -138 1.5 -241t3.5 -183t5 -142.5t5 -119.5q-29 5 -61 8.5t-66 3.5t-59 -3.5t-50 -8.5
q4 56 7 103.5t5 95t4 98.5t3 113.5t1.5 140t0.5 178.5zM234 -320q0 21 8 39t21.5 31.5t32 21.5t39.5 8q20 0 37.5 -7.5t31 -21t21.5 -32t8 -39.5q0 -20 -8 -37.5t-21.5 -31t-31 -21.5t-37.5 -8q-44 0 -72.5 29t-28.5 69z" />
    <glyph glyph-name="uni1ECB" unicode="&#x1ecb;" horiz-adv-x="569" 
d="M197 510q0 87 -1.5 156.5t-4 126t-5.5 102.5t-6 86q22 -6 43.5 -9t57.5 -3q35 0 59 3t47 9q-1 -28 -2.5 -56t-3 -60t-2.5 -70.5t-2 -89t-1.5 -115.5t-0.5 -148v-44t1 -43t1.5 -53t2.5 -72.5t4 -100.5t5 -139q-10 3 -19.5 5t-21 3.5t-25.5 2.5t-34 1q-22 0 -37 -1
t-26.5 -2.5t-21.5 -3.5t-22 -5q3 58 5.5 124t5 134t3.5 135t1 127zM401 1317q0 -23 -9 -43.5t-24 -35.5t-35.5 -23.5t-43.5 -8.5t-43 8.5t-35 23.5t-24 35.5t-9 43.5q0 24 9 44.5t24 35.5t35 24t43 9t43.5 -9t35.5 -24t24 -35.5t9 -44.5zM205 -320q0 21 8 39t21.5 31.5
t32 21.5t39.5 8q20 0 37.5 -7.5t31 -21t21.5 -32t8 -39.5q0 -20 -8 -37.5t-21.5 -31t-31 -21.5t-37.5 -8q-44 0 -72.5 29t-28.5 69z" />
    <glyph glyph-name="uni1ECC" unicode="&#x1ecc;" horiz-adv-x="1821" 
d="M922 1425q107 0 205.5 -20.5t184 -61.5t156 -101t120 -139.5t77 -177t27.5 -212.5q0 -161 -55 -298.5t-157.5 -239t-249 -159t-329.5 -57.5q-167 0 -308.5 50t-244 144t-160 229t-57.5 306q0 163 53 299t154 233t248.5 151t335.5 54zM365 690q0 -150 40 -269t112 -202
t171 -127.5t217 -44.5q121 0 223 43.5t175 127t114 205.5t41 279q0 40 -4 89.5t-14 102t-27.5 105t-44.5 97.5q-42 70 -98.5 116t-119 74t-125 39.5t-114.5 11.5q-102 0 -200 -36t-175 -114t-124 -200.5t-47 -296.5zM825 -320q0 21 8 39t21.5 31.5t32 21.5t39.5 8
q20 0 37.5 -7.5t31 -21t21.5 -32t8 -39.5q0 -20 -8 -37.5t-21.5 -31t-31 -21.5t-37.5 -8q-44 0 -72.5 29t-28.5 69z" />
    <glyph glyph-name="uni1ECD" unicode="&#x1ecd;" horiz-adv-x="1251" 
d="M618 997q146 0 248.5 -44t166.5 -115t93 -162t29 -184q0 -122 -40 -220.5t-111.5 -167.5t-170 -106t-215.5 -37q-54 0 -113.5 9t-117.5 32t-110.5 60.5t-92 95.5t-63 137t-23.5 184q0 120 38 216t107 163t164.5 103t210.5 36zM631 915q-81 0 -136.5 -27.5t-91.5 -70
t-55.5 -94t-28.5 -99.5t-10.5 -86t-1.5 -53q0 -107 22.5 -189t63.5 -138.5t99 -85.5t129 -29q73 0 133 31t103 88t66 138.5t23 182.5q0 40 -5 87.5t-17.5 95.5t-35 93t-57.5 79.5t-84.5 55.5t-115.5 21zM492 -320q0 21 8 39t21.5 31.5t32 21.5t39.5 8q20 0 37.5 -7.5t31 -21
t21.5 -32t8 -39.5q0 -20 -8 -37.5t-21.5 -31t-31 -21.5t-37.5 -8q-44 0 -72.5 29t-28.5 69z" />
    <glyph glyph-name="uni1ECE" unicode="&#x1ece;" horiz-adv-x="1821" 
d="M922 1425q107 0 205.5 -20.5t184 -61.5t156 -101t120 -139.5t77 -177t27.5 -212.5q0 -161 -55 -298.5t-157.5 -239t-249 -159t-329.5 -57.5q-167 0 -308.5 50t-244 144t-160 229t-57.5 306q0 163 53 299t154 233t248.5 151t335.5 54zM365 690q0 -150 40 -269t112 -202
t171 -127.5t217 -44.5q121 0 223 43.5t175 127t114 205.5t41 279q0 40 -4 89.5t-14 102t-27.5 105t-44.5 97.5q-42 70 -98.5 116t-119 74t-125 39.5t-114.5 11.5q-102 0 -200 -36t-175 -114t-124 -200.5t-47 -296.5zM736 1779q-1 13 -2 22t-3 18t-5.5 19.5t-7.5 25.5
q25 31 64.5 51.5t85 29.5t92 4.5t84 -24t61 -54.5t23.5 -88q0 -48 -22 -75t-54 -44t-68 -30t-65 -32t-44 -50t-5 -85q-6 2 -11 2.5t-10 -4.5q-23 54 -20.5 92t19 65.5t43 47t52.5 36t46.5 32t25.5 36.5q10 40 -5 67.5t-42.5 42.5t-62.5 16t-65 -12t-50 -41.5t-18 -72.5z" />
    <glyph glyph-name="uni1ECF" unicode="&#x1ecf;" horiz-adv-x="1251" 
d="M618 997q146 0 248.5 -44t166.5 -115t93 -162t29 -184q0 -122 -40 -220.5t-111.5 -167.5t-170 -106t-215.5 -37q-54 0 -113.5 9t-117.5 32t-110.5 60.5t-92 95.5t-63 137t-23.5 184q0 120 38 216t107 163t164.5 103t210.5 36zM631 915q-81 0 -136.5 -27.5t-91.5 -70
t-55.5 -94t-28.5 -99.5t-10.5 -86t-1.5 -53q0 -107 22.5 -189t63.5 -138.5t99 -85.5t129 -29q73 0 133 31t103 88t66 138.5t23 182.5q0 40 -5 87.5t-17.5 95.5t-35 93t-57.5 79.5t-84.5 55.5t-115.5 21zM502 1387q-1 13 -2 22t-3 18t-5.5 19.5t-7.5 25.5q24 31 64 51.5
t85.5 29.5t92 4.5t84 -24t61 -54.5t23.5 -88q0 -48 -22 -75t-54 -44t-68 -30t-65 -32t-44 -50t-5 -85q-6 2 -11 2.5t-10 -4.5q-23 54 -20.5 92t19 65.5t43 47t52.5 36t46.5 32t25.5 36.5q10 40 -5 67.5t-42.5 42.5t-62.5 16t-65 -12t-50 -41.5t-18 -72.5z" />
    </font>
</defs>
</svg>
