<?xml version="1.0" standalone="no"?>
<!DOCTYPE svg PUBLIC "-//W3C//DTD SVG 20010904//EN"
 "http://www.w3.org/TR/2001/REC-SVG-20010904/DTD/svg10.dtd">
<svg version="1.0" xmlns="http://www.w3.org/2000/svg"
 width="2399.000000pt" height="2399.000000pt" viewBox="0 0 2399.000000 2399.000000"
 preserveAspectRatio="xMidYMid meet">
<metadata>
Created by potrace 1.11, written by Peter Selinger 2001-2013
</metadata>
<g transform="translate(0.000000,2399.000000) scale(0.100000,-0.100000)"
fill="#000000" stroke="none">
<path d="M8348 23985 c-2 -1 -41 -5 -88 -9 -47 -4 -96 -8 -110 -10 -14 -3 -45
-7 -70 -10 -57 -8 -68 -10 -240 -42 -114 -21 -354 -94 -411 -124 -13 -7 -24
-12 -24 -11 0 12 -237 -106 -336 -167 -409 -250 -746 -629 -980 -1103 -80
-162 -216 -515 -234 -607 -2 -11 -13 -54 -24 -94 -22 -81 -66 -281 -75 -343
-3 -22 -10 -65 -15 -95 -12 -66 -25 -174 -36 -300 -11 -120 -5 -418 10 -540 3
-25 8 -65 11 -90 10 -84 55 -289 85 -391 116 -387 319 -745 599 -1053 69 -77
221 -225 260 -255 19 -14 44 -34 55 -44 33 -31 236 -162 308 -200 100 -52 300
-129 376 -143 7 -1 34 -8 60 -14 62 -14 88 -19 136 -25 22 -3 56 -7 75 -10 43
-6 345 -7 380 -1 14 3 52 7 85 11 32 4 62 8 65 10 3 2 30 6 60 10 137 17 440
110 580 177 186 90 351 224 485 393 22 28 42 52 45 55 3 3 32 46 63 96 124
199 215 442 253 678 36 232 22 520 -36 721 -11 39 -22 77 -24 85 -9 33 -49
129 -83 195 -74 146 -174 266 -286 344 -61 41 -179 95 -232 105 -16 3 -46 8
-65 12 -48 9 -184 10 -250 1 -461 -56 -773 -443 -693 -862 25 -135 100 -315
226 -545 72 -132 127 -245 127 -260 0 -9 -13 -24 -30 -33 -16 -10 -36 -24 -44
-32 -32 -32 -202 -107 -299 -132 -84 -22 -126 -26 -237 -27 -146 -1 -187 4
-303 34 -145 37 -296 107 -427 198 -88 62 -257 233 -318 324 -155 230 -260
536 -290 843 -13 139 -6 461 13 555 2 13 7 40 10 60 6 41 8 52 28 140 39 170
93 323 167 470 124 248 265 422 470 578 52 40 100 76 105 80 26 21 178 115
250 154 188 103 435 190 630 223 73 12 93 15 150 22 111 12 399 6 491 -11 10
-2 39 -7 64 -11 65 -11 69 -11 146 -29 38 -9 89 -23 114 -31 25 -9 54 -17 65
-19 52 -10 235 -85 373 -152 356 -174 617 -396 855 -725 99 -137 221 -377 291
-571 40 -111 107 -346 120 -418 2 -14 11 -63 19 -110 18 -95 23 -128 32 -215
4 -33 8 -71 10 -85 35 -235 31 -746 -6 -1005 -24 -162 -29 -193 -43 -260 -70
-326 -150 -552 -299 -845 -315 -622 -873 -1137 -1617 -1494 -223 -106 -330
-133 -445 -109 -109 22 -188 69 -322 189 -76 69 -193 171 -242 210 -13 10 -38
31 -55 45 -172 143 -497 362 -732 495 -424 238 -987 455 -1404 540 -14 2 -33
7 -42 10 -18 5 -46 11 -93 19 -16 3 -37 8 -45 10 -8 2 -33 6 -55 10 -22 3 -47
7 -55 10 -15 4 -52 10 -127 20 -21 3 -52 8 -70 10 -17 3 -53 8 -80 10 -26 3
-58 7 -70 9 -12 3 -57 7 -100 11 -43 3 -94 8 -113 10 -137 17 -644 24 -870 11
-208 -11 -239 -15 -272 -32 -18 -10 -84 -67 -146 -128 l-112 -111 77 -111 c93
-132 117 -161 163 -196 51 -39 201 -93 755 -273 482 -157 721 -246 975 -363
117 -53 303 -142 323 -153 9 -5 61 -33 115 -61 53 -28 111 -60 127 -70 17 -10
39 -22 50 -27 41 -18 285 -167 414 -253 126 -84 355 -251 431 -314 314 -262
510 -457 759 -754 189 -226 409 -566 562 -870 80 -160 199 -431 199 -453 0 -7
4 -17 9 -23 29 -30 214 -653 237 -801 3 -21 8 -41 10 -44 2 -3 6 -21 9 -40 3
-19 12 -69 21 -112 9 -44 17 -91 19 -105 2 -15 8 -56 14 -92 13 -82 38 -293
46 -385 4 -38 8 -81 10 -95 2 -14 7 -79 11 -145 3 -66 8 -142 10 -170 4 -64 3
-604 -1 -670 -1 -27 -6 -99 -9 -160 -4 -60 -8 -121 -11 -135 -2 -14 -7 -56
-10 -95 -3 -38 -8 -81 -10 -95 -2 -14 -7 -50 -10 -80 -45 -380 -178 -905 -319
-1256 -77 -190 -88 -216 -176 -389 -130 -256 -265 -468 -432 -677 -112 -141
-117 -146 -268 -299 -298 -301 -582 -503 -960 -685 -74 -35 -143 -69 -152 -74
-10 -6 -23 -10 -30 -10 -7 0 -24 -6 -38 -13 -51 -27 -378 -132 -470 -152 -119
-26 -164 -35 -187 -39 -64 -11 -171 -28 -208 -32 -22 -3 -53 -7 -70 -9 -138
-20 -546 -26 -720 -12 -151 13 -248 25 -350 42 -399 69 -731 185 -1060 369
-324 180 -621 425 -849 696 -39 47 -74 87 -77 90 -11 10 -87 117 -156 220
-110 164 -205 345 -309 585 -92 215 -204 656 -230 905 -3 30 -7 69 -9 85 -23
186 -23 610 -1 785 2 14 7 57 10 95 4 39 9 77 11 85 2 8 6 38 10 65 3 28 10
68 15 90 5 22 12 56 15 75 13 79 49 210 86 319 21 64 41 123 43 131 8 29 77
185 113 254 57 111 184 321 203 336 3 3 20 25 37 50 61 89 262 305 349 374 14
11 40 34 58 49 92 82 367 244 521 307 45 19 174 60 235 75 148 38 255 50 440
49 164 0 200 -4 379 -39 58 -11 232 -70 296 -99 39 -18 100 -54 137 -79 80
-55 402 -306 406 -317 3 -7 -48 -53 -230 -209 -188 -160 -227 -206 -302 -357
-128 -258 -201 -472 -233 -684 -13 -85 -6 -297 12 -390 3 -14 10 -50 16 -80
28 -143 120 -351 209 -475 67 -93 169 -196 255 -259 68 -50 83 -59 149 -95 88
-48 247 -103 341 -116 22 -4 51 -9 65 -11 47 -10 305 -13 365 -4 120 16 282
55 299 71 6 5 16 9 23 9 18 0 138 58 213 103 219 133 423 360 548 612 37 74
124 302 137 356 3 13 20 88 39 166 19 78 37 170 41 205 4 34 9 66 11 69 17 29
25 483 11 629 -5 47 -9 92 -9 100 0 8 -4 35 -9 60 -4 25 -11 61 -14 80 -42
285 -170 651 -320 915 -189 334 -459 631 -756 833 -333 227 -799 397 -1218
447 -30 4 -63 9 -75 11 -128 25 -690 23 -821 -2 -11 -2 -45 -6 -75 -9 -30 -3
-62 -7 -70 -10 -8 -2 -35 -7 -60 -10 -25 -4 -67 -11 -95 -16 -27 -6 -61 -13
-75 -15 -221 -43 -606 -177 -825 -288 -422 -212 -711 -444 -1020 -821 -403
-490 -706 -1094 -879 -1755 -27 -103 -80 -340 -90 -405 -4 -22 -11 -67 -16
-100 -9 -57 -13 -86 -24 -165 -3 -19 -7 -62 -11 -95 -3 -33 -8 -73 -10 -90
-25 -172 -25 -780 -1 -990 3 -22 7 -65 10 -95 3 -30 10 -89 16 -130 6 -41 13
-93 16 -115 4 -39 28 -176 38 -225 3 -14 15 -70 26 -125 19 -90 35 -157 84
-340 37 -138 121 -378 196 -565 251 -621 650 -1226 1091 -1655 336 -327 765
-612 1194 -794 55 -23 109 -46 120 -51 183 -80 596 -201 845 -246 14 -2 48 -9
75 -14 28 -5 68 -12 90 -15 22 -3 54 -7 70 -10 58 -9 138 -18 250 -30 217 -22
763 -23 895 -1 14 2 57 7 96 10 39 4 80 8 90 10 11 2 42 7 69 10 48 7 63 9
138 21 17 3 46 8 62 11 55 9 179 35 235 49 30 8 66 16 80 18 124 23 554 168
718 243 29 13 55 24 57 24 22 0 434 215 510 266 11 8 85 57 164 109 134 90
180 122 257 185 17 14 51 41 75 60 126 102 390 361 511 503 49 56 99 116 114
132 40 48 217 284 265 355 24 36 47 70 52 75 21 27 143 225 207 336 82 143
226 426 295 579 106 235 256 635 316 843 71 247 57 197 108 397 21 85 49 202
61 260 27 129 29 138 35 175 3 17 14 77 25 135 10 58 22 125 25 150 3 25 8 58
11 74 4 15 8 45 10 65 4 50 12 120 18 161 9 61 20 176 31 305 26 305 26 1118
1 1251 -2 11 -7 64 -11 119 -3 54 -8 102 -10 105 -1 3 -6 37 -10 75 -4 39 -8
81 -10 95 -7 53 -16 116 -20 140 -3 14 -7 39 -9 55 -25 156 -65 373 -86 455
-5 19 -11 46 -14 60 -28 140 -117 453 -192 671 -136 395 -308 773 -610 1336
-19 35 -81 155 -139 267 l-106 205 78 36 c95 45 156 70 248 100 162 54 445
185 601 280 245 149 435 297 635 495 180 179 218 222 341 384 150 198 255 369
374 605 40 82 74 151 74 155 0 3 11 30 25 61 36 78 127 320 140 375 1 3 4 12
7 20 33 86 122 449 134 545 2 17 8 50 13 75 11 50 19 104 26 165 6 63 16 147
20 180 9 62 19 336 18 485 -2 297 -16 468 -69 802 -40 254 -149 648 -258 931
-65 169 -228 508 -277 579 -11 14 -19 29 -19 33 0 15 -175 268 -256 370 -85
107 -303 333 -394 408 -208 171 -466 332 -670 417 -41 17 -88 37 -105 45 -94
41 -422 133 -540 150 -22 3 -69 10 -104 16 -35 5 -84 12 -110 15 -51 5 -517
14 -523 9z"/>
<path d="M15187 23943 c-1 0 -47 -4 -102 -7 -56 -4 -112 -8 -125 -11 -14 -2
-47 -6 -75 -10 -27 -3 -57 -8 -65 -10 -8 -2 -33 -6 -55 -10 -165 -24 -423
-108 -634 -206 -76 -36 -319 -173 -331 -188 -3 -3 -27 -21 -55 -40 -228 -156
-508 -430 -711 -696 -232 -304 -423 -673 -559 -1078 -48 -144 -116 -389 -131
-472 -3 -16 -11 -59 -19 -95 -16 -72 -19 -89 -39 -235 -27 -187 -28 -193 -42
-395 -19 -273 -4 -713 32 -954 4 -21 8 -53 9 -70 16 -167 112 -577 193 -823
88 -266 242 -607 360 -800 27 -43 55 -89 63 -103 131 -224 417 -559 657 -769
81 -70 299 -236 368 -278 269 -168 501 -281 789 -386 99 -36 258 -87 272 -87
6 0 14 -4 17 -9 8 -13 -65 -168 -114 -242 -22 -34 -51 -80 -64 -103 -13 -23
-41 -70 -63 -106 -22 -36 -52 -87 -68 -115 -15 -27 -48 -86 -72 -130 -42 -75
-186 -365 -248 -500 -43 -93 -148 -357 -199 -497 -41 -114 -149 -458 -161
-511 -2 -12 -14 -58 -25 -102 -12 -44 -24 -91 -26 -105 -3 -14 -7 -33 -10 -42
-6 -20 -6 -21 -37 -173 -14 -66 -28 -136 -31 -155 -3 -19 -8 -46 -11 -60 -2
-13 -7 -40 -10 -60 -3 -20 -7 -47 -10 -60 -6 -31 -27 -196 -40 -310 -32 -300
-39 -440 -39 -810 -1 -296 6 -496 19 -625 3 -22 7 -71 10 -110 3 -38 7 -83 9
-100 3 -16 7 -61 11 -100 4 -38 9 -79 11 -90 2 -11 11 -72 19 -135 8 -63 17
-126 20 -140 2 -14 11 -70 20 -125 13 -79 83 -442 100 -515 2 -8 13 -55 24
-105 59 -258 194 -725 241 -830 5 -11 20 -51 34 -90 119 -338 342 -801 524
-1085 66 -103 196 -295 209 -308 7 -7 13 -17 13 -20 0 -4 10 -18 23 -32 12
-14 42 -52 66 -84 124 -166 398 -457 591 -628 453 -399 1046 -739 1645 -943
44 -14 89 -31 100 -35 73 -32 466 -134 632 -165 16 -3 37 -7 48 -9 11 -2 40
-7 65 -11 25 -4 54 -9 65 -11 11 -2 58 -9 105 -14 47 -6 99 -12 115 -15 197
-27 812 -27 965 0 8 1 44 6 80 11 36 4 67 8 70 9 3 1 28 5 55 9 28 4 70 11 95
16 25 6 56 12 70 14 91 14 310 73 470 126 824 272 1530 793 2090 1540 49 66
90 125 90 130 0 4 4 10 8 12 10 4 99 140 179 273 223 371 430 841 552 1255 12
41 26 86 31 100 19 52 80 302 115 465 41 196 45 213 60 320 4 22 8 47 10 55 2
8 7 42 11 75 3 33 8 68 10 78 3 17 9 79 19 192 27 308 23 716 -10 960 -2 17
-7 57 -10 90 -4 33 -11 78 -15 100 -5 22 -12 63 -15 90 -4 28 -8 58 -11 67 -5
18 -11 47 -20 93 -2 17 -10 48 -15 70 -6 22 -12 47 -14 55 -33 165 -191 628
-260 760 -7 14 -37 75 -66 135 -112 235 -300 539 -461 750 -67 87 -197 246
-233 285 -156 168 -221 235 -354 360 -25 23 -210 171 -271 216 -286 211 -699
401 -1040 479 -47 10 -171 34 -205 40 -206 31 -304 38 -510 38 -132 0 -338 -9
-384 -18 -9 -1 -43 -6 -76 -9 -57 -7 -72 -9 -147 -21 -72 -12 -198 -37 -278
-56 -47 -12 -95 -23 -107 -25 -43 -8 -260 -74 -378 -114 -303 -104 -583 -280
-825 -521 -106 -105 -146 -149 -208 -229 -23 -30 -46 -60 -50 -65 -37 -45
-134 -198 -188 -296 -170 -306 -294 -668 -339 -984 -3 -23 -7 -51 -10 -65 -13
-65 -19 -185 -19 -380 -1 -225 6 -320 35 -485 18 -99 68 -299 88 -350 5 -11
27 -69 51 -130 97 -251 220 -438 398 -605 194 -183 445 -310 697 -354 81 -14
353 -15 425 -1 399 76 742 331 935 698 70 132 126 297 141 416 3 25 8 57 10
71 7 35 6 245 -1 300 -22 175 -80 355 -157 494 -114 202 -240 333 -495 514
l-182 130 79 80 c112 114 256 202 459 281 95 37 260 84 336 95 17 2 48 7 70
10 164 25 392 23 555 -4 30 -5 71 -12 90 -15 119 -19 332 -88 475 -153 335
-154 647 -407 843 -682 25 -36 49 -67 52 -70 11 -9 107 -173 139 -238 89 -178
203 -481 236 -631 2 -9 15 -65 29 -124 14 -60 28 -132 31 -160 4 -29 8 -54 10
-57 2 -3 6 -34 10 -70 4 -36 9 -74 11 -85 24 -122 23 -638 -1 -795 -2 -14 -7
-50 -10 -80 -12 -104 -46 -282 -81 -418 -31 -124 -101 -347 -124 -397 -5 -11
-26 -60 -46 -110 -125 -301 -327 -622 -532 -845 -294 -321 -562 -506 -1005
-694 -232 -99 -612 -220 -817 -261 -8 -2 -26 -6 -40 -9 -27 -6 -40 -9 -170
-32 -302 -54 -446 -67 -725 -68 -146 0 -294 5 -355 12 -100 13 -117 15 -192
27 -57 10 -181 35 -223 47 -22 5 -50 12 -62 14 -59 11 -324 103 -448 156 -273
117 -569 290 -775 455 -30 24 -64 51 -75 60 -128 102 -334 302 -440 424 -38
45 -75 87 -81 93 -25 27 -154 197 -194 256 -24 36 -48 70 -53 75 -31 37 -166
269 -243 420 -221 430 -373 910 -468 1475 -9 52 -18 104 -20 115 -2 11 -7 45
-11 75 -11 74 -11 76 -19 145 -4 33 -9 71 -12 85 -2 14 -6 56 -10 95 -3 38 -7
84 -9 100 -27 233 -26 981 0 1148 2 12 6 54 10 92 3 39 8 84 10 100 3 17 7 46
9 65 8 65 19 135 23 155 2 11 6 34 8 50 3 17 7 41 10 55 13 65 15 77 19 100
35 194 117 498 203 745 178 515 497 1101 802 1471 14 17 35 42 45 55 129 162
429 473 586 610 144 124 337 276 460 362 474 329 948 571 1615 822 178 67 241
89 700 247 193 66 382 131 420 144 39 14 75 26 80 28 6 2 17 6 25 9 8 3 29 10
45 15 289 99 383 178 371 317 -8 96 -31 144 -99 208 -54 51 -167 110 -230 122
-142 24 -882 25 -1072 1 -16 -2 -66 -7 -110 -11 -44 -4 -87 -8 -95 -10 -8 -1
-40 -6 -71 -9 -31 -4 -65 -8 -75 -10 -11 -2 -41 -7 -69 -10 -143 -20 -505 -96
-630 -132 -444 -131 -676 -221 -1043 -406 -458 -232 -931 -570 -1357 -971 -16
-15 -67 -46 -112 -68 -98 -48 -167 -59 -233 -36 -104 37 -358 150 -467 209
-135 72 -163 88 -238 133 -78 47 -285 184 -295 195 -3 3 -43 35 -90 71 -153
119 -324 284 -454 439 -64 76 -96 117 -173 225 -39 55 -150 239 -190 315 -140
267 -280 696 -318 975 -3 17 -7 41 -9 55 -8 40 -23 159 -30 245 -31 347 -23
713 21 1015 8 58 16 116 18 130 4 24 19 101 29 145 20 89 29 125 50 197 94
317 250 623 432 851 62 77 144 167 208 226 21 20 50 47 65 61 37 36 155 128
231 181 303 212 703 379 994 415 22 3 43 7 46 9 8 5 193 18 255 18 81 0 246
-13 300 -23 28 -5 66 -12 85 -15 19 -3 43 -8 52 -11 9 -3 25 -6 35 -8 166 -32
459 -152 663 -272 334 -196 539 -411 705 -739 91 -179 171 -419 200 -595 4
-25 9 -53 11 -64 29 -158 25 -567 -7 -714 -5 -23 -12 -59 -15 -79 -18 -115
-99 -339 -174 -482 -197 -373 -539 -617 -954 -680 -89 -13 -290 -6 -376 14
-121 28 -263 92 -350 158 -41 31 -110 97 -110 106 0 4 15 23 33 42 409 425
498 937 220 1274 -144 175 -425 305 -648 299 -220 -5 -397 -80 -552 -233 -158
-156 -268 -380 -308 -631 -3 -19 -7 -42 -10 -50 -18 -69 -26 -353 -14 -470 26
-243 77 -427 174 -625 72 -149 159 -276 267 -390 189 -199 400 -323 708 -414
58 -17 119 -36 135 -41 30 -9 204 -44 280 -55 88 -14 411 -13 505 0 438 64
793 248 1136 589 280 279 465 552 610 903 33 80 80 213 90 256 2 9 6 25 9 35
13 50 37 150 41 172 3 14 9 43 14 65 5 22 12 67 15 100 4 33 9 68 10 77 9 46
18 229 18 354 -1 235 -25 445 -84 739 -12 55 -22 107 -24 115 -16 74 -63 242
-100 358 -320 995 -942 1601 -1865 1817 -53 12 -160 35 -185 40 -142 26 -191
35 -237 40 -167 19 -211 22 -293 24 -49 1 -123 3 -163 4 -41 1 -74 1 -75 0z"/>
<path d="M11964 17724 c-25 -38 -244 -418 -360 -624 -17 -30 -44 -77 -61 -105
-16 -27 -32 -57 -36 -65 -5 -8 -13 -24 -20 -35 -7 -11 -57 -99 -112 -195 -55
-96 -105 -184 -112 -195 -7 -11 -16 -27 -20 -35 -4 -8 -30 -55 -59 -105 -28
-49 -90 -157 -136 -240 -278 -492 -290 -519 -292 -665 0 -66 11 -186 19 -200
2 -3 6 -29 10 -59 4 -30 8 -61 10 -70 2 -14 8 -53 20 -131 10 -61 36 -228 41
-255 3 -16 7 -41 9 -55 2 -14 6 -38 9 -55 4 -24 20 -123 41 -250 2 -11 12 -81
24 -155 11 -74 23 -146 25 -160 2 -14 10 -59 16 -100 6 -41 13 -86 16 -100 2
-14 8 -59 14 -101 6 -41 12 -84 14 -95 2 -10 7 -44 10 -75 4 -31 8 -65 10 -75
2 -11 7 -48 11 -84 3 -36 8 -72 10 -80 2 -8 6 -42 10 -75 3 -33 8 -78 11 -100
2 -22 7 -62 9 -90 3 -27 8 -66 10 -85 5 -42 16 -178 31 -380 3 -52 8 -111 9
-130 22 -269 22 -1016 0 -1300 -1 -19 -5 -82 -9 -140 -4 -58 -9 -116 -11 -130
-2 -14 -6 -56 -10 -95 -6 -76 -8 -95 -26 -225 -6 -47 -13 -103 -15 -125 -2
-22 -6 -51 -9 -65 -2 -14 -7 -45 -10 -70 -9 -70 -31 -199 -56 -330 -5 -25 -11
-57 -13 -71 -42 -243 -204 -836 -311 -1134 -272 -760 -631 -1430 -1110 -2071
-79 -104 -149 -197 -156 -205 -8 -8 -32 -37 -54 -64 -131 -164 -369 -427 -556
-614 -397 -397 -725 -669 -1248 -1035 -44 -31 -153 -106 -421 -288 -69 -46
-181 -124 -250 -171 -69 -47 -151 -103 -182 -124 -31 -21 -57 -42 -57 -48 0
-5 28 -31 62 -57 34 -26 73 -56 87 -67 40 -32 320 -250 426 -331 54 -41 102
-79 108 -85 6 -5 49 -39 96 -75 90 -68 618 -490 641 -512 8 -7 39 -33 69 -58
30 -25 68 -57 85 -72 188 -166 275 -220 359 -224 102 -4 167 40 392 263 134
133 220 225 355 378 24 28 46 52 49 55 21 21 227 282 315 400 200 269 476 700
650 1015 160 289 387 739 495 980 61 137 75 168 123 270 103 219 116 242 117
215 1 -14 3 -34 5 -45 2 -11 7 -58 10 -105 4 -47 8 -95 10 -108 22 -138 22
-877 0 -1077 -2 -16 -6 -68 -10 -115 -4 -47 -8 -92 -10 -100 -1 -8 -6 -45 -9
-82 -4 -37 -9 -77 -11 -90 -2 -13 -6 -45 -10 -73 -17 -141 -71 -435 -110 -600
-13 -55 -26 -112 -29 -128 -20 -114 -176 -619 -263 -852 -146 -392 -361 -861
-561 -1225 l-41 -76 240 -199 c133 -110 246 -205 253 -210 6 -6 61 -51 121
-101 376 -311 553 -458 575 -477 14 -12 160 -134 325 -271 358 -297 353 -292
387 -324 32 -30 31 -30 149 69 89 75 91 78 459 384 157 130 305 254 330 275
25 20 101 84 170 141 69 57 127 106 130 109 3 3 27 24 55 45 27 22 63 52 80
66 16 15 154 129 305 254 151 125 279 231 283 235 5 4 -28 76 -72 159 -166
308 -351 700 -447 951 -14 36 -34 86 -45 112 -10 25 -30 79 -44 120 -15 40
-30 82 -35 93 -58 133 -230 739 -280 985 -5 25 -12 56 -15 70 -15 72 -67 377
-80 470 -2 14 -6 43 -9 65 -24 176 -39 353 -52 595 -14 245 -7 731 11 930 3
25 6 60 7 78 0 18 5 35 9 38 23 14 122 -156 232 -396 281 -617 639 -1285 932
-1740 127 -197 159 -245 167 -248 4 -2 8 -10 8 -18 0 -8 5 -14 10 -14 6 0 10
-4 10 -9 0 -26 438 -603 536 -705 5 -6 43 -49 84 -96 125 -144 254 -264 322
-300 54 -29 73 -34 133 -35 112 0 165 31 365 215 52 48 116 105 141 126 25 22
72 62 104 89 74 63 352 282 515 405 69 52 194 148 278 213 84 65 215 163 290
218 75 55 147 108 159 117 13 9 86 62 162 116 120 86 137 102 123 111 -9 7
-55 32 -102 57 -47 25 -112 60 -145 78 -33 18 -94 50 -135 73 -158 85 -209
113 -350 195 -296 173 -644 402 -910 600 -108 81 -299 229 -310 241 -3 4 -26
23 -52 44 -26 21 -53 43 -60 50 -7 7 -29 25 -48 41 -247 203 -638 594 -870
871 -41 50 -78 92 -81 95 -7 5 -233 300 -261 341 -10 13 -46 65 -81 114 -57
81 -217 327 -242 372 -5 10 -38 66 -71 123 -85 146 -111 194 -197 365 -112
224 -155 322 -289 649 -45 111 -174 490 -201 591 -3 11 -15 52 -26 90 -50 163
-173 684 -186 785 -1 8 -7 42 -13 75 -6 33 -14 74 -16 90 -3 17 -12 71 -20
120 -8 50 -17 108 -20 130 -2 22 -11 94 -20 160 -8 66 -18 147 -21 180 -3 33
-8 78 -10 100 -3 22 -7 76 -10 120 -3 44 -7 109 -10 145 -23 328 -23 964 0
1185 2 22 7 83 10 135 3 52 8 113 10 135 2 22 7 67 10 100 3 33 7 74 10 90 2
17 6 57 9 90 11 103 17 148 26 200 5 28 12 73 15 100 3 28 8 64 11 80 3 17 7
41 9 55 11 76 17 109 25 150 5 25 14 72 20 105 11 68 16 90 30 160 6 28 12 60
15 73 2 13 6 31 9 40 3 9 8 33 11 52 3 19 26 117 50 217 25 101 46 193 49 205
2 13 9 41 14 63 6 22 13 57 16 79 4 21 8 41 10 45 2 3 7 28 10 55 4 27 9 52
10 55 2 3 6 33 10 66 3 33 8 71 11 84 20 102 27 466 12 611 -43 423 -208 807
-499 1163 -197 240 -250 333 -438 782 -49 116 -104 243 -122 284 l-34 74 -20
-29z"/>
</g>
</svg>
